<svg width="179" height="100" viewBox="0 0 179 100" fill="none" xmlns="http://www.w3.org/2000/svg">
<rect width="179" height="100" fill="white"/>
<g clip-path="url(#clip0_406_7123)">
<path d="M57.4244 17.6251H3.82879V7.78957H57.4244V17.6251ZM61.2532 3.99994H0V21.4128H61.2532V3.99994Z" fill="#00B188"/>
<path d="M3.82878 50.1923H0V32.7795H3.82878V39.6605H10.6696V32.7795H14.4984V50.1923H10.6696V42.9761H3.82878V50.1923Z" fill="#231F20"/>
<path d="M20.297 42.5581H24.8575C24.7726 41.2775 24.2386 40.385 22.7459 40.385C21.6198 40.385 20.6344 40.8595 20.297 42.5581ZM23.1962 50.4711C19.3116 50.4711 16.666 48.0468 16.666 44.0645C16.666 40.1904 19.2558 37.5163 22.6901 37.5163C26.434 37.5163 28.2919 39.9957 28.2919 43.7018V45.0953H20.297C20.7484 47.0161 22.2678 47.5171 23.7884 47.5171C25.1112 47.5171 26.0675 47.2396 27.2495 46.514H27.3915V49.3839C26.3781 50.1095 24.9413 50.4711 23.1962 50.4711Z" fill="#231F20"/>
<path d="M38.2838 42.8932L36.313 50.1923H32.9635L29.1348 37.9331V37.7937H32.7949L34.8773 45.1216L36.8481 37.7937H39.8323L41.831 45.1216L43.9426 37.7937H47.4619V37.9331L43.6332 50.1923H40.2825L38.2838 42.8932Z" fill="#231F20"/>
<path d="M53.6814 50.4711C50.6414 50.4711 49.4023 49.2734 49.4023 46.4599V32.7807H53.1183V46.2089C53.1183 47.0726 53.4556 47.3789 54.1874 47.3789C54.441 47.3789 54.8075 47.296 55.032 47.2119H55.0891V50.2488C54.7796 50.3593 54.2444 50.4711 53.6814 50.4711Z" fill="#231F20"/>
<path d="M59.7638 42.5581H64.3243C64.2394 41.2775 63.7054 40.385 62.2127 40.385C61.0878 40.385 60.1012 40.8595 59.7638 42.5581ZM62.663 50.4711C58.7784 50.4711 56.1328 48.0468 56.1328 44.0645C56.1328 40.1904 58.7225 37.5163 62.1569 37.5163C65.9008 37.5163 67.7587 39.9957 67.7587 43.7018V45.0953H59.7638C60.214 47.0161 61.7346 47.5171 63.254 47.5171C64.578 47.5171 65.5343 47.2396 66.7175 46.514H66.8583V49.3839C65.8449 50.1095 64.4093 50.4711 62.663 50.4711Z" fill="#231F20"/>
<path d="M83.0141 37.7937H85.7726V40.7465H83.0141V45.7896C83.0141 46.8768 83.4365 47.3789 84.5626 47.3789C84.8721 47.3789 85.2665 47.3501 85.6888 47.2107H85.7726V50.1083C85.2944 50.2764 84.5626 50.4698 83.4935 50.4698C80.4802 50.4698 79.2982 49.1052 79.2982 45.9566V40.7465H74.5411V45.7896C74.5411 46.8768 74.9634 47.3789 76.0884 47.3789C76.399 47.3789 76.7934 47.3501 77.2158 47.2107H77.2995V50.1083C76.8213 50.2764 76.0884 50.4698 75.0204 50.4698C72.0072 50.4698 70.8252 49.1052 70.8252 45.9566V40.7465H68.9102V37.7937H70.8252V34.3953H74.5411V37.7937H79.2982V34.3953H83.0141V37.7937Z" fill="#231F20"/>
<path d="M98.2943 41.3327C100.238 41.3327 101.166 40.2468 101.166 38.6863C101.166 37.0693 100.238 35.9834 98.2943 35.9834H95.8732V41.3327H98.2943ZM105.051 38.6863C105.051 42.4764 102.49 44.5366 98.6037 44.5366H95.8732V50.1923H92.0469V32.7795H98.6037C102.49 32.7795 105.051 34.8409 105.051 38.6863Z" fill="#231F20"/>
<path d="M113.212 46.2918V45.2334C112.649 44.9283 111.919 44.8166 111.158 44.8166C109.948 44.8166 109.216 45.2611 109.216 46.2641C109.216 47.2961 109.948 47.7417 111.045 47.7417C112.086 47.7417 112.875 47.212 113.212 46.2918ZM113.325 48.9671C112.508 49.9425 111.3 50.4158 110.002 50.4158C107.555 50.4158 105.555 48.9406 105.555 46.3194C105.555 43.8964 107.555 42.2806 110.425 42.2806C111.325 42.2806 112.256 42.42 113.212 42.6975V42.4764C113.212 41.1382 112.453 40.5544 110.455 40.5544C109.187 40.5544 107.977 40.9148 106.935 41.501H106.795V38.547C107.751 37.9908 109.442 37.5163 111.101 37.5163C114.874 37.5163 116.928 39.299 116.928 42.42V50.1924H113.325V48.9671Z" fill="#231F20"/>
<path d="M118.814 44.0081C118.814 40.0234 121.659 37.5163 125.375 37.5163C126.698 37.5163 127.936 37.795 128.865 38.4629V41.6115H128.723C127.906 40.9988 126.95 40.636 125.853 40.636C123.995 40.636 122.587 41.8914 122.587 44.0081C122.587 46.1248 123.995 47.3513 125.853 47.3513C126.95 47.3513 127.906 46.9885 128.723 46.3746H128.865V49.5232C127.936 50.1924 126.698 50.4711 125.375 50.4711C121.659 50.4711 118.814 47.9928 118.814 44.0081Z" fill="#231F20"/>
<path d="M134.916 44.5654V50.1923H131.201V32.7795H134.916V42.6974L138.661 37.7937H142.883V37.9331L138.379 43.5612L142.883 50.053V50.1923H138.632L134.916 44.5654Z" fill="#231F20"/>
<path d="M151.215 46.2918V45.2334C150.653 44.9283 149.92 44.8166 149.16 44.8166C147.95 44.8166 147.219 45.2611 147.219 46.2641C147.219 47.2961 147.95 47.7417 149.046 47.7417C150.09 47.7417 150.878 47.212 151.215 46.2918ZM151.328 48.9671C150.511 49.9425 149.3 50.4158 148.006 50.4158C145.556 50.4158 143.559 48.9406 143.559 46.3194C143.559 43.8964 145.556 42.2806 148.43 42.2806C149.33 42.2806 150.257 42.42 151.215 42.6975V42.4764C151.215 41.1382 150.455 40.5544 148.457 40.5544C147.191 40.5544 145.978 40.9148 144.937 41.501H144.796V38.547C145.754 37.9908 147.443 37.5163 149.103 37.5163C152.878 37.5163 154.932 39.299 154.932 42.42V50.1924H151.328V48.9671Z" fill="#231F20"/>
<path d="M161.181 39.7999C161.856 38.434 162.843 37.6544 164.222 37.6544C164.728 37.6544 165.234 37.7661 165.43 37.8778V41.388H165.29C164.868 41.2198 164.362 41.1093 163.658 41.1093C162.504 41.1093 161.604 41.7784 161.293 43.059V50.1923H157.578V37.7937H161.181V39.7999Z" fill="#231F20"/>
<path d="M175.283 45.9854V42.0007C174.665 41.1094 173.849 40.7201 172.918 40.7201C171.287 40.7201 170.189 41.8914 170.189 44.0081C170.189 46.1248 171.287 47.2672 172.918 47.2672C173.849 47.2672 174.665 46.8768 175.283 45.9854ZM175.395 48.9118C174.608 49.9149 173.368 50.4711 171.68 50.4711C168.471 50.4711 166.416 47.5747 166.416 44.0081C166.416 40.4414 168.471 37.5163 171.68 37.5163C173.313 37.5163 174.495 38.0184 175.283 38.9374V32.7807H178.999V50.1924H175.395V48.9118Z" fill="#231F20"/>
<path d="M0 55.8793H10.8662V57.996H2.44896V63.3165H10.0774V65.3791H2.44896V71.1742H10.8662V73.2909H0V55.8793Z" fill="#231F20"/>
<path d="M19.845 60.7818C22.6313 60.7818 24.1798 62.5933 24.1798 65.5725V73.2909H21.8437V65.629C21.8437 64.0409 21.027 62.8985 19.254 62.8985C17.7904 62.8985 16.5514 63.8187 16.1291 65.1269V73.2909H13.793V61.0328H16.1291V62.8156C16.8608 61.6731 18.0999 60.7818 19.845 60.7818Z" fill="#231F20"/>
<path d="M30.46 61.0329H33.6407V63.0114H30.46V69.6137C30.46 71.0061 31.1918 71.4806 32.5145 71.4806C32.8798 71.4806 33.2742 71.4253 33.5558 71.3136H33.6407V73.2909C33.3034 73.4303 32.824 73.542 32.1772 73.542C29.2768 73.542 28.1239 72.2314 28.1239 69.8372V63.0114H25.9844V61.0329H28.1239V57.7749H30.46V61.0329Z" fill="#231F20"/>
<path d="M37.5519 65.963H43.7168C43.6331 64.1526 42.7314 62.7603 40.8176 62.7603C39.0446 62.7603 37.8893 64.0698 37.5519 65.963ZM41.2399 73.542C37.6077 73.542 35.1309 71.1454 35.1309 67.3012C35.1309 63.4559 37.439 60.7818 40.7897 60.7818C44.1961 60.7818 45.9692 63.206 45.9692 66.7991V67.8586H37.467C37.7206 70.3381 39.3261 71.5358 41.5494 71.5358C42.9292 71.5358 43.9134 71.2295 45.0117 70.421H45.0966V72.456C44.0833 73.2357 42.7593 73.542 41.2399 73.542Z" fill="#231F20"/>
<path d="M51.0646 62.9273C51.5998 61.6179 52.783 60.8382 54.1325 60.8382C54.6689 60.8382 55.147 60.9211 55.3436 61.0328V63.3165H55.2599C54.9213 63.1507 54.3582 63.0666 53.7951 63.0666C52.5294 63.0666 51.459 63.9015 51.0646 65.2951V73.2909H48.7285V61.0328H51.0646V62.9273Z" fill="#231F20"/>
<path d="M62.8857 71.4517C65.1939 71.4517 66.5458 69.6414 66.5458 67.1607C66.5458 64.71 65.1939 62.872 62.8857 62.872C61.6187 62.872 60.4367 63.6241 59.8178 64.8206V69.5308C60.4367 70.7273 61.6187 71.4517 62.8857 71.4517ZM63.2801 60.7818C66.9669 60.7818 68.9377 63.7634 68.9377 67.1607C68.9377 70.5616 66.9669 73.542 63.2801 73.542C61.7595 73.542 60.4646 72.7623 59.8178 71.925V78H57.4805V61.0329H59.8178V62.4252C60.4646 61.5614 61.7595 60.7818 63.2801 60.7818Z" fill="#231F20"/>
<path d="M74.0353 62.9273C74.5693 61.6179 75.7525 60.8382 77.1032 60.8382C77.6384 60.8382 78.1165 60.9211 78.3131 61.0328V63.3165H78.2294C77.892 63.1507 77.3289 63.0666 76.7658 63.0666C75.4989 63.0666 74.4297 63.9015 74.0353 65.2951V73.2909H71.6992V61.0328H74.0353V62.9273Z" fill="#231F20"/>
<path d="M81.6899 56.0739C82.5067 56.0739 83.1814 56.7142 83.1814 57.5227C83.1814 58.3311 82.5067 58.9714 81.6899 58.9714C80.9023 58.9714 80.1973 58.3311 80.1973 57.5227C80.1973 56.7142 80.9023 56.0739 81.6899 56.0739Z" fill="#231F20"/>
<path d="M80.5371 73.2909H82.8744V61.0328H80.5371V73.2909Z" fill="#231F20"/>
<path d="M91.2066 66.1312C92.9797 66.6874 94.9493 67.4118 94.9493 69.7519C94.9493 72.2602 92.8668 73.542 90.1933 73.542C88.5599 73.542 86.9276 73.1516 85.998 72.4272V70.2264H86.1109C87.1534 71.173 88.7006 71.5911 90.1642 71.5911C91.487 71.5911 92.6702 71.0889 92.6702 70.0306C92.6702 68.9446 91.686 68.6936 89.7419 68.0533C87.9968 67.4959 86.0551 66.8544 86.0551 64.5431C86.0551 62.1741 88.0247 60.7818 90.5307 60.7818C91.9942 60.7818 93.2891 61.0881 94.3303 61.7849V64.0145H94.2466C93.2345 63.206 92.0501 62.7315 90.5865 62.7315C89.123 62.7315 88.3062 63.373 88.3062 64.2367C88.3062 65.2122 89.2067 65.4897 91.2066 66.1312Z" fill="#231F20"/>
<path d="M99.3976 65.963H105.561C105.478 64.1526 104.577 62.7603 102.662 62.7603C100.889 62.7603 99.735 64.0698 99.3976 65.963ZM103.084 73.542C99.4534 73.542 96.9766 71.1454 96.9766 67.3012C96.9766 63.4559 99.2848 60.7818 102.634 60.7818C106.042 60.7818 107.814 63.206 107.814 66.7991V67.8586H99.3127C99.5663 70.3381 101.171 71.5358 103.394 71.5358C104.775 71.5358 105.759 71.2295 106.856 70.421H106.941V72.456C105.929 73.2357 104.605 73.542 103.084 73.542Z" fill="#231F20"/>
</g>
<defs>
<clipPath id="clip0_406_7123">
<rect width="179" height="74" fill="white" transform="translate(0 4)"/>
</clipPath>
</defs>
</svg>
