<svg width="179" height="100" viewBox="0 0 179 100" fill="none" xmlns="http://www.w3.org/2000/svg">
<rect width="179" height="100" fill="white"/>
<g clip-path="url(#clip0_406_7176)">
<mask id="mask0_406_7176" style="mask-type:luminance" maskUnits="userSpaceOnUse" x="36" y="33" width="106" height="31">
<path d="M141.916 33H36.082V63.0018H141.916V33Z" fill="white"/>
</mask>
<g mask="url(#mask0_406_7176)">
<path d="M47.5433 37.9659V46.4281H39.7717V37.9659H36.082V58.166H39.7717V49.9786H47.5433V58.166H51.233V37.9659H47.5433Z" fill="#33475B"/>
<path d="M63.0422 51.6363C63.0422 52.4459 62.7206 53.2223 62.1482 53.7947C61.5757 54.3671 60.7993 54.6887 59.9898 54.6887C59.1802 54.6887 58.4038 54.3671 57.8314 53.7947C57.2589 53.2223 56.9373 52.4459 56.9373 51.6363V42.9843H53.4375V51.6363C53.4375 53.3724 54.1272 55.0374 55.3548 56.265C56.5824 57.4926 58.2474 58.1823 59.9834 58.1823C61.7195 58.1823 63.3845 57.4926 64.6121 56.265C65.8397 55.0374 66.5294 53.3724 66.5294 51.6363V42.9843H63.0422V51.6363Z" fill="#33475B"/>
<path d="M88.9715 43.8756C88.9715 42.1021 90.1448 41.5399 91.4301 41.5399C92.466 41.5399 93.8344 42.3281 94.7293 43.2844L97.0215 40.5836C95.8772 39.0361 93.556 37.9659 91.6561 37.9659C87.8597 37.9659 85.1137 40.1895 85.1137 43.8756C85.1137 50.7144 93.4729 48.545 93.4729 52.3721C93.4729 53.5526 92.3267 54.5956 91.0143 54.5956C88.9444 54.5956 88.2737 53.5833 87.3228 52.5131L84.7793 55.1579C86.4063 57.1555 88.4129 58.1696 90.8173 58.1696C94.4238 58.1696 97.3252 55.9189 97.3252 52.401C97.3252 44.8084 88.9661 47.1675 88.9661 43.8756" fill="#33475B"/>
<path d="M140.685 54.9391C138.617 54.9391 138.029 54.0443 138.029 52.674V46.6089H141.243V43.5357H138.029V39.4808L134.48 41.0735V53.4278C134.48 56.5878 136.661 58.1804 139.651 58.1804C140.12 58.189 140.588 58.1514 141.05 58.0684L141.916 54.8813C141.525 54.9084 141.077 54.9355 140.685 54.9355" fill="#33475B"/>
<path d="M76.3621 43.0855C74.6284 43.0855 73.419 43.5881 72.2494 44.736V38.087H68.7441V50.4106C68.7441 55.0241 72.0795 58.1841 75.827 58.1841C79.9849 58.1841 83.642 54.968 83.642 50.6366C83.642 46.3594 80.2759 43.0873 76.3621 43.0873M76.3404 54.6571C75.5538 54.6571 74.7849 54.4238 74.1308 53.9868C73.4768 53.5498 72.9671 52.9287 72.666 52.202C72.365 51.4752 72.2863 50.6756 72.4397 49.9041C72.5932 49.1326 72.972 48.424 73.5282 47.8678C74.0844 47.3115 74.793 46.9328 75.5645 46.7793C76.336 46.6258 77.1357 46.7046 77.8624 47.0056C78.5891 47.3066 79.2102 47.8164 79.6472 48.4704C80.0843 49.1245 80.3175 49.8934 80.3175 50.68C80.3175 51.7348 79.8985 52.7464 79.1526 53.4922C78.4068 54.2381 77.3952 54.6571 76.3404 54.6571Z" fill="#33475B"/>
<path d="M114.423 50.4522C114.423 46.1136 110.773 42.9048 106.608 42.9048C102.861 42.9048 99.5254 46.0648 99.5254 50.6782V63.009H103.031V56.351C104.198 57.4971 105.41 58.0015 107.142 58.0015C111.055 58.0015 114.421 54.7312 114.421 50.4522M111.104 50.4089C111.104 51.1954 110.871 51.9644 110.434 52.6184C109.997 53.2724 109.376 53.7822 108.649 54.0832C107.922 54.3842 107.123 54.463 106.351 54.3095C105.58 54.1561 104.871 53.7773 104.315 53.2211C103.759 52.6649 103.38 51.9562 103.226 51.1847C103.073 50.4133 103.152 49.6136 103.453 48.8869C103.754 48.1602 104.263 47.539 104.918 47.102C105.572 46.665 106.34 46.4318 107.127 46.4318C108.182 46.4318 109.193 46.8508 109.939 47.5966C110.685 48.3425 111.104 49.3541 111.104 50.4089Z" fill="#33475B"/>
</g>
<mask id="mask1_406_7176" style="mask-type:luminance" maskUnits="userSpaceOnUse" x="104" y="33" width="29" height="30">
<path d="M132.289 33H104.062V62.5788H132.289V33Z" fill="white"/>
</mask>
<g mask="url(#mask1_406_7176)">
<path d="M125.748 42.7348V39.2133C126.214 38.9958 126.608 38.6507 126.885 38.218C127.162 37.7853 127.31 37.2829 127.312 36.7692V36.6878C127.312 35.9687 127.026 35.2789 126.518 34.7704C126.009 34.2619 125.32 33.9762 124.6 33.9762H124.519C123.8 33.9762 123.11 34.2619 122.602 34.7704C122.093 35.2789 121.807 35.9687 121.807 36.6878V36.7692C121.81 37.2829 121.958 37.7853 122.235 38.218C122.512 38.6507 122.906 38.9958 123.371 39.2133V42.7348C122.034 42.9395 120.774 43.4939 119.719 44.3419L110.062 36.8198C110.131 36.5717 110.167 36.316 110.171 36.0587C110.172 35.4544 109.994 34.8633 109.659 34.3603C109.324 33.8572 108.847 33.4648 108.289 33.2326C107.731 33.0005 107.117 32.939 106.524 33.056C105.931 33.1729 105.387 33.4631 104.959 33.8898C104.531 34.3165 104.239 34.8605 104.12 35.4531C104.001 36.0456 104.061 36.6601 104.292 37.2187C104.522 37.7773 104.913 38.255 105.415 38.5914C105.917 38.9278 106.508 39.1077 107.112 39.1084C107.641 39.1061 108.159 38.9652 108.616 38.6999L118.127 46.0991C117.272 47.3898 116.826 48.908 116.847 50.4559C116.868 52.0037 117.355 53.5093 118.244 54.7764L115.352 57.6689C115.118 57.5942 114.874 57.5546 114.629 57.5513C114.133 57.5517 113.648 57.6991 113.235 57.975C112.823 58.2508 112.502 58.6427 112.312 59.1011C112.122 59.5596 112.073 60.0639 112.17 60.5505C112.267 61.0371 112.506 61.484 112.856 61.8348C113.207 62.1856 113.654 62.4245 114.141 62.5214C114.627 62.6183 115.132 62.5688 115.59 62.3791C116.048 62.1894 116.44 61.868 116.716 61.4557C116.992 61.0433 117.139 60.5585 117.14 60.0623C117.137 59.8168 117.097 59.5731 117.022 59.3392L119.884 56.4775C120.817 57.1956 121.902 57.6906 123.056 57.9246C124.21 58.1586 125.402 58.1253 126.542 57.8274C127.681 57.5295 128.737 56.9748 129.628 56.2059C130.52 55.4369 131.224 54.4741 131.686 53.3911C132.148 52.3082 132.356 51.1338 132.294 49.958C132.233 48.7821 131.902 47.6361 131.329 46.6075C130.756 45.5789 129.955 44.6952 128.988 44.0239C128.021 43.3527 126.912 42.9117 125.748 42.7348ZM124.563 54.3154C123.78 54.3147 123.015 54.082 122.364 53.6466C121.714 53.2112 121.207 52.5927 120.908 51.8694C120.608 51.146 120.53 50.3502 120.683 49.5825C120.836 48.8148 121.214 48.1097 121.767 47.5563C122.321 47.0029 123.026 46.6261 123.794 46.4734C124.562 46.3207 125.358 46.3991 126.081 46.6986C126.804 46.9981 127.422 47.5052 127.857 48.156C128.292 48.8067 128.525 49.5718 128.525 50.3546C128.525 51.4046 128.108 52.4116 127.366 53.1541C126.623 53.8965 125.616 54.3136 124.566 54.3136" fill="#FF7A59"/>
</g>
</g>
<defs>
<clipPath id="clip0_406_7176">
<rect width="106" height="30" fill="white" transform="translate(36 33)"/>
</clipPath>
</defs>
</svg>
