<svg width="179" height="100" viewBox="0 0 179 100" fill="none" xmlns="http://www.w3.org/2000/svg">
<rect width="179" height="100" fill="white"/>
<g clip-path="url(#clip0_406_7205)">
<path d="M43.497 63C29.9261 63 16.3553 63 2.78451 63C0.46897 63 0.0293106 62.5567 0 60.2808C0 52.0049 0 43.7291 0 35.4828C0 33.5616 0.556902 33 2.46209 33C29.6037 33 56.7454 33 83.887 33C86.4663 33 86.7595 33.3251 86.7595 35.867C86.7595 44.1429 86.7595 52.4187 86.7888 60.665C86.7888 62.4089 86.2025 62.9704 84.356 62.9704C70.7265 62.9704 57.0971 62.9704 43.497 63C43.497 62.9704 43.497 62.9704 43.497 63ZM43.0866 51.0296C42.7935 50.5271 42.5883 50.202 42.4125 49.8768C40.4487 46.1527 38.3969 42.4581 36.521 38.6749C35.8176 37.2266 34.9676 36.6946 33.3555 36.7833C32.1244 36.8424 31.8313 37.2266 31.8313 38.4089C31.89 44.6749 31.8606 50.9113 31.8606 57.1773C31.8606 59.1872 31.8607 59.1872 33.8245 59.1576C36.4331 59.1281 36.2279 59.6305 36.2279 56.7044C36.2279 53.5714 36.2279 50.468 36.2279 47.335C37.8693 49.67 39.2762 52.064 40.5659 54.5172C41.0349 55.4335 41.6504 55.6404 42.6176 55.7291C44.2297 55.9064 45.1677 55.3153 45.7246 53.8079C45.9884 53.069 46.428 52.4187 46.8091 51.7094C47.6298 50.1724 48.4505 48.6059 49.3005 47.069C49.3884 47.0985 49.4763 47.1281 49.535 47.1872C49.535 50.2315 49.535 53.2759 49.535 56.3498C49.535 59.1576 49.535 59.069 52.3195 59.1872C53.6678 59.2463 53.9316 58.7734 53.9316 57.5025C53.8729 51.3842 53.9022 45.2956 53.9022 39.1773C53.9022 36.665 53.9022 36.6946 51.4108 36.8128C50.7074 36.8424 50.3557 37.1379 50.0625 37.7291C49.447 38.9704 48.8022 40.1527 48.1574 41.3941C46.4573 44.5271 44.8159 47.6897 43.0866 51.0296ZM70.961 58.9803C73.8628 59.0099 76.4128 58.3005 78.318 56.9409C81.9818 54.3103 81.5715 49.4631 77.5559 47.5419C76.3542 46.9507 75.0645 46.7438 73.7748 46.5074C72.1921 46.2118 70.5507 46.2118 69.0558 45.5911C67.9713 45.1478 66.9748 44.5862 67.0334 43.197C67.1213 41.7488 68.0886 41.069 69.3489 40.6847C71.5766 40.0345 73.7162 40.5369 75.7973 41.2463C78.0249 42.0148 78.2887 41.9261 79.5197 40.0049C79.8715 39.4729 79.8715 39.1182 79.2559 38.8522C74.8593 36.8719 70.4041 36.0148 65.8903 38.4975C63.7506 39.6798 62.6661 41.5419 62.8713 44.0837C63.0765 46.5369 64.4541 47.9261 66.6231 48.6355C67.5024 48.931 68.411 49.1084 69.3196 49.2857C71.2248 49.6995 73.2179 49.7291 75.0059 50.5567C75.9145 50.9704 76.7938 51.5025 76.7645 52.6847C76.7352 53.8079 76.0025 54.4581 75.0645 54.8719C74.5369 55.1084 73.98 55.3153 73.3938 55.4039C70.5507 55.936 67.8248 55.4335 65.3334 54.0739C64.3075 53.5123 63.6334 53.5714 62.9592 54.4581C62.7834 54.6946 62.5782 54.9015 62.3144 55.0788C61.2299 55.8473 61.6402 56.2906 62.5489 56.8227C65.1868 58.3005 68.0007 58.9507 70.961 58.9803ZM10.1415 47.5123C10.1708 46.7143 10.1708 45.6207 10.288 44.5271C10.5811 42.2512 12.0174 40.9212 14.626 40.4483C17.0881 40.0049 19.1985 40.8325 20.1364 42.7241C20.4295 43.3153 20.7812 43.4926 21.3674 43.4631C21.895 43.4335 22.4519 43.4039 22.9795 43.4631C24.0933 43.5517 24.4158 43.1675 23.9468 42.133C23.4192 41.0099 22.8037 39.9754 21.895 39.1182C19.1691 36.665 15.945 36.665 12.6622 37.2562C9.08629 37.8768 6.94662 40.0345 6.38972 43.67C5.92075 46.803 5.92075 49.936 6.56558 53.069C7.03455 55.5222 8.44146 57.2365 10.757 58.1527C13.1312 59.069 15.6519 59.2759 18.114 58.803C20.5761 58.33 22.4812 56.9409 23.6244 54.5764C24.4744 52.803 24.4158 52.6256 22.4226 52.7143C21.5726 52.7438 20.5467 52.1823 19.9312 53.335C18.7002 55.6404 16.6191 55.8473 14.3622 55.4039C12.076 54.9606 10.9036 53.7488 10.4053 51.4729C10.1122 50.2611 10.2001 49.0197 10.1415 47.5123Z" fill="#F58425"/>
<path d="M115.015 52.2118C116.217 47.5123 117.418 42.9902 118.474 38.468C118.767 37.1971 119.294 36.8719 120.525 36.9015C123.193 36.9902 123.193 36.9311 122.431 39.4729C120.643 45.6503 118.796 51.8276 117.067 58.0049C116.803 58.9508 116.422 59.335 115.484 59.1577C114.575 58.9803 113.462 59.7192 112.963 58.0345C111.644 53.3646 110.091 48.7537 108.625 44.0247C107.98 44.4089 108.039 45.0591 107.863 45.5616C106.544 49.67 105.167 53.7783 104.023 57.9458C103.555 59.6897 102.382 59.0099 101.415 59.1577C100.418 59.3054 100.125 58.8325 99.8614 57.9458C97.9855 51.3251 96.051 44.734 94.0872 38.1429C93.7941 37.1971 93.9113 36.9015 94.9958 36.9015C98.0148 36.9311 98.0148 36.9015 98.7476 39.7685C99.8028 43.9655 100.887 48.133 102.06 52.6848C103.467 48.2513 104.756 44.1429 106.017 40.0345C106.163 39.5616 106.368 39.0887 106.427 38.6158C106.632 37.1675 107.424 36.7537 108.83 36.8424C109.739 36.9015 110.061 37.1971 110.325 38.0247C111.615 42.2513 112.934 46.4779 114.282 50.6749C114.399 51.2069 114.429 51.7094 115.015 52.2118Z" fill="#181C1F"/>
<path d="M157.28 58.9212C153.646 60.2217 151.741 58.4778 150.48 55.3744C149.865 53.8374 148.81 52.4778 148.047 51C147.608 50.1133 147.051 49.7291 146.025 49.7586C142.772 49.8177 142.772 49.7882 142.772 53.0394C142.772 54.7537 142.742 56.4975 142.772 58.2118C142.801 58.9803 142.566 59.1872 141.775 59.1872C138.492 59.2463 138.492 59.2759 138.492 55.9655C138.492 50.1133 138.522 44.2611 138.463 38.4089C138.463 37.3153 138.639 36.8719 139.87 36.931C142.596 37.0493 145.322 36.9606 148.077 36.9606C149.308 36.9606 150.51 37.0788 151.682 37.4926C154.232 38.4384 155.903 40.1527 156.167 42.9606C156.43 45.7685 155.229 47.867 152.766 49.1084C151.711 49.6404 151.711 49.9655 152.298 50.8818C154.056 53.5123 155.668 56.2611 157.28 58.9212ZM146.201 46.2709C147.344 46.2709 148.194 46.3005 149.073 46.2709C151.096 46.2118 152.385 45.1773 152.473 43.5813C152.561 41.7783 151.506 40.6256 149.366 40.4187C147.93 40.3005 146.435 40.3596 144.999 40.33C142.801 40.33 142.801 40.33 142.801 42.5763C142.801 43.7586 142.42 45.266 143.006 46.0049C143.68 46.8621 145.263 46.1231 146.201 46.2709Z" fill="#161A1D"/>
<path d="M162.908 48.0148C162.908 44.7635 162.937 41.5123 162.878 38.2611C162.849 37.3153 162.996 36.9015 164.109 36.9015C168.652 36.9606 173.196 36.9606 177.739 36.9015C178.823 36.8719 179.028 37.2562 178.999 38.2315C178.941 40.3892 178.999 40.3892 176.83 40.3892C173.987 40.3892 171.173 40.4187 168.33 40.3596C167.363 40.33 167.187 40.7143 167.216 41.5714C167.275 42.7537 167.275 43.936 167.216 45.1182C167.158 46.0049 167.392 46.3005 168.33 46.2709C170.909 46.2118 173.518 46.3005 176.097 46.2118C177.065 46.1823 177.358 46.4778 177.328 47.4532C177.211 50.1133 177.622 49.6108 175.189 49.6404C172.903 49.67 170.587 49.67 168.301 49.6404C167.48 49.6108 167.187 49.8768 167.246 50.7044C167.334 52.2709 166.718 54.3103 167.509 55.2857C168.33 56.2906 170.44 55.5517 171.965 55.5813C173.928 55.6404 175.863 55.67 177.827 55.5813C178.853 55.5222 179.116 55.9064 179.028 56.8522C178.97 57.2365 178.999 57.6502 179.028 58.0345C179.116 58.8325 178.853 59.1576 177.973 59.1576C173.284 59.1281 168.594 59.0985 163.904 59.1576C162.966 59.1576 162.908 58.7734 162.908 58.0345C162.908 54.7241 162.908 51.3842 162.908 48.0148Z" fill="#191D20"/>
<path d="M131.869 51.3842C131.869 53.6305 131.84 55.9064 131.869 58.1527C131.869 58.8916 131.723 59.1576 130.902 59.1872C127.561 59.3054 127.561 59.335 127.561 55.9951C127.561 52.3005 127.59 48.6354 127.531 44.9409C127.531 43.9951 127.736 43.6699 128.733 43.6699C131.84 43.6699 131.84 43.6404 131.84 46.8029C131.869 48.3399 131.869 49.8768 131.869 51.3842Z" fill="#1D2124"/>
<path d="M129.554 40.4483C127.648 40.4483 126.916 39.3251 127.531 37.3744C127.619 37.1084 127.736 36.931 128.03 36.931C129.143 36.931 130.286 36.931 131.4 36.931C131.693 36.931 131.84 37.1084 131.869 37.3744C131.869 37.5813 131.869 37.7586 131.869 37.9655C131.957 40.4483 131.957 40.4483 129.554 40.4483Z" fill="#1A1E21"/>
</g>
<defs>
<clipPath id="clip0_406_7205">
<rect width="179" height="30" fill="white" transform="translate(0 33)"/>
</clipPath>
</defs>
</svg>
