<svg width="181" height="100" viewBox="0 0 181 100" fill="none" xmlns="http://www.w3.org/2000/svg">
<rect x="2" width="179" height="100" fill="white"/>
<g clip-path="url(#clip0_406_7215)">
<path d="M-0.00089629 -83.7574C-0.00089629 -22.4571 -0.00089629 38.8433 -0.00089629 100.144C-0.00089629 101.161 -0.000896245 101.161 1.0224 101.161C62.6995 101.161 124.377 101.161 186.054 101.161C186.023 101.207 186.131 101.315 185.976 101.315C185.775 101.315 185.558 101.315 185.356 101.315C123.756 101.315 62.1413 101.315 0.541763 101.33C-0.0319054 101.33 -0.171446 101.207 -0.171446 100.621C-0.155942 39.398 -0.155942 -21.8407 -0.140437 -83.0639C-0.140437 -83.2951 -0.326492 -83.5879 -0.00089629 -83.7574Z" fill="#FEFEFE"/>
<path d="M185.357 -83.7728C123.571 -83.7574 61.7856 -83.7574 0 -83.7574C0 -22.457 0 38.8433 0 100.144C0 101.161 0 101.161 1.0233 101.161C62.7004 101.161 124.377 101.161 186.055 101.161C186.055 39.7525 186.055 -21.6557 186.07 -83.0639C186.07 -83.6341 185.931 -83.7728 185.357 -83.7728ZM149.96 61.6807C150.565 58.0285 155.232 56.3026 157.991 57.3351C160.581 58.3213 161.108 60.679 160.953 62.6823C160.922 63.16 160.534 63.0676 160.255 63.1138C158.829 63.3449 157.371 63.2987 156.177 63.3141C154.952 63.3141 153.96 63.3449 152.983 63.2987C152.456 63.2833 152.332 63.4528 152.363 63.9613C152.596 67.4131 155.48 69.2469 158.736 67.9987C159.185 67.8292 159.619 67.5826 160.069 67.3669C160.208 67.3053 160.333 67.1974 160.488 67.3361C160.627 67.4748 160.596 67.5981 160.519 67.7522C160.364 68.0449 160.302 68.3685 160.007 68.5997C157.65 70.4489 153.402 70.2794 151.371 68.1682C149.588 66.3344 149.572 64.0384 149.96 61.6807ZM138.471 63.7302C138.409 61.1567 139.448 59.323 141.758 58.0902C143.774 57.0115 145.758 56.7033 147.929 57.3659C148.596 57.5662 148.813 57.9053 148.658 58.5987C148.503 59.2921 148.456 60.0164 148.394 60.7407C148.363 61.0335 148.332 61.2184 147.96 61.2338C147.634 61.2338 147.51 61.1105 147.464 60.7869C147.402 60.2938 147.557 59.7236 147.123 59.3384C146.611 58.8761 145.975 58.6449 145.324 58.5217C143.634 58.198 142.301 58.6912 141.572 59.8469C140.285 61.881 140.905 65.9184 142.766 67.4594C143.851 68.3531 145.123 68.5689 146.487 68.3069C146.89 68.2299 147.278 68.0449 147.681 67.9525C147.991 67.8754 148.348 67.4285 148.642 67.8754C148.89 68.2761 148.456 68.5689 148.254 68.8617C148.13 69.0312 147.882 69.139 147.681 69.2161C145.851 70.002 143.975 70.0945 142.099 69.4781C140.27 68.8925 138.347 67.0433 138.471 63.7302ZM124.393 60.1551C124.3 59.0456 124.284 59.0456 123.153 58.9839C123.029 58.9839 122.889 58.9839 122.765 58.9839C122.517 58.9994 122.3 58.9685 122.315 58.6295C122.315 58.3521 122.331 58.1518 122.703 58.0902C123.928 57.9207 125.153 57.7049 126.285 57.1656C126.734 56.9499 126.812 57.2272 126.812 57.5971C126.796 58.121 126.626 58.6604 126.812 59.3076C127.37 58.8453 127.882 58.4908 128.3 58.044C129.727 56.58 132.688 56.9036 134.068 58.1056C134.843 58.7836 135.153 59.662 135.169 60.6482C135.215 62.4974 135.215 64.3466 135.231 66.1958C135.231 66.581 135.231 66.9662 135.262 67.3515C135.339 68.5997 135.386 68.6459 136.611 68.6767C136.967 68.6922 137.37 68.5843 137.339 69.1853C137.293 69.7708 136.874 69.5551 136.595 69.5397C135.556 69.478 134.533 69.4626 133.494 69.5705C132.827 69.6322 132.657 69.4318 132.703 68.7846C132.889 66.4577 132.889 64.1154 132.827 61.7885C132.796 60.4787 132.331 59.4925 131.029 59.0456C129.634 58.5679 128.44 58.9377 127.401 59.9085C126.827 60.4325 126.734 61.1567 126.703 61.8964C126.626 63.8226 126.765 65.7489 126.796 67.6597C126.812 68.3994 127.106 68.7692 127.882 68.6922C128.068 68.6767 128.238 68.7076 128.424 68.6922C128.781 68.6767 128.843 68.8771 128.843 69.1699C128.843 69.4781 128.719 69.5859 128.424 69.5705C126.533 69.4626 124.657 69.5243 122.765 69.5705C122.439 69.5859 122.3 69.4781 122.3 69.139C122.3 68.8 122.424 68.7076 122.75 68.6922C124.346 68.5535 124.331 68.5535 124.362 66.9354C124.408 64.6548 124.564 62.4049 124.393 60.1551ZM118.78 57.5354C120.563 58.4292 121.757 60.864 121.277 62.7285C121.168 63.1292 120.858 63.0676 120.61 63.0984C119.183 63.3295 117.726 63.2833 116.548 63.2987C115.307 63.2987 114.315 63.3295 113.338 63.2833C112.749 63.2525 112.656 63.4682 112.703 63.9921C112.982 67.444 115.85 69.2315 119.121 67.9679C119.571 67.7984 120.005 67.5518 120.439 67.3361C120.563 67.2744 120.672 67.2282 120.796 67.3207C120.935 67.4285 120.951 67.5672 120.858 67.7213C120.703 68.0141 120.641 68.3377 120.362 68.5689C118.408 70.1561 114.61 70.2794 112.485 68.8154C110.889 67.7213 110.253 66.1187 110.098 64.2849C110.067 63.8226 110.082 63.3604 110.098 62.8981C110.237 57.7974 115.834 56.0715 118.78 57.5354ZM107.571 23.3564C108.966 22.1699 110.656 22.0466 112.392 22.1699C113.183 22.2315 113.974 22.3856 114.718 22.7246C114.982 22.8325 115.121 22.9558 115.09 23.2948C114.997 24.1115 114.935 24.9282 114.92 25.7449C114.904 26.1456 114.703 26.2226 114.377 26.1918C114.098 26.161 113.71 26.2843 113.71 25.7758C113.71 25.0669 113.664 24.3889 112.92 23.9882C112.098 23.5567 111.261 23.4643 110.361 23.6954C109.555 23.9112 109.012 24.5584 109.012 25.2672C109.028 26.0223 109.431 26.4846 110.361 26.7003C111.261 26.9161 112.175 27.0856 113.075 27.2705C114.424 27.5479 115.524 28.118 115.85 29.582C116.222 31.2154 115.819 32.6485 114.579 33.7889C113.447 34.8213 112.16 35.2066 110.082 35.1912C108.997 35.2528 107.85 34.9292 106.718 34.5748C106.346 34.4515 106.175 34.2666 106.222 33.8505C106.299 32.9105 106.361 31.9551 106.377 31.0151C106.392 30.522 106.702 30.599 106.997 30.5836C107.353 30.5682 107.602 30.6144 107.586 31.0613C107.555 31.9089 107.648 32.6794 108.485 33.1879C109.369 33.7272 110.299 33.8813 111.307 33.681C112.284 33.4807 112.904 32.7718 112.935 31.8935C112.966 31.0459 112.548 30.5682 111.493 30.2754C110.594 30.0289 109.695 29.8439 108.795 29.5974C107.493 29.243 106.501 28.5033 106.268 27.0856C106.036 25.6371 106.392 24.3426 107.571 23.3564ZM102.919 58.9839C102.609 58.9685 102.206 59.1072 102.237 58.5371C102.252 58.3059 102.284 58.1364 102.563 58.121C103.989 58.044 105.291 57.4738 106.656 57.1039C106.733 56.9344 106.873 56.8266 106.935 57.0731C106.997 57.3967 106.966 57.7357 106.966 58.0594C106.966 61.4033 106.966 64.7626 106.966 68.1066C106.95 68.5072 107.214 68.6305 107.555 68.6613C107.834 68.6767 108.129 68.6922 108.408 68.6767C108.733 68.6613 108.857 68.7846 108.857 69.1236C108.857 69.4472 108.749 69.5705 108.408 69.5551C106.501 69.4626 104.594 69.4935 102.687 69.5551C102.346 69.5705 102.237 69.4472 102.237 69.1236C102.237 68.7846 102.361 68.6922 102.687 68.6767C104.284 68.5381 104.315 68.5072 104.315 66.92C104.33 64.7626 104.33 62.6207 104.33 60.4633C104.346 59.1072 104.284 59.0456 102.919 58.9839ZM106.966 52.8971C106.95 53.7446 106.284 54.3918 105.431 54.3764C104.578 54.361 103.927 53.6984 103.942 52.8354C103.958 51.9879 104.625 51.3715 105.493 51.3715C106.361 51.3869 106.966 52.0341 106.966 52.8971ZM90.5311 26.8236C90.7791 25.8528 91.2443 25.0207 92.1125 24.4351C92.8102 23.9882 93.4614 23.4797 94.1436 23.0328C95.5545 22.0928 97.074 22.0158 98.6554 22.5551C98.826 22.6167 98.9655 22.7554 99.2136 22.6322C99.2136 21.5226 99.2291 20.3977 99.2136 19.2728C99.1981 17.9938 99.1516 17.9167 97.8492 17.9167C97.2445 17.9167 97.1825 17.6856 97.198 17.1925C97.2135 16.6994 97.5701 16.761 97.8492 16.7302C99.1671 16.5915 100.438 16.2987 101.71 15.8981C102.718 15.5899 102.795 15.6669 102.749 16.7456C102.501 21.8308 102.594 26.9161 102.625 31.9859C102.625 32.1092 102.64 32.2479 102.64 32.3712C102.578 33.1879 102.95 33.6194 103.787 33.6194C104.129 33.6194 104.532 33.5885 104.501 34.1587C104.485 34.544 104.392 34.6981 103.973 34.6981C102.547 34.6826 101.136 34.6826 99.7097 34.6981C99.2911 34.6981 99.1671 34.5748 99.1981 34.1741C99.2291 33.7272 99.2136 33.2649 99.2136 32.6794C98.6399 33.1725 98.1283 33.5885 97.6476 34.02C96.1592 35.3298 94.0506 35.3915 92.4381 34.1741C91.4458 33.419 90.7791 32.4328 90.4845 31.2C90.1279 29.7669 90.159 28.303 90.5311 26.8236ZM94.9188 67.182C96.0197 68.3069 97.4151 68.5535 98.919 68.2915C99.3531 68.2144 99.7563 68.0295 100.175 67.9217C100.469 67.8446 100.78 67.444 101.059 67.8754C101.291 68.2453 100.935 68.5226 100.749 68.7384C100.221 69.3548 99.4307 69.4935 98.6864 69.6784C98.1128 69.8325 97.5236 69.8941 97.074 69.8479C92.7482 69.8479 90.283 66.7967 90.9497 62.4666C91.2443 60.5866 92.19 59.2459 93.8645 58.2751C95.8026 57.1348 97.7872 56.6417 99.9888 57.2426C101.152 57.5508 101.214 57.6433 101.028 58.8145C100.935 59.4462 100.873 60.0935 100.826 60.7253C100.811 61.0181 100.749 61.203 100.392 61.2184C100.051 61.2184 99.9578 61.0643 99.8958 60.7715C99.8028 60.263 100.004 59.6466 99.4927 59.2613C98.888 58.8144 98.1903 58.5525 97.4306 58.46C95.6941 58.2597 94.4382 58.8453 93.787 60.1705C92.8257 62.1892 93.3529 65.5948 94.9188 67.182ZM79.3833 23.9112C79.4143 23.5259 79.5228 23.3872 79.9104 23.3256C81.2748 23.1099 82.6547 22.9095 83.9416 22.3085C84.4223 22.0774 84.6703 22.2777 84.6548 22.8171C84.6393 23.418 84.6548 24.0344 84.6548 24.8512C85.275 24.1423 85.7401 23.5876 86.2208 23.0482C86.8255 22.3702 87.5697 22.0774 88.5 22.2161C88.9341 22.2777 89.0426 22.4626 89.0271 22.8787C88.9651 23.7417 88.9341 24.62 88.9031 25.483C88.8876 25.6987 88.9496 25.9453 88.655 26.0685C88.3604 26.1918 88.1899 26.0531 87.9883 25.8682C87.1201 25.1285 86.0657 25.1285 85.275 25.8682C84.9029 26.2226 84.7013 26.6387 84.7013 27.1626C84.7169 28.904 84.7479 30.6453 84.7169 32.3866C84.7013 33.1879 85.058 33.5115 85.8022 33.5423C86.0813 33.5577 86.3603 33.5885 86.6549 33.604C87.1511 33.6348 86.9805 34.02 87.0115 34.2974C87.058 34.6364 86.903 34.7443 86.5774 34.7443C84.3603 34.7289 82.1431 34.7289 79.9259 34.7443C79.5538 34.7443 79.4143 34.621 79.4608 34.2512C79.4918 33.9584 79.3833 33.6502 79.8949 33.6348C81.0113 33.5885 81.2593 33.758 81.3059 32.0167C81.3679 29.8439 81.3679 27.6558 81.2593 25.483C81.2283 24.8049 80.9958 24.5122 80.2981 24.5276C79.8484 24.543 79.3058 24.6508 79.3833 23.9112ZM78.577 52.4348C79.9104 51.2482 81.5539 50.8476 83.1664 50.8322C84.8099 50.863 86.2673 51.1557 87.6627 51.7413C87.9263 51.8492 88.1899 51.9262 88.1123 52.3269C87.8953 53.2515 87.8488 54.2069 87.8333 55.1623C87.8333 55.5167 87.6782 55.6708 87.3216 55.6554C86.996 55.64 86.81 55.5938 86.779 55.1931C86.7479 54.3764 86.9495 53.4672 86.0968 52.8817C85.0579 52.1574 83.9261 51.8338 82.6702 51.9571C80.1585 52.2036 78.6236 54.2685 79.0887 56.7341C79.2748 57.7358 79.957 58.2597 80.8872 58.5371C82.2826 58.9531 83.7246 59.0456 85.151 59.2767C88.8721 59.8623 90.407 63.16 88.4534 66.3961C86.965 68.8308 84.6703 69.8479 81.895 69.9712C80.3291 70.0328 78.8096 69.7863 77.3677 69.1853C76.9801 69.0158 76.8405 68.8463 76.8871 68.3994C76.9956 67.4131 77.0266 66.4115 77.0576 65.4099C77.0731 65.0554 77.0886 64.8243 77.5537 64.8397C77.9259 64.8551 78.0809 64.9321 78.1119 65.3482C78.2825 67.5826 78.6236 67.9525 80.8562 68.5535C82.0656 68.8771 83.2594 68.8154 84.4068 68.2915C86.1898 67.4902 87.1511 65.4099 86.6239 63.5453C86.2983 62.4049 85.4301 61.7577 84.0347 61.5882C82.9803 61.4649 81.9415 61.2954 80.9027 61.1567C78.9026 60.8794 77.3677 59.9856 76.8871 57.8899C76.3909 55.7479 76.9336 53.8833 78.577 52.4348ZM69.1658 28.3646C70.2976 28.0102 71.4295 27.6712 72.6078 27.4863C73.0729 27.4092 73.2435 27.2089 73.197 26.7158C72.9954 24.8358 71.3209 23.8187 69.5224 24.5121C69.0262 24.6971 68.9177 25.1131 68.7627 25.4984C68.6231 25.8374 68.5146 26.0685 68.0495 25.9761C67.5843 25.8836 67.6308 25.6062 67.5843 25.2672C67.4603 24.3426 67.9254 23.8649 68.6696 23.3872C70.2046 22.4318 71.7861 21.9541 73.5846 22.3856C75.5692 22.8787 76.4839 23.9574 76.4839 25.9761C76.4994 27.8253 76.4529 29.6744 76.4374 31.5236C76.4374 31.8626 76.4684 32.1862 76.4529 32.5253C76.4219 33.2033 76.6855 33.604 77.4297 33.5885C77.8793 33.5731 78.1274 33.7426 78.0964 34.2666C78.0809 34.8984 77.6468 34.6981 77.3367 34.6981C76.2048 34.7135 75.0575 34.6518 73.9257 34.7135C73.197 34.7597 73.0109 34.5131 73.1194 33.8505C73.166 33.6348 73.1194 33.3882 73.1194 33.0184C72.3752 33.5577 71.7395 33.9892 71.1504 34.4823C70.1271 35.3144 69.0263 35.1912 67.9409 34.7597C66.8556 34.3128 66.406 33.3574 66.375 32.2325C66.2974 29.9672 66.9641 29.058 69.1658 28.3646ZM67.1347 60.6328C67.1657 62.8364 67.1192 65.04 67.1192 67.2436C67.1192 68.4918 67.1502 68.5072 68.3906 68.6459C68.7782 68.6922 68.8402 68.8463 68.8557 69.1853C68.8557 69.5859 68.6076 69.5705 68.3285 69.5397C67.3207 69.4472 66.313 69.4626 65.3052 69.5551C64.871 69.5859 64.778 69.401 64.7935 69.0158C64.8245 68.5381 64.7935 68.0603 64.7935 67.4594C63.8477 68.1374 63.0105 68.7692 62.1422 69.3394C60.3592 70.4797 57.832 69.5705 57.3048 67.5981C56.8707 65.9338 57.5839 63.5761 59.7235 62.9597C61.1654 62.559 62.6074 62.1738 64.0958 62.0043C64.6695 61.9426 64.902 61.7269 64.84 61.1413C64.7315 60.0472 64.2198 59.2459 63.212 58.8145C62.1112 58.3522 60.9794 58.383 59.9561 59.0148C59.5375 59.2767 59.4599 59.8315 59.2584 60.2784C59.1343 60.5558 59.0413 60.7715 58.6537 60.679C58.2351 60.5866 58.3436 60.3092 58.2816 60.0472C58.0645 58.9994 58.5917 58.4908 59.4754 58.044C61.1654 57.1502 62.8864 56.7495 64.747 57.3967C66.2044 57.9207 67.1037 59.0764 67.1347 60.6328ZM44.188 22.5705C46.2811 22.5859 48.3742 22.5859 50.4673 22.5705C50.9014 22.5705 50.9945 22.74 50.979 23.1099C50.9634 23.4335 50.9945 23.68 50.5138 23.7108C49.0099 23.8341 49.0254 23.8495 49.4285 25.3443C49.8626 26.9469 50.2968 28.5649 50.7309 30.1522C51.0255 30.1984 51.041 29.9672 51.103 29.8285C52.1573 27.5171 53.2271 25.2056 54.2504 22.8787C54.452 22.401 54.6845 22.2315 55.2117 22.2469C55.7233 22.2623 56.0334 22.3548 56.2505 22.8941C57.1808 25.1285 58.1576 27.3322 59.1188 29.5358C59.2274 29.7823 59.3669 30.0289 59.553 30.4449C60.2042 28.5803 60.8088 26.9007 61.2585 25.1594C61.5996 23.8649 61.5686 23.8187 60.2507 23.7108C59.8631 23.68 59.646 23.6338 59.6615 23.1561C59.6615 22.6938 59.7855 22.5397 60.2662 22.5551C61.6616 22.5859 63.057 22.5705 64.4524 22.5705C64.7935 22.5705 65.1346 22.4935 65.1036 23.0482C65.0881 23.4489 65.1036 23.7571 64.5609 23.7262C63.8787 23.68 63.5531 24.0961 63.3361 24.6971C62.1887 27.8099 61.0569 30.9226 60.1421 34.0971C59.9561 34.7443 59.646 34.8521 59.0258 34.9138C57.9715 35.0217 57.5064 34.6364 57.1343 33.6656C56.3435 31.6007 55.3978 29.6128 54.514 27.5941C54.4365 27.4092 54.4055 27.1935 54.1109 27.024C53.2271 28.9656 52.3589 30.8764 51.4906 32.8181C51.3046 33.2341 51.103 33.6656 50.979 34.1125C50.8084 34.7289 50.4828 34.9446 49.8316 34.9138C48.4672 34.8521 48.4982 34.883 48.1261 33.5269C47.3354 30.6915 46.4981 27.8561 45.7074 25.0207C45.4748 24.1885 45.0872 23.6338 44.1259 23.7108C43.6298 23.7571 43.7228 23.3872 43.7073 23.079C43.6918 22.7246 43.8003 22.5705 44.188 22.5705ZM54.7 68.0758C54.9326 68.0449 55.1497 67.9833 55.3822 67.9371C55.5683 67.8908 55.7388 67.86 55.8164 68.1066C55.8784 68.2915 55.8629 68.4302 55.7388 68.5997C54.8551 69.6938 52.5914 70.1561 51.3511 69.4781C50.4983 69.0158 50.0952 68.2761 50.0797 67.3361C50.0642 66.1341 50.0797 64.9167 50.0797 63.7148C50.0952 63.7148 50.0952 63.7148 50.1107 63.7148C50.1107 62.482 50.0952 61.2492 50.1262 60.0164C50.1417 59.5387 50.0022 59.3538 49.506 59.4308C49.2269 59.4771 48.9479 59.4771 48.6533 59.4925C48.4517 59.5079 48.2191 59.5849 48.1726 59.2767C48.1416 59.0302 48.1571 58.8144 48.4517 58.722C48.4982 58.7066 48.5447 58.6912 48.5913 58.6604C50.2502 57.9207 50.2502 57.9207 50.2037 56.1177C50.2037 56.0869 50.2037 56.0715 50.2037 56.0407C49.7386 54.5151 50.4363 53.7138 51.8782 53.2977C52.5604 53.0974 52.731 53.1282 52.6845 53.8371C52.6069 55.039 52.5294 56.241 52.4209 57.443C52.3744 57.9053 52.4829 58.0902 52.979 58.0594C53.7698 58.0131 54.576 58.0131 55.3822 58.0131C55.6148 58.0131 56.08 57.7974 56.0024 58.2751C55.9404 58.6758 56.142 59.3538 55.3822 59.3846C54.576 59.4154 53.7853 59.4154 52.979 59.3846C52.4829 59.3538 52.3899 59.5387 52.3899 60.001C52.3899 62.0043 52.3434 64.0076 52.3279 66.0108C52.3279 67.6751 53.01 68.2607 54.7 68.0758ZM43.0716 67.4594C42.1569 68.1066 41.3351 68.7076 40.4979 69.2777C39.4281 70.002 37.7536 69.9712 36.6993 69.2469C35.5364 68.461 35.3349 67.2899 35.5054 66.0417C35.676 64.7318 36.2651 63.6223 37.5985 63.1292C39.118 62.559 40.7149 62.22 42.3274 62.0351C42.9476 61.9581 43.1802 61.7423 43.1026 61.1105C42.9631 60.0164 42.4515 59.2305 41.4282 58.8145C40.3428 58.3676 39.242 58.4138 38.2342 59.0148C37.7846 59.2767 37.7226 59.8777 37.5055 60.34C37.397 60.5866 37.3039 60.7869 36.9473 60.7099C36.5752 60.6328 36.5597 60.4325 36.5132 60.1243C36.3582 59.1227 36.7458 58.5525 37.6605 58.1056C39.149 57.3505 40.6374 56.8574 42.3429 57.2426C43.8469 57.5816 44.9012 58.3984 45.3508 59.8931C45.5834 60.0318 45.5989 60.263 45.5989 60.4941C45.5834 63.0676 45.5834 65.6564 45.5679 68.2299L45.5524 68.2453C45.7694 68.2299 45.878 68.3531 45.9245 68.5381C46.1415 68.723 46.4206 68.6767 46.6687 68.6767C47.0408 68.6767 47.1493 68.8154 47.1493 69.1853C47.1493 69.5705 46.9478 69.6013 46.6532 69.5705C45.6454 69.4781 44.6376 69.478 43.6298 69.5859C43.1492 69.6321 43.0561 69.4164 43.0716 69.0158C43.0871 68.5381 43.0716 68.0758 43.0716 67.4594ZM33.2417 22.5859C35.1333 21.9079 37.0249 21.8925 38.9319 22.5089C40.8855 23.1407 42.2034 25.0053 42.3119 27.2243C42.3274 27.5787 42.3119 27.9485 42.3119 28.303C42.3119 30.599 41.8623 32.7564 39.7847 34.0971C37.49 35.5764 35.0093 35.6226 32.5596 34.5131C31.2572 33.9276 30.4509 32.8026 30.0478 31.4312C29.4741 29.4587 29.4741 27.4862 30.1719 25.5446C30.73 24.0653 31.7843 23.1098 33.2417 22.5859ZM14.9774 16.6994C17.5822 16.7302 20.1869 16.7148 22.8072 16.7148C25.3965 16.7148 27.9702 16.7302 30.5595 16.6994C30.9626 16.6994 31.1176 16.761 31.0866 17.2079C31.0091 18.3328 30.9626 19.4577 30.9471 20.5826C30.9316 20.9217 30.8696 21.122 30.4819 21.0912C30.1408 21.0603 29.7067 21.2144 29.7067 20.6289C29.7067 20.5826 29.6912 20.521 29.6912 20.4748C29.4741 18.5177 29.4741 18.5023 27.5051 18.4561C26.7298 18.4407 25.9546 18.4561 25.1794 18.4407C24.8228 18.4253 24.6832 18.5485 24.6832 18.9184C24.6987 23.2794 24.6832 27.6403 24.7298 32.0167C24.7453 33.3112 24.9468 33.4653 26.4042 33.5269C26.9004 33.5423 27.0864 33.6502 27.0554 34.1741C27.0399 34.621 26.9159 34.7443 26.4818 34.7135C25.0553 34.6518 23.6444 34.6056 22.218 34.6056C21.1637 34.6056 20.0939 34.6672 19.0396 34.7135C18.652 34.7289 18.4504 34.6364 18.4814 34.2049C18.5124 33.8659 18.4194 33.4961 18.9621 33.5423C19.0086 33.5423 19.0706 33.5423 19.1171 33.5423C20.6986 33.4036 20.7606 33.3728 20.8226 31.801C20.9777 27.702 20.8691 23.5876 20.8846 19.4885C20.8846 18.4407 20.8381 18.4407 19.8148 18.4561C18.807 18.4715 17.7992 18.5023 16.7914 18.5023C16.2488 18.5023 15.9852 18.7489 15.9542 19.2728C15.9387 19.6581 15.8301 20.0433 15.8301 20.4131C15.8456 20.8908 15.7061 21.0912 15.179 21.0912C14.6208 21.0912 14.5743 20.8292 14.5743 20.3823C14.5588 19.3344 14.5123 18.2866 14.4347 17.2387C14.4037 16.8381 14.4968 16.6994 14.9774 16.6994ZM14.9929 69.3085C14.9619 69.0466 14.9774 68.7692 15.2875 68.6613C16.2178 68.3377 16.3418 67.6135 16.3263 66.7659C16.3108 64.6548 16.3263 62.559 16.3263 60.4479C16.4658 58.2135 16.4968 55.979 16.3573 53.7446C16.2643 52.2498 16.2178 52.219 14.7293 52.142C14.3727 52.1266 14.1246 52.1112 14.1557 51.6489C14.1712 51.3253 14.2642 51.1866 14.6053 51.202C18.3264 51.4023 22.0475 50.9863 25.7686 51.2636C31.1331 51.6643 34.3116 56.164 33.1177 61.619C32.0789 66.3499 28.1873 69.4781 23.3033 69.5551C20.7141 69.6013 18.1403 69.3548 15.5511 69.5397C15.334 69.5551 15.0394 69.6784 14.9929 69.3085ZM160.705 85.3964C160.751 85.381 160.813 85.3656 160.86 85.3502C160.813 85.3502 160.751 85.381 160.705 85.3964ZM161.402 83.7784C161.371 83.9479 161.294 84.0712 161.108 84.1174C161.216 84.2407 161.402 84.3177 161.387 84.5181C161.464 84.9495 161.278 85.1499 160.999 85.2731C161.263 85.1499 161.464 84.9341 161.387 84.5181C113.307 84.5181 65.2121 84.5181 17.1325 84.5026C16.7759 84.5026 16.2488 84.7492 16.1247 84.102C15.7526 84.102 15.7836 83.8246 15.7371 83.578C15.7991 83.3931 15.9542 83.3777 16.1092 83.3161C16.1712 83.2545 16.2333 83.2545 16.2953 83.3161C16.5589 83.3931 16.8069 83.4086 17.0705 83.3161C17.21 83.1158 17.3651 83.1158 17.5046 83.3161C17.7837 83.3315 18.0628 83.3623 18.3419 83.3623C65.7083 83.3623 113.075 83.3623 160.441 83.3623C160.751 83.3623 161.061 83.3931 161.371 83.424C161.65 83.5318 161.666 83.6397 161.402 83.7784Z" fill="#355876"/>
<path d="M99.2131 22.6475C99.2131 21.538 99.2286 20.4131 99.2131 19.2882C99.1976 18.0092 99.1511 17.9321 97.8487 17.9321C97.2441 17.9321 97.182 17.701 97.1975 17.2079C97.213 16.7147 97.5696 16.7764 97.8487 16.7456C99.1666 16.6069 100.438 16.3141 101.709 15.9134C102.717 15.6052 102.795 15.6823 102.748 16.761C102.5 21.8462 102.593 26.9315 102.624 32.0013C102.624 32.1246 102.64 32.2633 102.64 32.3865C102.578 33.2033 102.95 33.6347 103.787 33.6347C104.128 33.6347 104.531 33.6039 104.5 34.1741C104.485 34.5593 104.392 34.7134 103.973 34.7134C102.547 34.698 101.136 34.698 99.7093 34.7134C99.2907 34.7134 99.1666 34.5901 99.1976 34.1895C99.2286 33.7426 99.2131 33.2803 99.2131 32.6947C98.6395 33.1879 98.1278 33.6039 97.6472 34.0354C96.1587 35.3452 94.0501 35.4069 92.4376 34.1895C91.4454 33.4344 90.7787 32.4482 90.4841 31.2154C90.143 29.7361 90.174 28.2567 90.5616 26.7928C90.8097 25.822 91.2748 24.9898 92.1431 24.4042C92.8408 23.9574 93.492 23.4488 94.1742 23.002C95.5851 22.062 97.1045 21.9849 98.686 22.5242C98.8255 22.6321 98.9806 22.7708 99.2131 22.6475ZM99.2441 28.2721C99.2441 27.702 99.1821 27.1318 99.2596 26.577C99.3837 25.637 98.8875 25.0669 98.1898 24.62C96.7479 23.68 94.4067 23.5875 93.9416 26.1918C93.8486 26.7465 93.7245 27.3013 93.7245 27.8715C93.74 29.2892 93.8951 30.7069 94.9494 31.801C95.6471 32.5098 96.7169 32.7256 97.6627 32.3249C98.593 31.9242 99.2907 31.3233 99.2441 30.1983C99.2131 29.5511 99.2441 28.9039 99.2441 28.2721Z" fill="#F8FAFA"/>
<path d="M16.3256 60.4479C16.4651 58.2134 16.4961 55.979 16.3566 53.7446C16.2636 52.2498 16.2171 52.219 14.7286 52.142C14.372 52.1266 14.1239 52.1111 14.155 51.6488C14.1705 51.3252 14.2635 51.1865 14.6046 51.202C18.3257 51.4023 22.0468 50.9862 25.7679 51.2636C31.1324 51.6643 34.3109 56.1639 33.117 61.619C32.0782 66.3498 28.1866 69.478 23.3026 69.5551C20.7134 69.6013 18.1396 69.3547 15.5504 69.5397C15.3488 69.5551 15.0542 69.6629 15.0077 69.2931C14.9767 69.0311 14.9922 68.7538 15.3023 68.6459C16.2326 68.3223 16.3566 67.598 16.3411 66.7505C16.3101 64.6547 16.3256 62.559 16.3256 60.4479ZM19.0544 60.2938C19.0544 62.6206 19.0699 64.9629 19.0544 67.2898C19.0544 67.8446 19.1939 68.0911 19.8141 68.1528C21.101 68.2606 22.3879 68.3223 23.6747 68.1836C27.1013 67.8292 29.1944 66.1033 30.0471 62.9288C30.4968 61.2492 30.5433 59.5387 30.2177 57.8282C29.675 54.962 27.6749 53.0357 24.8376 52.6043C23.1476 52.3423 21.4421 52.3731 19.7366 52.5426C19.1939 52.5888 19.0544 52.7892 19.0544 53.2823C19.0234 55.6246 18.9149 57.9669 19.0544 60.2938Z" fill="#F7F9F9"/>
<path d="M59.5674 30.445C60.2186 28.5804 60.8233 26.9007 61.2729 25.1594C61.614 23.865 61.583 23.8187 60.2651 23.7109C59.8775 23.68 59.6605 23.6338 59.676 23.1561C59.676 22.6938 59.8 22.5397 60.2806 22.5551C61.6761 22.5859 63.0715 22.5705 64.4669 22.5705C64.808 22.5705 65.1491 22.4935 65.1181 23.0482C65.1026 23.4489 65.1181 23.7571 64.5754 23.7263C63.8932 23.68 63.5676 24.0961 63.3505 24.6971C62.2032 27.8099 61.0714 30.9227 60.1566 34.0971C59.9706 34.7443 59.6605 34.8522 59.0403 34.9138C57.986 35.0217 57.5208 34.6364 57.1487 33.6656C56.358 31.6007 55.4122 29.6128 54.5285 27.5941C54.4509 27.4092 54.4199 27.1935 54.1253 27.024C53.2416 28.9656 52.3733 30.8764 51.5051 32.8181C51.319 33.2341 51.1175 33.6656 50.9934 34.1125C50.8229 34.7289 50.4973 34.9446 49.8461 34.9138C48.4817 34.8522 48.5127 34.883 48.1406 33.5269C47.3499 30.6915 46.5126 27.8561 45.7219 25.0207C45.4893 24.1886 45.1017 23.6338 44.1404 23.7109C43.6443 23.7571 43.7373 23.3873 43.7218 23.0791C43.6908 22.7246 43.7993 22.5705 44.1869 22.5705C46.28 22.5859 48.3732 22.5859 50.4663 22.5705C50.9004 22.5705 50.9934 22.74 50.9779 23.1099C50.9624 23.4335 50.9934 23.68 50.5128 23.7109C49.0088 23.8341 49.0243 23.8495 49.4275 25.3443C49.8616 26.9469 50.2957 28.565 50.7298 30.1522C51.0244 30.1984 51.0399 29.9673 51.102 29.8286C52.1563 27.5171 53.2261 25.2056 54.2494 22.8787C54.4509 22.401 54.6835 22.2315 55.2107 22.2469C55.7223 22.2623 56.0324 22.3548 56.2495 22.8941C57.1797 25.1286 58.1565 27.3322 59.1178 29.5358C59.2263 29.7823 59.3659 30.0289 59.5674 30.445Z" fill="#F8FAF9"/>
<path d="M16.1239 84.1174C15.7518 84.1174 15.7828 83.84 15.7363 83.5935C15.7983 83.4085 15.9534 83.3931 16.1084 83.3315C16.1705 83.3315 16.2325 83.3315 16.2945 83.3315C16.5581 83.4085 16.8061 83.4239 17.0697 83.3315C17.2093 83.3315 17.3643 83.3315 17.5038 83.3315C17.7829 83.3469 18.062 83.3777 18.3411 83.3777C65.7075 83.3777 113.074 83.3777 160.44 83.3777C160.75 83.3777 161.06 83.4085 161.371 83.4394C161.386 83.5472 161.386 83.6551 161.402 83.763C161.371 83.9325 161.293 84.0557 161.107 84.102C160.828 84.0866 160.533 84.0712 160.254 84.0712C112.547 84.0712 64.8392 84.0712 17.1317 84.0712C16.7906 84.0866 16.465 84.102 16.1239 84.1174Z" fill="#F7FBFE"/>
<path d="M22.7914 16.7147C25.3807 16.7147 27.9544 16.7302 30.5437 16.6993C30.9468 16.6993 31.1019 16.761 31.0708 17.2079C30.9933 18.3328 30.9468 19.4577 30.9313 20.5826C30.9158 20.9216 30.8538 21.122 30.4662 21.0911C30.1251 21.0603 29.6909 21.2144 29.6909 20.6288C29.6909 20.5826 29.6754 20.521 29.6754 20.4747C29.4584 18.5177 29.4584 18.5023 27.4893 18.4561C26.7141 18.4407 25.9388 18.4561 25.1636 18.4406C24.807 18.4252 24.6675 18.5485 24.6675 18.9184C24.683 23.2793 24.6675 27.6403 24.714 32.0167C24.7295 33.3111 24.931 33.4652 26.3885 33.5269C26.8846 33.5423 27.0707 33.6502 27.0397 34.1741C27.0242 34.621 26.9001 34.7443 26.466 34.7134C25.0396 34.6518 23.6287 34.6056 22.2022 34.6056C21.1479 34.6056 20.0781 34.6672 19.0238 34.7134C18.6362 34.7288 18.4346 34.6364 18.4657 34.2049C18.4967 33.8659 18.4036 33.4961 18.9463 33.5423C18.9928 33.5423 19.0548 33.5423 19.1013 33.5423C20.6828 33.4036 20.7448 33.3728 20.8068 31.801C20.9619 27.702 20.8534 23.5875 20.8689 19.4885C20.8689 18.4406 20.8223 18.4407 19.799 18.4561C18.7912 18.4715 17.7835 18.5023 16.7757 18.5023C16.233 18.5023 15.9694 18.7488 15.9384 19.2728C15.9229 19.658 15.8144 20.0433 15.8144 20.4131C15.8299 20.8908 15.6903 21.0911 15.1632 21.0911C14.605 21.0911 14.5585 20.8292 14.5585 20.3823C14.543 19.3344 14.4965 18.2866 14.419 17.2387C14.388 16.8072 14.4965 16.6685 14.9616 16.6685C17.5819 16.7302 20.1867 16.7147 22.7914 16.7147Z" fill="#F9FBFB"/>
<path d="M42.3265 28.303C42.3265 30.599 41.8768 32.7564 39.7992 34.0971C37.5046 35.5764 35.0238 35.6226 32.5741 34.5131C31.2717 33.9276 30.4655 32.8026 30.0624 31.4312C29.4887 29.4587 29.4887 27.4863 30.1864 25.5446C30.7291 24.0807 31.7834 23.1253 33.2563 22.6013C35.1479 21.9233 37.0394 21.9079 38.9465 22.5243C40.9 23.1561 42.2179 25.0207 42.3265 27.2397C42.342 27.5787 42.3265 27.9331 42.3265 28.303ZM33.3958 28.1026C33.3958 28.5341 33.3648 28.981 33.3958 29.4125C33.4889 30.5066 33.6284 31.6161 34.1866 32.6023C34.6517 33.4345 35.3959 33.8505 36.3572 33.7889C37.303 33.7272 38.0007 33.2341 38.2488 32.3404C38.9155 29.844 38.8379 27.363 37.9542 24.9282C37.6131 24.0036 36.8534 23.5259 35.8301 23.5413C34.8223 23.5567 34.1401 24.0653 33.768 25.0053C33.3803 25.9915 33.4113 27.0548 33.3958 28.1026Z" fill="#F9FBFA"/>
<path d="M83.1652 50.8168C84.8087 50.8476 86.2661 51.1404 87.6615 51.726C87.9251 51.8338 88.1887 51.9109 88.1112 52.3115C87.8941 53.2361 87.8476 54.1915 87.8321 55.1469C87.8321 55.5014 87.677 55.6555 87.3204 55.6401C86.9948 55.6246 86.8088 55.5784 86.7778 55.1778C86.7468 54.361 86.9483 53.4519 86.0956 52.8663C85.0568 52.142 83.9249 51.8184 82.6691 51.9417C80.1573 52.1883 78.6224 54.2532 79.0875 56.7187C79.2736 57.7204 79.9558 58.2443 80.886 58.5217C82.2815 58.9378 83.7234 59.0302 85.1498 59.2614C88.8709 59.8469 90.4058 63.1446 88.4523 66.3807C86.9638 68.8155 84.6692 69.8325 81.8938 69.9558C80.3279 70.0174 78.8084 69.7709 77.3665 69.1699C76.9789 69.0004 76.8394 68.8309 76.8859 68.384C76.9944 67.3978 77.0254 66.3961 77.0564 65.3945C77.0719 65.0401 77.0874 64.8089 77.5526 64.8243C77.9247 64.8397 78.0797 64.9168 78.1107 65.3328C78.2813 67.5673 78.6224 67.9371 80.855 68.5381C82.0644 68.8617 83.2582 68.8001 84.4056 68.2761C86.1886 67.4748 87.1499 65.3945 86.6227 63.5299C86.2971 62.3896 85.4289 61.7423 84.0335 61.5728C82.9792 61.4496 81.9404 61.2801 80.9015 61.1414C78.9015 60.864 77.3665 59.9702 76.8859 57.8745C76.3897 55.7633 76.9324 53.8987 78.5759 52.4348C79.9093 51.2482 81.5527 50.8322 83.1652 50.8168Z" fill="#F6F9F9"/>
<path d="M73.1334 33.0492C72.3891 33.5885 71.7534 34.02 71.1643 34.5131C70.141 35.3453 69.0402 35.222 67.9548 34.7905C66.8695 34.3436 66.4199 33.3882 66.3889 32.2633C66.3114 29.9826 66.9625 29.0735 69.1797 28.3646C70.3115 28.0102 71.4434 27.6712 72.6217 27.4863C73.0868 27.4092 73.2574 27.2089 73.2109 26.7158C73.0093 24.8358 71.3348 23.8187 69.5363 24.5122C69.0402 24.6971 68.9316 25.1131 68.7766 25.4984C68.637 25.8374 68.5285 26.0686 68.0634 25.9761C67.5982 25.8836 67.6447 25.6063 67.5982 25.2672C67.4742 24.3426 67.9393 23.8649 68.6835 23.3872C70.2185 22.4318 71.8 21.9541 73.5985 22.3856C75.5831 22.8787 76.4978 23.9574 76.4978 25.9761C76.5133 27.8253 76.4668 29.6745 76.4513 31.5236C76.4513 31.8626 76.4823 32.1863 76.4668 32.5253C76.4358 33.2033 76.6994 33.604 77.4436 33.5885C77.8932 33.5731 78.1413 33.7426 78.1103 34.2666C78.0948 34.8984 77.6607 34.6981 77.3506 34.6981C76.2188 34.7135 75.0714 34.6518 73.9396 34.7135C73.2109 34.7597 73.0248 34.5131 73.1334 33.8505C73.1644 33.6656 73.1334 33.4345 73.1334 33.0492ZM73.1954 30.3833C73.1954 29.7669 73.1954 29.3817 73.1954 29.0118C73.1954 28.7961 73.1644 28.5649 72.8698 28.642C72.0015 28.8731 71.1023 29.0272 70.3735 29.5974C69.6913 30.1367 69.5208 31.4004 69.9859 32.1246C70.4511 32.8181 71.3038 32.9105 72.2651 32.4482C73.3039 31.9397 73.2729 31.0767 73.1954 30.3833Z" fill="#F8FAFA"/>
<path d="M126.796 59.3229C127.354 58.8606 127.866 58.5062 128.284 58.0593C129.711 56.5954 132.672 56.919 134.052 58.121C134.827 58.799 135.137 59.6774 135.153 60.6636C135.199 62.5128 135.199 64.362 135.215 66.2111C135.215 66.5964 135.215 66.9816 135.246 67.3669C135.323 68.6151 135.37 68.6613 136.595 68.6921C136.951 68.7075 137.354 68.5997 137.323 69.2006C137.277 69.7862 136.858 69.5705 136.579 69.5551C135.54 69.4934 134.517 69.478 133.478 69.5859C132.812 69.6475 132.641 69.4472 132.688 68.8C132.874 66.4731 132.874 64.1308 132.812 61.8039C132.781 60.4941 132.315 59.5079 131.013 59.061C129.618 58.5833 128.424 58.9531 127.385 59.9239C126.811 60.4479 126.718 61.1721 126.687 61.9118C126.61 63.838 126.749 65.7643 126.78 67.6751C126.796 68.4147 127.09 68.7846 127.866 68.7075C128.052 68.6921 128.222 68.7229 128.408 68.7075C128.765 68.6921 128.827 68.8925 128.827 69.1852C128.827 69.4934 128.703 69.6013 128.408 69.5859C126.517 69.478 124.641 69.5397 122.749 69.5859C122.424 69.6013 122.284 69.4934 122.284 69.1544C122.284 68.8154 122.408 68.7229 122.734 68.7075C124.331 68.5688 124.315 68.5688 124.346 66.9508C124.393 64.701 124.532 62.4357 124.362 60.1859C124.269 59.0764 124.253 59.0764 123.121 59.0147C122.997 59.0147 122.858 59.0147 122.734 59.0147C122.486 59.0302 122.268 58.9993 122.284 58.6603C122.284 58.3829 122.299 58.1826 122.672 58.121C123.896 57.9515 125.121 57.7357 126.253 57.1964C126.703 56.9807 126.78 57.258 126.78 57.6279C126.78 58.1518 126.61 58.6757 126.796 59.3229Z" fill="#F6F9F9"/>
<path d="M110.081 35.2066C108.995 35.2682 107.848 34.9446 106.716 34.5902C106.344 34.4669 106.173 34.282 106.22 33.8659C106.297 32.9259 106.359 31.9705 106.375 31.0305C106.39 30.5374 106.701 30.6145 106.995 30.599C107.352 30.5836 107.6 30.6299 107.584 31.0767C107.553 31.9243 107.646 32.6948 108.484 33.2033C109.367 33.7426 110.298 33.8967 111.305 33.6964C112.282 33.4961 112.902 32.7872 112.933 31.9089C112.964 31.0613 112.546 30.5836 111.491 30.2908C110.592 30.0443 109.693 29.8594 108.794 29.6128C107.491 29.2584 106.499 28.5187 106.266 27.101C106.018 25.6371 106.391 24.3426 107.553 23.3564C108.949 22.1699 110.639 22.0466 112.375 22.1699C113.166 22.2315 113.957 22.3856 114.701 22.7246C114.965 22.8325 115.104 22.9558 115.073 23.2948C114.98 24.1115 114.918 24.9282 114.902 25.7449C114.887 26.1456 114.685 26.2226 114.36 26.1918C114.081 26.161 113.693 26.2843 113.693 25.7758C113.693 25.0669 113.647 24.3889 112.902 23.9882C112.081 23.5567 111.243 23.4643 110.344 23.6954C109.538 23.9112 108.995 24.5584 108.995 25.2672C109.011 26.0223 109.414 26.4846 110.344 26.7004C111.243 26.9161 112.158 27.0856 113.057 27.2705C114.406 27.5479 115.507 28.1181 115.833 29.582C116.205 31.2154 115.802 32.6486 114.561 33.7889C113.445 34.8213 112.158 35.2066 110.081 35.2066Z" fill="#F7F9FA"/>
<path d="M45.8919 68.5226C46.109 68.7076 46.3881 68.6613 46.6362 68.6613C47.0083 68.6613 47.1168 68.8 47.1168 69.1699C47.1168 69.5551 46.9152 69.5859 46.6207 69.5551C45.6129 69.4626 44.6051 69.4626 43.5973 69.5705C43.1166 69.6167 43.0236 69.401 43.0391 69.0003C43.0546 68.538 43.0391 68.0912 43.0391 67.4594C42.1243 68.1066 41.3026 68.7076 40.4654 69.2777C39.3955 70.002 37.721 69.9712 36.6667 69.2469C35.5039 68.461 35.3023 67.2899 35.4729 66.0417C35.6434 64.7318 36.2326 63.6223 37.566 63.1292C39.0855 62.559 40.6824 62.22 42.2949 62.0351C42.9151 61.958 43.1476 61.7423 43.0701 61.1105C42.9306 60.0164 42.4189 59.2305 41.3956 58.8144C40.3103 58.3676 39.2095 58.4138 38.2017 59.0148C37.7521 59.2767 37.69 59.8777 37.473 60.34C37.3644 60.5866 37.2714 60.7869 36.9148 60.7099C36.5427 60.6328 36.5272 60.4325 36.4807 60.1243C36.3256 59.1226 36.7133 58.5525 37.628 58.1056C39.1165 57.3505 40.6049 56.8574 42.3104 57.2426C43.8143 57.5817 44.8686 58.3984 45.3183 59.8931C45.3493 60.1705 45.3958 60.4479 45.3958 60.7407C45.3958 62.7902 45.3648 64.8397 45.3803 66.9046C45.3803 67.3515 45.2718 67.8292 45.5353 68.2453L45.5198 68.2607C45.5508 68.4456 45.6904 68.5226 45.8919 68.5226ZM43.1476 64.5623C43.1476 64.1308 43.1476 63.6839 43.1476 63.2525C43.1476 63.0367 43.1476 62.8056 42.822 62.8672C41.4111 63.1446 39.9382 63.2987 38.7133 64.1308C37.8916 64.6856 37.6125 66.2112 38.0777 67.1512C38.4808 67.9679 39.4421 68.2915 40.5584 67.9987C42.3104 67.521 43.1476 66.4115 43.1476 64.5623Z" fill="#F5F8F8"/>
<path d="M16.123 84.1174C16.4641 84.102 16.7897 84.0865 17.1308 84.0865C64.8383 84.0865 112.546 84.0865 160.253 84.0865C160.532 84.0865 160.827 84.102 161.106 84.1174C161.215 84.2406 161.401 84.3177 161.385 84.518C113.306 84.518 65.2104 84.518 17.1308 84.5026C16.7742 84.5026 16.2471 84.7646 16.123 84.1174Z" fill="#2B4259"/>
<path d="M64.8073 67.4594C63.8616 68.1374 63.0243 68.7692 62.1561 69.3394C60.373 70.4797 57.8458 69.5705 57.3186 67.5981C56.8845 65.9338 57.5977 63.5761 59.7373 62.9597C61.1793 62.559 62.6212 62.1738 64.1096 62.0043C64.6833 61.9426 64.9159 61.7269 64.8538 61.1413C64.7453 60.0472 64.2337 59.2459 63.2259 58.8145C62.125 58.3522 60.9932 58.383 59.9699 59.0148C59.5513 59.2767 59.4738 59.8315 59.2722 60.2784C59.1482 60.5558 59.0551 60.7715 58.6675 60.679C58.2489 60.5866 58.3574 60.3092 58.2954 60.0472C58.0784 58.9994 58.6055 58.4908 59.4893 58.044C61.1793 57.1502 62.9003 56.7495 64.7608 57.3967C66.2493 57.9053 67.1485 59.0764 67.164 60.6328C67.195 62.8364 67.1485 65.04 67.1485 67.2436C67.1485 68.4918 67.1795 68.5072 68.4199 68.6459C68.8075 68.6922 68.8695 68.8463 68.885 69.1853C68.885 69.5859 68.637 69.5705 68.3579 69.5397C67.3501 69.4472 66.3423 69.4626 65.3345 69.5551C64.9004 69.5859 64.8073 69.401 64.8228 69.0158C64.8228 68.5535 64.8073 68.0758 64.8073 67.4594ZM64.9004 64.6394C64.9004 64.1154 64.9004 63.684 64.9004 63.2525C64.9004 62.9751 64.8383 62.8056 64.4972 62.8672C63.1638 63.1446 61.7994 63.2987 60.6056 64.023C59.7218 64.5469 59.3187 66.0108 59.7528 67.0279C60.125 67.9217 61.0862 68.2915 62.2336 67.9987C63.2569 67.7367 64.0166 67.1049 64.6833 66.3345C65.1484 65.8105 64.7763 65.1479 64.9004 64.6394Z" fill="#F6F9F9"/>
<path d="M116.532 63.3141C115.292 63.3141 114.3 63.3449 113.323 63.2987C112.734 63.2679 112.641 63.4836 112.687 64.0075C112.966 67.4593 115.835 69.2469 119.106 67.9833C119.556 67.8138 119.99 67.5672 120.424 67.3515C120.548 67.2898 120.656 67.2436 120.78 67.3361C120.92 67.4439 120.936 67.5826 120.843 67.7367C120.687 68.0295 120.625 68.3531 120.346 68.5843C118.393 70.1715 114.594 70.2947 112.47 68.8308C110.873 67.7367 110.237 66.1341 110.082 64.3003C110.051 63.838 110.067 63.3757 110.082 62.9134C110.237 57.782 115.835 56.0561 118.78 57.5354C120.563 58.4292 121.757 60.8639 121.277 62.7285C121.168 63.1292 120.858 63.0675 120.61 63.0984C119.168 63.3449 117.726 63.2987 116.532 63.3141ZM115.819 62.2662C115.819 62.297 115.819 62.3125 115.819 62.3433C116.393 62.3433 116.951 62.3587 117.525 62.3433C119.044 62.2816 118.873 62.6361 118.765 60.9718C118.641 58.8761 117.106 57.6895 115.168 58.0902C113.633 58.3984 112.346 60.4325 112.687 61.9426C112.765 62.2662 112.982 62.2662 113.199 62.2662C114.067 62.2816 114.951 62.2662 115.819 62.2662Z" fill="#F6F9F9"/>
<path d="M156.192 63.3141C154.968 63.3141 153.975 63.345 152.999 63.2987C152.471 63.2833 152.347 63.4528 152.378 63.9613C152.611 67.4132 155.495 69.2469 158.751 67.9987C159.2 67.8292 159.634 67.5827 160.084 67.3669C160.224 67.3053 160.348 67.1974 160.503 67.3361C160.642 67.4748 160.611 67.5981 160.534 67.7522C160.379 68.045 160.317 68.3686 160.022 68.5997C157.665 70.4489 153.417 70.2794 151.386 68.1682C149.603 66.3191 149.588 64.0384 149.975 61.6653C150.58 58.0132 155.247 56.2872 158.006 57.3197C160.596 58.3059 161.123 60.6636 160.968 62.6669C160.937 63.1446 160.549 63.0522 160.27 63.0984C158.828 63.345 157.386 63.2987 156.192 63.3141ZM155.541 62.2663C155.541 62.2817 155.541 62.3125 155.541 62.3279C156.115 62.3279 156.673 62.3433 157.247 62.3279C158.751 62.2663 158.549 62.5745 158.472 61.0027C158.394 59.4154 157.526 58.3059 156.223 58.0748C153.681 57.6279 152.409 59.4617 152.394 61.881C152.394 62.2663 152.688 62.2663 152.937 62.2663C153.789 62.2817 154.658 62.2663 155.541 62.2663Z" fill="#F6F9F9"/>
<path d="M84.6232 24.8511C85.2434 24.1423 85.7086 23.5875 86.1892 23.0482C86.7939 22.3702 87.5381 22.0774 88.4684 22.2161C88.9025 22.2777 89.011 22.4626 88.9955 22.8787C88.9335 23.7416 88.9025 24.62 88.8715 25.4829C88.856 25.6987 88.918 25.9452 88.6234 26.0685C88.3288 26.1918 88.1583 26.0531 87.9567 25.8682C87.0885 25.1285 86.0342 25.1285 85.2434 25.8682C84.8713 26.2226 84.6698 26.6387 84.6698 27.1626C84.6853 28.9039 84.7163 30.6452 84.6853 32.3866C84.6698 33.1879 85.0264 33.5115 85.7706 33.5423C86.0497 33.5577 86.3287 33.5885 86.6233 33.6039C87.1195 33.6348 86.9489 34.02 86.9799 34.2974C87.0265 34.6364 86.8714 34.7443 86.5458 34.7443C84.3287 34.7288 82.1115 34.7288 79.8944 34.7443C79.5222 34.7443 79.3827 34.621 79.4292 34.2511C79.4602 33.9584 79.3517 33.6502 79.8633 33.6348C80.9797 33.5885 81.2278 33.758 81.2743 32.0167C81.3363 29.8439 81.3363 27.6557 81.2278 25.4829C81.1967 24.8049 80.9642 24.5121 80.2665 24.5275C79.8789 24.5429 79.3362 24.6354 79.4137 23.8957C79.4447 23.5105 79.5533 23.3718 79.9409 23.3102C81.3053 23.0944 82.6852 22.8941 83.9721 22.2931C84.4527 22.062 84.7008 22.2623 84.6853 22.8016C84.6232 23.418 84.6232 24.0344 84.6232 24.8511Z" fill="#F8FAFA"/>
<path d="M50.0938 63.6993C50.0938 62.4666 50.0783 61.2338 50.1093 60.001C50.1248 59.5233 49.9853 59.3384 49.4892 59.4154C49.2101 59.4616 48.931 59.4616 48.6364 59.477C48.4349 59.4925 48.2023 59.5695 48.1558 59.2613C48.1248 59.0147 48.1403 58.799 48.4349 58.7066C48.4814 58.6911 48.5279 58.6757 48.5744 58.6449C50.2334 57.9052 50.2334 57.9052 50.1869 56.1023C50.1869 56.0715 50.1869 56.0561 50.1869 56.0252C49.7217 54.4997 50.4194 53.6984 51.8614 53.2823C52.5436 53.082 52.7141 53.1128 52.6676 53.8216C52.5901 55.0236 52.5125 56.2256 52.404 57.4275C52.3575 57.8898 52.466 58.0748 52.9622 58.0439C53.7529 57.9977 54.5591 57.9977 55.3654 57.9977C55.598 57.9977 56.0631 57.782 55.9856 58.2597C55.9235 58.6603 56.1251 59.3384 55.3654 59.3692C54.5591 59.4 53.7684 59.4 52.9622 59.3692C52.466 59.3384 52.373 59.5233 52.373 59.9856C52.373 61.9888 52.3265 63.9921 52.311 65.9954C52.2955 67.6751 52.9932 68.2761 54.6677 68.0757C54.9002 68.0449 55.1173 67.9833 55.3499 67.937C55.5359 67.8908 55.7065 67.86 55.784 68.1066C55.846 68.2915 55.8305 68.4302 55.7065 68.5997C54.8227 69.6938 52.5591 70.1561 51.3187 69.478C50.4659 69.0157 50.0628 68.2761 50.0473 67.3361C50.0318 66.1341 50.0473 64.9167 50.0473 63.7147C50.0783 63.6993 50.0783 63.6993 50.0938 63.6993Z" fill="#F5F8F8"/>
<path d="M97.0585 69.8633C92.7327 69.8633 90.2675 66.8121 90.9342 62.482C91.2288 60.602 92.1746 59.2613 93.849 58.2905C95.7871 57.1502 97.7717 56.657 99.9733 57.258C101.136 57.5662 101.198 57.6587 101.012 58.8298C100.919 59.4616 100.857 60.1089 100.811 60.7407C100.795 61.0334 100.733 61.2184 100.376 61.2338C100.035 61.2338 99.9423 61.0797 99.8803 60.7869C99.7873 60.2784 99.9888 59.662 99.4772 59.2767C98.8725 58.8298 98.1748 58.5679 97.4151 58.4754C95.6786 58.2751 94.4227 58.8607 93.7715 60.1859C92.7947 62.1892 93.3219 65.6102 94.8879 67.1974C95.9887 68.3223 97.3841 68.5688 98.888 68.3069C99.3222 68.2298 99.7253 68.0449 100.144 67.937C100.438 67.86 100.749 67.4593 101.028 67.8908C101.26 68.2607 100.904 68.538 100.718 68.7538C100.19 69.3702 99.3997 69.5088 98.6555 69.6938C98.1128 69.8479 97.5081 69.9095 97.0585 69.8633Z" fill="#F5F8F8"/>
<path d="M138.471 63.7302C138.409 61.1567 139.447 59.323 141.758 58.0902C143.773 57.0115 145.758 56.7033 147.928 57.3659C148.595 57.5663 148.812 57.9053 148.657 58.5987C148.502 59.2922 148.455 60.0164 148.393 60.7407C148.362 61.0335 148.331 61.2184 147.959 61.2338C147.634 61.2338 147.51 61.1105 147.463 60.7869C147.401 60.2938 147.556 59.7236 147.122 59.3384C146.61 58.8761 145.975 58.6449 145.324 58.5217C143.634 58.1981 142.3 58.6912 141.571 59.8469C140.285 61.881 140.905 65.9184 142.765 67.4594C143.851 68.3531 145.122 68.5689 146.486 68.3069C146.89 68.2299 147.277 68.0449 147.68 67.9525C147.99 67.8754 148.347 67.4286 148.642 67.8754C148.89 68.2761 148.455 68.5689 148.254 68.8617C148.13 69.0312 147.882 69.139 147.68 69.2161C145.851 70.002 143.975 70.0945 142.099 69.4781C140.269 68.8925 138.347 67.0433 138.471 63.7302Z" fill="#F6F9F9"/>
<path d="M106.98 68.1066C106.965 68.5072 107.229 68.6305 107.57 68.6613C107.849 68.6767 108.143 68.6921 108.422 68.6767C108.748 68.6613 108.872 68.7846 108.872 69.1236C108.872 69.4472 108.763 69.5705 108.422 69.5551C106.515 69.4626 104.608 69.4934 102.701 69.5551C102.36 69.5705 102.252 69.4472 102.252 69.1236C102.252 68.7846 102.376 68.6921 102.701 68.6767C104.298 68.538 104.329 68.5072 104.329 66.92C104.345 64.7626 104.345 62.6207 104.345 60.4633C104.345 59.1072 104.283 59.061 102.918 58.9839C102.608 58.9685 102.205 59.1072 102.236 58.5371C102.252 58.3059 102.283 58.1364 102.562 58.121C103.988 58.0439 105.29 57.4738 106.655 57.1039C106.903 57.3197 106.825 57.6125 106.825 57.8898C106.81 59.9856 106.748 62.0813 106.779 64.1771C106.825 65.4715 106.686 66.7967 106.98 68.1066Z" fill="#F5F8F8"/>
<path d="M105.477 51.3869C106.345 51.4023 106.965 52.0341 106.949 52.9125C106.934 53.76 106.267 54.4072 105.414 54.3918C104.562 54.3764 103.911 53.7138 103.926 52.8508C103.957 51.9879 104.608 51.3715 105.477 51.3869Z" fill="#F5F8F8"/>
<path d="M106.98 68.1066C106.701 66.7967 106.825 65.4715 106.81 64.1462C106.779 62.0505 106.825 59.9548 106.856 57.859C106.856 57.5817 106.934 57.2889 106.686 57.0731C106.763 56.9036 106.903 56.7958 106.965 57.0423C107.027 57.3659 106.996 57.7049 106.996 58.0285C106.98 61.4187 106.98 64.7626 106.98 68.1066Z" fill="#2B4259"/>
<path d="M45.551 68.2144C45.2875 67.7984 45.396 67.3207 45.396 66.8738C45.396 64.8243 45.4115 62.7748 45.4115 60.7098C45.4115 60.4325 45.365 60.1551 45.334 59.8623C45.5666 60.001 45.5821 60.2321 45.5821 60.4633C45.5666 63.0521 45.5666 65.641 45.551 68.2144Z" fill="#2E4C69"/>
<path d="M45.8916 68.5226C45.6901 68.5226 45.5505 68.4456 45.5195 68.2298C45.7521 68.2144 45.8606 68.3223 45.8916 68.5226Z" fill="#2E4C69"/>
<path d="M161.402 83.7784C161.387 83.6705 161.387 83.5626 161.371 83.4548C161.65 83.5318 161.666 83.6397 161.402 83.7784Z" fill="#2E4C69"/>
<path d="M17.5044 83.3469C17.3649 83.3469 17.2099 83.3469 17.0703 83.3469C17.2099 83.1311 17.3649 83.1311 17.5044 83.3469Z" fill="#2E4C69"/>
<path d="M16.2935 83.3315C16.2315 83.3315 16.1694 83.3315 16.1074 83.3315C16.1694 83.2699 16.2315 83.2699 16.2935 83.3315Z" fill="#2E4C69"/>
<path d="M99.2442 28.2721C99.2442 28.9193 99.2287 29.5511 99.2442 30.1983C99.2907 31.3387 98.593 31.9243 97.6628 32.3249C96.717 32.7256 95.6472 32.5252 94.9495 31.801C93.8797 30.6915 93.7246 29.2892 93.7246 27.8715C93.7246 27.3167 93.8331 26.7465 93.9417 26.1918C94.4068 23.5721 96.7635 23.6646 98.1899 24.62C98.8721 25.0823 99.3838 25.637 99.2597 26.577C99.1822 27.1318 99.2442 27.702 99.2442 28.2721Z" fill="#375976"/>
<path d="M19.0548 60.2938C18.8998 57.9515 19.0238 55.6246 19.0548 53.2823C19.0548 52.7738 19.1944 52.5889 19.737 52.5426C21.4425 52.3731 23.1325 52.3423 24.838 52.6043C27.6754 53.0357 29.6755 54.962 30.2181 57.8282C30.5437 59.5387 30.4972 61.2492 30.0476 62.9289C29.1948 66.1033 27.1172 67.8292 23.6752 68.1836C22.3883 68.3223 21.1014 68.2607 19.8146 68.1528C19.1944 68.1066 19.0548 67.8446 19.0548 67.2898C19.0704 64.963 19.0548 62.6361 19.0548 60.2938Z" fill="#375976"/>
<path d="M33.3968 28.1026C33.3968 27.0548 33.3813 26.0069 33.7845 25.0053C34.1566 24.0653 34.8388 23.5567 35.8466 23.5413C36.8544 23.5259 37.6296 23.9882 37.9707 24.9282C38.8544 27.3476 38.932 29.8439 38.2653 32.3403C38.0172 33.2495 37.3195 33.7272 36.3737 33.7889C35.4124 33.8505 34.6682 33.4344 34.2031 32.6023C33.6449 31.6161 33.5054 30.522 33.4123 29.4125C33.3658 28.9656 33.3968 28.5341 33.3968 28.1026Z" fill="#395A77"/>
<path d="M73.1969 30.3833C73.259 31.0767 73.29 31.9397 72.2667 32.4328C71.3054 32.8951 70.4681 32.8026 69.9875 32.1092C69.5069 31.4003 69.6774 30.1367 70.3751 29.582C71.1038 29.0118 72.0031 28.8577 72.8713 28.6266C73.1814 28.5495 73.1969 28.7653 73.1969 28.9964C73.1969 29.3971 73.1969 29.7823 73.1969 30.3833Z" fill="#395A77"/>
<path d="M43.1332 64.5623C43.1332 66.4115 42.296 67.521 40.5594 67.9987C39.4431 68.3069 38.4818 67.9679 38.0787 67.1512C37.6136 66.2112 37.9082 64.6856 38.7144 64.1309C39.9393 63.2987 41.4122 63.1446 42.8231 62.8672C43.1487 62.8056 43.1332 63.0368 43.1487 63.2525C43.1487 63.684 43.1487 64.1308 43.1332 64.5623Z" fill="#395A77"/>
<path d="M64.9013 64.6394C64.7772 65.1479 65.1493 65.8105 64.6842 66.3345C64.0175 67.105 63.2578 67.7368 62.2345 67.9987C61.0871 68.2915 60.1259 67.9217 59.7537 67.0279C59.3196 66.0109 59.7227 64.5469 60.6065 64.023C61.8003 63.3141 63.1647 63.1446 64.4981 62.8673C64.8237 62.8056 64.9013 62.9751 64.9013 63.2525C64.9013 63.6994 64.9013 64.1309 64.9013 64.6394Z" fill="#395A77"/>
<path d="M115.818 62.2662C114.95 62.2662 114.066 62.2816 113.198 62.2662C112.981 62.2662 112.748 62.2662 112.686 61.9426C112.345 60.417 113.632 58.3984 115.167 58.0902C117.12 57.6895 118.64 58.8607 118.764 60.9718C118.872 62.6515 119.043 62.2816 117.524 62.3433C116.965 62.3741 116.392 62.3433 115.818 62.3433C115.818 62.3125 115.818 62.297 115.818 62.2662Z" fill="#395A77"/>
<path d="M155.54 62.2662C154.672 62.2662 153.788 62.2817 152.92 62.2662C152.672 62.2662 152.377 62.2662 152.377 61.881C152.392 59.4617 153.664 57.6433 156.207 58.0748C157.509 58.3059 158.393 59.4154 158.455 61.0026C158.532 62.5898 158.734 62.2662 157.23 62.3279C156.672 62.3433 156.098 62.3279 155.524 62.3279C155.54 62.3125 155.54 62.2971 155.54 62.2662Z" fill="#395A77"/>
</g>
<defs>
<clipPath id="clip0_406_7215">
<rect width="179" height="94" fill="white" transform="translate(0 3)"/>
</clipPath>
</defs>
</svg>
