<svg width="179" height="100" viewBox="0 0 179 100" fill="none" xmlns="http://www.w3.org/2000/svg">
<rect width="179" height="100" fill="white"/>
<g clip-path="url(#clip0_406_7195)">
<path d="M15.0234 100V1H164.97C164.97 34 164.97 67 164.97 100H15.0234ZM59.8085 70.0639C66.1965 70.0639 72.2479 70.1705 78.307 70.0258C81.578 70.0733 84.8068 69.2869 87.6863 67.7412C89.2188 66.934 90.4676 65.6807 91.2659 64.1486C92.0642 62.6164 92.374 60.8783 92.1541 59.1663C91.8863 55.5947 89.859 53.4472 86.4928 52.3734C85.9037 52.183 85.33 51.9469 84.4961 51.6118C87.954 50.5914 90.6163 49.0683 91.0448 45.3596C91.565 41.0265 89.4152 37.6452 85.1081 36.2821C82.3383 35.4398 79.4504 35.0464 76.555 35.1169C70.9856 35.1778 65.4162 35.1169 59.7932 35.1169V41.3006C62.5014 41.8642 62.5779 41.9327 62.5855 44.6666C62.5855 49.7994 62.5014 54.9322 62.6314 60.0649C62.6926 62.2962 62.3713 63.9488 59.8085 63.9868V70.0639ZM127.3 35.0332H94.6481V47.827H101.663C102.077 45.6566 101.778 43.5472 102.696 41.4529C103.461 41.8185 104.31 41.2321 105.129 42.0241C105.129 47.9717 105.06 53.9955 105.129 60.0192C105.167 62.3038 104.922 64.0554 102.13 63.6975V69.5613H119.833V63.8117C118.425 63.5985 116.903 63.5985 116.895 61.687C116.895 55.054 116.895 48.4134 116.895 41.4986C121.99 41.8108 118.662 46.342 120.72 47.8803H127.261L127.3 35.0332ZM36.3832 69.9725H54.0401V63.7279C51.3242 64.3219 51.1559 62.7075 51.1789 60.7579C51.2324 55.5338 51.3013 50.3096 51.1789 45.0931C51.11 42.8085 51.5308 41.2854 54.0325 41.3387V35.2692H36.3373V41.3615C39.3209 41.8794 39.3974 41.9784 39.3974 45.0093C39.3974 49.9593 39.3056 54.9093 39.4433 59.8669C39.5121 62.281 39.2979 64.1848 36.3832 64.1011V69.9725ZM133.802 69.6298H149.363L150.801 54.955H136.664C135.899 54.955 135.233 55.1149 135.134 56.0745C134.705 60.5142 134.261 64.9692 133.795 69.6298H133.802Z" fill="#010101"/>
<path d="M59.8083 70.0639V63.9716C62.3711 63.9716 62.6924 62.281 62.6312 60.0497C62.4935 54.9169 62.6312 49.7841 62.5853 44.6514C62.5853 41.9174 62.5012 41.8489 59.793 41.2854V35.1321C65.416 35.1321 70.9854 35.1778 76.5548 35.1321C79.4506 35.0641 82.3385 35.46 85.1079 36.3049C89.4227 37.6757 91.5648 41.0493 91.0446 45.3824C90.6008 49.0911 87.9844 50.6142 84.4959 51.6347C85.3221 51.9393 85.9035 52.183 86.4926 52.3962C89.8282 53.47 91.8861 55.6175 92.1539 59.1891C92.3671 60.8935 92.0555 62.6221 91.2605 64.1464C90.4655 65.6707 89.2244 66.9189 87.7014 67.726C84.822 69.2716 81.5931 70.0581 78.3221 70.0106C72.2477 70.1629 66.1886 70.0639 59.8083 70.0639ZM74.3439 63.3319C78.9341 63.6289 80.38 62.6313 80.3341 59.1891C80.2959 56.0059 78.7122 54.9854 74.3439 55.4195V63.3319ZM74.3439 49.0759C78.6969 49.1216 79.9286 48.1544 79.7527 45.055C79.5997 42.3667 78.3603 41.6585 74.3439 42.0545V49.0759Z" fill="#FAFAFA"/>
<path d="M127.299 35.0636V47.8803H120.758C118.677 46.3572 122.005 41.788 116.933 41.4986C116.933 48.4134 116.933 55.054 116.933 61.687C116.933 63.5984 118.463 63.5984 119.87 63.8117V69.607H102.168V63.7431C104.96 64.1011 105.228 62.3495 105.167 60.0649C105.059 54.0411 105.167 48.0098 105.167 42.0698C104.348 41.3082 103.499 41.8641 102.734 41.4986C101.816 43.5852 102.114 45.7023 101.701 47.8727H94.6855V35.0636H127.299Z" fill="#FAFAFA"/>
<path d="M36.3818 69.9725V64.0554C39.3119 64.1392 39.5261 62.2353 39.442 59.8212C39.3043 54.8712 39.442 49.9212 39.3961 44.9636C39.3961 41.9175 39.3043 41.8337 36.3359 41.3158V35.2692H54.0388V41.3615C51.5371 41.2778 51.1164 42.8237 51.1852 45.1159C51.3382 50.3325 51.2694 55.5566 51.1852 60.7808C51.1852 62.7303 51.3306 64.3448 54.0464 63.7508V69.9954L36.3818 69.9725Z" fill="#FAFAFA"/>
<path d="M133.795 69.6299C134.254 64.954 134.698 60.4914 135.134 56.0745C135.226 55.1149 135.899 54.955 136.664 54.955H150.802L149.363 69.6299H133.795Z" fill="#77CB00"/>
<path d="M74.3281 63.3319V55.4195C78.6965 54.9855 80.2801 55.9983 80.3183 59.1892C80.3642 62.6237 78.9566 63.6289 74.3281 63.3319Z" fill="#010101"/>
<path d="M74.3203 49.0759V42.0621C78.3291 41.6661 79.5761 42.3744 79.7291 45.0626C79.9051 48.1544 78.6733 49.1216 74.3203 49.0759Z" fill="#010101"/>
</g>
<defs>
<clipPath id="clip0_406_7195">
<rect width="150" height="99" fill="white" transform="translate(15 1)"/>
</clipPath>
</defs>
</svg>
