<svg width="179" height="100" viewBox="0 0 179 100" fill="none" xmlns="http://www.w3.org/2000/svg">
<rect width="179" height="100" fill="white"/>
<g clip-path="url(#clip0_406_7107)">
<path d="M28.7676 34.94C33.0396 35.06 37.1929 34.58 41.3462 35.18C45.0249 35.66 47.3389 38.84 47.2796 42.68C47.1609 46.58 44.6096 49.46 40.9309 49.88C38.5576 50.18 36.2436 49.88 33.7516 50.06C33.7516 52.76 33.7516 55.46 33.7516 58.22C32.0309 58.22 30.4882 58.22 28.8269 58.22C28.7676 50.48 28.7676 42.74 28.7676 34.94ZM33.7516 39.38C33.7516 41.42 33.7516 43.46 33.7516 45.5C35.7096 45.5 37.6082 45.56 39.4476 45.5C41.1089 45.38 42.1769 44.12 42.2362 42.5C42.2362 40.88 41.2276 39.56 39.6256 39.44C37.7269 39.32 35.7689 39.38 33.7516 39.38Z" fill="#219BDD"/>
<path d="M159.775 41.36C159.775 43.34 159.775 45.14 159.775 47C159.775 48.2 159.775 49.34 159.775 50.54C159.775 52.58 160.25 53.42 161.674 53.84C163.276 54.32 165.709 53.54 166.48 52.28C166.658 51.98 166.599 51.62 166.599 51.32C166.599 48.32 166.599 45.32 166.599 42.32C166.599 41.54 166.836 41.36 167.548 41.36C168.675 41.42 169.803 41.36 170.871 41.36C171.108 41.78 170.989 42.14 170.989 42.5C170.989 47.3 170.871 52.04 171.049 56.84C171.167 61.76 168.082 64.7 163.454 65.12C160.725 65.36 158.173 64.88 155.859 63.2C155.325 62.84 155.147 62.54 155.563 61.94C156.097 61.16 156.571 60.38 156.987 59.6C157.283 59.54 157.402 59.78 157.58 59.9C159.301 61.34 161.318 61.7 163.454 61.28C165.412 60.86 166.539 59.36 166.599 57.32C166.599 56.78 166.599 56.3 166.599 55.76C166.243 55.7 166.124 55.94 165.946 56.12C163.929 57.74 161.674 58.34 159.123 57.86C156.809 57.44 155.385 55.64 155.325 52.94C155.266 49.34 155.325 45.74 155.325 42.14C155.325 41.78 155.266 41.36 155.859 41.36C157.165 41.36 158.411 41.36 159.775 41.36Z" fill="#8E9491"/>
<path d="M128.448 43.34C128.448 40.46 128.448 37.76 128.448 35C129.932 35 131.356 35 132.839 35C132.839 42.74 132.839 50.36 132.839 58.16C131.415 58.16 129.991 58.16 128.508 58.16C128.508 57.56 128.508 56.96 128.508 56.18C127.202 57.56 125.897 58.46 124.176 58.64C120.913 59 117.887 57.26 116.7 54.2C115.632 51.32 115.573 48.38 116.7 45.5C118.54 40.7 124.295 39.44 128.033 42.98C128.092 43.1 128.211 43.16 128.448 43.34ZM128.448 49.82C128.448 49.04 128.448 48.2 128.448 47.42C128.448 47 128.389 46.7 128.092 46.4C126.787 45.14 125.244 44.72 123.524 45.14C121.862 45.56 120.972 46.82 120.616 48.38C120.498 49.04 120.498 49.76 120.498 50.42C120.557 52.16 121.269 53.54 122.871 54.32C124.473 55.1 126.016 54.74 127.499 53.78C128.152 53.36 128.567 52.82 128.448 51.92C128.389 51.2 128.448 50.48 128.448 49.82Z" fill="#8E9491"/>
<path d="M147.493 43.4C147.493 42.62 147.493 42.08 147.493 41.48C148.977 41.48 150.341 41.48 151.825 41.48C151.825 47.06 151.825 52.58 151.825 58.16C150.401 58.16 149.036 58.16 147.612 58.16C147.375 57.62 147.612 57.02 147.434 56.42C147.315 56.48 147.197 56.48 147.197 56.54C143.993 60.32 137.11 59.12 135.508 53.3C134.618 50.06 134.737 46.82 136.635 43.94C139.068 40.28 144.467 39.92 147.078 42.98C147.137 43.1 147.197 43.16 147.493 43.4ZM147.434 49.88C147.434 49.04 147.434 48.2 147.434 47.36C147.434 47 147.375 46.7 147.078 46.46C145.832 45.2 144.289 44.72 142.628 45.08C141.026 45.44 140.077 46.58 139.661 48.14C139.424 48.92 139.424 49.76 139.483 50.54C139.721 53.24 141.679 54.92 144.23 54.68C146.366 54.5 147.375 53.36 147.375 51.26C147.434 50.78 147.434 50.3 147.434 49.88Z" fill="#8E9491"/>
<path d="M77.4814 49.82C77.4814 54.98 73.7434 58.7 68.6407 58.7C63.538 58.7 59.8594 54.92 59.8594 49.76C59.8594 44.66 63.538 40.94 68.6407 40.94C73.8027 40.94 77.4814 44.66 77.4814 49.82ZM72.9127 49.82C72.9127 49.58 72.9127 49.34 72.9127 49.1C72.7347 46.88 71.192 45.2 69.234 45.02C66.8014 44.84 65.1994 46.04 64.606 48.44C64.428 49.16 64.428 49.94 64.4874 50.66C64.8434 53.72 67.454 55.52 70.1834 54.56C71.8447 53.9 72.9127 52.04 72.9127 49.82Z" fill="#219BDD"/>
<path d="M114.148 49.76C114.148 55.04 110.588 58.64 105.426 58.7C100.383 58.76 96.6445 54.98 96.6445 49.82C96.6445 44.6 100.264 40.94 105.426 40.94C110.529 40.94 114.148 44.6 114.148 49.76ZM105.426 54.68C107.977 54.68 109.698 52.7 109.698 49.76C109.698 46.88 107.977 44.9 105.367 44.9C102.875 44.9 101.154 46.82 101.095 49.58C101.035 52.64 102.815 54.68 105.426 54.68Z" fill="#8E9491"/>
<path d="M99.0195 35C99.0195 36.32 99.0195 37.58 99.0195 38.84C99.0195 39.44 98.6042 39.38 98.2482 39.38C96.6462 39.38 94.9849 39.38 93.3829 39.38C93.0269 39.38 92.7302 39.38 92.3149 39.38C92.3149 45.68 92.3149 51.92 92.3149 58.16C90.6535 58.16 89.0515 58.16 87.3902 58.16C87.3902 51.92 87.3902 45.74 87.3902 39.38C85.1355 39.38 82.9402 39.38 80.6855 39.38C80.6855 37.88 80.6855 36.44 80.6855 35C86.7375 35 92.7895 35 99.0195 35Z" fill="#8E9491"/>
<path d="M19.809 58.22C18.0884 58.22 16.5457 58.22 14.8844 58.22C14.8844 51.92 14.8844 45.68 14.8844 39.38C12.5704 39.38 10.375 39.38 8.17969 39.38C8.17969 37.88 8.17969 36.5 8.17969 35.06C14.291 35.06 20.343 35.06 26.5137 35.06C26.5137 36.44 26.5137 37.88 26.5137 39.38C24.3184 39.38 22.123 39.38 19.8684 39.38C19.809 45.68 19.809 51.86 19.809 58.22Z" fill="#219BDD"/>
<path d="M5.806 58.22C4.204 58.22 2.602 58.22 1 58.22C1 50.48 1 42.8 1 35C2.54267 35 4.14467 35 5.806 35C5.806 42.68 5.806 50.42 5.806 58.22Z" fill="#219BDD"/>
<path d="M49.416 41.42C50.84 41.42 52.264 41.42 53.7474 41.42C53.7474 42.08 53.7474 42.74 53.7474 43.52C54.578 42.74 55.3493 42.08 56.18 41.66C57.07 41.24 57.96 40.94 59.028 40.94C59.028 42.38 59.028 43.76 59.028 45.2C57.604 45.02 56.2393 45.26 55.0527 45.98C54.222 46.46 53.688 47.06 53.7474 48.2C53.866 51.2 53.8067 54.2 53.8067 57.2C53.8067 57.5 53.8067 57.8 53.8067 58.16C52.3233 58.16 50.8993 58.16 49.4753 58.16C49.416 52.64 49.416 47.06 49.416 41.42Z" fill="#219BDD"/>
<path d="M179 59C178.288 58.28 178.704 57.62 178.407 57.02C178.17 57.38 177.932 57.68 177.695 57.98C177.28 57.86 177.28 57.38 176.864 57.2C176.627 57.68 176.924 58.34 176.449 59.06C175.974 57.92 176.271 56.96 176.152 55.94C177.161 55.76 177.042 56.78 177.576 57.08C178.11 56.84 178.051 55.88 178.882 55.88C179 56.84 179 57.74 179 59Z" fill="#8E9491"/>
<path d="M174.55 58.76C174.194 57.98 174.431 57.2 174.253 56.54C174.016 56.24 173.541 56.6 173.363 55.94C174.194 55.76 174.965 55.76 175.737 55.94C175.618 56.6 175.084 56.24 174.906 56.48C174.669 57.2 175.084 58.04 174.55 58.76Z" fill="#8E9491"/>
</g>
<defs>
<clipPath id="clip0_406_7107">
<rect width="178" height="30" fill="white" transform="translate(1 35)"/>
</clipPath>
</defs>
</svg>
