<svg width="276" height="161" viewBox="0 0 276 161" fill="none" xmlns="http://www.w3.org/2000/svg">
<g filter="url(#filter0_d_406_845)">
<rect x="4" y="4" width="268" height="149" fill="white" fill-opacity="0.19" shape-rendering="crispEdges"/>
</g>
<path d="M148.981 0H75V77.069H148.981V0Z" fill="white"/>
<path d="M118.637 66.2234L139.327 53.7785C140.459 53.098 140.983 52.176 140.938 51.2178" fill="#BFC3C7"/>
<path d="M140.938 51.2181H140.946V47.0554L133.516 45.0535L117.043 35.146C114.271 33.4782 110.076 33.2964 107.674 34.7418L90.8013 44.8892L82.9254 46.8324V50.9418C82.9198 51.0334 82.9217 51.1265 82.9254 51.2181V51.2821H82.9287C83.0068 52.3363 83.7741 53.4293 85.2104 54.2926L106.82 67.2901C109.594 68.958 113.788 69.1398 116.19 67.6953L118.637 66.2237" fill="#BFC3C7"/>
<path d="M139.325 49.3929L116.188 63.3094C113.786 64.7533 109.592 64.5716 106.818 62.9042L85.2085 49.9076C82.4345 48.2388 82.1339 45.7163 84.5357 44.2714L107.672 30.3559C110.074 28.9109 114.268 29.0922 117.042 30.7601L138.652 43.7576C141.426 45.425 141.727 47.9489 139.325 49.3929Z" fill="#E9E8E7"/>
<path d="M97.5078 17.5182L100.497 15.7092C101.41 15.1562 102.483 15.0907 103.624 15.4741C104.3 15.701 104.941 16.0068 105.548 16.3723C109.9 18.9897 112.491 24.6366 112.906 25.6584L109.917 27.4673C109.502 26.4456 106.911 20.7997 102.558 18.1812C101.952 17.8163 101.311 17.5099 100.636 17.284C99.4946 16.9006 98.4207 16.9656 97.5078 17.5182Z" fill="#0109C4"/>
<path d="M127.84 38.9907C127.05 32.4582 123.905 27.8157 120.629 25.523C120.328 25.3126 120.039 25.1251 119.76 24.9569C117.059 23.3326 115.339 23.6079 114.274 24.2526L111.285 26.062C112.35 25.4173 114.07 25.142 116.771 26.7663C117.051 26.934 117.34 27.1225 117.64 27.3319C120.917 29.6256 124.061 34.2677 124.851 40.7996C125.441 45.6802 123.531 48.4154 120.804 50.0663L123.793 48.2564C126.52 46.6065 128.43 43.8707 127.84 38.9907Z" fill="#0109C4"/>
<path d="M125.259 40.589C126.611 51.779 114.82 51.6932 110.186 53.1032C105.571 46.1307 93.8224 32.0581 95.2295 22.5277C95.9223 17.8255 98.2571 16.1949 100.975 17.1081C101.65 17.334 102.291 17.6403 102.898 18.0058C107.25 20.6237 109.841 26.2696 110.256 27.2914C110.705 26.7301 112.419 23.6929 117.179 26.5556C117.458 26.7233 117.747 26.9109 118.048 27.1213C121.324 29.4145 124.469 34.0565 125.259 40.589Z" fill="#0109C4"/>
<path d="M107.044 25.8931L109.95 43.7042L113.045 34.6935L114.331 41.5686L115.368 38.5697L116.263 41.8536L116.775 41.396L129.301 48.6929C129.473 48.7961 129.614 49.0477 129.613 49.2556C129.612 49.4592 129.471 49.545 129.299 49.4418L117.167 42.2409L116.072 43.2152L115.405 40.7674L114.241 44.1395L112.955 37.2712L109.815 46.4123L106.933 28.7495L104.21 37.5213L103.269 33.8816L91.4788 26.8363C91.3062 26.7326 91.167 26.4786 91.168 26.275C91.1684 26.0666 91.308 25.9837 91.4811 26.0879L103.488 33.2636L104.163 35.1685L107.044 25.8931Z" fill="#CECDCC"/>
<g clip-path="url(#clip0_406_845)">
<path d="M172.914 15.2314H82.9141V105.231H172.914V15.2314Z" fill="white"/>
<path d="M163.125 75.0432H163.135V70.1821L154.097 67.8444L134.057 56.2746C130.684 54.3268 125.581 54.1146 122.659 55.8025L102.132 67.6525L92.5512 69.9217V74.7206C92.5444 74.8276 92.5466 74.9363 92.5512 75.0432V75.118H92.5546C92.6502 76.3491 93.5836 77.6255 95.331 78.6336L121.619 93.8119C124.994 95.7596 130.097 95.9719 133.019 94.2851L161.166 78.0336C162.543 77.2389 163.181 76.1623 163.125 75.0432Z" fill="#BFC3C7"/>
<path d="M161.165 72.9123L133.019 89.1638C130.097 90.85 124.994 90.6378 121.619 88.6906L95.3307 73.5134C91.956 71.5646 91.5898 68.6189 94.5116 66.9315L122.658 50.6812C125.58 48.9938 130.683 49.2055 134.057 51.1532L160.346 66.3315C163.721 68.2787 164.087 71.2261 161.165 72.9123Z" fill="#E9E8E7"/>
<path d="M153.349 72.4403L153.349 71.5896L151.831 71.696L125.963 56.6309C125.234 56.2097 123.96 56.263 123.118 56.7486L103.999 67.7382L102.325 67.8548V68.688C102.324 68.7118 102.324 68.735 102.325 68.7588C102.343 69.0096 102.503 69.2467 102.815 69.4273L129.711 85.085C130.44 85.5062 131.714 85.4529 132.556 84.9673L152.655 73.4145C153.137 73.136 153.372 72.7765 153.349 72.4403Z" fill="#0109C4"/>
<path d="M153.349 72.417L153.349 71.5662L151.831 71.6721L151.603 71.5391L150.512 71.9789L130.926 83.937V84.4125V85.3404C131.491 85.3442 132.089 85.2128 132.556 84.944L152.655 73.3911C153.137 73.1126 153.372 72.7532 153.349 72.417Z" fill="#0109C4"/>
<path d="M152.911 70.7827L126.015 55.1244C125.259 54.6886 123.939 54.7412 123.071 55.2422L102.972 66.795C102.498 67.0684 102.227 67.4386 102.227 67.8093C102.227 68.1235 102.419 68.4071 102.768 68.608L129.664 84.2663C130.007 84.465 130.468 84.5618 130.949 84.5618C131.526 84.5618 132.134 84.422 132.608 84.1486L152.707 72.5963C153.181 72.3229 153.453 71.9522 153.453 71.5814C153.453 71.2678 153.26 70.9837 152.911 70.7827Z" fill="#CECDCC"/>
<path d="M117.495 64.4076V63.7499H116.53L115.129 62.9569C114.943 62.8516 114.642 62.8516 114.455 62.9569L113.054 63.7499H112.09V64.4082C112.09 64.4773 112.136 64.5463 112.229 64.599L114.455 65.8584C114.642 65.9643 114.943 65.9643 115.129 65.8584L117.355 64.599C117.448 64.5463 117.495 64.4773 117.495 64.4076Z" fill="#0109C4"/>
<path d="M117.356 63.9406L115.13 65.2012C114.944 65.3059 114.642 65.3059 114.456 65.2012L112.23 63.9406C112.043 63.8353 112.043 63.6644 112.23 63.5585L114.456 62.2991C114.642 62.1933 114.944 62.1933 115.13 62.2991L117.356 63.5585C117.542 63.6644 117.542 63.8353 117.356 63.9406Z" fill="#686868"/>
<path d="M113.375 51.8936V63.5619H113.376C113.382 63.7634 113.519 63.9632 113.79 64.1171C114.343 64.4296 115.241 64.4296 115.794 64.1171C116.065 63.9632 116.202 63.7634 116.208 63.5619H116.209V51.8936H113.375Z" fill="#7C7C7C"/>
<mask id="mask0_406_845" style="mask-type:luminance" maskUnits="userSpaceOnUse" x="113" y="51" width="4" height="14">
<path d="M113.375 51.8931V63.5619H113.376C113.382 63.7629 113.519 63.9633 113.79 64.1167C114.343 64.4297 115.241 64.4297 115.794 64.1167C116.065 63.9633 116.202 63.7629 116.208 63.5619H116.209V51.8931H113.375Z" fill="#123155"/>
</mask>
<g mask="url(#mask0_406_845)">
<path d="M115.422 53.3863V64.299L115.793 64.1886L116.211 63.845V51.9922L115.673 52.1099L115.422 53.3863Z" fill="#0109C4"/>
</g>
<mask id="mask1_406_845" style="mask-type:luminance" maskUnits="userSpaceOnUse" x="112" y="62" width="6" height="4">
<path d="M114.455 62.9571L113.054 63.7501H112.09V64.4084C112.09 64.4775 112.136 64.5465 112.229 64.5992L114.455 65.8586C114.642 65.9645 114.943 65.9645 115.13 65.8586L117.355 64.5992C117.448 64.5465 117.495 64.4775 117.495 64.4079V63.7501H116.53L115.13 62.9571C115.037 62.9045 114.914 62.8784 114.792 62.8784C114.67 62.8784 114.548 62.9045 114.455 62.9571Z" fill="#123155"/>
</mask>
<g mask="url(#mask1_406_845)">
<path d="M114.719 65.2814V65.934L115.131 66.0206L117.496 64.5336L117.563 63.7236C117.563 63.7236 115.302 65.1319 115.131 65.201C114.958 65.2695 114.719 65.2814 114.719 65.2814Z" fill="#0109C4"/>
</g>
<path d="M145.823 67.6961C145.823 67.6842 145.823 67.6717 145.823 67.6604L145.82 55.0791L115.819 54.1089L115.823 66.723C115.785 66.9744 115.915 67.2195 116.223 67.3978L130.606 75.6279C131.21 75.9766 132.263 75.933 132.959 75.5306L145.248 68.4608C145.627 68.2417 145.82 67.9259 145.823 67.6604V67.6961Z" fill="#AAAAAA"/>
<path d="M130.926 54.5439V75.6758C131.542 75.9107 132.445 75.8389 133.065 75.4806L145.354 68.4102C145.733 68.1911 145.926 67.8758 145.929 67.6098L145.927 55.0285L130.926 54.5439Z" fill="#0109C4"/>
<path d="M122.816 71.1477L126.975 73.5488V64.2765L122.816 61.876V71.1477Z" fill="#878686"/>
<path d="M126.485 72.6946V64.5612L123.313 62.7295L123.312 70.8629L126.485 72.6946Z" fill="#CECDCC"/>
<path d="M123.754 63.5249V66.7564L125.952 68.0221V64.7906L125.343 64.443L124.564 63.9924L124.465 63.9358L124.151 63.7524H124.149L123.754 63.5249Z" fill="#0109C4"/>
<path d="M123.637 63.3228V63.5248V66.8243L126.069 68.2241V64.7237L123.637 63.3228ZM123.754 63.5248L124.149 63.7529L125.343 64.4429L125.952 64.7911V68.0226L123.754 66.7563V63.5248Z" fill="#E4E4E4"/>
<path d="M123.754 67.354V70.5855L125.952 71.8512V68.6197L125.343 68.2721L124.564 67.8216L124.465 67.7649L124.151 67.5821H124.149L123.754 67.354Z" fill="#0109C4"/>
<path d="M123.637 67.1514V67.3534V70.6529L126.069 72.0533V68.5523L123.637 67.1514ZM123.754 67.3534L124.149 67.5821L125.343 68.2716L125.952 68.6197V71.8512L123.754 70.585V67.3534Z" fill="#E4E4E4"/>
<path d="M123.163 66.4634L123.588 66.709V68.2628L123.46 68.3364L123.035 66.537L123.163 66.4634Z" fill="#878686"/>
<path d="M123.036 66.5371L123.461 66.7828V68.3365L123.035 68.0909L123.036 66.5371Z" fill="#E4E4E4"/>
<path d="M118.66 68.7512L122.819 71.1518V61.8801L118.66 59.4795V68.7512Z" fill="#878686"/>
<path d="M122.325 70.2986V62.1652L119.152 60.3335V68.4669L122.325 70.2986Z" fill="#CECDCC"/>
<path d="M119.594 61.1279V64.3594L121.792 65.6257V62.3942L121.183 62.046L120.404 61.5955L120.305 61.5389L119.991 61.356H119.989L119.594 61.1279Z" fill="#0109C4"/>
<path d="M119.477 60.9263V61.1278V64.4272L121.909 65.8276V62.3272L119.477 60.9263ZM119.593 61.1278L119.989 61.3565L121.183 62.0465L121.792 62.3946V65.6261L119.593 64.3593V61.1278Z" fill="#E4E4E4"/>
<path d="M119.594 64.9575V68.189L121.792 69.4547V66.2232L121.183 65.8756L120.404 65.4251L120.305 65.3679L119.991 65.1851H119.989L119.594 64.9575Z" fill="#0109C4"/>
<path d="M119.477 64.7554V64.9574V68.2563L121.909 69.6567V66.1563L119.477 64.7554ZM119.593 64.9574L119.989 65.1856L121.183 65.8756L121.792 66.2237V69.4552L119.593 68.189V64.9574Z" fill="#E4E4E4"/>
<path d="M122.092 65.7515L122.517 65.9971V67.5509L122.39 67.6245L121.965 65.8251L122.092 65.7515Z" fill="#878686"/>
<path d="M121.965 65.8252L122.39 66.0709V67.6246L121.965 67.379V65.8252Z" fill="#E4E4E4"/>
<path d="M134.694 79.8807V79.2224H133.728L132.329 78.43C132.142 78.3241 131.84 78.3241 131.654 78.43L130.254 79.2224H129.289V79.8807C129.289 79.9498 129.335 80.0188 129.428 80.0715L131.654 81.3315C131.84 81.4368 132.142 81.4368 132.329 81.3315L134.554 80.0715C134.647 80.0188 134.694 79.9498 134.694 79.8807Z" fill="#0109C4"/>
<path d="M134.555 79.4133L132.329 80.6738C132.143 80.7791 131.841 80.7791 131.654 80.6738L129.429 79.4133C129.243 79.308 129.243 79.1371 129.429 79.0318L131.654 77.7718C131.841 77.6659 132.143 77.6659 132.329 77.7718L134.555 79.0318C134.741 79.1371 134.741 79.308 134.555 79.4133Z" fill="#686868"/>
<path d="M130.574 67.3662V79.0345H130.575C130.581 79.236 130.718 79.4358 130.989 79.5898C131.543 79.9022 132.44 79.9022 132.993 79.5898C133.264 79.4358 133.402 79.236 133.407 79.0345H133.408V67.3662H130.574Z" fill="#7C7C7C"/>
<mask id="mask2_406_845" style="mask-type:luminance" maskUnits="userSpaceOnUse" x="130" y="67" width="4" height="13">
<path d="M130.574 67.3657V79.0346H130.576C130.581 79.2355 130.719 79.4359 130.99 79.5899C131.543 79.9023 132.44 79.9023 132.993 79.5899C133.264 79.4359 133.402 79.2355 133.407 79.0346H133.409V67.3657H130.574Z" fill="#123155"/>
</mask>
<g mask="url(#mask2_406_845)">
<path d="M132.621 68.859V79.7716L132.992 79.6613L133.41 79.3177V67.4648L132.872 67.5826L132.621 68.859Z" fill="#0109C4"/>
</g>
<mask id="mask3_406_845" style="mask-type:luminance" maskUnits="userSpaceOnUse" x="129" y="78" width="6" height="4">
<path d="M131.654 78.4298L130.254 79.2229H129.289V79.8806C129.289 79.9502 129.335 80.0193 129.428 80.0719L131.654 81.3319C131.84 81.4372 132.142 81.4372 132.329 81.3319L134.554 80.0719C134.647 80.0193 134.693 79.9502 134.693 79.8806V79.2229H133.728L132.329 78.4298C132.235 78.3772 132.114 78.3506 131.991 78.3506C131.869 78.3506 131.747 78.3772 131.654 78.4298Z" fill="#123155"/>
</mask>
<g mask="url(#mask3_406_845)">
<path d="M131.918 80.754V81.4067L132.331 81.4933L134.694 80.0063L134.761 79.1963C134.761 79.1963 132.502 80.6046 132.33 80.6736C132.157 80.7421 131.918 80.754 131.918 80.754Z" fill="#0109C4"/>
</g>
<path d="M129.287 76.9902V76.3324H128.322L126.922 75.5394C126.736 75.4341 126.434 75.4341 126.248 75.5394L124.847 76.3324H123.883V76.9902C123.883 77.0592 123.929 77.1283 124.022 77.1815L126.248 78.4409C126.434 78.5468 126.736 78.5468 126.922 78.4409L129.148 77.1815C129.241 77.1283 129.287 77.0592 129.287 76.9902Z" fill="#0109C4"/>
<path d="M129.149 76.5231L126.922 77.7831C126.737 77.8884 126.434 77.8884 126.248 77.7831L124.022 76.5231C123.836 76.4173 123.836 76.2469 124.022 76.1411L126.248 74.8816C126.434 74.7758 126.737 74.7758 126.922 74.8816L129.149 76.1411C129.335 76.2469 129.335 76.4173 129.149 76.5231Z" fill="#686868"/>
<path d="M125.168 64.4761V76.1438H125.169C125.175 76.3453 125.312 76.5457 125.583 76.6991C126.136 77.0121 127.034 77.0121 127.587 76.6991C127.858 76.5457 127.995 76.3453 128.001 76.1438H128.002V64.4761H125.168Z" fill="#7C7C7C"/>
<mask id="mask4_406_845" style="mask-type:luminance" maskUnits="userSpaceOnUse" x="125" y="64" width="4" height="13">
<path d="M125.172 64.4761V76.1438H125.173C125.179 76.3448 125.316 76.5457 125.587 76.6991C126.14 77.0121 127.038 77.0121 127.591 76.6991C127.862 76.5457 127.999 76.3448 128.005 76.1438H128.006V64.4761H125.172Z" fill="#123155"/>
</mask>
<g mask="url(#mask4_406_845)">
<path d="M127.219 65.9689V76.8816L127.59 76.7712L128.008 76.4276V64.5742L127.47 64.6925L127.219 65.9689Z" fill="#0109C4"/>
</g>
<mask id="mask5_406_845" style="mask-type:luminance" maskUnits="userSpaceOnUse" x="123" y="75" width="7" height="4">
<path d="M126.252 75.5402L124.851 76.3326H123.887V76.9909C123.887 77.0594 123.933 77.1291 124.026 77.1817L126.252 78.4417C126.437 78.547 126.74 78.547 126.926 78.4417L129.152 77.1817C129.244 77.1291 129.291 77.0594 129.291 76.9909V76.3326H128.326L126.926 75.5402C126.833 75.487 126.711 75.4609 126.589 75.4609C126.467 75.4609 126.344 75.487 126.252 75.5402Z" fill="#123155"/>
</mask>
<g mask="url(#mask5_406_845)">
<path d="M126.516 77.8639V78.5165L126.928 78.6031L129.292 77.1156L129.359 76.3062C129.359 76.3062 127.099 77.7145 126.927 77.7829C126.755 77.852 126.516 77.8639 126.516 77.8639Z" fill="#0109C4"/>
</g>
<path d="M112.377 67.2631V66.6048H111.413L110.012 65.8124C109.826 65.7071 109.524 65.7071 109.338 65.8124L107.937 66.6048H106.973V67.2631C106.973 67.3322 107.019 67.4012 107.112 67.4544L109.338 68.7139C109.524 68.8197 109.826 68.8197 110.012 68.7139L112.238 67.4544C112.331 67.4012 112.377 67.3322 112.377 67.2631Z" fill="#0109C4"/>
<path d="M112.238 66.7961L110.013 68.0561C109.826 68.1614 109.524 68.1614 109.338 68.0561L107.112 66.7961C106.926 66.6902 106.926 66.5199 107.112 66.414L109.338 65.1546C109.524 65.0487 109.826 65.0487 110.013 65.1546L112.238 66.414C112.425 66.5199 112.425 66.6902 112.238 66.7961Z" fill="#686868"/>
<path d="M108.258 54.7485V66.4168H108.259C108.265 66.6183 108.402 66.8182 108.673 66.9721C109.226 67.2851 110.123 67.2851 110.676 66.9721C110.948 66.8182 111.085 66.6183 111.091 66.4168H111.092V54.7485H108.258Z" fill="#7C7C7C"/>
<mask id="mask6_406_845" style="mask-type:luminance" maskUnits="userSpaceOnUse" x="108" y="54" width="4" height="14">
<path d="M108.258 54.749V66.4168H108.259C108.264 66.6183 108.402 66.8181 108.673 66.972C109.226 67.2856 110.123 67.2856 110.676 66.972C110.948 66.8181 111.085 66.6183 111.091 66.4168H111.092V54.749H108.258Z" fill="#123155"/>
</mask>
<g mask="url(#mask6_406_845)">
<path d="M110.305 56.2424V67.155L110.676 67.0446L111.094 66.7011V54.8477L110.556 54.966L110.305 56.2424Z" fill="#0109C4"/>
</g>
<mask id="mask7_406_845" style="mask-type:luminance" maskUnits="userSpaceOnUse" x="106" y="65" width="7" height="4">
<path d="M109.338 65.8126L107.938 66.6045H106.973V67.2634C106.973 67.3325 107.019 67.4015 107.112 67.4547L109.338 68.7142C109.524 68.82 109.826 68.82 110.012 68.7142L112.238 67.4547C112.331 67.4015 112.377 67.3325 112.377 67.2634V66.6045H111.413L110.012 65.8126C109.919 65.76 109.797 65.7334 109.675 65.7334C109.553 65.7334 109.431 65.76 109.338 65.8126Z" fill="#123155"/>
</mask>
<g mask="url(#mask7_406_845)">
<path d="M109.602 68.1368V68.7895L110.014 68.8761L112.378 67.3885L112.445 66.5791C112.445 66.5791 110.185 67.9874 110.014 68.0559C109.841 68.125 109.602 68.1368 109.602 68.1368Z" fill="#0109C4"/>
</g>
<path d="M139.811 77.0311V76.3728H138.846L137.446 75.5804C137.26 75.4745 136.958 75.4745 136.772 75.5804L135.371 76.3728H134.406V77.0311C134.406 77.1002 134.453 77.1692 134.546 77.2219L136.772 78.4819C136.958 78.5872 137.26 78.5872 137.446 78.4819L139.672 77.2219C139.765 77.1692 139.811 77.1002 139.811 77.0311Z" fill="#0109C4"/>
<path d="M139.671 76.5637L137.446 77.8242C137.26 77.9295 136.958 77.9295 136.772 77.8242L134.546 76.5637C134.36 76.4584 134.36 76.2874 134.546 76.1822L136.772 74.9222C136.958 74.8163 137.26 74.8163 137.446 74.9222L139.671 76.1822C139.858 76.2874 139.858 76.4584 139.671 76.5637Z" fill="#686868"/>
<path d="M135.691 64.5166V76.1849H135.693C135.698 76.3864 135.835 76.5862 136.106 76.7402C136.66 77.0526 137.557 77.0526 138.11 76.7402C138.381 76.5862 138.519 76.3864 138.524 76.1849H138.525V64.5166H135.691Z" fill="#7C7C7C"/>
<mask id="mask8_406_845" style="mask-type:luminance" maskUnits="userSpaceOnUse" x="135" y="64" width="4" height="13">
<path d="M135.695 64.5166V76.1855H135.696C135.702 76.3864 135.839 76.5862 136.111 76.7402C136.664 77.0526 137.561 77.0526 138.114 76.7402C138.385 76.5862 138.523 76.3864 138.528 76.1855H138.529V64.5166H135.695Z" fill="#123155"/>
</mask>
<g mask="url(#mask8_406_845)">
<path d="M137.742 66.0104V76.9231L138.113 76.8121L138.531 76.4686V64.6157L137.994 64.7335L137.742 66.0104Z" fill="#0109C4"/>
</g>
<mask id="mask9_406_845" style="mask-type:luminance" maskUnits="userSpaceOnUse" x="134" y="75" width="6" height="4">
<path d="M136.771 75.5802L135.371 76.3732H134.406V77.0315C134.406 77.1006 134.452 77.1697 134.546 77.2217L136.771 78.4817C136.958 78.587 137.259 78.587 137.446 78.4817L139.672 77.2217C139.765 77.1697 139.811 77.1006 139.811 77.0315V76.3732H138.846L137.446 75.5802C137.352 75.5276 137.231 75.501 137.109 75.501C136.987 75.501 136.865 75.5276 136.771 75.5802Z" fill="#123155"/>
</mask>
<g mask="url(#mask9_406_845)">
<path d="M137.035 77.9043V78.557L137.448 78.6436L139.812 77.1566L139.878 76.3472C139.878 76.3472 137.619 77.7549 137.447 77.824C137.274 77.8925 137.035 77.9043 137.035 77.9043Z" fill="#0109C4"/>
</g>
<path d="M144.722 74.1923V73.5346H143.756L142.356 72.7416C142.17 72.6363 141.868 72.6363 141.682 72.7416L140.282 73.5346H139.316V74.1923C139.316 74.2614 139.363 74.3304 139.456 74.3836L141.682 75.6431C141.868 75.7489 142.17 75.7489 142.356 75.6431L144.582 74.3836C144.675 74.3304 144.722 74.2614 144.722 74.1923Z" fill="#0109C4"/>
<path d="M144.582 73.7253L142.356 74.9853C142.17 75.0906 141.868 75.0906 141.682 74.9853L139.456 73.7253C139.27 73.6194 139.27 73.4491 139.456 73.3432L141.682 72.0838C141.868 71.9779 142.17 71.9779 142.356 72.0838L144.582 73.3432C144.768 73.4491 144.768 73.6194 144.582 73.7253Z" fill="#686868"/>
<path d="M140.602 61.6782V73.346H140.603C140.608 73.5475 140.745 73.7478 141.016 73.9012C141.57 74.2143 142.467 74.2143 143.02 73.9012C143.291 73.7478 143.429 73.5475 143.434 73.346H143.435V61.6782H140.602Z" fill="#7C7C7C"/>
<mask id="mask10_406_845" style="mask-type:luminance" maskUnits="userSpaceOnUse" x="140" y="61" width="4" height="14">
<path d="M140.602 61.6777V73.346H140.602C140.607 73.5475 140.745 73.7479 141.016 73.9008C141.57 74.2143 142.467 74.2143 143.02 73.9008C143.291 73.7479 143.429 73.5475 143.434 73.346H143.435V61.6777H140.602Z" fill="#123155"/>
</mask>
<g mask="url(#mask10_406_845)">
<path d="M142.645 63.1711V74.0837L143.015 73.9733L143.433 73.6298V61.7764L142.896 61.8947L142.645 63.1711Z" fill="#0109C4"/>
</g>
<mask id="mask11_406_845" style="mask-type:luminance" maskUnits="userSpaceOnUse" x="139" y="72" width="6" height="4">
<path d="M141.682 72.7418L140.282 73.5343H139.316V74.192C139.316 74.2611 139.363 74.3301 139.456 74.3834L141.682 75.6428C141.868 75.7486 142.17 75.7486 142.356 75.6428L144.582 74.3834C144.675 74.3301 144.722 74.2611 144.722 74.192V73.5343H143.756L142.356 72.7418C142.263 72.6892 142.141 72.6626 142.019 72.6626C141.896 72.6626 141.775 72.6892 141.682 72.7418Z" fill="#123155"/>
</mask>
<g mask="url(#mask11_406_845)">
<path d="M141.945 75.0655V75.7182L142.358 75.8048L144.722 74.3172L144.789 73.5078C144.789 73.5078 142.529 74.9161 142.357 74.9846C142.184 75.0537 141.945 75.0655 141.945 75.0655Z" fill="#0109C4"/>
</g>
<path d="M149.628 71.5287V70.8704H148.663L147.262 70.078C147.076 69.9727 146.774 69.9727 146.588 70.078L145.188 70.8704H144.223V71.5287C144.223 71.5978 144.27 71.6669 144.362 71.7201L146.588 72.9795C146.774 73.0853 147.076 73.0853 147.262 72.9795L149.488 71.7201C149.581 71.6669 149.628 71.5978 149.628 71.5287Z" fill="#0109C4"/>
<path d="M149.488 71.0617L147.262 72.3217C147.076 72.427 146.774 72.427 146.588 72.3217L144.362 71.0617C144.176 70.9559 144.176 70.7855 144.362 70.6796L146.588 69.4202C146.774 69.3144 147.076 69.3144 147.262 69.4202L149.488 70.6796C149.674 70.7855 149.674 70.9559 149.488 71.0617Z" fill="#686868"/>
<path d="M145.508 59.0142V70.6825H145.509C145.515 70.884 145.652 71.0838 145.923 71.2377C146.476 71.5508 147.373 71.5508 147.926 71.2377C148.198 71.0838 148.335 70.884 148.34 70.6825H148.341V59.0142H145.508Z" fill="#7C7C7C"/>
<mask id="mask12_406_845" style="mask-type:luminance" maskUnits="userSpaceOnUse" x="145" y="59" width="4" height="13">
<path d="M145.512 59.0142V70.683H145.513C145.519 70.884 145.655 71.0843 145.927 71.2377C146.48 71.5513 147.377 71.5513 147.93 71.2377C148.202 71.0843 148.339 70.884 148.344 70.683H148.345V59.0142H145.512Z" fill="#123155"/>
</mask>
<g mask="url(#mask12_406_845)">
<path d="M147.559 60.508V71.4206L147.929 71.3103L148.347 70.9667V59.1133L147.81 59.2316L147.559 60.508Z" fill="#0109C4"/>
</g>
<mask id="mask13_406_845" style="mask-type:luminance" maskUnits="userSpaceOnUse" x="144" y="69" width="6" height="5">
<path d="M146.591 70.0782L145.192 70.8706H144.227V71.5289C144.227 71.598 144.273 71.6671 144.366 71.7203L146.591 72.9797C146.778 73.0855 147.079 73.0855 147.266 72.9797L149.491 71.7203C149.585 71.6671 149.632 71.598 149.632 71.5289V70.8706H148.666L147.266 70.0782C147.173 70.0255 147.051 69.9995 146.929 69.9995C146.807 69.9995 146.685 70.0255 146.591 70.0782Z" fill="#123155"/>
</mask>
<g mask="url(#mask13_406_845)">
<path d="M146.855 72.4025V73.0551L147.268 73.1417L149.632 71.6542L149.699 70.8447C149.699 70.8447 147.439 72.253 147.267 72.3215C147.095 72.3906 146.855 72.4025 146.855 72.4025Z" fill="#0109C4"/>
</g>
<path d="M117.495 70.2259V69.5676H116.53L115.129 68.7752C114.943 68.6693 114.642 68.6693 114.455 68.7752L113.055 69.5676H112.09V70.2259C112.09 70.295 112.136 70.3641 112.23 70.4167L114.455 71.6767C114.642 71.782 114.943 71.782 115.129 71.6767L117.355 70.4167C117.449 70.3641 117.495 70.295 117.495 70.2259Z" fill="#0109C4"/>
<path d="M117.355 69.7585L115.129 71.0191C114.943 71.1243 114.641 71.1243 114.455 71.0191L112.23 69.7585C112.043 69.6532 112.043 69.4823 112.23 69.377L114.455 68.117C114.641 68.0111 114.943 68.0111 115.129 68.117L117.355 69.377C117.541 69.4823 117.541 69.6532 117.355 69.7585Z" fill="#686868"/>
<path d="M113.375 57.7114V69.3797H113.376C113.381 69.5812 113.519 69.781 113.79 69.935C114.343 70.2475 115.241 70.2475 115.794 69.935C116.065 69.781 116.202 69.5812 116.207 69.3797H116.209V57.7114H113.375Z" fill="#7C7C7C"/>
<mask id="mask14_406_845" style="mask-type:luminance" maskUnits="userSpaceOnUse" x="113" y="57" width="4" height="14">
<path d="M113.375 57.7114V69.3797H113.376C113.381 69.5807 113.519 69.781 113.79 69.935C114.343 70.2475 115.241 70.2475 115.794 69.935C116.065 69.781 116.202 69.5807 116.207 69.3797H116.209V57.7114H113.375Z" fill="#123155"/>
</mask>
<g mask="url(#mask14_406_845)">
<path d="M115.422 59.2048V70.1174L115.793 70.0065L116.21 69.6629V57.8101L115.673 57.9278L115.422 59.2048Z" fill="#0109C4"/>
</g>
<mask id="mask15_406_845" style="mask-type:luminance" maskUnits="userSpaceOnUse" x="112" y="68" width="6" height="4">
<path d="M114.455 68.7745L113.055 69.5675H112.09V70.2258C112.09 70.2949 112.136 70.3639 112.23 70.4166L114.455 71.6766C114.642 71.7818 114.943 71.7818 115.13 71.6766L117.355 70.4166C117.449 70.3639 117.495 70.2949 117.495 70.2258V69.5675H116.53L115.13 68.7745C115.037 68.7218 114.914 68.6958 114.793 68.6958C114.67 68.6958 114.548 68.7218 114.455 68.7745Z" fill="#123155"/>
</mask>
<g mask="url(#mask15_406_845)">
<path d="M114.719 71.0987V71.7513L115.131 71.8379L117.495 70.3509L117.562 69.5415C117.562 69.5415 115.302 70.9492 115.13 71.0183C114.958 71.0868 114.719 71.0987 114.719 71.0987Z" fill="#0109C4"/>
</g>
<path d="M134.142 68.3214L106.035 52.0942V53.9893L134.142 70.2165V68.3214Z" fill="#0109C4"/>
<path d="M152.094 57.8975L134.141 68.321V70.2161L152.094 59.7926V57.8975Z" fill="#0109C4"/>
<path d="M152.095 57.8976L134.142 68.3212L106.035 52.094L123.989 41.6704L152.095 57.8976Z" fill="#CECDCC"/>
<path d="M138.043 38.02L120.09 48.4447L106.035 49.5519L123.988 39.1272L138.043 38.02Z" fill="#CECDCC"/>
<path d="M120.09 48.4443L106.035 49.5521V51.4421L134.141 67.6698V65.7741L120.09 48.4443Z" fill="#0109C4"/>
<path d="M152.092 55.3544L138.043 38.02L120.09 48.4447L134.14 65.774L134.141 65.7762V67.6713L152.094 57.2483V55.3527L152.092 55.3544Z" fill="#0109C4"/>
</g>
<path d="M101.632 116.574C102.304 116.694 102.874 117.048 103.342 117.636C103.81 118.224 104.044 118.89 104.044 119.634C104.044 120.27 103.876 120.846 103.54 121.362C103.216 121.866 102.742 122.268 102.118 122.568C101.494 122.856 100.768 123 99.9399 123H94.9359V110.49H99.7059C100.558 110.49 101.29 110.634 101.902 110.922C102.514 111.21 102.976 111.6 103.288 112.092C103.6 112.572 103.756 113.112 103.756 113.712C103.756 114.432 103.564 115.032 103.18 115.512C102.796 115.992 102.28 116.346 101.632 116.574ZM96.9879 115.746H99.5259C100.198 115.746 100.72 115.596 101.092 115.296C101.476 114.984 101.668 114.54 101.668 113.964C101.668 113.4 101.476 112.962 101.092 112.65C100.72 112.326 100.198 112.164 99.5259 112.164H96.9879V115.746ZM99.7599 121.326C100.456 121.326 101.002 121.158 101.398 120.822C101.794 120.486 101.992 120.018 101.992 119.418C101.992 118.806 101.782 118.32 101.362 117.96C100.942 117.6 100.384 117.42 99.6879 117.42H96.9879V121.326H99.7599ZM105.59 117.996C105.59 117 105.794 116.118 106.202 115.35C106.622 114.582 107.186 113.988 107.894 113.568C108.614 113.136 109.406 112.92 110.27 112.92C111.05 112.92 111.728 113.076 112.304 113.388C112.892 113.688 113.36 114.066 113.708 114.522V113.082H115.778V123H113.708V121.524C113.36 121.992 112.886 122.382 112.286 122.694C111.686 123.006 111.002 123.162 110.234 123.162C109.382 123.162 108.602 122.946 107.894 122.514C107.186 122.07 106.622 121.458 106.202 120.678C105.794 119.886 105.59 118.992 105.59 117.996ZM113.708 118.032C113.708 117.348 113.564 116.754 113.276 116.25C113 115.746 112.634 115.362 112.178 115.098C111.722 114.834 111.23 114.702 110.702 114.702C110.174 114.702 109.682 114.834 109.226 115.098C108.77 115.35 108.398 115.728 108.11 116.232C107.834 116.724 107.696 117.312 107.696 117.996C107.696 118.68 107.834 119.28 108.11 119.796C108.398 120.312 108.77 120.708 109.226 120.984C109.694 121.248 110.186 121.38 110.702 121.38C111.23 121.38 111.722 121.248 112.178 120.984C112.634 120.72 113 120.336 113.276 119.832C113.564 119.316 113.708 118.716 113.708 118.032ZM123.477 112.92C124.257 112.92 124.953 113.082 125.565 113.406C126.189 113.73 126.675 114.21 127.023 114.846C127.371 115.482 127.545 116.25 127.545 117.15V123H125.511V117.456C125.511 116.568 125.289 115.89 124.845 115.422C124.401 114.942 123.795 114.702 123.027 114.702C122.259 114.702 121.647 114.942 121.191 115.422C120.747 115.89 120.525 116.568 120.525 117.456V123H118.473V113.082H120.525V114.216C120.861 113.808 121.287 113.49 121.803 113.262C122.331 113.034 122.889 112.92 123.477 112.92ZM134.087 118.05L138.659 123H135.887L132.215 118.734V123H130.163V109.68H132.215V117.42L135.815 113.082H138.659L134.087 118.05ZM141.173 111.768C140.801 111.768 140.489 111.642 140.237 111.39C139.985 111.138 139.859 110.826 139.859 110.454C139.859 110.082 139.985 109.77 140.237 109.518C140.489 109.266 140.801 109.14 141.173 109.14C141.533 109.14 141.839 109.266 142.091 109.518C142.343 109.77 142.469 110.082 142.469 110.454C142.469 110.826 142.343 111.138 142.091 111.39C141.839 111.642 141.533 111.768 141.173 111.768ZM142.181 113.082V123H140.129V113.082H142.181ZM149.879 112.92C150.659 112.92 151.355 113.082 151.967 113.406C152.591 113.73 153.077 114.21 153.425 114.846C153.773 115.482 153.947 116.25 153.947 117.15V123H151.913V117.456C151.913 116.568 151.691 115.89 151.247 115.422C150.803 114.942 150.197 114.702 149.429 114.702C148.661 114.702 148.049 114.942 147.593 115.422C147.149 115.89 146.927 116.568 146.927 117.456V123H144.875V113.082H146.927V114.216C147.263 113.808 147.689 113.49 148.205 113.262C148.733 113.034 149.291 112.92 149.879 112.92ZM160.561 112.92C161.329 112.92 162.007 113.076 162.595 113.388C163.195 113.688 163.663 114.066 163.999 114.522V113.082H166.069V123.162C166.069 124.074 165.877 124.884 165.493 125.592C165.109 126.312 164.551 126.876 163.819 127.284C163.099 127.692 162.235 127.896 161.227 127.896C159.883 127.896 158.767 127.578 157.879 126.942C156.991 126.318 156.487 125.466 156.367 124.386H158.401C158.557 124.902 158.887 125.316 159.391 125.628C159.907 125.952 160.519 126.114 161.227 126.114C162.055 126.114 162.721 125.862 163.225 125.358C163.741 124.854 163.999 124.122 163.999 123.162V121.506C163.651 121.974 163.177 122.37 162.577 122.694C161.989 123.006 161.317 123.162 160.561 123.162C159.697 123.162 158.905 122.946 158.185 122.514C157.477 122.07 156.913 121.458 156.493 120.678C156.085 119.886 155.881 118.992 155.881 117.996C155.881 117 156.085 116.118 156.493 115.35C156.913 114.582 157.477 113.988 158.185 113.568C158.905 113.136 159.697 112.92 160.561 112.92ZM163.999 118.032C163.999 117.348 163.855 116.754 163.567 116.25C163.291 115.746 162.925 115.362 162.469 115.098C162.013 114.834 161.521 114.702 160.993 114.702C160.465 114.702 159.973 114.834 159.517 115.098C159.061 115.35 158.689 115.728 158.401 116.232C158.125 116.724 157.987 117.312 157.987 117.996C157.987 118.68 158.125 119.28 158.401 119.796C158.689 120.312 159.061 120.708 159.517 120.984C159.985 121.248 160.477 121.38 160.993 121.38C161.521 121.38 162.013 121.248 162.469 120.984C162.925 120.72 163.291 120.336 163.567 119.832C163.855 119.316 163.999 118.716 163.999 118.032Z" fill="black"/>
<defs>
<filter id="filter0_d_406_845" x="0" y="4" width="276" height="157" filterUnits="userSpaceOnUse" color-interpolation-filters="sRGB">
<feFlood flood-opacity="0" result="BackgroundImageFix"/>
<feColorMatrix in="SourceAlpha" type="matrix" values="0 0 0 0 0 0 0 0 0 0 0 0 0 0 0 0 0 0 127 0" result="hardAlpha"/>
<feOffset dy="4"/>
<feGaussianBlur stdDeviation="2"/>
<feComposite in2="hardAlpha" operator="out"/>
<feColorMatrix type="matrix" values="0 0 0 0 0 0 0 0 0 0 0 0 0 0 0 0 0 0 0.25 0"/>
<feBlend mode="normal" in2="BackgroundImageFix" result="effect1_dropShadow_406_845"/>
<feBlend mode="normal" in="SourceGraphic" in2="effect1_dropShadow_406_845" result="shape"/>
</filter>
<clipPath id="clip0_406_845">
<rect width="90" height="90" fill="white" transform="translate(82.9141 15.2314)"/>
</clipPath>
</defs>
</svg>
