<svg width="75" height="78" viewBox="0 0 75 78" fill="none" xmlns="http://www.w3.org/2000/svg">
<g clip-path="url(#clip0_406_688)">
<path d="M74.5782 0.275879H0.597656V77.3448H74.5782V0.275879Z" fill="white"/>
<path d="M44.2344 66.4993L64.9247 54.0544C66.0568 53.3738 66.5807 52.4519 66.5356 51.4937" fill="#BFC3C7"/>
<path d="M66.5355 51.494H66.5434V47.3313L59.1141 45.3294L42.6411 35.4219C39.8685 33.754 35.6735 33.5723 33.2717 35.0177L16.399 45.1651L8.52306 47.1083V51.2177C8.51747 51.3093 8.51933 51.4023 8.52306 51.494V51.5579H8.52631C8.60448 52.6122 9.37174 53.7052 10.8081 54.5685L32.4174 67.566C35.1914 69.2339 39.386 69.4156 41.7878 67.9712L44.2343 66.4996" fill="#BFC3C7"/>
<path d="M64.9228 49.6687L41.7859 63.5853C39.3841 65.0292 35.1896 64.8475 32.4155 63.18L10.8062 50.1835C8.03216 48.5146 7.73159 45.9922 10.1334 44.5473L33.2698 30.6317C35.6716 29.1868 39.8661 29.3681 42.6393 31.036L64.2495 44.0335C67.024 45.7009 67.3246 48.2248 64.9228 49.6687Z" fill="#E9E8E7"/>
<path d="M23.1055 17.794L26.0945 15.9851C27.0074 15.432 28.0808 15.3666 29.2221 15.75C29.8973 15.9769 30.5384 16.2827 31.1452 16.6482C35.4974 19.2656 38.0882 24.9125 38.5032 25.9343L35.5147 27.7432C35.0996 26.7214 32.5089 21.0755 28.1562 18.4571C27.5494 18.0921 26.9083 17.7858 26.2336 17.5599C25.0922 17.1765 24.0184 17.2415 23.1055 17.794Z" fill="#123155"/>
<path d="M53.4372 39.2666C52.6481 32.7341 49.5028 28.0916 46.2262 25.7989C45.9261 25.5885 45.6367 25.4009 45.358 25.2327C42.657 23.6085 40.9369 23.8838 39.8718 24.5285L36.8828 26.3379C37.9479 25.6932 39.668 25.4179 42.369 27.0422C42.6482 27.2099 42.9376 27.3984 43.2377 27.6078C46.5142 29.9015 49.6591 34.5435 50.4482 41.0755C51.0382 45.956 49.1282 48.6913 46.4021 50.3422L49.3911 48.5323C52.1172 46.8823 54.0272 44.1466 53.4372 39.2666Z" fill="#123155"/>
<path d="M50.8562 40.8648C52.2088 52.0549 40.418 51.9691 35.7833 53.3791C31.1686 46.4065 19.4201 32.3339 20.8271 22.8036C21.5199 18.1014 23.8547 16.4708 26.5729 17.384C27.2476 17.6099 27.8888 17.9162 28.4955 18.2817C32.8478 20.8996 35.439 26.5455 35.8535 27.5673C36.3025 27.006 38.0171 23.9688 42.777 26.8315C43.0557 26.9992 43.3451 27.1868 43.6452 27.3972C46.9218 29.6903 50.0671 34.3324 50.8562 40.8648Z" fill="#0109C4"/>
<path d="M32.6421 26.1689L35.5474 43.9801L38.6425 34.9693L39.9285 41.8445L40.9652 38.8456L41.8604 42.1295L42.3722 41.6719L54.8991 48.9688C55.0708 49.072 55.2113 49.3236 55.2104 49.5315C55.2099 49.7351 55.0685 49.8209 54.8968 49.7176L42.7649 42.5168L41.6701 43.491L41.0024 41.0433L39.8383 44.4154L38.5531 37.547L35.4129 46.6882L32.5305 29.0253L29.8076 37.7971L28.8668 34.1575L17.0764 27.1122C16.9038 27.0085 16.7647 26.7545 16.7656 26.5509C16.7661 26.3425 16.9057 26.2596 17.0788 26.3638L29.086 33.5395L29.7611 35.4444L32.6421 26.1689Z" fill="#CECDCC"/>
</g>
<defs>
<clipPath id="clip0_406_688">
<rect width="73.9806" height="77.069" fill="white" transform="translate(0.597656 0.275879)"/>
</clipPath>
</defs>
</svg>
