<svg width="90" height="90" viewBox="0 0 90 90" fill="none" xmlns="http://www.w3.org/2000/svg">
<g clip-path="url(#clip0_406_708)">
<path d="M90 0H0V90H90V0Z" fill="white"/>
<path d="M80.2106 59.8101V55.0001L71.2106 52.6601L51.1406 41.0001C47.7706 39.0501 42.6606 38.8401 39.7406 40.5301L19.2206 52.4201L9.64062 54.6901V59.4901C9.64062 59.6001 9.64062 59.7101 9.64062 59.8101V59.8801C9.74063 61.1101 10.6406 62.3901 12.4206 63.4001L38.7106 78.5801C42.0806 80.5301 47.1906 80.7401 50.1106 79.0501L78.2506 62.8001C78.8376 62.5458 79.3386 62.1274 79.6934 61.5952C80.0482 61.063 80.2417 60.4397 80.2506 59.8001" fill="#BFC3C7"/>
<path d="M78.25 57.68L50.11 73.93C47.19 75.62 42.11 75.4 38.71 73.46L12.42 58.28C8.99999 56.33 8.67999 53.39 11.6 51.7L39.75 35.45C42.67 33.76 47.75 33.97 51.15 35.92L77.43 51.1C80.8 53.05 81.17 55.99 78.25 57.68Z" fill="#E9E8E7"/>
<path d="M46.1094 56.5199C45.8442 56.5199 45.5898 56.4146 45.4023 56.2271C45.2147 56.0395 45.1094 55.7852 45.1094 55.5199V39.6899H44.1094V55.4899C44.1094 56.0204 44.3201 56.5291 44.6952 56.9042C45.0702 57.2792 45.5789 57.4899 46.1094 57.4899C46.6398 57.4899 47.1485 57.2792 47.5236 56.9042C47.8987 56.5291 48.1094 56.0204 48.1094 55.4899H47.1094C47.1134 55.6238 47.0905 55.757 47.042 55.8818C46.9936 56.0067 46.9206 56.1205 46.8273 56.2165C46.734 56.3126 46.6224 56.3889 46.4991 56.4411C46.3758 56.4932 46.2433 56.52 46.1094 56.5199Z" fill="#123155"/>
<path d="M44.0016 16.9999L44.4316 17.2799C39.9027 25.7195 36.5963 34.7599 34.6116 44.1299C29.9698 40.6329 24.9841 37.6173 19.7316 35.1299C26.8016 27.7299 34.9416 21.2199 44.0016 16.9999ZM49.5616 15.1699L44.7916 16.3799C49.4207 15.9515 54.0882 16.2348 58.6316 17.2199L69.2816 25.0099C62.8316 21.2399 54.6716 18.6299 46.5516 17.0099C55.3504 21.0551 63.2028 26.9009 69.6016 34.1699C64.5689 36.657 59.9101 39.838 55.7616 43.6199C53.4616 33.8999 50.1816 24.7999 45.0016 16.9999V16.7399L44.0016 16.5699C33.2916 18.4299 26.3516 21.8999 19.6016 25.4999L27.7516 18.4999C33.0309 16.9848 38.511 16.2867 44.0016 16.4299C44.1346 16.442 44.2685 16.442 44.4016 16.4299H44.5216C42.4904 15.8574 40.3998 15.5219 38.2916 15.4299L49.5616 15.1699Z" fill="#CECDCC"/>
<path d="M45.0016 16.9999C50.3351 25.0576 53.9786 34.1136 55.7116 43.6199C48.6634 43.1196 41.5833 43.3072 34.5716 44.1799C36.4497 34.7796 39.7618 25.7239 44.3916 17.3299L45.0016 16.9999ZM44.0016 16.5999V16.9999C34.931 21.6113 26.7132 27.7358 19.7016 35.1099C20.1575 31.8833 20.1238 28.6064 19.6016 25.3899C27.1476 21.0425 35.4115 18.0824 44.0016 16.6499V16.5999ZM45.0016 16.5999C53.8316 18.2199 62.2516 20.3099 69.3016 24.9499C68.3016 27.5099 68.7216 30.7299 69.6016 34.1199C62.7264 26.6257 54.3426 20.6718 45.0016 16.6499V16.5999ZM38.3116 15.3899C40.3816 15.4799 42.3116 15.9399 44.3816 16.0199C44.3816 16.0799 44.3116 16.1199 44.3116 16.1499V16.2599C44.3003 16.3087 44.2761 16.3536 44.2416 16.3899C38.8216 17.1799 33.2416 17.7299 27.8016 18.5199L38.3116 15.3899ZM49.5816 15.1699L58.6416 17.1699L53.8216 16.9999L49.1316 16.7399L44.3616 16.4399C46.0314 15.831 47.7664 15.4182 49.5316 15.2099L49.5816 15.1699Z" fill="#0109C4"/>
<path d="M44.4705 14C44.6004 14 44.7251 14.0516 44.817 14.1435C44.9088 14.2354 44.9605 14.36 44.9605 14.49V17C44.8119 17.1465 44.618 17.2382 44.4105 17.26C44.1405 17.26 43.9805 17.11 43.9805 16.98V14.49C43.9805 14.36 44.0321 14.2354 44.124 14.1435C44.2159 14.0516 44.3405 14 44.4705 14Z" fill="#123155"/>
</g>
<defs>
<clipPath id="clip0_406_708">
<rect width="90" height="90" fill="white"/>
</clipPath>
</defs>
</svg>
