<svg width="90" height="90" viewBox="0 0 90 90" fill="none" xmlns="http://www.w3.org/2000/svg">
<path d="M90 0H0V90H90V0Z" fill="white"/>
<path d="M80.2107 59.8118H80.2209V54.9507L71.1824 52.6129L51.1429 41.0431C47.7699 39.0954 42.6665 38.8831 39.7446 40.571L19.2184 52.421L9.6371 54.6903V59.4891C9.63031 59.5961 9.63257 59.7048 9.6371 59.8118V59.8865H9.6405C9.73559 61.1176 10.6696 62.3941 12.4163 63.4022L38.7048 78.5805C42.0796 80.5282 47.1824 80.7405 50.1048 79.0537L78.2511 62.8022C79.6294 62.0075 80.2667 60.9308 80.2107 59.8118Z" fill="#BFC3C7"/>
<path d="M78.251 57.6808L50.1048 73.9324C47.1829 75.6186 42.08 75.4063 38.7048 73.4591L12.4168 58.282C9.04155 56.3331 8.67589 53.3874 11.5978 51.7001L39.7446 35.4497C42.6665 33.7624 47.7693 33.9741 51.1429 35.9218L77.4325 51.1001C80.8072 53.0473 81.1729 55.9946 78.251 57.6808Z" fill="#E9E8E7"/>
<path d="M64.6069 49.2676L64.9041 49.4403C64.8633 49.4165 64.8288 49.3814 64.8016 49.3367L64.5039 49.1641C64.5311 49.2088 64.5662 49.2439 64.6069 49.2676Z" fill="#143F63"/>
<mask id="mask0_406_2764" style="mask-type:luminance" maskUnits="userSpaceOnUse" x="64" y="49" width="1" height="1">
<path d="M64.6064 49.2676L64.9041 49.4403C64.8628 49.4165 64.8282 49.3814 64.8011 49.3367L64.5039 49.1641C64.5305 49.2088 64.5656 49.2439 64.6064 49.2676Z" fill="#143F63"/>
</mask>
<g mask="url(#mask0_406_2764)">
<path d="M64.8011 49.3367L64.5039 49.1641C64.5305 49.2088 64.5656 49.2439 64.6064 49.2676L64.9041 49.4403C64.8628 49.4165 64.8282 49.3814 64.8011 49.3367Z" fill="#143F63"/>
</g>
<path d="M63.9612 50.2513L63.6641 50.0781L63.792 50.1993L64.0897 50.3725L63.9612 50.2513Z" fill="#06618C"/>
<path d="M66.4467 47.2918C66.3437 47.2318 66.201 47.2403 66.0437 47.3308L65.0056 47.9308C64.9773 47.9467 64.9495 47.9648 64.9235 47.9852C64.8878 48.0112 64.8567 48.0457 64.8244 48.0774C64.8075 48.0938 64.7899 48.1063 64.7741 48.1244C64.7135 48.1906 64.6592 48.2642 64.6122 48.344C64.6037 48.3587 64.598 48.374 64.5907 48.3887C64.5544 48.4561 64.5244 48.524 64.5007 48.5942C64.4916 48.622 64.486 48.648 64.4786 48.6757C64.4712 48.7069 64.4588 48.738 64.4537 48.7686C64.4469 48.8144 64.4429 48.8603 64.4429 48.905L64.4458 48.9435L63.6641 50.0789L63.9612 50.2516L64.7429 49.1161L64.7401 49.0771C64.7395 49.004 64.7565 48.927 64.7763 48.8495C64.7831 48.8218 64.7893 48.794 64.7984 48.7657C64.8216 48.6967 64.8516 48.6293 64.8867 48.5631C64.8952 48.5484 64.9009 48.5314 64.9093 48.5167C64.9558 48.4369 65.0112 48.3638 65.0712 48.297C65.0871 48.2795 65.1052 48.2665 65.1216 48.2495C65.1793 48.194 65.2382 48.1403 65.3027 48.1035L66.3409 47.504C66.4988 47.4129 66.6414 47.4044 66.7439 47.4644L66.4467 47.2918Z" fill="#CECDCC"/>
<path d="M65.3019 48.1034C64.9894 48.284 64.7387 48.7204 64.7398 49.0781L64.7426 49.1166L63.9609 50.2515L64.0889 50.3727L64.8038 49.3368C64.8972 49.4919 65.0862 49.5287 65.3058 49.4019L66.3445 48.8025C66.657 48.6219 66.9089 48.1855 66.9077 47.8261C66.9072 47.4683 66.653 47.3234 66.3406 47.504L65.3019 48.1034Z" fill="#143F63"/>
<path d="M26.5277 46.828C27.002 46.5523 27.6405 46.5603 28.3509 46.9055C28.4273 46.9429 28.5054 46.9837 28.5841 47.0289C29.6148 47.6244 30.5188 48.7684 31.0271 49.9978C31.3056 50.6708 31.4663 51.3693 31.4641 52.018C31.4618 52.9288 31.1397 53.5701 30.6207 53.8712L28.6633 55.0089C29.1818 54.7078 29.5039 54.0665 29.5067 53.1557C29.5084 52.5071 29.3482 51.8086 29.0697 51.135C28.5614 49.9055 27.6575 48.7622 26.6262 48.1667C26.548 48.1214 26.4699 48.0806 26.3935 48.0427C25.6831 47.698 25.0441 47.6895 24.5703 47.9657L26.5277 46.828Z" fill="#2C2C2C"/>
<path d="M26.6292 48.1669C25.0335 47.2454 23.7356 47.9852 23.7305 49.8192C23.7248 51.6526 25.0143 53.8862 26.6105 54.8077C28.2061 55.7292 29.5046 54.9899 29.5097 53.1554C29.5148 51.322 28.2248 49.0884 26.6292 48.1669Z" fill="#123155"/>
<path d="M26.6206 50.0516C25.8791 49.6237 25.2757 49.9679 25.2734 50.8192C25.2712 51.6716 25.8706 52.7098 26.6116 53.1382C27.3536 53.5662 27.9565 53.2226 27.9593 52.3707C27.9616 51.5182 27.3627 50.4801 26.6206 50.0516Z" fill="#CECDCC"/>
<path d="M57.5637 54.5696L56.3813 52.5772L56.3779 52.5794L56.3813 37.3496L42.6797 45.3121L42.6758 60.5487L42.6797 60.547L42.6758 61.8483L57.5637 54.5696Z" fill="#123155"/>
<path d="M49.2035 59.9537C49.6778 59.6787 50.3168 59.686 51.0272 60.0313C51.1036 60.0687 51.1812 60.1094 51.2599 60.1547C52.2912 60.7507 53.1946 61.8947 53.7029 63.1241C53.9814 63.7966 54.1421 64.4951 54.1404 65.1443C54.1376 66.0545 53.8155 66.6958 53.2965 66.9975L51.3391 68.1347C51.8582 67.8336 52.1802 67.1922 52.1825 66.2815C52.1848 65.6328 52.024 64.9343 51.7455 64.2613C51.2372 63.0313 50.3338 61.8879 49.3025 61.2924C49.2238 61.2471 49.1463 61.2064 49.0693 61.1685C48.3595 60.8238 47.7204 60.8158 47.2461 61.0915L49.2035 59.9537Z" fill="#2C2C2C"/>
<path d="M49.3055 61.2923C47.7098 60.3708 46.4114 61.1112 46.4063 62.9446C46.4012 64.778 47.6906 67.0115 49.2868 67.9331C50.8825 68.8546 52.1804 68.1153 52.1855 66.2808C52.1912 64.4474 50.9012 62.2138 49.3055 61.2923Z" fill="#123155"/>
<path d="M49.3009 63.0701C48.5588 62.6416 47.956 62.9857 47.9531 63.8376C47.9509 64.6895 48.5503 65.7276 49.2918 66.1561C50.0333 66.584 50.6367 66.2404 50.639 65.3886C50.6412 64.5361 50.0424 63.498 49.3009 63.0701Z" fill="#CECDCC"/>
<path d="M45.2642 48.1938L45.25 53.2044L54.3377 58.4561L52.0617 52.1188L45.2642 48.1938Z" fill="#E9E8E7"/>
<path d="M66.6861 56.238L65.6627 53.6286L65.661 53.6291L65.6621 53.6286L62.845 45.8218L52.5352 51.8127L55.3535 59.6195L56.3763 62.2295L56.3678 68.2267L66.677 62.2357L66.6861 56.238Z" fill="#123155"/>
<path d="M65.286 53.4438L62.5673 46.3848L52.9102 51.997L55.6283 59.0561L65.286 53.4438Z" fill="#E9E8E7"/>
<path d="M35.1898 25.0527L21.4883 33.0152L42.6802 45.3118L56.3817 37.3499L35.1898 25.0527Z" fill="#CECDCC"/>
<path d="M55.1067 41.354L44.7969 47.3449L52.5346 51.8127L62.8444 45.8217L55.1067 41.354Z" fill="#CECDCC"/>
<path d="M21.4883 33.0156L21.4844 48.2522L21.4883 48.2545L21.4844 49.5519L42.6768 61.8485L42.6802 60.5409L42.6768 60.5386L42.6802 45.3122L21.4883 33.0156Z" fill="#0109C4"/>
<path d="M45.2491 53.2043L45.2633 48.1938L52.0608 52.1187L54.3374 58.456L45.2491 53.2043ZM55.3506 59.6193L52.5323 51.8125L44.7946 47.3447L44.7776 53.51L44.7663 56.5066L44.7578 61.4815L46.0982 62.2581C46.3065 61.1866 47.0101 60.526 48.0063 60.526C48.4772 60.526 48.9759 60.676 49.4882 60.9721C51.1291 61.9191 52.4271 64.0768 52.5442 65.9917L56.3655 68.2264L56.3735 62.2293L55.3506 59.6193Z" fill="#0109C4"/>
<path d="M59.1289 64.7062L64.671 61.5063V63.2639L59.1289 66.4801V64.7062Z" fill="#2C2C2C"/>
<path d="M53.8755 56.4129L52.9688 56.1475L53.3118 56.3473L54.218 56.6127L53.8755 56.4129Z" fill="#CECDCC"/>
<path d="M52.7844 55.6829C52.6655 55.6138 52.5019 55.6234 52.3214 55.7276L51.1214 56.4204C51.0897 56.4385 51.058 56.4595 51.0274 56.4827C50.7557 56.6853 50.5384 57.0499 50.4852 57.3878C50.4767 57.4404 50.4721 57.4931 50.4727 57.544C50.4733 57.75 50.5457 57.8949 50.6635 57.9629L51.0059 58.1627C50.8887 58.0948 50.8157 57.9499 50.8152 57.7438C50.8152 57.6929 50.8197 57.6402 50.8282 57.587C50.8814 57.2497 51.0982 56.884 51.3699 56.6819C51.401 56.6593 51.4321 56.6378 51.465 56.6191L52.6644 55.9268C52.8444 55.8227 53.0086 55.8125 53.1269 55.8821L52.7844 55.6829Z" fill="#CECDCC"/>
<path d="M51.4612 56.6194C51.1023 56.8272 50.8114 57.3315 50.8125 57.7436C50.8131 58.1585 51.1068 58.3255 51.4657 58.1177L52.6651 57.4255C52.9187 57.2789 53.1355 56.9851 53.2419 56.6823L54.0706 56.9228L54.2178 56.6126L53.3116 56.3477L53.3144 56.2996C53.3127 55.8864 53.02 55.72 52.6612 55.9266L51.4612 56.6194Z" fill="#123155"/>
<path d="M64.1602 59.7537C64.1602 60.4103 64.6922 60.6356 65.3494 60.2563L65.3862 60.2348C66.0434 59.8556 66.576 59.0156 66.576 58.359C66.576 57.7018 66.0434 57.4771 65.3862 57.8558L65.3494 57.8779C64.6922 58.2565 64.1602 59.0971 64.1602 59.7537Z" fill="#0109C4"/>
<path d="M64.7542 60.2237C64.8963 60.2237 65.0639 60.17 65.2393 60.0686L65.2773 60.0471C65.8631 59.7086 66.3584 58.936 66.3584 58.3586C66.3584 58.1435 66.2927 57.8877 65.9791 57.8877C65.8371 57.8877 65.669 57.9415 65.4935 58.0428L65.4561 58.0649C64.8703 58.4028 64.375 59.176 64.375 59.7534C64.375 59.9679 64.4407 60.2237 64.7542 60.2237Z" fill="#CECDCC"/>
<path d="M56.582 64.1658C56.582 64.8224 57.1141 65.0476 57.7713 64.6684L57.8081 64.6475C58.4647 64.2676 58.9979 63.4276 58.9979 62.771C58.9979 62.1144 58.4647 61.8897 57.8081 62.2684L57.7713 62.2899C57.1141 62.6692 56.582 63.5092 56.582 64.1658Z" fill="#0109C4"/>
<path d="M57.18 64.6363C57.3215 64.6363 57.4896 64.5825 57.6651 64.4817L57.703 64.4596C58.2889 64.1217 58.7836 63.3485 58.7836 62.7712C58.7836 62.5561 58.7185 62.3008 58.4044 62.3008C58.2629 62.3008 58.0947 62.3546 57.9193 62.4559L57.8813 62.4774C57.2961 62.8153 56.8008 63.5885 56.8008 64.1659C56.8008 64.3804 56.8664 64.6363 57.18 64.6363Z" fill="#CECDCC"/>
</svg>
