<svg width="98" height="106" viewBox="0 0 98 106" fill="none" xmlns="http://www.w3.org/2000/svg">
<path d="M73.9806 0H0V77.069H73.9806V0Z" fill="white"/>
<path d="M43.6367 66.2234L64.3271 53.7785C65.4591 53.098 65.983 52.176 65.9379 51.2178" fill="#BFC3C7"/>
<path d="M65.9378 51.2181H65.9457V47.0554L58.5165 45.0535L42.0435 35.146C39.2708 33.4782 35.0758 33.2964 32.674 34.7418L15.8013 44.8892L7.9254 46.8324V50.9418C7.91982 51.0334 7.92168 51.1265 7.9254 51.2181V51.2821H7.92866C8.00682 52.3363 8.77408 53.4293 10.2104 54.2926L31.8197 67.2901C34.5938 68.958 38.7883 69.1398 41.1901 67.6953L43.6366 66.2237" fill="#BFC3C7"/>
<path d="M64.3251 49.3929L41.1883 63.3094C38.7865 64.7533 34.5919 64.5716 31.8179 62.9042L10.2085 49.9076C7.43451 48.2388 7.13393 45.7163 9.53574 44.2714L32.6721 30.3559C35.0739 28.9109 39.2685 29.0922 42.0416 30.7601L63.6518 43.7576C66.4263 45.425 66.7269 47.9489 64.3251 49.3929Z" fill="#E9E8E7"/>
<path d="M22.5078 17.5182L25.4968 15.7092C26.4097 15.1562 27.4831 15.0907 28.6245 15.4741C29.2996 15.701 29.9408 16.0068 30.5475 16.3723C34.8998 18.9897 37.4905 24.6366 37.9055 25.6584L34.917 27.4673C34.502 26.4456 31.9113 20.7997 27.5585 18.1812C26.9518 17.8163 26.3106 17.5099 25.6359 17.284C24.4946 16.9006 23.4207 16.9656 22.5078 17.5182Z" fill="#0109C4"/>
<path d="M52.8396 38.9907C52.0505 32.4582 48.9051 27.8157 45.6286 25.523C45.3285 25.3126 45.0391 25.1251 44.7604 24.9569C42.0594 23.3326 40.3392 23.6079 39.2742 24.2526L36.2852 26.062C37.3502 25.4173 39.0704 25.142 41.7714 26.7663C42.0505 26.934 42.3399 27.1225 42.64 27.3319C45.9166 29.6256 49.0615 34.2677 49.8506 40.7996C50.4406 45.6802 48.5306 48.4154 45.8045 50.0663L48.7935 48.2564C51.5196 46.6065 53.4296 43.8707 52.8396 38.9907Z" fill="#0109C4"/>
<path d="M50.2586 40.589C51.6112 51.779 39.8204 51.6932 35.1856 53.1032C30.5709 46.1307 18.8224 32.0581 20.2295 22.5277C20.9223 17.8255 23.2571 16.1949 25.9753 17.1081C26.6499 17.334 27.2911 17.6403 27.8978 18.0058C32.2501 20.6237 34.8413 26.2696 35.2559 27.2914C35.7049 26.7301 37.4195 23.6929 42.1794 26.5556C42.4581 26.7233 42.7475 26.9109 43.0476 27.1213C46.3241 29.4145 49.4695 34.0565 50.2586 40.589Z" fill="#0109C4"/>
<path d="M32.0445 25.8931L34.9497 43.7042L38.0448 34.6935L39.3309 41.5686L40.3675 38.5697L41.2627 41.8536L41.7746 41.396L54.3015 48.6929C54.4732 48.7961 54.6137 49.0477 54.6128 49.2556C54.6123 49.4592 54.4708 49.545 54.2991 49.4418L42.1673 42.2409L41.0724 43.2152L40.4048 40.7674L39.2406 44.1395L37.9555 37.2712L34.8153 46.4123L31.9328 28.7495L29.21 37.5213L28.2692 33.8816L16.4788 26.8363C16.3062 26.7326 16.167 26.4786 16.168 26.275C16.1684 26.0666 16.308 25.9837 16.4811 26.0879L28.4883 33.2636L29.1634 35.1685L32.0445 25.8931Z" fill="#CECDCC"/>
<g clip-path="url(#clip0_406_848)">
<path d="M97.9141 15.2314H7.91406V105.231H97.9141V15.2314Z" fill="white"/>
<path d="M88.1253 75.0432H88.1349V70.1821L79.097 67.8444L59.057 56.2746C55.684 54.3268 50.5806 54.1146 47.6587 55.8025L27.1325 67.6525L17.5512 69.9217V74.7206C17.5444 74.8276 17.5466 74.9363 17.5512 75.0432V75.118H17.5546C17.6502 76.3491 18.5836 77.6255 20.331 78.6336L46.6195 93.8119C49.9942 95.7596 55.097 95.9719 58.0189 94.2851L86.1657 78.0336C87.5434 77.2389 88.1808 76.1623 88.1253 75.0432Z" fill="#BFC3C7"/>
<path d="M86.1654 72.9123L58.0186 89.1638C55.0967 90.85 49.9939 90.6378 46.6192 88.6906L20.3307 73.5134C16.956 71.5646 16.5898 68.6189 19.5116 66.9315L47.6584 50.6812C50.5803 48.9938 55.6832 49.2055 59.0567 51.1532L85.3464 66.3315C88.7211 68.2787 89.0873 71.2261 86.1654 72.9123Z" fill="#E9E8E7"/>
<path d="M78.3486 72.4403L78.3492 71.5896L76.8311 71.696L50.9626 56.6309C50.2335 56.2097 48.96 56.263 48.1183 56.7486L28.9986 67.7382L27.3249 67.8548V68.688C27.3243 68.7118 27.3237 68.735 27.3249 68.7588C27.343 69.0096 27.5032 69.2467 27.8151 69.4273L54.7109 85.085C55.44 85.5062 56.7136 85.4529 57.5558 84.9673L77.6547 73.4145C78.137 73.136 78.3719 72.7765 78.3486 72.4403Z" fill="#0109C4"/>
<path d="M78.3488 72.417L78.3494 71.5662L76.8313 71.6721L76.6031 71.5391L75.5118 71.9789L55.9258 83.937V84.4125V85.3404C56.4913 85.3442 57.089 85.2128 57.556 84.944L77.6548 73.3911C78.1371 73.1126 78.372 72.7532 78.3488 72.417Z" fill="#0109C4"/>
<path d="M77.9113 70.7827L51.0149 55.1244C50.2592 54.6886 48.9392 54.7412 48.0715 55.2422L27.972 66.795C27.4983 67.0684 27.2266 67.4386 27.2266 67.8093C27.2266 68.1235 27.419 68.4071 27.7677 68.608L54.6641 84.2663C55.0066 84.465 55.4679 84.5618 55.949 84.5618C56.5264 84.5618 57.1343 84.422 57.6075 84.1486L77.7069 72.5963C78.1813 72.3229 78.453 71.9522 78.453 71.5814C78.453 71.2678 78.26 70.9837 77.9113 70.7827Z" fill="#CECDCC"/>
<path d="M42.4949 64.4076V63.7499H41.5298L40.1295 62.9569C39.9432 62.8516 39.6415 62.8516 39.4553 62.9569L38.0544 63.7499H37.0898V64.4082C37.0898 64.4773 37.1363 64.5463 37.2291 64.599L39.4553 65.8584C39.6415 65.9643 39.9432 65.9643 40.1295 65.8584L42.3551 64.599C42.448 64.5463 42.4949 64.4773 42.4949 64.4076Z" fill="#0109C4"/>
<path d="M42.3556 63.9406L40.1299 65.2012C39.9437 65.3059 39.642 65.3059 39.4557 65.2012L37.2295 63.9406C37.0433 63.8353 37.0433 63.6644 37.2295 63.5585L39.4557 62.2991C39.642 62.1933 39.9437 62.1933 40.1299 62.2991L42.3556 63.5585C42.5418 63.6644 42.5418 63.8353 42.3556 63.9406Z" fill="#686868"/>
<path d="M38.375 51.8936V63.5619H38.3761C38.3818 63.7634 38.5188 63.9632 38.7899 64.1171C39.3435 64.4296 40.2407 64.4296 40.7937 64.1171C41.0654 63.9632 41.2024 63.7634 41.208 63.5619H41.2092V51.8936H38.375Z" fill="#7C7C7C"/>
<mask id="mask0_406_848" style="mask-type:luminance" maskUnits="userSpaceOnUse" x="38" y="51" width="4" height="14">
<path d="M38.375 51.8931V63.5619H38.3761C38.3818 63.7629 38.5188 63.9633 38.7899 64.1167C39.3435 64.4297 40.2407 64.4297 40.7937 64.1167C41.0654 63.9633 41.2024 63.7629 41.208 63.5619H41.2092V51.8931H38.375Z" fill="#123155"/>
</mask>
<g mask="url(#mask0_406_848)">
<path d="M40.4219 53.3863V64.299L40.7932 64.1886L41.2109 63.845V51.9922L40.6732 52.1099L40.4219 53.3863Z" fill="#0109C4"/>
</g>
<mask id="mask1_406_848" style="mask-type:luminance" maskUnits="userSpaceOnUse" x="37" y="62" width="6" height="4">
<path d="M39.4553 62.9571L38.0544 63.7501H37.0898V64.4084C37.0898 64.4775 37.1363 64.5465 37.2291 64.5992L39.4553 65.8586C39.6415 65.9645 39.9432 65.9645 40.13 65.8586L42.3551 64.5992C42.448 64.5465 42.4949 64.4775 42.4949 64.4079V63.7501H41.5298L40.13 62.9571C40.0366 62.9045 39.9144 62.8784 39.7921 62.8784C39.6704 62.8784 39.5481 62.9045 39.4553 62.9571Z" fill="#123155"/>
</mask>
<g mask="url(#mask1_406_848)">
<path d="M39.7188 65.2814V65.934L40.1314 66.0206L42.4957 64.5336L42.5625 63.7236C42.5625 63.7236 40.3023 65.1319 40.1308 65.201C39.9582 65.2695 39.7188 65.2814 39.7188 65.2814Z" fill="#0109C4"/>
</g>
<path d="M70.8227 67.6961C70.8227 67.6842 70.8232 67.6717 70.8227 67.6604L70.8204 55.0791L40.8187 54.1089L40.8227 66.723C40.7853 66.9744 40.9149 67.2195 41.2228 67.3978L55.6059 75.6279C56.2098 75.9766 57.2632 75.933 57.9595 75.5306L70.2476 68.4608C70.6268 68.2417 70.8204 67.9259 70.8227 67.6604V67.6961Z" fill="#AAAAAA"/>
<path d="M55.9258 54.5439V75.6758C56.5422 75.9107 57.445 75.8389 58.0654 75.4806L70.3535 68.4102C70.7328 68.1911 70.9263 67.8758 70.9286 67.6098L70.9269 55.0285L55.9258 54.5439Z" fill="#0109C4"/>
<path d="M47.8164 71.1477L51.9751 73.5488V64.2765L47.8164 61.876V71.1477Z" fill="#878686"/>
<path d="M51.4851 72.6946V64.5612L48.3131 62.7295L48.3125 70.8629L51.4851 72.6946Z" fill="#CECDCC"/>
<path d="M48.7539 63.5249V66.7564L50.9524 68.0221V64.7906L50.3428 64.443L49.5639 63.9924L49.4649 63.9358L49.1507 63.7524H49.149L48.7539 63.5249Z" fill="#0109C4"/>
<path d="M48.6367 63.3228V63.5248V66.8243L51.069 68.2241V64.7237L48.6367 63.3228ZM48.7539 63.5248L49.149 63.7529L50.3428 64.4429L50.9524 64.7911V68.0226L48.7539 66.7563V63.5248Z" fill="#E4E4E4"/>
<path d="M48.7539 67.354V70.5855L50.9524 71.8512V68.6197L50.3428 68.2721L49.5639 67.8216L49.4649 67.7649L49.1507 67.5821H49.149L48.7539 67.354Z" fill="#0109C4"/>
<path d="M48.6367 67.1514V67.3534V70.6529L51.069 72.0533V68.5523L48.6367 67.1514ZM48.7539 67.3534L49.149 67.5821L50.3428 68.2716L50.9524 68.6197V71.8512L48.7539 70.585V67.3534Z" fill="#E4E4E4"/>
<path d="M48.1625 66.4634L48.5876 66.709V68.2628L48.4603 68.3364L48.0352 66.537L48.1625 66.4634Z" fill="#878686"/>
<path d="M48.0357 66.5371L48.4608 66.7828V68.3365L48.0352 68.0909L48.0357 66.5371Z" fill="#E4E4E4"/>
<path d="M43.6602 68.7512L47.8188 71.1518V61.8801L43.6602 59.4795V68.7512Z" fill="#878686"/>
<path d="M47.325 70.2986V62.1652L44.1523 60.3335V68.4669L47.325 70.2986Z" fill="#CECDCC"/>
<path d="M44.5938 61.1279V64.3594L46.7922 65.6257V62.3942L46.1832 62.046L45.4037 61.5955L45.3053 61.5389L44.9911 61.356H44.9894L44.5938 61.1279Z" fill="#0109C4"/>
<path d="M44.4766 60.9263V61.1278V64.4272L46.9088 65.8276V62.3272L44.4766 60.9263ZM44.5932 61.1278L44.9888 61.3565L46.1826 62.0465L46.7917 62.3946V65.6261L44.5932 64.3593V61.1278Z" fill="#E4E4E4"/>
<path d="M44.5938 64.9575V68.189L46.7922 69.4547V66.2232L46.1832 65.8756L45.4037 65.4251L45.3053 65.3679L44.9911 65.1851H44.9894L44.5938 64.9575Z" fill="#0109C4"/>
<path d="M44.4766 64.7554V64.9574V68.2563L46.9088 69.6567V66.1563L44.4766 64.7554ZM44.5932 64.9574L44.9888 65.1856L46.1826 65.8756L46.7917 66.2237V69.4552L44.5932 68.189V64.9574Z" fill="#E4E4E4"/>
<path d="M47.0922 65.7515L47.5173 65.9971V67.5509L47.3899 67.6245L46.9648 65.8251L47.0922 65.7515Z" fill="#878686"/>
<path d="M46.9648 65.8252L47.3899 66.0709V67.6246L46.9648 67.379V65.8252Z" fill="#E4E4E4"/>
<path d="M59.6936 79.8807V79.2224H58.7285L57.3287 78.43C57.1425 78.3241 56.8402 78.3241 56.654 78.43L55.2536 79.2224H54.2891V79.8807C54.2891 79.9498 54.3355 80.0188 54.4283 80.0715L56.654 81.3315C56.8402 81.4368 57.1425 81.4368 57.3287 81.3315L59.5543 80.0715C59.6472 80.0188 59.6936 79.9498 59.6936 79.8807Z" fill="#0109C4"/>
<path d="M59.5548 79.4133L57.3291 80.6738C57.1429 80.7791 56.8406 80.7791 56.6544 80.6738L54.4287 79.4133C54.2425 79.308 54.2425 79.1371 54.4287 79.0318L56.6544 77.7718C56.8406 77.6659 57.1429 77.6659 57.3291 77.7718L59.5548 79.0318C59.741 79.1371 59.741 79.308 59.5548 79.4133Z" fill="#686868"/>
<path d="M55.5742 67.3662V79.0345H55.5754C55.581 79.236 55.718 79.4358 55.9891 79.5898C56.5427 79.9022 57.4399 79.9022 57.9929 79.5898C58.264 79.4358 58.4016 79.236 58.4072 79.0345H58.4084V67.3662H55.5742Z" fill="#7C7C7C"/>
<mask id="mask2_406_848" style="mask-type:luminance" maskUnits="userSpaceOnUse" x="55" y="67" width="4" height="13">
<path d="M55.5742 67.3657V79.0346H55.5759C55.581 79.2355 55.7186 79.4359 55.9897 79.5899C56.5427 79.9023 57.4404 79.9023 57.9935 79.5899C58.264 79.4359 58.4021 79.2355 58.4072 79.0346H58.4089V67.3657H55.5742Z" fill="#123155"/>
</mask>
<g mask="url(#mask2_406_848)">
<path d="M57.6211 68.859V79.7716L57.9924 79.6613L58.4102 79.3177V67.4648L57.8724 67.5826L57.6211 68.859Z" fill="#0109C4"/>
</g>
<mask id="mask3_406_848" style="mask-type:luminance" maskUnits="userSpaceOnUse" x="54" y="78" width="6" height="4">
<path d="M56.654 78.4298L55.2536 79.2229H54.2891V79.8806C54.2891 79.9502 54.3355 80.0193 54.4283 80.0719L56.654 81.3319C56.8402 81.4372 57.1425 81.4372 57.3287 81.3319L59.5543 80.0719C59.6472 80.0193 59.693 79.9502 59.693 79.8806V79.2229H58.7285L57.3287 78.4298C57.2353 78.3772 57.1136 78.3506 56.9913 78.3506C56.8691 78.3506 56.7468 78.3772 56.654 78.4298Z" fill="#123155"/>
</mask>
<g mask="url(#mask3_406_848)">
<path d="M56.918 80.754V81.4067L57.3306 81.4933L59.6944 80.0063L59.7612 79.1963C59.7612 79.1963 57.5016 80.6046 57.33 80.6736C57.1574 80.7421 56.918 80.754 56.918 80.754Z" fill="#0109C4"/>
</g>
<path d="M54.2873 76.9902V76.3324H53.3222L51.9219 75.5394C51.7362 75.4341 51.4339 75.4341 51.2477 75.5394L49.8473 76.3324H48.8828V76.9902C48.8828 77.0592 48.9292 77.1283 49.0221 77.1815L51.2477 78.4409C51.4339 78.5468 51.7362 78.5468 51.9219 78.4409L54.1481 77.1815C54.2409 77.1283 54.2873 77.0592 54.2873 76.9902Z" fill="#0109C4"/>
<path d="M54.1485 76.5231L51.9223 77.7831C51.7366 77.8884 51.4344 77.8884 51.2481 77.7831L49.0225 76.5231C48.8363 76.4173 48.8363 76.2469 49.0225 76.1411L51.2481 74.8816C51.4344 74.7758 51.7366 74.7758 51.9223 74.8816L54.1485 76.1411C54.3347 76.2469 54.3347 76.4173 54.1485 76.5231Z" fill="#686868"/>
<path d="M50.168 64.4761V76.1438H50.1691C50.1748 76.3453 50.3117 76.5457 50.5829 76.6991C51.1365 77.0121 52.0336 77.0121 52.5866 76.6991C52.8578 76.5457 52.9953 76.3453 53.001 76.1438H53.0021V64.4761H50.168Z" fill="#7C7C7C"/>
<mask id="mask4_406_848" style="mask-type:luminance" maskUnits="userSpaceOnUse" x="50" y="64" width="4" height="13">
<path d="M50.1719 64.4761V76.1438H50.173C50.1787 76.3448 50.3156 76.5457 50.5868 76.6991C51.1404 77.0121 52.0375 77.0121 52.5906 76.6991C52.8617 76.5457 52.9992 76.3448 53.0049 76.1438H53.006V64.4761H50.1719Z" fill="#123155"/>
</mask>
<g mask="url(#mask4_406_848)">
<path d="M52.2188 65.9689V76.8816L52.5901 76.7712L53.0078 76.4276V64.5742L52.4701 64.6925L52.2188 65.9689Z" fill="#0109C4"/>
</g>
<mask id="mask5_406_848" style="mask-type:luminance" maskUnits="userSpaceOnUse" x="48" y="75" width="7" height="4">
<path d="M51.2516 75.5402L49.8512 76.3326H48.8867V76.9909C48.8867 77.0594 48.9331 77.1291 49.026 77.1817L51.2516 78.4417C51.4373 78.547 51.7401 78.547 51.9263 78.4417L54.152 77.1817C54.2443 77.1291 54.2912 77.0594 54.2912 76.9909V76.3326H53.3262L51.9263 75.5402C51.8329 75.487 51.7112 75.4609 51.589 75.4609C51.4667 75.4609 51.3445 75.487 51.2516 75.5402Z" fill="#123155"/>
</mask>
<g mask="url(#mask5_406_848)">
<path d="M51.5156 77.8639V78.5165L51.9283 78.6031L54.292 77.1156L54.3588 76.3062C54.3588 76.3062 52.0992 77.7145 51.9271 77.7829C51.7551 77.852 51.5156 77.8639 51.5156 77.8639Z" fill="#0109C4"/>
</g>
<path d="M37.3772 67.2631V66.6048H36.4127L35.0123 65.8124C34.8261 65.7071 34.5238 65.7071 34.3376 65.8124L32.9372 66.6048H31.9727V67.2631C31.9727 67.3322 32.0191 67.4012 32.1119 67.4544L34.3376 68.7139C34.5238 68.8197 34.8261 68.8197 35.0123 68.7139L37.2379 67.4544C37.3308 67.4012 37.3772 67.3322 37.3772 67.2631Z" fill="#0109C4"/>
<path d="M37.2384 66.7961L35.0127 68.0561C34.8265 68.1614 34.5242 68.1614 34.338 68.0561L32.1123 66.7961C31.9261 66.6902 31.9261 66.5199 32.1123 66.414L34.338 65.1546C34.5242 65.0487 34.8265 65.0487 35.0127 65.1546L37.2384 66.414C37.4246 66.5199 37.4246 66.6902 37.2384 66.7961Z" fill="#686868"/>
<path d="M33.2578 54.7485V66.4168H33.2589C33.2646 66.6183 33.4016 66.8182 33.6727 66.9721C34.2263 67.2851 35.1235 67.2851 35.6765 66.9721C35.9482 66.8182 36.0852 66.6183 36.0908 66.4168H36.092V54.7485H33.2578Z" fill="#7C7C7C"/>
<mask id="mask6_406_848" style="mask-type:luminance" maskUnits="userSpaceOnUse" x="33" y="54" width="4" height="14">
<path d="M33.2578 54.749V66.4168H33.2589C33.264 66.6183 33.4016 66.8181 33.6727 66.972C34.2263 67.2856 35.1235 67.2856 35.6765 66.972C35.9482 66.8181 36.0852 66.6183 36.0908 66.4168H36.092V54.749H33.2578Z" fill="#123155"/>
</mask>
<g mask="url(#mask6_406_848)">
<path d="M35.3047 56.2424V67.155L35.676 67.0446L36.0937 66.7011V54.8477L35.556 54.966L35.3047 56.2424Z" fill="#0109C4"/>
</g>
<mask id="mask7_406_848" style="mask-type:luminance" maskUnits="userSpaceOnUse" x="31" y="65" width="7" height="4">
<path d="M34.3376 65.8126L32.9378 66.6045H31.9727V67.2634C31.9727 67.3325 32.0191 67.4015 32.1125 67.4547L34.3376 68.7142C34.5238 68.82 34.8261 68.82 35.0123 68.7142L37.2379 67.4547C37.3308 67.4015 37.3772 67.3325 37.3772 67.2634V66.6045H36.4127L35.0123 65.8126C34.9194 65.76 34.7972 65.7334 34.6749 65.7334C34.5527 65.7334 34.431 65.76 34.3376 65.8126Z" fill="#123155"/>
</mask>
<g mask="url(#mask7_406_848)">
<path d="M34.6016 68.1368V68.7895L35.0142 68.8761L37.378 67.3885L37.4453 66.5791C37.4453 66.5791 35.1851 67.9874 35.0136 68.0559C34.841 68.125 34.6016 68.1368 34.6016 68.1368Z" fill="#0109C4"/>
</g>
<path d="M64.8113 77.0311V76.3728H63.8462L62.4459 75.5804C62.2596 75.4745 61.9579 75.4745 61.7717 75.5804L60.3713 76.3728H59.4062V77.0311C59.4062 77.1002 59.4527 77.1692 59.5461 77.2219L61.7717 78.4819C61.9579 78.5872 62.2596 78.5872 62.4459 78.4819L64.6715 77.2219C64.7649 77.1692 64.8113 77.1002 64.8113 77.0311Z" fill="#0109C4"/>
<path d="M64.6714 76.5637L62.4457 77.8242C62.2595 77.9295 61.9578 77.9295 61.7716 77.8242L59.5459 76.5637C59.3597 76.4584 59.3597 76.2874 59.5459 76.1822L61.7716 74.9222C61.9578 74.8163 62.2595 74.8163 62.4457 74.9222L64.6714 76.1822C64.8576 76.2874 64.8576 76.4584 64.6714 76.5637Z" fill="#686868"/>
<path d="M60.6914 64.5166V76.1849H60.6925C60.6976 76.3864 60.8352 76.5862 61.1063 76.7402C61.6599 77.0526 62.5571 77.0526 63.1101 76.7402C63.3812 76.5862 63.5188 76.3864 63.5239 76.1849H63.525V64.5166H60.6914Z" fill="#7C7C7C"/>
<mask id="mask8_406_848" style="mask-type:luminance" maskUnits="userSpaceOnUse" x="60" y="64" width="4" height="13">
<path d="M60.6953 64.5166V76.1855H60.6964C60.7015 76.3864 60.8391 76.5862 61.1108 76.7402C61.6638 77.0526 62.561 77.0526 63.114 76.7402C63.3851 76.5862 63.5227 76.3864 63.5278 76.1855H63.5289V64.5166H60.6953Z" fill="#123155"/>
</mask>
<g mask="url(#mask8_406_848)">
<path d="M62.7422 66.0104V76.9231L63.1129 76.8121L63.5307 76.4686V64.6157L62.9935 64.7335L62.7422 66.0104Z" fill="#0109C4"/>
</g>
<mask id="mask9_406_848" style="mask-type:luminance" maskUnits="userSpaceOnUse" x="59" y="75" width="6" height="4">
<path d="M61.7712 75.5802L60.3713 76.3732H59.4062V77.0315C59.4062 77.1006 59.4521 77.1697 59.5461 77.2217L61.7712 78.4817C61.9579 78.587 62.2591 78.587 62.4459 78.4817L64.6715 77.2217C64.7649 77.1697 64.8113 77.1006 64.8113 77.0315V76.3732H63.8462L62.4459 75.5802C62.3525 75.5276 62.2308 75.501 62.1085 75.501C61.9868 75.501 61.8646 75.5276 61.7712 75.5802Z" fill="#123155"/>
</mask>
<g mask="url(#mask9_406_848)">
<path d="M62.0352 77.9043V78.557L62.4478 78.6436L64.8116 77.1566L64.8784 76.3472C64.8784 76.3472 62.6187 77.7549 62.4467 77.824C62.274 77.8925 62.0352 77.9043 62.0352 77.9043Z" fill="#0109C4"/>
</g>
<path d="M69.7215 74.1923V73.5346H68.7564L67.356 72.7416C67.1698 72.6363 66.8681 72.6363 66.6819 72.7416L65.2815 73.5346H64.3164V74.1923C64.3164 74.2614 64.3628 74.3304 64.4562 74.3836L66.6819 75.6431C66.8681 75.7489 67.1698 75.7489 67.356 75.6431L69.5817 74.3836C69.6751 74.3304 69.7215 74.2614 69.7215 74.1923Z" fill="#0109C4"/>
<path d="M69.5815 73.7253L67.3559 74.9853C67.1697 75.0906 66.868 75.0906 66.6817 74.9853L64.4561 73.7253C64.2698 73.6194 64.2698 73.4491 64.4561 73.3432L66.6817 72.0838C66.868 71.9779 67.1697 71.9779 67.3559 72.0838L69.5815 73.3432C69.7678 73.4491 69.7678 73.6194 69.5815 73.7253Z" fill="#686868"/>
<path d="M65.6016 61.6782V73.346H65.6027C65.6078 73.5475 65.7453 73.7478 66.0165 73.9012C66.5701 74.2143 67.4667 74.2143 68.0197 73.9012C68.2914 73.7478 68.4289 73.5475 68.434 73.346H68.4351V61.6782H65.6016Z" fill="#7C7C7C"/>
<mask id="mask10_406_848" style="mask-type:luminance" maskUnits="userSpaceOnUse" x="65" y="61" width="4" height="14">
<path d="M65.6016 61.6777V73.346H65.6021C65.6072 73.5475 65.7448 73.7479 66.0159 73.9008C66.5701 74.2143 67.4667 74.2143 68.0197 73.9008C68.2914 73.7479 68.4289 73.5475 68.434 73.346H68.4346V61.6777H65.6016Z" fill="#123155"/>
</mask>
<g mask="url(#mask10_406_848)">
<path d="M67.6445 63.1711V74.0837L68.0153 73.9733L68.433 73.6298V61.7764L67.8959 61.8947L67.6445 63.1711Z" fill="#0109C4"/>
</g>
<mask id="mask11_406_848" style="mask-type:luminance" maskUnits="userSpaceOnUse" x="64" y="72" width="6" height="4">
<path d="M66.6819 72.7418L65.2815 73.5343H64.3164V74.192C64.3164 74.2611 64.3628 74.3301 64.4562 74.3834L66.6819 75.6428C66.8675 75.7486 67.1698 75.7486 67.356 75.6428L69.5817 74.3834C69.6745 74.3301 69.7215 74.2611 69.7215 74.192V73.5343H68.7564L67.356 72.7418C67.2632 72.6892 67.1409 72.6626 67.0187 72.6626C66.8964 72.6626 66.7747 72.6892 66.6819 72.7418Z" fill="#123155"/>
</mask>
<g mask="url(#mask11_406_848)">
<path d="M66.9453 75.0655V75.7182L67.358 75.8048L69.7217 74.3172L69.7885 73.5078C69.7885 73.5078 67.5289 74.9161 67.3568 74.9846C67.1842 75.0537 66.9453 75.0655 66.9453 75.0655Z" fill="#0109C4"/>
</g>
<path d="M74.6278 71.5287V70.8704H73.6627L72.2623 70.078C72.0761 69.9727 71.7744 69.9727 71.5881 70.078L70.1878 70.8704H69.2227V71.5287C69.2227 71.5978 69.2696 71.6669 69.3625 71.7201L71.5881 72.9795C71.7744 73.0853 72.0761 73.0853 72.2623 72.9795L74.4879 71.7201C74.5813 71.6669 74.6278 71.5978 74.6278 71.5287Z" fill="#0109C4"/>
<path d="M74.4878 71.0617L72.2621 72.3217C72.0759 72.427 71.7742 72.427 71.588 72.3217L69.3623 71.0617C69.1761 70.9559 69.1761 70.7855 69.3623 70.6796L71.588 69.4202C71.7742 69.3144 72.0759 69.3144 72.2621 69.4202L74.4878 70.6796C74.674 70.7855 74.674 70.9559 74.4878 71.0617Z" fill="#686868"/>
<path d="M70.5078 59.0142V70.6825H70.5089C70.5146 70.884 70.6516 71.0838 70.9227 71.2377C71.4763 71.5508 72.3735 71.5508 72.9265 71.2377C73.1976 71.0838 73.3352 70.884 73.3403 70.6825H73.3414V59.0142H70.5078Z" fill="#7C7C7C"/>
<mask id="mask12_406_848" style="mask-type:luminance" maskUnits="userSpaceOnUse" x="70" y="59" width="4" height="13">
<path d="M70.5117 59.0142V70.683H70.5129C70.5185 70.884 70.6555 71.0843 70.9272 71.2377C71.4802 71.5513 72.3774 71.5513 72.9304 71.2377C73.2015 71.0843 73.3391 70.884 73.3442 70.683H73.3453V59.0142H70.5117Z" fill="#123155"/>
</mask>
<g mask="url(#mask12_406_848)">
<path d="M72.5586 60.508V71.4206L72.9293 71.3103L73.3471 70.9667V59.1133L72.8099 59.2316L72.5586 60.508Z" fill="#0109C4"/>
</g>
<mask id="mask13_406_848" style="mask-type:luminance" maskUnits="userSpaceOnUse" x="69" y="69" width="6" height="5">
<path d="M71.5915 70.0782L70.1917 70.8706H69.2266V71.5289C69.2266 71.598 69.273 71.6671 69.3664 71.7203L71.5915 72.9797C71.7783 73.0855 72.0794 73.0855 72.2662 72.9797L74.4913 71.7203C74.5852 71.6671 74.6317 71.598 74.6317 71.5289V70.8706H73.666L72.2662 70.0782C72.1728 70.0255 72.0511 69.9995 71.9288 69.9995C71.8071 69.9995 71.6849 70.0255 71.5915 70.0782Z" fill="#123155"/>
</mask>
<g mask="url(#mask13_406_848)">
<path d="M71.8555 72.4025V73.0551L72.2681 73.1417L74.6319 71.6542L74.6987 70.8447C74.6987 70.8447 72.4391 72.253 72.267 72.3215C72.0949 72.3906 71.8555 72.4025 71.8555 72.4025Z" fill="#0109C4"/>
</g>
<path d="M42.4949 70.2259V69.5676H41.5298L40.1295 68.7752C39.9432 68.6693 39.6415 68.6693 39.4553 68.7752L38.0549 69.5676H37.0898V70.2259C37.0898 70.295 37.1363 70.3641 37.2297 70.4167L39.4553 71.6767C39.6415 71.782 39.9432 71.782 40.1295 71.6767L42.3551 70.4167C42.4485 70.3641 42.4949 70.295 42.4949 70.2259Z" fill="#0109C4"/>
<path d="M42.355 69.7585L40.1293 71.0191C39.9431 71.1243 39.6414 71.1243 39.4552 71.0191L37.2295 69.7585C37.0433 69.6532 37.0433 69.4823 37.2295 69.377L39.4552 68.117C39.6414 68.0111 39.9431 68.0111 40.1293 68.117L42.355 69.377C42.5412 69.4823 42.5412 69.6532 42.355 69.7585Z" fill="#686868"/>
<path d="M38.375 57.7114V69.3797H38.3761C38.3812 69.5812 38.5188 69.781 38.7899 69.935C39.3435 70.2475 40.2407 70.2475 40.7937 69.935C41.0648 69.781 41.2024 69.5812 41.2075 69.3797H41.2086V57.7114H38.375Z" fill="#7C7C7C"/>
<mask id="mask14_406_848" style="mask-type:luminance" maskUnits="userSpaceOnUse" x="38" y="57" width="4" height="14">
<path d="M38.375 57.7114V69.3797H38.3761C38.3812 69.5807 38.5188 69.781 38.7899 69.935C39.3435 70.2475 40.2407 70.2475 40.7937 69.935C41.0648 69.781 41.2024 69.5807 41.2069 69.3797H41.2086V57.7114H38.375Z" fill="#123155"/>
</mask>
<g mask="url(#mask14_406_848)">
<path d="M40.4219 59.2048V70.1174L40.7926 70.0065L41.2104 69.6629V57.8101L40.6732 57.9278L40.4219 59.2048Z" fill="#0109C4"/>
</g>
<mask id="mask15_406_848" style="mask-type:luminance" maskUnits="userSpaceOnUse" x="37" y="68" width="6" height="4">
<path d="M39.4553 68.7745L38.0549 69.5675H37.0898V70.2258C37.0898 70.2949 37.1363 70.3639 37.2297 70.4166L39.4553 71.6766C39.6415 71.7818 39.9432 71.7818 40.13 71.6766L42.3551 70.4166C42.4485 70.3639 42.4949 70.2949 42.4949 70.2258V69.5675H41.5298L40.13 68.7745C40.0366 68.7218 39.9144 68.6958 39.7927 68.6958C39.6704 68.6958 39.5481 68.7218 39.4553 68.7745Z" fill="#123155"/>
</mask>
<g mask="url(#mask15_406_848)">
<path d="M39.7188 71.0987V71.7513L40.1314 71.8379L42.4952 70.3509L42.562 69.5415C42.562 69.5415 40.3023 70.9492 40.1303 71.0183C39.9576 71.0868 39.7188 71.0987 39.7188 71.0987Z" fill="#0109C4"/>
</g>
<path d="M59.1418 68.3214L31.0352 52.0942V53.9893L59.1418 70.2165V68.3214Z" fill="#0109C4"/>
<path d="M77.0942 57.8975L59.1406 68.321V70.2161L77.0942 59.7926V57.8975Z" fill="#0109C4"/>
<path d="M77.0953 57.8976L59.1418 68.3212L31.0352 52.094L48.9887 41.6704L77.0953 57.8976Z" fill="#CECDCC"/>
<path d="M63.0435 38.02L45.0904 48.4447L31.0352 49.5519L48.9876 39.1272L63.0435 38.02Z" fill="#CECDCC"/>
<path d="M45.0904 48.4443L31.0352 49.5521V51.4421L59.1406 67.6698V65.7741L45.0904 48.4443Z" fill="#0109C4"/>
<path d="M77.0919 55.3544L63.0429 38.02L45.0898 48.4447L59.14 65.774L59.1406 65.7762V67.6713L77.0942 57.2483V55.3527L77.0919 55.3544Z" fill="#0109C4"/>
</g>
<defs>
<clipPath id="clip0_406_848">
<rect width="90" height="90" fill="white" transform="translate(7.91406 15.2314)"/>
</clipPath>
</defs>
</svg>
