<svg width="90" height="90" viewBox="0 0 90 90" fill="none" xmlns="http://www.w3.org/2000/svg">
<path d="M90 0H0V90H90V0Z" fill="white"/>
<path d="M80.215 59.8118H80.2252V54.9507L71.1867 52.6129L51.1472 41.0431C47.7742 39.0954 42.6703 38.8831 39.7484 40.571L19.2227 52.421L9.64082 54.6903V59.4891C9.63403 59.5961 9.63686 59.7048 9.64082 59.8118V59.8865H9.64478C9.73988 61.1176 10.6738 62.3941 12.4206 63.4022L38.7091 78.5805C42.0838 80.5282 47.1867 80.7405 50.1091 79.0537L78.2553 62.8022C79.6337 62.0074 80.2704 60.9308 80.215 59.8118Z" fill="#BFC3C7"/>
<path d="M78.2549 57.6808L50.1087 73.9324C47.1868 75.6186 42.084 75.4063 38.7087 73.4591L12.4207 58.282C9.04546 56.3331 8.6798 53.3874 11.6017 51.7001L39.7485 35.4497C42.6704 33.7624 47.7732 33.974 51.1468 35.9218L77.4364 51.1001C80.8111 53.0473 81.1768 55.9946 78.2549 57.6808Z" fill="#E9E8E7"/>
<path d="M62.7442 31.3422L28.937 12.0624C28.4746 11.7992 28.0155 11.798 27.6793 12.0601L25.8906 13.1299L26.254 13.6478L26.5693 14.3695L26.8857 14.5467L27.1874 14.9752V41.1352C27.1874 42.2831 27.9012 43.6241 28.7785 44.1244L60.3153 62.1097L62.0061 64.5148L63.6991 63.5005C64.0999 63.3001 64.3359 62.8014 64.3359 62.1369V34.332C64.3359 33.1841 63.6216 31.8431 62.7442 31.3422Z" fill="#0B1B2B"/>
<path d="M37.0591 55.1682L43.9138 51.2773C44.5783 50.898 45.6929 50.9416 46.4531 51.3746L50.6231 53.7537L52.6053 54.639V55.5452H52.5917C52.547 55.7801 52.3817 55.9873 52.1134 56.1407L43.6676 60.9395C43.3642 61.1127 42.9668 61.1976 42.5519 61.1976C42.0583 61.1976 41.541 61.0771 41.1278 60.8422L35.6383 57.7114C35.2387 57.4839 35.0044 57.1816 34.9772 56.8391C34.9767 56.8103 34.9761 56.7825 34.9772 56.7656V56.0297L37.0591 55.1682Z" fill="#0B1B2B"/>
<path d="M52.0357 55.3065L43.5893 60.1053C42.9791 60.4534 41.9132 60.4099 41.2091 60.008L35.7196 56.8772C35.0149 56.4753 34.9385 55.8674 35.5487 55.5199L43.9951 50.7204C44.6047 50.3729 45.6706 50.4165 46.3753 50.8183L51.8642 53.9491C52.5689 54.351 52.6453 54.9583 52.0357 55.3065Z" fill="#123155"/>
<path d="M35.7666 55.5798L39.1419 53.6621L46.9549 58.131L43.48 60.1048C42.8704 60.4529 41.8045 60.4093 41.0998 60.0074L36.6456 57.5797C36.2205 57.3368 35.4768 56.7142 35.3177 56.2381C35.213 55.9257 35.5249 55.718 35.7666 55.5798Z" fill="#CECDCC"/>
<path d="M51.956 55.167L43.5096 59.9659C42.9452 60.2885 41.9479 60.2449 41.2885 59.8685L35.799 56.7377C35.4803 56.556 35.2969 56.3274 35.2969 56.1094C35.2969 55.8927 35.4769 55.7449 35.6281 55.6589L44.0739 50.86C44.64 50.5374 45.6362 50.581 46.2956 50.9574L51.7845 54.0881C52.1037 54.2698 52.2871 54.4985 52.2871 54.7164C52.2871 54.9332 52.1071 55.081 51.956 55.167ZM42.553 60.5025C42.9679 60.5025 43.3652 60.417 43.6686 60.2443L52.1145 55.4455C52.4326 55.2644 52.6069 55.0051 52.6069 54.717C52.6069 54.3808 52.3658 54.0502 51.9441 53.8096L46.4541 50.6789C45.6939 50.2464 44.58 50.2028 43.9154 50.5815L35.4696 55.381C35.1515 55.5615 34.9766 55.8208 34.9766 56.1094C34.9766 56.4457 35.2188 56.7757 35.64 57.0162L41.1294 60.147C41.5426 60.3825 42.06 60.5025 42.553 60.5025Z" fill="#0B1B2B"/>
<path d="M26.12 12.9865C26.4472 12.7974 26.8565 12.824 27.2736 13.0623L61.0802 32.341C61.9576 32.8414 62.6714 34.1829 62.6714 35.3314V63.1368C62.6714 63.7583 62.4206 64.0357 62.2095 64.1574C62.0725 64.2372 61.91 64.2763 61.7295 64.2763C61.4431 64.2763 61.1119 64.1766 60.7689 63.9808L27.1146 45.1238C26.2372 44.6234 25.5234 43.2819 25.5234 42.134V14.3291C25.5234 13.6963 25.7408 13.2072 26.12 12.9865Z" fill="#123155"/>
<path d="M62.591 59.7647L25.5234 38.626V42.2724C25.5234 43.3439 26.2876 44.6526 27.2272 45.1881L60.8091 64.3394C61.0899 64.499 61.3638 64.5799 61.6134 64.5799C61.7985 64.5799 61.9695 64.5364 62.1217 64.4481C62.4766 64.242 62.6719 63.8254 62.6719 63.2741V59.8111L62.591 59.7647Z" fill="#CECDCC"/>
<path d="M60.393 33.7708L27.9601 15.275C27.779 15.1714 27.5984 15.1623 27.4501 15.2484C27.2832 15.3452 27.1875 15.5506 27.1875 15.8116V37.0493C27.1875 37.4948 27.4569 37.998 27.8011 38.1938L60.2345 56.6903C60.3335 56.7469 60.432 56.7746 60.5254 56.7746C60.603 56.7746 60.6771 56.7548 60.7445 56.7163C60.9109 56.6195 61.0066 56.4146 61.0066 56.1531V34.9148C61.0066 34.4699 60.7371 33.9672 60.393 33.7708Z" fill="#E9E8E7"/>
<path d="M48.9837 29.7758C48.9706 28.7003 48.8178 27.5796 48.5399 26.4571L50.4916 25.1728L49.5622 23.0173L48.6361 20.8658L46.2893 21.2173C45.6644 20.2341 44.9518 19.3369 44.174 18.5615L44.2488 15.4443L42.682 14.4741L41.1582 13.5299L39.8195 14.135L40.3482 15.5598L40.5644 15.5309L40.3912 16.1128C39.6056 15.8603 38.8567 15.7822 38.1684 15.866L36.6661 13.1733L36.4991 13.2758L36.5252 13.1733L35.3274 13.7779L35.3869 13.9562L34.5186 14.4882L35.4265 17.392C34.9957 17.915 34.6476 18.5615 34.3969 19.3165L32.5312 18.4182L31.1914 19.0233L32.3942 19.955L32.3869 20.0394L32.2454 21.626L33.9854 23.3677C34.0567 24.3016 34.2259 25.2543 34.4807 26.1967L33.2523 27.2224L33.9763 28.9398L34.702 30.6605L36.3412 30.5988C36.8456 31.4524 37.4195 32.2579 38.0524 32.9875L38.0682 35.4118L39.1131 36.2937L38.5335 36.6979L39.3022 38.1882L40.642 37.5837L41.3359 35.6835C42.0769 36.0735 42.8088 36.3198 43.5095 36.4182L44.5986 38.4169L44.4299 38.3999L44.6512 38.5143L45.0084 39.1698L45.6899 39.0469L46.2157 39.3175L47.5556 38.713L46.6386 35.7232C47.0337 35.4458 47.388 35.0847 47.6982 34.6516L49.2169 36.0639L50.5556 35.4594L50.954 33.7533L51.3633 32.0043L48.9837 29.7758ZM44.8324 29.2313C44.3761 31.7224 42.284 32.3201 40.218 30.7001C38.2273 29.1407 36.9033 26.0145 37.2033 23.5964C37.5129 21.0956 39.4493 20.1645 41.5924 21.6452C43.8242 23.1877 45.305 26.649 44.8324 29.2313Z" fill="#123155"/>
<path d="M47.6446 30.3809C47.6315 29.3049 47.4793 28.1847 47.2002 27.0622L49.1519 25.7773L48.223 23.6219L47.2964 21.4698L44.9496 21.8219C44.3253 20.8387 43.6121 19.9409 42.8344 19.1666L42.9091 16.0494L41.3423 15.0781L39.8191 14.1345L39.0527 16.7168C38.2664 16.4655 37.5176 16.3873 36.8293 16.47L35.327 13.7773L34.2351 14.447L33.1795 15.0922L34.0868 17.9972C33.6561 18.519 33.3091 19.166 33.0578 19.9217L31.1921 19.0234L31.0472 20.6439L30.9062 22.2311L32.6457 23.9722C32.717 24.9062 32.8868 25.8583 33.1415 26.8007L31.9127 27.827L32.6366 29.5443L33.3629 31.2651L35.0015 31.2034C35.5059 32.057 36.0798 32.8624 36.7132 33.5915L36.7285 36.0158L37.9998 37.0902L39.3017 38.1883L39.9963 36.2881C40.7372 36.6781 41.4696 36.9243 42.1698 37.0234L43.6698 39.7738L44.9208 39.549L46.2164 39.317L45.2989 36.3283C45.8621 35.9321 46.3461 35.3779 46.7293 34.6715L49.2159 36.0634L49.6144 34.3579L50.0247 32.6089L47.6446 30.3809ZM38.8783 31.3053C36.8876 29.7453 35.5636 26.619 35.8636 24.2015C36.1732 21.7002 38.1096 20.769 40.2532 22.2504C42.4846 23.7922 43.9653 27.2536 43.4927 29.8358C43.0364 32.327 40.9444 32.9241 38.8783 31.3053Z" fill="#2161AC"/>
<path d="M61.5806 28.7494C61.5727 28.1069 61.4815 27.4373 61.3151 26.766L62.4812 25.999L61.9264 24.7101L61.3723 23.4241L59.9697 23.6341C59.5961 23.046 59.1704 22.5105 58.7051 22.0469L58.7504 20.1835L57.8136 19.6039L56.9029 19.0396L56.1025 19.4007L56.4189 20.252L56.548 20.235L56.4449 20.5832C55.9746 20.4326 55.5274 20.3856 55.1153 20.4354L54.2176 18.8262L54.1174 18.8867L54.1338 18.8262L53.4172 19.1873L53.4534 19.2943L52.9344 19.6118L53.4766 21.3479C53.2191 21.6603 53.0113 22.0464 52.8619 22.4986L51.7463 21.9615L50.9453 22.3226L51.6636 22.8796L51.6602 22.9305L51.5753 23.8786L52.6146 24.9196C52.6576 25.4777 52.7595 26.0477 52.9117 26.6103L52.1764 27.2239L52.6095 28.2501L53.0436 29.2792L54.0234 29.2418C54.3246 29.7518 54.6681 30.2335 55.0463 30.6694L55.0559 32.1184L55.7159 32.676L55.3338 32.8871L55.7929 33.7786L56.5932 33.4169L57.0087 32.2809C57.4519 32.5141 57.8895 32.6613 58.3083 32.7207L58.9593 33.915L58.8585 33.9043L58.991 33.9733L59.2044 34.3645L59.6113 34.2909L59.9261 34.4528L60.7264 34.0916L60.178 32.3047C60.414 32.1382 60.6263 31.9232 60.8119 31.6639L61.7198 32.5084L62.5202 32.1467L62.758 31.1273L63.003 30.0818L61.5806 28.7494ZM59.0985 28.4245C58.8263 29.9137 57.5759 30.2709 56.3408 29.3024C55.1515 28.3701 54.3591 26.5016 54.5391 25.0565C54.7242 23.5611 55.8817 23.0052 57.1627 23.8899C58.4963 24.8115 59.381 26.8803 59.0985 28.4245Z" fill="#123155"/>
<path d="M60.7826 29.1113C60.7741 28.4677 60.6836 27.7986 60.5172 27.1273L61.6832 26.3603L61.1279 25.0709L60.5743 23.7854L59.1722 23.9954C58.7981 23.4079 58.3724 22.8713 57.9072 22.4088L57.9524 20.5449L57.0156 19.9647L56.1043 19.4009L55.647 20.9439C55.1766 20.7939 54.73 20.7475 54.3173 20.7967L53.4202 19.1875L52.767 19.5871L52.1364 19.9726L52.6787 21.7098C52.4211 22.0217 52.2134 22.4077 52.0634 22.86L50.9483 22.3222L50.8617 23.2913L50.7773 24.2405L51.8166 25.2803C51.8596 25.8396 51.9615 26.4084 52.1143 26.9717L51.3796 27.5847L51.8115 28.6115L52.2456 29.64L53.2255 29.6032C53.5272 30.1137 53.8702 30.5943 54.2483 31.0313L54.2579 32.4798L55.017 33.1211L55.7953 33.7783L56.2107 32.6422C56.6534 32.8749 57.0915 33.0226 57.5104 33.0815L58.4064 34.7252L59.1541 34.5917L59.9285 34.453L59.38 32.6666C59.7168 32.4294 60.0066 32.0988 60.2353 31.676L61.7217 32.5086L61.96 31.4886L62.2051 30.4432L60.7826 29.1113ZM55.5428 29.6643C54.3536 28.7315 53.5611 26.8624 53.7411 25.4179C53.9262 23.9224 55.0832 23.366 56.3647 24.2518C57.6983 25.1733 58.583 27.2416 58.3006 28.7858C58.0283 30.2745 56.7779 30.6316 55.5428 29.6643Z" fill="#ADADAD"/>
<path d="M57.3004 42.4124C57.2942 41.9511 57.2285 41.4705 57.1097 40.9888L57.9468 40.4381L57.5478 39.5132L57.1504 38.5905L56.144 38.7417C55.8757 38.3194 55.57 37.9345 55.2366 37.6017L55.2683 36.2647L54.597 35.8481L53.9433 35.4439L53.3693 35.7026L53.5951 36.3145L53.688 36.302L53.6138 36.5517C53.2776 36.4435 52.9561 36.4102 52.6612 36.4458L52.0165 35.2905L51.9446 35.3347L51.9559 35.2905L51.4414 35.5498L51.4674 35.6268L51.0955 35.8543L51.4844 37.1002C51.2993 37.3249 51.151 37.6017 51.0434 37.926L50.2419 37.5411L49.668 37.8003L50.1836 38.2L50.1802 38.2356L50.1197 38.9166L50.8657 39.6637C50.8968 40.0651 50.9687 40.472 51.0785 40.8768L50.5516 41.3171L50.8623 42.0541L51.1736 42.7922L51.8766 42.7656C52.0929 43.1318 52.3391 43.4771 52.6108 43.7902L52.6182 44.83L53.0433 45.1894L52.8174 45.3818L53.1474 46.0209L53.7214 45.7617L54.0191 44.9471C54.3378 45.1135 54.6514 45.2194 54.9514 45.2619L55.4189 46.1194L55.3465 46.112L55.4416 46.1607L55.595 46.442L55.887 46.39L56.1123 46.5054L56.6868 46.2462L56.294 44.9635C56.4633 44.8447 56.6155 44.6896 56.7485 44.5045L57.4 45.1102L57.974 44.8509L58.1455 44.119L58.321 43.3679L57.3004 42.4124ZM55.5191 42.1792C55.3233 43.2485 54.4261 43.5037 53.5397 42.8092C52.6861 42.1402 52.1178 40.7986 52.2463 39.7617C52.3793 38.689 53.2102 38.2894 54.1289 38.9256C55.0866 39.5868 55.7217 41.0709 55.5191 42.1792Z" fill="#123155"/>
<path d="M56.7232 42.6722C56.7169 42.2103 56.6524 41.7297 56.5324 41.248L57.3701 40.6978L56.9711 39.7729L56.5743 38.8497L55.5673 39.0009C55.2996 38.5792 54.9939 38.1937 54.6594 37.8614L54.6922 36.5244L54.0198 36.1078L53.3666 35.7026L53.0377 36.8114C52.7003 36.7022 52.3794 36.6693 52.0839 36.705L51.4392 35.5503L50.9711 35.8367L50.5183 36.1141L50.9077 37.3599C50.722 37.5841 50.5737 37.8614 50.4662 38.1858L49.6658 37.7997L49.6035 38.4954L49.543 39.1758L50.2896 39.9229C50.3196 40.3237 50.3926 40.7318 50.5024 41.1365L49.9743 41.5763L50.2856 42.3133L50.5969 43.052L51.2999 43.0248C51.5162 43.3916 51.7624 43.7363 52.0341 44.0493L52.0409 45.0897L52.5854 45.5499L53.1447 46.0214L53.4424 45.2063C53.7605 45.3733 54.0741 45.4786 54.3752 45.521L55.0177 46.7012L55.5549 46.605L56.1107 46.5054L55.7173 45.2233C55.9579 45.0535 56.1667 44.8158 56.3315 44.5129L57.3973 45.1101L57.5688 44.3788L57.7443 43.6277L56.7232 42.6722ZM52.9624 43.0684C52.1094 42.3999 51.5405 41.0584 51.669 40.0209C51.8032 38.9488 52.633 38.5486 53.5528 39.1843C54.5094 39.8454 55.145 41.3301 54.9424 42.4384C54.7471 43.5071 53.8494 43.7635 52.9624 43.0684Z" fill="#CECDCC"/>
</svg>
