<svg width="90" height="90" viewBox="0 0 90 90" fill="none" xmlns="http://www.w3.org/2000/svg">
<g clip-path="url(#clip0_406_2712)">
<path d="M90 0H0V90H90V0Z" fill="white"/>
<path d="M80.2146 59.8113H80.2248V54.9502L71.1863 52.6124L51.1469 41.0426C47.7738 39.0949 42.6704 38.8826 39.7486 40.5705L19.2223 52.4205L9.64101 54.6898V59.4887C9.63421 59.5956 9.63648 59.7043 9.64101 59.8113V59.886H9.6444C9.7395 61.1171 10.6735 62.3936 12.4208 63.4017L38.7087 78.58C42.084 80.5277 47.1869 80.74 50.1087 79.0532L78.255 62.8017C79.6333 62.007 80.2706 60.9304 80.2146 59.8113Z" fill="#BFC3C7"/>
<path d="M78.2553 57.6804L50.1085 73.9319C47.1866 75.6181 42.0838 75.4058 38.709 73.4587L12.4205 58.2815C9.04583 56.3326 8.67961 53.387 11.6015 51.6996L39.7483 35.4492C42.6702 33.7619 47.773 33.9736 51.1466 35.9213L77.4362 51.0996C80.8109 53.0468 81.1772 55.9941 78.2553 57.6804Z" fill="#E9E8E7"/>
<path d="M25.6168 40.7683L43.5489 30.3481L43.5331 35.918L25.6016 46.3387L25.6168 40.7683Z" fill="#ADADAD"/>
<path d="M33.7614 45.4695L51.6935 35.0493L51.6776 40.6191L33.7461 51.0399L33.7614 45.4695Z" fill="#ADADAD"/>
<path d="M41.9041 50.1708L59.8362 39.75L59.7909 55.6557L41.8594 66.077L41.9041 50.1708Z" fill="#ADADAD"/>
<path d="M41.9052 50.171L41.8605 66.0772C33.662 61.3435 25.4652 56.6114 17.2695 51.8793L17.2978 41.6906L25.6197 40.7686L25.6039 46.3384L33.7622 45.4695L33.7469 51.0399L41.9052 50.171Z" fill="#0109C4"/>
<path d="M20.5454 51.8917L18.9526 50.9719L18.969 45.286L20.5607 46.2058L20.5454 51.8917ZM22.4637 52.9994L20.928 52.113L20.9439 46.4266L22.4795 47.313L22.4637 52.9994ZM24.3893 54.1106L22.8458 53.2202L22.8627 47.5343L24.4052 48.4247L24.3893 54.1106ZM26.3744 55.2574L24.7867 54.3409L24.8026 48.6551L26.3903 49.5709L26.3744 55.2574ZM28.2922 56.3645L26.7571 55.4775L26.7729 49.7917L28.3086 50.6787L28.2922 56.3645ZM30.2184 57.4768L28.6754 56.5853L28.6912 50.8994L30.2343 51.7904L30.2184 57.4768ZM32.2035 58.6253L30.6158 57.7089L30.6316 52.023L32.2193 52.9394L32.2035 58.6253ZM32.602 53.1607L34.1399 54.0483L34.1241 59.7347L32.5856 58.846L32.602 53.1607ZM36.0475 60.8447L34.5039 59.9538L34.5197 54.2679L36.0633 55.1589L36.0475 60.8447ZM38.032 61.9904L36.4448 61.074L36.4607 55.3881L38.0484 56.3045L38.032 61.9904ZM39.9531 63.0998L38.4146 62.2117L38.431 56.5258L39.969 57.414L39.9531 63.0998ZM41.881 64.2126L40.3358 63.3206L40.3516 57.6347L41.8975 58.5268L41.881 64.2126ZM18.7675 44.7109L18.5767 44.8213L18.5586 51.2045C26.4027 55.7328 34.2384 60.2606 42.0826 64.7889L42.2733 64.6774L42.2914 58.2947C34.4495 53.7675 26.6088 49.2381 18.7675 44.7109Z" fill="#E2E9EE"/>
<path d="M25.605 39.7552L43.537 29.3345L43.5336 30.513L25.6016 40.9337L25.605 39.7552Z" fill="#ADADAD"/>
<path d="M17.2852 40.6773L35.2172 30.2565L43.5386 29.3345L25.6065 39.7552L17.2852 40.6773Z" fill="#CECDCC"/>
<path d="M25.606 39.7549L25.6026 40.9334L17.2812 41.8554L17.2846 40.677L25.606 39.7549Z" fill="#0109C4"/>
<path d="M33.7495 44.4564L51.6816 34.0356L51.6782 35.2141L33.7461 45.6349L33.7495 44.4564Z" fill="#ADADAD"/>
<path d="M25.5898 45.3253L43.5214 34.9045L51.6802 34.0356L33.7481 44.4564L25.5898 45.3253Z" fill="#CECDCC"/>
<path d="M33.7482 44.4565L33.7448 45.635L25.5859 46.5039L25.5899 45.3254L33.7482 44.4565Z" fill="#0109C4"/>
<path d="M33.7344 50.0264L51.6659 39.6057L59.8248 38.7368L41.8927 49.1576L33.7344 50.0264Z" fill="#CECDCC"/>
<path d="M41.8901 49.1576L59.8222 38.7368L59.8188 39.9153L41.8867 50.3361L41.8901 49.1576Z" fill="#5D3839"/>
<path d="M35.546 41.6987L44.1458 46.6634L44.1272 48.1374L35.5273 48.9876L35.546 41.6987Z" fill="#0109C4"/>
<path d="M44.1437 46.6638L58.2329 38.4761L58.2142 43.2212L44.125 51.4089L44.1437 46.6638Z" fill="#0109C4"/>
<path d="M35.5435 40.7952L49.6328 32.6074L49.6322 32.7835L35.543 40.9712L35.5435 40.7952Z" fill="#A2AAB1"/>
<path d="M35.543 40.9709L49.6322 32.7832L58.232 37.7485L44.1428 45.9362L35.543 40.9709Z" fill="#B5BEC5"/>
<path d="M44.1457 45.5315L58.2355 37.3438L58.2338 38.4758L44.1445 46.6636L44.1457 45.5315Z" fill="#0109C4"/>
<path d="M35.5469 40.5662L49.6361 32.3784L58.2365 37.3443L44.1467 45.5314L35.5469 40.5662Z" fill="#CECDCC"/>
<path d="M44.1439 45.5317L44.1428 46.6638L35.543 41.699L35.5435 40.7957L35.5441 40.5664L44.1439 45.5317Z" fill="#0109C4"/>
<path d="M33.7339 50.0266L41.8922 49.1577L41.8888 50.3362L33.7305 51.2051L33.7339 50.0266Z" fill="#0109C4"/>
<path d="M49.4988 24.6941C48.4285 24.0545 46.6698 24.037 45.5694 24.6545C44.4679 25.2721 44.443 26.2909 45.5128 26.93C46.5832 27.5696 48.3424 27.5877 49.4422 26.9702C50.5437 26.3526 50.5686 25.3332 49.4988 24.6941Z" fill="#0109C4"/>
<path d="M52.1207 38.4891C52.1207 38.4777 52.1196 38.4681 52.1202 38.4568C52.1219 38.407 52.1213 38.3583 52.1185 38.3085C52.1179 38.2977 52.119 38.2875 52.1179 38.2768C52.1173 38.2706 52.1162 38.2649 52.1156 38.2587C52.11 38.1998 52.1032 38.1421 52.0907 38.0832L50.4226 25.5341C50.4226 25.5375 50.4226 25.5409 50.4232 25.5438C50.4226 25.5381 50.422 25.5319 50.4209 25.5262C50.4164 25.507 50.4124 25.4877 50.409 25.4691C50.4203 25.524 50.4254 25.5794 50.4271 25.6349C50.4283 25.6502 50.4288 25.6655 50.4288 25.6808C50.4283 25.7374 50.4249 25.794 50.4147 25.85C50.4141 25.8528 50.4136 25.8551 50.413 25.8579C50.4034 25.9111 50.3875 25.9649 50.3683 26.0187C50.3632 26.0345 50.3569 26.0498 50.3502 26.0657C50.3326 26.1098 50.3111 26.1528 50.2873 26.1958C50.28 26.21 50.2732 26.223 50.2652 26.2366C50.2319 26.2932 50.1934 26.3487 50.1492 26.4024C50.1351 26.4194 50.1175 26.4347 50.1039 26.4506C50.0671 26.4919 50.0309 26.5321 49.9879 26.5711C49.9805 26.5791 49.9709 26.5864 49.9624 26.5938C49.9143 26.6374 49.8622 26.6792 49.8062 26.72C49.7926 26.7307 49.7785 26.7409 49.7643 26.7511C49.6952 26.7992 49.6234 26.8462 49.5441 26.8904C49.4773 26.9277 49.4071 26.9628 49.3358 26.9957C49.3126 27.0064 49.2883 27.016 49.2645 27.0268C49.2152 27.0483 49.1649 27.0692 49.1139 27.0885C49.0856 27.0992 49.0573 27.1094 49.0285 27.1196C48.9792 27.1366 48.9288 27.1536 48.8779 27.1689C48.849 27.1779 48.8196 27.1864 48.7907 27.1949C48.7579 27.204 48.7245 27.2124 48.6911 27.2209C48.5869 27.2475 48.48 27.2708 48.3719 27.29C48.3532 27.2934 48.3356 27.2979 48.3164 27.3002C48.2405 27.3132 48.1641 27.3223 48.0866 27.3319C48.0668 27.3341 48.0475 27.3375 48.0283 27.3392C48 27.3426 47.9722 27.3438 47.9445 27.3455C47.8811 27.3511 47.8171 27.3568 47.7543 27.3596C47.73 27.3607 47.7051 27.3607 47.6802 27.3619C47.6168 27.3641 47.5522 27.3653 47.4877 27.3653C47.4588 27.3647 47.43 27.3641 47.4005 27.363C47.3422 27.3619 47.2834 27.3596 47.2256 27.3562C47.1951 27.3545 47.1639 27.3523 47.1334 27.35C47.0762 27.3455 47.0179 27.3404 46.9607 27.3341C46.9324 27.3307 46.9041 27.3279 46.8764 27.324C46.8073 27.3155 46.74 27.3047 46.672 27.2934C46.6568 27.2906 46.6409 27.2883 46.6251 27.2855C46.543 27.2708 46.4609 27.2526 46.3794 27.2334C46.3551 27.2272 46.3313 27.2204 46.3069 27.2136C46.2509 27.1989 46.1943 27.1836 46.14 27.1666C46.1049 27.1564 46.0703 27.144 46.0364 27.1326C45.9911 27.1168 45.9469 27.1021 45.9039 27.0857C45.8575 27.0675 45.8117 27.0477 45.7669 27.0285C45.7324 27.0138 45.6968 26.9991 45.6634 26.9832C45.5751 26.9413 45.489 26.8972 45.4075 26.8485C45.3628 26.8213 45.3237 26.7924 45.2824 26.7647C45.2485 26.7409 45.2117 26.7189 45.18 26.6951C45.1426 26.6668 45.1115 26.6374 45.0781 26.6079C45.0498 26.5836 45.0181 26.5598 44.992 26.5343C44.9615 26.5038 44.936 26.4726 44.9083 26.4415C44.8856 26.416 44.8602 26.3911 44.8398 26.3651C44.8149 26.3323 44.7956 26.2994 44.7736 26.2666C44.7566 26.2406 44.7368 26.2151 44.7226 26.1891C44.7034 26.1551 44.6903 26.12 44.6756 26.086C44.6637 26.06 44.649 26.034 44.64 26.0074C44.6269 25.9711 44.6196 25.9332 44.6111 25.8964C44.6054 25.8721 44.5964 25.8483 44.5924 25.8234C44.5862 25.7826 44.5856 25.7413 44.5845 25.7006C44.5839 25.6796 44.58 25.6587 44.5805 25.6377C44.5822 25.576 44.5896 25.5138 44.6032 25.4526L44.5902 25.5098C44.5839 25.5421 44.5822 25.5749 44.5783 25.6072C44.5822 25.5772 44.5828 25.5477 44.5885 25.5177C44.0173 28.2438 43.4456 35.3311 42.8739 38.0572C42.7103 38.836 43.1354 39.6506 44.1532 40.2591C44.1566 40.2613 44.1605 40.263 44.1639 40.2658C44.2607 40.323 44.3626 40.3762 44.4656 40.4283C44.4911 40.4402 44.5166 40.4532 44.5426 40.4651C44.5703 40.4792 44.5981 40.4934 44.6264 40.5058C44.6632 40.5234 44.7034 40.5364 44.7413 40.5528C44.8126 40.5834 44.8845 40.6134 44.9581 40.6411C44.983 40.6502 45.0056 40.6615 45.0305 40.6706C45.0735 40.6864 45.1183 40.6989 45.1613 40.7136C45.2173 40.7323 45.2728 40.7509 45.33 40.7679C45.3537 40.7758 45.3764 40.7843 45.4002 40.7911C45.4568 40.8081 45.5156 40.8217 45.5734 40.837C45.6198 40.8494 45.6656 40.8619 45.7132 40.8732C45.7273 40.8772 45.742 40.8817 45.7573 40.8845C45.8558 40.9083 45.956 40.9281 46.0568 40.9468C46.072 40.9502 46.0868 40.9536 46.1026 40.9558C46.1026 40.9558 46.1066 40.957 46.1088 40.9575C46.2249 40.9785 46.342 40.9972 46.4603 41.0124C46.4734 41.0141 46.4869 41.0153 46.5 41.017C46.5402 41.0221 46.5798 41.0249 46.62 41.0294C46.6851 41.0368 46.7502 41.0453 46.8152 41.0509C46.8458 41.0532 46.8764 41.0543 46.9064 41.0566C46.9556 41.0606 47.0049 41.0634 47.0547 41.0662C47.0966 41.0685 47.1379 41.0719 47.1798 41.0736C47.2268 41.0753 47.2737 41.0747 47.3207 41.0758C47.3728 41.077 47.4249 41.0781 47.4775 41.0781C47.5041 41.0781 47.5307 41.0798 47.5568 41.0798C47.6179 41.0792 47.6779 41.0753 47.739 41.0741C47.7939 41.0719 47.8494 41.0713 47.9043 41.0691C47.9213 41.0679 47.9383 41.0679 47.9552 41.0668C48.0164 41.0634 48.0769 41.0566 48.1381 41.0515C48.2066 41.0458 48.2762 41.0413 48.3441 41.034C48.3588 41.0323 48.373 41.0323 48.3871 41.03C48.4296 41.0255 48.4703 41.0175 48.5122 41.0119C48.6158 40.9989 48.7183 40.9841 48.8202 40.9666C48.8428 40.9626 48.8654 40.9609 48.8881 40.957C48.9481 40.9457 49.0058 40.9321 49.0652 40.9202C49.1111 40.91 49.1575 40.9015 49.2028 40.8913C49.3103 40.8664 49.4162 40.8387 49.5209 40.8092C49.5436 40.803 49.5668 40.7979 49.5888 40.7911C49.5922 40.79 49.5951 40.7894 49.5985 40.7883C49.7162 40.7543 49.8311 40.7153 49.9449 40.674C49.9777 40.6626 50.0094 40.6496 50.0417 40.6372C50.1283 40.6038 50.2143 40.5687 50.2981 40.5313C50.3315 40.5172 50.3637 40.503 50.3954 40.4877C50.5052 40.4362 50.6134 40.3836 50.7169 40.3253C50.782 40.2891 50.8449 40.2517 50.9054 40.2132L50.9071 40.2121C50.9886 40.1606 51.0645 40.1079 51.1369 40.0547C51.1556 40.04 51.1743 40.0264 51.193 40.0117C51.2541 39.9647 51.3119 39.9172 51.3673 39.8691C51.3747 39.8623 51.3837 39.856 51.3911 39.8492L51.4002 39.8407C51.4234 39.8198 51.4443 39.7983 51.4664 39.7768C51.4902 39.7536 51.5145 39.7309 51.5371 39.7077C51.5575 39.6862 51.5768 39.6641 51.5966 39.6415C51.6147 39.6217 51.6345 39.6024 51.6515 39.5821C51.6543 39.5787 51.6571 39.5747 51.6605 39.5702C51.6713 39.5577 51.682 39.5436 51.6922 39.53C51.716 39.5 51.7392 39.4706 51.7613 39.4406C51.7732 39.4236 51.7845 39.4077 51.7958 39.3913C51.806 39.376 51.8179 39.3607 51.8269 39.3455C51.832 39.3381 51.8354 39.3302 51.8405 39.3228C51.8807 39.2577 51.9186 39.1932 51.9503 39.1275L51.9526 39.123C51.9549 39.1179 51.9566 39.1128 51.9594 39.1072C51.986 39.05 52.0092 38.9928 52.029 38.9351C52.0319 38.926 52.0369 38.9181 52.0392 38.9091C52.042 38.9006 52.0432 38.8915 52.046 38.883C52.063 38.8287 52.0783 38.7732 52.089 38.7172C52.0907 38.7115 52.093 38.7047 52.0947 38.6985C52.0947 38.6985 52.0947 38.6957 52.0952 38.6934C52.1071 38.6317 52.1139 38.5694 52.1179 38.5066C52.1185 38.5009 52.1202 38.4947 52.1207 38.4891Z" fill="#0109C4"/>
<path d="M49.2306 26.6605C48.2514 27.1886 46.6863 27.1727 45.7342 26.6265C44.7827 26.0803 44.8048 25.2097 45.784 24.6822C46.7633 24.1546 48.3284 24.1699 49.2804 24.7156C50.2325 25.2624 50.2093 26.1329 49.2306 26.6605ZM49.6048 24.4942C48.4789 23.8212 46.6263 23.8025 45.4687 24.4529C44.3101 25.1027 44.2835 26.1759 45.4093 26.8484C46.5352 27.5214 48.3878 27.5407 49.5465 26.8903C50.7046 26.2405 50.7306 25.1673 49.6048 24.4942Z" fill="#CECDCC"/>
<path d="M69.5769 35.2754L48.9766 47.2261V71.7344L69.5769 59.8335V35.2754Z" fill="#0109C4"/>
<path d="M48.9797 47.1914L41.7519 43.0186L41.6025 43.6689L41.6036 43.6701L41.6031 43.6972L41.5046 65.848V65.8486L41.4961 67.3491L48.9797 71.7342V47.1914Z" fill="#0109C4"/>
<path d="M62.3668 31.0693L41.7557 42.9941L41.75 43.0184L48.9777 47.2405L69.5668 35.2756L62.3668 31.0693Z" fill="#CECDCC"/>
<path d="M45.9306 58.1177L46.898 58.6758L46.8889 61.9486L45.9204 61.3899L45.9306 58.1177ZM44.6853 57.3982L45.6459 57.9529L45.6368 61.2258L44.6757 60.6705L44.6853 57.3982ZM43.4044 56.659L44.4006 57.2341L44.3916 60.5069L43.3948 59.9313L43.4044 56.659ZM47.1787 62.2424L47.1895 58.5343L43.2725 56.2729L43.1123 56.3663L43.1016 60.0739L47.0185 62.3352L47.1787 62.2424Z" fill="#E2E9EE"/>
<path d="M44.701 52.2169L45.6621 52.7711L45.653 56.0439L44.6913 55.4886L44.701 52.2169ZM43.42 51.4771L44.4168 52.0528L44.4072 55.325L43.411 54.7499L43.42 51.4771ZM46.9051 56.7667L45.9378 56.2086L45.9462 52.9358L46.9142 53.4944L46.9051 56.7667ZM43.1285 51.1822L43.1172 54.8897L47.0347 57.1511L47.1944 57.0588L47.2051 53.3507L43.2881 51.0894L43.1285 51.1822Z" fill="#E2E9EE"/>
<path d="M44.701 62.7179L45.6621 63.2726L45.653 66.5449L44.6913 65.9901L44.701 62.7179ZM43.42 61.9781L44.4168 62.5537L44.4072 65.826L43.411 65.2509L43.42 61.9781ZM46.9045 67.2683L45.9372 66.709L45.9462 63.4367L46.9142 63.996L46.9045 67.2683ZM43.1285 61.6837L43.1172 65.3907L47.0347 67.6526L47.1944 67.5586L47.2051 63.8517L43.2881 61.5903L43.1285 61.6837Z" fill="#E2E9EE"/>
<path d="M44.9772 47.0245L45.9389 47.5792L45.9298 50.8521L44.9681 50.2968L44.9772 47.0245ZM43.6968 46.2847L44.6936 46.8609L44.6834 50.1326L43.6877 49.5575L43.6968 46.2847ZM47.1813 51.5749L46.214 51.0162L46.223 47.7434L47.1904 48.3021L47.1813 51.5749ZM43.4047 45.9904L43.3945 49.6979L47.3109 51.9592L47.4706 51.8664L47.4819 48.1583L43.5649 45.897L43.4047 45.9904Z" fill="#E2E9EE"/>
<path d="M62.8924 36.2915L62.8799 37.7468L59.7305 39.5774L59.7424 38.1215L62.8924 36.2915Z" fill="#0109C4"/>
<path d="M59.7425 38.1216L59.7306 39.5768L55.1445 36.9295L55.1564 35.4736L59.7425 38.1216Z" fill="#0109C4"/>
<path d="M62.8923 36.2915L59.7423 38.1215L55.1562 35.4741L58.3057 33.6436L62.8923 36.2915Z" fill="#CECDCC"/>
<path d="M58.3728 38.939L58.3609 40.3948L55.2109 42.2254L55.2234 40.769L58.3728 38.939Z" fill="#0109C4"/>
<path d="M55.2229 40.7695L55.211 42.2254L50.625 39.5774L50.6369 38.1216L55.2229 40.7695Z" fill="#0109C4"/>
<path d="M58.3722 38.9389L55.2228 40.7689L50.6367 38.1216L53.7856 36.291L58.3722 38.9389Z" fill="#CECDCC"/>
</g>
<defs>
<clipPath id="clip0_406_2712">
<rect width="90" height="90" fill="white"/>
</clipPath>
</defs>
</svg>
