<svg width="80" height="80" viewBox="0 0 80 80" fill="none" xmlns="http://www.w3.org/2000/svg">
<g clip-path="url(#clip0_406_806)">
<path d="M0 0H80V80H0V0Z" fill="white"/>
<path d="M0 79.869H79.869V0H0V79.869Z" fill="#FEFEFE"/>
<path d="M63.2769 46.767L45.4659 36.483C42.4659 34.751 37.9309 34.563 35.3329 36.063L17.0869 46.596L8.57094 48.614V52.879C8.56394 52.974 8.56594 53.07 8.57094 53.166V53.232H8.57394C8.65794 54.326 9.48794 55.462 11.0409 56.357L34.4089 69.849C37.4089 71.58 41.9449 71.769 44.5419 70.269L47.1869 68.742L69.5609 55.824C70.7849 55.118 71.3509 54.16 71.3029 53.166H71.3109V48.845L63.2769 46.767Z" fill="#0109C4"/>
<path d="M69.5599 51.2722L44.5399 65.7182C41.9429 67.2162 37.4069 67.0282 34.4079 65.2972L11.0399 51.8072C8.03985 50.0742 7.71485 47.4552 10.3129 45.9562L35.3309 31.5112C37.9289 30.0112 42.4649 30.1992 45.4629 31.9312L68.8319 45.4222C71.8319 47.1532 72.1569 49.7722 69.5599 51.2722Z" fill="#E9E8E7"/>
<path fill-rule="evenodd" clip-rule="evenodd" d="M47.9768 34.8099L51.0538 37.0579L51.5508 42.611L51.3578 46.264L49.0078 44.5439C48.9758 44.5209 48.9528 44.4919 48.9348 44.4599C48.8948 44.4289 48.8488 44.3519 48.8518 44.1929C48.9668 38.1129 48.4218 35.7149 47.9428 34.7729C47.9518 34.7879 47.9628 34.7989 47.9768 34.8099Z" fill="#CECDCC"/>
<path fill-rule="evenodd" clip-rule="evenodd" d="M48.4291 30.4848L50.7791 32.2048L50.7891 36.8638L47.9791 34.8108C47.9421 34.7828 47.9271 34.7418 47.9321 34.6938L47.9541 34.4788L47.9771 34.2658L47.9991 34.0508L48.0221 33.8368L48.0441 33.6228L48.0661 33.4078L48.0881 33.1948L48.1101 32.9798L48.1321 32.7658L48.1541 32.5528L48.1771 32.3388L48.1991 32.1258L48.2211 31.9138L48.2431 31.7018L48.2651 31.4918L48.2871 31.2808L48.3091 31.0708L48.3301 30.8608L48.3521 30.6528L48.3741 30.4448L48.4291 30.4848Z" fill="#CECDCC"/>
<path fill-rule="evenodd" clip-rule="evenodd" d="M55.399 30.168C55.439 30.198 55.449 30.264 55.436 30.352C55.43 30.445 55.204 32.633 55.141 33.253C55.109 33.589 55.024 34.477 55.155 35.413C55.295 36.405 55.62 37.353 55.851 38.323C56.271 40.083 56.325 41.005 56.361 41.616C56.362 41.635 56.46 43.523 56.187 44.006C55.567 45.104 52.237 46.807 51.361 46.264C51.289 46.211 51.251 46.134 51.253 46.027C51.454 38.547 50.386 36.631 50.33 36.531L50.78 32.205L55.399 30.168Z" fill="#ADADAD"/>
<path fill-rule="evenodd" clip-rule="evenodd" d="M54.7908 33.5618C54.6708 34.7288 54.6728 35.7808 54.9808 36.7698C55.5658 39.0698 56.2398 41.2218 55.9568 43.9668C55.9948 44.1038 54.9658 44.9098 53.7668 45.4468C52.7078 45.9138 51.9728 45.9608 52.0248 45.9128C52.2348 38.3348 51.1248 36.3288 51.1148 36.3108L51.4878 32.7208L55.0378 31.1548L54.7908 33.5618Z" fill="#ADADAD"/>
<path fill-rule="evenodd" clip-rule="evenodd" d="M61.982 24.2728C61.775 26.2728 60.844 27.7398 59.218 28.6418L53.263 16.0558C54.466 15.5378 56.353 15.2318 58.514 16.7148C59.917 17.6768 62.227 20.3518 61.982 24.2728Z" fill="#0109C4"/>
<path fill-rule="evenodd" clip-rule="evenodd" d="M53.2647 16.0555C54.1927 15.6395 55.3917 15.8255 56.6467 16.7095C59.2017 18.5095 61.0357 22.5245 60.7427 25.6755C60.5927 27.2775 59.9227 28.3475 58.9637 28.7775L51.4017 32.1575L45.7017 19.4365L53.2657 16.0555H53.2647Z" fill="#CECDCC"/>
<path fill-rule="evenodd" clip-rule="evenodd" d="M43.9209 22.5378C44.1209 20.3988 45.2499 19.2078 46.7529 19.2248C47.4649 19.2348 48.2599 19.5128 49.0809 20.0908C49.8609 20.6408 50.5719 21.3948 51.1779 22.2688C51.5629 22.8238 51.9039 23.4268 52.1919 24.0548C52.9359 25.6808 53.3239 27.4778 53.1759 29.0568C52.8819 32.2078 50.5719 33.3038 48.0169 31.5038C45.4609 29.7038 43.6269 25.6898 43.9209 22.5378Z" fill="#0109C4"/>
<path fill-rule="evenodd" clip-rule="evenodd" d="M30.8274 20.3899C31.3954 20.6729 32.0294 20.9099 32.6864 21.1059C34.0184 21.5009 35.7024 21.8039 37.4244 21.8229C37.7674 21.8209 38.3874 21.8169 39.0874 21.7699C39.7064 21.7229 40.2184 21.6549 40.6074 21.5909L40.7714 21.5609C41.2174 21.4709 41.6304 21.3879 42.0584 21.2829L42.1594 21.2569L42.2214 21.2419C43.1514 20.9999 43.7574 20.7539 44.7744 20.3419L45.3614 20.0719C46.2214 19.6869 47.3314 19.8589 48.4984 20.6799C50.8684 22.3499 52.5684 26.0709 52.2954 28.9949C52.1564 30.4799 51.5354 31.4719 50.6464 31.8709L50.0594 32.1399C48.2844 32.9629 47.4894 33.5599 46.4854 34.3149C45.4604 35.0869 44.4224 36.2389 44.0324 36.6729C43.1424 37.6589 41.4524 39.9929 40.7464 42.4829C40.7624 42.3989 40.7794 42.2879 40.7934 42.2049C40.8314 41.9429 24.0634 19.4799 23.7344 19.3259C25.6974 18.4469 28.1894 18.7439 30.8274 20.3899Z" fill="#CECDCC"/>
<path fill-rule="evenodd" clip-rule="evenodd" d="M39.7144 42.2749C38.9554 49.4649 33.6004 51.8449 27.7544 47.5929C21.9084 43.3409 17.7844 34.0659 18.5444 26.8779C19.3034 19.6889 24.6584 17.3079 30.5044 21.5599C36.3504 25.8129 40.4744 35.0859 39.7144 42.2749Z" fill="#0109C4"/>
<path fill-rule="evenodd" clip-rule="evenodd" d="M23.6918 19.3718C25.8658 18.3628 28.6978 18.8158 31.6568 20.9678C37.5028 25.2188 41.6268 34.4938 40.8668 41.6828C40.4918 45.2338 38.9958 47.6108 36.8718 48.5968L35.7738 49.0848C37.8978 48.0998 39.3938 45.7218 39.7688 42.1708C40.5288 34.9828 36.4048 25.7078 30.5588 21.4558C27.6008 19.3038 24.7688 18.8518 22.5938 19.8598L23.6918 19.3718Z" fill="#E9E8E7"/>
<mask id="mask0_406_806" style="mask-type:luminance" maskUnits="userSpaceOnUse" x="18" y="19" width="22" height="31">
<path d="M30.5044 21.5577C36.3504 25.8107 40.4744 35.0847 39.7144 42.2727C38.9564 49.4627 33.6004 51.8427 27.7544 47.5907C21.9084 43.3387 17.7844 34.0657 18.5444 26.8757C19.0484 22.1027 21.5784 19.4497 24.9324 19.4497C26.6304 19.4497 28.5394 20.1297 30.5044 21.5577Z" fill="#0061B2"/>
</mask>
<g mask="url(#mask0_406_806)">
<path fill-rule="evenodd" clip-rule="evenodd" d="M40.9679 40.4775C40.5879 40.7895 40.2059 41.0975 39.8229 41.4035C39.2519 41.1295 38.6679 40.7765 38.0779 40.3365C33.4379 36.8745 30.2349 29.4665 30.9209 23.7905C31.0189 22.9865 31.1909 22.2625 31.4239 21.6195C34.1339 20.8135 36.8319 19.9645 39.5399 19.1035C39.8799 19.3025 40.2219 19.5255 40.5659 19.7825C45.0739 23.1465 48.2159 30.2295 47.7609 35.8365C45.3069 37.0815 43.0979 38.7295 40.9679 40.4775Z" fill="#0109C4"/>
</g>
<mask id="mask1_406_806" style="mask-type:luminance" maskUnits="userSpaceOnUse" x="18" y="19" width="22" height="31">
<path d="M30.5044 21.5577C36.3504 25.8107 40.4744 35.0847 39.7144 42.2727C38.9564 49.4627 33.6004 51.8427 27.7544 47.5907C21.9084 43.3387 17.7844 34.0657 18.5444 26.8757C19.0484 22.1027 21.5784 19.4497 24.9324 19.4497C26.6304 19.4497 28.5394 20.1297 30.5044 21.5577Z" fill="#ADADAD"/>
</mask>
<g mask="url(#mask1_406_806)">
<path fill-rule="evenodd" clip-rule="evenodd" d="M29.9888 32.8369L30.2558 33.0799C30.7628 33.4589 31.1138 34.2699 31.0388 34.8909C31.0458 34.8309 31.0488 34.7699 31.0488 34.7079L31.0508 35.0159C31.0508 35.0999 31.0478 35.1809 31.0368 35.2609C30.9488 35.9889 30.4528 36.2809 29.8748 36.0019C29.7928 35.9619 29.7088 35.9119 29.6248 35.8479C29.2298 35.5539 28.9068 35.0659 28.7248 34.5449C28.5918 34.1679 28.5338 33.7729 28.5748 33.4239C28.6758 32.5919 29.3088 32.3289 29.9888 32.8369Z" fill="#ADADAD"/>
</g>
<mask id="mask2_406_806" style="mask-type:luminance" maskUnits="userSpaceOnUse" x="18" y="19" width="22" height="31">
<path d="M30.5044 21.5577C36.3504 25.8107 40.4744 35.0847 39.7144 42.2727C38.9564 49.4627 33.6004 51.8427 27.7544 47.5907C21.9084 43.3387 17.7844 34.0657 18.5444 26.8757C19.0484 22.1027 21.5784 19.4497 24.9324 19.4497C26.6304 19.4497 28.5394 20.1297 30.5044 21.5577Z" fill="#CECDCC"/>
</mask>
<g mask="url(#mask2_406_806)">
<path fill-rule="evenodd" clip-rule="evenodd" d="M34.171 25.3518C35.092 24.7468 36.379 24.8798 37.718 25.8798C40.063 27.6298 41.683 31.3748 41.336 34.2438C41.144 35.8358 40.386 36.8238 39.35 37.0888L31.501 39.1008C32.461 35.0788 31.101 31.9708 27.393 29.7928L34.171 25.3518Z" fill="#CECDCC"/>
</g>
<mask id="mask3_406_806" style="mask-type:luminance" maskUnits="userSpaceOnUse" x="18" y="19" width="22" height="31">
<path d="M39.7144 42.2727C38.9564 49.4627 33.6004 51.8427 27.7544 47.5907C21.9084 43.3387 17.7844 34.0657 18.5444 26.8757C19.0484 22.1027 21.5784 19.4497 24.9324 19.4497C26.6304 19.4497 28.5394 20.1297 30.5044 21.5577C36.3504 25.8107 40.4744 35.0847 39.7144 42.2727Z" fill="#E9E8E7"/>
</mask>
<g mask="url(#mask3_406_806)">
<path fill-rule="evenodd" clip-rule="evenodd" d="M28.5746 33.4236C28.4746 34.2546 28.9446 35.3406 29.6246 35.8476C30.3036 36.3546 30.9366 36.0926 31.0366 35.2606C31.1376 34.4286 30.6686 33.3436 29.9886 32.8366C29.3086 32.3286 28.6756 32.5926 28.5746 33.4236ZM30.3046 30.2216C31.0606 30.7856 31.7206 31.6106 32.2206 32.5436C32.9506 33.9076 33.3376 35.5036 33.1736 36.8556C32.8986 39.1306 31.1676 39.8506 29.3076 38.4626C27.4476 37.0746 26.1636 34.1046 26.4376 31.8296C26.6106 30.4066 27.3516 29.5926 28.3376 29.5196C28.9276 29.4776 29.6076 29.7016 30.3046 30.2216Z" fill="#E9E8E7"/>
</g>
<path fill-rule="evenodd" clip-rule="evenodd" d="M19.46 27.3428C18.67 33.8748 22.357 42.3988 27.697 46.3828C33.037 50.3678 38.006 48.3028 38.797 41.7708C39.587 35.2388 35.898 26.7148 30.559 22.7308C25.22 18.7458 20.25 20.8108 19.46 27.3428ZM30.692 21.6328C36.526 25.9878 40.556 35.3028 39.692 42.4398C38.828 49.5768 33.399 51.8338 27.565 47.4798C21.73 43.1258 17.7 33.8108 18.564 26.6738C19.428 19.5368 24.858 17.2788 30.692 21.6328Z" fill="#0109C4"/>
</g>
<defs>
<clipPath id="clip0_406_806">
<rect width="80" height="80" fill="white"/>
</clipPath>
</defs>
</svg>
