<svg width="80" height="80" viewBox="0 0 80 80" fill="none" xmlns="http://www.w3.org/2000/svg">
<g clip-path="url(#clip0_406_2873)">
<path d="M0 0H80V80H0V0Z" fill="white"/>
<path d="M0 79.9H79.9V0H0V79.9Z" fill="white"/>
<path d="M63.3016 46.7999L45.5016 36.4999C42.5016 34.7999 38.0016 34.5999 35.4016 36.0999L17.1016 46.5999L8.60156 48.5999V52.8999C8.60156 52.9999 8.60156 53.0999 8.60156 53.1999V53.2999C8.70156 54.3999 9.50156 55.4999 11.1016 56.3999L34.5016 69.8999C37.5016 71.5999 42.0016 71.7999 44.6016 70.2999L47.2016 68.7999L69.6016 55.8999C70.8016 55.1999 71.4016 54.1999 71.3016 53.1999V48.8999L63.3016 46.7999Z" fill="#123155"/>
<path d="M69.6019 51.2998L44.6019 65.6998C42.0019 67.1998 37.5019 66.9998 34.5019 65.2998L11.0019 51.7998C8.00188 50.0998 7.70188 47.3998 10.3019 45.8998L35.3019 31.4998C37.9019 29.9998 42.4019 30.1998 45.4019 31.8998L68.8019 45.3998C71.8019 47.1998 72.2019 49.7998 69.6019 51.2998Z" fill="#E9E8E7"/>
<path d="M23.1992 42.6003L49.0992 57.6003V54.3003L23.1992 39.3003V42.6003Z" fill="#033158"/>
<path d="M49.1016 54.3002V57.6002L56.2016 53.5002V50.2002L49.1016 54.3002Z" fill="#0061B2"/>
<path d="M49.0984 36.3002C49.0984 36.1002 49.0984 36.0002 48.9984 35.8002C48.9984 35.7002 48.8984 35.5002 48.8984 35.4002C48.8984 35.3002 48.7984 35.1002 48.7984 35.0002C48.7984 34.9002 48.6984 34.7002 48.6984 34.6002C48.5984 34.5002 48.5984 34.3002 48.4984 34.2002C48.3984 34.1002 48.3984 33.9002 48.2984 33.8002C48.1984 33.7002 48.1984 33.6002 48.0984 33.4002L47.9984 33.3002C47.9984 33.2002 47.8984 33.2002 47.8984 33.1002C47.8984 33.0002 47.7984 32.9002 47.7984 32.9002C47.5984 32.6002 47.3984 32.4002 47.1984 32.1002C47.0984 32.0002 46.9984 31.9002 46.8984 31.7002C46.7984 31.6002 46.6984 31.5002 46.5984 31.4002C46.4984 31.3002 46.3984 31.2002 46.2984 31.1002C46.1984 31.0002 46.0984 30.9002 45.9984 30.8002C45.8984 30.7002 45.7984 30.6002 45.5984 30.6002L26.9984 19.7002C26.8984 19.6002 26.7984 19.6002 26.5984 19.5002C26.4984 19.4002 26.3984 19.4002 26.1984 19.4002C26.0984 19.4002 25.9984 19.3002 25.8984 19.3002C25.7984 19.3002 25.6984 19.3002 25.5984 19.2002C25.4984 19.2002 25.3984 19.2002 25.2984 19.2002C25.1984 19.2002 25.0984 19.2002 24.9984 19.2002C24.8984 19.2002 24.7984 19.2002 24.6984 19.3002C24.6984 19.3002 24.5984 19.3002 24.5984 19.4002C24.5984 19.4002 24.4984 19.4002 24.4984 19.5002C23.7984 19.9002 23.3984 20.7002 23.3984 21.9002V39.4002L49.2984 54.4002V36.9002C49.1984 36.6002 49.1984 36.5002 49.0984 36.3002Z" fill="#ADADAD"/>
<path d="M56.2891 32.4753C56.2891 32.3753 56.2891 32.3753 56.2891 32.2753V32.1753V32.0753C56.2891 31.9753 56.2891 31.9753 56.2891 31.8753C56.2891 31.7753 56.2891 31.7753 56.2891 31.6753V31.4753C56.2891 31.3753 56.2891 31.3753 56.2891 31.2753V31.1753V31.0753C56.2891 30.9753 56.2891 30.9753 56.1891 30.8753V30.7753C56.1891 30.6753 56.1891 30.6753 56.0891 30.5753C56.0891 30.4753 56.0891 30.4753 55.9891 30.3753V30.2753C55.9891 30.1753 55.9891 30.1753 55.8891 30.0753C55.8891 30.0753 55.8891 29.9753 55.7891 29.9753C55.7891 29.8753 55.6891 29.8753 55.6891 29.7753C55.6891 29.6753 55.5891 29.6753 55.5891 29.5753C55.5891 29.4753 55.4891 29.4753 55.4891 29.4753C55.4891 29.3753 55.3891 29.3753 55.3891 29.2753L55.2891 29.1753C55.2891 29.0753 55.1891 29.0753 55.1891 28.9753C55.1891 28.8753 55.0891 28.7753 54.9891 28.7753C54.8891 28.6753 54.7891 28.5753 54.7891 28.4753C54.6891 28.3753 54.6891 28.3753 54.5891 28.2753C54.5891 28.1753 54.4891 28.1753 54.4891 28.0753C54.4891 27.9753 54.3891 27.9753 54.3891 27.8753C54.3891 27.7753 54.2891 27.7753 54.2891 27.6753L54.1891 27.5753C54.0891 27.4753 54.0891 27.4753 53.9891 27.3753C53.9891 27.3753 53.8891 27.3753 53.8891 27.2753C53.7891 27.1753 53.7891 27.1753 53.6891 27.1753C53.6891 27.1753 53.6891 27.1753 53.5891 27.0753H53.4891L53.0891 26.5753L52.9891 26.4753C52.8891 26.4753 52.8891 26.3753 52.7891 26.3753C52.7891 26.3753 52.6891 26.2753 52.5891 26.2753L34.0891 15.5753C34.0891 15.5753 33.9891 15.5753 33.9891 15.4753L33.7891 15.3753H33.6891C33.5891 15.3753 33.5891 15.3753 33.4891 15.2753C33.4891 15.2753 33.3891 15.2753 33.3891 15.1753H33.2891C33.1891 15.1753 33.1891 15.1753 33.0891 15.1753H32.9891C32.9891 15.1753 32.9891 15.1753 32.8891 15.1753C32.7891 15.1753 32.7891 15.1753 32.6891 15.1753H32.5891C32.4891 15.1753 32.4891 15.1753 32.3891 15.1753C32.3891 15.1753 32.3891 15.1753 32.2891 15.1753H32.1891C32.1891 15.1753 32.1891 15.1753 32.0891 15.1753C31.9891 15.1753 31.9891 15.1753 31.8891 15.1753C31.7891 15.1753 31.6891 15.1753 31.6891 15.2753C31.5891 15.2753 31.4891 15.3753 31.3891 15.3753L24.2891 19.3753C24.2891 19.3753 24.3891 19.3753 24.3891 19.2753C24.3891 19.2753 24.4891 19.2753 24.4891 19.1753C24.5891 19.1753 24.5891 19.1753 24.6891 19.0753C24.7891 19.0753 24.7891 19.0753 24.8891 19.0753H24.9891C24.9891 19.0753 24.9891 19.0753 25.0891 19.0753C25.1891 19.0753 25.1891 19.0753 25.2891 19.0753H25.3891C25.4891 19.0753 25.4891 19.0753 25.5891 19.0753C25.5891 19.0753 25.5891 19.0753 25.6891 19.0753C25.7891 19.0753 25.7891 19.0753 25.8891 19.0753H25.9891C25.9891 19.0753 26.0891 19.0753 26.1891 19.1753C26.1891 19.1753 26.2891 19.1753 26.3891 19.2753H26.4891C26.4891 19.2753 26.5891 19.3753 26.6891 19.3753C26.6891 19.3753 26.7891 19.3753 26.7891 19.4753L45.2891 30.1753L45.4891 30.2753C45.5891 30.2753 45.5891 30.3753 45.6891 30.3753L45.7891 30.4753C45.8891 30.4753 45.8891 30.5753 45.9891 30.5753H46.0891L46.1891 30.6753C46.2891 30.6753 46.2891 30.7753 46.3891 30.7753L46.4891 30.8753L46.6891 31.0753L46.7891 31.1753L47.0891 31.6753C47.0891 31.7753 47.1891 31.7753 47.1891 31.8753L47.2891 32.0753C47.3891 32.1753 47.3891 32.1753 47.4891 32.2753C47.5891 32.3753 47.6891 32.4753 47.6891 32.5753C47.6891 32.6753 47.7891 32.7753 47.7891 32.7753C47.7891 32.8753 47.8891 32.8753 47.8891 32.9753L47.9891 33.0753L48.0891 33.2753L48.1891 33.4753C48.1891 33.5753 48.2891 33.5753 48.2891 33.6753C48.2891 33.7753 48.3891 33.7753 48.3891 33.8753C48.3891 33.8753 48.3891 33.9753 48.4891 33.9753L48.5891 34.1753V34.2753L48.6891 34.4753C48.6891 34.5753 48.6891 34.5753 48.7891 34.6753V34.7753C48.7891 34.8753 48.7891 34.8753 48.8891 34.9753V35.0753V35.1753C48.8891 35.2753 48.8891 35.2753 48.8891 35.3753V35.5753C48.8891 35.6753 48.8891 35.6753 48.8891 35.7753C48.8891 35.8753 48.8891 35.8753 48.8891 35.9753V36.0753V36.1753V36.3753C48.8891 36.4753 48.8891 36.4753 48.8891 36.5753V54.0753L55.9891 49.9753V32.4753C56.2891 32.5753 56.2891 32.5753 56.2891 32.4753Z" fill="#E9E8E7"/>
<path d="M49.2008 36.6003C49.2008 36.5003 49.2008 36.5003 49.2008 36.4003V36.3003V36.2003C49.2008 36.1003 49.2008 36.1003 49.2008 36.0003C49.2008 35.9003 49.2008 35.9003 49.2008 35.8003C49.2008 35.7003 49.2008 35.7003 49.2008 35.6003V35.4003C49.2008 35.4003 49.2008 35.4003 49.2008 35.3003V35.2003C49.2008 35.1003 49.2008 35.1003 49.1008 35.0003C49.1008 35.0003 49.1008 34.9003 49.1008 34.8003L49.0008 34.6003C49.0008 34.5003 49.0008 34.5003 48.9008 34.4003V34.3003C48.9008 34.2003 48.9008 34.2003 48.8008 34.1003L48.5008 34.0003C48.5008 33.9003 48.4008 33.9003 48.4008 33.8003C48.4008 33.7003 48.3008 33.7003 48.3008 33.6003C48.3008 33.5003 48.2008 33.5003 48.2008 33.4003C48.2008 33.3003 48.1008 33.3003 48.1008 33.2003C48.1008 33.2003 48.1008 33.1003 48.0008 33.1003C48.0008 33.0003 47.9008 33.0003 47.9008 32.9003C47.8008 32.8003 47.8008 32.7003 47.7008 32.7003C47.6008 32.6003 47.5008 32.5003 47.5008 32.4003C47.4008 32.3003 47.4008 32.3003 47.3008 32.2003C47.3008 32.1003 47.2008 32.1003 47.2008 32.0003C47.2008 31.9003 47.1008 31.9003 47.1008 31.8003C47.1008 31.7003 47.0008 31.7003 47.0008 31.6003L46.9008 31.5003C46.8008 31.4003 46.8008 31.4003 46.7008 31.3003L46.6008 31.2003C46.5008 31.2003 46.5008 31.1003 46.4008 31.1003C46.4008 31.1003 46.4008 31.1003 46.3008 31.0003H46.2008L46.0008 30.7003L45.9008 30.6003C45.8008 30.6003 45.8008 30.5003 45.7008 30.5003L45.5008 30.4003L27.0008 19.7003L26.9008 19.6003C26.9008 19.6003 26.8008 19.5003 26.7008 19.5003H26.6008C26.6008 19.5003 26.5008 19.5003 26.5008 19.4003C26.5008 19.4003 26.4008 19.4003 26.4008 19.3003H26.3008C26.2008 19.3003 26.2008 19.3003 26.1008 19.3003H26.0008C25.9008 19.3003 25.9008 19.3003 25.8008 19.3003H25.7008C25.6008 19.3003 25.6008 19.3003 25.5008 19.3003H25.4008H25.3008C25.3008 19.3003 25.3008 19.3003 25.2008 19.3003C25.1008 19.3003 25.1008 19.3003 25.0008 19.3003C24.9008 19.3003 24.9008 19.3003 24.8008 19.4003C24.7008 19.4003 24.6008 19.5003 24.5008 19.5003L23.3008 20.2003C23.4008 20.1003 23.5008 20.1003 23.6008 20.1003C23.7008 20.1003 23.7008 20.1003 23.8008 20.0003H23.9008C24.0008 20.0003 24.1008 20.0003 24.2008 20.0003H24.3008C24.4008 20.0003 24.5008 20.0003 24.6008 20.0003C24.7008 20.0003 24.8008 20.0003 24.9008 20.0003C25.0008 20.0003 25.1008 20.1003 25.2008 20.1003C25.3008 20.1003 25.4008 20.2003 25.6008 20.2003C25.7008 20.3003 25.9008 20.3003 26.0008 20.4003L44.2008 31.0003C44.3008 31.1003 44.4008 31.1003 44.6008 31.2003C44.7008 31.3003 44.8008 31.4003 44.9008 31.4003C45.0008 31.5003 45.1008 31.6003 45.2008 31.7003C45.3008 31.8003 45.4008 31.9003 45.5008 32.0003C45.6008 32.1003 45.7008 32.2003 45.8008 32.4003C45.9008 32.5003 46.0008 32.6003 46.1008 32.8003V32.9003C46.2008 33.0003 46.2008 33.1003 46.3008 33.2003C46.4008 33.3003 46.4008 33.4003 46.5008 33.4003L46.6008 33.6003L46.7008 33.7003C46.8008 33.8003 46.8008 33.9003 46.9008 34.0003V34.1003C47.0008 34.2003 47.0008 34.4003 47.1008 34.5003C47.2008 34.6003 47.2008 34.8003 47.3008 34.9003C47.4008 35.0003 47.4008 35.2003 47.4008 35.3003C47.4008 35.4003 47.5008 35.6003 47.5008 35.7003V35.8003C47.5008 35.9003 47.6008 36.1003 47.6008 36.2003C47.6008 36.3003 47.6008 36.5003 47.7008 36.6003C47.7008 36.7003 47.7008 36.9003 47.7008 37.0003V40.0003L48.9008 39.3003V36.3003L49.2008 36.6003Z" fill="#E9E8E7"/>
<path d="M44.2 31.0002C46.3 32.2002 47.9 35.1002 47.9 37.4002V40.4002C44.6 42.3002 40 42.1002 34.9 39.1002C29.8 36.2002 25.3 31.2002 22 25.4002V22.4002C22 20.0002 23.7 19.1002 25.7 20.3002L44.2 31.0002Z" fill="#CECDCC"/>
<path d="M45.8008 21.3999V21.4999V21.5999L45.7008 21.6999C45.7008 21.6999 45.7008 21.6999 45.6008 21.6999C45.6008 21.6999 45.6008 21.6999 45.5008 21.7999C45.4008 21.8999 45.3008 21.8999 45.2008 21.8999C45.1008 21.8999 45.0008 21.8999 44.8008 21.8999C44.7008 21.8999 44.5008 21.8999 44.4008 21.8999C44.3008 21.8999 44.2008 21.7999 44.1008 21.7999C43.9008 21.6999 43.8008 21.4999 43.8008 21.3999V25.9999C43.8008 26.1999 43.9008 26.2999 44.1008 26.3999C44.1008 26.3999 44.2008 26.3999 44.2008 26.4999H44.3008H44.4008H44.5008H44.6008H44.7008H44.8008H44.9008H45.0008C45.0008 26.4999 45.0008 26.4999 45.1008 26.4999H45.2008C45.3008 26.4999 45.4008 26.3999 45.4008 26.3999C45.4008 26.3999 45.4008 26.3999 45.5008 26.3999C45.5008 26.3999 45.6008 26.3999 45.6008 26.2999C45.6008 26.2999 45.6008 26.2999 45.7008 26.1999C45.7008 26.1999 45.7008 26.1999 45.7008 26.0999C45.7008 26.0999 45.7008 26.0999 45.7008 25.9999V25.6999C45.8008 25.7999 45.8008 21.3999 45.8008 21.3999Z" fill="#01243B"/>
<path d="M45.7992 21.3999V21.4999C45.7992 21.4999 45.7992 21.5999 45.6992 21.5999L45.5992 21.6999C45.5992 21.6999 45.5992 21.6999 45.4992 21.6999C45.4992 21.6999 45.4992 21.6999 45.3992 21.7999C45.2992 21.8999 45.1992 21.8999 45.0992 21.8999C44.9992 21.8999 44.8992 21.8999 44.6992 21.8999C44.5992 21.8999 44.3992 21.8999 44.2992 21.8999C44.1992 21.8999 44.0992 21.7999 43.9992 21.7999C43.7992 21.6999 43.6992 21.4999 43.6992 21.3999V25.9999C43.6992 26.1999 43.7992 26.2999 43.9992 26.3999C43.9992 26.3999 44.0992 26.3999 44.1992 26.4999H44.2992H44.3992H44.4992H44.5992H44.6992H44.7992H44.8992H44.9992C44.9992 26.4999 44.9992 26.4999 45.0992 26.4999H45.1992C45.2992 26.4999 45.3992 26.3999 45.3992 26.3999C45.3992 26.3999 45.3992 26.3999 45.4992 26.3999C45.4992 26.3999 45.5992 26.3999 45.5992 26.2999C45.5992 26.2999 45.5992 26.2999 45.6992 26.1999C45.6992 26.1999 45.6992 26.1999 45.6992 26.0999C45.6992 26.0999 45.6992 26.0999 45.6992 25.9999V25.6999C45.7992 25.7999 45.7992 21.3999 45.7992 21.3999Z" fill="#01243B"/>
<path d="M45.5016 20.9999C45.9016 21.1999 45.9016 21.5999 45.5016 21.8999C45.1016 22.0999 44.4016 22.0999 44.0016 21.8999C43.6016 21.6999 43.6016 21.2999 44.0016 20.9999C44.5016 20.7999 45.1016 20.6999 45.5016 20.9999ZM34.2016 14.3999V14.4999C34.2016 14.4999 34.2016 14.5999 34.1016 14.5999L34.0016 14.6999C34.0016 14.6999 34.0016 14.6999 33.9016 14.7999C33.9016 14.7999 33.9016 14.7999 33.8016 14.8999C33.7016 14.9999 33.6016 14.9999 33.5016 14.9999C33.4016 14.9999 33.3016 14.9999 33.1016 14.9999C33.0016 14.9999 32.8016 14.9999 32.7016 14.9999C32.6016 14.9999 32.5016 14.8999 32.4016 14.8999C32.2016 14.7999 32.1016 14.5999 32.1016 14.4999V19.0999C32.1016 19.2999 32.2016 19.3999 32.4016 19.4999C32.4016 19.4999 32.5016 19.5999 32.6016 19.5999H32.7016C32.7016 19.5999 32.7016 19.5999 32.8016 19.5999H32.9016H33.0016H33.1016H33.2016H33.3016H33.4016C33.4016 19.5999 33.4016 19.5999 33.5016 19.5999H33.6016C33.7016 19.5999 33.8016 19.4999 33.8016 19.4999C33.8016 19.4999 33.8016 19.4999 33.9016 19.4999C33.9016 19.4999 34.0016 19.4999 34.0016 19.3999C34.0016 19.3999 34.0016 19.3999 34.1016 19.2999C34.1016 19.2999 34.1016 19.2999 34.1016 19.1999C34.1016 19.1999 34.1016 19.1999 34.1016 19.0999V18.7999L34.2016 14.3999Z" fill="#01243B"/>
<path d="M34.1992 14.3999V14.4999V14.5999L34.0992 14.6999C34.0992 14.6999 34.0992 14.6999 33.9992 14.7999C33.9992 14.7999 33.9992 14.7999 33.8992 14.8999C33.7992 14.9999 33.6992 14.9999 33.5992 14.9999C33.4992 14.9999 33.3992 14.9999 33.1992 14.9999C33.0992 14.9999 32.8992 14.9999 32.7992 14.9999C32.6992 14.9999 32.5992 14.8999 32.4992 14.8999C32.2992 14.7999 32.1992 14.5999 32.1992 14.4999V19.0999C32.1992 19.2999 32.2992 19.3999 32.4992 19.4999C32.4992 19.4999 32.5992 19.5999 32.6992 19.5999H32.7992C32.7992 19.5999 32.7992 19.5999 32.8992 19.5999H32.9992H33.0992H33.1992H33.2992H33.3992H33.4992C33.4992 19.5999 33.4992 19.5999 33.5992 19.5999H33.6992C33.7992 19.5999 33.8992 19.4999 33.8992 19.4999C33.8992 19.4999 33.8992 19.4999 33.9992 19.4999C33.9992 19.4999 34.0992 19.4999 34.0992 19.3999C34.0992 19.3999 34.0992 19.3999 34.1992 19.2999C34.1992 19.2999 34.1992 19.2999 34.1992 19.1999C34.1992 19.1999 34.1992 19.1999 34.1992 19.0999V18.7999V14.3999Z" fill="#01243B"/>
<path d="M33.8 14.0001C34.2 14.2001 34.2 14.6001 33.8 14.9001C33.4 15.1001 32.7 15.1001 32.3 14.9001C31.9 14.7001 31.9 14.3001 32.3 14.0001C32.8 13.8001 33.4 13.8001 33.8 14.0001Z" fill="#01243B"/>
<path d="M49.1625 22.2611V22.1611V22.0611V21.9611V21.8611V21.7611V21.6611V21.5611C49.1625 21.5611 49.1625 21.5611 49.1625 21.4611V21.3611V21.2611V21.1611V21.0611C49.1625 21.0611 49.1625 20.9611 49.0625 20.9611C49.0625 20.9611 49.0625 20.8611 48.9625 20.8611V20.7611L34.3625 12.6611C34.3625 12.6611 34.3625 12.6611 34.2625 12.6611H34.1625C34.1625 12.6611 34.1625 12.6611 34.0625 12.6611H33.9625L30.5625 14.3611C30.5625 14.3611 30.6625 14.3611 30.6625 14.2611C30.7625 14.2611 30.7625 14.2611 30.8625 14.2611C30.9625 14.2611 30.9625 14.2611 31.0625 14.2611C31.1625 14.2611 31.1625 14.3611 31.2625 14.3611L45.0625 22.2611C45.1625 22.2611 45.1625 22.3611 45.2625 22.3611C45.3625 22.4611 45.3625 22.4611 45.4625 22.5611C45.5625 22.6611 45.6625 22.8611 45.7625 22.9611C45.7625 23.0611 45.8625 23.1611 45.8625 23.1611C45.8625 23.2611 45.9625 23.3611 45.9625 23.3611C46.0625 23.5611 46.0625 23.6611 46.0625 23.8611C46.0625 23.9611 46.0625 24.0611 46.0625 24.0611C46.0625 24.1611 46.0625 24.1611 45.9625 24.2611C45.9625 24.2611 45.9625 24.3611 45.8625 24.3611L45.7625 24.4611L48.8625 22.6611L48.9625 22.5611C48.9625 22.5611 48.9625 22.5611 48.9625 22.4611V22.3611V22.2611V22.1611L49.1625 22.2611C49.1625 22.3611 49.1625 22.3611 49.1625 22.2611Z" fill="#F54A4F"/>
<path d="M49.1625 22.2611V22.1611V22.0611V21.9611V21.8611V21.7611V21.6611V21.5611C49.1625 21.5611 49.1625 21.5611 49.1625 21.4611V21.3611V21.2611V21.1611V21.0611C49.1625 21.0611 49.1625 20.9611 49.0625 20.9611C49.0625 20.9611 49.0625 20.8611 48.9625 20.8611V20.7611L34.3625 12.6611C34.3625 12.6611 34.3625 12.6611 34.2625 12.6611H34.1625C34.1625 12.6611 34.1625 12.6611 34.0625 12.6611H33.9625L30.5625 14.3611C30.5625 14.3611 30.6625 14.3611 30.6625 14.2611C30.7625 14.2611 30.7625 14.2611 30.8625 14.2611C30.9625 14.2611 30.9625 14.2611 31.0625 14.2611C31.1625 14.2611 31.1625 14.3611 31.2625 14.3611L45.0625 22.2611C45.1625 22.2611 45.1625 22.3611 45.2625 22.3611C45.3625 22.4611 45.3625 22.4611 45.4625 22.5611C45.5625 22.6611 45.6625 22.8611 45.7625 22.9611C45.7625 23.0611 45.8625 23.1611 45.8625 23.1611C45.8625 23.2611 45.9625 23.3611 45.9625 23.3611C46.0625 23.5611 46.0625 23.6611 46.0625 23.8611C46.0625 23.9611 46.0625 24.0611 46.0625 24.0611C46.0625 24.1611 46.0625 24.1611 45.9625 24.2611C45.9625 24.2611 45.9625 24.3611 45.8625 24.3611L45.7625 24.4611L48.8625 22.6611L48.9625 22.5611C48.9625 22.5611 48.9625 22.5611 48.9625 22.4611V22.3611V22.2611V22.1611L49.1625 22.2611C49.1625 22.3611 49.1625 22.3611 49.1625 22.2611Z" fill="#CECDCC"/>
<path d="M44.9992 22.4C45.5992 22.7 45.9992 23.5 45.9992 24.1C45.9992 24.7 45.4992 25 44.9992 24.7L31.1992 16.8C30.5992 16.5 30.1992 15.7 30.1992 15.1C30.1992 14.5 30.6992 14.2 31.1992 14.5C31.2992 14.5 44.9992 22.4 44.9992 22.4Z" fill="#ADADAD"/>
<path d="M32.7008 40.3999V37.7999L36.1008 39.7999V42.3999L32.7008 40.3999ZM36.9008 39.2999L31.8008 36.3999V41.0999L36.9008 43.9999V39.2999Z" fill="#E9E8E7"/>
<path d="M36.0992 39.8003L32.6992 37.8003V40.4003L36.0992 42.4003V39.8003Z" fill="#CECDCC"/>
<path d="M36.8984 39.3001V44.0001L38.0984 43.3001V38.6001L36.8984 39.3001Z" fill="#ADADAD"/>
<path d="M38.1008 38.5002V38.4002V38.3002V38.2002V38.1002V38.0002V37.9002V37.8002V37.7002V37.6002V37.5002V37.4002V37.3002V37.2002V37.1002C38.1008 37.1002 38.1008 37.0002 38.0008 37.0002C38.0008 37.0002 38.0008 36.9002 37.9008 36.9002C37.9008 36.9002 37.8008 36.8002 37.8008 36.7002C37.8008 36.6002 37.7008 36.6002 37.7008 36.5002C37.6008 36.4002 37.6008 36.3002 37.5008 36.2002C37.4008 36.1002 37.4008 36.0002 37.3008 36.0002L37.2008 35.9002L37.1008 35.8002L37.0008 35.7002L36.9008 35.6002C36.9008 35.6002 36.8008 35.6002 36.8008 35.5002L36.7008 35.4002L36.6008 35.3002L36.5008 35.2002C36.5008 35.2002 36.5008 35.2002 36.4008 35.2002L36.3008 35.1002L36.2008 35.0002L36.1008 34.9002L36.0008 34.8002H35.9008L35.8008 34.7002C35.8008 34.7002 35.8008 34.7002 35.7008 34.7002H35.6008H35.5008H35.4008H35.3008H35.2008C35.2008 34.7002 35.2008 34.7002 35.1008 34.7002H35.0008H34.9008H34.8008C34.8008 34.7002 34.8008 34.7002 34.7008 34.7002H34.6008C34.5008 34.7002 34.5008 34.8002 34.4008 34.8002L33.3008 35.5002H33.4008C33.4008 35.5002 33.4008 35.5002 33.5008 35.5002H33.6008H33.7008H33.8008H33.9008H34.0008H34.1008H34.2008H34.3008H34.4008H34.5008C34.5008 35.5002 34.6008 35.5002 34.6008 35.6002H34.7008C34.7008 35.6002 34.8008 35.6002 34.8008 35.7002C34.8008 35.7002 34.9008 35.7002 34.9008 35.8002L35.0008 35.9002L35.1008 36.0002C35.1008 36.0002 35.1008 36.0002 35.2008 36.0002L35.3008 36.1002L35.4008 36.2002L35.5008 36.3002L35.6008 36.4002L35.7008 36.5002L35.8008 36.6002L35.9008 36.7002L36.0008 36.8002C36.1008 36.9002 36.1008 36.9002 36.2008 37.0002C36.3008 37.1002 36.3008 37.2002 36.4008 37.3002L36.5008 37.5002C36.5008 37.6002 36.6008 37.6002 36.6008 37.7002L36.7008 37.8002C36.7008 37.8002 36.7008 37.9002 36.8008 37.9002V38.0002V38.1002V38.2002V38.3002V38.4002V38.5002V38.6002V38.7002V38.8002V38.9002V39.0002V39.1002V39.2002V39.3002V39.4002L38.0008 38.7002C38.1008 38.5002 38.1008 38.5002 38.1008 38.5002Z" fill="#ADADAD"/>
<path d="M36.9018 39.3003C36.9018 38.9003 36.8018 38.5003 36.7018 38.1003C36.7018 38.0003 36.6018 37.9003 36.6018 37.9003C36.6018 37.8003 36.5018 37.6003 36.5018 37.5003C36.4018 37.3003 36.3018 37.1003 36.2018 36.9003C36.1018 36.7003 36.0018 36.5003 35.8018 36.3003C35.7018 36.1003 35.5018 35.9003 35.4018 35.8003C35.3018 35.6003 35.1018 35.5003 34.9018 35.4003C34.7018 35.3003 34.6018 35.1003 34.4018 35.1003C34.3018 35.1003 34.2018 35.0003 34.1018 35.0003C34.0018 35.0003 33.9018 34.9003 33.9018 34.9003C33.8018 34.9003 33.7018 34.9003 33.7018 34.8003C33.6018 34.8003 33.6018 34.8003 33.5018 34.8003C33.4018 34.8003 33.4018 34.8003 33.3018 34.8003C33.2018 34.8003 33.2018 34.8003 33.1018 34.8003C33.0018 34.8003 33.0018 34.8003 32.9018 34.9003C32.9018 34.9003 32.9018 34.9003 32.8018 34.9003H32.7018C32.2018 35.2003 32.0018 35.7003 32.0018 36.5003C31.8018 36.3003 36.9018 39.3003 36.9018 39.3003Z" fill="#E9E8E7"/>
</g>
<defs>
<clipPath id="clip0_406_2873">
<rect width="80" height="80" fill="white"/>
</clipPath>
</defs>
</svg>
