<svg width="90" height="90" viewBox="0 0 90 90" fill="none" xmlns="http://www.w3.org/2000/svg">
<g clip-path="url(#clip0_406_1033)">
<path d="M90 0H0V90H90V0Z" fill="white"/>
<path d="M80.2107 59.8113H80.2209V54.9502L71.1824 52.6124L51.1429 41.0426C47.7699 39.0949 42.6665 38.8826 39.7446 40.5705L19.2184 52.4205L9.6371 54.6898V59.4887C9.63031 59.5956 9.63257 59.7043 9.6371 59.8113V59.886H9.6405C9.73559 61.1172 10.6696 62.3936 12.4169 63.4017L38.7048 78.58C42.0801 80.5277 47.1829 80.74 50.1048 79.0532L78.2511 62.8017C79.6294 62.007 80.2667 60.9304 80.2107 59.8113Z" fill="#BFC3C7"/>
<path d="M78.2516 57.6804L50.1048 73.9319C47.1829 75.6181 42.08 75.4058 38.7048 73.4587L12.4168 58.2815C9.04155 56.3326 8.67589 53.387 11.5978 51.6996L39.7446 35.4492C42.6665 33.7619 47.7693 33.9736 51.1429 35.9213L77.4325 51.0996C80.8072 53.0468 81.1734 55.9941 78.2516 57.6804Z" fill="#E9E8E7"/>
<path d="M49.5929 62.377C49.4881 62.3181 49.3863 62.2734 49.2872 62.2383L49.2849 62.2394C48.934 62.1138 48.6204 62.1245 48.3798 62.2593L48.3781 62.2553L47.7985 62.5938L47.8031 62.6011C47.5115 62.7868 47.3332 63.1559 47.34 63.6789C47.3525 64.7611 48.1415 66.0743 49.1015 66.6115C49.5838 66.8821 50.018 66.9036 50.3287 66.7213L50.8534 66.4162C50.8602 66.4123 50.867 66.4077 50.8744 66.4038L50.8998 66.3891L50.8987 66.3868C51.0725 66.2736 51.1987 66.0862 51.2746 65.8462L51.2853 65.8394C51.2961 65.8066 51.3006 65.767 51.3085 65.7319C51.3159 65.6996 51.3244 65.6691 51.3289 65.6357C51.3459 65.5343 51.3561 65.4279 51.3544 65.3108C51.3414 64.2279 50.5523 62.9142 49.5929 62.377Z" fill="#2A2A2A"/>
<path d="M47.4064 63.7162C47.4189 64.7572 48.1773 66.0195 49.1 66.5357C50.0226 67.053 50.7607 66.6279 50.7477 65.587C50.7353 64.5461 49.9768 63.2832 49.0541 62.7664C48.1315 62.2502 47.394 62.6753 47.4064 63.7162Z" fill="#ADADAD"/>
<path d="M47.7814 63.9251C47.7916 64.7334 48.3802 65.7132 49.0963 66.1145C49.8129 66.5158 50.3857 66.1853 50.3755 65.377C50.3653 64.5692 49.7767 63.5889 49.0606 63.1875C48.344 62.7868 47.7712 63.1168 47.7814 63.9251Z" fill="#2C2C2C"/>
<path d="M50.2577 65.6108C50.2758 65.5248 50.2871 65.432 50.286 65.3278C50.2849 65.2344 50.2747 65.1376 50.2577 65.0403C50.2526 65.0097 50.2424 64.9797 50.235 64.9486L50.2384 64.9469C50.2316 64.9186 50.2215 64.8903 50.2141 64.862C50.2033 64.8229 50.1977 64.785 50.1852 64.7471C50.1796 64.7306 50.1728 64.7154 50.1671 64.7001C50.1524 64.6571 50.1349 64.6152 50.1179 64.5727C50.1026 64.5337 50.0896 64.4929 50.072 64.4544C50.0669 64.4431 50.0607 64.4335 50.0562 64.4227C50.0318 64.3712 50.003 64.3208 49.9752 64.2699C49.9577 64.2371 49.9424 64.2037 49.9232 64.1714C49.9192 64.1652 49.9158 64.1601 49.9124 64.1538C49.8671 64.0791 49.8173 64.0078 49.7658 63.9382C49.7584 63.9274 49.7522 63.9172 49.7448 63.9071C49.7432 63.9042 49.7415 63.9014 49.7398 63.8997C49.6956 63.8414 49.6464 63.7888 49.5988 63.7355C49.5784 63.7123 49.5603 63.688 49.5394 63.6659C49.4884 63.6133 49.4335 63.5663 49.3786 63.5188C49.3565 63.5001 49.3362 63.4774 49.3135 63.4593C49.2598 63.4169 49.2043 63.3818 49.1482 63.3461C49.1239 63.3308 49.1001 63.311 49.0752 63.2963C49.0701 63.2935 49.065 63.2895 49.0599 63.2872C48.392 62.9131 47.8582 63.2204 47.8673 63.9738C47.8673 63.9863 47.8707 63.9993 47.8707 64.0118L47.8696 64.0129C47.8707 64.0372 47.8764 64.0633 47.8786 64.0882C47.8837 64.1544 47.8888 64.2212 47.9018 64.2891C47.9075 64.3163 47.916 64.3435 47.9222 64.3706C47.9381 64.4408 47.955 64.511 47.9782 64.5812C47.9867 64.6084 47.9998 64.635 48.0094 64.6627C48.0354 64.7323 48.0609 64.802 48.0932 64.8699C48.0937 64.8721 48.0943 64.8738 48.0948 64.8755C48.0954 64.8761 48.0954 64.8761 48.0954 64.8767C48.0965 64.8789 48.0977 64.8806 48.0988 64.8829C48.1186 64.9254 48.1435 64.9661 48.1656 65.008C48.1911 65.0555 48.2143 65.1037 48.2415 65.1495C48.2635 65.1846 48.2884 65.2169 48.3111 65.2503C48.3179 65.2621 48.3264 65.2735 48.3343 65.2848C48.3575 65.3182 48.3784 65.3538 48.4028 65.3867C48.409 65.3946 48.4147 65.4037 48.4215 65.4116C48.4515 65.4506 48.4843 65.4852 48.5165 65.522C48.5171 65.5231 48.5182 65.5242 48.5188 65.5254C48.5454 65.5554 48.5709 65.5882 48.5981 65.6176C48.6077 65.6272 48.6167 65.6386 48.6258 65.6482C48.6586 65.6821 48.6937 65.7099 48.7277 65.7405C48.7503 65.7614 48.7713 65.7852 48.7939 65.8044L48.7967 65.8033C48.8148 65.8186 48.8324 65.8372 48.8516 65.8525C48.9298 65.9137 49.0107 65.9686 49.0933 66.015C49.1896 66.0693 49.2818 66.105 49.3718 66.131C49.3764 66.1327 49.3815 66.1361 49.3865 66.1372L49.3905 66.135C49.8224 66.2533 50.1569 66.0569 50.2543 65.6221L50.2571 65.621C50.2577 65.6176 50.2571 65.6142 50.2577 65.6108Z" fill="#0109C4"/>
<path d="M49.4014 62.1514L49.2305 65.2765L49.8888 64.8089L51.3548 62.804L49.4014 62.1514Z" fill="#ADADAD"/>
<path d="M48.8808 62.2944L48.5508 64.7024L49.23 65.2763L50.6955 63.2708L48.8808 62.2944Z" fill="#777777"/>
<path d="M59.3936 56.4663C59.2889 56.4075 59.187 56.3628 59.088 56.3277L59.0857 56.3288C58.7348 56.2031 58.4212 56.2139 58.1806 56.3486L58.1789 56.3446L57.5993 56.6831L57.6038 56.6905C57.3123 56.8762 57.134 57.2452 57.1408 57.7682C57.1533 58.8505 57.9423 60.1637 58.9023 60.7009C59.3846 60.9714 59.8187 60.9929 60.1295 60.8107L60.6542 60.5056C60.661 60.5016 60.6678 60.4971 60.6752 60.4931L60.7006 60.4779L60.6995 60.4762C60.8733 60.3629 60.9995 60.1756 61.0753 59.9356L61.0861 59.9288C61.0968 59.896 61.1014 59.8563 61.1093 59.8212C61.1167 59.789 61.1252 59.7584 61.1297 59.725C61.1467 59.6237 61.1568 59.5173 61.1552 59.4001C61.1421 58.3173 60.3531 57.0035 59.3936 56.4663Z" fill="#2A2A2A"/>
<path d="M57.2072 57.8061C57.2196 58.847 57.9781 60.1093 58.9008 60.6255C59.8234 61.1429 60.5615 60.7178 60.5479 59.6769C60.5361 58.6359 59.7776 57.3725 58.8549 56.8563C57.9323 56.3401 57.1947 56.7652 57.2072 57.8061Z" fill="#ADADAD"/>
<path d="M57.5822 58.0149C57.5924 58.8232 58.181 59.803 58.8971 60.2044C59.6137 60.6057 60.1865 60.2751 60.1763 59.4668C60.1661 58.6591 59.5774 57.6787 58.8614 57.2774C58.1448 56.8766 57.572 57.2066 57.5822 58.0149Z" fill="#2A2A2A"/>
<path d="M60.0585 59.7009C60.0766 59.6149 60.0879 59.522 60.0868 59.4179C60.0856 59.3239 60.0754 59.2277 60.0585 59.1304C60.0534 59.0998 60.0432 59.0692 60.0358 59.0387L60.0392 59.037C60.0324 59.0081 60.0222 58.9798 60.0143 58.9509C60.0041 58.9124 59.9985 58.8751 59.9854 58.8371C59.9803 58.8207 59.9736 58.806 59.9679 58.7902C59.9532 58.7471 59.9356 58.7053 59.9186 58.6628C59.9028 58.6232 59.8903 58.583 59.8728 58.5445C59.8677 58.5332 59.8615 58.5236 59.8564 58.5122C59.8326 58.4613 59.8043 58.4121 59.7766 58.3617C59.759 58.3283 59.7432 58.2943 59.7239 58.262C59.72 58.2553 59.7166 58.2496 59.7126 58.2434C59.6679 58.1698 59.6186 58.0985 59.5677 58.0294C59.5598 58.0187 59.553 58.0073 59.5456 57.9971C59.5439 57.9943 59.5422 57.9915 59.54 57.9898C59.493 57.9275 59.4409 57.8709 59.3894 57.8137C59.373 57.7956 59.3577 57.7747 59.3402 57.7566C59.287 57.7011 59.2298 57.6519 59.1732 57.6032C59.1528 57.5862 59.1347 57.5664 59.1143 57.55C59.0594 57.5058 59.0017 57.4702 58.9445 57.4334C58.9213 57.4187 58.8992 57.4 58.876 57.3864C58.8709 57.3836 58.8658 57.3796 58.8607 57.3773C58.1928 57.0026 57.659 57.3105 57.6681 58.0639C57.6681 58.0764 57.6715 58.0894 57.6715 58.1019L57.6703 58.1024C57.6709 58.1285 57.6771 58.1551 57.6794 58.1805C57.6851 58.2468 57.6896 58.3119 57.7026 58.3792C57.7083 58.4064 57.7168 58.4341 57.7236 58.4619C57.7394 58.5321 57.7558 58.6017 57.779 58.6713C57.7875 58.6985 57.8005 58.7251 57.8102 58.7522C57.8356 58.8219 57.8617 58.8915 57.8934 58.96C57.8945 58.9622 57.8951 58.9639 57.8956 58.9656C57.8956 58.9662 57.8962 58.9662 57.8962 58.9668C57.8985 58.9719 57.9013 58.977 57.9041 58.9815C57.9228 59.0205 57.9443 59.0568 57.9647 59.0953C57.9907 59.1434 58.0145 59.1926 58.0422 59.2396C58.0643 59.2747 58.0886 59.307 58.1113 59.3404C58.1186 59.3522 58.1266 59.3636 58.1351 59.3749C58.1577 59.4083 58.1792 59.4439 58.2036 59.4768C58.2092 59.4847 58.2154 59.4937 58.2222 59.5017C58.2528 59.5413 58.2862 59.5764 58.3185 59.6143C58.319 59.6149 58.3196 59.6154 58.3207 59.616C58.3468 59.6466 58.3717 59.6783 58.3983 59.7077C58.4085 59.7173 58.417 59.7287 58.4266 59.7383C58.46 59.7728 58.4956 59.8011 58.5307 59.8328C58.5522 59.8532 58.5726 59.8758 58.5947 59.8945L58.5969 59.8934C58.6156 59.9087 58.6326 59.9273 58.6524 59.9426C58.73 60.0038 58.8115 60.0587 58.8936 60.1051C58.9903 60.1594 59.0826 60.1951 59.1726 60.2211C59.1771 60.2228 59.1822 60.2262 59.1873 60.2273L59.1913 60.2251C59.6232 60.3434 59.9577 60.147 60.0551 59.7122L60.0573 59.7111C60.0585 59.7077 60.0579 59.7037 60.0585 59.7009Z" fill="#0109C4"/>
<path d="M44.1247 45.9878C44.0194 45.929 43.9181 45.8842 43.8185 45.8486L43.8162 45.8503C43.4658 45.7246 43.1522 45.7354 42.9111 45.8701L42.9094 45.8661L42.3303 46.2046L42.3343 46.2114C42.0428 46.3976 41.8645 46.7661 41.8713 47.2891C41.8843 48.372 42.6734 49.6852 43.6328 50.2224C44.1156 50.4929 44.5492 50.5144 44.86 50.3322L45.3847 50.0271C45.3915 50.0231 45.3988 50.0186 45.4062 50.0146L45.4311 49.9993L45.43 49.9976C45.6043 49.8844 45.73 49.6965 45.8064 49.4571L45.8166 49.4503C45.8273 49.4169 45.8324 49.3778 45.8403 49.3422C45.8471 49.3099 45.8556 49.2793 45.8607 49.2465C45.8771 49.1446 45.8873 49.0382 45.8856 48.9216C45.8732 47.8388 45.0841 46.525 44.1247 45.9878Z" fill="#2A2A2A"/>
<path d="M41.9377 47.3264C41.9501 48.3673 42.7086 49.6296 43.6312 50.1464C44.5544 50.6632 45.292 50.2381 45.279 49.1972C45.2665 48.1562 44.508 46.8934 43.5854 46.3772C42.6627 45.8604 41.9252 46.2855 41.9377 47.3264Z" fill="#ADADAD"/>
<path d="M42.3126 47.5362C42.3228 48.3445 42.9115 49.3243 43.6275 49.7256C44.3441 50.1264 44.917 49.7964 44.9068 48.9881C44.8966 48.1803 44.3079 47.1999 43.5919 46.7986C42.8753 46.3973 42.3024 46.7279 42.3126 47.5362Z" fill="#2C2C2C"/>
<path d="M44.7895 49.2213C44.8076 49.1359 44.8183 49.0425 44.8172 48.9389C44.8161 48.8449 44.8065 48.7487 44.7895 48.6508C44.7838 48.6208 44.7736 48.5902 44.7668 48.5596L44.7697 48.558C44.7634 48.5291 44.7527 48.5008 44.7453 48.4719C44.7346 48.4334 44.7289 48.3955 44.7165 48.3576C44.7114 48.3417 44.704 48.3264 44.6989 48.3112C44.6842 48.2681 44.6667 48.2268 44.6497 48.1844C44.6338 48.1447 44.6208 48.104 44.6033 48.0649C44.5982 48.0542 44.5919 48.044 44.5874 48.0332C44.5631 47.9823 44.5348 47.933 44.5076 47.8827C44.4895 47.8493 44.4736 47.8153 44.4544 47.7825C44.451 47.7763 44.4476 47.7706 44.4436 47.7649C44.3995 47.6913 44.3508 47.6217 44.3004 47.5532C44.2919 47.5413 44.2846 47.5289 44.2761 47.5176C44.2744 47.5153 44.2727 47.5125 44.271 47.5102C44.2246 47.4496 44.1742 47.3942 44.1238 47.3393C44.1063 47.3195 44.0899 47.2968 44.0712 47.2776C44.0174 47.2215 43.9597 47.1717 43.9025 47.1225C43.8827 47.1061 43.8651 47.0868 43.8453 47.071C43.7887 47.0257 43.7304 46.9895 43.6716 46.9515C43.6495 46.938 43.6291 46.9204 43.607 46.9074L43.6059 46.9079C43.6008 46.9046 43.5968 46.9006 43.5917 46.8983C42.9238 46.5236 42.39 46.8315 42.3985 47.5849C42.3991 47.5974 42.4019 47.6098 42.4025 47.6229L42.4008 47.6234C42.4019 47.6489 42.4082 47.6755 42.4104 47.701C42.4155 47.7672 42.4206 47.8329 42.4336 47.9002C42.4387 47.9274 42.4472 47.9546 42.4534 47.9823C42.4699 48.0519 42.4863 48.1221 42.5095 48.1923C42.518 48.2195 42.5316 48.2466 42.5412 48.2744C42.5667 48.344 42.5921 48.413 42.6244 48.481C42.625 48.4827 42.6255 48.4849 42.6266 48.4866C42.6295 48.4923 42.6323 48.4979 42.6346 48.5025C42.6533 48.5415 42.6753 48.5778 42.6951 48.6157C42.7212 48.6644 42.745 48.7136 42.7733 48.7606C42.7959 48.7968 42.8208 48.8308 42.8446 48.8659C42.8519 48.8772 42.8599 48.8874 42.8672 48.8987C42.8899 48.931 42.9102 48.9655 42.934 48.9972C42.9402 49.0051 42.9459 49.0142 42.9527 49.0221C42.9838 49.0629 43.0183 49.0991 43.0517 49.1381C43.0778 49.1676 43.1027 49.1993 43.1293 49.2281C43.1389 49.2383 43.148 49.2496 43.157 49.2593C43.1904 49.2932 43.2255 49.3215 43.26 49.3527C43.2821 49.3736 43.3031 49.3963 43.3257 49.4155L43.328 49.4138C43.3466 49.4296 43.3636 49.4483 43.3829 49.4636C43.461 49.5247 43.5419 49.5796 43.6246 49.6261C43.7208 49.6804 43.8136 49.7161 43.9036 49.7421C43.9082 49.7438 43.9133 49.7472 43.9178 49.7483L43.9217 49.7461C44.3536 49.8644 44.6882 49.6679 44.7855 49.2332L44.7883 49.2315C44.7889 49.2287 44.7883 49.2247 44.7895 49.2213Z" fill="#0109C4"/>
<path d="M31.9561 52.9204C31.8514 52.8616 31.7495 52.8169 31.6505 52.7812L31.6477 52.7829C31.2973 52.6572 30.9837 52.668 30.7431 52.8027L30.7414 52.7987L30.1618 53.1372L30.1663 53.144C29.8748 53.3303 29.6965 53.6987 29.7033 54.2218C29.7158 55.3046 30.5048 56.6178 31.4648 57.155C31.9471 57.4255 32.3812 57.447 32.6914 57.2648L33.2167 56.9597C33.2235 56.9557 33.2303 56.9512 33.2377 56.9472L33.2631 56.932L33.262 56.9303C33.4358 56.817 33.562 56.6291 33.6378 56.3897L33.6486 56.3829C33.6588 56.3501 33.6639 56.3104 33.6718 56.2753C33.6792 56.2431 33.6871 56.2125 33.6922 56.1791C33.7092 56.0772 33.7193 55.9708 33.7177 55.8542C33.7046 54.7714 32.9156 53.4576 31.9561 52.9204Z" fill="#2A2A2A"/>
<path d="M29.7697 54.2595C29.7821 55.3004 30.5406 56.5633 31.4633 57.0795C32.3859 57.5963 33.124 57.1712 33.111 56.1303C33.0986 55.0893 32.3401 53.8265 31.4174 53.3103C30.4942 52.7935 29.7572 53.2186 29.7697 54.2595Z" fill="#ADADAD"/>
<path d="M30.1447 54.4688C30.1549 55.2771 30.7435 56.2569 31.4596 56.6582C32.1762 57.059 32.749 56.729 32.7388 55.9207C32.7286 55.1129 32.1399 54.1326 31.4239 53.7312C30.7073 53.3299 30.1345 53.6605 30.1447 54.4688Z" fill="#2A2A2A"/>
<path d="M32.5983 55.4925L32.6017 55.4908C32.5949 55.4613 32.5842 55.4325 32.5762 55.4036C32.5627 55.3498 32.5485 55.2972 32.5304 55.244C32.5157 55.1998 32.497 55.1574 32.48 55.1138C32.4602 55.0645 32.4421 55.0153 32.4194 54.9666C32.3945 54.9134 32.3645 54.8619 32.3362 54.8098C32.3159 54.7725 32.2978 54.734 32.2757 54.6978C32.2225 54.6095 32.1647 54.524 32.103 54.443C31.9078 54.1872 31.674 53.971 31.4232 53.8306C30.7553 53.4564 30.2215 53.7644 30.2306 54.5178C30.234 54.8081 30.3195 55.1217 30.4587 55.4189C30.4791 55.4613 30.5028 55.5038 30.5255 55.5457C30.5787 55.6459 30.637 55.7415 30.7015 55.8349C30.723 55.8666 30.7428 55.8995 30.7661 55.9295C30.8034 55.9793 30.8442 56.0251 30.8849 56.0715C30.9104 56.101 30.9347 56.1327 30.9608 56.161C31.0021 56.2045 31.0457 56.243 31.0893 56.2827C31.1119 56.3042 31.134 56.3285 31.1572 56.3483L31.1594 56.3472C31.2551 56.427 31.3536 56.5012 31.4561 56.5589C32.124 56.9325 32.6578 56.6251 32.6493 55.8717C32.6476 55.7483 32.6272 55.621 32.5983 55.4925Z" fill="#0109C4"/>
<path d="M31.4414 52.853L31.5314 55.8349L32.1897 55.3674L33.2567 53.8294L31.4414 52.853Z" fill="#ADADAD"/>
<path d="M31.181 52.853L30.8516 55.261L31.5302 55.8349L32.9957 53.8294L31.181 52.853Z" fill="#777777"/>
<path d="M58.6726 55.8145L58.3047 58.5552L58.9834 59.1286L60.4494 57.1237L58.6726 55.8145Z" fill="#777777"/>
<path d="M31.8001 52.4427L42.4478 46.2956C42.7348 46.1303 43.058 46.0471 43.3801 46.0471C43.7497 46.0471 44.1194 46.1558 44.4341 46.3703L60.1937 57.1239C60.2667 57.1731 60.2758 57.245 60.2746 57.2829C60.2729 57.3209 60.2588 57.391 60.1818 57.4358L52.7429 61.7309C52.2131 62.0365 50.9373 62.5963 50.3843 62.3377L31.8131 52.7699C31.726 52.7286 31.7095 52.6527 31.7084 52.6114C31.7061 52.569 31.7163 52.492 31.8001 52.4427ZM60.6788 56.4135L44.9192 45.6605C44.0582 45.0729 42.9199 45.0299 42.0177 45.5507L31.3705 51.699C31.032 51.8931 30.8322 52.2571 30.8486 52.6471C30.865 53.0371 31.0948 53.3829 31.448 53.5482L50.0186 63.116C50.3871 63.2892 50.7833 63.3746 51.179 63.3746C51.651 63.3746 52.7526 62.7186 53.1731 62.4758L60.6114 58.1812C60.9244 58.0001 61.1203 57.6763 61.1333 57.3152C61.1475 56.9541 60.9771 56.6167 60.6788 56.4135Z" fill="#ADADAD"/>
<path d="M34.7624 50.5875L33.902 50.3747L34.7069 46.9983L33.3145 46.3966L32.1151 51.6811L31.6741 52.2375L31.1211 52.139L32.6743 45.1519L35.7417 46.4798L34.7624 50.5875Z" fill="#ADADAD"/>
<path d="M23.9121 21.7005C24.1113 21.4169 24.4379 21.2471 24.7855 21.2471C25.0057 21.2471 25.2168 21.3139 25.3957 21.4412C25.5276 21.5329 28.621 23.7376 29.1593 27.1463L29.4615 29.0658C29.5057 29.3465 29.4377 29.6284 29.2702 29.8582C29.1026 30.088 28.8553 30.2391 28.5734 30.2839C28.5185 30.2924 28.463 30.2969 28.4076 30.2969C27.8811 30.2969 27.4385 29.9182 27.357 29.3969L27.0547 27.478C26.6625 24.9925 24.1934 23.1999 24.1702 23.1829C23.6902 22.8456 23.5747 22.1805 23.9121 21.7005Z" fill="#0109C4"/>
<path d="M44.1959 48.4136C44.1959 48.4136 44.1393 47.8136 44.9549 47.8142L44.0561 46.9629L43.8398 47.9642L44.1959 48.4136Z" fill="#6B8FA6"/>
<path d="M37.591 13.8252C37.7942 13.5609 38.1027 13.4092 38.4361 13.4092C38.6727 13.4092 38.8974 13.485 39.0853 13.6299C39.1962 13.716 41.8136 15.7673 42.353 19.1975L42.5461 21.1169C42.6055 21.7016 42.1781 22.2252 41.5917 22.2835C41.5561 22.2869 41.521 22.2886 41.4859 22.2886C40.9362 22.2886 40.4812 21.8771 40.4274 21.3303L40.2417 19.4703C39.8495 16.9848 37.8661 15.3824 37.7857 15.3179C37.321 14.9601 37.2338 14.2905 37.591 13.8252Z" fill="#0109C4"/>
<path d="M64.2266 44.8342C64.3171 44.8342 64.4054 44.7878 64.4558 44.7034C64.5305 44.5766 64.4886 44.4136 64.3613 44.3389L42.21 31.2663C42.086 31.1921 41.9213 31.2334 41.846 31.3602C41.7707 31.487 41.8126 31.65 41.94 31.7253L64.0913 44.798C64.1332 44.8223 64.1802 44.8342 64.2266 44.8342Z" fill="#565656"/>
<path d="M64.8261 39.7786C64.9161 39.7786 65.0044 39.7328 65.0543 39.6495C65.1301 39.5239 65.0893 39.3603 64.9637 39.2844L41.8212 25.3486C41.695 25.2733 41.5314 25.3129 41.4561 25.4392C41.3803 25.5654 41.421 25.729 41.5467 25.8048L64.6892 39.7407C64.7322 39.7667 64.7797 39.7786 64.8261 39.7786Z" fill="#565656"/>
<path d="M46.4996 39.6117H46.5007C46.6484 39.6105 46.7673 39.4911 46.7662 39.3434L46.6699 22.4749C46.6688 22.3283 46.5494 22.21 46.4033 22.21H46.4022C46.2545 22.2105 46.1356 22.3305 46.1367 22.4771L46.233 39.3468C46.2341 39.4934 46.3535 39.6117 46.4996 39.6117Z" fill="#565656"/>
<path d="M60.0075 51.9285C60.1456 51.9285 60.2798 51.8566 60.3539 51.7281C60.4643 51.5379 60.3987 51.2934 60.2079 51.183L38.9039 38.883C38.7121 38.7727 38.4681 38.8389 38.3583 39.0296C38.2479 39.221 38.3136 39.4644 38.5043 39.5753L59.8083 51.8747C59.8711 51.9115 59.9402 51.9285 60.0075 51.9285Z" fill="#3A393A"/>
<path d="M47.4346 53.7865C47.4805 53.7865 47.5258 53.7746 47.5682 53.7509L59.3582 46.9114C59.4856 46.8373 59.5286 46.6743 59.455 46.5469C59.3809 46.419 59.2173 46.3765 59.0911 46.4501L47.3011 53.2895C47.1731 53.3637 47.1301 53.5267 47.2043 53.6541C47.2535 53.739 47.3429 53.7865 47.4346 53.7865Z" fill="#3A393A"/>
<path d="M28.9966 33.2296C29.0424 33.2296 29.0889 33.2177 29.1307 33.1933L41.8224 25.8066C41.9492 25.733 41.9923 25.57 41.9187 25.4426C41.8434 25.3152 41.6809 25.2722 41.5541 25.3464L28.863 32.7326C28.7356 32.8067 28.6926 32.9698 28.7668 33.0971C28.8166 33.182 28.9055 33.2296 28.9966 33.2296Z" fill="#565656"/>
<path d="M29.8599 38.7226C29.9047 38.7226 29.9499 38.7107 29.9913 38.6875L42.2069 31.727C42.3348 31.6545 42.3796 31.4915 42.3065 31.3636C42.2335 31.2351 42.0711 31.1915 41.9443 31.2639L29.7286 38.2245C29.6007 38.2975 29.556 38.4605 29.6284 38.5885C29.6782 38.6739 29.7682 38.7226 29.8599 38.7226Z" fill="#565656"/>
<path d="M34.6997 46.4227C34.745 46.4227 34.7909 46.4108 34.8328 46.3871L46.6301 39.5754C46.758 39.5018 46.8016 39.3393 46.7275 39.212C46.6545 39.0846 46.4914 39.0416 46.3635 39.1146L34.5667 45.9258C34.4394 45.9993 34.3958 46.1618 34.4694 46.2897C34.5186 46.3746 34.6086 46.4227 34.6997 46.4227Z" fill="#3A393A"/>
<path d="M55.2273 44.6219C55.3688 44.6219 55.4859 44.5115 55.4927 44.3688L56.2699 28.6545C56.2767 28.5073 56.1641 28.3828 56.0175 28.3754C55.8805 28.367 55.7458 28.4813 55.7384 28.6279L54.9612 44.3422C54.9544 44.4894 55.0671 44.6145 55.2142 44.6219H55.2273Z" fill="#565656"/>
<path d="M35.025 41.611C35.038 41.611 35.0511 41.6098 35.0646 41.6081C35.2095 41.5861 35.3103 41.4508 35.2888 41.3053L32.7637 24.4498C32.7422 24.3038 32.6063 24.2059 32.4614 24.2257C32.316 24.2478 32.2158 24.383 32.2373 24.5285L34.7618 41.3846C34.7816 41.5164 34.8954 41.611 35.025 41.611Z" fill="#565656"/>
<path d="M38.703 39.4956C38.7126 39.4956 38.7217 39.495 38.7307 39.4939C38.8773 39.4792 38.9837 39.3478 38.9684 39.2012L37.1758 22.0441C37.1605 21.8969 37.032 21.7876 36.8832 21.8069C36.7371 21.8216 36.6307 21.9529 36.646 22.099L38.4386 39.2567C38.4528 39.3937 38.5688 39.4956 38.703 39.4956Z" fill="#565656"/>
<path d="M51.0909 42.0407C51.2352 42.0407 51.3541 41.9252 51.3575 41.7803L51.7141 25.7195C51.7169 25.5724 51.6003 25.4507 51.4537 25.4473H51.4475C51.3032 25.4473 51.1843 25.5627 51.1809 25.7076L50.8243 41.769C50.8209 41.9156 50.9375 42.0373 51.0847 42.0407H51.0909Z" fill="#565656"/>
<path d="M56.0033 54.2333C56.142 54.2333 56.2756 54.1619 56.3498 54.0335C56.4607 53.8427 56.3945 53.5987 56.2037 53.4884L34.8998 41.1884C34.7079 41.078 34.4639 41.1436 34.3541 41.3344C34.2443 41.5257 34.3094 41.7697 34.5007 41.8801L55.8041 54.1801C55.8675 54.2163 55.936 54.2333 56.0033 54.2333Z" fill="#3A393A"/>
<path d="M43.3876 51.4241C43.4329 51.4241 43.4782 51.4122 43.5201 51.389L55.3627 44.5864C55.4901 44.5128 55.5342 44.3503 55.4607 44.2224C55.3876 44.095 55.2241 44.052 55.0973 44.1245L43.2552 50.9266C43.1273 51.0001 43.0831 51.1626 43.1567 51.2905C43.2059 51.376 43.2954 51.4241 43.3876 51.4241Z" fill="#3A393A"/>
<path d="M39.1648 48.9882C39.2107 48.9882 39.2571 48.9764 39.299 48.952L51.2214 42.005C51.3482 41.9309 51.3918 41.7679 51.3177 41.6411C51.2435 41.5137 51.0805 41.4713 50.9531 41.5448L39.0307 48.4918C38.9039 48.566 38.8603 48.729 38.935 48.8564C38.9843 48.9407 39.0731 48.9882 39.1648 48.9882Z" fill="#3A393A"/>
<path d="M30.7092 44.3699C30.7992 44.3699 30.8909 44.3473 30.9752 44.2986L42.7619 37.4937C43.0166 37.3465 43.1037 37.0211 42.9571 36.7658C42.8094 36.5111 42.4834 36.4239 42.2292 36.5711L30.442 43.376C30.1873 43.5231 30.1002 43.8492 30.2473 44.1033C30.3458 44.2748 30.5252 44.3699 30.7092 44.3699Z" fill="#565656"/>
<path d="M42.4951 37.5645C42.507 37.5645 42.5183 37.5645 42.5297 37.5634C42.8234 37.5452 43.0465 37.2917 43.0272 36.9984L41.8929 19.2034C41.8731 18.9101 41.6189 18.682 41.3274 18.7064C41.0331 18.7251 40.81 18.9781 40.8293 19.2718L41.9642 37.0658C41.9823 37.3477 42.2166 37.5645 42.4951 37.5645Z" fill="#565656"/>
<path d="M63.8391 49.8403C64.0236 49.8403 64.2025 49.7446 64.301 49.5731C64.4476 49.3184 64.3599 48.9929 64.1051 48.8458L42.7593 36.5707C42.5057 36.4229 42.1791 36.5112 42.0319 36.766C41.8853 37.0212 41.9731 37.3467 42.2278 37.4939L63.5742 49.769C63.6574 49.8171 63.7491 49.8403 63.8391 49.8403Z" fill="#565656"/>
<path d="M59.2241 46.9471C59.36 46.9471 59.4766 46.8418 59.489 46.7037L60.8034 31.5757C60.8164 31.4286 60.7077 31.2995 60.5611 31.2871C60.4156 31.2718 60.286 31.3822 60.273 31.5293L58.9581 46.6572C58.9451 46.8039 59.0537 46.9335 59.2004 46.9459C59.2083 46.9465 59.2162 46.9471 59.2241 46.9471Z" fill="#565656"/>
<path d="M24.4567 22.6402C24.5116 22.4341 24.6429 22.2615 24.8274 22.1539L38.1429 14.4128C38.2652 14.3426 38.4039 14.3047 38.5437 14.3047C38.8278 14.3047 39.0922 14.4575 39.2337 14.7026C39.3418 14.8871 39.3712 15.1022 39.3163 15.3083C39.2614 15.5143 39.1301 15.6875 38.9456 15.7945L25.6307 23.5356C25.5084 23.6058 25.3697 23.6432 25.2293 23.6432C24.9452 23.6432 24.6808 23.4909 24.5393 23.2464C24.4312 23.0619 24.4018 22.8462 24.4567 22.6402Z" fill="#0109C4"/>
<path d="M46.1374 39.7324V51.0503L37.0418 45.7986C36.6048 45.5462 36.3359 45.0803 36.3359 44.5771V34.0737L46.1374 39.7324Z" fill="#0109C4"/>
<path d="M46.1367 39.7324L55.9382 34.0737V44.6535C55.9382 45.1103 55.6948 45.532 55.2992 45.7596L46.1367 51.0503V39.7324Z" fill="#123155"/>
<path d="M36.2969 34.0841L45.5284 28.7543C45.9059 28.5363 46.3707 28.5363 46.7476 28.7543L55.9786 34.0841L46.138 39.766L36.2969 34.0841Z" fill="#CECDCC"/>
<path d="M41.9128 37.3268L40.6602 36.604V41.4742L41.9128 42.197V37.3268Z" fill="#ADADAD"/>
<path d="M50.5233 37.2356L51.7301 36.5371L51.7753 41.3796L50.4961 42.1182L50.5233 37.2356Z" fill="#ADADAD"/>
<path d="M51.7316 36.537L41.9279 30.8291L40.6758 31.5497L50.5146 37.2333L51.7316 36.537Z" fill="#ADADAD"/>
<path d="M40.6602 36.5928L41.9128 37.3156L51.7454 31.645L50.4894 30.9233L40.6602 36.5928Z" fill="#ADADAD"/>
<path d="M33.5815 36.0536L33.9631 40.5677L30.4015 38.466L29.6459 33.6683L33.5815 36.0536ZM38.1817 38.8413L38.5015 43.2462L34.5251 40.8994L34.1448 36.3955L38.1817 38.8413ZM42.5289 41.4762L42.7304 45.7413L39.0608 43.5756L38.7404 39.1798L42.5289 41.4762ZM47.0414 44.2107L47.098 48.319L43.5529 46.227L43.3519 41.9749L47.0414 44.2107ZM51.4791 46.9006V50.9047L47.6351 48.636L47.5791 44.5368L51.4791 46.9006ZM55.8285 45.0156L55.7872 49.0702L52.5444 50.9183V46.9119L55.8285 45.0156ZM60.0834 42.5585L59.9249 46.7126L56.3232 48.7651L56.3634 44.7066L60.0834 42.5585ZM64.2302 40.1653L63.7904 44.5096L60.4706 46.4019L60.6297 42.2443L64.2302 40.1653ZM60.4463 47.029L63.7248 45.1606L63.3376 48.9824L60.3048 50.7338L60.4463 47.029ZM56.317 49.3815L59.9006 47.3392L59.7591 51.0485L56.2802 53.0573L56.317 49.3815ZM52.5444 51.5313L55.7815 49.6866L55.7442 53.3664L52.5444 55.2145V51.5313ZM47.6436 49.2598L51.4791 51.5234V55.2145L47.6957 53.0296L47.6436 49.2598ZM43.5829 46.8638L47.1065 48.9428L47.158 52.7194L43.7674 50.7615L43.5829 46.8638ZM39.1078 44.2221L42.7604 46.3781L42.9455 50.2872L39.3993 48.2398L39.1078 44.2221ZM34.5806 41.5504L38.5485 43.8926L38.8417 47.9177L34.927 45.6581L34.5806 41.5504ZM30.5085 39.1475L34.018 41.2187L34.3655 45.3338L31.194 43.5026L30.5085 39.1475ZM64.3576 49.403C64.3598 49.3883 64.3683 49.3758 64.37 49.3611L65.857 34.6781C65.8859 34.386 65.6725 34.1245 65.3804 34.0945C65.0781 34.0679 64.8263 34.2785 64.7963 34.5711L64.2965 39.5109L60.6534 41.6143L60.8119 37.4715C60.817 37.3243 60.7027 37.2009 60.5561 37.1958C60.5521 37.1953 60.5487 37.1953 60.5459 37.1953C60.4032 37.1953 60.2849 37.3079 60.2793 37.4517L60.1078 41.9296L56.3697 44.0879L56.4098 40.0753C56.4115 39.9292 56.2938 39.8087 56.1461 39.807H56.1438C55.9983 39.807 55.8795 39.9247 55.8778 40.0707L55.8342 44.397L52.5444 46.2972V42.5251C52.5444 42.2307 52.3061 41.9924 52.0117 41.9924C51.7168 41.9924 51.4791 42.2307 51.4791 42.5251V46.2779L47.57 43.909L47.5089 39.417C47.5066 39.2698 47.3917 39.139 47.2383 39.1549C47.0912 39.156 46.9734 39.2772 46.9757 39.4243L47.0329 43.5836L43.3214 41.3341L43.0898 36.4396C43.0797 36.2189 42.8691 36.0558 42.6727 36.0598C42.4519 36.0694 42.2815 36.2568 42.2923 36.4775L42.4983 40.8349L38.6934 38.5289L38.3221 33.4249C38.3108 33.2783 38.1863 33.1662 38.0368 33.1787C37.8902 33.1894 37.7798 33.3168 37.7906 33.4634L38.1342 38.1898L34.0893 35.7389L33.6359 30.3666C33.624 30.2194 33.4915 30.109 33.3483 30.1232C33.2017 30.1357 33.0931 30.2647 33.1049 30.4113L33.5261 35.3975L29.5372 32.98L28.571 26.8424C28.5246 26.5515 28.254 26.3528 27.9619 26.3987C27.6715 26.4445 27.4729 26.7173 27.5181 27.0083L30.1814 43.9198C30.1831 43.93 30.1893 43.9379 30.191 43.947C30.1972 43.9764 30.2091 44.0024 30.2204 44.0296C30.234 44.0647 30.2476 44.0987 30.2685 44.1298C30.2832 44.1519 30.3014 44.1706 30.3195 44.1904C30.3472 44.2209 30.3766 44.2475 30.41 44.2707C30.4219 44.2787 30.4293 44.2911 30.4412 44.2979L51.7451 56.5985C51.7463 56.599 51.7468 56.599 51.748 56.5996C51.7598 56.6064 51.7734 56.6092 51.7853 56.6149C51.8 56.6217 51.8136 56.6273 51.8283 56.6324C51.8295 56.633 51.8312 56.6336 51.8323 56.6341C51.8912 56.6551 51.9506 56.6698 52.0112 56.6698H52.0123C52.0723 56.6698 52.1323 56.6551 52.1912 56.6336C52.1923 56.633 52.1934 56.633 52.1946 56.6324C52.2093 56.6273 52.224 56.6217 52.2376 56.6149C52.25 56.6087 52.2636 56.6064 52.2749 56.5996C52.2761 56.599 52.2766 56.5985 52.2778 56.5985L64.1063 49.7687C64.121 49.7602 64.1295 49.7455 64.1431 49.7358C64.1753 49.7132 64.2036 49.6889 64.2302 49.6594C64.2506 49.6373 64.2681 49.6147 64.284 49.5898C64.3027 49.5598 64.3174 49.5292 64.3298 49.4953C64.3417 49.4647 64.3514 49.4353 64.3576 49.403Z" fill="#ADADAD"/>
<path d="M65.6142 34.1773L41.647 18.7896C41.6261 18.776 41.6023 18.7737 41.5803 18.7636C41.5452 18.7466 41.5112 18.7296 41.4733 18.7211C41.4387 18.7137 41.4054 18.7149 41.3708 18.7143C41.3369 18.7132 41.3046 18.7109 41.2712 18.7166C41.2338 18.7222 41.1999 18.7381 41.1648 18.7522C41.141 18.7619 41.1161 18.7636 41.0935 18.7766L27.7786 26.4639C27.7729 26.4668 27.7706 26.4724 27.765 26.4758C27.735 26.4945 27.7112 26.5211 27.6852 26.546C27.6591 26.5709 27.6308 26.593 27.6104 26.6219C27.607 26.6269 27.602 26.6292 27.5986 26.6349C27.5844 26.6558 27.5821 26.6796 27.5714 26.7017C27.555 26.7373 27.5369 26.7719 27.5284 26.8103C27.521 26.8443 27.5221 26.8771 27.5216 26.9105C27.5204 26.9451 27.517 26.9773 27.5227 27.0119C27.5295 27.0509 27.5454 27.0871 27.5606 27.1239C27.5697 27.146 27.5714 27.1698 27.5833 27.1913C27.5872 27.1975 27.5923 27.202 27.5963 27.2077C27.6054 27.2213 27.6155 27.232 27.6257 27.2456C27.6574 27.2869 27.6942 27.3232 27.735 27.3526C27.7423 27.3583 27.7463 27.3662 27.7537 27.3719L51.7208 42.9719C51.8108 43.0302 51.9116 43.0579 52.0112 43.0579C52.185 43.0579 52.3559 42.9724 52.4578 42.8162C52.6186 42.5694 52.5489 42.2394 52.3021 42.0792L29.0629 26.9519L41.3454 19.8611L65.0386 35.0734C65.128 35.1305 65.2276 35.1577 65.3261 35.1577C65.5016 35.1577 65.6731 35.0711 65.775 34.9126C65.9335 34.6652 65.8616 34.3358 65.6142 34.1773Z" fill="#CECDCC"/>
<path d="M48.9382 40.5245C49.0865 40.297 49.3367 40.1611 49.6084 40.1611C49.763 40.1611 49.9135 40.2064 50.0437 40.2907L52.0316 41.5847L63.8069 34.5981L62.3069 33.6353C61.9367 33.3975 61.8281 32.9023 62.0664 32.5309C62.2141 32.3017 62.466 32.1636 62.7394 32.1636C62.8922 32.1636 63.0411 32.2083 63.1707 32.2909L65.7592 33.9528C65.8605 34.0179 65.9398 34.1028 66.0003 34.199C66.0043 34.2058 66.0105 34.2109 66.015 34.2172C66.0252 34.2341 66.0303 34.2517 66.0388 34.2687C66.049 34.2896 66.0598 34.3106 66.0682 34.3332C66.079 34.3604 66.0875 34.3887 66.0954 34.4175C66.1011 34.4385 66.1062 34.4594 66.1107 34.4809C66.1158 34.5098 66.1192 34.5381 66.1203 34.5664C66.1226 34.5907 66.1237 34.614 66.1232 34.6383C66.1226 34.6638 66.1203 34.6887 66.1181 34.7141C66.1152 34.7407 66.1113 34.7673 66.1056 34.794C66.0999 34.8172 66.0937 34.8398 66.0864 34.8624C66.0779 34.889 66.0694 34.9151 66.0581 34.9411C66.0484 34.9649 66.036 34.987 66.0241 35.0096C66.015 35.0249 66.0094 35.0413 65.9998 35.0566C65.9958 35.0634 65.9896 35.0673 65.985 35.0741C65.9562 35.116 65.9239 35.1556 65.8866 35.1919C65.8798 35.1987 65.8741 35.2066 65.8673 35.2134C65.8271 35.2502 65.7835 35.283 65.7349 35.3119L52.4205 43.2121C52.4166 43.2143 52.4115 43.2155 52.4075 43.2177C52.3656 43.2415 52.3209 43.2579 52.275 43.2738C52.2552 43.2806 52.2371 43.2913 52.2173 43.2964C52.1556 43.3128 52.0911 43.3207 52.0254 43.3219C52.0209 43.3224 52.0169 43.3241 52.013 43.3241H52.0118C52.0084 43.3241 52.005 43.3224 52.0011 43.3224C51.9315 43.3213 51.8635 43.3117 51.7979 43.293C51.7707 43.2856 51.7458 43.2715 51.7198 43.2607C51.6784 43.2443 51.6377 43.2279 51.5992 43.2047C51.5918 43.2007 51.5833 43.1996 51.5765 43.1945L49.172 41.6294C48.9932 41.5134 48.8703 41.3345 48.8262 41.1256C48.782 40.9162 48.8216 40.7028 48.9382 40.5245Z" fill="#0109C4"/>
</g>
<defs>
<clipPath id="clip0_406_1033">
<rect width="90" height="90" fill="white"/>
</clipPath>
</defs>
</svg>
