<svg width="90" height="90" viewBox="0 0 90 90" fill="none" xmlns="http://www.w3.org/2000/svg">
<g clip-path="url(#clip0_406_1103)">
<path d="M90 0H0V90H90V0Z" fill="white"/>
<path d="M80.2113 59.8118H80.2209V54.9507L71.1824 52.6129L51.1429 41.0431C47.7699 39.0954 42.6665 38.8831 39.7446 40.571L19.2184 52.421L9.6371 54.6903V59.4891C9.63031 59.5961 9.63257 59.7048 9.6371 59.8118V59.8865H9.6405C9.73559 61.1176 10.6696 62.3941 12.4169 63.4022L38.7048 78.5805C42.0801 80.5282 47.1829 80.7405 50.1048 79.0537L78.2511 62.8022C79.6294 62.0074 80.2667 60.9308 80.2113 59.8118Z" fill="#BFC3C7"/>
<path d="M78.2514 57.6808L50.1046 73.9324C47.1827 75.6186 42.0798 75.4063 38.7051 73.4591L12.4166 58.282C9.04193 56.3331 8.6757 53.3874 11.5976 51.7001L39.7444 35.4497C42.6663 33.7624 47.7691 33.974 51.1427 35.9218L77.4323 51.1001C80.807 53.0473 81.1732 55.9946 78.2514 57.6808Z" fill="#E9E8E7"/>
<path d="M45.5273 32.8582L56.6738 45.911L57.8636 45.221L46.66 32.3335L45.5273 32.8582Z" fill="#123155"/>
<path d="M45.5613 34.0918L56.6743 47.3393V45.9112L45.5273 32.8584L45.5613 34.0918Z" fill="#0109C4"/>
<path d="M45.9609 27.7674L54.014 35.791L55.2032 35.101L47.0936 27.2427L45.9609 27.7674Z" fill="#123155"/>
<path d="M45.707 28.6387L54.0136 37.2193V35.7912L45.9606 27.7676L45.707 28.6387Z" fill="#0109C4"/>
<path d="M45.3906 40.3011L59.6519 56.7988L60.8412 56.1088L46.5233 39.7764L45.3906 40.3011Z" fill="#123155"/>
<path d="M45.3969 41.5115L58.5006 56.1368L59.6525 56.7985L45.3906 40.3008L45.3969 41.5115Z" fill="#0109C4"/>
<path d="M32.0117 46.7617L33.2061 47.2893L45.1223 34.1917L43.9896 33.667L32.0117 46.7617Z" fill="#0109C4"/>
<path d="M33.2031 47.289L34.3494 46.7897L45.3729 35.0625L45.1194 34.1914L33.2031 47.289Z" fill="#123155"/>
<path d="M34.3984 38.5145L35.5933 39.042L44.8447 28.6541L43.712 28.1294L34.3984 38.5145Z" fill="#0109C4"/>
<path d="M35.5938 39.0417L36.7394 38.5431L45.0992 29.5255L44.8451 28.6538L35.5938 39.0417Z" fill="#123155"/>
<path d="M29.1641 56.1549L30.0963 56.679L46.7101 40.3743L45.5775 39.8496L29.1641 56.1549Z" fill="#0109C4"/>
<path d="M30.0938 56.6792L31.3504 56.137L46.9611 41.2456L46.7075 40.3745L30.0938 56.6792Z" fill="#123155"/>
<path d="M44.9453 23.0899L45.1083 48.3873L46.1855 47.8756L46.0225 22.5776L44.9453 23.0899Z" fill="#123155"/>
<path d="M43.707 22.4243L43.8689 47.7166L45.1097 48.3873L44.9472 23.0956L43.707 22.4243Z" fill="#123155"/>
<path d="M52.0039 26.2676L59.7892 56.7985L60.8132 56.1985L53.0811 25.7559L52.0039 26.2676Z" fill="#123155"/>
<path d="M50.7656 25.5967L58.5503 56.1276L59.7911 56.7984L52.0058 26.268L50.7656 25.5967Z" fill="#0109C4"/>
<path d="M30.2461 56.8878L31.4625 56.2301L40.3889 26.3003L39.1991 26.8522L30.2461 56.8878Z" fill="#123155"/>
<path d="M29.0781 56.2104L30.2453 56.888L39.1983 26.8523L38.1047 26.1289L29.0781 56.2104Z" fill="#0109C4"/>
<path d="M35.5703 39.0418L45.2111 55.8214L46.2294 54.8377L36.703 38.5171L35.5703 39.0418Z" fill="#123155"/>
<path d="M35.3164 39.9131L44.0606 55.1599L45.2113 55.821L35.5706 39.042L35.3164 39.9131Z" fill="#0109C4"/>
<path d="M37.8633 31.3719L45.2116 44.1621L46.4014 43.4721L38.9959 30.8472L37.8633 31.3719Z" fill="#123155"/>
<path d="M37.6094 32.2432L44.0605 43.5011L45.2118 44.1623L37.863 31.3721L37.6094 32.2432Z" fill="#0109C4"/>
<path d="M33.2188 47.0418L43.802 64.6433L44.9918 63.9533L34.352 46.5171L33.2188 47.0418Z" fill="#123155"/>
<path d="M32.9766 47.9346L42.662 64.0033L43.8139 64.665L33.2301 47.0635L32.9766 47.9346Z" fill="#0109C4"/>
<path d="M44.0391 52.8242L45.2289 53.5142L54.7411 36.966L53.6085 36.4419L44.0391 52.8242Z" fill="#0109C4"/>
<path d="M45.2305 53.5139L46.3812 52.8522L54.9969 37.8369L54.7433 36.9663L45.2305 53.5139Z" fill="#123155"/>
<path d="M44.3398 40.6542L45.2308 41.8547L52.681 28.8268L51.5478 28.3032L44.3398 40.6542Z" fill="#0109C4"/>
<path d="M45.2305 41.8546L46.3812 41.1929L52.9342 29.6984L52.6807 28.8267L45.2305 41.8546Z" fill="#123155"/>
<path d="M43.8281 64.659L44.9534 65.3116L56.9228 45.2552L55.7902 44.7305L43.8281 64.659Z" fill="#0109C4"/>
<path d="M44.9531 65.3119L46.1039 64.6502L57.1767 46.126L56.9226 45.2549L44.9531 65.3119Z" fill="#123155"/>
<path d="M44.9531 65.3726L46.1424 64.6826L46.7543 29.7241L45.5644 30.2754L44.9531 65.3726Z" fill="#123155"/>
<path d="M43.8008 64.7112L44.9521 65.3724L45.5629 30.282L44.4698 29.5586L43.8008 64.7112Z" fill="#0109C4"/>
<path d="M52.021 26.6042C51.7103 26.9053 51.3316 27.1894 50.8844 27.4493C49.792 28.0844 48.4454 28.484 47.032 28.6476C44.6342 28.926 42.0463 28.5264 40.1807 27.4493C38.688 26.5877 37.9431 25.4574 37.9465 24.3281L37.9414 25.9815C37.938 27.1108 38.6841 28.2423 40.1756 29.1032C42.0412 30.1798 44.6297 30.5794 47.0269 30.3015C48.4403 30.1374 49.7875 29.7383 50.8799 29.1032C51.3265 28.8434 51.7052 28.5587 52.0159 28.2581C52.7229 27.5727 53.0767 26.7994 53.0795 26.0245L53.0841 24.3711C53.0818 25.1455 52.728 25.9187 52.021 26.6042Z" fill="#494949"/>
<path d="M50.8487 21.2491C53.8142 22.9614 53.8301 25.7378 50.8838 27.4495C47.9376 29.1617 43.1455 29.1617 40.1795 27.4495C37.214 25.7378 37.1987 22.9614 40.145 21.2491C43.0906 19.5374 47.8833 19.5374 50.8487 21.2491Z" fill="#CECDCC"/>
<path d="M49.4935 21.8402C49.3062 22.0219 49.0775 22.1939 48.8075 22.3502C48.1475 22.7339 47.3346 22.9751 46.4811 23.0747C45.0337 23.2422 43.4709 23.0011 42.3445 22.3502C41.4433 21.8305 40.9933 21.1473 40.9956 20.4658L40.9922 23.6945C40.9911 24.376 41.4405 25.0592 42.3416 25.5794C43.4675 26.2298 45.0309 26.4709 46.4782 26.3034C47.3318 26.2043 48.1446 25.9626 48.8046 25.5794C49.0746 25.4226 49.3028 25.2505 49.4907 25.0694C49.9169 24.6556 50.1309 24.1881 50.1326 23.7205L50.1354 20.4919C50.1343 20.9594 49.9203 21.427 49.4935 21.8402Z" fill="#494949"/>
<path d="M48.7872 18.6067C50.577 19.6403 50.5866 21.3169 48.8081 22.3499C47.0297 23.3835 44.1355 23.3835 42.3451 22.3499C40.5547 21.3169 40.5451 19.6403 42.3242 18.6067C44.1032 17.5731 46.9968 17.5731 48.7872 18.6067Z" fill="#CECDCC"/>
<path d="M46.323 15.3301L46.7022 20.4295C46.7016 20.5733 46.6071 20.7165 46.4186 20.8263C46.0399 21.0465 45.4224 21.0465 45.0415 20.8263C44.849 20.7153 44.7539 20.5699 44.7539 20.4244L45.1541 15.3267C45.1535 15.4138 45.2113 15.5016 45.3262 15.5678C45.5554 15.6997 45.9256 15.6997 46.1526 15.5678C46.2658 15.5021 46.3224 15.4155 46.323 15.3301Z" fill="#E9E8E7"/>
<mask id="mask0_406_1103" style="mask-type:luminance" maskUnits="userSpaceOnUse" x="44" y="15" width="3" height="6">
<path d="M44.75 20.4244C44.75 20.5699 44.8457 20.7148 45.0381 20.8263C45.4191 21.0459 46.0366 21.0459 46.4147 20.8263C46.6032 20.7159 46.6983 20.5727 46.6989 20.4295L46.3191 15.3301C46.3185 15.4161 46.2625 15.5021 46.1487 15.5678C45.9217 15.6997 45.5515 15.6997 45.3228 15.5678C45.2074 15.5016 45.1496 15.4138 45.1496 15.3267" fill="#E9E8E7"/>
</mask>
<g mask="url(#mask0_406_1103)">
<path d="M46.318 15.3301L46.6973 23.2597C46.6967 23.3559 46.6548 23.451 46.5711 23.5365L46.2422 15.4959C46.2926 15.4444 46.3175 15.3872 46.318 15.3301Z" fill="#E9E8E7"/>
</g>
<mask id="mask1_406_1103" style="mask-type:luminance" maskUnits="userSpaceOnUse" x="44" y="15" width="3" height="6">
<path d="M44.75 20.4244C44.75 20.5699 44.8457 20.7148 45.0381 20.8263C45.4191 21.0459 46.0366 21.0459 46.4147 20.8263C46.6032 20.7159 46.6983 20.5727 46.6989 20.4295L46.3191 15.3301C46.3185 15.4161 46.2625 15.5021 46.1487 15.5678C45.9217 15.6997 45.5515 15.6997 45.3228 15.5678C45.2074 15.5016 45.1496 15.4138 45.1496 15.3267" fill="#E9E8E7"/>
</mask>
<g mask="url(#mask1_406_1103)">
<path d="M46.2423 15.4956L46.5711 23.5362C46.5293 23.5792 46.4766 23.6199 46.4138 23.6562C46.1319 23.8198 45.7176 23.8616 45.3672 23.7818L45.5195 15.6428C45.73 15.6909 45.9785 15.666 46.1478 15.5675C46.1857 15.5454 46.2174 15.5216 46.2423 15.4956Z" fill="#E9E8E7"/>
</g>
<mask id="mask2_406_1103" style="mask-type:luminance" maskUnits="userSpaceOnUse" x="44" y="15" width="3" height="6">
<path d="M44.75 20.4244C44.75 20.5699 44.8457 20.7148 45.0381 20.8263C45.4191 21.0459 46.0366 21.0459 46.4147 20.8263C46.6032 20.7159 46.6983 20.5727 46.6989 20.4295L46.3191 15.3301C46.3185 15.4161 46.2625 15.5021 46.1487 15.5678C45.9217 15.6997 45.5515 15.6997 45.3228 15.5678C45.2074 15.5016 45.1496 15.4138 45.1496 15.3267" fill="#E9E8E7"/>
</mask>
<g mask="url(#mask2_406_1103)">
<path d="M45.5204 15.6431L45.3681 23.7821C45.2481 23.7544 45.1349 23.7125 45.0375 23.6565C44.8457 23.5455 44.75 23.4001 44.75 23.2546L45.1502 15.3267C45.1496 15.4144 45.2074 15.5016 45.3223 15.5678C45.3811 15.6023 45.4485 15.6272 45.5204 15.6431Z" fill="#E9E8E7"/>
</g>
<path d="M46.1488 15.0891C46.3775 15.221 46.3786 15.4356 46.151 15.568C45.9241 15.6999 45.5533 15.6999 45.3246 15.568C45.096 15.4356 45.0948 15.221 45.3218 15.0891C45.5494 14.9573 45.9195 14.9573 46.1488 15.0891Z" fill="#E9E8E7"/>
<path d="M46.9945 15.0607C46.9945 14.3616 46.4274 13.7944 45.7283 13.7944C45.0281 13.7944 44.4609 14.3616 44.4609 15.0607C44.4609 15.7603 45.0281 16.3275 45.7283 16.3275C46.4274 16.3275 46.9945 15.7603 46.9945 15.0607Z" fill="#0109C4"/>
<path d="M46.1395 4.7069C44.5053 3.76332 42.9176 3.54653 41.6666 4.09671L41.3672 4.27049C42.6181 3.72143 44.2064 3.93766 45.84 4.88068C46.4445 5.22992 47.0434 5.67143 47.6202 6.19105C48.5819 7.05653 49.4853 8.13766 50.2579 9.362L49.663 9.80294L49.9619 9.6286L50.5585 9.18822C49.3211 7.2286 47.7515 5.63747 46.1395 4.7069Z" fill="#123155"/>
<path d="M45.8395 4.88043C47.4521 5.81156 49.0206 7.40213 50.2585 9.36175L49.6625 9.80269C48.5881 8.10288 47.2302 6.72288 45.8366 5.91798C44.4244 5.10288 43.0483 4.91666 41.9638 5.39383L41.3672 4.27081C42.6181 3.72119 44.2059 3.93741 45.8395 4.88043Z" fill="#CECDCC"/>
<path d="M46.1329 7.77998C45.0552 7.15734 44.0086 7.0147 43.1862 7.3781L42.8867 7.55244C43.7097 7.18904 44.7552 7.33168 45.8341 7.95376C46.896 8.56678 47.9301 9.61451 48.7452 10.9051L48.1497 11.3455L48.4486 11.1717L49.0446 10.7307C48.229 9.44074 47.1948 8.39244 46.1329 7.77998Z" fill="#123155"/>
<path d="M45.8341 7.95327C46.896 8.56629 47.9301 9.61459 48.7458 10.9046L48.1492 11.345C47.4971 10.3136 46.6746 9.47761 45.8312 8.99082C44.9879 8.50403 44.1326 8.38969 43.4845 8.67327L42.8867 7.55195C43.7097 7.18856 44.7558 7.3312 45.8341 7.95327Z" fill="#CECDCC"/>
<path d="M47.6745 12.3916C47.2403 11.7056 46.6896 11.1469 46.1241 10.8208C45.549 10.4891 44.9926 10.4122 44.5533 10.6052L44.2539 10.7784C44.6932 10.5865 45.2501 10.6623 45.8247 10.9946C46.3901 11.3206 46.9409 11.8799 47.3756 12.5654L46.779 13.0057L47.0779 12.832L47.6745 12.3916Z" fill="#123155"/>
<path d="M45.8247 10.9945C46.3896 11.3205 46.9409 11.8792 47.375 12.5647L46.779 13.0056C46.5101 12.5788 46.1682 12.2324 45.8218 12.0314C45.4732 11.8311 45.1199 11.7847 44.8522 11.903L44.2539 10.7782C44.6932 10.5858 45.2496 10.6622 45.8247 10.9945Z" fill="#CECDCC"/>
</g>
<defs>
<clipPath id="clip0_406_1103">
<rect width="90" height="90" fill="white"/>
</clipPath>
</defs>
</svg>
