<svg width="180" height="36" viewBox="0 0 180 36" fill="none" xmlns="http://www.w3.org/2000/svg">
<path d="M11.3791 25.1078L1.78906 19.8244V16.9001L11.3791 11.6266V15.0762L4.68906 18.3176L11.3791 21.6879V25.1078Z" fill="black"/>
<path d="M13.7305 27.1399V9.39624H16.5605V16.3847H22.0705V9.39624H24.9005V27.1399H22.0705V19.3882H16.5605V27.1399H13.7305Z" fill="black"/>
<path d="M27.8086 12.5485V9.39624H30.4886V12.5485H27.8086ZM27.8086 27.1399V14.2832H30.4886V27.1399H27.8086Z" fill="black"/>
<path d="M42.0684 18.0996L39.4284 18.6943C39.3384 18.0302 39.1384 17.5246 38.8284 17.1876C38.5084 16.8506 38.0984 16.6821 37.5984 16.6821C36.9384 16.6821 36.3984 16.9794 35.9984 17.5643C35.6084 18.1491 35.4084 19.1305 35.4084 20.5084C35.4084 22.0349 35.6084 23.1154 36.0084 23.7498C36.4184 24.3743 36.9584 24.6915 37.6384 24.6915C38.1384 24.6915 38.5584 24.5032 38.8784 24.1364C39.2084 23.7696 39.4284 23.1352 39.5684 22.2332L42.2084 22.8081C41.9284 24.3446 41.4084 25.5043 40.6284 26.2874C39.8584 27.0705 38.8184 27.467 37.5084 27.467C36.0384 27.467 34.8584 26.8723 33.9784 25.6828C33.0884 24.4932 32.6484 22.8577 32.6484 20.7463C32.6484 18.6249 33.0984 16.9695 33.9784 15.78C34.8584 14.6004 36.0584 14.0056 37.5584 14.0056C38.7884 14.0056 39.7684 14.3526 40.4984 15.0167C41.2284 15.6908 41.7484 16.7217 42.0684 18.0996Z" fill="black"/>
<path d="M44.0078 27.1399V9.39624H46.6778V18.8133L49.8178 14.2832H53.1178L49.6578 18.9818L53.3678 27.1399H50.4778L47.9178 21.341L46.6778 23.0262V27.1399H44.0078Z" fill="black"/>
<path d="M54.7695 14.2832H57.2295V16.0377C58.1095 14.6896 59.1595 14.0056 60.3895 14.0056C61.0295 14.0056 61.5995 14.1742 62.0695 14.5211C62.5495 14.8581 62.9395 15.3637 63.2395 16.0576C63.6895 15.3637 64.1695 14.8581 64.6895 14.5211C65.1995 14.1742 65.7495 14.0056 66.3395 14.0056C67.0795 14.0056 67.7095 14.2039 68.2295 14.5806C68.7395 14.9672 69.1195 15.5322 69.3795 16.2756C69.5595 16.8208 69.6495 17.7031 69.6495 18.9322V27.1399H66.9795V19.8046C66.9795 18.5258 66.8895 17.7031 66.6995 17.3363C66.4495 16.8506 66.0695 16.6127 65.5595 16.6127C65.1795 16.6127 64.8295 16.7515 64.4895 17.0488C64.1695 17.3363 63.9195 17.7625 63.7795 18.3177C63.6295 18.8827 63.5595 19.7649 63.5595 20.9742V27.1399H60.8795V20.1019C60.8795 18.8629 60.8395 18.05 60.7395 17.6932C60.6495 17.3264 60.4995 17.0587 60.2995 16.8803C60.0995 16.7019 59.8295 16.6127 59.4895 16.6127C59.0695 16.6127 58.6995 16.7515 58.3695 17.029C58.0395 17.3165 57.7995 17.7229 57.6595 18.2582C57.5195 18.7835 57.4495 19.6757 57.4495 20.9049V27.1399H54.7695V14.2832Z" fill="black"/>
<path d="M74.3289 18.2483L71.8989 17.7031C72.1789 16.4442 72.6489 15.5124 73.3189 14.9176C73.9789 14.3129 74.9789 14.0056 76.2889 14.0056C77.4889 14.0056 78.3789 14.1841 78.9589 14.5508C79.5489 14.9077 79.9589 15.3637 80.1989 15.9089C80.4389 16.464 80.5589 17.4751 80.5589 18.962L80.5189 22.927C80.5189 24.0472 80.5589 24.8798 80.6389 25.425C80.7289 25.9603 80.8889 26.5353 81.1189 27.1399H78.4689C78.3989 26.9218 78.3089 26.5947 78.2089 26.1487C78.1689 25.9504 78.1289 25.8215 78.1089 25.7522C77.6589 26.3271 77.1689 26.7533 76.6489 27.0408C76.1289 27.3184 75.5789 27.467 74.9889 27.467C73.9489 27.467 73.1289 27.1102 72.5289 26.3866C71.9289 25.6729 71.6289 24.7609 71.6289 23.6705C71.6289 22.9469 71.7689 22.2926 72.0389 21.7276C72.3089 21.1626 72.6989 20.7165 73.1889 20.4191C73.6789 20.1218 74.3889 19.8541 75.3189 19.6261C76.5689 19.3287 77.4389 19.0512 77.9189 18.7935V18.4465C77.9189 17.7923 77.7889 17.3165 77.5389 17.029C77.2789 16.7515 76.7989 16.6127 76.0889 16.6127C75.6189 16.6127 75.2389 16.7316 74.9789 16.9695C74.7089 17.2173 74.4889 17.6436 74.3289 18.2483ZM77.9189 20.9941C77.5789 21.1428 77.0289 21.3113 76.2889 21.5194C75.5489 21.7177 75.0589 21.916 74.8289 22.1142C74.4789 22.4314 74.3089 22.8279 74.3089 23.3037C74.3089 23.7894 74.4489 24.1959 74.7289 24.5428C75.0089 24.8898 75.3589 25.0583 75.7889 25.0583C76.2789 25.0583 76.7389 24.86 77.1789 24.4635C77.4989 24.1463 77.7189 23.7795 77.8189 23.3335C77.8789 23.046 77.9189 22.4909 77.9189 21.678V20.9941Z" fill="black"/>
<path d="M92.4202 27.1399H89.7402V20.5877C89.7402 19.1999 89.6802 18.3077 89.5702 17.9013C89.4502 17.4949 89.2602 17.1777 89.0002 16.9497C88.7402 16.7217 88.4302 16.6127 88.0702 16.6127C87.6002 16.6127 87.1802 16.7713 86.8102 17.0984C86.4302 17.4156 86.1802 17.8418 86.0402 18.3771C85.9002 18.9124 85.8302 19.8938 85.8302 21.3311V27.1399H83.1602V14.2832H85.6402V16.1666C86.5302 14.7293 87.6402 14.0056 88.9902 14.0056C89.5902 14.0056 90.1302 14.1444 90.6202 14.4121C91.1202 14.6896 91.4902 15.0266 91.7402 15.443C91.9902 15.8692 92.1701 16.345 92.2701 16.8803C92.3701 17.4057 92.4202 18.169 92.4202 19.1602V27.1399Z" fill="black"/>
<path d="M162.051 27.4373L165.521 9.09888H167.531L164.041 27.4373H162.051Z" fill="black"/>
<path d="M168.41 25.1376V21.7177L175.1 18.3672L168.41 15.0465V11.6563L178 16.9299V19.8343L168.41 25.1376Z" fill="black"/>
<path d="M104.091 20.5976L106.831 21.6681C106.411 23.6209 105.711 25.0682 104.731 26.0198C103.761 26.9615 102.521 27.4373 101.021 27.4373C99.1606 27.4373 97.6306 26.6344 96.4306 25.0285C95.2406 23.4128 94.6406 21.2121 94.6406 18.4168C94.6406 15.4628 95.2406 13.1631 96.4406 11.5275C97.6406 9.89188 99.2306 9.07904 101.191 9.07904C102.901 9.07904 104.291 9.72336 105.361 11.0021C105.991 11.7654 106.471 12.8558 106.791 14.2832L103.991 15.1258C103.831 14.2039 103.481 13.4803 102.961 12.945C102.431 12.4196 101.791 12.152 101.051 12.152C100.011 12.152 99.1706 12.6179 98.5206 13.5695C97.8706 14.5112 97.5506 16.0377 97.5506 18.1491C97.5506 20.3894 97.8706 21.9853 98.5006 22.9369C99.1406 23.8985 99.9706 24.3644 100.991 24.3644C101.741 24.3644 102.391 24.067 102.931 23.4623C103.471 22.8576 103.861 21.906 104.091 20.5976Z" fill="#0109C4"/>
<path d="M108.609 20.5579C108.609 19.4279 108.829 18.3276 109.259 17.2669C109.709 16.2063 110.329 15.4033 111.129 14.8482C111.939 14.2931 112.829 14.0056 113.819 14.0056C115.359 14.0056 116.609 14.6401 117.589 15.9089C118.569 17.1777 119.059 18.7637 119.059 20.6967C119.059 22.6495 118.559 24.2653 117.579 25.544C116.589 26.8227 115.339 27.467 113.839 27.467C112.909 27.467 112.029 27.1994 111.189 26.6641C110.349 26.1288 109.709 25.3556 109.259 24.3148C108.829 23.2938 108.609 22.0349 108.609 20.5579ZM111.359 20.7363C111.359 22.0151 111.599 22.9964 112.069 23.6705C112.549 24.3545 113.139 24.6915 113.839 24.6915C114.539 24.6915 115.119 24.3545 115.589 23.6705C116.069 22.9964 116.299 22.0052 116.299 20.7165C116.299 19.4576 116.069 18.4862 115.589 17.8022C115.119 17.1182 114.539 16.7812 113.839 16.7812C113.139 16.7812 112.549 17.1182 112.069 17.8022C111.599 18.4862 111.359 19.4576 111.359 20.7363Z" fill="#0109C4"/>
<path d="M120.539 20.5579C120.539 19.4279 120.759 18.3276 121.199 17.2669C121.639 16.2063 122.259 15.4033 123.059 14.8482C123.869 14.2931 124.759 14.0056 125.749 14.0056C127.289 14.0056 128.539 14.6401 129.519 15.9089C130.499 17.1777 130.989 18.7637 130.989 20.6967C130.989 22.6495 130.489 24.2653 129.509 25.544C128.519 26.8227 127.279 27.467 125.769 27.467C124.849 27.467 123.959 27.1994 123.119 26.6641C122.279 26.1288 121.639 25.3556 121.199 24.3148C120.759 23.2938 120.539 22.0349 120.539 20.5579ZM123.289 20.7363C123.289 22.0151 123.529 22.9964 124.009 23.6705C124.479 24.3545 125.069 24.6915 125.769 24.6915C126.469 24.6915 127.049 24.3545 127.519 23.6705C127.999 22.9964 128.229 22.0052 128.229 20.7165C128.229 19.4576 127.999 18.4862 127.519 17.8022C127.049 17.1182 126.469 16.7812 125.769 16.7812C125.069 16.7812 124.479 17.1182 124.009 17.8022C123.529 18.4862 123.289 19.4576 123.289 20.7363Z" fill="#0109C4"/>
<path d="M133.02 14.2832H135.52V16.1666C135.84 15.5223 136.28 15.0068 136.83 14.6004C137.39 14.2039 138 14.0056 138.68 14.0056C139.85 14.0056 140.85 14.5905 141.67 15.7701C142.49 16.9398 142.9 18.5754 142.9 20.667C142.9 22.818 142.49 24.4833 141.66 25.6828C140.83 26.8723 139.83 27.467 138.65 27.467C138.09 27.467 137.59 27.3283 137.13 27.0408C136.68 26.7632 136.2 26.2775 135.69 25.5935V32.0269H133.02V14.2832ZM135.65 20.5183C135.65 21.9655 135.88 23.0361 136.33 23.73C136.78 24.4139 137.33 24.7609 137.98 24.7609C138.6 24.7609 139.11 24.4437 139.53 23.8093C139.94 23.1749 140.15 22.134 140.15 20.6868C140.15 19.3287 139.94 18.3276 139.51 17.6733C139.09 17.0092 138.56 16.6821 137.93 16.6821C137.28 16.6821 136.73 17.0092 136.3 17.6535C135.87 18.2978 135.65 19.2494 135.65 20.5183Z" fill="#0109C4"/>
<path d="M150.89 23.0757L153.56 23.6507C153.22 24.8898 152.68 25.8414 151.94 26.4956C151.2 27.1399 150.27 27.467 149.16 27.467C147.4 27.467 146.09 26.7335 145.25 25.2763C144.58 24.0967 144.25 22.6198 144.25 20.8355C144.25 18.7042 144.69 17.029 145.56 15.8197C146.44 14.6103 147.55 14.0056 148.89 14.0056C150.39 14.0056 151.58 14.6401 152.45 15.9089C153.32 17.1678 153.74 19.1107 153.7 21.7177H147C147.02 22.7288 147.24 23.5119 147.65 24.067C148.06 24.632 148.57 24.9096 149.18 24.9096C149.6 24.9096 149.96 24.7708 150.24 24.4833C150.53 24.1959 150.74 23.7201 150.89 23.0757ZM151.04 19.636C151.02 18.6448 150.83 17.8914 150.44 17.3859C150.06 16.8704 149.6 16.6127 149.05 16.6127C148.47 16.6127 147.99 16.8803 147.61 17.4255C147.23 17.9707 147.04 18.7042 147.05 19.636H151.04Z" fill="#0109C4"/>
<path d="M158.45 27.1399H155.77V14.2832H158.25V16.1071C158.68 15.2447 159.06 14.6797 159.41 14.4121C159.75 14.1444 160.14 14.0056 160.57 14.0056C161.18 14.0056 161.77 14.2237 162.34 14.65L161.51 17.6139C161.05 17.2471 160.63 17.0587 160.25 17.0587C159.87 17.0587 159.55 17.1876 159.29 17.4453C159.03 17.713 158.82 18.1888 158.67 18.8728C158.52 19.5567 158.45 20.9941 158.45 23.1749V27.1399Z" fill="#0109C4"/>
</svg>
