<svg width="80" height="80" viewBox="0 0 80 80" fill="none" xmlns="http://www.w3.org/2000/svg">
<g clip-path="url(#clip0_406_10099)">
<path d="M8 0H72C76.4 0 80 3.6 80 8V72C80 76.4 76.4 80 72 80H8C3.6 80 0 76.4 0 72V8C0 3.6 3.6 0 8 0Z" fill="#FFFADC"/>
<path d="M25.2003 58.48C21.6803 58.48 18.8003 55.6 18.8003 52.08V44.4C18.8003 42.8 17.5203 41.52 15.9203 41.52C15.0403 41.52 14.3203 40.8 14.3203 39.92C14.3203 39.04 15.0403 38.32 15.9203 38.32C17.5203 38.32 18.8003 37.04 18.8003 35.44V27.76C18.8003 24.24 21.6803 21.36 25.2003 21.36C26.0803 21.36 26.8003 22.08 26.8003 22.96C26.8003 23.84 26.0803 24.56 25.2003 24.56C23.4403 24.56 21.9203 26 21.9203 27.84V35.52C21.9203 37.28 21.2003 38.8 20.0003 39.92C21.2003 41.04 21.9203 42.56 21.9203 44.32V52C21.9203 53.76 23.3603 55.28 25.2003 55.28C26.0803 55.28 26.8003 56 26.8003 56.88C26.8003 57.76 26.0803 58.48 25.2003 58.48Z" fill="#F4B100"/>
<path d="M54.7992 21.52C58.3192 21.52 61.1992 24.4 61.1992 27.92V35.6C61.1992 37.2 62.4792 38.48 64.0792 38.48C64.9592 38.48 65.6792 39.2 65.6792 40.08C65.6792 40.96 64.9592 41.68 64.0792 41.68C62.4792 41.68 61.1992 42.96 61.1992 44.56V52.24C61.1992 55.76 58.3192 58.64 54.7992 58.64C53.9192 58.64 53.1992 57.92 53.1992 57.04C53.1992 56.16 53.9192 55.44 54.7992 55.44C56.5592 55.44 58.0792 54 58.0792 52.16V44.48C58.0792 42.72 58.7992 41.2 59.9992 40.08C58.7992 38.96 58.0792 37.44 58.0792 35.68V28C58.0792 26.24 56.6392 24.72 54.7992 24.72C53.9192 24.72 53.1992 24 53.1992 23.12C53.1992 22.24 53.9192 21.52 54.7992 21.52Z" fill="#F4B100"/>
<path d="M51.9993 37.84L49.7593 37.28C49.5193 36.56 49.2793 35.84 48.8793 35.2L50.0793 33.2C50.3193 32.8 50.2393 32.32 49.9193 32L48.1593 30.24C47.8393 29.92 47.3593 29.84 46.9593 30.08L44.9593 31.28C44.3193 30.88 43.5993 30.64 42.8793 30.4L42.1593 28C42.0793 27.6 41.6793 27.28 41.1993 27.28H38.7193C38.2393 27.28 37.8393 27.6 37.7593 28L37.1993 30.24C36.4793 30.48 35.7593 30.72 35.1193 31.12L33.1193 29.92C32.7193 29.68 32.2393 29.76 31.9193 30.08L30.1593 31.84C29.8393 32.16 29.7593 32.64 29.9993 33.04L31.1993 35.04C30.7993 35.68 30.5593 36.4 30.3193 37.12L27.9993 37.84C27.5993 37.92 27.2793 38.32 27.2793 38.8V41.28C27.2793 41.76 27.5993 42.16 27.9993 42.24L30.2393 42.8C30.4793 43.52 30.7193 44.24 31.1193 44.88L29.9193 46.88C29.6793 47.28 29.7593 47.76 30.0793 48.08L31.8393 49.84C32.1593 50.16 32.6393 50.24 33.0393 50L35.0393 48.8C35.6793 49.2 36.3993 49.44 37.1193 49.68L37.6793 51.92C37.7593 52.32 38.1593 52.64 38.6393 52.64H41.1193C41.5993 52.64 41.9993 52.32 42.0793 51.92L42.6393 49.68C43.3593 49.44 44.0793 49.2 44.7193 48.8L46.7193 50C47.1193 50.24 47.5993 50.16 47.9193 49.84L49.6793 48.08C49.9993 47.76 50.0793 47.28 49.8393 46.88L48.6393 44.88C49.0393 44.24 49.2793 43.52 49.5193 42.8L51.7593 42.24C52.1593 42.16 52.4793 41.76 52.4793 41.28V38.8C52.7193 38.32 52.3993 37.92 51.9993 37.84ZM39.9993 44.32C37.5993 44.32 35.6793 42.4 35.6793 40C35.6793 37.6 37.5993 35.68 39.9993 35.68C42.3993 35.68 44.3193 37.6 44.3193 40C44.3193 42.4 42.3993 44.32 39.9993 44.32Z" fill="#FDD84B"/>
</g>
<defs>
<clipPath id="clip0_406_10099">
<rect width="80" height="80" fill="white"/>
</clipPath>
</defs>
</svg>
