<svg width="80" height="80" viewBox="0 0 80 80" fill="none" xmlns="http://www.w3.org/2000/svg">
<path d="M8 0H72C76.4 0 80 3.6 80 8V72C80 76.4 76.4 80 72 80H8C3.6 80 0 76.4 0 72V8C0 3.6 3.6 0 8 0Z" fill="#E3F4FC"/>
<path d="M60.0802 18H19.9202C18.9602 18 18.2402 18.8 18.2402 19.68V25.28H61.7602V19.68C61.7602 18.8 60.9602 18 60.0802 18ZM47.4402 23.12C46.6402 23.12 45.9202 22.48 45.9202 21.6C45.9202 20.8 46.5602 20.08 47.4402 20.08C48.3202 20.08 48.9602 20.72 48.9602 21.6C48.9602 22.48 48.3202 23.12 47.4402 23.12ZM52.7202 23.12C51.9202 23.12 51.2002 22.48 51.2002 21.6C51.2002 20.8 51.8402 20.08 52.7202 20.08C53.6002 20.08 54.2402 20.72 54.2402 21.6C54.2402 22.48 53.6002 23.12 52.7202 23.12ZM58.0002 23.12C57.2002 23.12 56.4802 22.48 56.4802 21.6C56.4802 20.8 57.1202 20.08 58.0002 20.08C58.8002 20.08 59.5202 20.72 59.5202 21.6C59.5202 22.48 58.8802 23.12 58.0002 23.12Z" fill="#93C9F8"/>
<path d="M18.2402 28.32V53.12C18.2402 54.08 19.0402 54.8 19.9202 54.8H27.7602C27.2002 53.28 26.8002 51.52 26.8002 49.6V39.2L40.0002 33.84L53.1202 39.12V49.52C53.1202 51.52 52.7202 53.2 52.1602 54.72H60.0002C60.9602 54.72 61.6802 53.92 61.6802 53.04V28.24H18.2402V28.32Z" fill="#93C9F8"/>
<path d="M39.9998 37.12L29.8398 41.2C29.8398 41.2 29.8398 42.72 29.8398 49.6C29.8398 58.72 39.9998 62 39.9998 62C39.9998 62 50.1598 58.72 50.1598 49.52C50.1598 42.64 50.1598 41.12 50.1598 41.12L39.9998 37.12Z" fill="#56A3F3"/>
<path d="M39.2009 53.6L34.8809 49.28L37.0409 47.12L39.2009 49.36L42.9609 45.52L45.1209 47.68L39.2009 53.6Z" fill="#E3F4FC"/>
</svg>
