<svg width="80" height="80" viewBox="0 0 80 80" fill="none" xmlns="http://www.w3.org/2000/svg">
<g clip-path="url(#clip0_406_10128)">
<path d="M8 0H72C76.4 0 80 3.6 80 8V72C80 76.4 76.4 80 72 80H8C3.6 80 0 76.4 0 72V8C0 3.6 3.6 0 8 0Z" fill="#CFFADE"/>
<path d="M52.2403 31.9201H50.9603V27.76C51.0403 21.76 46.0803 16.8 40.0003 16.8C33.9203 16.8 28.9603 21.76 28.9603 27.84V32H27.6803C25.8403 32 24.3203 33.5201 24.3203 35.3601V59.9201C24.3203 61.7601 25.8403 63.28 27.6803 63.28H52.2403C54.0803 63.28 55.6003 61.7601 55.6003 59.9201V35.28C55.6003 33.44 54.0803 31.9201 52.2403 31.9201ZM34.5603 27.84C34.5603 24.88 37.0403 22.4 40.0003 22.4C42.9603 22.4 45.4403 24.88 45.4403 27.84V32H34.5603V27.84Z" fill="#7AEF97"/>
<path d="M23.5209 57.12C19.9209 57.12 16.9609 54.16 16.9609 50.56V44.64C16.9609 41.04 19.9209 38.08 23.5209 38.08H56.4009C60.0009 38.08 62.9609 41.04 62.9609 44.64V50.56C62.9609 54.16 60.0009 57.12 56.4009 57.12H23.5209Z" fill="#CFFADE"/>
<path d="M56.4802 53.92H23.5202C21.6802 53.92 20.1602 52.4 20.1602 50.56V44.64C20.1602 42.8 21.6802 41.28 23.5202 41.28H56.4002C58.2402 41.28 59.7602 42.8 59.7602 44.64V50.56C59.8402 52.4 58.3202 53.92 56.4802 53.92Z" fill="#1CC769"/>
<path d="M39.9991 50.48C41.5897 50.48 42.8791 49.1905 42.8791 47.6C42.8791 46.0094 41.5897 44.72 39.9991 44.72C38.4086 44.72 37.1191 46.0094 37.1191 47.6C37.1191 49.1905 38.4086 50.48 39.9991 50.48Z" fill="#CFFADE"/>
<path d="M30.2394 50.48C31.83 50.48 33.1194 49.1905 33.1194 47.6C33.1194 46.0094 31.83 44.72 30.2394 44.72C28.6488 44.72 27.3594 46.0094 27.3594 47.6C27.3594 49.1905 28.6488 50.48 30.2394 50.48Z" fill="#CFFADE"/>
<path d="M50.0792 50.48C51.6698 50.48 52.9592 49.1905 52.9592 47.6C52.9592 46.0094 51.6698 44.72 50.0792 44.72C48.4886 44.72 47.1992 46.0094 47.1992 47.6C47.1992 49.1905 48.4886 50.48 50.0792 50.48Z" fill="#CFFADE"/>
</g>
<defs>
<clipPath id="clip0_406_10128">
<rect width="80" height="80" fill="white"/>
</clipPath>
</defs>
</svg>
