<svg width="56" height="56" viewBox="0 0 56 56" fill="none" xmlns="http://www.w3.org/2000/svg">
<g clip-path="url(#clip0_406_10217)">
<path d="M27.6 26H2.8C1.3 26 0 24.7 0 23.2V2.8C0 1.3 1.3 0 2.8 0H27.5C29.1 0 30.3 1.3 30.3 2.8V23.2C30.4 24.7 29.1 26 27.6 26Z" fill="white"/>
<path d="M12.8008 5.80005H25.0008" stroke="#333333" stroke-width="2" stroke-linecap="round" stroke-linejoin="round"/>
<path d="M12.8008 11.8H17.9008" stroke="#333333" stroke-width="2" stroke-linecap="round" stroke-linejoin="round"/>
<path d="M5.40039 5.80005H8.50039" stroke="#333333" stroke-width="2" stroke-linecap="round" stroke-linejoin="round"/>
<path d="M5.40039 11.8H8.50039" stroke="#333333" stroke-width="2" stroke-linecap="round" stroke-linejoin="round"/>
<path d="M35.0988 39.7001C38.8544 39.7001 41.8988 36.6556 41.8988 32.9001C41.8988 29.1446 38.8544 26.1001 35.0988 26.1001C31.3433 26.1001 28.2988 29.1446 28.2988 32.9001C28.2988 36.6556 31.3433 39.7001 35.0988 39.7001Z" fill="url(#paint0_linear_406_10217)"/>
<path d="M35.0988 39.7001C38.8544 39.7001 41.8988 36.6556 41.8988 32.9001C41.8988 29.1446 38.8544 26.1001 35.0988 26.1001C31.3433 26.1001 28.2988 29.1446 28.2988 32.9001C28.2988 36.6556 31.3433 39.7001 35.0988 39.7001Z" stroke="#333333" stroke-width="2" stroke-linecap="round" stroke-linejoin="round"/>
<path d="M35.0996 16.6001C36.7565 16.6001 38.0996 15.257 38.0996 13.6001C38.0996 11.9432 36.7565 10.6001 35.0996 10.6001C33.4428 10.6001 32.0996 11.9432 32.0996 13.6001C32.0996 15.257 33.4428 16.6001 35.0996 16.6001Z" stroke="#333333" stroke-width="2" stroke-linecap="round" stroke-linejoin="round"/>
<path d="M35.0996 55.2002C36.7565 55.2002 38.0996 53.857 38.0996 52.2002C38.0996 50.5433 36.7565 49.2002 35.0996 49.2002C33.4428 49.2002 32.0996 50.5433 32.0996 52.2002C32.0996 53.857 33.4428 55.2002 35.0996 55.2002Z" stroke="#333333" stroke-width="2" stroke-linecap="round" stroke-linejoin="round"/>
<path d="M52 26.6001C53.6569 26.6001 55 25.257 55 23.6001C55 21.9432 53.6569 20.6001 52 20.6001C50.3431 20.6001 49 21.9432 49 23.6001C49 25.257 50.3431 26.6001 52 26.6001Z" stroke="#333333" stroke-width="2" stroke-linecap="round" stroke-linejoin="round"/>
<path d="M51.6992 45.7002C53.3561 45.7002 54.6992 44.357 54.6992 42.7002C54.6992 41.0433 53.3561 39.7002 51.6992 39.7002C50.0424 39.7002 48.6992 41.0433 48.6992 42.7002C48.6992 44.357 50.0424 45.7002 51.6992 45.7002Z" stroke="#333333" stroke-width="2" stroke-linecap="round" stroke-linejoin="round"/>
<path d="M35.0996 16.5V22.3" stroke="#333333" stroke-width="2" stroke-linecap="round" stroke-linejoin="round"/>
<path d="M35.0996 49.2V43.5" stroke="#333333" stroke-width="2" stroke-linecap="round" stroke-linejoin="round"/>
<path d="M18.1992 45.2002C19.8561 45.2002 21.1992 43.857 21.1992 42.2002C21.1992 40.5433 19.8561 39.2002 18.1992 39.2002C16.5424 39.2002 15.1992 40.5433 15.1992 42.2002C15.1992 43.857 16.5424 45.2002 18.1992 45.2002Z" stroke="#333333" stroke-width="2" stroke-linecap="round" stroke-linejoin="round"/>
<path d="M49.3988 25L44.2988 27.8" stroke="#333333" stroke-width="2" stroke-linecap="round" stroke-linejoin="round"/>
<path d="M20.6992 40.8L25.7992 38" stroke="#333333" stroke-width="2" stroke-linecap="round" stroke-linejoin="round"/>
<path d="M18.3984 26.1001C20.0553 26.1001 21.3984 24.757 21.3984 23.1001C21.3984 21.4432 20.0553 20.1001 18.3984 20.1001C16.7416 20.1001 15.3984 21.4432 15.3984 23.1001C15.3984 24.757 16.7416 26.1001 18.3984 26.1001Z" stroke="#333333" stroke-width="2" stroke-linecap="round" stroke-linejoin="round"/>
<path d="M49.0992 41.2001L44.1992 38.3" stroke="#333333" stroke-width="2" stroke-linecap="round" stroke-linejoin="round"/>
<path d="M21 24.6001L25.9 27.5001" stroke="#333333" stroke-width="2" stroke-linecap="round" stroke-linejoin="round"/>
</g>
<defs>
<linearGradient id="paint0_linear_406_10217" x1="35.0617" y1="39.0001" x2="35.0617" y2="26.9263" gradientUnits="userSpaceOnUse">
<stop stop-color="#0109C4"/>
<stop offset="0.6635" stop-color="#BDF4D0" stop-opacity="0"/>
</linearGradient>
<clipPath id="clip0_406_10217">
<rect width="56" height="56" fill="white"/>
</clipPath>
</defs>
</svg>
