<svg width="56" height="56" viewBox="0 0 56 56" fill="none" xmlns="http://www.w3.org/2000/svg">
<path d="M33.3 41.2999V36.4L29.5 35.5C29.2 34.4 28.8 33.4 28.2 32.5L30.3 29.2L26.8 25.7L23.5 27.7999C22.6 27.2999 21.5 26.8 20.5 26.5L19.6 22.7H14.7L13.8 26.5C12.7 26.8 11.7 27.1999 10.8 27.7999L7.5 25.7L4 29.2L6 32.5C5.5 33.4 5 34.5 4.7 35.5L1 36.4V41.2999L4.8 42.2C5.1 43.3 5.5 44.3 6.1 45.2L4 48.5L7.5 52L10.8 49.9C11.7 50.4 12.8 50.9 13.8 51.2L14.7 55H19.6L20.5 51.2C21.6 50.9 22.6 50.5 23.5 49.9L26.8 52L30.3 48.5L28.2 45.2C28.7 44.3 29.2 43.2 29.5 42.2L33.3 41.2999ZM17.2 43.7999C14.4 43.7999 12.2 41.5999 12.2 38.7999C12.2 35.9999 14.4 33.7999 17.2 33.7999C20 33.7999 22.2 35.9999 22.2 38.7999C22.1 41.5999 19.9 43.7999 17.2 43.7999Z" fill="url(#paint0_linear_406_10246)"/>
<path d="M55 15C55 22.8 48.8 29 41 29C33.2 29 27 22.8 27 15C27 7.2 33.2 1 41 1C48.8 1 55 7.2 55 15Z" fill="#FFD543"/>
<path d="M33.3 41.2999V36.4L29.5 35.5C29.2 34.4 28.8 33.4 28.2 32.5L30.3 29.2L26.8 25.7L23.5 27.7999C22.6 27.2999 21.5 26.8 20.5 26.5L19.6 22.7H14.7L13.8 26.5C12.7 26.8 11.7 27.1999 10.8 27.7999L7.5 25.7L4 29.2L6 32.5C5.5 33.4 5 34.5 4.7 35.5L1 36.4V41.2999L4.8 42.2C5.1 43.3 5.5 44.3 6.1 45.2L4 48.5L7.5 52L10.8 49.9C11.7 50.4 12.8 50.9 13.8 51.2L14.7 55H19.6L20.5 51.2C21.6 50.9 22.6 50.5 23.5 49.9L26.8 52L30.3 48.5L28.2 45.2C28.7 44.3 29.2 43.2 29.5 42.2L33.3 41.2999ZM17.2 43.7999C14.4 43.7999 12.2 41.5999 12.2 38.7999C12.2 35.9999 14.4 33.7999 17.2 33.7999C20 33.7999 22.2 35.9999 22.2 38.7999C22.1 41.5999 19.9 43.7999 17.2 43.7999Z" stroke="#333333" stroke-width="2" stroke-linecap="round" stroke-linejoin="round"/>
<path d="M49.9 16.3V13.6L47.8 13.1C47.6 12.5 47.4 11.9 47.1 11.4L48.2 9.6L46.3 7.7L44.5 8.8C44 8.5 43.4 8.3 42.8 8.1L42.3 6H39.6L39.1 8.1C38.5 8.3 37.9 8.5 37.4 8.8L35.6 7.7L33.7 9.6L34.8 11.4C34.5 11.9 34.3 12.5 34.1 13.1L32 13.6V16.3L34.1 16.8C34.3 17.4 34.5 18 34.8 18.5L33.7 20.3L35.6 22.2L37.4 21.1C37.9 21.4 38.5 21.6 39.1 21.8L39.6 23.9H42.3L42.8 21.8C43.4 21.6 44 21.4 44.5 21.1L46.3 22.2L48.2 20.3L47.1 18.5C47.4 18 47.6 17.4 47.8 16.8L49.9 16.3ZM41 17.7C39.5 17.7 38.3 16.5 38.3 15C38.3 13.5 39.5 12.3 41 12.3C42.5 12.3 43.7 13.5 43.7 15C43.8 16.5 42.6 17.7 41 17.7Z" stroke="#333333" stroke-width="2" stroke-linecap="round" stroke-linejoin="round"/>
<path d="M7.59961 19.4001C7.59961 19.4001 10.3996 9.8001 20.0996 7.6001" stroke="#333333" stroke-width="2" stroke-linecap="round" stroke-linejoin="round"/>
<path d="M19.3 11.8L25.8 7.10005L18.5 3.80005L19.3 11.8Z" fill="#333333"/>
<path d="M50.6992 30.8C50.6992 30.8 50.0992 40.8 41.1992 45.1" stroke="#333333" stroke-width="2" stroke-linecap="round" stroke-linejoin="round"/>
<path d="M40.8992 40.9001L35.6992 46.9001L43.4992 48.4001L40.8992 40.9001Z" fill="#333333"/>
<defs>
<linearGradient id="paint0_linear_406_10246" x1="17.1593" y1="54.8407" x2="17.1593" y2="22.522" gradientUnits="userSpaceOnUse">
<stop stop-color="#0109C4"/>
<stop offset="0.5133" stop-color="#FDF6B4" stop-opacity="0"/>
</linearGradient>
</defs>
</svg>
