<svg width="55" height="55" viewBox="0 0 55 55" fill="none" xmlns="http://www.w3.org/2000/svg">
<g clip-path="url(#clip0_406_10155)">
<path d="M54.0101 40.7551L32.4501 7.75506C31.3501 6.05006 29.4801 5.06006 27.5001 5.06006C25.4651 5.06006 23.6501 6.05006 22.5501 7.75506L1.04512 40.7551C-0.164882 42.6251 -0.274882 44.8801 0.825118 46.8051C1.87012 48.7301 3.85012 49.8851 6.05012 49.8851H49.1151C51.3151 49.8851 53.2951 48.7301 54.3401 46.8051C55.3301 44.8801 55.2201 42.6251 54.0101 40.7551ZM51.3701 45.2651C50.8751 46.1451 49.9951 46.6951 49.0051 46.6951H5.99512C5.00512 46.6951 4.12512 46.1451 3.63012 45.2651C3.13512 44.3851 3.19012 43.3401 3.74012 42.5151L25.2451 9.51506C25.7401 8.74506 26.5651 8.30506 27.5001 8.30506C28.4351 8.30506 29.2601 8.74506 29.7551 9.51506L51.2601 42.5151C51.8101 43.3951 51.8651 44.3851 51.3701 45.2651Z" fill="url(#paint0_linear_406_10155)"/>
<path d="M27.4992 37.8401C25.6842 37.8401 24.1992 39.3251 24.1992 41.1401C24.1992 42.9551 25.6842 44.4401 27.4992 44.4401C29.3142 44.4401 30.7992 42.9551 30.7992 41.1401C30.7992 39.3251 29.3142 37.8401 27.4992 37.8401ZM27.4992 41.6901C27.1692 41.6901 26.9492 41.4701 26.9492 41.1401C26.9492 40.8101 27.1692 40.5901 27.4992 40.5901C27.8292 40.5901 28.0492 40.8101 28.0492 41.1401C28.0492 41.4701 27.8292 41.6901 27.4992 41.6901Z" fill="url(#paint1_linear_406_10155)"/>
<path d="M27.4999 16.005C25.0799 16.005 23.0449 17.985 23.0449 20.46L23.9249 32.45C23.9799 34.375 25.5199 35.915 27.4999 35.915C29.4249 35.915 31.0199 34.375 31.0749 32.45L31.9549 20.57V20.46C31.9549 17.985 29.9199 16.005 27.4999 16.005ZM27.8299 32.285V32.395C27.8299 32.56 27.7199 32.725 27.4999 32.725C27.3349 32.725 27.1699 32.615 27.1699 32.395L26.2899 20.405C26.2899 19.745 26.8399 19.25 27.4999 19.25C28.1599 19.25 28.6549 19.745 28.7099 20.405L27.8299 32.285Z" fill="url(#paint2_linear_406_10155)"/>
</g>
<defs>
<linearGradient id="paint0_linear_406_10155" x1="27.5001" y1="49.3626" x2="27.5001" y2="5.38621" gradientUnits="userSpaceOnUse">
<stop stop-color="#0109C4"/>
<stop offset="1" stop-color="#FFD545"/>
</linearGradient>
<linearGradient id="paint1_linear_406_10155" x1="27.4991" y1="49.3626" x2="27.4991" y2="5.38624" gradientUnits="userSpaceOnUse">
<stop stop-color="#0109C4"/>
<stop offset="1" stop-color="#FFD545"/>
</linearGradient>
<linearGradient id="paint2_linear_406_10155" x1="27.4999" y1="49.3625" x2="27.4999" y2="5.38615" gradientUnits="userSpaceOnUse">
<stop stop-color="#0109C4"/>
<stop offset="1" stop-color="#FFD545"/>
</linearGradient>
<clipPath id="clip0_406_10155">
<rect width="55" height="55" fill="white"/>
</clipPath>
</defs>
</svg>
