<svg width="55" height="47" viewBox="0 0 55 47" fill="none" xmlns="http://www.w3.org/2000/svg">
<path d="M48.84 3.3149H43.395V2.0499C43.395 1.1699 42.68 0.399902 41.745 0.399902C40.81 0.399902 40.095 1.1149 40.095 2.0499V3.3149H14.85V2.0499C14.85 1.1699 14.135 0.399902 13.2 0.399902C12.265 0.399902 11.55 1.1149 11.55 2.0499V3.3149H6.105C2.75 3.3149 0 6.0649 0 9.4199V40.6599C0 44.0149 2.75 46.7649 6.105 46.7649H48.84C52.195 46.7649 54.945 44.0149 54.945 40.6599V9.4199C55 6.0649 52.25 3.3149 48.84 3.3149ZM6.16 6.5599H11.605V7.8249C11.605 8.7049 12.32 9.4749 13.255 9.4749C14.19 9.4749 14.905 8.7599 14.905 7.8249V6.5599H40.205V7.8249C40.205 8.7049 40.92 9.4749 41.855 9.4749C42.79 9.4749 43.505 8.7599 43.505 7.8249V6.5599H48.95C50.545 6.5599 51.81 7.8249 51.81 9.4199V14.1499H3.3V9.4199C3.3 7.8249 4.565 6.5599 6.16 6.5599ZM48.84 43.5199H6.16C4.565 43.5199 3.3 42.1999 3.3 40.6599V17.3399H51.7V40.6049C51.7 42.1999 50.435 43.5199 48.84 43.5199Z" fill="url(#paint0_linear_406_10181)"/>
<path d="M33.5495 23.885L25.2995 32.135L21.4495 28.34C20.7895 27.68 19.7995 27.68 19.1395 28.34C18.4795 29 18.4795 29.99 19.1395 30.65L24.0895 35.6C24.4195 35.93 24.8045 36.095 25.2445 36.095C25.6845 36.095 26.0695 35.93 26.3995 35.6L35.8045 26.195C36.4645 25.535 36.4645 24.545 35.8045 23.885C35.1445 23.225 34.1545 23.28 33.5495 23.885Z" fill="url(#paint1_linear_406_10181)"/>
<defs>
<linearGradient id="paint0_linear_406_10181" x1="27.5" y1="45.7749" x2="27.5" y2="-1.52829" gradientUnits="userSpaceOnUse">
<stop stop-color="#0109C4"/>
<stop offset="1" stop-color="#FFD545"/>
</linearGradient>
<linearGradient id="paint1_linear_406_10181" x1="27.4996" y1="45.775" x2="27.4996" y2="-1.52819" gradientUnits="userSpaceOnUse">
<stop stop-color="#0109C4"/>
<stop offset="1" stop-color="#FFD545"/>
</linearGradient>
</defs>
</svg>
