<svg width="618" height="401" viewBox="0 0 618 401" fill="none" xmlns="http://www.w3.org/2000/svg">
<path d="M590.3 339.6H27.5V401H590.3V339.6Z" fill="url(#paint0_radial_406_9340)"/>
<path d="M131.799 202.9C137.699 199 141.299 192 141.099 185C140.899 178 136.899 171.2 130.799 167.7C128.399 166.3 125.699 165.3 124.099 163C122.099 160.1 122.899 156 124.499 152.9C126.799 148.1 130.699 144 132.199 138.9C134.099 132.7 131.999 125.4 127.099 121.2C122.199 116.9 114.699 115.9 108.799 118.7C108.699 120.7 108.299 122.6 108.099 124.7C113.099 127.2 114.599 134.3 113.399 139.8C112.199 145.2 108.899 149.9 106.299 154.9C103.699 159.8 101.799 165.7 103.599 170.9C104.799 174.3 107.399 177 109.099 180.3C112.399 186.5 111.699 194.6 107.599 200.2C115.199 201.7 124.099 202.6 131.799 202.9Z" fill="#591910"/>
<path d="M108.798 119.5C115.898 116.2 124.998 116.6 130.598 122.5C133.098 125.1 134.698 128.5 134.898 132.1C135.098 135.8 133.698 139.2 131.598 142.2C129.198 145.7 125.998 148.5 122.898 151.3C122.298 151.8 123.198 152.6 123.698 152.1C129.398 147.1 136.098 140.9 135.998 132.7C135.998 124.7 129.498 118.1 121.898 116.6C117.198 115.7 112.398 116.5 108.098 118.5C107.598 118.8 108.198 119.8 108.798 119.5Z" fill="#591910"/>
<path d="M102.898 165.9C101.998 169.4 103.698 172.6 105.498 175.6C107.098 178.3 108.298 181.1 108.498 184.3C108.898 190.1 106.498 195.9 101.898 199.6C101.298 200.1 102.098 200.9 102.698 200.4C106.198 197.6 108.498 193.5 109.298 189.1C110.198 184.5 109.298 180 106.998 175.9C105.298 173 103.098 169.8 103.998 166.3C104.298 165.5 103.098 165.2 102.898 165.9Z" fill="#591910"/>
<path d="M78.9977 180.4L77.5977 195.9H103.498L102.498 184.1C94.3977 185 85.9977 183.7 78.9977 180.4Z" fill="#FFCDC0"/>
<path d="M102.498 184.1L100.898 165.4H80.298L78.998 180.4C85.998 183.7 94.398 185 102.498 184.1Z" fill="#F4A798"/>
<path d="M80.9986 111.6C74.4986 112.6 68.4986 116 64.3986 121.2C60.2986 126.4 58.0986 133.3 58.9986 139.9C59.4986 143.4 61.1986 146.8 64.4986 148.4C65.1986 148.7 65.7986 147.7 65.0986 147.4C58.9986 144.6 59.3986 136.1 60.9986 130.6C62.6986 124.6 66.4986 119.5 71.7986 116.2C74.6986 114.4 77.9986 113.2 81.2986 112.7C81.9986 112.6 81.6986 111.5 80.9986 111.6Z" fill="#591910"/>
<path d="M97.7991 119.8L96.6991 119.5C92.6991 118.5 88.3991 118.5 84.3991 119.5L83.2991 119.8C76.2991 121.6 70.4991 126.4 67.4991 132.8C65.4991 137.1 64.7991 142 65.6991 146.7L66.9991 154C68.3991 161.9 72.3991 169.1 78.2991 174.7L78.4991 174.9C85.2991 181.2 95.9991 181.2 102.699 174.9L102.899 174.7C108.799 169.2 112.799 161.9 114.199 154L115.499 146.7C116.299 142 115.699 137.1 113.699 132.8C110.599 126.4 104.799 121.6 97.7991 119.8Z" fill="#FFCDC0"/>
<path d="M115.599 146.7C105.499 144.9 96.8995 137.6 92.9995 128C82.4995 132.4 73.2995 139 65.3995 147.1C61.2995 140.5 60.6995 131.9 63.8995 124.8C67.0995 117.7 73.9995 112.5 81.5995 111.2C85.0995 110.6 88.8995 110.9 91.8995 112.9C95.1995 112 98.4995 111.2 101.799 111.4C105.199 111.6 108.599 112.7 111.199 114.9C114.199 117.5 115.899 121.3 116.799 125.1C118.599 132.3 118.299 139.9 115.599 146.7Z" fill="#591910"/>
<path d="M67.0978 147.3C66.5978 145.9 64.6978 145.3 63.3978 145.9C61.9978 146.5 61.0978 147.9 60.6978 149.3C59.7978 152.1 60.3978 155.2 62.0978 157.6C63.7978 160 66.6978 161.4 69.5978 161.4C68.7978 156.5 68.3978 152.5 67.5978 147.5C67.3978 147.8 67.0978 147 67.0978 147.3Z" fill="#FFCDC0"/>
<path d="M113.998 147.3C114.498 145.9 116.398 145.3 117.698 145.9C118.998 146.5 119.998 147.9 120.398 149.3C121.298 152.1 120.698 155.2 118.998 157.6C117.298 160 114.398 161.4 111.498 161.4C112.298 156.5 112.698 152.5 113.498 147.5C113.698 147.8 113.998 147 113.998 147.3Z" fill="#FFCDC0"/>
<path d="M86.3985 141.8C90.6985 146 90.8985 152.7 86.9985 157.2C86.7985 157.4 86.7985 157.7 86.8985 157.9C87.5985 159.3 88.3985 160.8 89.0985 162.2C89.3985 162.9 90.4985 162.3 90.0985 161.6C89.3985 160.2 88.5985 158.7 87.8985 157.3C87.8985 157.5 87.7985 157.8 87.7985 158C92.1985 153 91.8985 145.5 87.1985 140.9C86.6985 140.5 85.8985 141.3 86.3985 141.8Z" fill="#F4A798"/>
<path d="M63.0988 149.9C63.4988 148.3 65.3988 148.7 66.1988 149.7C67.0988 150.9 67.0988 152.4 66.9988 153.8C67.2988 153.7 67.6988 153.5 67.9988 153.4C67.0988 152.4 65.7988 153.2 65.5988 154.4C65.2988 155.9 66.3988 157.3 67.3988 158.4C67.8988 158.9 68.7988 158.1 68.1988 157.6C67.7988 157.2 67.2988 156.7 67.0988 156.1C66.9988 155.8 66.7988 155.6 66.7988 155.3C66.7988 155.2 66.7988 153.9 67.1988 154.3C67.5988 154.7 68.1988 154.4 68.1988 153.9C68.2988 151.8 68.0988 149.2 66.0988 148.1C64.5988 147.3 62.4988 147.9 61.9988 149.7C61.7988 150.3 62.8988 150.6 63.0988 149.9Z" fill="#F4A798"/>
<path d="M119.399 150C119.199 148.4 117.499 147.1 115.899 147.7C113.899 148.4 113.499 151.3 113.199 153.2C113.099 153.8 113.699 154.2 114.199 153.8C114.999 153.1 114.899 154.8 114.799 155.1C114.699 155.4 114.599 155.7 114.399 156C113.999 156.7 113.499 157.2 112.799 157.7C112.199 158.1 112.799 159.1 113.399 158.7C114.799 157.7 115.999 156.1 116.099 154.4C116.199 152.8 114.599 152 113.399 153C113.699 153.2 114.099 153.4 114.399 153.6C114.599 152.3 114.799 150.8 115.499 149.7C115.899 149.1 116.399 148.7 117.099 148.8C117.699 148.9 118.299 149.4 118.399 150.1C118.299 150.7 119.499 150.7 119.399 150Z" fill="#F4A798"/>
<path d="M78.9988 152.4C80.2139 152.4 81.1988 150.967 81.1988 149.2C81.1988 147.433 80.2139 146 78.9988 146C77.7838 146 76.7988 147.433 76.7988 149.2C76.7988 150.967 77.7838 152.4 78.9988 152.4Z" fill="#411D16"/>
<path d="M100.999 152.4C102.214 152.4 103.199 150.967 103.199 149.2C103.199 147.433 102.214 146 100.999 146C99.7838 146 98.7988 147.433 98.7988 149.2C98.7988 150.967 99.7838 152.4 100.999 152.4Z" fill="#411D16"/>
<path d="M70.5988 142.2C72.5988 141.5 74.6988 141.3 76.7988 141.3C78.7988 141.3 80.7988 141.4 82.4988 142.5C83.0988 142.9 83.6988 141.9 83.0988 141.5C81.2988 140.4 79.1988 140.1 77.0988 140.1C74.7988 140.1 72.3988 140.3 70.2988 141.1C69.5988 141.3 69.8988 142.4 70.5988 142.2Z" fill="#591910"/>
<path d="M95.8993 143.2C99.3993 141.6 103.299 141.4 107.099 141.5C107.899 141.5 107.899 140.3 107.099 140.3C103.099 140.2 98.9993 140.4 95.2993 142.1C94.6993 142.5 95.2993 143.5 95.8993 143.2Z" fill="#591910"/>
<path d="M92.3983 125.9C91.9983 131.5 94.2983 137.2 98.4983 140.9C102.798 144.7 108.798 146.1 114.298 145C114.998 144.8 114.698 143.7 113.998 143.9C108.798 145 103.098 143.5 99.0983 139.9C95.1983 136.4 93.1983 131.1 93.4983 125.9C93.5983 125.1 92.3983 125.1 92.3983 125.9Z" fill="#591910"/>
<path d="M84.5991 167.6C88.0991 169.5 92.3991 169.5 95.7991 167.4C96.3991 167 95.8991 166 95.1991 166.4C92.1991 168.2 88.2991 168.3 85.1991 166.6C84.4991 166.2 83.8991 167.2 84.5991 167.6Z" fill="#F4A798"/>
<path d="M48.399 318.1C48.699 315.7 48.9989 314 49.0989 313.4C49.4989 311.7 52.6989 294.6 54.2989 294.6H90.3989H91.4989H124.199C128.499 309.6 132.799 319.9 132.799 339.5H91.4989H90.299H45.6989C45.4989 339.6 47.299 325.7 48.399 318.1Z" fill="#411D16"/>
<path d="M73.1992 200.6H108.599L104.799 186.9H76.9992L73.1992 200.6Z" fill="#92E3FF"/>
<path d="M55.2993 198.3C57.9993 196.7 60.8994 195.6 63.8994 195L71.7994 193.5L90.4994 195.9L110.599 193.6L117.799 195C120.799 195.6 123.699 196.7 126.399 198.3C135.199 203.5 134.599 213.4 133.699 223.5L133.499 225.7C133.299 228.4 132.599 231 131.599 233.4L119.499 268.6L125.299 294.6H90.9994H90.8994H53.9994L61.9993 275.2L44.5993 233.3C43.5993 230.8 42.8994 228.2 42.6994 225.6L42.4994 223.4C41.4994 213.3 46.4993 203.5 55.2993 198.3Z" fill="#0F3393"/>
<path d="M66.6992 194.4L93.7992 261.7L110.699 193.6L90.8992 189.8L66.6992 194.4Z" fill="#92E3FF"/>
<path d="M60.4988 197L58.7988 202.9C58.7988 202.9 65.1988 215.7 68.2988 218C68.1988 218 63.4988 220.8 63.4988 220.8C63.4988 220.8 70.7988 237.6 84.1988 248.7" stroke="#072568" stroke-miterlimit="10" stroke-linecap="round" stroke-linejoin="round"/>
<path d="M116.6 195.9L120.9 202.1C120.9 202.1 115.9 211.9 110.5 218C110.6 218.4 115 221.1 115 221.1C115 221.1 109.7 238 98.5996 248.6" stroke="#072568" stroke-miterlimit="10" stroke-linecap="round" stroke-linejoin="round"/>
<path d="M106.1 192.9C100.7 202.3 94.3001 211.4 91.8001 222C91.1001 225 90.7001 228.1 90.6001 231.3C91.0001 231.2 91.3001 231.1 91.7001 231C87.3001 225.2 82.5001 219.7 79.0001 213.3C75.7001 207.4 72.7001 200 74.9001 193.2C75.1001 192.5 74.0001 192.2 73.8001 192.9C72.1001 198.2 73.4001 203.8 75.5001 208.8C77.8001 214.1 81.0001 219 84.5001 223.6C86.5001 226.3 88.7001 228.9 90.7001 231.6C91.0001 232 91.8001 231.9 91.8001 231.3C92.0001 225.9 93.1001 220.7 95.1001 215.7C97.0001 210.8 99.7001 206.3 102.3 201.8C103.9 199.1 105.6 196.3 107.2 193.6C107.5 192.8 106.5 192.2 106.1 192.9Z" fill="#411D16"/>
<path d="M100.57 229.118L82.1875 231.952L83.0257 237.388L101.408 234.553L100.57 229.118Z" fill="#005EB8"/>
<path d="M102.6 242.1L104.1 251.8L85.7 254.7L83.5 240.5L102.6 242.1Z" fill="#CAC3E1"/>
<path d="M83.0996 237.4L101.4 234.5L102.6 242.1L83.4996 240.5L83.0996 237.4Z" fill="white"/>
<path d="M76.4995 274.9C71.0995 263.3 69.7995 249.8 72.8995 237.3L113.299 247.2C114.499 247.5 115.299 248.8 114.999 250L102.599 301C102.499 301.3 102.399 301.5 102.199 301.8C90.9995 295.9 81.7995 286.4 76.4995 274.9Z" fill="#FF725E"/>
<path d="M55.899 289.6L68.299 238.6C68.599 237.4 69.899 236.6 71.099 236.9L72.899 237.3C69.899 249.8 71.199 263.2 76.499 274.9C81.799 286.3 90.999 295.9 102.199 301.7C101.699 302.5 100.699 302.9 99.799 302.6L57.599 292.3C56.299 292.1 55.599 290.8 55.899 289.6Z" fill="#ED5500"/>
<path d="M87.4602 274.134C89.8553 272.998 90.8761 270.136 89.7402 267.74C88.6042 265.345 85.7417 264.324 83.3466 265.46C80.9514 266.596 79.9306 269.459 81.0666 271.854C82.2025 274.249 85.065 275.27 87.4602 274.134Z" fill="white"/>
<path d="M97.3 278.4C100.1 279.3 102.9 280.4 106 281.4C107.4 281.8 108.8 282.3 109.8 283.5C110.8 284.7 110.9 286.7 109.6 287.6C110.3 288.3 110.2 289.6 109.9 290.5C109.6 291.4 108.8 292.2 107.8 292.4C108.7 293.3 109.2 294.6 108.8 295.8C108.4 297 107.3 297.7 106.1 297.7C106.8 298.7 106.4 300.1 105.5 300.8C104.6 301.5 103.4 301.5 102.2 301.2C98 300.1 94.3 297.7 91 295.2C92.3 289.3 93.6 283.5 94.8 277.6C95.6 277.9 96.4 278.1 97.3 278.4Z" fill="#FFCDC0"/>
<path d="M93.1 277.1C93.6 277.3 94.2 277.5 94.8 277.7C93.5 283.6 92.2 289.4 91 295.3C89.8 294.4 88.6 293.5 87.5 292.6C87.8 287.1 90.1 281.7 93.1 277.1Z" fill="#F4A798"/>
<path d="M60.5994 195.9L51.6994 197.7C46.9994 198.6 42.8994 201.3 40.0994 205.3C38.3994 207.8 37.2994 210.7 36.8994 213.7L32.1994 258.7C30.9994 264.9 34.1994 271.1 39.9994 273.7L87.7994 294.8L94.4994 277.1L56.7994 255.2L50.5994 211.3L60.5994 195.9Z" fill="#0F3393"/>
<path d="M109.6 286.7C108.1 286 106.5 285.4 104.8 284.9C104.1 284.7 103.8 285.8 104.5 286C106 286.4 107.5 287 109 287.7C109.7 288 110.3 287 109.6 286.7Z" fill="#F4A798"/>
<path d="M108.399 291.8C107.299 291.3 106.099 290.9 104.999 290.5C104.299 290.3 103.999 291.4 104.699 291.6C105.799 291.9 106.799 292.3 107.899 292.8C108.499 293.1 109.099 292.1 108.399 291.8Z" fill="#F4A798"/>
<path d="M106.2 296.9C105.2 296.4 104.1 295.9 103.1 295.4C102.4 295.1 101.8 296.1 102.5 296.4C103.5 296.9 104.6 297.4 105.6 297.9C106.3 298.2 106.9 297.2 106.2 296.9Z" fill="#F4A798"/>
<path d="M52.4986 216.5C50.2986 222.1 48.8986 228.1 49.2986 234.2C49.6986 240.1 51.7986 245.6 55.0986 250.5C55.4986 251.1 56.4986 250.5 56.0986 249.9C52.8986 245.1 50.7986 239.7 50.3986 233.9C50.0986 228 51.3986 222.3 53.5986 216.8C53.8986 216.2 52.7986 215.8 52.4986 216.5Z" fill="#072568"/>
<path d="M55 250.3C55.1 251.9 55.1 253.4 55.2 255C55.2 255.8 56.4 255.8 56.4 255C56.3 253.4 56.3 251.9 56.2 250.3C56.1 249.5 55 249.5 55 250.3Z" fill="#072568"/>
<path d="M68.0987 260.9C62.3987 258.1 56.7987 254.9 51.2987 251.7C50.5987 251.3 49.9987 252.3 50.6987 252.7C56.2987 255.8 61.7987 259.1 67.4987 261.9C68.1987 262.3 68.7987 261.3 68.0987 260.9Z" fill="#072568"/>
<path d="M120.499 291.8C117.299 295.2 114.099 298.5 111.299 302.3C110.399 303.6 109.499 305 109.199 306.6C108.999 308.2 109.599 310 111.099 310.6C110.999 311.9 111.899 313.2 112.899 314.1C113.899 315 115.199 315.4 116.499 315.3C116.299 315.7 116.899 316.3 117.199 316.6C117.499 316.9 117.999 317.1 118.499 317.2C121.799 318 125.499 317.6 128.399 315.9C128.999 315.6 129.599 315.2 129.899 314.6C130.299 314 130.399 313.2 129.999 312.7C129.599 312.2 128.999 312 128.299 312C127.699 312 127.099 312.3 126.499 312.5C127.699 305.5 125.299 297.1 120.499 291.8Z" fill="#FFCDC0"/>
<path d="M121.099 311.9C119.699 312.4 118.399 313.2 117.399 314.3C117.099 314.6 117.099 315 117.399 315.3C117.699 315.6 118.099 315.6 118.399 315.3C118.599 315.1 118.899 314.8 119.099 314.6C119.199 314.5 119.199 314.5 119.299 314.4C119.299 314.4 119.399 314.4 119.399 314.3C119.499 314.2 119.699 314.1 119.799 314C120.099 313.8 120.399 313.7 120.599 313.5C120.699 313.5 120.799 313.4 120.799 313.4H120.899C120.799 313.4 120.999 313.4 120.899 313.4C121.099 313.3 121.199 313.3 121.399 313.2C121.799 313.1 121.999 312.7 121.899 312.3C121.899 312 121.499 311.7 121.099 311.9Z" fill="#F4A798"/>
<path d="M115.399 307C114.199 307.9 113.199 309 112.399 310.3C112.199 310.6 112.299 311.1 112.699 311.3C113.099 311.5 113.499 311.4 113.699 311C113.899 310.7 114.099 310.4 114.299 310.1C114.199 310.2 114.399 310 114.299 310.1C114.299 310.1 114.299 310 114.399 310C114.499 309.9 114.499 309.9 114.599 309.8C114.699 309.7 114.799 309.5 114.999 309.4C115.499 308.9 115.999 308.4 116.599 308C116.699 307.9 116.799 307.7 116.799 307.5C116.799 307.3 116.699 307.1 116.599 307C116.499 306.9 116.299 306.8 116.099 306.8C115.699 306.8 115.599 306.9 115.399 307Z" fill="#F4A798"/>
<path d="M120.799 196L126.099 198.1C132.799 200.8 138.599 205.6 142.499 211.7C144.599 215 146.199 218.7 147.199 222.5C148.999 228.5 150.799 234.6 152.699 240.6C153.999 245 155.299 249.3 156.699 253.7C158.199 258.7 160.399 263.6 158.899 268.9C157.399 274 131.799 304.9 127.499 310.7L119.799 292.2L136.199 262.5L122.499 233.6L120.799 196Z" fill="#0F3393"/>
<path d="M119.399 228.8C122.399 235.3 125.499 241.8 128.499 248.4C128.799 249.1 129.799 248.5 129.499 247.8C126.499 241.3 123.399 234.8 120.399 228.2C120.099 227.5 119.099 228.1 119.399 228.8Z" fill="#072568"/>
<path d="M161.4 175.8L155.4 178.5C149.6 181.1 145 185.7 142.3 191.5C141.2 193.8 140.5 196.3 140.1 198.8L131 260.1C130.4 264.1 130.2 268.2 130.3 272.2L131.6 315.8L154.3 314.3L153.1 267.6L167 214L161.4 175.8Z" fill="#411D16"/>
<path d="M178.201 277.5L163.701 321.5C163.401 322.6 162.201 323.1 161.101 322.8L104.101 304.1C103.001 303.8 102.501 302.6 102.801 301.5L117.301 257.5C117.601 256.4 118.801 255.9 119.901 256.2L176.901 274.9C178.001 275.3 178.601 276.4 178.201 277.5Z" fill="#FFD543"/>
<path d="M120.255 259.953L106.697 301.183L160.942 319.021L174.5 277.791L120.255 259.953Z" fill="white"/>
<path d="M119.701 269.9L112.101 292.9L110.401 292.3C107.701 291.4 106.201 288.5 107.101 285.7L111.401 272.6C112.301 269.9 115.201 268.4 118.001 269.3L119.701 269.9Z" fill="#E0AF12"/>
<path d="M111.8 276L109.4 283.3L107.6 282.7C106.3 282.3 105.6 280.9 106.1 279.7L107 277C107.4 275.7 108.8 275 110 275.5L111.8 276Z" fill="#E0AF12"/>
<path d="M126.538 267.306L115.791 299.986L117.026 300.392L127.773 267.712L126.538 267.306Z" fill="#D0ECFB"/>
<path d="M129.916 268.402L119.17 301.082L120.405 301.488L131.152 268.808L129.916 268.402Z" fill="#D0ECFB"/>
<path d="M133.293 269.498L122.547 302.178L123.782 302.584L134.528 269.904L133.293 269.498Z" fill="#D0ECFB"/>
<path d="M136.672 270.594L125.926 303.274L127.161 303.68L137.907 271L136.672 270.594Z" fill="#D0ECFB"/>
<path d="M148.579 274.563L137.832 307.243L139.067 307.649L149.814 274.969L148.579 274.563Z" fill="#D0ECFB"/>
<path d="M152.051 275.69L141.305 308.37L142.54 308.776L153.286 276.096L152.051 275.69Z" fill="#D0ECFB"/>
<path d="M155.43 276.786L144.684 309.466L145.919 309.872L156.665 277.192L155.43 276.786Z" fill="#D0ECFB"/>
<path d="M158.807 277.882L148.061 310.562L149.296 310.968L160.042 278.288L158.807 277.882Z" fill="#D0ECFB"/>
<path d="M184.4 159.3L183 175.7H210.4L209.3 163.2C200.8 164.3 191.9 162.9 184.4 159.3Z" fill="#F7987F"/>
<path d="M209.3 167.6L207.6 147.8H185.8L184.4 163.6C191.9 167.2 200.8 168.6 209.3 167.6Z" fill="#D66556"/>
<path d="M227.701 115.1C227.801 110.6 226.601 106.1 225.001 101.9C223.701 98.5 221.901 95.2 216.601 92C211.901 89.6 206.001 88.1 201.301 90C193.101 86.9 184.001 88.5 178.901 90.5C174.301 92.2 169.301 98.6 168.001 102C166.401 106.2 165.201 110.7 165.301 115.2C165.401 121.7 167.001 128 168.801 134L196.301 140.7V140.8L196.501 140.7L196.701 140.8V140.7L224.201 134C225.901 127.8 227.501 121.5 227.701 115.1Z" fill="#5B3736"/>
<path d="M174.001 127.6C173.501 126.1 171.501 125.5 170.001 126.1C168.501 126.7 167.601 128.2 167.101 129.7C166.201 132.6 166.701 136 168.501 138.5C170.301 141 173.301 142.5 176.401 142.6C175.601 137.4 175.101 133.1 174.201 127.9C174.301 128.2 174.001 127.3 174.001 127.6Z" fill="#D66556"/>
<path d="M204.401 95.2L203.201 94.9C198.901 93.7 194.501 93.7 190.201 94.9L189.001 95.2C181.601 97.3 175.401 102.7 172.201 110.1C170.001 115.1 169.401 120.6 170.301 126L171.701 134.3C173.201 143.1 177.301 151.5 183.701 157.9L183.901 158.1C191.201 165.4 202.701 165 209.901 157.8C213.001 154.7 215.601 151.1 217.501 147.2C218.501 145.3 219.301 143.3 220.001 141.3C220.701 139.2 221.801 136.5 221.801 134.3L223.201 126C224.101 120.6 223.401 115.1 221.301 110.1C218.001 102.8 211.801 97.3 204.401 95.2Z" fill="#F7987F"/>
<path d="M221.502 127.6C222.002 126.1 224.002 125.5 225.502 126.1C227.002 126.7 227.902 128.2 228.402 129.7C229.302 132.6 228.802 136 227.002 138.5C225.202 141 222.202 142.5 219.102 142.6C219.902 137.4 220.402 133.1 221.302 127.9C221.202 128.2 221.502 127.3 221.502 127.6Z" fill="#F7987F"/>
<path d="M191.401 123.8C195.901 128.2 196.201 135.4 192.001 140.2C191.801 140.4 191.801 140.7 191.901 141C192.701 142.5 193.501 144.1 194.201 145.6C194.601 146.3 195.601 145.7 195.301 145C194.501 143.5 193.701 141.9 193.001 140.4C193.001 140.7 192.901 140.9 192.901 141.2C197.501 135.9 197.301 128 192.301 123.1C191.701 122.3 190.901 123.2 191.401 123.8Z" fill="#D66556"/>
<path d="M227.201 130.4C227.001 128.6 225.201 127.3 223.401 127.9C221.301 128.7 220.801 131.8 220.601 133.7C220.501 134.3 221.101 134.7 221.601 134.3C222.401 133.7 222.401 135 222.301 135.4C222.201 135.8 222.101 136.2 221.901 136.6C221.501 137.4 220.901 138 220.201 138.5C219.501 138.9 220.201 140 220.801 139.6C222.301 138.6 223.501 136.9 223.601 135.1C223.701 133.4 222.101 132.4 220.701 133.5C221.001 133.7 221.401 133.9 221.701 134.1C221.901 132.7 222.101 131.1 222.901 129.9C223.701 128.7 225.701 128.9 225.801 130.4C226.101 131.2 227.301 131.2 227.201 130.4Z" fill="#D66556"/>
<path d="M183.402 136.1C184.672 136.1 185.702 134.399 185.702 132.3C185.702 130.201 184.672 128.5 183.402 128.5C182.131 128.5 181.102 130.201 181.102 132.3C181.102 134.399 182.131 136.1 183.402 136.1Z" fill="#411D16"/>
<path d="M206.601 136.1C207.871 136.1 208.901 134.399 208.901 132.3C208.901 130.201 207.871 128.5 206.601 128.5C205.331 128.5 204.301 130.201 204.301 132.3C204.301 134.399 205.331 136.1 206.601 136.1Z" fill="#411D16"/>
<path d="M201.601 121.2C205.301 119.8 209.401 119.5 213.201 120.5C214.001 120.7 214.301 119.5 213.501 119.3C209.401 118.3 205.101 118.5 201.201 120C200.501 120.2 200.801 121.4 201.601 121.2Z" fill="#422424"/>
<path d="M188.201 121.2C184.501 119.8 180.401 119.5 176.601 120.5C175.801 120.7 175.501 119.5 176.301 119.3C180.401 118.3 184.701 118.5 188.601 120C189.301 120.2 188.901 121.4 188.201 121.2Z" fill="#422424"/>
<path d="M190 150.5C191.1 152.7 194 153.5 196.2 153.3C198.8 153.1 201.4 151.4 201.8 148.7C201.9 147.9 200.7 147.6 200.6 148.4C200.3 150.6 198.1 152 196 152.1C194.2 152.2 191.9 151.7 191.1 149.9C190.7 149.1 189.6 149.7 190 150.5Z" fill="#D66556"/>
<path d="M196.5 106.7C196.6 106.6 197.9 109.5 198.3 109.5C198.6 109.5 198.8 109.4 199.1 109.2C201.9 107.7 205 108.3 208 108.9C207.5 107.7 206.7 106.7 205.7 106.1C202.7 104.5 199.3 104.6 196.5 106.7Z" fill="#422424"/>
<path d="M192.202 108.2C192.402 107.7 192.702 107.3 193.202 107C193.702 106.6 194.502 106.4 195.102 106.5C196.302 106.7 197.002 107.7 198.302 107.7C199.502 107.7 200.602 107.2 201.802 107.2C204.302 107.1 206.502 109.8 208.002 111.7C209.602 113.7 210.802 115 212.602 116.7C214.502 118.6 217.102 119.8 219.802 120.1C220.702 123.7 221.202 127.6 221.102 131.4C221.102 131.8 221.602 131.9 221.702 131.5C223.002 128.2 223.702 124.5 223.902 121.1C224.002 118.5 223.502 115.9 222.702 113.4C221.402 109.2 220.702 104.3 217.902 100.7C216.902 99.4 215.602 98.3 214.202 97.3C212.302 95.9 210.202 94.8 208.102 93.9C205.202 92.6 202.402 90.9 199.202 90.6C195.902 90.3 192.602 90.7 189.402 91.2C185.302 91.9 181.102 92.8 177.602 94.9C174.302 96.9 171.402 101.8 171.002 105.6C170.502 110.3 169.102 114.9 169.102 119.6C169.102 124 169.802 128.5 171.402 132.6C171.502 132.9 172.002 132.8 172.002 132.5C171.702 128.9 171.802 125.1 172.302 121.6C176.602 120.4 178.202 119.4 182.002 117C184.202 115.7 186.402 114.4 188.402 112.8C189.402 112 190.502 111.1 191.202 110C191.602 109.5 191.802 108.8 192.202 108.2Z" fill="#5B3736"/>
<path d="M188 125.6C191 127 193.9 131.7 190.1 136.2C186.3 140.7 182.6 141.8 177.7 137.9C172.8 134 173.5 127.7 177.2 126.2C180.9 124.7 186.3 124.8 188 125.6Z" stroke="#411D16" stroke-miterlimit="10"/>
<path d="M202.4 125.6C199.4 127 196.5 131.7 200.3 136.2C204.1 140.7 207.8 141.8 212.7 137.9C217.6 134 216.9 127.7 213.2 126.2C209.5 124.7 204.1 124.8 202.4 125.6Z" stroke="#411D16" stroke-miterlimit="10"/>
<path d="M191.102 128.5C191.102 128.5 195.502 126.4 199.402 128.5" stroke="#411D16" stroke-miterlimit="10"/>
<path d="M216.201 130.3L223.101 126" stroke="#411D16" stroke-miterlimit="10"/>
<path d="M174.502 129.1L169.602 126.4" stroke="#411D16" stroke-miterlimit="10"/>
<path d="M239 300.4H207.6H193H161.6L158 339.6H193H207.6H240.3L239 300.4Z" fill="#55AAFF"/>
<path d="M216.5 172.5L239.3 173.2C244 172.8 248.6 174.7 251.6 178.3L289.8 239L285.9 252.6L267.3 251L236 215.1L216.5 172.5Z" fill="#411D16"/>
<path d="M254.6 199.3L254.5 197.4C254 191.2 251.2 185.5 246.7 181.8L243.2 179C240.5 176.8 237.3 175.4 233.9 174.9L221.3 173.2C216.7 181.9 207.5 188.1 197.7 188.6C187.1 189.2 176.4 183.3 171.2 174L165 174.9C161.6 175.4 158.5 176.8 155.7 179L152.2 181.8C147.7 185.5 144.8 191.2 144.4 197.4L144.3 199.3C144.1 202.1 144.4 204.9 145.2 207.6L157 249.2L157.9 308.8H198.7H200.2H241L247.5 249L253.7 207.5C254.5 204.9 254.8 202.1 254.6 199.3Z" fill="#411D16"/>
<path d="M197.701 188.6C209.601 187.6 217.201 181.3 221.701 172.6L220.901 172.5L199.401 170.2L178.301 173.1L171.201 174.1C176.401 183.3 187.101 189.5 197.701 188.6Z" fill="#F7987F"/>
<path d="M180.201 173.2C180.401 175.9 181.001 178.6 181.601 181.3C182.401 185.6 183.401 189.8 184.301 194C186.201 202.8 188.301 211.6 190.401 220.4C191.001 222.7 191.401 225.1 192.201 227.4C192.501 228.1 193.701 227.8 193.401 227.1C192.701 225.3 192.401 223.3 191.901 221.4C190.901 217.5 190.001 213.7 189.101 209.8C187.001 200.8 184.901 191.7 183.101 182.7C182.501 179.6 181.701 176.5 181.501 173.3C181.301 172.4 180.101 172.4 180.201 173.2Z" fill="white"/>
<path d="M212.4 171.7C211.7 173.8 210.9 176 210.1 178.1C208.6 182.4 207 186.6 205.4 190.9C201.9 200.4 198.4 209.9 194.9 219.4C194 222 193 224.5 192.1 227.1C191.8 227.9 193 228.2 193.3 227.4C195.7 221 198 214.7 200.4 208.3C203.9 198.8 207.4 189.3 210.9 179.8C211.8 177.2 212.8 174.7 213.7 172.1C213.9 171.3 212.7 171 212.4 171.7Z" fill="white"/>
<path d="M183.475 225.223L182.803 230.985L202.371 233.268L203.043 227.507L183.475 225.223Z" fill="#005EB8"/>
<path d="M182.806 230.865L180.65 249.34L200.218 251.624L202.374 233.148L182.806 230.865Z" fill="white"/>
<path d="M233.9 322.1C234.2 327.7 234.5 333.3 234.8 338.9C234.8 339.7 236.1 339.7 236 338.9C235.7 333.3 235.4 327.7 235.1 322.1C235.1 321.3 233.9 321.3 233.9 322.1Z" fill="#1D92F2"/>
<path d="M186.5 308.8C187 318.8 187.4 328.8 187.9 338.8C187.9 339.6 189.2 339.6 189.1 338.8C188.6 328.8 188.2 318.8 187.7 308.8H186.5Z" fill="#1D92F2"/>
<path d="M191.301 308.8C191.801 318.8 192.201 328.8 192.701 338.8C192.701 339.6 194.001 339.6 193.901 338.8C193.401 328.8 193.001 318.8 192.501 308.8H191.301Z" fill="#1D92F2"/>
<path d="M223.7 308.8H222.4C224.5 315.6 228.5 321.7 233.9 326.2C234.5 326.7 235.4 325.8 234.8 325.3C229.5 321 225.7 315.2 223.7 308.8Z" fill="#1D92F2"/>
<path d="M227.601 308.8H226.301C227.701 313.9 230.401 318.6 234.101 322.5C234.701 323.1 235.501 322.2 235.001 321.6C231.501 318 229.001 313.6 227.601 308.8Z" fill="#1D92F2"/>
<path d="M173.9 265.1C184.2 274.2 195.5 282.1 207.7 288.4C211.2 290.2 214.8 291.9 218.4 293.5C219 293.8 219.6 292.8 219 292.6C206.5 287.1 194.6 280.1 183.8 271.8C180.7 269.4 177.7 266.9 174.8 264.3C174.1 263.9 173.3 264.7 173.9 265.1Z" fill="#160503"/>
<path d="M150.102 205.9C151.802 218.4 152.902 230.9 154.602 243.4C155.002 246.7 155.502 250.1 156.002 253.4C156.102 254.1 157.202 253.8 157.102 253.1C155.102 240.7 153.902 228.1 152.502 215.6C152.102 212.2 151.702 208.9 151.202 205.6C151.102 204.9 150.102 205.2 150.102 205.9Z" fill="#160503"/>
<path d="M147.3 316.4C147.8 313.9 147.4 311.3 145.3 311.5C144.2 311.6 143.4 312.6 143.1 313.7C143.3 312.8 143.5 311.8 143.4 310.8C143.3 309.8 142.7 308.9 141.9 308.5C140.9 308.1 139.6 308.5 138.9 309.3C138.1 310.1 137.6 311.3 137.2 312.3C137.5 311.2 137.9 310 137.8 308.9C137.7 307.7 136.9 306.6 135.8 306.4C134.8 306.2 133.8 306.8 133.1 307.6C132.5 308.4 131.9 309.1 131.6 310.1C132.1 308.8 132.5 307.4 132.2 306C131.9 304.6 130.5 303.4 129.1 303.9C128 304.3 127.5 305.6 127.2 306.7C126.5 309 125.9 311.4 125.3 313.8C125 315 125.8 316.7 126.9 317.2C128 317.7 129.3 317.6 130.3 317C130.9 318.7 133.1 319.5 134.7 318.7C136.2 320.3 139 320.7 140.7 319.2C140.6 319.3 140.6 319.5 140.5 319.6C141.3 321.2 143.3 321.6 144.9 320.9C146 320.3 146.9 318.3 147.3 316.4Z" fill="#F7987F"/>
<path d="M131.401 309C130.701 311.2 130.101 313.4 129.601 315.7C129.401 316.5 130.601 316.8 130.801 316C131.301 313.7 131.901 311.5 132.601 309.3C132.801 308.6 131.601 308.2 131.401 309Z" fill="#D66556"/>
<path d="M136.7 311.7C136.2 313.8 135.7 315.9 135.2 317.9C135 318.7 136.2 319 136.4 318.2C136.9 316.1 137.4 314 137.9 312C138.1 311.3 136.9 310.9 136.7 311.7Z" fill="#D66556"/>
<path d="M142.801 313.2C142.201 315 141.601 316.8 141.101 318.6C140.901 319.4 142.101 319.7 142.301 318.9C142.901 317.1 143.501 315.3 144.001 313.5C144.301 312.7 143.101 312.4 142.801 313.2Z" fill="#D66556"/>
<path d="M233.201 308.9C235.701 315.6 238.501 322.7 236.801 329.6C236.401 331 236.101 332.4 236.301 333.9C236.501 335.3 237.401 336.7 238.801 337.1C240.201 337.4 242.601 336.9 242.301 335.5C241.701 336.3 242.401 337.6 243.401 337.9C244.401 338.2 245.401 337.5 246.001 336.6C246.601 335.7 246.701 334.7 246.901 333.7C247.901 326.1 249.001 318.7 247.201 311.2C245.401 303.6 243.101 296.1 240.301 288.8C237.301 291.7 234.201 294.8 231.701 298.1C229.301 301.5 227.401 305.4 227.001 309.5C226.901 310.7 227.001 312.2 228.101 312.8C229.001 313.4 230.301 312.9 231.101 312.1C231.901 311.3 232.901 310 233.201 308.9Z" fill="#F7987F"/>
<path d="M242.201 311.8C244.101 319.7 244.001 327.9 241.901 335.8C241.701 336.6 242.901 336.9 243.101 336.1C245.201 328 245.301 319.6 243.401 311.4C243.201 310.7 242.001 311 242.201 311.8Z" fill="#D66556"/>
<path d="M284.9 233.1C291.5 237.7 293.5 246.4 289.3 252.4L248.7 309.6L228.9 295.7L265.3 235.6C269.4 229.6 278.3 228.5 284.9 233.1Z" fill="#411D16"/>
<path d="M244.4 268.1C239.7 276.1 235 284.1 230.4 292C229.7 293.1 229.1 294.3 228.4 295.4C228 296 229 296.6 229.3 296C234 288 238.7 280 243.3 272.1C244 271 244.6 269.8 245.3 268.7C245.7 268.1 244.7 267.5 244.4 268.1Z" fill="#160503"/>
<path d="M228.4 296.2C229.1 296.8 229.8 297.2 230.5 297.8C231 298.3 231.8 297.5 231.3 297C230.6 296.4 229.9 296 229.2 295.4C228.7 294.9 227.9 295.7 228.4 296.2Z" fill="#160503"/>
<path d="M244.2 190C241.6 201.1 241.4 212.6 243.6 223.8C243.7 224.5 244.8 224.2 244.7 223.5C242.5 212.5 242.7 201.2 245.3 190.3C245.4 189.6 244.4 189.3 244.2 190Z" fill="white"/>
<path d="M549.401 185.8L555.001 188.4C560.401 190.9 564.801 195.2 567.201 200.6C568.201 202.8 568.901 205.1 569.201 207.5L574.201 255.2V255.3C575.101 261.8 573.801 268.4 570.501 274.1L550.001 317.9L528.701 316.5L549.101 269.3L544.201 221.7L549.401 185.8Z" fill="white"/>
<path d="M546.601 320.3L526.501 282.8C526.301 282.3 526.401 281.8 526.901 281.5L576.101 255.2C576.601 255 577.101 255.1 577.401 255.6L597.501 293.1C597.701 293.6 597.601 294.1 597.101 294.4L547.901 320.7C547.401 320.9 546.801 320.8 546.601 320.3Z" fill="#411D16"/>
<path d="M547.302 316.8C547.602 317.4 548.402 317.6 549.002 317.3L561.202 310.8C553.702 308.4 546.402 305.6 539.502 302.3L547.302 316.8Z" fill="#FF725E"/>
<path d="M591.901 292.8L588.201 285.9C575.901 281.8 563.901 276.6 552.401 270.7L530.401 282.5C529.801 282.8 529.501 283.6 529.801 284.2L539.401 302.1C546.401 305.4 553.601 308.2 561.101 310.6L591.301 294.4C592.001 294.2 592.201 293.4 591.901 292.8Z" fill="#ED5500"/>
<path d="M574.5 260.3C574.2 259.7 573.4 259.5 572.8 259.8L552.4 270.7C564 276.6 576 281.8 588.2 285.9L574.5 260.3Z" fill="#FF725E"/>
<path d="M585.501 276.5C585.001 276.8 584.401 276.6 584.101 276.1C583.801 275.6 584.001 275 584.601 274.7C585.101 274.4 585.701 274.6 586.001 275.1C586.301 275.6 586.001 276.2 585.501 276.5Z" fill="white"/>
<path d="M586.5 278.3C586.2 278.5 585.8 278.4 585.6 278.1C585.4 277.8 585.6 277.4 585.9 277.3C586.2 277.1 586.6 277.2 586.8 277.5C587 277.8 586.8 278.1 586.5 278.3Z" fill="white"/>
<path d="M476.6 302.8H506.1H519.8H549.3L550 339.6H519.8H506.1H473L474.1 321.2L476.6 302.8Z" fill="#082870"/>
<path d="M501.801 106.3C496.301 107.8 491.501 111.3 488.401 116C485.301 120.7 483.501 126.8 484.201 132.5C484.601 135.4 485.601 138.2 487.801 140.2C488.401 140.7 489.201 139.9 488.601 139.4C484.701 135.9 484.701 130 485.801 125.2C487.001 119.9 489.801 114.9 494.101 111.5C496.501 109.6 499.201 108.2 502.101 107.4C502.801 107.2 502.501 106.1 501.801 106.3Z" fill="#411D16"/>
<path d="M542.301 117.2C536.801 106.6 527.201 103.3 516.001 104.8C512.301 103.6 508.201 103.7 504.501 104.9C500.701 106.1 497.201 108.4 494.301 111.2C490.301 115.1 487.201 120.1 486.201 125.5C485.201 131 486.401 137 489.901 141.3C491.301 139.6 492.701 137.9 494.101 136.3C500.501 133.5 507.001 131.2 513.601 129.1C522.901 126.2 532.101 133.2 541.001 137.2C545.701 132.9 545.201 122.9 542.301 117.2Z" fill="#411D16"/>
<path d="M537.701 137.5C538.201 136.1 540.101 135.6 541.401 136.1C542.801 136.7 543.601 138.1 544.101 139.5C545.001 142.3 544.401 145.4 542.701 147.7C541.001 150 538.201 151.5 535.301 151.5C536.101 146.6 536.501 142.6 537.301 137.7C537.301 138 537.601 137.2 537.701 137.5Z" fill="#7F4649"/>
<path d="M527.9 170.4L529.2 185.8H503.4L504.4 174.1C512.5 175 520.9 173.7 527.9 170.4Z" fill="#A1595A"/>
<path d="M504.5 175.5L506.1 156.9H526.6L527.9 171.8C520.9 175.2 512.5 176.5 504.5 175.5Z" fill="#7F4649"/>
<path d="M493.002 137.5C492.502 136.1 490.602 135.6 489.302 136.1C487.902 136.7 487.102 138.1 486.602 139.5C485.702 142.3 486.302 145.4 488.002 147.7C489.702 150 492.502 151.5 495.402 151.5C494.602 146.6 494.202 142.6 493.402 137.7C493.302 138 493.002 137.2 493.002 137.5Z" fill="#A1595A"/>
<path d="M539.302 122.9C536.302 116.6 530.502 111.9 523.502 110.2L522.402 109.9C518.402 108.9 514.202 108.9 510.202 109.9L509.102 110.2C502.102 112 496.302 116.6 493.302 122.9C491.302 127.1 490.602 131.9 491.502 136.5L492.802 143.6C494.002 150.5 495.102 156.5 500.002 161.6C500.602 162.2 503.402 165.5 504.102 166.1L504.302 166.3C511.002 172.5 521.702 172.5 528.402 166.3L528.602 166.1C529.002 165.7 532.302 162.1 532.702 161.6C538.402 154.8 538.602 150.7 539.902 143.6L541.202 136.5C542.002 131.8 541.402 127.1 539.302 122.9Z" fill="#A1595A"/>
<path d="M488.802 140.2C488.902 139.6 489.402 139.1 489.902 139C490.602 138.8 491.202 139.2 491.602 139.8C492.302 140.9 492.502 142.4 492.702 143.6C493.002 143.4 493.402 143.2 493.702 143C492.502 142 490.902 142.9 491.002 144.4C491.102 146.2 492.202 147.8 493.602 148.7C494.202 149.1 494.802 148.1 494.202 147.7C493.602 147.3 493.002 146.7 492.702 146C492.502 145.7 492.402 145.4 492.302 145.1C492.202 144.7 492.102 143.1 492.902 143.8C493.402 144.2 494.002 143.8 493.902 143.2C493.702 141.4 493.202 138.5 491.202 137.8C489.602 137.2 487.902 138.5 487.702 140.1C487.602 140.9 488.702 140.9 488.802 140.2Z" fill="#7F4649"/>
<path d="M529.301 143.5C530.461 143.5 531.401 142.112 531.401 140.4C531.401 138.688 530.461 137.3 529.301 137.3C528.141 137.3 527.201 138.688 527.201 140.4C527.201 142.112 528.141 143.5 529.301 143.5Z" fill="#411D16"/>
<path d="M506.301 143.5C507.461 143.5 508.401 142.112 508.401 140.4C508.401 138.688 507.461 137.3 506.301 137.3C505.141 137.3 504.201 138.688 504.201 140.4C504.201 142.112 505.141 143.5 506.301 143.5Z" fill="#411D16"/>
<path d="M523.802 134.1C523.502 134.6 523.302 135 523.102 135.6C526.702 133.6 531.102 133.2 535.002 134.4C535.002 133.4 534.402 132.6 533.502 132.3C530.602 131.1 525.602 131.5 523.802 134.1Z" fill="#411D16"/>
<path d="M511.101 134.1C511.501 134.5 511.701 135 511.901 135.5C508.201 133.9 503.701 133.9 500.001 135.5C499.901 134.5 500.401 133.7 501.301 133.2C504.101 131.9 509.001 131.8 511.101 134.1Z" fill="#411D16"/>
<path d="M490.502 135.8C498.902 132.5 506.002 126.1 510.102 118C509.502 122.1 507.202 125.9 503.902 128.5C506.702 128.8 509.302 129.1 512.102 128.7C514.902 128.3 517.602 126.9 519.102 124.6C518.802 126.3 517.602 127.8 516.002 128.4C520.902 129 526.102 126.3 528.402 121.9C529.002 120.7 530.002 119.2 530.402 117.8C533.602 121.5 534.302 124.7 536.002 129.2C536.802 131.4 539.302 135.1 541.302 136.4C542.202 132.5 543.202 128.8 542.902 124.8C542.602 120.8 541.302 116.9 538.602 113.9C535.202 110.2 530.102 108.6 525.102 107.7C519.802 106.7 514.402 106.3 509.202 107.4C504.002 108.5 496.802 112.4 494.002 117C490.502 122.8 490.502 128.3 490.502 135.8Z" fill="#411D16"/>
<path d="M521.402 127.7C524.502 127.8 527.402 126.2 529.702 124.3C532.002 122.4 533.302 119.7 533.302 116.8C533.302 116 532.102 116 532.102 116.8C532.102 119.4 530.902 121.8 528.802 123.5C526.702 125.2 524.102 126.6 521.302 126.5C520.602 126.5 520.602 127.7 521.402 127.7Z" fill="#411D16"/>
<path d="M515.401 105.9C521.101 102.9 528.301 103.2 533.601 106.7C538.701 110.1 541.701 116.2 541.501 122.3C541.501 123.1 542.601 123.1 542.701 122.3C542.901 117.2 541.001 112.2 537.501 108.5C533.901 104.6 528.801 102.6 523.501 102.6C520.501 102.6 517.501 103.4 514.801 104.8C514.201 105.2 514.801 106.2 515.401 105.9Z" fill="#411D16"/>
<path d="M489.801 134.5C491.601 136.1 493.001 138.1 493.901 140.3C493.401 137.3 493.601 134.3 494.301 131.3C492.701 132.1 491.301 133.6 489.801 134.5Z" fill="#411D16"/>
<path d="M540.301 134.7C540.601 137.1 540.601 139.5 540.201 141.9C541.701 138.9 542.801 135.9 543.501 132.6C542.301 133 541.401 134.1 540.301 134.7Z" fill="#411D16"/>
<path d="M522.501 158.6C522.501 158.6 516.801 160.9 512.701 158.5" stroke="#7F4649" stroke-miterlimit="10" stroke-linecap="round" stroke-linejoin="round"/>
<path d="M515.801 161.5C515.801 161.5 518.601 161.6 519.901 161.2" stroke="#7F4649" stroke-miterlimit="10" stroke-linecap="round" stroke-linejoin="round"/>
<path d="M519.002 133.3C516.402 138.3 516.702 144.7 519.902 149.4C519.902 149.2 520.002 148.9 520.002 148.7C519.202 149.7 518.502 150.7 517.902 151.8C517.502 152.5 518.502 153.1 518.902 152.4C519.502 151.4 520.102 150.5 520.902 149.6C521.102 149.4 521.202 149.1 521.002 148.9C518.002 144.6 517.702 138.7 520.102 134.1C520.402 133.2 519.402 132.6 519.002 133.3Z" fill="#7F4649"/>
<path d="M462.001 207.9L462.101 206.2C462.501 200.4 465.201 195.1 469.401 191.6L472.601 188.9C475.101 186.8 478.101 185.5 481.301 185L493.101 183.4C497.401 191.6 506.101 197.3 515.301 197.9C525.301 198.5 535.301 192.9 540.201 184.2L546.001 185C549.101 185.4 552.101 186.8 554.701 188.9L557.901 191.6C562.101 195.1 564.801 200.4 565.201 206.2L565.301 207.9C565.501 210.5 565.201 213.2 564.501 215.7L553.401 254.8L549.801 310.8H514.301H513.001H474.701L468.601 254.7L462.701 215.8C462.101 213.2 461.801 210.5 462.001 207.9Z" fill="white"/>
<path d="M515.402 197.9C504.302 196.9 496.902 191.6 492.602 183.5L493.802 183.2L513.702 180.6L533.502 183.3L540.202 184.2C535.402 192.9 525.302 198.7 515.402 197.9Z" fill="#A1595A"/>
<path d="M536.999 269C527.399 277.5 516.699 284.9 505.299 290.8C502.099 292.5 498.799 294 495.499 295.5C494.899 295.8 495.399 296.6 495.999 296.4C507.899 291.2 519.099 284.6 529.399 276.6C532.299 274.4 534.999 272.1 537.799 269.7C538.199 269.3 537.499 268.6 536.999 269Z" fill="#D0ECFB"/>
<path d="M563.3 216.9C561.3 223.3 559.5 229.8 557.8 236.2C556.4 241.3 555.2 246.4 554.1 251.6C553.7 253.5 553.3 255.4 553.2 257.4C552.8 263 552.4 268.6 552 274.1C551.5 281.8 550.9 289.4 550.4 297.1C550.2 300.1 550 303 549.8 306C549.7 307.5 549.5 309 549.5 310.5C549.5 310.6 549.5 310.6 549.5 310.7C549.5 311.4 550.5 311.4 550.5 310.7C550.8 307 551 303.3 551.3 299.6C551.8 292.1 552.4 284.5 552.9 277C553.3 270.9 553.8 264.8 554.2 258.6C554.6 252.3 556.3 246.2 557.8 240.1C559.7 232.5 561.9 224.9 564.2 217.4C564.2 217.3 564.3 217.1 564.3 217C564.5 216.5 563.5 216.2 563.3 216.9Z" fill="#D0ECFB"/>
<path d="M485.801 298.1C485.201 298.6 484.401 299.1 483.801 299.6C483.301 300 484.001 300.7 484.501 300.3C485.101 299.8 485.901 299.3 486.501 298.8C487.001 298.4 486.301 297.7 485.801 298.1Z" fill="white"/>
<path d="M479.501 328.6C483.701 325.8 489.701 321.1 494.201 314.3C488.701 318.7 482.301 321.8 475.301 322.8C476.501 324.8 478.201 326.8 479.501 328.6Z" fill="#7F4649"/>
<path d="M488 305C484.2 308.3 477 316.1 474.1 320.1C474.4 321 474.8 321.9 475.3 322.7C482.3 321.8 488.7 318.6 494.2 314.2C494.7 313.4 495.3 312.6 495.8 311.7C493.8 309.9 490 306.9 488 305Z" fill="#A1595A"/>
<path d="M477.2 186.2C470.9 188.1 467 190 463.2 194.1C459.7 197.8 457.2 202.5 455 207.1C453.4 210.6 452.3 214.3 451.8 218.2L446.5 261.8C445.9 266.8 446.8 271.8 449.2 276.2L475.3 324.8L490.4 305L472 262.6L477.2 186.2Z" fill="white"/>
<path d="M471.4 262C472 263.7 472.8 265.4 473.5 267.1C474.9 270.4 476.4 273.7 477.8 277C481 284.3 484.2 291.6 487.4 298.9C488.3 301 489.3 303 490 305.1C490.2 305.7 491.2 305.5 491 304.8C490.4 303.1 489.6 301.4 488.9 299.7C487.5 296.4 486 293.1 484.6 289.8C481.4 282.5 478.2 275.2 475 267.9C474.1 265.8 473.1 263.8 472.4 261.7C472.1 261.1 471.2 261.4 471.4 262Z" fill="#D0ECFB"/>
<path d="M490 304.7C485.1 311.3 480.2 318 475 324.4C474.6 324.9 475.3 325.6 475.7 325.1C481 318.7 485.9 311.9 490.8 305.2C491.3 304.7 490.4 304.2 490 304.7Z" fill="#D0ECFB"/>
<path d="M472.2 261.5C473.3 249.9 476 238.6 478.6 227.3C479.1 225.3 479.6 223.2 480 221.2C480.1 220.6 479.1 220.3 479 220.9C476.9 231.1 474.2 241.2 472.5 251.5C471.9 254.8 471.5 258.2 471.2 261.5C471.1 262.1 472.1 262.1 472.2 261.5Z" fill="#D0ECFB"/>
<path d="M468.901 193.5C473.501 200.4 476.701 208 478.301 216.1C478.401 216.7 479.401 216.5 479.301 215.8C477.601 207.7 474.401 199.9 469.801 193C469.401 192.4 468.501 192.9 468.901 193.5Z" fill="#D0ECFB"/>
<path d="M549.601 232.4H545.701V227.7C545.701 226.6 546.601 225.8 547.601 225.8C548.701 225.8 549.501 226.7 549.501 227.7V232.4H549.601Z" fill="#005EB8"/>
<path d="M529.4 233.2C537.5 233.1 545.5 233.1 553.6 233C554.3 233 554.3 232 553.6 232C545.5 232.1 537.5 232.1 529.4 232.2C528.7 232.1 528.7 233.2 529.4 233.2Z" fill="#D0ECFB"/>
<path d="M547.7 239.5C547.4 239.5 547.1 239.2 547.1 238.9V229.1H548.2V238.9C548.2 239.3 548 239.5 547.7 239.5Z" fill="#411D16"/>
<path d="M573.2 305.6C571.8 303.7 569.7 302.3 568.5 303.8C567.8 304.6 568.1 305.8 568.6 306.8C568.1 306.1 567.5 305.3 566.8 304.8C566.1 304.3 565.1 304 564.2 304.4C563.2 304.8 562.8 306 562.8 307C562.9 308 563.3 309.1 563.8 310.1C563.3 309.2 562.7 308.2 561.8 307.5C560.9 306.9 559.6 306.6 558.7 307.3C557.9 307.9 557.7 308.9 557.8 309.9C558 310.8 558 311.7 558.5 312.5C557.9 311.3 557.2 310.1 556.1 309.5C555 308.8 553.2 309.1 552.7 310.3C552.3 311.3 552.8 312.5 553.4 313.4C554.6 315.4 555.8 317.3 557 319.2C557.6 320.1 559.3 320.7 560.4 320.3C561.4 319.9 562.2 318.9 562.4 317.8C564 318.5 565.9 317.5 566.4 315.8C568.5 315.8 570.5 314.1 570.5 312C570.5 312.1 570.6 312.3 570.6 312.4C572.2 312.9 573.8 311.8 574.3 310.2C575 309 574.3 307.2 573.2 305.6Z" fill="#A1595A"/>
<path d="M558.001 311.9C559.101 313.8 560.201 315.6 561.501 317.4C561.901 318 562.901 317.4 562.501 316.8C561.201 315 560.101 313.2 559.001 311.3C558.601 310.6 557.601 311.2 558.001 311.9Z" fill="#7F4649"/>
<path d="M563.3 309.9C564.4 311.6 565.5 313.2 566.6 314.9C567 315.5 568 314.9 567.6 314.3C566.5 312.6 565.4 311 564.3 309.3C563.9 308.7 562.8 309.3 563.3 309.9Z" fill="#7F4649"/>
<path d="M568.2 306.6C569.1 308.1 569.9 309.7 570.8 311.2C571.2 311.9 572.2 311.3 571.8 310.6C570.9 309.1 570.1 307.5 569.2 306C568.8 305.4 567.8 306 568.2 306.6Z" fill="#7F4649"/>
<path d="M488.701 184.3L513.001 230.3L545.001 184.8" stroke="#D0ECFB" stroke-miterlimit="10"/>
<path d="M504.5 206L513.7 224L527 207.5L515.4 197.9L505 204.3L504.5 206Z" fill="#92E3FF"/>
<path d="M503.7 181.8L515.4 197.9L529 182.7L541.2 184.4L529.9 211L515.3 199L500.3 209.5L492.6 183.4L503.7 181.8Z" fill="#92E3FF"/>
<path d="M504.6 206.6L515.2 199.3L527.4 209.1" stroke="#62D5F4" stroke-miterlimit="10" stroke-linecap="round" stroke-linejoin="round"/>
<path d="M534.101 183.3C531.201 191.4 527.801 199.4 524.501 207.4C521.401 215 518.201 222.5 515.001 230C514.201 231.9 513.301 233.8 512.601 235.7C512.301 236.4 513.501 236.7 513.701 236C515.501 231.2 517.701 226.4 519.701 221.7C523.301 213.3 526.801 204.9 530.201 196.4C531.901 192.1 533.601 187.9 535.101 183.6C535.501 182.9 534.301 182.6 534.101 183.3Z" fill="#411D16"/>
<path d="M495.501 183.2C497.401 189.3 499.401 195.4 501.401 201.5C504.301 210.6 507.301 219.7 510.201 228.8C511.001 231.2 511.701 233.7 512.601 236C512.901 236.7 514.001 236.4 513.701 235.7C511.501 229.7 509.701 223.5 507.701 217.4C504.801 208.3 501.801 199.2 498.901 190.1C498.101 187.7 497.301 185.3 496.601 182.8C496.401 182.1 495.301 182.4 495.501 183.2Z" fill="#411D16"/>
<path d="M522.4 235.6H503.9V241.1H522.4V235.6Z" fill="#005EB8"/>
<path d="M522.4 241.1H503.9V258.5H522.4V241.1Z" fill="#D0ECFB"/>
<path d="M443.099 184.2L448.799 186.5C456.099 189.5 462.299 194.6 466.599 201.3C468.899 204.9 470.599 208.9 471.599 213C473.599 219.5 475.499 226.1 477.499 232.6C478.899 237.3 480.399 242.1 481.799 246.8C483.399 252.2 485.799 257.5 484.199 263.2C482.599 268.7 453.999 304.5 449.399 310.7L441.799 288.4L459.599 256.2L444.699 225L443.099 184.2Z" fill="#FFD543"/>
<path d="M439.799 308.5C443.599 314.7 447.999 321.2 447.599 328.5C447.499 330 447.499 331.5 447.999 332.9C448.499 334.3 449.699 335.5 451.199 335.6C452.699 335.6 454.999 334.7 454.399 333.3C453.899 334.2 454.899 335.4 455.899 335.5C456.999 335.5 457.899 334.7 458.199 333.7C458.599 332.7 458.499 331.6 458.499 330.6C457.899 322.8 457.499 315.1 454.199 308C450.799 300.8 446.999 293.7 442.699 287C440.299 290.5 437.799 294.2 435.999 298.1C434.199 302 433.099 306.3 433.599 310.5C433.699 311.7 434.199 313.2 435.299 313.6C436.399 314 437.599 313.3 438.099 312.3C438.599 311.3 439.699 309.6 439.799 308.5Z" fill="#FAB8A3"/>
<path d="M449.399 309.6C452.899 317.1 454.399 325.4 453.899 333.7C453.899 334.5 455.099 334.5 455.199 333.7C455.699 325.2 454.099 316.7 450.499 308.9C450.099 308.2 448.999 308.8 449.399 309.6Z" fill="#FF725E"/>
<path d="M380.599 129.6C381.499 138 376.799 145.8 374.399 153.9C373.099 158.4 372.499 163.5 374.699 167.7C376.399 170.9 379.599 173.3 382.999 174.8C388.299 177.1 394.299 177.9 399.899 176.7C405.299 175.6 410.399 172.8 415.899 172.9C420.599 173 424.999 175.3 429.699 175.6C434.099 175.9 438.799 174.4 441.899 171.4C445.099 168.4 446.699 163.8 445.899 159.6C444.999 154.5 440.899 150.5 438.599 145.9C436.399 141.4 435.699 136.2 436.899 131.3C418.799 127.5 398.999 126.9 380.599 129.6Z" fill="#80413D"/>
<path d="M397 168.5L395.5 185.3H423.6L422.5 172.5C413.8 173.6 404.7 172.2 397 168.5Z" fill="#FAB8A3"/>
<path d="M422.6 172.6L420.8 152.3H398.5L397.1 168.5C404.7 172.2 413.8 173.6 422.6 172.6Z" fill="#FF9173"/>
<path d="M379.7 137.6C379.3 143.1 374.8 147.1 372.2 151.6C370.8 154 369.9 156.6 370 159.4C370.1 162.3 371.1 165.2 373 167.5C375.1 170 378.1 171.7 381.3 172.2C382.1 172.3 382.4 171.1 381.6 171C375.6 170.1 371.1 164.9 371.2 158.8C371.3 153.4 375.3 149.4 378.1 145.1C379.6 142.8 380.7 140.3 380.9 137.6C381 136.8 379.8 136.8 379.7 137.6Z" fill="#80413D"/>
<path d="M436.299 145.7C438.299 148.4 440.299 151.1 442.299 153.8C444.099 156.2 445.899 158.7 446.899 161.6C447.799 164.2 447.799 167.4 445.599 169.4C443.699 171 440.899 171.3 438.599 170.8C437.799 170.6 437.499 171.9 438.299 172C440.899 172.5 443.799 172.3 445.899 170.7C448.299 169 449.099 166.1 448.699 163.3C448.199 160 446.399 157.1 444.499 154.4C442.199 151.2 439.799 148.1 437.399 145C436.899 144.4 435.799 145 436.299 145.7Z" fill="#80413D"/>
<path d="M402.299 93.7C396.399 94.6 390.599 96.9 386.099 100.9C381.699 104.8 378.999 110.4 378.799 116.3C378.699 119.6 379.499 122.9 381.199 125.7C381.599 126.4 382.699 125.8 382.299 125.1C379.399 120.2 379.499 114.2 381.699 109.1C383.899 103.9 388.299 100 393.399 97.7C396.299 96.3 399.499 95.4 402.699 95C403.499 94.8 403.099 93.5 402.299 93.7Z" fill="#80413D"/>
<path d="M426.1 100.3C431.1 102.6 434.7 107.3 436.9 112.3C438.8 116.6 439.6 121.7 439 126.4C438.7 129 437.8 131.6 435.9 133.5C435.3 134.1 436.2 135 436.8 134.4C440.4 130.8 440.8 125 440.3 120.3C439.7 114.9 437.7 109.8 434.4 105.5C432.4 102.9 429.9 100.6 426.9 99.3C426 98.9 425.3 100 426.1 100.3Z" fill="#80413D"/>
<path d="M380.099 132.6C378.799 123.4 380.099 113.5 385.199 105.7C393.399 93 412.699 88.3 425.599 96.5C437.999 104.4 439.799 119.4 436.999 132.8C436.799 133.9 436.199 133.9 435.099 133.8C432.399 133.8 429.699 133.7 426.999 133.7C421.599 133.7 416.199 133.6 410.699 133.7C405.299 133.7 399.899 133.8 394.399 133.9C389.799 134 385.099 134.1 380.499 134.2" fill="#80413D"/>
<path d="M417.501 102.9L416.301 102.6C411.901 101.5 407.401 101.5 403.001 102.6L401.801 102.9C394.201 104.9 387.901 110 384.601 117C382.401 121.7 381.701 127 382.601 132.1L384.001 140C385.501 148.6 389.801 156.4 396.201 162.4L396.401 162.6C403.801 169.5 415.301 169.5 422.701 162.6L422.901 162.4C429.301 156.4 433.601 148.6 435.101 140L436.501 132.1C437.401 127 436.701 121.7 434.501 117C431.401 110.1 425.101 104.9 417.501 102.9Z" fill="#FAB8A3"/>
<path d="M405.1 126.7C409.7 131.2 410 138.6 405.8 143.4C405.6 143.6 405.6 143.9 405.7 144.2C406.5 145.8 407.3 147.3 408.1 148.9C408.5 149.6 409.6 149 409.2 148.3C408.4 146.7 407.6 145.2 406.8 143.6C406.8 143.9 406.7 144.1 406.7 144.4C411.4 139 411.2 130.9 406 125.9C405.4 125.3 404.5 126.2 405.1 126.7Z" fill="#FF725E"/>
<path d="M398.599 138.7C399.869 138.7 400.899 136.954 400.899 134.8C400.899 132.646 399.869 130.9 398.599 130.9C397.329 130.9 396.299 132.646 396.299 134.8C396.299 136.954 397.329 138.7 398.599 138.7Z" fill="#411D16"/>
<path d="M420.698 138.7C421.969 138.7 422.998 136.954 422.998 134.8C422.998 132.646 421.969 130.9 420.698 130.9C419.428 130.9 418.398 132.646 418.398 134.8C418.398 136.954 419.428 138.7 420.698 138.7Z" fill="#411D16"/>
<path d="M437.3 132.4C427.5 131.3 417.7 127.2 410.2 120.8C413 125 417.8 128.1 422.8 128.9C416.5 128.9 409.9 128.4 404.4 125.4C398.9 122.4 394.6 116.1 395.7 109.9C396.6 104.6 400 99.9 405.1 98.3C410.2 96.7 415.8 97.7 420.6 100.1C426.3 103 431 107.7 433.8 113.5C436.5 119.2 438.5 126.2 437.3 132.4Z" fill="#80413D"/>
<path d="M399.6 102.6C396.4 104.9 394.6 108.7 393.4 112.5C392.2 116.3 391.5 120.2 389.8 123.8C388.1 127.4 385.2 130.6 381.3 131.5C380.7 125.2 382 118.7 385.4 113.4C388.8 108.1 393.7 104.7 399.6 102.6Z" fill="#80413D"/>
<path d="M384.2 132.7C383.7 131.2 381.6 130.6 380.1 131.2C378.6 131.8 377.7 133.3 377.2 134.9C376.3 137.9 376.8 141.3 378.7 143.9C380.6 146.4 383.7 148 386.8 148.1C385.9 142.7 385.5 138.4 384.6 133C384.5 133.2 384.2 132.4 384.2 132.7Z" fill="#FAB8A3"/>
<path d="M435.1 132.7C435.6 131.2 437.7 130.6 439.2 131.2C440.7 131.8 441.6 133.3 442.1 134.9C443 137.9 442.5 141.3 440.6 143.9C438.7 146.5 435.6 148 432.5 148.1C433.4 142.7 433.8 138.4 434.7 133C434.7 133.2 435.1 132.4 435.1 132.7Z" fill="#FAB8A3"/>
<path d="M379.801 135.5C380.201 133.9 382.201 134.2 383.101 135.2C384.201 136.5 384.101 138.2 384.001 139.8C384.401 139.6 384.701 139.5 385.101 139.3C384.101 138.2 382.701 139.2 382.501 140.4C382.201 142.1 383.301 143.6 384.401 144.7C385.001 145.3 385.901 144.4 385.301 143.8C384.801 143.3 384.401 142.8 384.101 142.2C383.901 141.9 383.801 141.5 383.701 141.1C383.701 141 383.801 139.8 384.201 140.2C384.601 140.6 385.301 140.3 385.301 139.7C385.401 137.4 385.301 134.7 383.101 133.4C381.401 132.4 379.101 133.1 378.601 135.1C378.401 135.9 379.601 136.3 379.801 135.5Z" fill="#FF725E"/>
<path d="M440.9 135.6C440.7 133.8 438.8 132.4 437.1 133.1C434.9 133.9 434.5 137.1 434.2 139C434.1 139.6 434.7 140.1 435.3 139.6C436.1 139 436.1 140.3 436 140.7C435.9 141.1 435.8 141.5 435.6 141.9C435.2 142.7 434.6 143.3 433.9 143.8C433.2 144.3 433.9 145.4 434.5 144.9C436 143.9 437.3 142.2 437.4 140.3C437.5 138.6 435.8 137.6 434.5 138.7C434.9 138.9 435.2 139.1 435.6 139.3C435.8 137.9 436 136.2 436.8 135C437.6 133.8 439.6 133.9 439.8 135.6C439.7 136.4 441 136.4 440.9 135.6Z" fill="#FF725E"/>
<path d="M391.199 126.2C394.099 124.7 397.399 124.5 400.499 125.5C401.299 125.8 401.599 124.5 400.799 124.3C397.399 123.2 393.699 123.5 390.499 125.1C389.799 125.4 390.499 126.5 391.199 126.2Z" fill="#80413D"/>
<path d="M404.1 93.3C403.9 93.3 403.8 93.3 403.6 93.3C403.3 93.3 402.9 93.6 403 93.9C403 94.2 403.3 94.5 403.6 94.5C403.8 94.5 403.9 94.5 404.1 94.5C404.4 94.5 404.8 94.2 404.7 93.9C404.7 93.6 404.5 93.3 404.1 93.3Z" fill="#80413D"/>
<path d="M416.801 151.1C411.401 151.5 408.901 151.6 401.701 151.5C401.401 151.5 401.201 151.9 401.401 152.2C403.401 155 406.201 156.9 409.301 156.8C412.401 156.7 415.201 154.7 417.101 151.7C417.301 151.5 417.101 151.1 416.801 151.1Z" fill="white"/>
<path d="M409 157.4C406 157.4 403.3 155.7 401 152.6C400.8 152.3 400.7 151.9 400.9 151.6C401.1 151.3 401.4 151.1 401.7 151.1C408.8 151.1 411.3 151 416.7 150.7C417 150.7 417.4 150.9 417.6 151.2C417.8 151.5 417.8 151.9 417.6 152.2C415.5 155.5 412.5 157.4 409.3 157.5C409.2 157.4 409.1 157.4 409 157.4ZM402 152.1C403.5 154.1 406 156.4 409.3 156.3C412.1 156.2 414.6 154.6 416.5 151.7C411.3 152.1 408.8 152.2 402 152.1Z" fill="#FF725E"/>
<path d="M450.7 316.3C450.4 313.5 449.8 310.7 449 307.9L444.1 290.8H409.6H408.4H369.3L364.4 307.9C363.6 310.6 363.1 313.4 362.7 316.3L360 339.6H408.4H409.7H453.4L450.7 316.3Z" fill="#411D16"/>
<path d="M409.5 195.4C410.6 192.9 412.1 190.6 413.2 188.1C419.1 187 424.7 184.4 429.7 181L409.1 177H409H408.9L387.5 181.1C392.7 184.7 398.7 187.1 405 188C406.6 190.6 407.9 193 409.5 195.4Z" fill="#FAB8A3"/>
<path d="M447.7 186.3C444.8 184.6 441.7 183.4 438.4 182.7L429.8 181C424.8 184.4 419.1 186.9 413.3 188.1C412.2 190.6 410.7 192.9 409.6 195.4C408.1 193 406.7 190.6 405.2 188.1C398.9 187.2 392.9 184.8 387.7 181.2L379.9 182.7C376.6 183.3 373.4 184.5 370.6 186.3C361.1 192 355.7 202.6 356.7 213.7L356.9 216C357.2 218.9 357.9 221.7 359 224.4L377.8 269.9L369.2 290.9H409.2H409.3H444.6L440.6 269.9L459.4 224.4C460.5 221.7 461.2 218.9 461.5 216L461.7 213.7C462.6 202.7 457.2 192 447.7 186.3Z" fill="#FFD543"/>
<path d="M374.8 184.2L369.1 186.5C361.8 189.5 355.6 194.6 351.3 201.3C349 204.9 347.3 208.9 346.3 213C344.3 219.5 342.4 226.1 340.4 232.6C339 237.3 337.5 242.1 336.1 246.8C334.5 252.2 332.1 257.5 333.7 263.2C335.3 268.7 363.9 304.5 368.5 310.7L376.1 288.4L358.3 256.2L373.2 224.9L374.8 184.2Z" fill="#FFD543"/>
<path d="M378.1 308.5C374.3 314.7 369.9 321.2 370.3 328.5C370.4 330 370.4 331.5 369.9 332.9C369.4 334.3 368.2 335.5 366.7 335.6C365.2 335.6 362.9 334.7 363.5 333.3C364 334.2 363 335.4 362 335.5C361 335.6 360 334.7 359.7 333.7C359.3 332.7 359.4 331.6 359.4 330.6C360 322.8 360.4 315.1 363.7 308C367.1 300.8 370.9 293.7 375.2 287C377.6 290.5 380.1 294.2 381.9 298.1C383.7 302 384.8 306.3 384.3 310.5C384.2 311.7 383.7 313.2 382.6 313.6C381.5 314 380.3 313.3 379.8 312.3C379.3 311.3 378.2 309.6 378.1 308.5Z" fill="#FAB8A3"/>
<path d="M370.999 228.2C369.099 232.3 367.199 236.3 365.299 240.4C364.999 241.1 366.099 241.8 366.399 241C368.299 236.9 370.199 232.9 372.099 228.8C372.499 228.1 371.399 227.4 370.999 228.2Z" fill="#411D16"/>
<path d="M367.399 308.9C363.799 316.6 362.199 325.2 362.699 333.7C362.699 334.5 363.999 334.5 363.999 333.7C363.499 325.4 365.099 317.1 368.499 309.6C368.899 308.8 367.799 308.2 367.399 308.9Z" fill="#FF725E"/>
<path d="M389.599 181C390.199 182.9 391.299 184.8 392.099 186.6C393.799 190.3 395.599 193.9 397.399 197.5C401.399 205.6 405.399 213.7 409.299 221.9C409.999 223.4 410.699 224.9 411.499 226.4C411.699 226.9 411.999 227.4 412.199 227.9C412.399 228.3 412.399 228.4 412.499 228.6C412.799 229.4 413.999 229 413.699 228.3C412.999 226.4 411.999 224.5 411.099 222.7C409.299 219.1 407.599 215.4 405.799 211.8C401.799 203.7 397.799 195.6 393.899 187.4C392.899 185.2 391.499 182.8 390.799 180.7C390.599 179.9 389.299 180.2 389.599 181Z" fill="#411D16"/>
<path d="M427.299 180.7C425.599 186.2 423.899 191.8 422.199 197.3C419.699 205.4 417.199 213.5 414.699 221.6C413.999 223.8 413.399 226.1 412.499 228.3C412.199 229.1 413.399 229.4 413.699 228.6C415.699 223.2 417.199 217.5 418.899 212C421.399 203.9 423.899 195.8 426.399 187.7C427.099 185.4 427.799 183.2 428.499 180.9C428.799 180.2 427.499 179.9 427.299 180.7Z" fill="#411D16"/>
<path d="M422.6 228.5H402.4V234.4H422.6V228.5Z" fill="#005EB8"/>
<path d="M422.6 234.4H402.4V253.4H422.6V234.4Z" fill="white"/>
<path d="M449.999 210.5C453.399 219.9 453.799 230.3 451.099 239.9C450.899 240.7 452.099 241 452.299 240.2C455.099 230.3 454.699 219.7 451.199 210.1C450.899 209.4 449.699 209.7 449.999 210.5Z" fill="#E0AF12"/>
<path d="M415.771 238.627L415.758 249.859L413.022 249.856L413.027 245.232L408.771 245.227L408.766 249.851L406.03 249.848L406.043 238.616L408.779 238.619L408.774 243.019L413.03 243.024L413.035 238.624L415.771 238.627ZM419.013 249.991C418.533 249.99 418.138 249.851 417.829 249.573C417.531 249.285 417.382 248.933 417.382 248.517C417.383 248.09 417.533 247.733 417.832 247.445C418.141 247.158 418.536 247.014 419.016 247.015C419.485 247.015 419.869 247.16 420.168 247.448C420.477 247.736 420.631 248.094 420.63 248.521C420.63 248.937 420.475 249.288 420.165 249.576C419.866 249.853 419.482 249.991 419.013 249.991Z" fill="#0109C4"/>
<path d="M27.5 339.6H590.3" stroke="#411D16" stroke-miterlimit="10"/>
<path d="M294 136.7L292.4 155H322.9L321.7 141.1C312.2 142.2 302.3 140.7 294 136.7Z" fill="#FAB8A3"/>
<path d="M321.7 141.1L319.8 119.1H295.6L294.1 136.7C302.3 140.7 312.2 142.2 321.7 141.1Z" fill="#FF9173"/>
<path d="M337.701 70.8C342.001 74.2 344.001 80.2 344.101 85.6C344.201 91 341.801 96.3 337.101 99.2C336.301 99.7 337.001 100.9 337.801 100.4C342.801 97.4 345.401 91.7 345.501 86C345.601 80.2 343.401 73.6 338.701 69.9C338.001 69.3 337.001 70.3 337.701 70.8Z" fill="#411D16"/>
<path d="M305.5 100C295.2 99.3 285.1 101.7 274.9 100.2C271.3 99.7 268.3 96.9 267.1 93.4C266 90 266.7 86 268.8 83C270.5 80.4 273.1 78.6 274.9 76.1C276.9 73.3 277.9 69.9 279.7 66.9C282.3 62.6 286.5 59.4 291.2 57.7C295.9 56 301.1 55.7 306 56.4C309.6 56.9 313.3 58.1 315.8 60.7C321.9 59 328.6 60.4 333.9 63.9C339.1 67.4 342.7 73.3 343.4 79.5C344.1 85.7 342 92.3 337.7 96.9C326.9 99.1 316.5 100.7 305.5 100Z" fill="#411D16"/>
<path d="M316.201 65.5L314.901 65.2C310.201 64 305.201 64 300.501 65.2L299.201 65.5C290.901 67.6 284.101 73.3 280.601 80.8C278.201 85.9 277.501 91.6 278.401 97.2L279.901 105.8C281.601 115.1 286.201 123.6 293.201 130.1L293.501 130.3C301.501 137.7 314.001 137.7 322.001 130.3L322.301 130.1C329.301 123.6 333.901 115.1 335.601 105.8L337.101 97.2C338.101 91.7 337.301 86 334.901 80.8C331.301 73.3 324.401 67.6 316.201 65.5Z" fill="#FAB8A3"/>
<path d="M280.001 97.8C279.401 96.1 277.201 95.5 275.601 96.2C274.001 96.9 273.001 98.5 272.401 100.2C271.401 103.5 272.001 107.2 274.001 109.9C276.001 112.7 279.401 114.4 282.801 114.4C281.901 108.6 281.301 103.9 280.401 98.1C280.401 98.4 280.101 97.5 280.001 97.8Z" fill="#FAB8A3"/>
<path d="M335.3 97.8C335.9 96.1 338.1 95.5 339.7 96.2C341.3 96.9 342.3 98.5 342.9 100.2C343.9 103.5 343.3 107.2 341.3 109.9C339.3 112.7 335.9 114.4 332.5 114.4C333.4 108.6 334 103.9 334.9 98.1C334.9 98.4 335.2 97.5 335.3 97.8Z" fill="#FAB8A3"/>
<path d="M275.301 100.8C275.801 99 278.001 99.4 278.901 100.5C280.001 101.9 280.001 103.7 279.901 105.4C280.301 105.2 280.701 105.1 281.101 104.9C280.001 103.7 278.401 104.8 278.201 106.2C277.901 108 279.101 109.6 280.301 110.8C280.901 111.4 281.901 110.5 281.301 109.8C280.801 109.3 280.301 108.8 280.001 108.1C279.801 107.8 279.701 107.4 279.601 107.1C279.601 107 279.601 105.4 280.101 105.9C280.501 106.4 281.201 106 281.301 105.4C281.401 103 281.301 100.1 278.901 98.6C277.101 97.5 274.501 98.2 274.001 100.4C273.801 101.3 275.101 101.7 275.301 100.8Z" fill="#FF725E"/>
<path d="M341.6 101C341.4 99.1 339.5 97.6 337.5 98.2C335 99 334.5 102.5 334.2 104.7C334.1 105.4 334.8 105.9 335.4 105.4C336.1 104.8 336.3 105.9 336.2 106.4C336.1 106.9 336 107.4 335.7 107.9C335.3 108.8 334.6 109.5 333.8 110.1C333.1 110.6 333.8 111.8 334.5 111.3C336.2 110.2 337.5 108.3 337.6 106.3C337.7 104.5 335.9 103.3 334.4 104.6C334.8 104.8 335.2 105 335.6 105.3C335.8 103.8 336 101.8 337 100.5C337.9 99.3 340 99.6 340.2 101.2C340.3 101.8 341.7 101.8 341.6 101Z" fill="#FF725E"/>
<path d="M284.201 90.8C284.401 90.8 284.601 90.7 284.901 90.7C285.301 90.6 285.501 90.2 285.401 89.8C285.301 89.4 284.901 89.2 284.501 89.3C284.301 89.3 284.101 89.4 283.801 89.4C283.401 89.5 283.201 89.9 283.301 90.3C283.501 90.7 283.801 90.9 284.201 90.8Z" fill="#411D16"/>
<path d="M276.401 94.3C277.801 96.6 279.201 98.9 280.601 101.2C280.201 99.1 280.101 97 280.101 94.9C284.801 92 289.601 89.2 293.901 85.6C298.201 82.1 302.001 77.9 304.401 72.9C303.001 77.4 301.301 82.3 297.501 85C301.001 85 304.701 84.9 307.801 83.3C311.001 81.7 313.601 78.7 313.901 75.2C319.101 82.2 326.401 88.2 334.101 92.3C334.601 95.6 335.201 99.5 334.001 102.6C336.501 100.5 338.201 97.1 339.301 94C341.201 89.2 339.801 83.6 339.001 78.5C338.201 73.4 336.101 68.3 332.101 64.9C328.201 61.5 322.301 60.2 317.601 62.4C311.101 60.5 303.701 60.4 297.101 62.2C290.501 64.1 284.601 68.2 280.701 73.8C276.901 79.6 272.801 88.5 276.401 94.3Z" fill="#411D16"/>
<path d="M283 63.6C278.5 66.3 277.6 71.9 274 75.4C271.9 77.4 269.2 78.6 267.4 80.9C265.7 83.1 265.1 86 265.8 88.6C266.6 91.5 268.8 93.8 271.6 94.8C272.4 95.1 272.8 93.8 272 93.5C268.9 92.4 266.8 89.3 267 85.9C267.2 82 270.2 80.1 273 78C275.4 76.2 277 74.1 278.5 71.5C279.9 69 281.3 66.3 283.8 64.8C284.5 64.3 283.8 63.1 283 63.6Z" fill="#411D16"/>
<path d="M285.501 62.3C289.901 57.5 296.201 54.6 302.701 54.4C305.901 54.3 309.301 54.8 312.001 56.6C314.501 58.4 316.201 61.8 314.901 64.8C314.601 65.6 315.701 66.3 316.101 65.5C317.101 63.2 316.801 60.6 315.501 58.4C314.101 56 311.701 54.5 309.201 53.8C303.801 52.1 297.601 53.2 292.501 55.5C289.501 56.9 286.801 58.9 284.601 61.3C283.901 62 284.901 63 285.501 62.3Z" fill="#411D16"/>
<path d="M313.8 91.2C313.4 91.3 312.9 91.5 312.7 91.9C312.6 92.1 312.6 92.4 312.7 92.6C312.9 92.9 313.2 92.9 313.4 92.9C318.6 92.8 323.8 92.6 328.9 92.5C329.1 92.5 329.2 92.2 329 92.1C328.2 91.4 327.3 90.8 326.3 90.4C322.6 88.6 317.8 90 313.8 91.2Z" fill="#411D16"/>
<path d="M301.5 91.2C301.9 91.3 302.4 91.5 302.6 91.9C302.7 92.1 302.7 92.4 302.6 92.6C302.4 92.9 302.1 92.9 301.9 92.9C296.7 92.8 291.5 92.6 286.4 92.5C286.2 92.5 286.1 92.2 286.3 92.1C287.1 91.4 288 90.8 289 90.4C292.7 88.6 297.5 90 301.5 91.2Z" fill="#411D16"/>
<path d="M303.401 93.2C306.201 96.6 307.601 99.2 306.701 103.5C306.501 104.5 306.201 105.6 305.701 106.5C305.301 107.3 304.601 108 304.401 108.8C304.101 109.7 304.801 110.8 305.201 111.6C305.701 112.8 305.901 113.2 306.401 114.4C306.801 115.3 308.001 114.5 307.701 113.7C307.201 112.5 307.001 112.1 306.501 110.9C306.301 110.4 305.801 109.6 306.001 109.1C306.201 108.7 306.501 108.3 306.801 107.9C307.901 106.1 308.401 104 308.601 101.9C308.901 97.7 307.301 95.4 304.701 92.2C303.801 91.4 302.801 92.5 303.401 93.2Z" fill="#FF725E"/>
<path d="M296.301 105.6C297.681 105.6 298.801 103.72 298.801 101.4C298.801 99.0804 297.681 97.2 296.301 97.2C294.92 97.2 293.801 99.0804 293.801 101.4C293.801 103.72 294.92 105.6 296.301 105.6Z" fill="#411D16"/>
<path d="M319 105.6C320.381 105.6 321.5 103.72 321.5 101.4C321.5 99.0804 320.381 97.2 319 97.2C317.619 97.2 316.5 99.0804 316.5 101.4C316.5 103.72 317.619 105.6 319 105.6Z" fill="#411D16"/>
<path d="M332.999 149L307.599 145.8L282.299 149L307.599 171.8L332.999 149Z" fill="#FAB8A3"/>
<path d="M373.899 177.5L373.699 175.5C373.099 168.8 369.699 162.6 364.299 158.5L360.099 155.4C356.799 153 352.999 151.4 348.999 150.9L332.999 148.9L307.599 171.7L282.299 149L266.299 151C262.299 151.5 258.399 153 255.199 155.5L250.999 158.6C245.599 162.6 242.199 168.8 241.599 175.6L241.399 177.6C241.199 180.7 241.499 183.7 242.399 186.6L262.199 248.9L263.499 287.7H306.699H308.399H351.599L352.899 248.9L372.699 186.6C373.799 183.7 374.099 180.6 373.899 177.5Z" fill="#92E3FF"/>
<path d="M351.5 287.8H316.2H299.1H263.8L258.5 308L257.9 339.6H299.1H316.2H357.4V308L351.5 287.8Z" fill="#411D16"/>
<path d="M278.5 149L253.6 150.2C253.3 150.2 253.1 150.2 252.8 150.1C246 149.8 240.1 155 239.1 161.7L231 219.4L235.3 234.5L270.9 232.6L278.5 149Z" fill="#92E3FF"/>
<path d="M336.801 149L361.701 150.2C362.001 150.2 362.201 150.2 362.501 150.1C369.301 149.8 375.201 155 376.201 161.7L384.301 219.4L380.001 234.5L344.401 232.6L336.801 149Z" fill="#92E3FF"/>
<path d="M322.6 144.6L307.8 158.7L292.9 144.6L277.9 148.8L299.9 179.7L307.6 171.8H307.9L315.6 179.7L337.6 148.8L322.6 144.6Z" fill="#92E3FF"/>
<path d="M310.399 176.8L316.999 167.2L307.899 160.4V159.9L307.599 160.2L307.399 159.9V160.4L298.199 167.2L304.899 176.8L298.199 244.8L307.899 257.5L316.999 244.8L310.399 176.8Z" fill="#005EB8"/>
<path d="M307.1 262.3C307.1 269.4 307.1 276.5 307.1 283.6C307.1 284.8 307.1 286 307.1 287.2C307.1 288 308.5 288 308.5 287.2C308.5 280.1 308.5 273 308.5 265.9C308.5 264.7 308.5 263.5 308.5 262.3C308.5 261.5 307.1 261.5 307.1 262.3Z" fill="#56D3F4"/>
<path d="M322.499 189.8C332.099 189.7 341.599 189.9 351.199 189.9C352.099 189.9 352.099 188.5 351.199 188.5C341.599 188.6 332.099 188.4 322.499 188.4C321.599 188.4 321.599 189.8 322.499 189.8Z" fill="#56D3F4"/>
<path d="M321.8 189.1C322.2 195.4 322.8 201.7 323.3 208C323.4 208.9 324.8 208.9 324.7 208C324.2 201.7 323.6 195.4 323.2 189.1C323.1 188.2 321.7 188.2 321.8 189.1Z" fill="#56D3F4"/>
<path d="M348.999 205.1C350.199 199.8 351.099 194.5 351.799 189.2C351.899 188.3 350.499 188.3 350.399 189.2C349.699 194.4 348.799 199.6 347.599 204.7C347.499 205.6 348.799 205.9 348.999 205.1Z" fill="#56D3F4"/>
<path d="M384.3 219.5C386 223 386.1 234.5 384.4 239.2C379.6 252.3 365.4 248.9 354.7 247.1C342.8 245.2 330.9 243.3 319 241.3C301.7 238.5 284.3 235.7 267 232.9L274.2 204.2L379.4 213.9C379.3 213.9 384.3 219.5 384.3 219.5Z" fill="#92E3FF"/>
<path d="M249.801 210C250.001 210.1 250.201 210.2 250.501 210.3C250.301 210.1 250.001 210 249.801 210Z" fill="#FAB8A3"/>
<path d="M274.401 214.2C274.701 213.4 275.001 212.7 275.401 212C275.401 211.6 275.501 211.2 275.701 210.8C274.801 207.7 273.401 204.8 271.301 202.5C266.701 197.5 259.501 195.8 252.901 194.5C252.001 194.3 251.101 195.1 250.901 196C250.801 196.9 251.201 197.8 251.801 198.5C252.401 199.2 253.301 199.6 254.101 200.1C253.201 199.7 252.101 199.2 251.201 199.2C250.201 199.2 249.201 199.6 248.801 200.5C248.501 201.3 248.801 202.3 249.301 202.9C249.901 203.6 250.601 204 251.401 204.4C250.701 204.1 249.901 203.9 249.101 203.8C248.301 203.7 247.401 204 246.901 204.6C246.001 205.6 246.301 207.3 247.101 208.3C247.801 209.1 248.801 209.7 249.901 210.1C250.101 210.1 250.401 210.2 250.601 210.4C250.401 210.3 250.201 210.2 249.901 210.1C249.201 210 248.401 210.4 248.201 211C247.801 211.8 248.101 212.8 248.601 213.5C249.201 214.2 250.001 214.7 250.701 215.1C252.501 216 254.301 216.8 256.201 217.5C256.401 217.9 256.601 218.3 256.901 218.8L268.601 223.3C270.701 221.6 272.701 219.7 274.701 217.8C274.101 216.4 274.001 215.2 274.401 214.2Z" fill="#FAB8A3"/>
<path d="M249.8 210.4C255.4 211.4 261 212.9 265.7 216.3C266.4 216.8 267.1 215.6 266.4 215.1C261.6 211.6 255.9 210 250.2 209C249.3 209 249 210.3 249.8 210.4Z" fill="#FF725E"/>
<path d="M250.501 205C257.101 205.6 263.401 208.3 268.401 212.7C269.101 213.3 270.001 212.3 269.401 211.7C264.201 207 257.601 204.1 250.601 203.6C249.601 203.5 249.601 204.9 250.501 205Z" fill="#FF725E"/>
<path d="M252.902 200.1C255.902 200.7 259.002 201.4 261.802 202.7C264.402 203.9 266.802 205.6 268.902 207.6C269.502 208.2 270.502 207.2 269.902 206.6C267.702 204.5 265.302 202.8 262.502 201.5C259.602 200.1 256.402 199.4 253.302 198.8C252.302 198.6 252.002 199.9 252.902 200.1Z" fill="#FF725E"/>
<path d="M332.401 221.7C337.501 222.6 343 221.5 347.3 218.7C349.7 217.2 351.701 215.1 354.201 213.6C356.601 212.1 359.6 211.2 362.3 212.1C361.5 208.1 358.3 205.2 354.3 204.1C350.4 203 346.201 203.5 342.201 204.5C338.201 205.5 334.401 206.8 330.401 207.5C329.501 211.9 330.801 217.3 332.401 221.7Z" fill="#FAB8A3"/>
<path d="M231 219.5V227C231 230.8 231.7 234.6 233 238.2C235.3 247.5 240 249.8 240 249.8C243 251.5 246.4 252 249.8 251.5L337.3 233.9L332.5 206.6L231 219.5Z" fill="#92E3FF"/>
<path d="M250.7 217.5C253.7 217.3 256.6 216.8 259.5 216.4C265.9 215.6 272.3 214.8 278.7 214C286.3 213 293.9 212.1 301.5 211.1C308.2 210.3 314.9 209.4 321.5 208.6C325 208.2 328.5 207.7 332 207.3C332.1 207.3 332.2 207.3 332.3 207.3C333.2 207.2 333.2 205.9 332.3 205.9C329.3 206.1 326.4 206.6 323.5 207C317.1 207.8 310.7 208.6 304.3 209.4C296.7 210.4 289.1 211.3 281.5 212.3C274.8 213.1 268.1 214 261.5 214.8C258 215.2 254.5 215.7 251 216.1C250.9 216.1 250.8 216.1 250.7 216.1C249.8 216.2 249.8 217.6 250.7 217.5Z" fill="#56D3F4"/>
<path d="M278.1 150.2C281.8 158.3 285.6 166.4 289.6 174.3C289.8 174.7 290.4 174.7 290.7 174.4C296.1 169.5 301.8 164.9 307.8 160.8C308.5 160.3 307.8 159.1 307.1 159.6C301 163.8 295.2 168.5 289.7 173.5C290.1 173.5 290.4 173.6 290.8 173.6C286.8 165.6 283 157.6 279.3 149.5C279 148.7 277.8 149.4 278.1 150.2Z" fill="#56D3F4"/>
<path d="M336.001 149.5C332.301 157.6 328.501 165.7 324.501 173.6C324.901 173.6 325.201 173.5 325.601 173.5C320.101 168.5 314.301 163.9 308.201 159.6C307.501 159.1 306.801 160.3 307.501 160.8C313.501 165 319.201 169.5 324.601 174.4C324.901 174.7 325.501 174.7 325.701 174.3C329.701 166.3 333.501 158.3 337.201 150.2C337.501 149.4 336.301 148.7 336.001 149.5Z" fill="#56D3F4"/>
<path d="M278.599 203.4C289.499 205.7 300.499 207.2 311.499 208.9C312.599 209.1 313.799 209.2 314.899 209.4C315.799 209.5 316.099 208.2 315.299 208.1C305.999 206.7 296.699 205.3 287.499 203.7C284.699 203.2 281.799 202.7 278.999 202.1C278.099 201.9 277.699 203.2 278.599 203.4Z" fill="#56D3F4"/>
<path d="M277.7 202.6C276.4 206.2 276.2 210.2 274.9 213.8C274.6 214.6 275.9 215 276.2 214.2C277.5 210.6 277.7 206.6 279 203C279.4 202.1 278 201.8 277.7 202.6Z" fill="#56D3F4"/>
<path d="M262.5 249.2C274.4 247.4 286.3 245.1 298.1 242.8C309.2 240.6 320.2 238.4 331.3 236C332.9 235.7 334.4 235.3 336 234.9C336.6 234.7 337.9 234.6 338 233.8C338.1 232.9 336.7 232.9 336.6 233.8C336.6 233.2 337.4 233.1 336.6 233.3C336.2 233.4 335.8 233.5 335.4 233.6C334 233.9 332.7 234.2 331.3 234.5C326.7 235.5 322.1 236.5 317.5 237.4C305.1 239.9 292.7 242.4 280.2 244.7C274.2 245.8 268.2 246.9 262.2 247.8C261.3 248 261.6 249.4 262.5 249.2Z" fill="#56D3F4"/>
<path d="M311.399 240.4C316.199 241.2 320.999 242 325.799 242.9C332.599 244.1 339.399 245.2 346.299 246.4C347.799 246.7 349.399 246.9 350.899 247.2C351.799 247.3 352.099 246 351.299 245.9C347.099 245.2 342.799 244.4 338.599 243.7C331.599 242.5 324.599 241.3 317.699 240.1C315.799 239.8 313.799 239.4 311.899 239.1C310.899 238.9 310.599 240.2 311.399 240.4Z" fill="#56D3F4"/>
<path d="M363.2 213C367.4 212.9 371.4 213.5 375.4 214.7C376.3 215 376.6 213.6 375.8 213.4C371.7 212.1 367.5 211.5 363.2 211.6C362.3 211.6 362.3 213 363.2 213Z" fill="#56D3F4"/>
<path d="M235.4 216.4C239.3 214.9 243.4 214.7 247.4 216C248.2 216.3 248.6 214.9 247.8 214.7C243.6 213.4 239.2 213.5 235.1 215.1C234.2 215.4 234.6 216.8 235.4 216.4Z" fill="#56D3F4"/>
<path d="M350.199 208.4C353.299 207.8 356.399 208.2 359.199 209.4C359.999 209.7 360.399 208.4 359.599 208.1C356.499 206.8 353.099 206.5 349.799 207.1C348.999 207.2 349.399 208.5 350.199 208.4Z" fill="#FF725E"/>
<path d="M332 206.7C333.2 214.7 334.7 222.7 336 230.7C336.2 231.8 336.4 232.9 336.6 234C336.7 234.9 338.1 234.5 337.9 233.6C336.6 225.8 335.3 217.9 334 210.1C333.8 208.8 333.6 207.6 333.4 206.3C333.2 205.5 331.9 205.9 332 206.7Z" fill="#56D3F4"/>
<path d="M247.6 158.9C251.8 166.2 254.3 174.2 256.8 182.2C257.1 183 258.4 182.7 258.1 181.8C255.6 173.7 253 165.5 248.8 158.1C248.3 157.4 247.1 158.1 247.6 158.9Z" fill="#56D3F4"/>
<path d="M371.401 159.6C366.301 167.1 362.301 175.4 359.501 184C359.201 184.8 360.601 185.2 360.801 184.4C363.501 175.8 367.501 167.7 372.501 160.3C373.101 159.6 371.901 158.9 371.401 159.6Z" fill="#56D3F4"/>
<path d="M336.199 95.9L333.499 91.2C333.499 91.2 333.899 98.5 333.099 105.8C330.799 121.9 325.499 120.6 323.599 119C321.699 117.4 314.899 112.1 307.799 112.1C300.699 112.1 293.999 117.4 291.999 119C290.099 120.6 284.799 121.9 282.499 105.8C281.699 98.6 282.399 92 282.399 92L279.399 96C279.399 96 278.899 117.9 286.599 126.1C294.299 134.3 298.199 138.5 307.699 138.5C317.199 138.5 321.099 134.3 328.799 126.1C336.499 117.9 336.199 95.9 336.199 95.9ZM318.699 128.5C313.299 126.7 307.799 126.7 307.799 126.7C307.799 126.7 302.299 126.7 296.899 128.5C294.199 129.4 291.999 126.3 293.599 124C296.999 119.1 301.799 117.1 307.799 117.1C313.799 117.1 318.599 119.1 321.999 124C323.599 126.3 321.399 129.4 318.699 128.5Z" fill="#411D16"/>
<path d="M301.1 121.2C301.1 121.2 309.3 124.3 313.7 121.2" stroke="#F15D49" stroke-width="1.7" stroke-miterlimit="10" stroke-linecap="round" stroke-linejoin="round"/>
<path d="M164.999 127.2C164.899 127.2 164.699 127.1 164.699 127C162.099 121.4 161.499 115.1 163.099 109.2C164.599 103.3 168.199 98 173.099 94.4C173.299 94.3 173.499 94.3 173.599 94.5C173.699 94.7 173.699 94.9 173.499 95C168.699 98.5 165.199 103.7 163.699 109.5C162.199 115.3 162.799 121.5 165.299 126.9C165.399 127.1 165.299 127.3 165.099 127.4C165.099 127.2 165.099 127.2 164.999 127.2Z" fill="#5B3736"/>
<path d="M169.9 123.8C169.7 123.8 169.6 123.7 169.6 123.5C169.6 123.3 169.7 123.2 169.9 123.2C171.7 123.2 173.7 122.8 175.9 122C178.5 121.1 180.5 120.1 182.3 118.8C184.3 117.3 185.8 115.4 186.7 113.3C186.8 113.1 187 113 187.1 113.1C187.3 113.2 187.4 113.4 187.3 113.5C186.4 115.7 184.8 117.7 182.7 119.3C180.9 120.6 178.8 121.7 176.1 122.6C173.8 123.3 171.7 123.7 169.9 123.8Z" fill="#5B3736"/>
<path d="M516.736 244.78L516.723 256.012L513.987 256.009L513.992 251.385L509.736 251.38L509.731 256.004L506.995 256.001L507.008 244.769L509.744 244.772L509.738 249.172L513.994 249.177L514 244.777L516.736 244.78ZM519.978 256.144C519.498 256.144 519.103 256.005 518.794 255.727C518.496 255.438 518.347 255.086 518.347 254.67C518.348 254.244 518.497 253.886 518.796 253.599C519.106 253.311 519.501 253.168 519.981 253.168C520.45 253.169 520.834 253.313 521.132 253.602C521.441 253.89 521.596 254.247 521.595 254.674C521.595 255.09 521.44 255.442 521.13 255.73C520.831 256.007 520.447 256.145 519.978 256.144Z" fill="#0109C4"/>
<path d="M195.091 236.93L193.828 248.091L191.11 247.783L191.629 243.189L187.4 242.71L186.881 247.305L184.162 246.997L185.424 235.837L188.143 236.144L187.649 240.516L191.878 240.995L192.372 236.622L195.091 236.93ZM197.049 248.584C196.572 248.53 196.195 248.348 195.919 248.037C195.654 247.718 195.546 247.351 195.592 246.938C195.64 246.514 195.829 246.175 196.158 245.923C196.498 245.671 196.906 245.573 197.383 245.627C197.849 245.679 198.215 245.866 198.479 246.185C198.754 246.506 198.868 246.879 198.82 247.303C198.773 247.716 198.58 248.048 198.24 248.3C197.912 248.542 197.515 248.636 197.049 248.584Z" fill="#0109C4"/>
<defs>
<radialGradient id="paint0_radial_406_9340" cx="0" cy="0" r="1" gradientUnits="userSpaceOnUse" gradientTransform="translate(303.499 341.251) rotate(0.308434) scale(303.08 51.7318)">
<stop stop-color="#002C69" stop-opacity="0.5"/>
<stop offset="0.2683" stop-color="#002E6C" stop-opacity="0.3659"/>
<stop offset="0.4793" stop-color="#003476" stop-opacity="0.2604"/>
<stop offset="0.6707" stop-color="#003F87" stop-opacity="0.1647"/>
<stop offset="0.8495" stop-color="#004E9E" stop-opacity="0.0752451"/>
<stop offset="1" stop-color="#005EB8" stop-opacity="0"/>
</radialGradient>
</defs>
</svg>
