<svg width="43" height="55" viewBox="0 0 43 55" fill="none" xmlns="http://www.w3.org/2000/svg">
<path d="M21.7744 19.525C19.5744 19.36 17.5394 20.79 16.8794 22.935C16.2194 25.08 17.0994 27.39 19.0244 28.49C19.7394 28.875 20.0694 29.26 19.8494 29.92C19.8494 30.305 19.8494 30.58 19.8494 30.8C19.8494 31.68 20.5644 32.395 21.4444 32.395C22.3244 32.395 23.0394 31.68 23.0394 30.8C23.0394 30.36 23.0394 29.92 23.0394 29.48C22.9844 29.15 23.2044 28.875 23.4794 28.765C25.9544 27.61 26.9994 24.75 25.8994 22.33C25.1294 20.735 23.5344 19.635 21.7744 19.525ZM23.0944 24.365C23.0944 25.245 22.3794 25.96 21.4994 25.96C20.6194 25.96 19.9044 25.245 19.9044 24.365C19.9044 23.485 20.6194 22.77 21.4994 22.77C22.3794 22.77 23.0944 23.485 23.0944 24.365Z" fill="url(#paint0_linear_406_10169)"/>
<path d="M42.4549 5.22505C42.4549 3.74005 41.9049 3.13505 40.4199 3.19005C37.3399 3.19005 34.2049 2.97005 31.1799 2.47505C28.2099 1.98005 25.2399 1.21005 22.4349 0.220054C21.8849 5.37112e-05 21.2249 5.37112e-05 20.6749 0.220054C14.7349 2.14505 8.51992 3.19005 2.24992 3.19005C1.14992 3.19005 0.544922 3.90505 0.544922 5.00505C0.544922 13.1451 0.544922 21.2851 0.544922 29.4801C0.544922 30.8001 0.654922 32.0651 0.929922 33.3851C1.80992 37.8401 3.95492 41.5801 6.92492 44.9351C10.4449 49.0051 14.8449 52.1951 19.7399 54.3951C20.1799 54.5051 20.5649 54.7251 20.9499 55.0001H21.9399C21.9399 54.8901 22.0499 54.8901 22.1049 54.8901C28.7599 52.2501 34.4799 47.6851 38.5499 41.7451C39.3199 40.5901 39.9799 39.3801 40.5299 38.1151C41.7399 35.5851 42.3999 32.8351 42.4549 30.0301C42.5099 21.7251 42.4549 13.4751 42.4549 5.22505ZM39.2649 7.15005C39.2649 14.2451 39.1549 21.2851 39.2649 28.3801C39.3749 33.0551 37.8349 37.6201 34.9199 41.3051C31.4549 45.7601 26.9999 49.2801 21.8299 51.4801C21.6099 51.5901 21.3349 51.5901 21.1149 51.4251C17.2099 49.7201 13.6899 47.2451 10.6649 44.2201C8.46492 42.0751 6.70492 39.5451 5.43992 36.7951C4.39492 34.5951 3.84492 32.2301 3.78992 29.8101C3.78992 22.1101 3.78992 14.4101 3.78992 6.71005C3.78992 6.60005 3.78992 6.54505 3.78992 6.38005L6.86992 6.16005C11.6549 5.83005 16.3849 4.89505 20.9499 3.41005C21.2249 3.30005 21.5549 3.30005 21.8849 3.35505C27.3849 5.22505 33.1049 6.27005 38.9349 6.38005C39.0449 6.38005 39.0999 6.38005 39.2649 6.38005V7.15005Z" fill="url(#paint1_linear_406_10169)"/>
<path d="M34.1493 9.35002C30.0793 8.96502 26.1193 8.14002 22.2143 6.93002C21.7193 6.76502 21.1693 6.76502 20.6743 6.93002C16.7693 8.08502 12.8093 8.91002 8.7393 9.35002C7.4193 9.51502 6.9243 10.01 6.9243 11.385C6.9243 17.215 6.9793 23.1 6.9243 28.985C6.8693 32.12 7.7493 35.145 9.4543 37.785C12.2593 42.24 16.1643 45.43 20.7293 47.85C21.2243 48.125 21.8293 48.07 22.3243 47.795C25.7343 45.98 28.7593 43.615 31.2893 40.7C32.6093 39.215 33.7093 37.51 34.5343 35.695C35.4693 33.715 35.9643 31.57 35.9643 29.37V20.68V11.44C36.0193 10.01 35.5243 9.46002 34.1493 9.35002ZM32.7743 13.09C32.7743 18.26 32.7193 23.43 32.7743 28.6C32.8293 31.405 32.0043 34.155 30.4093 36.465C28.1543 39.71 25.1843 42.35 21.7193 44.275C21.5543 44.385 21.3893 44.385 21.2243 44.275C17.3193 41.965 13.9643 39.105 11.7093 35.09C10.6643 33.22 10.1143 31.185 10.1693 29.04C10.1693 23.705 10.1693 18.315 10.1693 12.98V12.375L13.3593 11.88C15.9443 11.44 18.4743 10.89 20.9493 10.175C21.2793 10.065 21.6093 10.065 21.8843 10.175C24.7443 11.055 27.7143 11.715 30.6843 12.21C31.3443 12.32 32.0043 12.375 32.6643 12.43C32.7743 12.65 32.7743 12.87 32.7743 13.09Z" fill="url(#paint2_linear_406_10169)"/>
<defs>
<linearGradient id="paint0_linear_406_10169" x1="21.4948" y1="54.175" x2="21.4948" y2="-0.84974" gradientUnits="userSpaceOnUse">
<stop stop-color="#0109C4"/>
<stop offset="1" stop-color="#FFD545"/>
</linearGradient>
<linearGradient id="paint1_linear_406_10169" x1="21.5097" y1="54.1751" x2="21.5097" y2="-0.81664" gradientUnits="userSpaceOnUse">
<stop stop-color="#0109C4"/>
<stop offset="1" stop-color="#FFD545"/>
</linearGradient>
<linearGradient id="paint2_linear_406_10169" x1="21.4986" y1="54.175" x2="21.4986" y2="-0.849726" gradientUnits="userSpaceOnUse">
<stop stop-color="#0109C4"/>
<stop offset="1" stop-color="#FFD545"/>
</linearGradient>
</defs>
</svg>
