<svg width="25" height="36" viewBox="0 0 25 36" fill="none" xmlns="http://www.w3.org/2000/svg">
<path d="M20.7977 1.39697H12.3751H3.9525C3.9525 3.37824 2.68243 4.94676 1.07812 4.94676V15.5135C1.07812 28.5568 12.442 34.3355 12.442 34.3355C12.442 34.3355 23.8058 28.5568 23.8058 15.5135V4.94676C22.1347 4.94676 20.7977 3.29569 20.7977 1.39697Z" stroke="white" stroke-width="2" stroke-linecap="round" stroke-linejoin="round"/>
<path d="M12.3755 30.7034C9.90224 29.0523 3.68555 24.0992 3.68555 15.5137V7.34096C4.62139 6.68053 5.42358 5.77244 5.8915 4.6167H18.7928C19.3276 5.77244 20.0629 6.68053 20.9987 7.34096V15.5137C21.0656 24.0992 14.8489 29.0523 12.3755 30.7034Z" stroke="white" stroke-width="2" stroke-linecap="round" stroke-linejoin="round"/>
<path d="M12.3753 16.9171C13.2245 16.9171 13.9128 16.067 13.9128 15.0183C13.9128 13.9697 13.2245 13.1196 12.3753 13.1196C11.5262 13.1196 10.8379 13.9697 10.8379 15.0183C10.8379 16.067 11.5262 16.9171 12.3753 16.9171Z" stroke="white" stroke-width="2" stroke-linecap="round" stroke-linejoin="round"/>
<path d="M12.375 16.8345V19.7238" stroke="white" stroke-width="2" stroke-linecap="round" stroke-linejoin="round"/>
</svg>
