<svg width="28" height="36" viewBox="0 0 28 36" fill="none" xmlns="http://www.w3.org/2000/svg">
<path d="M21.3713 19.2283V16.5866L19.9007 16.0913C19.767 15.4309 19.5664 14.7704 19.2322 14.1926L19.9675 12.5415L18.4301 10.6428L17.0931 11.5509C16.6252 11.2207 16.0904 10.973 15.5557 10.7254L15.1546 8.90918H13.0155L12.6144 10.7254C12.0797 10.8905 11.5449 11.1381 11.077 11.5509L9.74007 10.6428L8.2026 12.5415L8.9379 14.1926C8.67052 14.7704 8.46998 15.4309 8.26944 16.0913L6.79883 16.5866V19.2283L8.26944 19.7236C8.40313 20.384 8.60367 21.0444 8.9379 21.6223L8.2026 23.2734L9.74007 25.1721L11.077 24.264C11.5449 24.5942 12.0797 24.8419 12.6144 25.0895L13.0155 26.9057H15.1546L15.5557 25.0895C16.0904 24.9244 16.6252 24.6768 17.0931 24.264L18.4301 25.1721L19.9675 23.2734L19.2322 21.6223C19.4996 21.0444 19.7001 20.384 19.9007 19.7236L21.3713 19.2283ZM14.0851 21.3746C12.4808 21.3746 11.2107 19.8061 11.2107 17.8249C11.2107 15.8436 12.4808 14.2751 14.0851 14.2751C15.6894 14.2751 16.9594 15.8436 16.9594 17.8249C16.9594 19.8061 15.6894 21.3746 14.0851 21.3746Z" stroke="white" stroke-width="2" stroke-linecap="round" stroke-linejoin="round"/>
<path d="M26.652 20.962C27.7216 14.3578 25.3151 7.50589 20.3017 4.03867C15.2882 0.571457 9.27205 1.72718 5.32812 6.26758" stroke="white" stroke-width="2" stroke-linecap="round" stroke-linejoin="round"/>
<path d="M1.45125 14.7705C0.381709 21.3747 2.78817 28.2266 7.80163 31.6938C12.8151 35.161 18.8313 34.0053 22.7752 29.4649" stroke="white" stroke-width="2" stroke-linecap="round" stroke-linejoin="round"/>
<path d="M9.33889 7.01058L5.32812 6.26758L5.92974 1.39697" stroke="white" stroke-width="2" stroke-linecap="round" stroke-linejoin="round"/>
<path d="M18.832 28.7222L22.8428 29.4651L22.2412 34.4183" stroke="white" stroke-width="2" stroke-linecap="round" stroke-linejoin="round"/>
</svg>
