<svg width="100" height="100" viewBox="0 0 100 100" fill="none" xmlns="http://www.w3.org/2000/svg">
<g clip-path="url(#clip0_406_5886)">
<path d="M40.1806 43H31.0006C30.869 42.9992 30.7385 43.0245 30.6167 43.0742C30.4949 43.124 30.3841 43.1973 30.2906 43.29L26.5906 47H25.8206C25.5847 46.3328 25.1205 45.7704 24.5101 45.4124C23.8997 45.0543 23.1824 44.9235 22.4849 45.0432C21.7874 45.1629 21.1547 45.5253 20.6985 46.0663C20.2424 46.6074 19.9922 47.2923 19.9922 48C19.9922 48.7077 20.2424 49.3926 20.6985 49.9337C21.1547 50.4747 21.7874 50.8371 22.4849 50.9568C23.1824 51.0765 23.8997 50.9457 24.5101 50.5876C25.1205 50.2296 25.5847 49.6672 25.8206 49H27.0006C27.2654 48.9963 27.519 48.8927 27.7106 48.71L31.4106 45H40.1806C40.3869 45.5835 40.7687 46.089 41.2735 46.4471C41.7784 46.8051 42.3817 46.9983 43.0006 47C43.7392 47.0078 44.4536 46.7364 45.0006 46.24L49.0806 48.51C49.0386 48.6704 49.0118 48.8345 49.0006 49C49.0006 49.7956 49.3167 50.5587 49.8793 51.1213C50.4419 51.6839 51.205 52 52.0006 52C52.7963 52 53.5593 51.6839 54.1219 51.1213C54.6845 50.5587 55.0006 49.7956 55.0006 49C55.0159 48.837 55.0159 48.673 55.0006 48.51L59.0006 46.24C59.5512 46.7305 60.2632 47.0011 61.0006 47C61.7042 46.9945 62.3834 46.742 62.9196 46.2865C63.4558 45.831 63.8149 45.2015 63.934 44.5081C64.0532 43.8147 63.9248 43.1015 63.5714 42.4931C63.218 41.8848 62.662 41.42 62.0006 41.18V36.81C62.4223 36.6652 62.8065 36.4283 63.1251 36.1164C63.4438 35.8045 63.6889 35.4255 63.8427 35.007C63.9964 34.5885 64.0549 34.1409 64.014 33.6969C63.973 33.2529 63.8336 32.8236 63.6059 32.4403C63.3781 32.057 63.0678 31.7292 62.6975 31.4809C62.3272 31.2325 61.9062 31.0699 61.4651 31.0047C61.024 30.9395 60.5739 30.9735 60.1476 31.1042C59.7213 31.2348 59.3295 31.4589 59.0006 31.76L55.0006 29.49C55.0159 29.327 55.0159 29.163 55.0006 29C55.0006 28.2044 54.6845 27.4413 54.1219 26.8787C53.5593 26.3161 52.7963 26 52.0006 26C51.205 26 50.4419 26.3161 49.8793 26.8787C49.3167 27.4413 49.0006 28.2044 49.0006 29C48.9854 29.163 48.9854 29.327 49.0006 29.49L45.0006 31.76C44.4536 31.2636 43.7392 30.9922 43.0006 31C42.3817 31.0017 41.7784 31.1949 41.2735 31.5529C40.7687 31.911 40.3869 32.4165 40.1806 33H31.4106L27.7106 29.29C27.6172 29.1973 27.5064 29.124 27.3845 29.0742C27.2627 29.0245 27.1322 28.9992 27.0006 29H25.8206C25.5847 28.3328 25.1205 27.7704 24.5101 27.4124C23.8997 27.0543 23.1824 26.9235 22.4849 27.0432C21.7874 27.1629 21.1547 27.5253 20.6985 28.0663C20.2424 28.6074 19.9922 29.2923 19.9922 30C19.9922 30.7077 20.2424 31.3926 20.6985 31.9337C21.1547 32.4747 21.7874 32.8371 22.4849 32.9568C23.1824 33.0765 23.8997 32.9457 24.5101 32.5876C25.1205 32.2296 25.5847 31.6672 25.8206 31H26.5906L30.2906 34.71C30.3841 34.8027 30.4949 34.876 30.6167 34.9258C30.7385 34.9755 30.869 35.0008 31.0006 35H40.1806C40.3299 35.4194 40.5707 35.8003 40.8855 36.1151C41.2003 36.4299 41.5812 36.6707 42.0006 36.82V38H25.8206C25.5847 37.3328 25.1205 36.7704 24.5101 36.4124C23.8997 36.0543 23.1824 35.9235 22.4849 36.0432C21.7874 36.1629 21.1547 36.5253 20.6985 37.0663C20.2424 37.6074 19.9922 38.2923 19.9922 39C19.9922 39.7077 20.2424 40.3926 20.6985 40.9337C21.1547 41.4747 21.7874 41.8371 22.4849 41.9568C23.1824 42.0765 23.8997 41.9457 24.5101 41.5876C25.1205 41.2296 25.5847 40.6672 25.8206 40H42.0006V41.18C41.5812 41.3293 41.2003 41.5701 40.8855 41.8849C40.5707 42.1997 40.3299 42.5806 40.1806 43ZM23.0006 49C22.8028 49 22.6095 48.9414 22.445 48.8315C22.2806 48.7216 22.1524 48.5654 22.0767 48.3827C22.001 48.2 21.9812 47.9989 22.0198 47.8049C22.0584 47.6109 22.1537 47.4327 22.2935 47.2929C22.4334 47.153 22.6115 47.0578 22.8055 47.0192C22.9995 46.9806 23.2006 47.0004 23.3833 47.0761C23.566 47.1518 23.7222 47.28 23.8321 47.4444C23.942 47.6089 24.0006 47.8022 24.0006 48C24.0006 48.2652 23.8953 48.5196 23.7077 48.7071C23.5202 48.8946 23.2658 49 23.0006 49ZM23.0006 31C22.8028 31 22.6095 30.9414 22.445 30.8315C22.2806 30.7216 22.1524 30.5654 22.0767 30.3827C22.001 30.2 21.9812 29.9989 22.0198 29.8049C22.0584 29.6109 22.1537 29.4327 22.2935 29.2929C22.4334 29.153 22.6115 29.0578 22.8055 29.0192C22.9995 28.9806 23.2006 29.0004 23.3833 29.0761C23.566 29.1518 23.7222 29.28 23.8321 29.4444C23.942 29.6089 24.0006 29.8022 24.0006 30C24.0006 30.2652 23.8953 30.5196 23.7077 30.7071C23.5202 30.8946 23.2658 31 23.0006 31ZM23.0006 40C22.8028 40 22.6095 39.9414 22.445 39.8315C22.2806 39.7216 22.1524 39.5654 22.0767 39.3827C22.001 39.2 21.9812 38.9989 22.0198 38.8049C22.0584 38.6109 22.1537 38.4327 22.2935 38.2929C22.4334 38.153 22.6115 38.0578 22.8055 38.0192C22.9995 37.9806 23.2006 38.0004 23.3833 38.0761C23.566 38.1518 23.7222 38.28 23.8321 38.4444C23.942 38.6089 24.0006 38.8022 24.0006 39C24.0006 39.2652 23.8953 39.5196 23.7077 39.7071C23.5202 39.8946 23.2658 40 23.0006 40ZM43.0006 45C42.8028 45 42.6095 44.9414 42.445 44.8315C42.2806 44.7216 42.1524 44.5654 42.0767 44.3827C42.001 44.2 41.9812 43.9989 42.0198 43.8049C42.0584 43.6109 42.1537 43.4327 42.2935 43.2929C42.4334 43.153 42.6115 43.0578 42.8055 43.0192C42.9995 42.9806 43.2006 43.0004 43.3833 43.0761C43.566 43.1518 43.7222 43.28 43.8321 43.4444C43.942 43.6089 44.0006 43.8022 44.0006 44C44.0006 44.2652 43.8953 44.5196 43.7077 44.7071C43.5202 44.8946 43.2658 45 43.0006 45ZM45.0006 36.24L49.0806 38.51C49.0113 38.8397 49.0113 39.1803 49.0806 39.51L45.0006 41.76C44.708 41.5037 44.3684 41.3067 44.0006 41.18V36.81C44.3699 36.6916 44.7105 36.4974 45.0006 36.24ZM59.0006 41.76L55.0006 39.49C55.0699 39.1603 55.0699 38.8197 55.0006 38.49L59.0006 36.24C59.2952 36.4936 59.6343 36.6902 60.0006 36.82V41.18C59.6343 41.3098 59.2952 41.5064 59.0006 41.76ZM46.0006 43.51L50.0006 41.24C50.2952 41.4936 50.6343 41.6902 51.0006 41.82V46.18C50.6343 46.3098 50.2952 46.5064 50.0006 46.76L46.0006 44.49C46.0699 44.1603 46.0699 43.8197 46.0006 43.49V43.51ZM52.0006 38C52.1984 38 52.3917 38.0586 52.5562 38.1685C52.7206 38.2784 52.8488 38.4346 52.9245 38.6173C53.0002 38.8 53.02 39.0011 52.9814 39.1951C52.9428 39.3891 52.8476 39.5673 52.7077 39.7071C52.5679 39.847 52.3897 39.9422 52.1957 39.9808C52.0017 40.0194 51.8007 39.9996 51.6179 39.9239C51.4352 39.8482 51.279 39.72 51.1691 39.5556C51.0593 39.3911 51.0006 39.1978 51.0006 39C51.0006 38.7348 51.106 38.4804 51.2935 38.2929C51.481 38.1054 51.7354 38 52.0006 38ZM53.0006 41.82C53.3684 41.6933 53.708 41.4963 54.0006 41.24L58.0806 43.51C58.0113 43.8397 58.0113 44.1803 58.0806 44.51L54.0006 46.76C53.708 46.5037 53.3684 46.3067 53.0006 46.18V41.82ZM58.0006 34.49L54.0006 36.76C53.708 36.5037 53.3684 36.3067 53.0006 36.18V31.81C53.3676 31.6863 53.7072 31.4928 54.0006 31.24L58.0806 33.51C58.0113 33.8397 58.0113 34.1803 58.0806 34.51L58.0006 34.49ZM51.0006 36.18C50.6343 36.3098 50.2952 36.5064 50.0006 36.76L46.0006 34.49C46.0699 34.1603 46.0699 33.8197 46.0006 33.49L50.0006 31.24C50.2952 31.4936 50.6343 31.6902 51.0006 31.82V36.18ZM52.0006 50C51.8028 50 51.6095 49.9414 51.445 49.8315C51.2806 49.7216 51.1524 49.5654 51.0767 49.3827C51.001 49.2 50.9812 48.9989 51.0198 48.8049C51.0584 48.6109 51.1537 48.4327 51.2935 48.2929C51.4334 48.153 51.6115 48.0578 51.8055 48.0192C51.9995 47.9806 52.2006 48.0004 52.3833 48.0761C52.566 48.1518 52.7222 48.28 52.8321 48.4444C52.942 48.6089 53.0006 48.8022 53.0006 49C53.0006 49.2652 52.8953 49.5196 52.7077 49.7071C52.5202 49.8946 52.2658 50 52.0006 50ZM61.0006 45C60.8028 45 60.6095 44.9414 60.445 44.8315C60.2806 44.7216 60.1524 44.5654 60.0767 44.3827C60.001 44.2 59.9812 43.9989 60.0198 43.8049C60.0584 43.6109 60.1537 43.4327 60.2935 43.2929C60.4334 43.153 60.6115 43.0578 60.8055 43.0192C60.9995 42.9806 61.2006 43.0004 61.3833 43.0761C61.566 43.1518 61.7222 43.28 61.8321 43.4444C61.942 43.6089 62.0006 43.8022 62.0006 44C62.0006 44.2652 61.8953 44.5196 61.7077 44.7071C61.5202 44.8946 61.2658 45 61.0006 45ZM61.0006 33C61.1984 33 61.3917 33.0586 61.5562 33.1685C61.7206 33.2784 61.8488 33.4346 61.9245 33.6173C62.0002 33.8 62.02 34.0011 61.9814 34.1951C61.9428 34.3891 61.8476 34.5673 61.7077 34.7071C61.5679 34.847 61.3897 34.9422 61.1957 34.9808C61.0017 35.0194 60.8007 34.9996 60.6179 34.9239C60.4352 34.8482 60.279 34.72 60.1691 34.5556C60.0593 34.3911 60.0006 34.1978 60.0006 34C60.0006 33.7348 60.106 33.4804 60.2935 33.2929C60.481 33.1054 60.7354 33 61.0006 33ZM52.0006 28C52.1984 28 52.3917 28.0586 52.5562 28.1685C52.7206 28.2784 52.8488 28.4346 52.9245 28.6173C53.0002 28.8 53.02 29.0011 52.9814 29.1951C52.9428 29.3891 52.8476 29.5673 52.7077 29.7071C52.5679 29.847 52.3897 29.9422 52.1957 29.9808C52.0017 30.0194 51.8007 29.9996 51.6179 29.9239C51.4352 29.8482 51.279 29.72 51.1691 29.5556C51.0593 29.3911 51.0006 29.1978 51.0006 29C51.0006 28.7348 51.106 28.4804 51.2935 28.2929C51.481 28.1054 51.7354 28 52.0006 28ZM43.0006 33C43.1984 33 43.3917 33.0586 43.5562 33.1685C43.7206 33.2784 43.8488 33.4346 43.9245 33.6173C44.0002 33.8 44.02 34.0011 43.9814 34.1951C43.9428 34.3891 43.8476 34.5673 43.7077 34.7071C43.5679 34.847 43.3897 34.9422 43.1957 34.9808C43.0017 35.0194 42.8007 34.9996 42.6179 34.9239C42.4352 34.8482 42.279 34.72 42.1691 34.5556C42.0593 34.3911 42.0006 34.1978 42.0006 34C42.0006 33.7348 42.106 33.4804 42.2935 33.2929C42.481 33.1054 42.7354 33 43.0006 33Z" fill="#0109C4"/>
<path d="M41.0007 79.9999H57.0007C57.2659 79.9999 57.5203 79.8946 57.7078 79.707C57.8954 79.5195 58.0007 79.2651 58.0007 78.9999V71.9999H71.0007C71.2659 71.9999 71.5203 71.8946 71.7078 71.707C71.8954 71.5195 72.0007 71.2651 72.0007 70.9999V58.9999H79.0007C79.1585 59.0003 79.3141 58.9634 79.4549 58.8921C79.5957 58.8209 79.7176 58.7173 79.8107 58.5899C79.9105 58.4672 79.9798 58.3225 80.0128 58.1678C80.0459 58.0131 80.0417 57.8527 80.0007 57.6999L75.0007 41.6999C74.9007 38.6956 74.1995 35.7417 72.9384 33.013C71.6773 30.2843 69.882 27.8361 67.6585 25.8131C65.4351 23.7901 62.8286 22.2333 59.9933 21.2349C57.1579 20.2364 54.1511 19.8165 51.1507 19.9999C47.7816 20.2213 44.505 21.196 41.5628 22.8524C38.6205 24.5087 36.0876 26.8043 34.1507 29.5699C34.0764 29.6804 34.0249 29.8047 33.9992 29.9353C33.9735 30.066 33.9742 30.2005 34.0012 30.3309C34.0282 30.4613 34.081 30.585 34.1565 30.6948C34.232 30.8045 34.3286 30.898 34.4407 30.9699C34.6604 31.1115 34.9267 31.1615 35.1828 31.1092C35.4388 31.0569 35.6642 30.9064 35.8107 30.6899C38.2883 27.1567 41.8201 24.4978 45.9007 23.0938C49.9812 21.6898 54.4013 21.6126 58.5284 22.8732C62.6555 24.1339 66.278 26.6678 68.8775 30.1123C71.477 33.5568 72.9203 37.7353 73.0007 42.0499C73.0022 42.2198 73.0506 42.3859 73.1407 42.5299L77.6407 56.9999H71.0007C70.7355 56.9999 70.4811 57.1053 70.2936 57.2928C70.1061 57.4804 70.0007 57.7347 70.0007 57.9999V61.9999H67.0007C66.3447 61.9996 65.7069 61.7843 65.185 61.387C64.663 60.9896 64.2856 60.4322 64.1107 59.7999C64.064 59.5706 63.9383 59.365 63.7556 59.2189C63.5729 59.0727 63.3447 58.9952 63.1107 58.9999C62.9554 58.995 62.8011 59.0263 62.6601 59.0913C62.519 59.1564 62.395 59.2534 62.298 59.3747C62.2009 59.496 62.1335 59.6383 62.101 59.7902C62.0685 59.9421 62.0718 60.0995 62.1107 60.2499C62.3899 61.3313 63.0231 62.2882 63.9093 62.9678C64.7956 63.6474 65.8839 64.0108 67.0007 63.9999H70.0007V69.9999H57.0007C56.7355 69.9999 56.4811 70.1053 56.2936 70.2928C56.1061 70.4804 56.0007 70.7347 56.0007 70.9999V77.9999H42.0007V76.9999C41.9007 68.5362 39.4794 60.2623 35.0007 53.0799C34.1595 51.6885 33.488 50.2012 33.0007 48.6499C32.961 48.5243 32.8968 48.4078 32.8118 48.3071C32.7269 48.2064 32.6229 48.1234 32.5058 48.063C32.3887 48.0026 32.2609 47.966 32.1296 47.9551C31.9983 47.9443 31.8661 47.9595 31.7407 47.9999C31.6092 48.0302 31.4852 48.0867 31.3762 48.1661C31.2671 48.2455 31.1753 48.3462 31.1061 48.462C31.037 48.5779 30.992 48.7065 30.9739 48.8402C30.9558 48.9739 30.9649 49.1099 31.0007 49.2399C31.5435 50.9605 32.2923 52.6091 33.2307 54.1499C37.5341 61.0044 39.8757 68.9075 40.0007 76.9999V78.9999C40.0007 79.2651 40.1061 79.5195 40.2936 79.707C40.4811 79.8946 40.7355 79.9999 41.0007 79.9999Z" fill="#0109C4"/>
</g>
<defs>
<clipPath id="clip0_406_5886">
<rect width="100" height="100" fill="white"/>
</clipPath>
</defs>
</svg>
