<svg width="100" height="100" viewBox="0 0 100 100" fill="none" xmlns="http://www.w3.org/2000/svg">
<g clip-path="url(#clip0_406_5919)">
<path d="M49.5397 82.5C49.2668 82.4977 49.0053 82.3902 48.8097 82.2L25.9997 63.67C25.8473 63.5287 25.7427 63.3434 25.7005 63.1399C25.6583 62.9364 25.6806 62.7249 25.7641 62.5346C25.8477 62.3443 25.9885 62.1848 26.1669 62.0783C26.3453 61.9717 26.5525 61.9234 26.7597 61.94C26.8953 61.9379 27.03 61.9634 27.1555 62.0149C27.281 62.0665 27.3947 62.1431 27.4897 62.24L49.5397 80L72.5397 61.39C72.6715 61.2177 72.8558 61.0929 73.0648 61.0345C73.2738 60.9761 73.4961 60.9872 73.6982 61.0662C73.9002 61.1453 74.0711 61.2879 74.1851 61.4726C74.299 61.6572 74.3497 61.874 74.3297 62.09C74.3318 62.2257 74.3063 62.3604 74.2547 62.4859C74.2032 62.6114 74.1266 62.725 74.0297 62.82L50.2997 82.17C50.2016 82.2732 50.0838 82.3556 49.9533 82.4123C49.8227 82.469 49.682 82.4989 49.5397 82.5Z" fill="#0109C4"/>
<path d="M31.2415 57.7802C31.0438 57.7789 30.8466 57.7622 30.6515 57.7302C29.7379 57.5944 28.9101 57.1163 28.3359 56.3928C27.7616 55.6694 27.4839 54.7547 27.5589 53.8342C27.6339 52.9136 28.0561 52.0559 28.7399 51.435C29.4237 50.8141 30.318 50.4764 31.2415 50.4902C31.4247 50.4803 31.6083 50.4803 31.7915 50.4902C32.2871 50.5724 32.7604 50.7562 33.1815 51.0302L33.3915 51.1702L36.3215 49.0302V34.6002C36.327 34.4 36.3891 34.2055 36.5006 34.0391C36.6121 33.8727 36.7684 33.7414 36.9515 33.6602L48.8915 28.1802V24.6502L48.6615 24.5602C47.8588 24.2623 47.1864 23.6918 46.7619 22.9483C46.3373 22.2048 46.1876 21.3358 46.339 20.4931C46.4903 19.6505 46.933 18.8878 47.5897 18.3385C48.2464 17.7892 49.0753 17.4883 49.9315 17.4883C50.7876 17.4883 51.6165 17.7892 52.2732 18.3385C52.93 18.8878 53.3727 19.6505 53.524 20.4931C53.6753 21.3358 53.5256 22.2048 53.1011 22.9483C52.6765 23.6918 52.0041 24.2623 51.2015 24.5602L50.9615 24.6502V28.1802L62.8915 33.6502C63.085 33.7351 63.249 33.8753 63.3629 34.0533C63.4768 34.2313 63.5355 34.439 63.5315 34.6502V49.0002L66.5315 51.2402L66.7515 51.1002C67.1559 50.8224 67.617 50.6379 68.1015 50.5602C68.3034 50.5291 68.5072 50.5124 68.7115 50.5102C69.623 50.5227 70.4969 50.8758 71.1611 51.5002C71.8254 52.1245 72.232 52.9748 72.301 53.8838C72.37 54.7928 72.0963 55.6947 71.5338 56.412C70.9713 57.1294 70.1607 57.6103 69.2615 57.7602C69.0664 57.7917 68.8691 57.8084 68.6715 57.8102C68.1055 57.81 67.5474 57.6779 67.0415 57.4243C66.5356 57.1706 66.0958 56.8025 65.757 56.3492C65.4182 55.8959 65.1898 55.3698 65.0899 54.8127C64.99 54.2557 65.0213 53.683 65.1815 53.1402L65.2515 52.9002L62.2515 50.7402L50.2515 56.2502C50.1166 56.3117 49.9697 56.3425 49.8215 56.3402C49.6735 56.3403 49.527 56.3096 49.3915 56.2502L37.5915 50.7402L34.6515 52.8702L34.7315 53.1102C34.8916 53.653 34.923 54.2257 34.8231 54.7827C34.7232 55.3398 34.4948 55.8659 34.156 56.3192C33.8172 56.7725 33.3774 57.1406 32.8715 57.3943C32.3655 57.6479 31.8074 57.78 31.2415 57.7802ZM31.2415 52.5502C30.9079 52.5514 30.5829 52.6563 30.3115 52.8502C30.0428 53.0482 29.8432 53.3257 29.741 53.6434C29.6388 53.9611 29.6392 54.3029 29.7421 54.6204C29.845 54.9379 30.0451 55.215 30.3142 55.4123C30.5834 55.6097 30.9078 55.7174 31.2415 55.7202C31.5718 55.7176 31.8931 55.6128 32.1615 55.4202C32.4179 55.2384 32.6143 54.9842 32.7255 54.6902C32.8367 54.3962 32.8577 54.0757 32.7857 53.7697C32.7138 53.4637 32.5522 53.1861 32.3217 52.9724C32.0911 52.7588 31.8021 52.6187 31.4915 52.5702L31.2415 52.5502ZM68.7415 52.5502H68.4815C68.0784 52.6274 67.7204 52.8565 67.4815 53.1902C67.2728 53.4766 67.1672 53.8251 67.1817 54.1791C67.1962 54.5332 67.3301 54.8719 67.5615 55.1402C67.71 55.313 67.8942 55.4516 68.1013 55.5465C68.3084 55.6415 68.5336 55.6905 68.7615 55.6902C69.0119 55.6945 69.2594 55.6361 69.4815 55.5202C69.8048 55.3626 70.0646 55.0994 70.2181 54.7742C70.3716 54.4489 70.4095 54.081 70.3255 53.7312C70.2416 53.3815 70.0409 53.0709 69.7565 52.8507C69.4721 52.6305 69.1211 52.5139 68.7615 52.5202L68.7415 52.5502ZM51.0015 41.0502V53.6702L61.5115 48.8602V36.2102L51.0015 41.0502ZM38.3815 48.8602L48.8915 53.6702V41.0502L38.3815 36.2102V48.8602ZM39.8715 34.6002L49.8715 39.2502L60.0015 34.6002L49.9115 30.0002L39.8715 34.6002ZM50.0015 19.5702C49.689 19.5702 49.3835 19.6629 49.1237 19.8365C48.8639 20.0101 48.6613 20.2569 48.5418 20.5456C48.4222 20.8343 48.3909 21.152 48.4518 21.4585C48.5128 21.7649 48.6633 22.0465 48.8843 22.2674C49.1052 22.4884 49.3868 22.6389 49.6932 22.6999C49.9997 22.7608 50.3174 22.7295 50.6061 22.6099C50.8948 22.4904 51.1416 22.2878 51.3152 22.028C51.4888 21.7682 51.5815 21.4627 51.5815 21.1502C51.5763 20.7328 51.4082 20.3339 51.113 20.0387C50.8178 19.7435 50.4189 19.5754 50.0015 19.5702Z" fill="#0109C4"/>
</g>
<defs>
<clipPath id="clip0_406_5919">
<rect width="100" height="100" fill="white"/>
</clipPath>
</defs>
</svg>
