<svg width="75" height="75" viewBox="0 0 75 75" fill="none" xmlns="http://www.w3.org/2000/svg">
<g clip-path="url(#clip0_406_5991)">
<path d="M51 0H0V51.24L23.76 75H75V24L51 0Z" fill="white"/>
<path d="M50.37 1.56L73.44 24.63V73.44H24.39L1.59 50.64V1.56H50.37ZM51 0H0V51.24L23.76 75H75V24L51 0Z" fill="#242E3D"/>
<path d="M12.1811 42.2401V45.0001H10.6211V37.5001H13.5011C14.1911 37.4401 14.8211 37.6801 15.3911 38.1301C16.3211 39.1201 16.3211 40.6201 15.3911 41.6401C14.8811 42.0901 14.1911 42.3301 13.5011 42.2701H12.1811V42.2401ZM12.1811 41.0701H13.3211C13.6211 41.0701 13.9511 41.0101 14.1311 40.7701C14.4911 40.2601 14.4911 39.5101 14.1311 39.0301C13.8911 38.8501 13.6211 38.7301 13.3211 38.7301H12.1811V41.0701ZM22.6211 45.0001L22.1111 43.3201H19.5611L19.0511 45.0001H17.3711L19.9811 37.5001H21.7811L24.3311 45.0001H22.6211ZM19.8911 42.1201H21.7811L20.8211 39.0001L19.8911 42.1201ZM26.6111 45.0001V37.5001H29.4911C30.1811 37.4401 30.8111 37.6801 31.3811 38.1301C31.8311 38.5801 32.0711 39.1801 32.0711 39.8101C32.0711 40.2601 31.9511 40.6201 31.6811 41.0101C31.4411 41.3701 31.0511 41.6401 30.6911 41.8201L32.5811 45.0601H30.9011L29.2811 42.1201H28.2011V45.0001H26.6111ZM28.2011 40.9501H29.3411C29.9111 41.0101 30.3911 40.6501 30.4511 40.0801C30.4511 39.9601 30.4511 39.9001 30.4511 39.7801C30.5111 39.2101 30.1511 38.7301 29.6411 38.6701C29.5811 38.6701 29.4611 38.6701 29.4011 38.6701H28.2611V40.9801H28.2011V40.9501ZM36.3611 45.0001V38.8201H34.0511V37.5001H40.2311V38.8201H37.9211V45.0001H36.3611ZM44.1911 39.8101V45.0001H42.7511V37.5001H44.4911L47.5511 42.7501V37.5001H48.9911V45.0001H47.2511L44.1911 39.8101ZM51.8711 45.0001V37.5001H56.8211V38.7601H53.5211V40.5001H56.2211V41.7601H53.5211V43.7701H56.8211V45.0301H51.8711V45.0001ZM59.7011 45.0001V37.5001H62.5811C63.2711 37.4401 63.9011 37.6801 64.4711 38.1301C64.9211 38.5801 65.1611 39.1801 65.1611 39.8101C65.1611 40.2601 65.0411 40.6201 64.8011 41.0101C64.5611 41.3701 64.1711 41.6401 63.8111 41.8201L65.7011 45.0601H64.0211L62.4011 42.1201H61.3511V45.0001H59.7011ZM61.2611 40.9501H62.4011C62.9711 41.0101 63.4511 40.6501 63.5111 40.0801C63.5111 39.9601 63.5111 39.9001 63.5111 39.7801C63.5711 39.2101 63.2111 38.7301 62.7011 38.6701C62.6411 38.6701 62.5211 38.6701 62.4611 38.6701H61.2611V40.9501Z" fill="#242E3D"/>
<path d="M16.6798 17.19C16.6798 17.43 16.6798 17.7 16.7998 17.94C16.8598 18.12 16.9798 18.39 17.0398 18.57C17.0998 18.63 17.0998 18.69 17.0998 18.75C17.0998 18.87 17.0398 18.93 16.9198 18.99L16.3498 19.35C16.3498 19.35 16.2898 19.35 16.1698 19.35C16.0498 19.35 15.9898 19.29 15.9298 19.23C15.8098 19.11 15.6898 18.99 15.6298 18.84C15.5698 18.72 15.4498 18.54 15.3898 18.33C14.7598 19.08 13.8898 19.53 12.8998 19.53C12.2698 19.59 11.6398 19.35 11.2198 18.9C10.7698 18.45 10.5898 17.91 10.5898 17.28C10.5898 16.59 10.8298 15.96 11.3398 15.54C11.9098 15.09 12.6598 14.85 13.4098 14.85C13.7098 14.85 14.0398 14.85 14.2798 14.91C14.5798 14.97 14.9098 15.03 15.2098 15.09V14.46C15.2698 13.95 15.1498 13.47 14.8198 13.08C14.4598 12.78 13.9498 12.63 13.4398 12.72C13.1398 12.72 12.8098 12.78 12.5098 12.84C12.2098 12.9 11.8798 13.02 11.5798 13.14C11.4598 13.2 11.3998 13.2 11.2798 13.26C11.2198 13.26 11.2198 13.26 11.1598 13.26C11.0398 13.26 10.9798 13.2 10.9798 13.02V12.57C10.9798 12.45 10.9798 12.39 11.0398 12.27C11.0998 12.21 11.1598 12.15 11.2798 12.09C11.5798 11.91 11.9698 11.79 12.3298 11.73C12.7798 11.61 13.1998 11.55 13.6498 11.55C14.4598 11.49 15.2098 11.73 15.8398 12.24C16.3498 12.81 16.5898 13.56 16.5298 14.31L16.6798 17.19ZM13.2598 18.45C13.5598 18.45 13.8298 18.39 14.1298 18.33C14.4298 18.21 14.6998 18.03 14.9398 17.76C15.0598 17.64 15.1798 17.46 15.2398 17.19C15.2998 16.95 15.2998 16.68 15.2998 16.44V16.05C15.0598 15.99 14.7898 15.93 14.5498 15.93C14.3098 15.87 14.0398 15.87 13.7398 15.87C13.2898 15.81 12.8698 15.93 12.4798 16.17C11.9698 16.68 11.9098 17.49 12.3598 18.06C12.6298 18.39 12.9298 18.51 13.2598 18.45ZM20.0698 19.38C19.9498 19.38 19.8298 19.38 19.7698 19.32C19.7098 19.26 19.6498 19.14 19.5898 19.02L17.5798 12.45C17.5198 12.33 17.5198 12.21 17.5198 12.15C17.5198 12.03 17.5798 11.97 17.6398 11.97H17.6998H18.5098C18.6298 11.97 18.7498 11.97 18.8098 12.03C18.8698 12.09 18.9298 12.21 18.9898 12.33L20.4298 17.88L21.7498 12.3C21.7498 12.18 21.8098 12.06 21.9298 12C22.0498 11.94 22.1698 11.94 22.2298 11.94H22.9198C23.0398 11.94 23.1598 11.94 23.2198 12C23.2798 12.06 23.3398 12.18 23.3998 12.3L24.7198 18L26.1598 12.3C26.1598 12.18 26.2198 12.06 26.3398 12C26.4598 11.94 26.5198 11.94 26.6398 11.94H27.4498C27.5698 11.94 27.6298 12 27.6298 12.06V12.12C27.6298 12.18 27.6298 12.18 27.6298 12.24C27.6298 12.3 27.5698 12.36 27.5698 12.42L25.5598 18.93C25.5598 19.05 25.4998 19.17 25.3798 19.23C25.3198 19.35 25.1998 19.35 25.0798 19.35H24.3298C24.2098 19.35 24.0898 19.35 24.0298 19.29C23.9698 19.17 23.9098 19.11 23.8498 18.99L22.5298 13.56L21.2098 18.99C21.2098 19.11 21.1498 19.23 21.0298 19.29C20.9698 19.35 20.8498 19.35 20.7898 19.35H20.0698V19.38ZM30.9298 19.62C30.4798 19.62 30.0598 19.56 29.6098 19.5C29.3098 19.44 28.9198 19.32 28.6198 19.2C28.4398 19.14 28.3198 18.96 28.3198 18.69V18.24C28.3198 18.06 28.3798 18 28.4998 18C28.5598 18 28.6198 18 28.6198 18C28.6798 18 28.7398 18.06 28.7998 18.06C29.0998 18.18 29.4298 18.3 29.7298 18.36C30.0298 18.42 30.4198 18.48 30.7198 18.48C31.1698 18.48 31.5898 18.42 31.9798 18.18C32.2198 18 32.4298 17.67 32.4298 17.37C32.4298 17.13 32.3698 16.92 32.1898 16.8C31.9498 16.62 31.6198 16.44 31.3198 16.35L30.0598 15.99C29.5498 15.87 29.0698 15.54 28.6798 15.12C28.4398 14.76 28.2298 14.31 28.2298 13.86C28.2298 13.56 28.2898 13.23 28.4698 12.93C28.5898 12.69 28.8298 12.42 29.0998 12.24C29.3398 12.06 29.6698 11.88 29.9698 11.79C30.3298 11.67 30.6598 11.67 31.0198 11.67C31.1998 11.67 31.4098 11.67 31.5898 11.73C31.7698 11.73 31.9498 11.79 32.1598 11.85C32.3398 11.91 32.4598 11.91 32.6698 11.97C32.7898 12.03 32.9098 12.03 33.0298 12.09C33.1498 12.15 33.2098 12.21 33.2698 12.27C33.3298 12.33 33.3298 12.45 33.3298 12.57V12.96C33.3298 13.14 33.2698 13.2 33.1498 13.2C33.0298 13.2 32.9098 13.14 32.8498 13.08C32.3398 12.84 31.7998 12.78 31.2298 12.78C30.8698 12.78 30.4798 12.84 30.0898 13.02C29.8798 13.2 29.6998 13.5 29.7598 13.8C29.7598 14.04 29.8198 14.25 29.9998 14.43C30.2398 14.67 30.5698 14.79 30.9298 14.88L32.1298 15.24C32.6398 15.36 33.0598 15.69 33.4498 16.05C33.6898 16.35 33.8098 16.8 33.8098 17.25C33.8098 17.55 33.7498 17.94 33.5698 18.24C33.4498 18.54 33.2098 18.81 32.9398 18.99C32.6998 19.17 32.3098 19.35 32.0098 19.5C31.7398 19.56 31.3198 19.62 30.9298 19.62Z" fill="#242E3D"/>
<path d="M32.4892 23.7C29.6992 25.74 25.6792 26.82 22.1992 26.82C17.5792 26.82 13.0792 25.14 9.62921 22.02C9.38921 21.78 9.62921 21.45 9.92921 21.66C13.7392 23.88 18.1192 24.99 22.4992 24.99C25.7992 24.99 29.0692 24.3 32.1292 23.04C32.5492 22.86 32.9992 23.37 32.4892 23.7ZM32.9392 25.56C32.8192 25.8 33.0592 25.92 33.3292 25.74C34.8292 24.48 35.2192 21.87 34.8892 21.48C34.5892 21.12 31.9492 20.79 30.3892 21.93C30.1492 22.11 30.2092 22.38 30.4492 22.29C31.3192 22.17 33.3292 21.93 33.6892 22.41C34.0492 22.95 33.2392 24.75 32.9392 25.56Z" fill="#FF9900"/>
<path d="M37.1684 49.89C36.8084 49.74 36.5684 49.59 36.3884 49.41C36.2384 49.23 36.1484 48.99 36.1484 48.72C36.1484 48.33 36.2984 48.03 36.5684 47.79C36.8384 47.55 37.1984 47.46 37.6784 47.46C38.0684 47.46 38.4584 47.52 38.8484 47.67V48.27C38.4284 48.15 38.0684 48.09 37.7384 48.09C37.1984 48.09 36.8984 48.27 36.8984 48.66C36.8984 48.81 36.9584 48.93 37.0484 49.02C37.1384 49.11 37.3184 49.2 37.5884 49.29L38.1284 49.47C38.4884 49.59 38.7284 49.77 38.8784 49.95C39.0284 50.13 39.1184 50.37 39.1184 50.64C39.1184 51.06 38.9684 51.39 38.6684 51.63C38.3684 51.87 37.9784 51.99 37.4684 51.99C37.2584 51.99 37.0184 51.96 36.8084 51.93C36.5984 51.87 36.3884 51.81 36.2384 51.75V51.15C36.4484 51.21 36.6584 51.27 36.8684 51.3C37.1084 51.33 37.2884 51.36 37.4684 51.36C37.7684 51.36 37.9784 51.3 38.1284 51.21C38.2784 51.09 38.3684 50.94 38.3684 50.76C38.3684 50.61 38.3084 50.49 38.2184 50.4C38.1284 50.31 37.9484 50.22 37.7084 50.13L37.1684 49.89Z" fill="#242E3D"/>
<path d="M40.3814 50.46C40.3814 50.79 40.4714 51 40.6514 51.15C40.8314 51.3 41.0714 51.36 41.4014 51.36C41.7014 51.36 42.0614 51.3 42.4214 51.18V51.69C42.2714 51.75 42.1214 51.81 41.9114 51.87C41.7014 51.93 41.5214 51.93 41.3114 51.93C40.8014 51.93 40.3814 51.78 40.1114 51.51C39.8414 51.21 39.6914 50.82 39.6914 50.25C39.6914 49.71 39.8114 49.29 40.0814 48.99C40.3514 48.69 40.7114 48.54 41.1914 48.54C41.5814 48.54 41.9114 48.66 42.1214 48.87C42.3314 49.08 42.4514 49.41 42.4514 49.83C42.4514 50.04 42.4214 50.25 42.3914 50.4H40.3814V50.46ZM41.1914 49.14C40.9814 49.14 40.7714 49.23 40.6514 49.35C40.5014 49.5 40.4414 49.71 40.4114 49.95H41.8514V49.89C41.8514 49.65 41.7914 49.44 41.6714 49.32C41.5514 49.2 41.4014 49.14 41.1914 49.14Z" fill="#242E3D"/>
<path d="M44.4292 51.84C44.2792 51.9 44.1292 51.93 43.9492 51.93C43.7092 51.93 43.4992 51.87 43.3792 51.72C43.2592 51.57 43.1992 51.36 43.1992 51.09V47.25H43.9492V51.03C43.9492 51.12 43.9792 51.21 44.0092 51.24C44.0392 51.27 44.0992 51.3 44.2192 51.3C44.2792 51.3 44.3692 51.3 44.4592 51.27V51.84H44.4292Z" fill="#242E3D"/>
<path d="M45.6002 50.46C45.6002 50.79 45.6902 51 45.8702 51.15C46.0502 51.3 46.2902 51.36 46.6202 51.36C46.9202 51.36 47.2802 51.3 47.6402 51.18V51.69C47.4902 51.75 47.3402 51.81 47.1302 51.87C46.9202 51.93 46.7402 51.93 46.5302 51.93C46.0202 51.93 45.6002 51.78 45.3302 51.51C45.0602 51.21 44.9102 50.82 44.9102 50.25C44.9102 49.71 45.0302 49.29 45.3002 48.99C45.5702 48.69 45.9302 48.54 46.4102 48.54C46.8002 48.54 47.1302 48.66 47.3402 48.87C47.5502 49.08 47.6702 49.41 47.6702 49.83C47.6702 50.04 47.6402 50.25 47.6102 50.4H45.6002V50.46ZM46.3802 49.14C46.1702 49.14 45.9602 49.23 45.8402 49.35C45.6902 49.5 45.6002 49.71 45.6002 49.95H47.0402V49.89C47.0402 49.65 46.9802 49.44 46.8602 49.32C46.7702 49.2 46.6202 49.14 46.3802 49.14Z" fill="#242E3D"/>
<path d="M50.6383 51.7499C50.3983 51.8699 50.0983 51.9599 49.7683 51.9599C49.2883 51.9599 48.8983 51.8099 48.6283 51.5399C48.3583 51.2399 48.2383 50.8499 48.2383 50.3399C48.2383 49.7999 48.3883 49.3799 48.6583 49.1099C48.9283 48.8099 49.3183 48.6599 49.7983 48.6599C50.0983 48.6599 50.3683 48.7199 50.6383 48.8399V49.3799C50.3683 49.2899 50.1283 49.2599 49.9183 49.2599C49.6183 49.2599 49.3783 49.3499 49.2283 49.4999C49.0783 49.6799 49.0183 49.9499 49.0183 50.2799V50.3699C49.0183 50.7299 49.1083 50.9699 49.2283 51.1499C49.3783 51.2999 49.6183 51.3899 49.9183 51.3899C50.1283 51.3899 50.3983 51.3599 50.6383 51.2699V51.7499Z" fill="#242E3D"/>
<path d="M53.1614 51.8101C52.9514 51.9001 52.7114 51.9301 52.4714 51.9301C52.1414 51.9301 51.9014 51.8701 51.7214 51.7201C51.5714 51.5701 51.4814 51.3301 51.4814 51.0001V49.2901H50.9414V48.8101L51.5114 48.7201L51.6314 47.8201H52.2314V48.6901H53.1314V49.2601H52.2314V50.9401C52.2314 51.0901 52.2614 51.1801 52.3214 51.2401C52.3814 51.3001 52.5014 51.3301 52.6814 51.3301C52.8614 51.3301 53.0114 51.3301 53.1614 51.2701V51.8101Z" fill="#242E3D"/>
<path d="M56.3695 51.87V48.15H55.0195V47.52H58.4995V48.15H57.1495V51.87H56.3695Z" fill="#242E3D"/>
<path d="M59.0705 51.8701V48.6901H59.7905V51.8701H59.0705ZM59.4305 48.1501C59.2805 48.1501 59.1905 48.1201 59.1005 48.0301C59.0105 47.9401 58.9805 47.8501 58.9805 47.7301C58.9805 47.5801 59.0105 47.4901 59.1005 47.4301C59.1905 47.3401 59.2805 47.3101 59.4305 47.3101C59.5805 47.3101 59.6705 47.3401 59.7605 47.4301C59.8505 47.4901 59.8805 47.6101 59.8805 47.7301C59.8805 47.8501 59.8505 47.9701 59.7605 48.0301C59.6705 48.1201 59.5805 48.1501 59.4305 48.1501Z" fill="#242E3D"/>
<path d="M61.2291 50.46C61.2291 50.79 61.3191 51 61.4991 51.15C61.6791 51.3 61.9191 51.36 62.2491 51.36C62.5491 51.36 62.9091 51.3 63.2691 51.18V51.69C63.1191 51.75 62.9691 51.81 62.7591 51.87C62.5491 51.93 62.3691 51.93 62.1591 51.93C61.6491 51.93 61.2291 51.78 60.9591 51.51C60.6891 51.21 60.5391 50.82 60.5391 50.25C60.5391 49.71 60.6591 49.29 60.9291 48.99C61.1991 48.69 61.5591 48.54 62.0391 48.54C62.4291 48.54 62.7591 48.66 62.9691 48.87C63.1791 49.08 63.2991 49.41 63.2991 49.83C63.2991 50.04 63.2691 50.25 63.2391 50.4H61.2291V50.46ZM62.0391 49.14C61.8291 49.14 61.6191 49.23 61.4991 49.35C61.3491 49.5 61.2891 49.71 61.2591 49.95H62.6991V49.89C62.6991 49.65 62.6391 49.44 62.5191 49.32C62.3991 49.2 62.2491 49.14 62.0391 49.14Z" fill="#242E3D"/>
<path d="M64.0508 51.8699V48.6899H64.6508L64.7408 49.1699C64.9208 48.9899 65.0708 48.8699 65.2208 48.7799C65.3708 48.6899 65.5208 48.6599 65.7008 48.6599C65.7908 48.6599 65.8508 48.6599 65.9408 48.6899V49.3499C65.8208 49.3199 65.7008 49.3199 65.5808 49.3199C65.2808 49.3199 65.0108 49.4099 64.7708 49.5599V51.8699H64.0508Z" fill="#242E3D"/>
<path d="M44.2192 56.13C43.8592 55.98 43.6192 55.83 43.4392 55.65C43.2892 55.47 43.1992 55.23 43.1992 54.96C43.1992 54.57 43.3492 54.27 43.6192 54.03C43.8892 53.79 44.2492 53.7 44.7292 53.7C45.1192 53.7 45.5092 53.76 45.8992 53.91V54.51C45.4792 54.39 45.1192 54.33 44.7892 54.33C44.2492 54.33 43.9492 54.51 43.9492 54.9C43.9492 55.05 44.0092 55.17 44.0992 55.26C44.1892 55.35 44.3692 55.44 44.6392 55.53L45.1792 55.71C45.5092 55.83 45.7792 56.01 45.9292 56.19C46.0792 56.37 46.1692 56.61 46.1692 56.88C46.1692 57.3 46.0192 57.6299 45.7192 57.8699C45.4192 58.1099 45.0292 58.23 44.5192 58.23C44.3092 58.23 44.0692 58.1999 43.8592 58.1699C43.6492 58.1099 43.4392 58.05 43.2892 57.99V57.39C43.4992 57.45 43.7092 57.51 43.9192 57.54C44.1592 57.57 44.3392 57.6 44.5192 57.6C44.8192 57.6 45.0292 57.54 45.1792 57.45C45.3292 57.33 45.4192 57.18 45.4192 57C45.4192 56.85 45.3592 56.73 45.2692 56.64C45.1792 56.55 44.9992 56.4599 44.7592 56.3699L44.2192 56.13Z" fill="#242E3D"/>
<path d="M47.4595 56.7C47.4595 57.03 47.5495 57.24 47.7295 57.39C47.9095 57.54 48.1495 57.6 48.4795 57.6C48.7795 57.6 49.1395 57.54 49.4995 57.42V57.93C49.3495 57.99 49.1995 58.05 48.9895 58.11C48.7795 58.17 48.5995 58.17 48.3895 58.17C47.8795 58.17 47.4595 58.02 47.1895 57.75C46.9195 57.45 46.7695 57.06 46.7695 56.49C46.7695 55.95 46.8895 55.53 47.1595 55.23C47.4295 54.93 47.7895 54.78 48.2695 54.78C48.6595 54.78 48.9895 54.9 49.1995 55.11C49.4095 55.32 49.5295 55.65 49.5295 56.07C49.5295 56.28 49.4995 56.49 49.4695 56.64H47.4595V56.7ZM48.2395 55.38C48.0295 55.38 47.8195 55.44 47.6995 55.59C47.5495 55.74 47.4895 55.95 47.4595 56.19H48.8995V56.13C48.8995 55.89 48.8395 55.68 48.7195 55.56C48.5995 55.47 48.4495 55.38 48.2395 55.38Z" fill="#242E3D"/>
<path d="M50.25 58.1099V54.9299H50.88L50.97 55.4099C51.15 55.2299 51.3 55.1099 51.45 55.0199C51.6 54.9299 51.75 54.8999 51.93 54.8999C52.02 54.8999 52.08 54.8999 52.17 54.9299V55.5899C52.05 55.5599 51.93 55.5599 51.81 55.5599C51.51 55.5599 51.24 55.6499 51 55.7999V58.1099H50.25Z" fill="#242E3D"/>
<path d="M53.5191 58.1099L52.2891 54.9299H53.0691L53.8791 57.4499L54.6891 54.9299H55.4391L54.2091 58.1099H53.5191Z" fill="#242E3D"/>
<path d="M55.9494 58.1101V54.9301H56.6694V58.1101H55.9494ZM56.3094 54.4201C56.1594 54.4201 56.0694 54.3901 55.9794 54.3001C55.8894 54.2101 55.8594 54.1201 55.8594 54.0001C55.8594 53.8501 55.8894 53.7601 55.9794 53.7001C56.0694 53.6101 56.1594 53.5801 56.3094 53.5801C56.4594 53.5801 56.5494 53.6101 56.6394 53.7001C56.7294 53.7601 56.7594 53.8801 56.7594 54.0001C56.7594 54.1201 56.7294 54.2401 56.6394 54.3001C56.5794 54.3901 56.4594 54.4201 56.3094 54.4201Z" fill="#242E3D"/>
<path d="M59.8492 57.9899C59.6092 58.1099 59.3092 58.1999 58.9792 58.1999C58.4992 58.1999 58.1092 58.0499 57.8392 57.7799C57.5692 57.4799 57.4492 57.0899 57.4492 56.5799C57.4492 56.0399 57.5992 55.6199 57.8692 55.3499C58.1392 55.0499 58.5292 54.8999 59.0092 54.8999C59.3092 54.8999 59.5792 54.9599 59.8492 55.0799V55.6199C59.5792 55.5299 59.3392 55.4999 59.1292 55.4999C58.8292 55.4999 58.5892 55.5899 58.4392 55.7399C58.2892 55.9199 58.2292 56.1899 58.2292 56.5199V56.6099C58.2292 56.9699 58.2892 57.2099 58.4392 57.3899C58.5892 57.5399 58.8292 57.6299 59.1292 57.6299C59.3392 57.6299 59.6092 57.5999 59.8492 57.5099V57.9899Z" fill="#242E3D"/>
<path d="M61.0181 56.7C61.0181 57.03 61.1081 57.24 61.2881 57.39C61.4681 57.54 61.7081 57.6 62.0381 57.6C62.3381 57.6 62.6981 57.54 63.0581 57.42V57.93C62.9081 57.99 62.7581 58.05 62.5481 58.11C62.3681 58.17 62.1581 58.17 61.9481 58.17C61.4381 58.17 61.0181 58.02 60.7481 57.75C60.4781 57.45 60.3281 57.06 60.3281 56.49C60.3281 55.95 60.4481 55.53 60.7181 55.23C60.9881 54.93 61.3481 54.78 61.8281 54.78C62.2181 54.78 62.5481 54.9 62.7581 55.11C62.9681 55.32 63.0881 55.65 63.0881 56.07C63.0881 56.28 63.0581 56.49 63.0281 56.64H61.0181V56.7ZM61.8281 55.38C61.6181 55.38 61.4081 55.44 61.2881 55.59C61.1381 55.74 61.0781 55.95 61.0481 56.19H62.4881V56.13C62.4881 55.89 62.4281 55.68 62.3081 55.56C62.1881 55.47 62.0381 55.38 61.8281 55.38Z" fill="#242E3D"/>
<path d="M65.2789 57.2701C65.2789 57.1801 65.2489 57.0901 65.1889 57.0601C65.1289 57.0001 65.0089 56.9401 64.8589 56.8801L64.3489 56.6701C63.8689 56.4901 63.6589 56.1901 63.6589 55.8001C63.6589 55.5001 63.7789 55.2901 63.9889 55.1101C64.1989 54.9301 64.4989 54.8701 64.8589 54.8701C65.2189 54.8701 65.5189 54.9301 65.7889 55.0801V55.5901C65.4589 55.5001 65.1589 55.4401 64.8889 55.4401C64.7089 55.4401 64.5589 55.4701 64.4689 55.5301C64.3789 55.5901 64.3189 55.6801 64.3189 55.8001C64.3189 55.8901 64.3489 55.9801 64.4089 56.0101C64.4689 56.0701 64.5889 56.1301 64.7389 56.1901L65.2189 56.3701C65.4589 56.4601 65.6389 56.5801 65.7589 56.7301C65.8789 56.8501 65.9389 57.0301 65.9389 57.2401C65.9389 57.5401 65.8189 57.8101 65.6089 57.9901C65.3989 58.1701 65.0689 58.2601 64.6789 58.2601C64.4689 58.2601 64.2889 58.2301 64.1089 58.2001C63.9289 58.1701 63.7489 58.1101 63.6289 58.0201V57.5101C64.0189 57.6301 64.3789 57.7201 64.6789 57.7201C64.8889 57.7201 65.0389 57.6901 65.1289 57.6301C65.2489 57.5101 65.2789 57.3901 65.2789 57.2701Z" fill="#242E3D"/>
</g>
<defs>
<clipPath id="clip0_406_5991">
<rect width="75" height="75" fill="white"/>
</clipPath>
</defs>
</svg>
