<svg width="179" height="155" viewBox="0 0 179 155" fill="none" xmlns="http://www.w3.org/2000/svg">
<path d="M43.3154 27.5H135.683C142.033 27.5 147.228 32 147.228 37.5V117.5C147.228 123 142.033 127.5 135.683 127.5H43.3154C36.9652 127.5 31.7695 123 31.7695 117.5V37.5C31.7695 32 36.9652 27.5 43.3154 27.5Z" fill="#E3F4FC"/>
<path d="M113.861 96.3H65.1373C63.8673 96.3 62.8281 97.2 62.8281 98.3V100.5C62.8281 101.6 63.8673 102.5 65.1373 102.5H113.976C115.246 102.5 116.286 101.6 116.286 100.5V98.3C116.17 97.2 115.131 96.3 113.861 96.3Z" fill="#93C9F8"/>
<path d="M114.9 62.8L90.5383 52.9C89.961 52.6 89.1528 52.6 88.5755 52.9L64.2136 62.8C63.4054 63.1 62.8281 63.8 62.8281 64.6V67.5C62.8281 68.6 63.8673 69.5 65.1373 69.5H113.976C115.246 69.5 116.286 68.6 116.286 67.5V64.6C116.17 63.9 115.708 63.2 114.9 62.8Z" fill="#93C9F8"/>
<path d="M92.1555 93.3H86.8443C85.5743 93.3 84.5352 92.4 84.5352 91.3V74.5C84.5352 73.4 85.5743 72.5 86.8443 72.5H92.1555C93.4255 72.5 94.4646 73.4 94.4646 74.5V91.3C94.4646 92.4 93.4255 93.3 92.1555 93.3Z" fill="#0109C4"/>
<path d="M75.4133 93.3H70.1021C68.8321 93.3 67.793 92.4 67.793 91.3V74.5C67.793 73.4 68.8321 72.5 70.1021 72.5H75.4133C76.6833 72.5 77.7224 73.4 77.7224 74.5V91.3C77.7224 92.4 76.6833 93.3 75.4133 93.3Z" fill="#0109C4"/>
<path d="M108.898 93.3H103.587C102.316 93.3 101.277 92.4 101.277 91.3V74.5C101.277 73.4 102.316 72.5 103.587 72.5H108.898C110.168 72.5 111.207 73.4 111.207 74.5V91.3C111.207 92.4 110.168 93.3 108.898 93.3Z" fill="#0109C4"/>
</svg>
