<svg width="100" height="100" viewBox="0 0 100 100" fill="none" xmlns="http://www.w3.org/2000/svg">
<g clip-path="url(#clip0_406_5868)">
<path d="M49.9981 78.5C48.9372 78.5 47.9198 78.0786 47.1696 77.3284C46.4195 76.5783 45.9981 75.5609 45.9981 74.5C46.0087 74.3124 46.0287 74.1255 46.0581 73.94V73.8L28.4681 63.63L28.3581 63.73C27.8725 64.1651 27.2894 64.4772 26.6581 64.64C26.3308 64.7201 25.995 64.7603 25.6581 64.76C24.6641 64.7896 23.6948 64.4479 22.9391 63.8015C22.1835 63.1552 21.6956 62.2506 21.5707 61.2641C21.4459 60.2776 21.6929 59.2799 22.2637 58.4657C22.8345 57.6515 23.6881 57.079 24.6581 56.86H24.8081V37.18H24.6581C24.0313 37.0183 23.452 36.7098 22.9681 36.28C22.1724 35.5679 21.6922 34.5689 21.6332 33.5027C21.5741 32.4366 21.941 31.3906 22.6531 30.595C23.3652 29.7993 24.3642 29.3192 25.4303 29.2601C26.4965 29.201 27.5424 29.5679 28.3381 30.28L28.4481 30.38L46.0581 20.23V20.09C46.0282 19.9012 46.0082 19.7109 45.9981 19.52C45.9981 18.4512 46.4226 17.4261 47.1784 16.6704C47.9342 15.9146 48.9592 15.49 50.0281 15.49C51.0969 15.49 52.1219 15.9146 52.8777 16.6704C53.6335 17.4261 54.0581 18.4512 54.0581 19.52C54.0474 19.7075 54.0274 19.8944 53.9981 20.08V20.22L71.5281 30.37L71.6381 30.27C72.1236 29.8349 72.7067 29.5228 73.3381 29.36C73.6653 29.2799 74.0011 29.2396 74.3381 29.24C75.332 29.2104 76.3013 29.5521 77.057 30.1984C77.8127 30.8448 78.3005 31.7494 78.4254 32.7359C78.5502 33.7224 78.3032 34.7201 77.7324 35.5343C77.1616 36.3485 76.308 36.921 75.3381 37.14H75.1881V56.82H75.3381C75.9655 56.9853 76.5447 57.2972 77.0281 57.73C77.6403 58.2699 78.0728 58.9842 78.2673 59.777C78.4619 60.5698 78.4092 61.4031 78.1164 62.1651C77.8236 62.9271 77.3046 63.5812 76.6292 64.0397C75.9538 64.4982 75.1543 64.7391 74.3381 64.73C73.352 64.7384 72.3976 64.3823 71.6581 63.73L71.5481 63.63L53.9381 73.77V73.91C53.9679 74.0988 53.988 74.2891 53.9981 74.48C54.0007 75.007 53.8992 75.5293 53.6993 76.0169C53.4995 76.5045 53.2053 76.9478 52.8336 77.3214C52.4619 77.6949 52.02 77.9913 51.5334 78.1936C51.0468 78.3959 50.525 78.5 49.9981 78.5ZM49.9981 72.16C49.5388 72.16 49.0898 72.2963 48.7081 72.5517C48.3264 72.8071 48.029 73.17 47.8537 73.5945C47.6784 74.019 47.6331 74.486 47.7234 74.9363C47.8137 75.3866 48.0357 75.8 48.3611 76.124C48.6866 76.4481 49.1009 76.6682 49.5516 76.7566C50.0023 76.845 50.4691 76.7976 50.8928 76.6205C51.3166 76.4434 51.6782 76.1445 51.9319 75.7616C52.1857 75.3788 52.32 74.9293 52.3181 74.47C52.3181 74.1658 52.258 73.8646 52.1413 73.5837C52.0246 73.3028 51.8535 73.0477 51.6379 72.833C51.4224 72.6184 51.1665 72.4485 50.8851 72.333C50.6037 72.2175 50.3022 72.1587 49.9981 72.16ZM52.7381 71.52L52.8381 71.63C52.9591 71.7565 53.0727 71.8901 53.1781 72.03L53.2781 72.18L70.5681 62.18V62.02C70.5681 61.92 70.4981 61.82 70.4681 61.72V61.57H58.5881L52.7381 71.52ZM29.5781 61.74C29.5781 61.84 29.5181 61.94 29.4781 62.04L29.4281 62.2L46.7181 72.2L46.8181 72.05C46.9235 71.9101 47.037 71.7766 47.1581 71.65L47.2581 71.54L41.4081 61.61H29.6181L29.5781 61.74ZM48.7481 70.67L49.0381 70.58L49.1381 70.4V61.59H43.3981L48.7481 70.67ZM50.8581 70.55L51.1481 70.63L51.3381 70.53L56.5981 61.59H50.8581V70.55ZM74.2981 58.42C73.8392 58.42 73.3907 58.5561 73.0091 58.811C72.6276 59.0659 72.3302 59.4282 72.1547 59.8522C71.9791 60.2761 71.9331 60.7426 72.0226 61.1926C72.1122 61.6426 72.3331 62.056 72.6576 62.3805C72.982 62.7049 73.3954 62.9259 73.8454 63.0154C74.2955 63.1049 74.762 63.059 75.1859 62.8834C75.6098 62.7078 75.9721 62.4104 76.2271 62.0289C76.482 61.6474 76.6181 61.1988 76.6181 60.74C76.6181 60.1247 76.3736 59.5346 75.9385 59.0995C75.5035 58.6644 74.9134 58.42 74.2981 58.42ZM25.6981 58.42C25.2384 58.416 24.7879 58.5487 24.4037 58.8012C24.0196 59.0537 23.7191 59.4147 23.5404 59.8382C23.3618 60.2618 23.313 60.7289 23.4002 61.1802C23.4875 61.6316 23.7068 62.0468 24.0305 62.3733C24.3541 62.6997 24.7675 62.9227 25.218 63.0138C25.6686 63.105 26.1361 63.0602 26.5612 62.8852C26.9863 62.7102 27.3498 62.4129 27.6056 62.031C27.8615 61.649 27.998 61.1997 27.9981 60.74C27.9981 60.1281 27.7564 59.541 27.3256 59.1065C26.8949 58.672 26.3099 58.4253 25.6981 58.42ZM59.5981 59.88H70.3681L70.4681 59.59L70.3381 59.47L62.4581 55L59.5981 59.88ZM52.8881 49.79C52.3712 50.3214 51.7169 50.6988 50.9981 50.88H50.8481V59.88H57.6081L60.9981 54.19L52.9981 49.68L52.8881 49.79ZM38.9981 54.19L42.3581 59.88H49.1081V50.88H48.9581C48.2428 50.6971 47.5921 50.3199 47.0781 49.79L46.9981 49.68L38.9981 54.19ZM29.4881 59.55L29.5781 59.85H29.7381H40.3981L37.5381 55L29.4881 59.55ZM63.2981 53.55L71.2981 58.06L71.4081 57.94L71.4981 57.83V57.64L66.2081 48.64L63.2981 53.55ZM28.3981 57.78L28.6181 58.01H28.7981L36.6381 53.59L33.7981 48.69L28.3981 57.78ZM72.9981 37.21L67.1981 47L73.0581 56.93L73.3481 56.84L73.4481 56.66V37.18L73.1581 37.11L72.9981 37.21ZM26.7581 37.13H26.6181L26.5681 37.29V56.82H26.7281H26.8781L27.0481 56.71L32.7981 47L26.9981 37.07L26.7581 37.13ZM53.8481 45.81V45.97C54.0578 46.6406 54.0578 47.3593 53.8481 48.03V48.19L61.8481 52.71L65.2081 47L61.8381 41.29L53.8481 45.81ZM34.7881 47L38.1581 52.71L46.1581 48.19V48.03C45.9483 47.3593 45.9483 46.6406 46.1581 45.97V45.81L38.1581 41.29L34.7881 47ZM49.9981 44.68C49.5392 44.68 49.0907 44.8161 48.7091 45.071C48.3276 45.3259 48.0303 45.6882 47.8547 46.1122C47.6791 46.5361 47.6331 47.0026 47.7226 47.4526C47.8122 47.9026 48.0331 48.316 48.3576 48.6405C48.682 48.9649 49.0954 49.1859 49.5454 49.2754C49.9955 49.3649 50.462 49.319 50.8859 49.1434C51.3098 48.9678 51.6721 48.6704 51.9271 48.2889C52.182 47.9074 52.3181 47.4588 52.3181 47C52.3194 46.695 52.2603 46.3927 52.1442 46.1106C52.028 45.8285 51.8572 45.5722 51.6415 45.3566C51.4258 45.1409 51.1695 44.97 50.8874 44.8539C50.6054 44.7378 50.3031 44.6787 49.9981 44.68ZM28.5681 36.07L28.4581 36.24L28.5081 36.36L33.7981 45.36L36.6681 40.49L28.6681 35.98L28.5681 36.07ZM71.1681 36L63.3281 40.44L66.1981 45.3L71.5681 36.21L71.4581 36.1L71.3481 36H71.1681ZM50.8581 43.08H51.0081C51.7233 43.2629 52.374 43.6401 52.8881 44.17L52.9981 44.28L60.9981 39.77L57.6481 34.08H50.8581V43.08ZM38.9981 39.81L46.9981 44.32L47.1081 44.21C47.6249 43.6785 48.2792 43.3012 48.9981 43.12H49.1481V34.12H42.3881L38.9981 39.81ZM62.4581 39L70.4581 34.48L70.3681 34.18H70.2081H59.5981L62.4581 39ZM29.5181 34.45L37.5181 38.97L40.3781 34.12H29.6181L29.5181 34.45ZM74.2981 31C73.8388 31 73.3898 31.1363 73.0081 31.3917C72.6264 31.6471 72.329 32.01 72.1537 32.4345C71.9784 32.859 71.9331 33.326 72.0234 33.7763C72.1137 34.2266 72.3357 34.64 72.6611 34.964C72.9866 35.2881 73.4009 35.5082 73.8516 35.5966C74.3023 35.685 74.7691 35.6376 75.1928 35.4605C75.6166 35.2834 75.9782 34.9845 76.2319 34.6016C76.4857 34.2188 76.62 33.7693 76.6181 33.31C76.6154 32.6964 76.3698 32.1089 75.935 31.676C75.5002 31.243 74.9116 31 74.2981 31ZM25.6981 31C25.2358 30.9962 24.783 31.1305 24.3977 31.3857C24.0123 31.641 23.712 32.0055 23.5352 32.4326C23.3584 32.8597 23.3133 33.3298 23.4055 33.7828C23.4977 34.2357 23.7231 34.6508 24.0528 34.9747C24.3825 35.2987 24.8014 35.5168 25.2559 35.601C25.7104 35.6853 26.1797 35.6319 26.6036 35.4476C27.0275 35.2634 27.3867 34.9567 27.6352 34.5669C27.8836 34.1772 28.01 33.7221 27.9981 33.26C27.9825 32.6586 27.734 32.0867 27.3049 31.6651C26.8758 31.2435 26.2996 31.005 25.6981 31ZM53.1781 22C53.0681 22.14 52.9581 22.28 52.8381 22.41L52.7381 22.52L58.5881 32.44H70.3781V32.29C70.3781 32.19 70.4381 32.09 70.4781 31.99V31.83L53.1881 21.83L53.1781 22ZM50.9181 23.47L50.8581 23.63V32.44H56.5981L51.2481 23.36L50.9181 23.47ZM48.6681 23.47L43.3981 32.41H49.1381V23.41L48.8481 23.34L48.6681 23.47ZM29.4281 31.8L29.4881 31.96C29.4881 32.06 29.5581 32.16 29.5781 32.26V32.41H41.4081L47.2581 22.49L47.1581 22.38C47.0381 22.25 46.9281 22.11 46.8181 21.97L46.7181 21.82L29.4281 31.8ZM49.9981 17.21C49.5392 17.21 49.0907 17.3461 48.7091 17.601C48.3276 17.8559 48.0303 18.2182 47.8547 18.6422C47.6791 19.0661 47.6331 19.5326 47.7226 19.9826C47.8122 20.4326 48.0331 20.846 48.3576 21.1705C48.682 21.4949 49.0954 21.7159 49.5454 21.8054C49.9955 21.8949 50.462 21.849 50.8859 21.6734C51.3098 21.4978 51.6721 21.2004 51.9271 20.8189C52.182 20.4374 52.3181 19.9888 52.3181 19.53C52.3194 19.225 52.2603 18.9227 52.1442 18.6406C52.028 18.3585 51.8572 18.1022 51.6415 17.8866C51.4258 17.6709 51.1695 17.5 50.8874 17.3839C50.6054 17.2678 50.3031 17.2087 49.9981 17.21Z" fill="#0109C4"/>
</g>
<defs>
<clipPath id="clip0_406_5868">
<rect width="100" height="100" fill="white"/>
</clipPath>
</defs>
</svg>
