<svg width="100" height="100" viewBox="0 0 100 100" fill="none" xmlns="http://www.w3.org/2000/svg">
<g clip-path="url(#clip0_406_5930)">
<path d="M78.7008 58.3399C78.8691 58.3466 79.037 58.3193 79.1945 58.2595C79.352 58.1997 79.4957 58.1087 79.6172 57.9919C79.7386 57.8752 79.8352 57.7351 79.9011 57.5801C79.967 57.425 80.0009 57.2583 80.0008 57.0899V43.2099C79.9956 43.0448 79.9578 42.8824 79.8896 42.7321C79.8213 42.5817 79.7239 42.4464 79.603 42.3339C79.4822 42.2213 79.3402 42.1339 79.1853 42.0766C79.0305 42.0193 78.8658 41.9932 78.7008 41.9999H64.8108C64.4793 41.9999 64.1613 42.1316 63.9269 42.366C63.6925 42.6004 63.5608 42.9183 63.5608 43.2499V49.1899H58.1908V43.2099C58.1804 42.8853 58.0441 42.5776 57.8108 42.3517C57.5775 42.1259 57.2655 41.9997 56.9408 41.9999H51.0008V36.4899H56.9408C57.2723 36.4899 57.5902 36.3582 57.8247 36.1237C58.0591 35.8893 58.1908 35.5714 58.1908 35.2399V21.3599C58.1908 21.0283 58.0591 20.7104 57.8247 20.476C57.5902 20.2416 57.2723 20.1099 56.9408 20.1099H43.0608C42.7293 20.1099 42.4113 20.2416 42.1769 20.476C41.9425 20.7104 41.8108 21.0283 41.8108 21.3599V27.2999H36.4408V21.3599C36.4408 21.0283 36.3091 20.7104 36.0747 20.476C35.8402 20.2416 35.5223 20.1099 35.1908 20.1099H21.3008C20.9693 20.1099 20.6513 20.2416 20.4169 20.476C20.1825 20.7104 20.0508 21.0283 20.0508 21.3599V35.2399C20.0508 35.5714 20.1825 35.8893 20.4169 36.1237C20.6513 36.3582 20.9693 36.4899 21.3008 36.4899H35.1908C35.5223 36.4899 35.8402 36.3582 36.0747 36.1237C36.3091 35.8893 36.4408 35.5714 36.4408 35.2399V29.2999H41.8108V35.2399C41.8108 35.5714 41.9425 35.8893 42.1769 36.1237C42.4113 36.3582 42.7293 36.4899 43.0608 36.4899H49.0008V41.9999H43.0608C42.7293 41.9999 42.4113 42.1316 42.1769 42.366C41.9425 42.6004 41.8108 42.9183 41.8108 43.2499V57.0899C41.8108 57.4214 41.9425 57.7393 42.1769 57.9737C42.4113 58.2082 42.7293 58.3399 43.0608 58.3399H56.9408C57.2723 58.3399 57.5902 58.2082 57.8247 57.9737C58.0591 57.7393 58.1908 57.4214 58.1908 57.0899V51.1499H63.5608V57.0899C63.5608 57.254 63.5931 57.4166 63.6559 57.5682C63.7188 57.7199 63.8108 57.8577 63.9269 57.9737C64.043 58.0898 64.1808 58.1819 64.3324 58.2447C64.4841 58.3075 64.6466 58.3399 64.8108 58.3399H70.7508V63.5099H64.8108C64.4793 63.5099 64.1613 63.6416 63.9269 63.876C63.6925 64.1104 63.5608 64.4283 63.5608 64.7599V70.6999H58.1908V64.7599C58.1908 64.4283 58.0591 64.1104 57.8247 63.876C57.5902 63.6416 57.2723 63.5099 56.9408 63.5099H43.0608C42.7293 63.5099 42.4113 63.6416 42.1769 63.876C41.9425 64.1104 41.8108 64.4283 41.8108 64.7599V70.6999H36.4408V64.7599C36.4408 64.4283 36.3091 64.1104 36.0747 63.876C35.8402 63.6416 35.5223 63.5099 35.1908 63.5099H21.3008C20.9693 63.5099 20.6513 63.6416 20.4169 63.876C20.1825 64.1104 20.0508 64.4283 20.0508 64.7599V78.6399C20.0508 78.9714 20.1825 79.2893 20.4169 79.5237C20.6513 79.7582 20.9693 79.8899 21.3008 79.8899H35.1908C35.5223 79.8899 35.8402 79.7582 36.0747 79.5237C36.3091 79.2893 36.4408 78.9714 36.4408 78.6399V72.6999H41.8108V78.6399C41.8108 78.9714 41.9425 79.2893 42.1769 79.5237C42.4113 79.7582 42.7293 79.8899 43.0608 79.8899H56.9408C57.2723 79.8899 57.5902 79.7582 57.8247 79.5237C58.0591 79.2893 58.1908 78.9714 58.1908 78.6399V72.6999H63.5608V78.6399C63.5608 78.804 63.5931 78.9666 63.6559 79.1182C63.7188 79.2699 63.8108 79.4077 63.9269 79.5237C64.043 79.6398 64.1808 79.7319 64.3324 79.7947C64.4841 79.8575 64.6466 79.8899 64.8108 79.8899H78.7008C78.8691 79.8966 79.037 79.8693 79.1945 79.8095C79.352 79.7497 79.4957 79.6587 79.6172 79.5419C79.7386 79.4251 79.8352 79.2851 79.9011 79.1301C79.967 78.975 80.0009 78.8083 80.0008 78.6399V64.7599C80.0008 64.4283 79.8691 64.1104 79.6347 63.876C79.4002 63.6416 79.0823 63.5099 78.7508 63.5099H72.7508V58.3399H78.7008ZM34.4408 34.4899H22.0508V22.1099H34.4408V34.4899ZM43.8108 22.1099H56.1908V34.4899H43.8108V22.1099ZM56.1908 56.3399H43.8108V43.9999H56.1908V56.3399ZM34.4408 77.8899H22.0508V65.5099H34.4408V77.8899ZM56.1908 77.8899H43.8108V65.5099H56.1908V77.8899ZM77.9508 77.8899H65.5608V65.5099H78.0008L77.9508 77.8899ZM65.5608 43.9999H78.0008V56.3399H65.5608V43.9999Z" fill="#0109C4"/>
</g>
<defs>
<clipPath id="clip0_406_5930">
<rect width="100" height="100" fill="white"/>
</clipPath>
</defs>
</svg>
