<svg width="128" height="36" viewBox="0 0 128 36" fill="none" xmlns="http://www.w3.org/2000/svg">
<path d="M78.2218 1.16577H77.1836V34.8341H78.2218V1.16577Z" fill="#312D2A"/>
<path d="M29.7446 19.4732H34.1626L31.8321 15.1046L27.5467 22.9836H25.6028L30.8049 13.5288C31.0369 13.1444 31.4124 12.9138 31.8321 12.9138C32.2297 12.9138 32.6053 13.1316 32.8372 13.5031L38.0615 22.9836H36.1065L35.1898 21.2156H30.7166L29.7446 19.4732ZM49.99 21.2412V13.0291H48.3443V22.0483C48.3443 22.3046 48.4327 22.5352 48.5873 22.7273C48.753 22.9067 48.9739 23.0092 49.1948 23.0092H56.7385L57.7215 21.254H49.99M22.6206 19.7679C24.2332 19.7679 25.5255 18.2562 25.5255 16.3985C25.5255 14.5409 24.2332 13.0291 22.6206 13.0291H15.3862V23.0092H17.0429V14.7843H22.5212C23.2833 14.7843 23.9129 15.5145 23.9129 16.3985C23.9129 17.2825 23.2833 18.0128 22.5212 18.0128H17.8603L22.7863 23.0092H25.1941L21.8806 19.7807H22.6206M5.21378 22.9964C2.83912 22.9964 0.90625 20.7544 0.90625 18.0128C0.90625 15.2583 2.82807 13.0291 5.21378 13.0291H10.2061C12.5808 13.0291 14.5026 15.2583 14.5026 18.0128C14.5026 20.7672 12.5808 22.9964 10.2061 22.9964H5.21378ZM10.0957 21.2412C11.6309 21.2412 12.89 19.7935 12.89 18.0128C12.89 16.232 11.6419 14.7843 10.0957 14.7843H5.32423C3.78898 14.7843 2.5409 16.232 2.5409 18.0128C2.5409 19.7935 3.78898 21.2412 5.32423 21.2412H10.0957ZM41.5075 22.9964C39.1328 22.9964 37.211 20.7544 37.211 18.0128C37.211 15.2583 39.1328 13.0291 41.5075 13.0291H47.4497L46.4777 14.7843H41.618C40.0827 14.7843 38.8346 16.232 38.8346 18.0128C38.8346 19.7935 40.0827 21.2412 41.618 21.2412H47.5822L46.6103 22.9964H41.5075ZM61.7419 21.2412C60.4717 21.2412 59.4003 20.2419 59.069 18.8967H66.1267L67.1097 17.1288H59.069C59.3893 15.7708 60.4717 14.7715 61.7419 14.7715H66.6017L67.5736 13.0163H61.6314C59.2568 13.0163 57.3239 15.2455 57.3239 17.9999C57.3239 20.7544 59.2457 22.9836 61.6314 22.9836H66.7342L67.7061 21.2284H61.7419V21.2412Z" fill="#C94634"/>
<path d="M88.668 22.9322V12.9521H91.4844C93.4836 12.9521 94.4776 14.0027 94.4776 16.1166C94.4776 18.2304 93.4836 19.281 91.4844 19.281H89.7614V22.9194H88.668V22.9322ZM91.2635 13.9642H89.7614V18.2689H91.2635C92.0035 18.2689 92.5447 18.0895 92.8761 17.7436C93.2074 17.3977 93.3842 16.8468 93.3842 16.1166C93.3842 15.3735 93.2185 14.8354 92.8761 14.4895C92.5337 14.1436 92.0035 13.9642 91.2635 13.9642Z" fill="#312D2A"/>
<path d="M99.4684 22.9321L99.2916 21.7791C98.7836 22.6503 98.0988 23.0859 97.2373 23.0859C96.6188 23.0859 96.1107 22.8809 95.7352 22.4709C95.3596 22.0609 95.1719 21.5229 95.1719 20.8439C95.1719 20.088 95.3928 19.5115 95.8456 19.0887C96.2874 18.6787 96.917 18.4609 97.7122 18.4609H99.137V18.0125C99.137 17.5001 99.0376 17.1414 98.8498 16.9236C98.6621 16.7186 98.3307 16.6033 97.8668 16.6033C97.5686 16.6033 97.2483 16.6417 96.9059 16.7186C96.5635 16.7955 96.188 16.9236 95.7573 17.0901V16.0908C96.0555 15.9371 96.3979 15.809 96.7844 15.7321C97.171 15.6424 97.5355 15.604 97.8779 15.604C99.4352 15.604 100.208 16.4111 100.208 17.9997V22.9193H99.4684V22.9321ZM97.3588 22.0994C97.7233 22.0994 98.0657 21.9841 98.3749 21.7407C98.6952 21.4972 98.9382 21.1641 99.137 20.7414V19.3834H97.8116C97.2704 19.3834 96.8838 19.4987 96.6188 19.7165C96.3647 19.9471 96.2322 20.2802 96.2322 20.7542C96.2322 21.1641 96.3316 21.4972 96.5304 21.7407C96.7403 21.9713 97.0164 22.0994 97.3588 22.0994Z" fill="#312D2A"/>
<path d="M101.91 22.9322V15.7706H102.628L102.838 17.1158C103.236 16.2062 103.821 15.7578 104.561 15.7578C104.716 15.7578 104.859 15.7706 104.981 15.7962V16.8852H104.705C104.252 16.8852 103.876 17.0261 103.578 17.3208C103.28 17.6155 103.07 18.0382 102.959 18.6019V22.945H101.91V22.9322Z" fill="#312D2A"/>
<path d="M106.849 20.7542V16.7827H105.789V16.1549L106.849 15.7449L107.28 13.7976H107.921V15.7706H109.257V16.7827H107.91V20.7414C107.91 21.5229 108.197 21.92 108.782 21.92C108.882 21.92 108.97 21.9072 109.058 21.8944C109.147 21.8816 109.235 21.8688 109.312 21.856V22.9321C109.202 22.9577 109.092 22.9834 108.97 22.9834C108.86 22.9962 108.738 22.9962 108.606 22.9962C107.998 22.9962 107.545 22.8168 107.258 22.4453C106.993 22.0866 106.849 21.5229 106.849 20.7542Z" fill="#312D2A"/>
<path d="M110.637 22.9322V15.7707H111.355L111.542 16.9878C111.807 16.5522 112.128 16.2063 112.503 15.9757C112.879 15.7322 113.31 15.6169 113.785 15.6169C114.491 15.6169 115.044 15.8604 115.419 16.36C115.795 16.8596 115.982 17.5643 115.982 18.4995V22.9322H114.922V18.5379C114.922 17.2952 114.458 16.6675 113.531 16.6675C113.133 16.6675 112.779 16.8084 112.448 17.0903C112.117 17.3721 111.874 17.7436 111.708 18.2177V22.9194H110.637V22.9322Z" fill="#312D2A"/>
<path d="M122.367 22.5734C122.146 22.7271 121.848 22.8553 121.484 22.9449C121.119 23.0346 120.721 23.0859 120.28 23.0859C119.297 23.0859 118.557 22.7656 118.06 22.125C117.563 21.4844 117.309 20.5364 117.309 19.2937C117.309 18.0894 117.552 17.1798 118.027 16.5649C118.501 15.9499 119.186 15.6296 120.081 15.6296C121.804 15.6296 122.654 16.7314 122.654 18.935V19.7293H118.38C118.424 20.5364 118.612 21.1257 118.932 21.4973C119.253 21.8688 119.738 22.0481 120.379 22.0481C120.733 22.0481 121.064 22.0097 121.384 21.92C121.704 21.8432 122.025 21.715 122.356 21.5357V22.5734H122.367ZM120.081 16.6289C119.562 16.6289 119.153 16.8083 118.866 17.167C118.579 17.5257 118.424 18.051 118.391 18.7428H121.638C121.638 17.9869 121.517 17.4489 121.274 17.1286C121.031 16.7955 120.633 16.6289 120.081 16.6289Z" fill="#312D2A"/>
<path d="M124.012 22.9322V15.7706H124.73L124.939 17.1158C125.337 16.2062 125.922 15.7578 126.663 15.7578C126.817 15.7578 126.961 15.7706 127.082 15.7962V16.8852H126.806C126.353 16.8852 125.978 17.0261 125.68 17.3208C125.381 17.6155 125.171 18.0382 125.061 18.6019V22.945H124.012V22.9322Z" fill="#312D2A"/>
</svg>
