<svg width="78" height="74" viewBox="0 0 78 74" fill="none" xmlns="http://www.w3.org/2000/svg">
<g clip-path="url(#clip0_406_5963)">
<path d="M73.0127 74H4.98727C2.22182 74 0 72.0126 0 69.5389V4.46114C0 1.98743 2.22182 0 4.98727 0H73.0364C75.7782 0 78 1.98743 78 4.46114V69.56C78 72.0126 75.7782 74 73.0127 74Z" fill="#032E61"/>
<path d="M34.4868 14.7789C36.2122 13.172 38.6704 12.136 41.3413 12.136C44.9577 12.136 48.0541 13.9331 49.7086 16.5971C51.1504 16.0263 52.7341 15.688 54.3886 15.688C60.8177 15.688 66.065 20.4029 66.065 26.196C66.065 31.9891 60.865 36.704 54.3886 36.704C53.585 36.704 52.805 36.6406 52.0722 36.5137C50.6304 38.8394 47.8177 40.4463 44.6504 40.4463C43.2795 40.4463 42.0504 40.1926 40.8922 39.664C39.3795 42.7509 35.9995 44.9497 31.9577 44.9497C27.7741 44.9497 24.1577 42.5606 22.7868 39.2623C22.2195 39.3891 21.5577 39.4526 20.9195 39.4526C15.9322 39.4526 11.9141 35.7737 11.9141 31.3337C11.9141 28.3103 13.7104 25.6463 16.4522 24.2297C15.885 23.0668 15.5777 21.8406 15.5777 20.4874C15.5777 15.3286 20.2577 11.1423 26.1195 11.1423C29.5941 11.1 32.6195 12.5166 34.4868 14.7789Z" fill="#00A1E0"/>
<path d="M19.8555 28.6485C19.8555 28.7119 19.8555 28.7119 19.8555 28.7753C19.9264 28.8388 20.0682 28.9022 20.1391 28.9656C20.7064 29.2193 21.2264 29.2828 21.7227 29.2828C22.81 29.2828 23.5191 28.7753 23.5191 27.9296C23.5191 27.1473 22.7155 26.8302 22.0064 26.6399H21.9355C21.3682 26.5131 20.9191 26.3228 20.9191 25.9845C20.9191 25.7308 21.2027 25.5405 21.6518 25.5405C22.1482 25.5405 22.6682 25.6673 23.0936 25.8576C23.0936 25.8576 23.1646 25.9211 23.2355 25.8576C23.2355 25.7942 23.4482 25.3502 23.4482 25.3502C23.4482 25.2868 23.4482 25.2868 23.3773 25.2233C22.9518 24.9696 22.3609 24.8428 21.7936 24.8428H21.6518C20.6355 24.8428 19.9264 25.4136 19.9264 26.1959C19.9264 27.0416 20.73 27.2953 21.4391 27.4856L21.5809 27.5491C22.0773 27.6759 22.5973 27.8028 22.5973 28.1199C22.5973 28.4371 22.3136 28.6273 21.7936 28.6273C21.5809 28.6273 20.99 28.6273 20.3518 28.2468C20.2809 28.1833 20.21 28.1833 20.1391 28.1199C20.1391 28.1199 19.9973 28.0565 19.9973 28.1833L19.8555 28.6485Z" fill="white"/>
<path d="M36.0938 28.6485C36.0938 28.7119 36.0938 28.7119 36.0938 28.7753C36.1647 28.8388 36.3065 28.9022 36.3774 28.9656C36.9447 29.2193 37.4647 29.2828 37.961 29.2828C39.0483 29.2828 39.7574 28.7753 39.7574 27.9296C39.7574 27.1473 38.9538 26.8302 38.2447 26.6399H38.1738C37.6065 26.5131 37.1574 26.3228 37.1574 25.9845C37.1574 25.7308 37.441 25.5405 37.8901 25.5405C38.3865 25.5405 38.9065 25.6673 39.3319 25.8576C39.3319 25.8576 39.4028 25.9211 39.4738 25.8576C39.4738 25.7942 39.6865 25.3502 39.6865 25.3502C39.6865 25.2868 39.6865 25.2868 39.6156 25.2233C39.1901 24.9696 38.5992 24.8428 38.0319 24.8428H37.8901C36.8738 24.8428 36.1647 25.4136 36.1647 26.1959C36.1647 27.0416 36.9683 27.2953 37.6774 27.4856L37.8192 27.5491C38.3156 27.6759 38.8356 27.8028 38.8356 28.1199C38.8356 28.4371 38.5519 28.6273 38.0319 28.6273C37.8192 28.6273 37.2283 28.6273 36.5901 28.2468C36.5192 28.1833 36.4483 28.1833 36.3774 28.1199C36.3774 28.1199 36.2356 28.0565 36.2356 28.1833L36.0938 28.6485Z" fill="white"/>
<path d="M48.1237 26.1324C48.0528 25.8787 47.911 25.625 47.6983 25.4136C47.4855 25.2233 47.2728 25.033 46.9655 24.9696C46.6819 24.8427 46.3274 24.7793 45.9492 24.7793C45.5946 24.7793 45.2164 24.8427 44.9328 24.9696C44.6492 25.0964 44.4364 25.2233 44.2001 25.477C43.9874 25.6673 43.8455 25.921 43.7746 26.1959C43.7037 26.4496 43.6328 26.7667 43.6328 27.105C43.6328 27.4222 43.7037 27.7604 43.7746 28.0142C43.8455 28.2679 43.9874 28.5216 44.2001 28.733C44.4128 28.9233 44.6255 29.1136 44.9328 29.177C45.2164 29.3039 45.571 29.3673 45.9492 29.3673C46.3037 29.3673 46.6819 29.3039 46.9655 29.177C47.2492 29.0502 47.4619 28.9233 47.6983 28.733C47.911 28.5427 48.0528 28.289 48.1237 28.0142C48.1946 27.7393 48.2655 27.4433 48.2655 27.105C48.2655 26.7033 48.1946 26.3862 48.1237 26.1324ZM47.1783 26.9782C47.1783 27.4222 47.1074 27.8239 46.8946 28.0776C46.6819 28.3313 46.3983 28.4582 45.9492 28.4582C45.5001 28.4582 45.2164 28.3313 45.0746 28.0776C44.8619 27.8239 44.791 27.4222 44.791 26.9782C44.791 26.5342 44.8619 26.1324 45.0746 25.8787C45.2874 25.625 45.571 25.4982 45.9492 25.4982C46.3746 25.4982 46.6819 25.625 46.8946 25.8787C47.1074 26.1324 47.1783 26.513 47.1783 26.9782Z" fill="white"/>
<path d="M55.7105 28.3947C55.7105 28.3313 55.5687 28.3313 55.5687 28.3313C55.4269 28.3947 55.2851 28.3947 55.1432 28.4582C55.0014 28.4582 54.7887 28.5216 54.6469 28.5216C54.2214 28.5216 53.8432 28.3947 53.5596 28.141C53.276 27.8873 53.1341 27.4856 53.1341 26.9782C53.1341 26.5342 53.276 26.1324 53.4887 25.8787C53.7014 25.625 54.056 25.4982 54.5051 25.4982C54.8596 25.4982 55.1432 25.5616 55.5214 25.625C55.5214 25.625 55.5923 25.625 55.5923 25.5616C55.6632 25.3713 55.7342 25.2444 55.8051 24.9907C55.8051 24.9273 55.8051 24.9273 55.7341 24.8639C55.5923 24.8004 55.3087 24.737 55.096 24.737C54.8832 24.737 54.6705 24.6736 54.3632 24.6736C54.0087 24.6736 53.6305 24.737 53.3469 24.8639C53.0632 24.9907 52.7796 25.1176 52.6141 25.3079C52.4014 25.4982 52.2596 25.7519 52.1887 26.0267C52.1178 26.2804 52.0469 26.5976 52.0469 26.9359C52.0469 27.6547 52.2596 28.1622 52.6851 28.6062C53.1105 28.9867 53.7014 29.2616 54.4814 29.2616C54.9778 29.2616 55.4269 29.1982 55.7814 29.0713C55.7814 29.0713 55.8523 29.0713 55.8523 28.9444L55.7105 28.3947Z" fill="white"/>
<path d="M60.461 25.9421C60.3901 25.6884 60.1773 25.4347 60.0355 25.2867C59.8228 25.0964 59.6101 24.9695 59.4683 24.9061C59.1846 24.7792 58.901 24.7158 58.5937 24.7158C58.2392 24.7158 57.861 24.7792 57.5773 24.9061C57.2937 25.033 57.081 25.1598 56.8446 25.4135C56.6319 25.6038 56.4901 25.8575 56.4192 26.1324C56.3483 26.3861 56.2773 26.7032 56.2773 27.0415C56.2773 27.3587 56.3483 27.697 56.4192 27.9507C56.4901 28.2044 56.6319 28.4581 56.8446 28.6695C57.0573 28.8598 57.341 29.0501 57.6482 29.1135C57.9319 29.2404 58.381 29.3038 58.8064 29.3038C59.7519 29.3038 60.1773 29.1135 60.3901 29.0501C60.3901 29.0501 60.461 28.9867 60.3901 28.9232L60.1773 28.4158C60.1773 28.3524 60.0355 28.3524 60.0355 28.3524C59.8228 28.4158 59.4683 28.5427 58.7355 28.5427C58.2392 28.5427 57.861 28.4158 57.6482 28.2255C57.4355 28.0352 57.2937 27.7181 57.2937 27.3164H60.3901C60.3901 27.3164 60.461 27.3164 60.461 27.253C60.5319 27.105 60.6737 26.5764 60.461 25.9421ZM57.3646 26.513C57.4355 26.2592 57.5064 26.0055 57.6482 25.8575C57.861 25.6038 58.1446 25.477 58.5228 25.477C58.8773 25.477 59.161 25.6038 59.3973 25.8575C59.5392 26.0478 59.6101 26.2381 59.6101 26.513H57.3646Z" fill="white"/>
<path d="M35.3594 25.9421C35.2885 25.6884 35.0758 25.4347 34.934 25.2867C34.7212 25.0964 34.5085 24.9695 34.3667 24.9061C34.0831 24.7792 33.7994 24.7158 33.4921 24.7158C33.1376 24.7158 32.7594 24.7792 32.4758 24.9061C32.1921 25.033 31.9794 25.1598 31.7431 25.4135C31.5303 25.6038 31.3885 25.8575 31.3176 26.1324C31.2467 26.3861 31.1758 26.7032 31.1758 27.0415C31.1758 27.3587 31.2467 27.697 31.3176 27.9507C31.3885 28.2044 31.5303 28.4581 31.7431 28.6695C31.9558 28.8598 32.2394 29.0501 32.5467 29.1135C32.8303 29.2404 33.2794 29.3038 33.7049 29.3038C34.6503 29.3038 35.0758 29.1135 35.2885 29.0501C35.2885 29.0501 35.3594 28.9867 35.2885 28.9232L35.0758 28.4158C35.0758 28.3524 34.934 28.3524 34.934 28.3524C34.7212 28.4158 34.3667 28.5427 33.634 28.5427C33.1376 28.5427 32.7594 28.4158 32.5467 28.2255C32.334 28.0352 32.1921 27.7181 32.1921 27.3164H35.2885C35.2885 27.3164 35.3594 27.3164 35.3594 27.253C35.4303 27.105 35.5721 26.5764 35.3594 25.9421ZM32.2631 26.513C32.334 26.2592 32.4049 26.0055 32.5467 25.8575C32.7594 25.6038 33.0431 25.477 33.4212 25.477C33.8467 25.477 34.0594 25.6038 34.2958 25.8575C34.4376 26.0478 34.5085 26.2381 34.5085 26.513H32.2631Z" fill="white"/>
<path d="M26.7086 26.3861C26.5668 26.3861 26.4249 26.3861 26.2122 26.3861C25.9286 26.3861 25.7159 26.3861 25.4086 26.4495C25.1959 26.513 24.9831 26.5764 24.7704 26.7032C24.5577 26.8301 24.4159 26.957 24.3449 27.1472C24.2031 27.3375 24.2031 27.5278 24.2031 27.8027C24.2031 28.0775 24.274 28.2467 24.3449 28.4581C24.4159 28.6484 24.5577 28.7752 24.7704 28.9021C24.9122 29.029 25.1249 29.0924 25.4086 29.1558C25.6213 29.2192 25.9049 29.2192 26.2831 29.2192C26.5668 29.2192 26.9213 29.2192 27.2286 29.1558C27.5122 29.0924 27.8668 29.029 28.0322 29.029C28.1031 29.029 28.2449 28.9655 28.2449 28.9655C28.3159 28.9655 28.3159 28.9021 28.3159 28.9021V26.3227C28.3159 25.7518 28.174 25.3501 27.8195 25.0964C27.4649 24.8427 27.0159 24.7158 26.3777 24.7158C26.1649 24.7158 25.7395 24.7158 25.5031 24.7792C25.5031 24.7792 24.8649 24.9061 24.5577 25.0964C24.5577 25.0964 24.4868 25.1598 24.5577 25.2232L24.7704 25.7307C24.7704 25.7941 24.8413 25.7941 24.8413 25.7941C24.8413 25.7941 24.8413 25.7941 24.9122 25.7941C25.4795 25.477 26.2831 25.5404 26.2831 25.5404C26.6377 25.5404 26.8504 25.6038 27.0868 25.7307C27.2286 25.8575 27.3704 26.0478 27.3704 26.3861V26.513C26.9213 26.4495 26.7086 26.3861 26.7086 26.3861ZM25.4795 28.3947C25.3377 28.3312 25.3377 28.2678 25.2668 28.2044C25.1959 28.141 25.1959 28.0141 25.1959 27.8238C25.1959 27.5701 25.2668 27.3798 25.4795 27.3164C25.4795 27.3164 25.7631 27.1261 26.4249 27.1261C26.8504 27.1261 27.2995 27.1895 27.2995 27.1895V28.4792C27.2995 28.4792 26.874 28.5427 26.4249 28.6061C25.6922 28.585 25.4795 28.3947 25.4795 28.3947Z" fill="white"/>
<path d="M51.9534 24.9696C51.9534 24.9062 51.9534 24.9062 51.8824 24.8427C51.8115 24.8427 51.5988 24.7793 51.3861 24.7793C51.0315 24.7793 50.8188 24.8427 50.5824 24.9062C50.3697 24.9696 50.157 25.0964 50.0861 25.2233V24.9062C50.0861 24.8427 50.0152 24.8427 50.0152 24.8427H49.2115C49.1406 24.8427 49.1406 24.9062 49.1406 24.9062V29.0924C49.1406 29.1559 49.2115 29.1559 49.2115 29.1559H50.0152C50.0861 29.1559 50.0861 29.0924 50.0861 29.0924V27.0204C50.0861 26.7667 50.0861 26.4496 50.157 26.3016C50.2279 26.1113 50.2988 25.9844 50.4406 25.921C50.5824 25.7942 50.6534 25.7307 50.7952 25.7307C50.937 25.6673 51.0788 25.6673 51.2206 25.6673C51.3624 25.6673 51.5752 25.7307 51.5752 25.7307C51.6461 25.7307 51.6461 25.7307 51.717 25.6673C51.8115 25.4136 51.9534 25.033 51.9534 24.9696Z" fill="white"/>
<path d="M44.2248 23.0456C44.1539 23.0456 44.0121 22.9822 43.9412 22.9822C43.7994 22.9822 43.6576 22.9822 43.5157 22.9822C42.9485 22.9822 42.4994 23.109 42.2157 23.4262C41.9321 23.6799 41.7194 24.145 41.5776 24.7159L41.5067 24.9062H40.7739C40.7739 24.9062 40.703 24.9062 40.703 24.9696L40.5612 25.5405C40.5612 25.6039 40.5612 25.6039 40.6321 25.6039H41.3648L40.6321 29.0925C40.5612 29.3462 40.4903 29.5999 40.4194 29.8113C40.3485 30.0016 40.2776 30.1285 40.2067 30.1919C40.1357 30.2553 40.0648 30.3187 39.923 30.3822C39.7812 30.4456 39.7103 30.4456 39.5685 30.4456C39.4976 30.4456 39.4266 30.4456 39.3557 30.4456C39.2848 30.4456 39.2139 30.4456 39.2139 30.3822C39.2139 30.3822 39.143 30.3822 39.0721 30.4456C39.0721 30.509 38.8594 30.953 38.8594 31.0165C38.8594 31.0799 38.8594 31.1433 38.9303 31.1433C39.0012 31.1433 39.0721 31.2068 39.2139 31.2068C39.3557 31.2702 39.4976 31.2702 39.6394 31.2702C39.923 31.2702 40.2067 31.2067 40.443 31.1433C40.6557 31.0799 40.8685 30.953 41.0103 30.7627C41.223 30.5725 41.2939 30.3822 41.4357 30.1073C41.5776 29.8536 41.6485 29.5365 41.7194 29.1348L42.4521 25.5827H43.4685C43.4685 25.5827 43.5394 25.5827 43.5394 25.5193L43.6812 24.9485C43.6812 24.885 43.6812 24.885 43.6103 24.885H42.5939C42.5939 24.885 42.6648 24.5679 42.7357 24.2296C42.8066 24.1027 42.8776 23.9759 42.9485 23.9125C43.0194 23.849 43.0903 23.7856 43.2321 23.7856C43.303 23.7856 43.4448 23.7222 43.5866 23.7222C43.6576 23.7222 43.7994 23.7222 43.8703 23.7222C43.9412 23.7222 44.0121 23.7222 44.0121 23.7856C44.083 23.7856 44.1539 23.7856 44.1539 23.7222L44.3666 23.1513C44.2957 23.0456 44.2957 23.0456 44.2248 23.0456Z" fill="white"/>
<path d="M30.231 29.0924C30.231 29.1558 30.1601 29.1558 30.1601 29.1558H29.3092C29.2383 29.1558 29.2383 29.0924 29.2383 29.0924V23.0878C29.2383 23.0244 29.3092 23.0244 29.3092 23.0244H30.1837C30.2546 23.0244 30.2546 23.0878 30.2546 23.0878V29.0924H30.231Z" fill="white"/>
<path d="M17.0892 50.9331H15.6001H13.4492V56.4302V58.8828H15.6001V56.4514H17.0892C18.791 56.4514 20.1619 55.2251 20.1619 53.7028C20.1619 52.1805 18.791 50.9331 17.0892 50.9331ZM16.8529 54.5062H15.6001V52.8783H16.8529C17.3492 52.8783 17.7747 53.2377 17.7747 53.7028C17.7747 54.168 17.3492 54.5062 16.8529 54.5062Z" fill="white"/>
<path d="M24.6064 50.9331H22.7628H22.7392L19.3828 58.8828H21.6992L22.1246 57.72H25.2683L25.6937 58.8828H28.0101L24.6064 50.9331ZM22.7392 56.0497L23.6846 53.4491L24.6301 56.0497H22.7392Z" fill="white"/>
<path d="M35.6893 53.7029C35.6893 52.1806 34.3184 50.9543 32.6166 50.9543H31.1275H28.9766V56.4515V58.9041H31.1275V56.4515L33.1602 58.9041H35.8311L33.6329 56.3035C34.8147 55.9018 35.6893 54.8869 35.6893 53.7029ZM32.3566 54.5063H31.1038V52.8783H32.3566C32.8529 52.8783 33.2784 53.2378 33.2784 53.7029C33.2784 54.1681 32.8766 54.5063 32.3566 54.5063Z" fill="white"/>
<path d="M62.3519 56.2823C63.5337 55.9018 64.4082 54.8869 64.4082 53.7029C64.4082 52.1806 63.0373 50.9543 61.3355 50.9543H59.8464H57.6719V56.4515V58.9041H59.8228V56.4515L61.8555 58.9041H64.5264L62.3519 56.2823ZM59.8228 52.8783H61.0755C61.5719 52.8783 61.9973 53.2378 61.9973 53.7029C61.9973 54.1681 61.5955 54.5275 61.0755 54.5275H59.8228V52.8783Z" fill="white"/>
<path d="M47.6733 55.7114L44.5533 50.9331H42.4023V58.8828H44.5533V54.1891L47.6733 58.8828H49.8242V50.9331H47.6733V55.7114Z" fill="white"/>
<path d="M37.6052 50.9331H35.7852V52.6668H37.6052V58.8828H39.7561V52.6668H41.5761V50.9331H39.7561H37.6052Z" fill="white"/>
<path d="M51.3398 50.9331V52.6668V54.0411V55.7748V57.1491V58.8828H53.5144H56.3035V57.1491H53.5144V55.7748H56.3035V54.0411H53.5144V52.6668H56.3035V50.9331H53.5144H51.3398Z" fill="white"/>
</g>
<defs>
<clipPath id="clip0_406_5963">
<rect width="78" height="74" fill="white"/>
</clipPath>
</defs>
</svg>
