<svg width="148" height="50" viewBox="0 0 148 50" fill="none" xmlns="http://www.w3.org/2000/svg">
<g clip-path="url(#clip0_406_6018)">
<path d="M14.8016 28.3999H13.1016V18.6999C13.1016 17.8999 13.1016 16.9999 13.2016 15.8999C13.1016 16.3999 12.9016 16.7999 12.8016 17.2999L7.90156 28.3999H7.10156L2.20156 17.3999C2.00156 16.8999 1.90156 16.3999 1.80156 15.8999C1.90156 16.4999 1.90156 17.3999 1.90156 18.6999V28.3999H0.101562V13.9999H2.30156L6.80156 23.9999C7.10156 24.5999 7.30156 25.0999 7.50156 25.6999H7.60156C7.90156 24.7999 8.20156 24.1999 8.30156 23.8999L12.8016 13.8999H14.9016V28.3999" fill="#080808"/>
<path d="M19.5031 28.3999H17.9031V18.0999H19.5031V28.3999ZM19.8031 14.3999C19.8031 14.6999 19.7031 14.9999 19.5031 15.1999C19.1031 15.5999 18.4031 15.5999 18.0031 15.1999C17.8031 14.9999 17.7031 14.6999 17.7031 14.3999C17.7031 14.0999 17.8031 13.8999 18.0031 13.6999C18.2031 13.4999 18.5031 13.3999 18.8031 13.3999C19.1031 13.3999 19.4031 13.4999 19.6031 13.6999C19.7031 13.8999 19.8031 14.0999 19.8031 14.3999Z" fill="#080808"/>
<path d="M29.3031 27.9C28.4031 28.4 27.5031 28.6 26.5031 28.6C25.6031 28.6 24.7031 28.4 24.0031 28C23.3031 27.6 22.6031 26.9 22.3031 26.2C21.9031 25.4 21.7031 24.5 21.7031 23.5C21.7031 21.8 22.2031 20.4 23.2031 19.4C24.2031 18.4 25.5031 17.8 27.1031 17.9C27.9031 17.9 28.7031 18.1 29.5031 18.4V20.1C28.8031 19.6 27.9031 19.3 27.1031 19.3C26.1031 19.3 25.2031 19.7 24.5031 20.4C23.8031 21.2 23.5031 22.1 23.5031 23.3C23.5031 24.5 23.8031 25.5 24.4031 26.1C25.1031 26.8 26.0031 27.2 26.9031 27.1C27.8031 27.1 28.7031 26.8 29.4031 26.2L29.3031 27.9Z" fill="#080808"/>
<path d="M36.6031 19.7999C36.2031 19.5999 35.8031 19.3999 35.3031 19.4999C34.6031 19.4999 34.0031 19.7999 33.5031 20.4999C33.0031 21.1999 32.8031 22.0999 32.8031 23.1999V28.3999H31.2031V18.0999H32.8031V20.1999C33.0031 19.5999 33.4031 18.9999 33.9031 18.4999C34.3031 18.0999 34.9031 17.8999 35.5031 17.8999C35.8031 17.8999 36.2031 17.8999 36.5031 17.9999L36.6031 19.7999Z" fill="#080808"/>
<path d="M45.3023 23.3C45.3023 22 45.0023 21 44.4023 20.3C43.8023 19.6 43.0023 19.3 41.9023 19.3C40.8023 19.3 40.0023 19.7 39.4023 20.4C38.8023 21.1 38.5023 22.1 38.5023 23.4C38.5023 24.6 38.8023 25.6 39.4023 26.3C40.0023 27 40.9023 27.3 41.9023 27.3C43.0023 27.3 43.8023 27 44.4023 26.3C45.0023 25.5 45.3023 24.6 45.3023 23.3ZM47.0023 23.2001C47.0023 24.8001 46.5023 26.1 45.6023 27.1C44.7023 28.1 43.4023 28.6 41.9023 28.6C40.4023 28.6 39.2023 28.1 38.3023 27.1C37.4023 26.1 36.9023 24.9 36.9023 23.3C36.9023 21.6 37.4023 20.3 38.3023 19.3C39.2023 18.3 40.5023 17.8 42.1023 17.8C43.6023 17.8 44.8023 18.3001 45.7023 19.2001C46.5023 20.2001 47.0023 21.6001 47.0023 23.2001Z" fill="#080808"/>
<path d="M54.6023 25.6C54.6023 26.4001 54.2023 27.3 53.6023 27.8C52.9023 28.4 52.0023 28.6 50.9023 28.6C50.0023 28.6 49.1023 28.4 48.4023 28V26.2001C49.1023 26.8001 50.1023 27.2001 51.1023 27.2001C52.4023 27.2001 53.1023 26.7 53.1023 25.8C53.1023 25.4 53.0023 25.1 52.7023 24.9C52.4023 24.7 51.9023 24.3 51.0023 23.9C50.1023 23.5 49.4023 23.1 49.1023 22.6C48.2023 21.4 48.4023 19.7001 49.6023 18.7001C50.3023 18.1001 51.3023 17.8 52.2023 17.8C53.0023 17.8 53.7023 18 54.4023 18.3V20C53.7023 19.5 52.9023 19.3 52.1023 19.3C51.6023 19.3 51.2023 19.4001 50.8023 19.7001C50.5023 19.9001 50.3023 20.3001 50.3023 20.7001C50.3023 21.1001 50.4023 21.5 50.7023 21.8C51.0023 22 51.5023 22.3001 52.3023 22.7001C53.3023 23.1001 54.0023 23.6 54.4023 24C54.4023 24.4 54.6023 25.0001 54.6023 25.6Z" fill="#080808"/>
<path d="M64.2031 23.3C64.2031 22 63.9031 21 63.3031 20.3C62.7031 19.6 61.9031 19.3 60.8031 19.3C59.7031 19.3 58.9031 19.7 58.3031 20.4C57.7031 21.1 57.4031 22.1 57.4031 23.4C57.4031 24.6 57.7031 25.6 58.3031 26.3C58.9031 27 59.9031 27.4 60.8031 27.3C61.9031 27.3 62.7031 27 63.3031 26.3C63.9031 25.5 64.2031 24.6 64.2031 23.3ZM65.8031 23.2001C65.8031 24.8001 65.3031 26.1 64.4031 27.1C63.5031 28.1 62.2031 28.6 60.7031 28.6C59.2031 28.6 58.0031 28.1 57.1031 27.1C56.2031 26.1 55.7031 24.9 55.7031 23.3C55.7031 21.6 56.2031 20.3 57.1031 19.3C58.0031 18.3 59.3031 17.8 60.9031 17.8C62.4031 17.8 63.6031 18.3001 64.5031 19.2001C65.4031 20.2001 65.8031 21.6001 65.8031 23.2001Z" fill="#080808"/>
<path d="M72.6 14.5999C72.3 14.3999 71.9 14.2999 71.5 14.2999C70.3 14.2999 69.8 14.9999 69.8 16.4999V18.0999H72.2V19.4999H69.8V28.3999H68.2V19.4999H66.5V18.0999H68.2V16.3999C68.2 15.3999 68.5 14.4999 69.1 13.8999C69.7 13.2999 70.6 12.8999 71.4 12.8999C71.8 12.8999 72.2 12.8999 72.6 13.0999V14.5999Z" fill="#080808"/>
<path d="M78.6016 28.3001C78.1016 28.5001 77.6016 28.7001 77.1016 28.6001C75.3016 28.6001 74.4016 27.6001 74.4016 25.6001V19.5001H72.6016V18.1001H74.4016V15.6001L76.0016 15.1001V18.2001H78.6016V19.6001H76.0016V25.4001C76.0016 26.1001 76.1016 26.6001 76.4016 26.9001C76.6016 27.2001 77.0016 27.3001 77.6016 27.3001C78.0016 27.3001 78.4016 27.2001 78.7016 27.0001V28.3001" fill="#080808"/>
<path d="M91.8008 18.4C91.8008 16.5 90.7008 15.5 88.4008 15.5H86.4008V21.4H88.2008C89.4008 21.4 90.2008 21.1 90.9008 20.6C91.6008 20.1 91.8008 19.4 91.8008 18.4ZM93.6008 18.3C93.6008 19.7 93.1008 20.8 92.2008 21.7C91.2008 22.6 90.0008 23 88.4008 23H86.5008V28.5H84.8008V14H88.8008C90.3008 14 91.5008 14.4 92.4008 15.1C93.1008 15.9 93.6008 16.9 93.6008 18.3Z" fill="#080808"/>
<path d="M100.502 23.1999L98.0016 23.4999C97.1016 23.5999 96.6016 23.7999 96.2016 24.0999C95.9016 24.3999 95.7016 24.7999 95.7016 25.4999C95.7016 25.9999 95.9016 26.3999 96.3016 26.6999C96.7016 26.9999 97.2016 27.1999 97.7016 27.1999C98.5016 27.1999 99.2016 26.8999 99.7016 26.2999C100.202 25.6999 100.502 24.8999 100.502 24.0999V23.1999ZM102.202 28.3999H100.602V26.7999C99.9016 27.9999 98.8016 28.6999 97.4016 28.6999C96.4016 28.6999 95.6016 28.3999 95.0016 27.8999C94.4016 27.2999 94.1016 26.4999 94.1016 25.6999C94.1016 23.7999 95.2016 22.6999 97.5016 22.2999L100.602 21.8999C100.602 20.1999 99.9016 19.2999 98.5016 19.2999C97.3016 19.2999 96.1016 19.6999 95.1016 20.5999V18.8999C95.6016 18.5999 96.1016 18.3999 96.6016 18.1999C97.2016 17.9999 97.9016 17.8999 98.5016 17.8999C100.902 17.8999 102.102 19.1999 102.102 21.7999L102.202 28.3999Z" fill="#080808"/>
<path d="M110.103 19.7999C109.703 19.5999 109.303 19.3999 108.803 19.4999C108.103 19.4999 107.503 19.7999 107.003 20.4999C106.503 21.1999 106.303 22.0999 106.303 23.1999V28.3999H104.703V18.0999H106.303V20.1999C106.503 19.5999 106.903 18.9999 107.403 18.4999C107.803 18.0999 108.403 17.8999 109.003 17.8999C109.303 17.8999 109.703 17.8999 110.003 17.9999L110.103 19.7999Z" fill="#080808"/>
<path d="M117.801 28.3001C117.301 28.5001 116.801 28.7001 116.301 28.6001C114.501 28.6001 113.601 27.6001 113.601 25.6001V19.5001H111.801V18.1001H113.601V15.6001L115.201 15.1001V18.2001H117.801V19.6001H115.201V25.4001C115.201 26.1001 115.301 26.6001 115.601 26.9001C115.801 27.2001 116.201 27.3001 116.801 27.3001C117.201 27.3001 117.601 27.2001 117.901 27.0001L117.801 28.3001Z" fill="#080808"/>
<path d="M128.603 28.4H127.003V22.5C127.003 20.3 126.203 19.2001 124.603 19.2001C123.803 19.2001 123.103 19.5 122.603 20.1C122.003 20.7 121.803 21.6 121.803 22.4V28.3H120.203V18.1H121.803V19.8C122.603 18.5 123.703 17.8 125.203 17.8C126.303 17.8 127.203 18.2 127.803 18.9C128.403 19.6 128.703 20.7 128.703 22L128.603 28.4Z" fill="#080808"/>
<path d="M137.702 22.2999C137.702 21.2999 137.502 20.5999 137.002 20.0999C136.502 19.5999 135.802 19.2999 135.102 19.2999C134.402 19.2999 133.702 19.5999 133.102 20.0999C132.502 20.6999 132.202 21.4999 132.102 22.2999H137.702ZM139.402 23.6999H132.102C132.102 24.8999 132.402 25.6999 133.002 26.3999C133.602 27.0999 134.402 27.2999 135.402 27.2999C136.602 27.2999 137.702 26.8999 138.602 26.1999V27.6999C137.702 28.3999 136.502 28.6999 135.002 28.6999C133.502 28.6999 132.402 28.1999 131.602 27.2999C130.802 26.3999 130.402 24.9999 130.402 23.3999C130.402 22.3999 130.602 21.4999 131.002 20.5999C131.402 19.7999 132.002 19.0999 132.702 18.5999C133.402 18.0999 134.302 17.8999 135.102 17.8999C136.402 17.8999 137.502 18.2999 138.202 19.1999C138.902 20.0999 139.302 21.2999 139.302 22.7999L139.402 23.6999Z" fill="#080808"/>
<path d="M146.701 19.7999C146.301 19.5999 145.901 19.3999 145.401 19.4999C144.701 19.4999 144.101 19.7999 143.601 20.4999C143.101 21.1999 142.901 22.0999 142.901 23.1999V28.3999H141.301V18.0999H142.901V20.1999C143.101 19.5999 143.501 18.9999 144.001 18.4999C144.401 18.0999 145.001 17.8999 145.601 17.8999C145.901 17.8999 146.301 17.8999 146.601 17.9999L146.701 19.7999Z" fill="#080808"/>
<path d="M112.602 46.1999L112.302 47.0999C112.202 46.7999 112.102 46.4999 112.002 46.1999L110.302 41.8999H108.602V48.6999H109.702V44.4999C109.702 44.1999 109.702 43.8999 109.702 43.5999C109.702 43.3999 109.702 43.2999 109.702 43.1999C109.802 43.4999 109.802 43.5999 109.902 43.7999L111.902 48.6999H112.702L114.702 43.6999C114.802 43.4999 114.802 43.2999 114.802 43.1999C114.802 43.6999 114.802 44.0999 114.702 44.3999V48.6999H115.902V41.8999H114.302L112.602 46.1999Z" fill="#777471"/>
<path d="M117 48.6999H118.1V45.0999V43.8999H117V46.7999V48.6999Z" fill="#777471"/>
<path d="M117.602 41.8C117.402 41.8 117.202 41.9 117.102 42C117.002 42.1 116.902 42.3 116.902 42.5C116.902 42.7 117.002 42.8 117.102 43C117.402 43.2 117.802 43.2 118.102 43C118.202 42.9 118.302 42.7 118.302 42.5C118.302 42.3 118.202 42.2 118.102 42C117.902 41.9 117.802 41.8 117.602 41.8Z" fill="#777471"/>
<path d="M122.2 43.7999C122 43.7999 121.8 43.7 121.6 43.7C121.1 43.7 120.6 43.8 120.2 44C119.8 44.2 119.5 44.5 119.3 44.9C119.1 45.3 119 45.7999 119 46.2999C119 46.6999 119.1 47.1999 119.3 47.5999C119.5 47.9999 119.8 48.3 120.2 48.5C120.6 48.7 121 48.7999 121.4 48.7999C121.9 48.7999 122.4 48.7 122.8 48.5V47.5C122.6 47.6 122.4 47.6999 122.2 47.7999C122 47.8999 121.8 47.9 121.7 47.9C121.3 47.9 120.9 47.8 120.6 47.5C120.3 47.2 120.2 46.7999 120.2 46.2999C120.2 45.8999 120.3 45.3999 120.6 45.0999C120.9 44.7999 121.3 44.6 121.7 44.7C122.1 44.7 122.5 44.7999 122.8 45.0999V44C122.5 43.9 122.4 43.8999 122.2 43.7999Z" fill="#777471"/>
<path d="M125.902 43.8C125.602 43.8 125.402 43.9 125.102 44.1C124.902 44.3 124.702 44.5 124.702 44.8V44H123.602V48.9001H124.702V46.4001C124.702 46.0001 124.802 45.7001 125.002 45.4001C125.202 45.2001 125.402 45 125.702 45C125.802 45 125.902 45 126.002 45.1C126.102 45.1 126.202 45.2001 126.302 45.2001V44C126.202 43.8 126.102 43.8 125.902 43.8Z" fill="#777471"/>
<path d="M129.902 47.4999C129.702 47.7999 129.302 47.8999 128.902 47.8999C128.502 47.8999 128.202 47.7999 127.902 47.4999C127.602 47.1999 127.502 46.7999 127.502 46.2999C127.502 45.8999 127.602 45.3999 127.902 45.0999C128.102 44.7999 128.502 44.6999 128.902 44.6999C129.302 44.6999 129.602 44.7999 129.802 45.0999C130.102 45.3999 130.202 45.8999 130.102 46.2999C130.302 46.6999 130.202 47.0999 129.902 47.4999ZM129.002 43.7999C128.302 43.7999 127.602 43.9999 127.102 44.4999C126.602 44.9999 126.402 45.6999 126.402 46.3999C126.402 47.0999 126.602 47.6999 127.102 48.1999C127.602 48.6999 128.202 48.8999 128.902 48.8999C129.602 48.8999 130.302 48.6999 130.802 48.1999C131.302 47.6999 131.502 46.9999 131.502 46.2999C131.502 45.5999 131.302 44.9999 130.902 44.4999C130.302 43.9999 129.702 43.6999 129.002 43.7999Z" fill="#777471"/>
<path d="M134.002 45.9001C133.802 45.8001 133.502 45.7 133.302 45.5C133.202 45.4 133.202 45.3 133.202 45.1C133.202 45 133.302 44.8 133.402 44.8C133.502 44.7 133.702 44.7001 133.902 44.7001C134.102 44.7001 134.302 44.7 134.502 44.8C134.702 44.9 134.902 44.9 135.002 45V44C134.802 43.9 134.702 43.9001 134.502 43.9001C134.302 43.9001 134.102 43.8 133.902 43.8C133.402 43.8 132.902 43.9001 132.602 44.2001C132.302 44.5001 132.102 44.9 132.102 45.3C132.102 45.5 132.102 45.7001 132.202 45.9001C132.302 46.1001 132.402 46.2001 132.502 46.4001C132.702 46.6001 132.902 46.7 133.202 46.8C133.402 46.9 133.602 47 133.802 47.1C133.902 47.2 134.002 47.2 134.102 47.3C134.202 47.4 134.202 47.5 134.202 47.6C134.202 47.9 134.002 48.1 133.502 48.1C133.302 48.1 133.102 48.1 132.902 48C132.702 47.9 132.502 47.8001 132.302 47.7001V48.8C132.502 48.9 132.702 48.9 132.902 49C133.102 49 133.302 49.1 133.602 49.1C134.102 49.1 134.602 49.0001 135.002 48.7001C135.302 48.4001 135.502 48 135.502 47.6C135.502 47.3 135.402 47 135.202 46.8C134.602 46.2 134.302 46.0001 134.002 45.9001Z" fill="#777471"/>
<path d="M139.203 47.4999C139.003 47.7999 138.603 47.8999 138.203 47.8999C137.803 47.8999 137.503 47.7999 137.203 47.4999C136.903 47.1999 136.803 46.7999 136.803 46.2999C136.803 45.8999 136.903 45.3999 137.203 45.0999C137.403 44.7999 137.803 44.6999 138.203 44.6999C138.603 44.6999 138.903 44.7999 139.103 45.0999C139.403 45.3999 139.503 45.8999 139.403 46.2999C139.503 46.6999 139.403 47.0999 139.203 47.4999ZM138.303 43.7999C137.603 43.7999 136.903 43.9999 136.403 44.4999C135.903 44.9999 135.703 45.6999 135.703 46.3999C135.703 47.0999 135.903 47.6999 136.403 48.1999C136.903 48.6999 137.503 48.8999 138.203 48.8999C138.903 48.8999 139.603 48.6999 140.103 48.1999C140.603 47.6999 140.803 46.9999 140.803 46.2999C140.803 45.5999 140.603 44.9999 140.203 44.4999C139.603 43.9999 138.903 43.6999 138.303 43.7999Z" fill="#777471"/>
<path d="M146.802 44.8V43.9H145.602V42.5L144.502 42.8V43.9H142.802V43.3C142.802 43.1 142.902 42.8 143.002 42.7C143.102 42.6 143.302 42.5 143.502 42.5C143.702 42.5 143.802 42.5 144.002 42.6V41.6C143.802 41.5 143.602 41.5 143.402 41.5C143.102 41.5 142.802 41.6 142.502 41.7C142.202 41.8 142.002 42.1 141.902 42.3C141.702 42.6 141.702 42.9 141.702 43.2V43.9H140.902V44.8H141.702V48.7H142.902V44.8H144.602V47.3C144.602 48.3 145.102 48.8 146.002 48.8C146.202 48.8 146.302 48.8 146.502 48.7C146.602 48.7 146.702 48.6 146.902 48.6V47.7C146.802 47.7 146.802 47.8 146.702 47.8C146.602 47.8 146.502 47.8 146.502 47.8C146.302 47.8 146.102 47.8 146.002 47.6C145.902 47.4 145.802 47.2 145.802 47V44.7L146.802 44.8Z" fill="#777471"/>
<path d="M99.3023 45.0999H93.9023V39.7H99.3023V45.0999Z" fill="#E34C22"/>
<path d="M105.201 45.0999H99.8008V39.7H105.201V45.0999Z" fill="#6DBB29"/>
<path d="M99.3023 51.0001H93.9023V45.6001H99.3023V51.0001Z" fill="#599DD5"/>
<path d="M105.201 51.0001H99.8008V45.6001H105.201V51.0001Z" fill="#F3BF00"/>
<path d="M6.00156 8.10005C5.20156 8.50005 4.40156 8.70005 3.60156 8.70005C3.00156 8.70005 2.30156 8.50005 1.80156 8.20005C1.20156 8.00005 0.801563 7.50005 0.501563 7.00005C0.301563 6.40005 0.101562 5.70005 0.101562 5.10005C0.101562 4.10005 0.401563 3.10005 1.10156 2.40005C1.80156 1.70005 2.80156 1.30005 3.80156 1.30005C4.50156 1.30005 5.20156 1.40005 5.80156 1.70005V2.60005C5.20156 2.20005 4.50156 2.00005 3.80156 2.00005C3.30156 2.00005 2.80156 2.10005 2.40156 2.40005C1.90156 2.70005 1.60156 3.00005 1.40156 3.50005C1.10156 3.90005 1.00156 4.50005 1.00156 5.00005C1.00156 5.90005 1.20156 6.60005 1.70156 7.10005C2.20156 7.60005 2.90156 7.90005 3.70156 7.90005C4.20156 7.90005 4.70156 7.80005 5.20156 7.60005V5.60005H3.60156V4.90005H6.00156V8.10005Z" fill="#7F6D1F"/>
<path d="M11.6023 6.00005C11.6023 5.40005 11.5023 4.90005 11.2023 4.50005C10.9023 4.20005 10.4023 4.00005 10.0023 4.00005C9.50234 4.00005 9.00234 4.20005 8.70234 4.60005C8.40234 5.00005 8.20234 5.50005 8.30234 6.10005C8.30234 6.60005 8.40234 7.10005 8.80234 7.50005C9.00234 7.90005 9.50234 8.00005 10.0023 8.00005C10.5023 8.00005 10.9023 7.80005 11.2023 7.50005C11.5023 7.10005 11.7023 6.60005 11.6023 6.00005ZM12.5023 6.00005C12.5023 6.70005 12.3023 7.40005 11.8023 8.00005C11.3023 8.50005 10.6023 8.80005 9.90234 8.70005C9.20234 8.80005 8.60234 8.50005 8.10234 8.00005C7.60234 7.50005 7.40234 6.80005 7.40234 6.10005C7.40234 5.20005 7.60234 4.60005 8.10234 4.10005C8.60234 3.60005 9.30234 3.30005 10.0023 3.30005C10.7023 3.30005 11.3023 3.50005 11.8023 4.00005C12.3023 4.50005 12.5023 5.20005 12.5023 6.00005Z" fill="#7F6D1F"/>
<path d="M14.8 8.6H14V1H14.8V8.6Z" fill="#7F6D1F"/>
<path d="M20.3023 6.3V5.5C20.3023 5.1 20.2023 4.7 19.9023 4.4C19.6023 4.1 19.3023 4 18.9023 4C18.4023 4 18.0023 4.2 17.7023 4.6C17.4023 5 17.2023 5.6 17.3023 6.1C17.3023 6.6 17.4023 7.1 17.7023 7.5C17.9023 7.8 18.3023 8 18.7023 8C19.1023 8 19.5023 7.8 19.8023 7.5C20.1023 7.2 20.3023 6.7 20.3023 6.3ZM21.1023 8.6H20.3023V7.7C19.7023 8.7 18.4023 9 17.5023 8.4C17.3023 8.3 17.2023 8.2 17.0023 8C16.6023 7.5 16.4023 6.8 16.4023 6.1C16.4023 5.4 16.6023 4.6 17.0023 4C17.4023 3.5 18.0023 3.2 18.7023 3.2C19.3023 3.2 19.9023 3.5 20.2023 4V1H21.0023L21.1023 8.6Z" fill="#7F6D1F"/>
</g>
<defs>
<clipPath id="clip0_406_6018">
<rect width="148" height="50" fill="white"/>
</clipPath>
</defs>
</svg>
