<svg width="100" height="100" viewBox="0 0 100 100" fill="none" xmlns="http://www.w3.org/2000/svg">
<g clip-path="url(#clip0_406_5909)">
<path d="M74.6798 36.5098H70.1598C69.8946 36.5098 69.6403 36.6151 69.4527 36.8027C69.2652 36.9902 69.1598 37.2445 69.1598 37.5098C69.1598 37.775 69.2652 38.0293 69.4527 38.2169C69.6403 38.4044 69.8946 38.5098 70.1598 38.5098H75.0798V62.5098C75.0798 67.6498 75.0798 67.6498 74.9398 67.7798L74.8198 67.8798H24.9198V38.5798H29.8398C30.1051 38.5798 30.3594 38.4744 30.547 38.2869C30.7345 38.0993 30.8398 37.845 30.8398 37.5798C30.8398 37.3146 30.7345 37.0602 30.547 36.8727C30.3594 36.6851 30.1051 36.5798 29.8398 36.5798H25.3198C24.6724 36.5796 24.0505 36.8326 23.5871 37.2848C23.1237 37.737 22.8555 38.3525 22.8398 38.9998V67.5598C22.8503 68.2105 23.1163 68.8311 23.5802 69.2876C24.0442 69.7441 24.669 69.9999 25.3198 69.9998H41.8198V77.8998H34.6598C34.3853 77.8998 34.1221 78.0088 33.928 78.2029C33.7339 78.397 33.6248 78.6603 33.6248 78.9348C33.6248 79.2093 33.7339 79.4725 33.928 79.6666C34.1221 79.8607 34.3853 79.9698 34.6598 79.9698H65.3398C65.6143 79.9698 65.8776 79.8607 66.0717 79.6666C66.2658 79.4725 66.3748 79.2093 66.3748 78.9348C66.3748 78.6603 66.2658 78.397 66.0717 78.2029C65.8776 78.0088 65.6143 77.8998 65.3398 77.8998H58.1798V69.9998H74.6798C75.3359 69.9998 75.9651 69.7399 76.4299 69.2769C76.8947 68.814 77.1572 68.1858 77.1598 67.5298V38.9998C77.1612 38.6732 77.098 38.3497 76.9739 38.0476C76.8499 37.7456 76.6674 37.471 76.437 37.2397C76.2066 37.0083 75.9328 36.8248 75.6312 36.6995C75.3297 36.5742 75.0064 36.5098 74.6798 36.5098ZM56.1098 77.9298H43.8898V69.9998H56.1098V77.9298Z" fill="#0109C4"/>
<path d="M49.9986 33.9302C49.2688 33.9302 48.5554 34.1466 47.9485 34.5521C47.3417 34.9575 46.8688 35.5338 46.5895 36.2081C46.3102 36.8823 46.2371 37.6243 46.3795 38.3401C46.5219 39.0558 46.8733 39.7133 47.3894 40.2294C47.9054 40.7455 48.5629 41.0969 49.2787 41.2393C49.9945 41.3817 50.7364 41.3086 51.4107 41.0293C52.085 40.75 52.6613 40.277 53.0667 39.6702C53.4722 39.0634 53.6886 38.35 53.6886 37.6202C53.6886 36.6415 53.2998 35.703 52.6078 35.011C51.9158 34.3189 50.9772 33.9302 49.9986 33.9302ZM49.9986 39.2402C49.6754 39.2422 49.3589 39.148 49.0893 38.9696C48.8197 38.7913 48.6092 38.5368 48.4846 38.2386C48.36 37.9403 48.3269 37.6118 48.3895 37.2947C48.452 36.9775 48.6075 36.6862 48.836 36.4576C49.0646 36.2291 49.356 36.0736 49.6731 36.011C49.9902 35.9485 50.3188 35.9816 50.617 36.1062C50.9153 36.2308 51.1697 36.4413 51.3481 36.7109C51.5264 36.9804 51.6206 37.2969 51.6186 37.6202C51.616 38.049 51.4445 38.4595 51.1412 38.7628C50.838 39.066 50.4274 39.2376 49.9986 39.2402Z" fill="#0109C4"/>
<path d="M57.0004 45C58.725 44.3774 60.3438 43.4938 61.8004 42.38C63.3698 41.2132 64.7091 39.7654 65.7504 38.11C65.8382 37.958 65.8844 37.7855 65.8844 37.61C65.8844 37.4345 65.8382 37.262 65.7504 37.11C64.686 35.4708 63.3303 34.0406 61.7504 32.89C58.4225 30.3999 54.3866 29.0371 50.2304 29H49.8604C47.5214 28.999 45.2001 29.4051 43.0004 30.2C41.2776 30.8266 39.6593 31.7099 38.2004 32.82C36.6116 33.9845 35.2549 35.4362 34.2004 37.1C34.1126 37.252 34.0664 37.4245 34.0664 37.6C34.0664 37.7755 34.1126 37.948 34.2004 38.1C35.2652 39.7416 36.6208 41.1751 38.2004 42.33C41.5734 44.848 45.6712 46.2058 49.8804 46.2H50.1404C52.4798 46.2059 54.8019 45.7997 57.0004 45ZM63.6304 37.59C62.7622 38.7873 61.7208 39.849 60.5404 40.74C59.3704 41.6427 58.0773 42.3734 56.7004 42.91C57.8901 41.4131 58.5444 39.5609 58.5589 37.6488C58.5734 35.7367 57.9473 33.8748 56.7804 32.36C59.5009 33.4408 61.871 35.2504 63.6304 37.59ZM49.8904 44.13C48.255 43.9931 46.7315 43.2444 45.6238 42.0336C44.5161 40.8227 43.9057 39.2387 43.9146 37.5976C43.9234 35.9566 44.5508 34.3792 45.6714 33.1803C46.7921 31.9815 48.3236 31.2493 49.9604 31.13H50.1804C51.8158 31.2771 53.3354 32.0357 54.4358 33.2545C55.5361 34.4732 56.1361 36.0622 56.1159 37.704C56.0957 39.3459 55.4568 40.9197 54.3268 42.1109C53.1968 43.3022 51.6589 44.0232 50.0204 44.13H49.8904ZM36.3504 37.61C37.2212 36.4149 38.2623 35.3537 39.4404 34.46C40.6128 33.5609 41.9053 32.8305 43.2804 32.29C42.0906 33.7869 41.4363 35.6391 41.4218 37.5512C41.4073 39.4633 42.0335 41.3252 43.2004 42.84C40.4778 41.7628 38.1068 39.9526 36.3504 37.61Z" fill="#0109C4"/>
<path d="M33.411 32.1401C33.6762 32.1401 33.9305 32.0347 34.1181 31.8472C34.3056 31.6596 34.411 31.4053 34.411 31.1401V22.1401H43.411C43.6841 22.1401 43.9461 22.0316 44.1393 21.8384C44.3324 21.6452 44.441 21.3833 44.441 21.1101C44.441 20.8369 44.3324 20.5749 44.1393 20.3818C43.9461 20.1886 43.6841 20.0801 43.411 20.0801H33.411C33.1457 20.0801 32.8914 20.1854 32.7038 20.373C32.5163 20.5605 32.411 20.8149 32.411 21.0801V31.1001C32.4056 31.2347 32.4274 31.3691 32.4753 31.4951C32.5231 31.621 32.5959 31.736 32.6893 31.8332C32.7827 31.9303 32.8948 32.0076 33.0188 32.0603C33.1428 32.1131 33.2762 32.1402 33.411 32.1401Z" fill="#0109C4"/>
<path d="M66.5905 20H56.5105C56.2373 20 55.9753 20.1085 55.7822 20.3017C55.589 20.4948 55.4805 20.7568 55.4805 21.03C55.4805 21.3032 55.589 21.5652 55.7822 21.7583C55.9753 21.9515 56.2373 22.06 56.5105 22.06H65.5105V31.06C65.5105 31.3345 65.6195 31.5978 65.8136 31.7919C66.0077 31.986 66.271 32.095 66.5455 32.095C66.82 32.095 67.0832 31.986 67.2773 31.7919C67.4714 31.5978 67.5805 31.3345 67.5805 31.06V21C67.5805 20.7365 67.4765 20.4837 67.2911 20.2964C67.1057 20.1092 66.8539 20.0026 66.5905 20Z" fill="#0109C4"/>
<path d="M66.5897 43.1001C66.3245 43.1001 66.0701 43.2055 65.8826 43.393C65.695 43.5805 65.5897 43.8349 65.5897 44.1001V53.1001H56.5897C56.3152 53.1001 56.0519 53.2091 55.8578 53.4032C55.6637 53.5973 55.5547 53.8606 55.5547 54.1351C55.5547 54.4096 55.6637 54.6729 55.8578 54.867C56.0519 55.0611 56.3152 55.1701 56.5897 55.1701H66.5897C66.8549 55.1701 67.1093 55.0647 67.2968 54.8772C67.4843 54.6897 67.5897 54.4353 67.5897 54.1701V44.1301C67.5937 43.9963 67.5708 43.863 67.5224 43.7382C67.4739 43.6134 67.4009 43.4996 67.3076 43.4035C67.2144 43.3075 67.1028 43.2311 66.9794 43.179C66.8561 43.1269 66.7236 43.1 66.5897 43.1001Z" fill="#0109C4"/>
<path d="M43.4919 53.1698H34.4919V44.1698C34.4919 43.8953 34.3828 43.632 34.1887 43.4379C33.9946 43.2438 33.7314 43.1348 33.4569 43.1348C33.1824 43.1348 32.9191 43.2438 32.725 43.4379C32.5309 43.632 32.4219 43.8953 32.4219 44.1698V54.1998C32.4219 54.465 32.5272 54.7193 32.7148 54.9069C32.9023 55.0944 33.1567 55.1998 33.4219 55.1998H43.4919C43.7664 55.1998 44.0296 55.0907 44.2237 54.8966C44.4178 54.7025 44.5269 54.4393 44.5269 54.1648C44.5269 53.8903 44.4178 53.627 44.2237 53.4329C44.0296 53.2388 43.7664 53.1298 43.4919 53.1298V53.1698Z" fill="#0109C4"/>
</g>
<defs>
<clipPath id="clip0_406_5909">
<rect width="100" height="100" fill="white"/>
</clipPath>
</defs>
</svg>
