<svg width="100" height="100" viewBox="0 0 100 100" fill="none" xmlns="http://www.w3.org/2000/svg">
<g clip-path="url(#clip0_406_5893)">
<path d="M77.9986 68.4498C77.8795 68.3887 77.7493 68.352 77.6158 68.3421C77.4823 68.3322 77.3481 68.3492 77.2213 68.3921C77.0944 68.435 76.9775 68.5029 76.8774 68.5919C76.7773 68.6808 76.6961 68.7889 76.6386 68.9099C76.5195 69.1656 76.3719 69.4072 76.1986 69.6298C75.8623 70.0746 75.4572 70.4628 74.9986 70.7799C74.8629 70.8716 74.7518 70.9952 74.6751 71.14C74.5983 71.2847 74.5583 71.4461 74.5586 71.6099C74.5586 71.8751 74.664 72.1294 74.8515 72.317C75.039 72.5045 75.2934 72.6099 75.5586 72.6099C75.7609 72.6087 75.9587 72.5498 76.1286 72.4399C76.7647 72.0001 77.3282 71.4636 77.7986 70.8499C78.0438 70.536 78.2613 70.2014 78.4486 69.8499C78.5089 69.7299 78.5444 69.599 78.553 69.4649C78.5615 69.3309 78.5431 69.1966 78.4986 69.0699C78.4622 68.9378 78.399 68.8146 78.313 68.7079C78.227 68.6013 78.12 68.5134 77.9986 68.4498Z" fill="#0109C4"/>
<path d="M74.6082 53.6899C73.7582 52.4299 72.8282 51.2099 71.8582 50.0299C73.4706 48.083 74.9188 46.0059 76.1882 43.8199C79.7082 37.6599 80.2882 32.4499 77.8182 29.1499C74.8182 25.1499 68.0582 24.8599 59.8182 27.6099C57.3382 21.8899 53.8882 18.3999 49.9982 18.3999C46.1082 18.3999 42.6582 21.8999 40.1682 27.6299C31.6082 24.7599 25.0782 25.2899 22.1682 29.1499C18.8682 33.5899 21.0982 41.3399 28.1482 49.9999C21.3682 58.2999 18.7782 66.3099 22.1482 70.8699C23.7882 73.0599 26.6882 74.2199 30.5182 74.2199C33.8024 74.1338 37.0525 73.5297 40.1482 72.4299C42.6282 78.1299 46.0882 81.6199 49.9582 81.6199C53.8282 81.6199 57.3082 78.1199 59.7982 72.3899C62.5286 73.3369 65.3678 73.935 68.2482 74.1699H68.3382C68.6035 74.1699 68.8578 74.0645 69.0453 73.877C69.2329 73.6895 69.3382 73.4351 69.3382 73.1699C69.3443 73.0364 69.3236 72.9029 69.2772 72.7776C69.2308 72.6522 69.1598 72.5374 69.0682 72.4399C68.9765 72.3436 68.8664 72.2666 68.7445 72.2133C68.6226 72.1601 68.4913 72.1317 68.3582 72.1299C65.6931 71.9073 63.0661 71.353 60.5382 70.4799C61.8789 66.6749 62.7814 62.7294 63.2282 58.7199C65.8142 56.5253 68.2373 54.1457 70.4782 51.5999C71.3182 52.5999 72.1282 53.7199 72.8782 54.8199C72.8801 54.8465 72.8801 54.8733 72.8782 54.8999C72.9572 55.0078 73.0569 55.0988 73.1716 55.1675C73.2863 55.2362 73.4136 55.2812 73.546 55.2999C73.6784 55.3185 73.8132 55.3104 73.9424 55.2761C74.0716 55.2417 74.1926 55.1818 74.2982 55.0999C74.4053 55.0219 74.4958 54.9233 74.5645 54.81C74.6331 54.6967 74.6786 54.5709 74.6982 54.4399C74.7674 54.1878 74.7351 53.9185 74.6082 53.6899ZM76.1982 30.3699C78.9382 34.0299 76.4182 41.0499 70.4982 48.4199C68.2644 45.8777 65.8552 43.4952 63.2882 41.2899C62.8406 37.2871 61.9381 33.3483 60.5982 29.5499C63.4736 28.5147 66.4938 27.9377 69.5482 27.8399C72.6582 27.8399 74.9982 28.7199 76.1982 30.3699ZM59.0682 37.8999C56.8186 36.2213 54.482 34.6625 52.0682 33.2299C54.1989 32.1047 56.3925 31.1031 58.6382 30.2299C59.7149 33.1908 60.5052 36.2481 60.9982 39.3599C60.3182 38.8599 59.6882 38.3699 59.0682 37.8999ZM47.9282 33.2099C45.5147 34.65 43.1781 36.2155 40.9282 37.8999C40.2882 38.3899 39.6582 38.8999 39.0482 39.3599C39.5202 36.2453 40.2836 33.1818 41.3282 30.2099C43.5892 31.0699 45.7936 32.0719 47.9282 33.2099ZM36.4282 44.2699C36.2882 46.1299 36.2082 48.0399 36.2082 49.9999C36.2082 51.9599 36.2882 53.8899 36.4282 55.7499C34.4485 53.9435 32.5753 52.0236 30.8182 49.9999C32.5772 47.9843 34.4503 46.0711 36.4282 44.2699ZM40.9382 62.0999C43.1865 63.7836 45.5232 65.3458 47.9382 66.7799C45.8028 67.9092 43.6023 68.911 41.3482 69.7799C40.2988 66.8162 39.5353 63.759 39.0682 60.6499C39.6882 61.1399 40.3182 61.6299 40.9382 62.0999ZM57.8582 60.4699C55.348 62.3577 52.723 64.0877 49.9982 65.6499C47.2787 64.088 44.6572 62.3615 42.1482 60.4799C41.0182 59.6299 39.8482 58.6899 38.6482 57.6899C38.3719 55.1359 38.235 52.5688 38.2382 49.9999C38.2336 47.434 38.3738 44.87 38.6582 42.3199C39.7882 41.3199 40.9482 40.4299 42.1482 39.5299C44.655 37.6483 47.2768 35.9249 49.9982 34.3699C52.7147 35.9226 55.33 37.6461 57.8282 39.5299C58.9682 40.3699 60.1382 41.3099 61.3282 42.2999C61.6161 44.8565 61.7596 47.4272 61.7582 49.9999C61.7599 52.5693 61.6164 55.1367 61.3282 57.6899C60.2216 58.6432 59.0649 59.5699 57.8582 60.4699ZM49.9982 31.9999C47.4563 30.583 44.8162 29.3499 42.0982 28.3099C44.2082 23.4299 46.9982 20.4099 50.0082 20.4099C53.0182 20.4099 55.8082 23.4099 57.9182 28.2799C55.1921 29.3277 52.5453 30.5709 49.9982 31.9999ZM36.7282 41.2799C34.1425 43.4747 31.7195 45.8543 29.4782 48.3999C23.3382 40.7699 21.1582 33.9199 23.8182 30.3999C26.1082 27.3399 31.8982 27.0399 39.4182 29.5499C38.0798 33.3453 37.1773 37.2806 36.7282 41.2799ZM36.7282 58.7099C37.1793 62.7196 38.0851 66.665 39.4282 70.4699C38.6282 70.7299 37.8482 70.9699 37.0782 71.1699C30.5782 72.9099 25.8682 72.3599 23.8182 69.6299C21.7682 66.8999 22.5682 62.2299 26.0582 56.4799C27.1085 54.7737 28.2675 53.137 29.5282 51.5799C31.7528 54.124 34.1556 56.5067 36.7182 58.7099H36.7282ZM49.9982 67.9999C52.5357 69.4187 55.1726 70.652 57.8882 71.6899C55.7782 76.5699 52.9882 79.5899 49.9682 79.5899C46.9482 79.5899 44.1882 76.5899 42.0782 71.7399C44.8027 70.6805 47.4492 69.4307 49.9982 67.9999ZM51.9982 66.8099C54.4118 65.3698 56.7484 63.8043 58.9982 62.1199C59.6382 61.6399 60.2582 61.1199 60.8782 60.6599C60.411 63.7755 59.6476 66.8394 58.5982 69.8099C56.3658 68.9362 54.1884 67.9276 52.0782 66.7899L51.9982 66.8099ZM63.7982 49.9999C63.7982 47.9999 63.7182 46.1099 63.5782 44.2499C65.558 46.0563 67.4312 47.9762 69.1882 49.9999C67.4323 52.0215 65.559 53.9381 63.5782 55.7399C63.7182 53.8799 63.7982 51.9999 63.7982 49.9999Z" fill="#0109C4"/>
<path d="M77.7596 59.35C77.7071 59.2271 77.6304 59.1161 77.5342 59.0233C77.4381 58.9306 77.3243 58.858 77.1996 58.81C77.0776 58.7591 76.9467 58.7329 76.8146 58.7329C76.6824 58.7329 76.5516 58.7591 76.4296 58.81C76.3067 58.8625 76.1956 58.9391 76.1029 59.0353C76.0101 59.1315 75.9376 59.2453 75.8896 59.37C75.8387 59.492 75.8125 59.6228 75.8125 59.755C75.8125 59.8872 75.8387 60.018 75.8896 60.14C76.2971 61.0829 76.6315 62.0558 76.8896 63.05C76.9443 63.2719 77.0734 63.4683 77.2554 63.6066C77.4373 63.7449 77.6611 63.8166 77.8896 63.81C77.9658 63.8211 78.0433 63.8211 78.1196 63.81C78.2491 63.7785 78.371 63.7215 78.4781 63.6423C78.5852 63.5631 78.6754 63.4632 78.7435 63.3486C78.8115 63.234 78.8559 63.107 78.8741 62.975C78.8923 62.843 78.884 62.7087 78.8496 62.58C78.5744 61.4756 78.2098 60.3953 77.7596 59.35Z" fill="#0109C4"/>
<path d="M50.0016 41.3398C46.7016 41.3398 43.3516 42.5198 43.3516 44.7798V55.6798C43.3516 57.9398 46.7016 59.1198 50.0016 59.1198C53.3016 59.1198 56.6616 57.9398 56.6616 55.6798V44.7798C56.6616 42.5198 53.3116 41.3398 50.0016 41.3398ZM50.0016 53.4598C47.0016 53.4598 45.3816 52.4098 45.3816 52.0398V50.9398C48.3456 52.153 51.6676 52.153 54.6316 50.9398V51.9998C54.6316 52.4098 53.0016 53.4598 50.0016 53.4598ZM50.0016 49.8198C47.0016 49.8198 45.3816 48.8198 45.3816 48.4098V47.3098C48.3481 48.5102 51.6651 48.5102 54.6316 47.3098V48.4098C54.6316 48.7698 53.0016 49.8198 50.0016 49.8198ZM50.0016 46.1898C47.0016 46.1898 45.3816 45.1898 45.3816 44.7798C45.3816 44.3698 47.0016 43.3698 50.0016 43.3698C53.0016 43.3698 54.6316 44.3698 54.6316 44.7798C54.6316 45.1898 53.0016 46.1898 50.0016 46.1898ZM45.3816 54.5798C48.3481 55.7802 51.6651 55.7802 54.6316 54.5798V55.6798C54.6316 56.0398 53.0416 57.0898 50.0016 57.0898C46.9616 57.0898 45.3816 55.9998 45.3816 55.6798V54.5798Z" fill="#0109C4"/>
</g>
<defs>
<clipPath id="clip0_406_5893">
<rect width="100" height="100" fill="white"/>
</clipPath>
</defs>
</svg>
