<svg width="101" height="101" viewBox="0 0 101 101" fill="none" xmlns="http://www.w3.org/2000/svg">
<path d="M10.5 0.5H90.5C96 0.5 100.5 5 100.5 10.5V90.5C100.5 96 96 100.5 90.5 100.5H10.5C5 100.5 0.5 96 0.5 90.5V10.5C0.5 5 5 0.5 10.5 0.5Z" fill="#FCF5E5"/>
<path d="M33.7969 35.3999H35.9969C37.8969 35.3999 39.3969 36.6999 39.8969 38.3999C40.2969 37.9999 40.5969 37.4999 40.7969 36.9999C41.4969 38.7999 43.2969 39.9999 45.2969 39.9999C47.0969 39.9999 48.6969 38.9999 49.4969 37.5999C50.4969 38.6999 51.9969 39.3999 53.5969 39.3999C56.5969 39.3999 59.0969 36.8999 59.0969 33.8999C59.0969 30.8999 56.5969 28.3999 53.5969 28.3999C52.9969 28.3999 52.3969 28.4999 51.8969 28.6999C51.1969 27.9999 50.1969 27.5999 49.1969 27.5999C48.1969 27.5999 47.3969 27.9999 46.6969 28.4999C45.8969 26.6999 44.0969 25.3999 41.9969 25.3999C39.0969 25.3999 36.7969 27.6999 36.7969 30.5999C36.7969 31.1999 36.8969 31.6999 37.0969 32.1999C35.3969 32.3999 33.9969 33.6999 33.7969 35.3999Z" fill="#EC8B00"/>
<path d="M72.9984 70.1H71.7984V49.9C71.7984 49.4 71.1984 49 70.7984 49.3L61.5984 54.4V50C61.5984 49.5 60.9984 49.1 60.5984 49.4L51.3984 54.5V50.1C51.3984 49.6 50.7984 49.2 50.3984 49.5L41.1984 54.6V70.4H38.3984L36.9984 39.6C36.9984 39.1 36.5984 38.7 36.0984 38.7H31.9984C31.4984 38.7 31.0984 39.1 31.0984 39.6L29.6984 70.4H27.9984C27.3984 70.4 26.8984 70.9 26.8984 71.5V74.7C26.8984 75.2999 27.3984 75.8 27.9984 75.8H72.9984C73.5984 75.8 74.0984 75.2999 74.0984 74.7V71.5C74.0984 70.6 73.5984 70.1 72.9984 70.1ZM58.7984 59.9C58.7984 59.4 59.1984 59 59.6984 59H65.0984C65.5984 59 65.9984 59.4 65.9984 59.9V65.3C65.9984 65.8 65.5984 66.2 65.0984 66.2H59.6984C59.1984 66.2 58.7984 65.8 58.7984 65.3V59.9ZM46.8984 59.9C46.8984 59.4 47.2984 59 47.7984 59H53.1984C53.6984 59 54.0984 59.4 54.0984 59.9V65.3C54.0984 65.8 53.6984 66.2 53.1984 66.2H47.7984C47.2984 66.2 46.8984 65.8 46.8984 65.3V59.9Z" fill="#FDB141"/>
</svg>
