<svg width="101" height="101" viewBox="0 0 101 101" fill="none" xmlns="http://www.w3.org/2000/svg">
<path d="M10.5 0.5H90.5C96 0.5 100.5 5 100.5 10.5V90.5C100.5 96 96 100.5 90.5 100.5H10.5C5 100.5 0.5 96 0.5 90.5V10.5C0.5 5 5 0.5 10.5 0.5Z" fill="#CFF9DC"/>
<path d="M38.9 50.7L44 38.7C44.3 38.1 44.9 37.7001 45.5 37.8001C46.2 37.8001 46.7 38.3001 46.9 38.9001L51.7 55.6L55.2 47.9001C55.4 47.4001 55.9 47 56.5 47C57.1 46.9 57.6 47.2 57.9 47.6L60.1 50.6H72.9C74.7 48 75.5 45.6001 75.5 42.4001C75.5 34.9001 69.5 27.3 61.5 27.3C53.5 27.3 50.5 31.6 50.5 31.6C50.5 31.6 47.5 27.3 39.5 27.3C31.5 27.3 25.5 34.8001 25.5 42.4001C25.5 45.6001 26.3 48 28.1 50.6H38.9V50.7Z" fill="#17C963"/>
<path d="M59.2992 53.8C58.7992 53.8 58.2992 53.6 57.9992 53.2L56.8992 51.7L52.7992 60.8C52.4992 61.4 51.9992 61.7 51.3992 61.7H51.2992C50.6992 61.7 50.0992 61.2 49.8992 60.6L45.0992 44L41.2992 52.9C41.0992 53.5 40.4992 53.8 39.8992 53.8H30.6992C34.6992 58.2 41.0992 63.6 50.5992 73.5C59.9992 63.6 66.4992 58.2 70.4992 53.8H59.2992Z" fill="#7EED9B"/>
</svg>
