<svg width="155" height="155" viewBox="0 0 155 155" fill="none" xmlns="http://www.w3.org/2000/svg">
<path d="M37.5 27.5H117.5C123 27.5 127.5 32 127.5 37.5V117.5C127.5 123 123 127.5 117.5 127.5H37.5C32 127.5 27.5 123 27.5 117.5V37.5C27.5 32 32 27.5 37.5 27.5Z" fill="#CFF9DC"/>
<path d="M65.9 77.7L71 65.7C71.3 65.1 71.9 64.7001 72.5 64.8001C73.2 64.8001 73.7 65.3001 73.9 65.9001L78.7 82.6L82.2 74.9001C82.4 74.4001 82.9 74 83.5 74C84.1 73.9 84.6 74.2 84.9 74.6L87.1 77.6H99.9C101.7 75 102.5 72.6001 102.5 69.4001C102.5 61.9001 96.5 54.3 88.5 54.3C80.5 54.3 77.5 58.6 77.5 58.6C77.5 58.6 74.5 54.3 66.5 54.3C58.5 54.3 52.5 61.8001 52.5 69.4001C52.5 72.6001 53.3 75 55.1 77.6H65.9V77.7Z" fill="#17C963"/>
<path d="M86.2992 80.8C85.7992 80.8 85.2992 80.6 84.9992 80.2L83.8992 78.7L79.7992 87.8C79.4992 88.4 78.9992 88.7 78.3992 88.7H78.2992C77.6992 88.7 77.0992 88.2 76.8992 87.6L72.0992 71L68.2992 79.9C68.0992 80.5 67.4992 80.8 66.8992 80.8H57.6992C61.6992 85.2 68.0992 90.6 77.5992 100.5C86.9992 90.6 93.4992 85.2 97.4992 80.8H86.2992Z" fill="#7EED9B"/>
</svg>
