<svg width="152" height="75" viewBox="0 0 152 75" fill="none" xmlns="http://www.w3.org/2000/svg">
<g clip-path="url(#clip0_406_6067)">
<path d="M152 0H0V75H152V0Z" fill="#FEFEFE"/>
<path d="M7.97566 25.4072C7.13416 25.3955 6.32279 25.0739 5.68104 24.4975C5.42042 24.2716 5.28444 24.0977 5.62438 23.8238C5.87556 23.6238 6.04742 23.254 6.32127 23.136C6.64799 22.994 6.81796 23.4559 7.09936 23.5898C7.62207 23.8777 8.22393 23.9612 8.79907 23.8258C8.9957 23.7894 9.17202 23.6756 9.29256 23.5072C9.4131 23.3388 9.46891 23.1283 9.44874 22.9181C9.44874 22.4562 9.17112 22.2563 8.78774 22.1643C8.2495 22.0324 7.69048 22.0344 7.15602 21.8644C6.17018 21.5485 5.62249 20.8908 5.56017 19.9131C5.49407 18.8475 5.93789 17.9938 6.8614 17.6099C8.1834 17.0601 9.47896 17.1661 10.6612 18.0877C10.9048 18.2877 11.0125 18.4536 10.7028 18.6875C10.6618 18.7232 10.6239 18.7627 10.5894 18.8055C10.3855 19.0194 10.2117 19.3053 9.97188 19.4253C9.66971 19.5712 9.53562 19.1394 9.27877 19.0394C8.80096 18.8535 8.33449 18.7315 7.82079 18.8695C7.45252 18.9694 7.19756 19.1634 7.18623 19.5852C7.1749 20.0391 7.44686 20.275 7.82835 20.363C8.41758 20.5029 9.03326 20.5629 9.6055 20.7488C9.96117 20.8705 10.2812 21.0872 10.5347 21.378C10.7881 21.6689 10.9665 22.024 11.0525 22.4091C11.1385 22.7941 11.1292 23.1962 11.0256 23.5764C10.922 23.9566 10.7276 24.3021 10.461 24.5795C9.95488 25.1133 9.18057 25.4012 7.97566 25.4072Z" fill="#040404"/>
<path d="M18.0117 19.3933C19.549 19.3113 19.5585 19.3073 19.9758 20.7688C20.2686 21.7924 20.5424 22.8241 20.8446 23.9677C21.177 22.7181 21.4716 21.5685 21.7889 20.4329C22.0816 19.3613 22.091 19.3633 23.1694 19.3713H23.5943C23.1128 20.9227 22.6501 22.4382 22.1722 23.9537C21.7586 25.2752 21.7568 25.2552 20.4159 25.2852C19.9947 25.2852 19.804 25.1793 19.6737 24.7334C19.1449 22.952 18.5764 21.1927 18.0117 19.3933Z" fill="#040404"/>
<path d="M15.4477 20.545C15.4477 19.4873 15.4477 18.4317 15.4477 17.3741C15.4477 17.0702 15.5044 16.9582 15.8254 16.9522C17.0568 16.9282 17.0568 16.9162 17.0568 18.2098C17.0568 19.9652 17.0568 21.7205 17.0568 23.4759C17.0568 23.8218 17.0681 24.0757 17.493 23.9918C17.7404 23.9438 17.7725 24.1017 17.7839 24.3256C17.8311 25.2953 17.833 25.3013 16.9359 25.2653C15.9916 25.2273 15.4893 24.7275 15.4685 23.7159C15.4326 22.6582 15.4496 21.5926 15.4477 20.545Z" fill="#040404"/>
<path d="M26.6732 47.0838C27.1983 46.2461 27.8479 45.9962 28.6336 46.1481C28.9909 46.2054 29.3205 46.3856 29.5714 46.661C29.8223 46.9363 29.9805 47.2915 30.0217 47.6716C30.2011 49.0411 30.0746 50.4246 30.0934 51.8001C30.0934 52.232 29.7497 51.9861 29.5628 52.0361C29.3154 52.1 29.2266 51.9761 29.2304 51.6982C29.2455 50.6405 29.2493 49.5829 29.2304 48.5253C29.2115 47.3797 28.711 46.8279 27.8139 46.9258C26.983 47.0138 26.6128 47.4417 26.6109 48.3254C26.6109 49.439 26.5958 50.5526 26.6204 51.6662C26.6204 52.0281 26.4825 52.0661 26.2124 52.0461C25.9424 52.0261 25.7327 52.11 25.7384 51.6682C25.7629 50.0268 25.7516 48.3833 25.7384 46.7399C25.7384 46.434 25.7214 46.2081 26.1388 46.2201C26.5033 46.2321 26.6695 46.3141 26.6071 46.7159C26.6176 46.8406 26.6397 46.9638 26.6732 47.0838Z" fill="#040404"/>
<path d="M32.1059 20.377C32.2059 20.0903 32.3837 19.8412 32.6168 19.6609C32.8499 19.4806 33.1281 19.3771 33.4166 19.3634C33.6489 19.3454 33.8094 19.3874 33.7697 19.6892C33.7669 19.7459 33.7669 19.8026 33.7697 19.8592C33.7697 20.1811 33.8623 20.5589 33.7338 20.8069C33.5828 21.1028 33.1843 20.8988 32.8972 20.9468C32.1909 21.0628 31.985 21.2947 31.9813 22.0684C31.9813 23.0141 31.968 23.9578 31.9813 24.9034C31.9813 25.2053 31.8963 25.2713 31.6224 25.2753C30.3873 25.3013 30.3873 25.3113 30.3873 24.0118C30.3873 22.6702 30.4156 21.3267 30.3722 19.9871C30.3552 19.4393 30.5346 19.3014 31.0011 19.3594C31.3014 19.3974 31.664 19.2734 31.8944 19.4153C32.1248 19.5573 31.8642 20.0151 32.1059 20.377Z" fill="#040404"/>
<path d="M16.2739 37.787C15.5694 38.7187 14.933 38.9706 14.0793 38.7087C13.3239 38.4808 12.8612 37.805 12.8253 36.7474C12.7838 35.5598 12.8253 34.3682 12.8008 33.1786C12.8008 32.7647 13.0406 32.8607 13.2597 32.8447C13.5241 32.8227 13.6884 32.8547 13.6827 33.2206C13.6657 34.3522 13.6506 35.4878 13.696 36.6194C13.7375 37.691 14.391 38.1689 15.373 37.925C15.9906 37.773 16.2814 37.4011 16.2852 36.7254C16.2928 35.6111 16.2928 34.4975 16.2852 33.3845C16.2852 33.0646 16.2512 32.8347 16.7026 32.8287C17.1539 32.8227 17.1539 33.0666 17.1521 33.4105C17.1445 34.978 17.1445 36.5454 17.1521 38.1129C17.1521 38.4328 17.186 38.6547 16.7385 38.6727C16.2588 38.6887 16.2625 38.4468 16.2871 38.1009C16.2879 37.9961 16.2835 37.8913 16.2739 37.787Z" fill="#040404"/>
<path d="M27.8393 33.6862C28.1509 33.1344 28.5778 32.7805 29.1934 32.7325C30.2964 32.6446 31.1368 33.3423 31.1934 34.5159C31.2539 35.7975 31.2123 37.083 31.2274 38.3666C31.2274 38.8184 30.9253 38.6145 30.7383 38.6505C30.489 38.6965 30.3492 38.6285 30.3606 38.2986C30.3795 37.203 30.3795 36.108 30.3606 35.0137C30.3417 33.8142 29.6146 33.2704 28.5324 33.6422C28.0414 33.8122 27.7638 34.15 27.777 34.7278C27.7865 35.8994 27.7619 37.071 27.7883 38.2406C27.7978 38.6225 27.658 38.6745 27.3559 38.6625C27.0839 38.6505 26.9007 38.6725 26.9064 38.2626C26.9328 36.6012 26.929 34.9398 26.9064 33.2783C26.9064 32.9185 27.0008 32.8345 27.3256 32.8425C27.6505 32.8505 27.8431 32.8845 27.7808 33.2943C27.7586 33.3596 27.7523 33.4297 27.7626 33.4982C27.7728 33.5667 27.7992 33.6314 27.8393 33.6862Z" fill="#040404"/>
<path d="M47.1196 34.1662C46.9083 33.9078 46.6365 33.7129 46.3315 33.6009C46.0265 33.489 45.6991 33.464 45.3821 33.5284C44.9534 33.5984 44.6512 33.8383 44.6266 34.3281C44.6021 34.818 44.8627 35.0659 45.2612 35.1758C45.6597 35.2858 46.1016 35.3398 46.5152 35.4457C47.3783 35.6657 47.7919 36.1455 47.8221 36.9252C47.8475 37.3258 47.7353 37.7226 47.5063 38.0426C47.2773 38.3625 46.9468 38.5841 46.5756 38.6666C45.5426 38.9525 44.5926 38.7806 43.8127 37.9509C43.705 37.8369 43.467 37.691 43.739 37.525C43.9279 37.4111 44.0298 36.9832 44.3698 37.3511C44.9024 37.9289 45.5483 38.1748 46.315 37.9509C46.5014 37.9172 46.6705 37.8144 46.7919 37.661C46.9133 37.5075 46.9793 37.3134 46.9779 37.1132C46.993 36.6413 46.7267 36.3874 46.3377 36.2575C45.8618 36.0975 45.3518 36.1155 44.8759 35.9276C44.1318 35.6297 43.7579 35.1279 43.7862 34.3761C43.7918 34.0236 43.9072 33.683 44.1145 33.4071C44.3218 33.1313 44.6094 32.9356 44.9326 32.8506C45.29 32.7277 45.6678 32.6855 46.0416 32.7268C46.4154 32.7681 46.7768 32.8921 47.1026 33.0906C47.7824 33.5084 47.7824 33.6444 47.1196 34.1662Z" fill="#040404"/>
<path d="M20.6323 32.7286C20.9535 32.715 21.274 32.77 21.5748 32.8902C21.8755 33.0104 22.1504 33.1934 22.383 33.4283C22.5152 33.5603 22.6134 33.7082 22.4 33.8282C22.2338 33.9162 22.1677 34.342 21.8674 34.0281C21.6617 33.8164 21.4108 33.6603 21.1359 33.5729C20.8611 33.4856 20.5705 33.4696 20.2886 33.5263C19.8637 33.5883 19.552 33.8102 19.5105 34.31C19.4689 34.8098 19.7598 35.0798 20.1734 35.1937C20.587 35.3077 20.9798 35.3457 21.3783 35.4456C22.2678 35.6715 22.689 36.1674 22.7003 36.9691C22.717 37.371 22.5963 37.7657 22.3605 38.0811C22.1246 38.3965 21.7894 38.6114 21.4161 38.6865C20.4491 38.9324 19.5275 38.8085 18.7853 38.0347C18.672 37.9168 18.3094 37.8048 18.5964 37.5369C18.7853 37.367 18.9534 37.0131 19.3103 37.4129C19.5383 37.682 19.8342 37.8764 20.1631 37.9735C20.4919 38.0705 20.8402 38.0661 21.1668 37.9608C21.603 37.8388 21.8542 37.5609 21.8542 37.0811C21.8542 36.6012 21.5785 36.3613 21.1819 36.2533C20.8891 36.1734 20.5851 36.1454 20.2886 36.0814C19.1271 35.8335 18.5889 35.2277 18.6644 34.282C18.7569 33.3124 19.4859 32.7346 20.6323 32.7286Z" fill="#040404"/>
<path d="M40.6051 32.7285C41.2334 32.7099 41.8435 32.9525 42.3049 33.4043C42.4503 33.5463 42.573 33.6922 42.3313 33.8401C42.1708 33.9381 42.0952 34.328 41.7949 34.0141C41.5889 33.8022 41.3367 33.6472 41.0607 33.5628C40.7847 33.4784 40.4934 33.4673 40.2123 33.5303C39.7893 33.5982 39.4833 33.8262 39.4569 34.33C39.4304 34.8338 39.6911 35.0697 40.0896 35.1777C40.488 35.2856 40.93 35.3416 41.3436 35.4496C42.2085 35.6715 42.6127 36.1454 42.6391 36.9351C42.6659 37.3358 42.554 37.7331 42.3243 38.0529C42.0945 38.3726 41.7627 38.5928 41.3908 38.6725C40.3596 38.9544 39.4097 38.7804 38.6297 37.9467C38.522 37.8308 38.2954 37.6788 38.5636 37.5209C38.7524 37.4149 38.8525 36.9831 39.1963 37.3569C39.4322 37.6442 39.7413 37.8535 40.0865 37.9598C40.4318 38.0662 40.7987 38.0651 41.1434 37.9567C41.3299 37.921 41.4986 37.8169 41.6198 37.6626C41.7411 37.5083 41.8071 37.3137 41.8063 37.113C41.8214 36.6532 41.5589 36.3773 41.1623 36.2633C40.8695 36.1813 40.5655 36.1533 40.269 36.0934C39.0792 35.8475 38.5277 35.2337 38.6184 34.266C38.709 33.2983 39.4418 32.7285 40.6051 32.7285Z" fill="#040404"/>
<path d="M12.3786 22.2984C12.3786 21.4507 12.3786 20.601 12.3786 19.7513C12.3786 19.4694 12.441 19.3654 12.7337 19.3514C13.9669 19.3094 13.9669 19.2974 13.9669 20.615C13.9669 22.0285 13.9669 23.444 13.9669 24.8595C13.9669 25.1674 13.9065 25.2713 13.5892 25.2733C12.3711 25.2873 12.3711 25.3013 12.3711 23.9918L12.3786 22.2984Z" fill="#040404"/>
<path d="M22.298 49.2889C22.298 48.6891 22.2753 48.0793 22.3074 47.4775C22.3282 47.0937 22.1998 46.9897 21.858 47.0217C21.637 47.0417 21.3613 47.1396 21.3594 46.6798C21.3594 46.2799 21.5123 46.198 21.8315 46.236C22.2206 46.2799 22.3981 46.072 22.3981 45.6741C22.3981 45.4742 22.4132 45.2563 22.3981 45.0524C22.3679 44.7505 22.4396 44.6245 22.7626 44.6245C23.0855 44.6245 23.231 44.7065 23.1724 45.0624C23.1648 45.1562 23.1648 45.2505 23.1724 45.3443C23.1724 46.214 23.1724 46.23 23.992 46.23C24.2886 46.23 24.3868 46.3099 24.3886 46.6298C24.3905 46.9497 24.2886 47.0297 23.9958 47.0297C23.1724 47.0297 23.1724 47.0437 23.1724 47.9154C23.1724 48.7871 23.2158 49.6908 23.1573 50.5745C23.1176 51.1742 23.3141 51.3502 23.8259 51.2462C24.3377 51.1423 24.3244 51.4841 24.2961 51.846C24.2961 51.95 24.2546 52.0339 24.1412 52.0279C23.6993 52.008 23.2442 52.1199 22.8192 51.946C22.6597 51.8804 22.5246 51.7616 22.4343 51.6076C22.344 51.4537 22.3035 51.2728 22.3188 51.0923C22.2961 50.4965 22.2999 49.8927 22.298 49.2889Z" fill="#040404"/>
<path d="M38.7472 47.0877C38.9173 46.8287 39.1428 46.616 39.4054 46.4669C39.668 46.3178 39.9602 46.2366 40.2581 46.23C40.581 46.216 40.6585 46.348 40.6358 46.6538C40.6131 46.9078 40.7019 47.1997 40.2808 47.1517C40.0505 47.1341 39.819 47.1557 39.5952 47.2157C38.8247 47.3916 38.6264 47.6635 38.6264 48.5012C38.6264 49.5568 38.6094 50.6125 38.6264 51.6681C38.6358 52.03 38.4866 52.068 38.2184 52.044C37.9503 52.02 37.7387 52.108 37.7463 51.6701C37.7708 50.0107 37.7614 48.3513 37.7463 46.6938C37.7463 46.3819 37.7727 46.218 38.1391 46.222C38.5055 46.226 38.6792 46.284 38.6207 46.7038C38.5972 46.7735 38.597 46.8496 38.62 46.9194C38.643 46.9892 38.6879 47.0486 38.7472 47.0877Z" fill="#040404"/>
<path d="M18.8646 47.1517C19.0448 46.8781 19.2826 46.6526 19.5592 46.493C19.8359 46.3334 20.1437 46.2441 20.4586 46.2321C20.7683 46.2101 20.8779 46.322 20.8363 46.6319C20.8099 46.8718 20.9326 47.1897 20.4983 47.1397C20.2494 47.1161 19.9986 47.1404 19.7579 47.2117C19.0422 47.4116 18.8609 47.6456 18.859 48.4353C18.859 49.5089 18.8382 50.5846 18.8684 51.6582C18.8816 52.09 18.6493 52.024 18.4038 52.036C18.1583 52.048 17.9846 52.036 17.9883 51.6622C18.0097 49.9854 18.0097 48.3087 17.9883 46.6319C17.9883 46.2321 18.1413 46.2221 18.4284 46.2201C18.7154 46.2181 18.9213 46.2461 18.8628 46.6379C18.8507 46.809 18.8513 46.9808 18.8646 47.1517Z" fill="#040404"/>
<path d="M24.2175 35.7376C24.2175 34.9059 24.2326 34.0742 24.2175 33.2445C24.2081 32.9066 24.3252 32.8186 24.616 32.8446C24.854 32.8686 25.1032 32.7686 25.0976 33.2145C25.0737 34.8979 25.0737 36.58 25.0976 38.2607C25.0976 38.6806 24.9087 38.6386 24.6368 38.6606C24.3157 38.6846 24.2043 38.5926 24.2156 38.2307C24.2364 37.401 24.2175 36.5693 24.2175 35.7376Z" fill="#040404"/>
<path d="M12.2383 17.7938C12.2383 17.168 12.5612 16.8462 13.1826 16.8482C13.8039 16.8502 14.1117 17.176 14.1023 17.8158C14.1023 18.4156 13.7756 18.7355 13.1882 18.7435C12.6009 18.7515 12.2402 18.4176 12.2383 17.7938Z" fill="#040404"/>
<path d="M24.5744 30.3455C25.022 30.3455 25.1844 30.5734 25.1749 30.9453C25.1822 31.0203 25.1733 31.0961 25.1488 31.167C25.1243 31.2379 25.0849 31.3019 25.0336 31.3543C24.9823 31.4067 24.9204 31.446 24.8526 31.4694C24.7849 31.4927 24.713 31.4995 24.6424 31.4891C24.2646 31.4891 24.1117 31.2771 24.1173 30.8893C24.123 30.5014 24.3081 30.3575 24.5744 30.3455Z" fill="#040404"/>
<path d="M9.89898 34.506C10.4448 34.2901 10.8036 33.9602 10.9434 33.3964C11.2833 31.9969 10.4731 30.8553 9.08878 30.8153C8.16149 30.7893 7.23232 30.8153 6.30503 30.8033C6.00474 30.8033 5.9122 30.8893 5.91409 31.2131C5.92542 33.571 5.92542 35.9295 5.91409 38.2887C5.91409 38.5986 6.01796 38.6626 6.29181 38.6586C7.32674 38.6466 8.36924 38.6586 9.39662 38.6486C10.169 38.6386 10.7186 38.2147 11.0435 37.501C11.61 36.2614 11.2153 35.1878 9.89898 34.506ZM8.02929 31.643C8.38516 31.6316 8.74134 31.6403 9.09634 31.669C9.797 31.753 10.0784 32.1728 10.052 33.0265C10.0293 33.7743 9.70068 34.1581 9.02268 34.2001C8.70351 34.2201 8.38246 34.2001 8.0614 34.2001C6.84138 34.2001 6.84138 34.2001 6.84138 32.8906C6.84138 31.643 6.84138 31.641 8.02929 31.643ZM9.06612 37.8308C8.74506 37.8408 8.42401 37.8308 8.10295 37.8308C6.91692 37.8308 6.84327 37.8308 6.8376 36.7372V36.5033C6.8376 36.1454 6.85271 35.7876 6.8376 35.4297C6.82061 35.1318 6.87538 34.9878 7.20588 35.0018C7.82911 35.0298 8.45422 35.0018 9.07745 35.0158C9.94997 35.0438 10.3031 35.4837 10.2956 36.4833C10.2899 37.387 9.9122 37.8029 9.06612 37.8308Z" fill="#040404"/>
<path d="M27.2255 19.3014C25.6901 18.9595 24.4285 19.8032 24.0885 21.4026C23.7732 22.8901 24.2189 24.3496 25.1858 25.0014C26.1528 25.6532 27.775 25.5192 28.7326 24.7675C28.98 24.5675 29.1103 24.4396 28.8383 24.1177C28.3397 23.5179 28.3624 23.4979 27.7052 23.8838C26.8175 24.4096 25.7977 24.0297 25.6485 23.124C25.6089 22.8761 25.6277 22.7382 25.9242 22.7502C26.4228 22.7742 26.9233 22.7502 27.4238 22.7502C27.9242 22.7502 28.4228 22.7502 28.9233 22.7502C29.0687 22.7502 29.2236 22.8101 29.2689 22.5362C29.3797 21.8232 29.2302 21.0922 28.8508 20.4915C28.4713 19.8908 27.8903 19.4653 27.2255 19.3014ZM27.3766 21.7585C27.1292 21.7585 26.8817 21.7585 26.6325 21.7585C26.4908 21.7585 26.3492 21.7585 26.2075 21.7585C25.5862 21.7585 25.4955 21.6106 25.7788 21.0308C26.0168 20.5449 26.4247 20.403 26.8987 20.4989C27.4011 20.6009 27.5465 21.0188 27.607 21.4986C27.6315 21.6905 27.5597 21.7645 27.386 21.7585H27.3766Z" fill="#040404"/>
<path d="M8.93956 44.1967C8.08404 44.1807 7.22473 44.2187 6.36921 44.1827C5.96883 44.1667 5.90462 44.3267 5.91218 44.7005C5.93295 45.8521 5.91218 47.0037 5.91218 48.1553C5.91218 49.307 5.93106 50.4965 5.90273 51.6661C5.8914 52.104 6.12936 52.04 6.37676 52.042C6.62417 52.044 6.86024 52.094 6.84324 51.6621C6.81114 50.8144 6.84324 49.9627 6.82813 49.113C6.82813 48.8011 6.89612 48.6872 7.20585 48.7012C7.7932 48.7271 8.38432 48.7252 8.97167 48.7012C10.254 48.6532 11.0075 47.8135 11.0113 46.4539C11.0151 45.0944 10.2483 44.2227 8.93956 44.1967ZM8.72048 47.8595C8.20302 47.8595 7.68555 47.8475 7.16808 47.8595C6.91123 47.8694 6.82247 47.7835 6.83758 47.5096C6.85646 47.1537 6.83758 46.7938 6.83758 46.4359H6.81869C6.83947 45.9881 6.69971 45.3903 6.92067 45.1284C7.17752 44.8225 7.75542 45.0624 8.19357 45.0304C8.3711 45.0184 8.55051 45.0304 8.72993 45.0304C9.72332 45.0444 10.0519 45.3863 10.0519 46.4299C10.0538 47.5156 9.74598 47.8495 8.72048 47.8595Z" fill="#040404"/>
<path d="M16.7576 51.7261C16.7293 51.5262 16.8728 51.2163 16.4951 51.2563C16.1608 51.2923 16.1174 51.1143 16.1174 50.8224C16.1306 49.9148 16.1174 49.0071 16.1174 48.1014C16.1336 47.8174 16.0871 47.5333 15.9815 47.2716C15.876 47.0099 15.7143 46.7779 15.5093 46.5939C14.6726 45.8722 13.1032 45.9641 12.3572 46.7938C12.1891 46.9798 11.9229 47.1317 12.2326 47.4796C12.5423 47.8275 12.6556 47.5536 12.835 47.3676C13.0716 47.1359 13.3655 46.9802 13.6825 46.9186C13.9995 46.857 14.3265 46.8921 14.6254 47.0198C15.192 47.2737 15.2392 47.7815 15.26 48.3353C15.2732 48.6692 15.1655 48.7452 14.8709 48.7352C14.2118 48.7132 13.5489 48.6872 12.9049 48.9131C12.1306 49.183 11.7378 49.7688 11.7944 50.5625C11.8063 50.9458 11.9453 51.3123 12.1871 51.5979C12.4288 51.8834 12.7579 52.0697 13.1164 52.124C14.0116 52.2919 14.7916 52.124 15.2694 51.1863C15.6339 51.9341 15.836 52.066 16.4573 52.05C16.6915 52.042 16.7973 51.982 16.7576 51.7261ZM15.2467 50.4506C15.158 51.0724 14.412 51.5202 13.6377 51.4182C12.9654 51.3283 12.6934 50.9764 12.7161 50.2906C12.715 50.1099 12.7734 49.9344 12.8812 49.7943C12.9891 49.6542 13.1397 49.5582 13.3072 49.5229C13.6454 49.4187 13.9983 49.3788 14.3497 49.4049C15.3752 49.4049 15.3978 49.4329 15.2524 50.4506H15.2467Z" fill="#040404"/>
<path d="M34.6533 46.2159C33.3521 45.836 32.1245 46.4838 31.675 47.7953C31.4361 48.5109 31.389 49.2825 31.5391 50.0246C31.6169 50.4817 31.8068 50.9091 32.0899 51.264C32.3729 51.6188 32.7391 51.8887 33.1518 52.0465C33.5644 52.2042 34.009 52.2444 34.441 52.1629C34.8729 52.0813 35.277 51.881 35.6127 51.582C36.2322 51.0262 36.2246 50.8843 35.5485 50.4324C35.4371 50.5784 35.337 50.7343 35.2123 50.8683C34.6911 51.4221 34.0584 51.5041 33.3842 51.2841C33.0962 51.1778 32.8454 50.9816 32.6647 50.7214C32.484 50.4613 32.382 50.1494 32.3719 49.8266C32.3455 49.4987 32.404 49.3648 32.7591 49.3748C33.8299 49.4008 34.9007 49.3868 35.9697 49.3748C36.1264 49.3748 36.3115 49.4628 36.3587 49.1469C36.5381 47.9353 35.7374 46.5338 34.6533 46.2159ZM35.031 48.713C34.7383 48.687 34.4437 48.697 34.1491 48.701H33.8545C33.5995 48.701 33.3427 48.683 33.0896 48.691C33.0046 48.691 32.9215 48.691 32.8384 48.709C32.387 48.767 32.3228 48.5551 32.4078 48.1632C32.4887 47.7719 32.7019 47.4255 33.0073 47.189C33.3127 46.9526 33.6893 46.8426 34.066 46.8797C34.4072 46.8969 34.7308 47.0449 34.9765 47.2962C35.2222 47.5475 35.3732 47.8848 35.4012 48.2452C35.4371 48.5831 35.3974 48.745 35.0273 48.713H35.031Z" fill="#040404"/>
<path d="M33.8154 35.9875C34.3669 36.0055 34.9221 35.9875 35.4755 35.9875H36.5463C37.5888 35.9875 37.5888 35.9875 37.4264 34.8779C37.2488 33.6783 36.4235 32.8266 35.3395 32.7246C34.7943 32.6524 34.2424 32.7843 33.7795 33.0976C33.3166 33.4109 32.9719 33.8859 32.805 34.44C32.5459 35.2123 32.5201 36.0508 32.7314 36.8392C32.9807 37.7949 33.5283 38.4966 34.4745 38.7106C35.4207 38.9245 36.2932 38.7525 36.9674 37.9508C37.1015 37.7909 37.4226 37.6169 37.0921 37.313C36.8182 37.0611 36.6502 37.0371 36.4009 37.395C35.9873 37.9848 35.1846 38.1508 34.5123 37.8848C34.2187 37.7672 33.9655 37.5585 33.7859 37.2859C33.6062 37.0133 33.5086 36.6897 33.5057 36.3574C33.4849 36.1035 33.5416 35.9875 33.8154 35.9875ZM33.5416 34.8539C33.5996 34.4506 33.7997 34.0855 34.1018 33.8321C34.4039 33.5787 34.7854 33.4559 35.1695 33.4884C35.9249 33.5244 36.4707 34.0882 36.5557 34.9259C36.5841 35.1998 36.5444 35.3457 36.2309 35.3257C36.042 35.3097 35.8419 35.3077 35.6454 35.3097C35.449 35.3117 35.2545 35.3097 35.0581 35.3097H34.4726C34.2838 35.3097 34.0817 35.3097 33.8872 35.3217C33.5189 35.3517 33.4811 35.1878 33.5416 34.8599V34.8539Z" fill="#040404"/>
<path d="M144.87 37.251C144.584 37.2506 144.304 37.3401 144.066 37.5081C143.828 37.6761 143.642 37.9152 143.533 38.195C143.423 38.4748 143.394 38.7828 143.449 39.08C143.505 39.3772 143.643 39.6503 143.845 39.8647C144.047 40.079 144.305 40.2251 144.586 40.2843C144.866 40.3436 145.157 40.3134 145.422 40.1975C145.686 40.0817 145.912 39.8854 146.071 39.6335C146.23 39.3816 146.315 39.0854 146.315 38.7824C146.315 38.3766 146.163 37.9874 145.892 37.7002C145.621 37.4131 145.254 37.2515 144.87 37.251ZM144.87 40.114C144.622 40.1251 144.376 40.0581 144.163 39.9214C143.951 39.7847 143.781 39.5845 143.676 39.346C143.571 39.1074 143.534 38.8412 143.572 38.5809C143.609 38.3207 143.719 38.0779 143.886 37.8833C144.054 37.6888 144.272 37.551 144.513 37.4875C144.755 37.424 145.008 37.4375 145.242 37.5264C145.477 37.6153 145.681 37.7755 145.829 37.9869C145.977 38.1984 146.063 38.4515 146.075 38.7145V38.7704C146.084 39.1131 145.965 39.4456 145.743 39.6952C145.521 39.9447 145.215 40.091 144.891 40.102" fill="#0109C4"/>
<path d="M145.632 38.3867C145.632 38.0908 145.487 37.9348 145.066 37.9348H144.359V39.6622H144.567V38.8805H144.945L145.411 39.6622H145.651L145.171 38.8805C145.451 38.8805 145.67 38.7465 145.67 38.4086M144.879 38.7185H144.578V38.1188H145.041C145.247 38.1188 145.447 38.1187 145.447 38.4146C145.447 38.7105 145.115 38.7305 144.881 38.7305" fill="#0109C4"/>
<path d="M114.301 17.5938C113.278 16.6047 111.973 16.0047 110.592 15.8884H98.6055V17.5938H114.301Z" fill="#0109C4"/>
<path d="M98.6055 20.7928H115.971C115.951 20.2024 115.819 19.6223 115.582 19.0874H98.6055V20.7928Z" fill="#0109C4"/>
<path d="M116.117 22.3082H111.129V23.9916H115.89C116.047 23.438 116.121 22.8619 116.109 22.2842" fill="#0109C4"/>
<path d="M106.422 22.2803H101.754V23.9857H106.422V22.2803Z" fill="#0109C4"/>
<path d="M101.754 27.1085H113.852C114.382 26.6326 114.83 26.0622 115.174 25.4231H101.754V27.1085Z" fill="#0109C4"/>
<path d="M115.286 30.3095C114.876 29.6914 114.39 29.134 113.841 28.6521H101.754V30.3375H115.265" fill="#0109C4"/>
<path d="M101.754 33.5023H106.494V31.8169H101.754V33.5023Z" fill="#0109C4"/>
<path d="M111.203 31.8169V33.5223H116.236C116.233 32.9396 116.132 32.3622 115.938 31.8169H111.203Z" fill="#0109C4"/>
<path d="M98.6055 36.6254H115.433C115.767 36.1265 115.977 35.5471 116.045 34.9399H98.6055V36.6254Z" fill="#0109C4"/>
<path d="M98.6055 39.8382H110.315C111.821 39.8523 113.274 39.249 114.369 38.1548H98.6055V39.8382Z" fill="#0109C4"/>
<path d="M139.222 22.2803H131.664L131.086 23.9937H139.222V22.2803Z" fill="#0109C4"/>
<path d="M117.449 20.7928H127.496L126.937 19.0874H117.449V20.7928Z" fill="#0109C4"/>
<path d="M139.224 28.6182H134.629V30.3036H139.224V28.6182Z" fill="#0109C4"/>
<path d="M120.523 23.9937H128.567L128.014 22.2803H120.523V23.9937Z" fill="#0109C4"/>
<path d="M139.203 31.7969H134.629V33.4823H139.203V31.7969Z" fill="#0109C4"/>
<path d="M142.3 34.9338H134.629V36.6193H142.3V34.9338Z" fill="#0109C4"/>
<path d="M129.774 39.8182H129.974L130.554 38.1328H129.215L129.774 39.8182Z" fill="#0109C4"/>
<path d="M125.121 38.1328H117.449V39.8382H125.121V38.1328Z" fill="#0109C4"/>
<path d="M126.439 17.5919L125.867 15.8865H117.449V17.5919H126.439Z" fill="#0109C4"/>
<path d="M128.694 36.6253H131.051L131.591 34.9319H128.141L128.694 36.6253Z" fill="#0109C4"/>
<path d="M129.626 27.1085L129.047 25.4231H120.523V27.1085H125.118V25.811L125.543 27.1085H129.626Z" fill="#0109C4"/>
<path d="M125.118 31.7969H120.523V33.4823H125.118V31.7969Z" fill="#0109C4"/>
<path d="M125.118 28.6182H120.523V30.3036H125.118V28.6182Z" fill="#0109C4"/>
<path d="M125.121 34.9338H117.449V36.6193H125.121V34.9338Z" fill="#0109C4"/>
<path d="M142.3 38.1328H134.629V39.8382H142.3V38.1328Z" fill="#0109C4"/>
<path d="M132.164 20.7928H142.298V19.0874H132.717L132.164 20.7928Z" fill="#0109C4"/>
<path d="M133.215 17.5919H142.297V15.8865H133.795L133.215 17.5919Z" fill="#0109C4"/>
<path d="M127.678 33.5023H132.086L132.652 31.7969H127.102L127.668 33.4803" fill="#0109C4"/>
<path d="M126.659 30.3095H133.146C133.146 30.3095 133.686 28.6521 133.713 28.6521H126.047L126.613 30.3575" fill="#0109C4"/>
<path d="M139.222 27.1085V25.4231H130.607L130.066 27.1085H134.221L134.633 25.833V27.1305L139.222 27.1085Z" fill="#0109C4"/>
<path d="M86.2852 38.1328V39.8382H97.1973L97.1784 38.1328H86.2852Z" fill="#0109C4"/>
<path d="M94.0312 25.4231H89.3438V27.1085H94.0312V25.4231Z" fill="#0109C4"/>
<path d="M94.0312 22.2803H89.3438V23.9657H94.0312V22.2803Z" fill="#0109C4"/>
<path d="M94.0312 28.6182H89.3438V30.3036H94.0312V28.6182Z" fill="#0109C4"/>
<path d="M97.1745 19.0874H86.2812V20.7728H97.1745V19.0874Z" fill="#0109C4"/>
<path d="M97.1745 15.8865H86.2812V17.5919H97.1745V15.8865Z" fill="#0109C4"/>
<path d="M94.0312 31.7969H89.3438V33.4823H94.0312V31.7969Z" fill="#0109C4"/>
<path d="M97.18 34.9338H86.2734V36.6173H97.18V34.9338Z" fill="#0109C4"/>
<path d="M147.395 4.71436H4.60547V5.99791H147.395V4.71436Z" fill="black"/>
<path d="M147.395 69.002H4.60547V70.2855H147.395V69.002Z" fill="black"/>
</g>
<defs>
<clipPath id="clip0_406_6067">
<rect width="152" height="75" fill="white"/>
</clipPath>
</defs>
</svg>
