<svg width="90" height="90" viewBox="0 0 90 90" fill="none" xmlns="http://www.w3.org/2000/svg">
<g clip-path="url(#clip0_406_2810)">
<path d="M90 0H0V90H90V0Z" fill="white"/>
<path d="M80.2064 59.8101V55.0001L71.2064 52.6601L51.1364 41.0001C47.7664 39.0601 42.6664 38.8401 39.7464 40.5301L19.2164 52.4201L9.63641 54.6901V59.4901C9.62641 59.5966 9.62641 59.7037 9.63641 59.8101V59.8901C9.73641 61.1201 10.6364 62.3901 12.4164 63.4001L38.7064 78.5801C42.0764 80.5801 47.1764 80.7401 50.1064 79.0501L78.2464 62.8001C78.8341 62.5469 79.3358 62.1288 79.6907 61.5963C80.0457 61.0639 80.2387 60.44 80.2464 59.8001" fill="#BFC3C7"/>
<path d="M78.2482 57.68L50.1082 73.93C47.1782 75.62 42.1082 75.41 38.7082 73.46L12.4182 58.28C9.03819 56.28 8.67819 53.39 11.5982 51.7L39.7482 35.45C42.6682 33.76 47.7482 33.97 51.1382 35.92L77.4282 51.1C80.8082 53.05 81.1782 55.99 78.2482 57.68Z" fill="#E9E8E7"/>
<path d="M41.371 51.6468C42.7133 50.9723 43.4194 49.6654 42.9483 48.7278C42.4771 47.7901 41.007 47.5769 39.6648 48.2514C38.3225 48.9259 37.6163 50.2327 38.0875 51.1704C38.5586 52.108 40.0287 52.3213 41.371 51.6468Z" fill="#123155"/>
<path d="M57.3584 53.3801C57.3584 53.3201 57.3584 53.2601 57.3584 53.1801C57.3584 53.1201 57.3584 53.0301 57.3584 52.9701C57.3584 52.8901 57.3584 52.8301 57.3584 52.7901C57.3584 52.7101 57.3584 52.6701 57.3584 52.6001V52.5201C57.3584 52.4701 57.3584 52.4201 57.3584 52.3801C57.3536 52.3335 57.3536 52.2866 57.3584 52.2401C57.2737 51.6892 57.1398 51.147 56.9584 50.6201C56.9391 50.5744 56.9224 50.5276 56.9084 50.4801L56.8484 50.3001V50.2401C56.8275 50.202 56.8107 50.1617 56.7984 50.1201L56.7384 49.9801C56.5211 49.4658 56.2671 48.9679 55.9784 48.4901L55.8784 48.3301L55.7784 48.1901V48.1301L55.6684 47.9801C55.6408 47.9295 55.6073 47.8825 55.5684 47.8401L55.4484 47.6801L55.3384 47.5401L54.9984 47.2201L54.9084 47.1001L54.4784 46.6001C53.8729 45.9324 53.203 45.3262 52.4784 44.7901L52.3184 44.6701C52.2651 44.6381 52.2149 44.6013 52.1684 44.5601H52.1084C51.8384 44.3701 51.6584 44.2601 51.4584 44.1301L51.1684 43.9601L50.9184 43.8101L50.7984 43.7501L50.6784 43.6801C50.5884 43.6301 50.2584 43.4501 49.8484 43.2601L49.5184 43.0001L49.3584 42.9301L49.1384 42.8301L48.9584 42.7601L48.7784 42.6901H48.7084H48.5984H48.5384H48.4784H48.4284H48.3084H48.2484H48.1284H47.9984L47.8384 42.6401H47.7484H47.6684H47.5784H47.5184H47.4084H47.2984H47.0984H46.9284H46.8584H46.7484H46.6884H46.5584H46.3284H45.9984C45.6884 42.6401 45.4584 42.6401 45.3184 42.5801H44.5084H44.0284H43.7084C43.3184 42.5801 43.0084 42.6701 42.8984 42.6901H42.7284H42.5284H42.3584H42.2384H42.0584H41.9784C41.4684 42.825 40.9674 42.992 40.4784 43.1901H40.3884L39.9984 43.0001L39.7584 43.1101L39.4984 43.2301L39.2084 43.3801L38.9584 43.5101L38.7584 43.6201H38.6884L38.5384 43.7001L38.3484 43.8101H38.2884L38.0684 43.9401L37.8184 44.1001L37.5684 44.2701L37.3284 44.4401L37.0984 44.6101L36.8884 44.7801H36.8184L36.6284 44.9401L36.4084 45.1301H36.3584L36.1784 45.3001L36.1084 45.3701L36.0184 45.4501C35.2583 46.1136 34.5801 46.8656 33.9984 47.6901V47.7601L33.9184 47.8701L33.8584 47.9601L33.7684 48.0801L33.6784 48.2101C33.6555 48.2588 33.6288 48.3056 33.5984 48.3501V48.4001L33.5384 48.5001C33.5346 48.5366 33.5346 48.5735 33.5384 48.6101C33.5366 48.6434 33.5366 48.6768 33.5384 48.7101V48.7901C33.5054 48.8417 33.4754 48.8951 33.4484 48.9501L32.9984 49.4001L32.9084 49.5801L32.8384 49.7601C32.8048 49.8285 32.7747 49.8986 32.7484 49.9701C32.3515 50.9242 32.1183 51.9384 32.0584 52.9701C32.0535 53.0032 32.0535 53.0369 32.0584 53.0701C32.0584 53.0701 32.0584 53.1701 32.0584 53.2201V53.4901C32.0585 53.9413 32.0853 54.392 32.1384 54.8401V55.0001C32.1384 55.1801 32.1384 55.2801 32.1384 55.2901V55.3901C32.1384 55.3901 32.1384 55.4701 32.1384 55.5101C32.1345 55.58 32.1345 55.6501 32.1384 55.7201V55.8701V56.0001V56.0701V56.1901C32.1384 56.1901 32.1384 56.2701 32.1384 56.3701C32.1384 56.3701 32.1384 56.4601 32.1384 56.5101V56.5801C32.1384 56.6401 32.1384 56.6801 32.1384 56.7201L32.2384 57.0601C32.4275 57.6326 32.665 58.1879 32.9484 58.7201L33.0284 58.8801L33.1184 59.0401L33.2084 59.1801C33.2361 59.2174 33.2595 59.2576 33.2784 59.3001L33.3684 59.4401V59.5101V59.5801L33.9984 60.0001V60.0701L34.0484 60.1301L34.1484 60.2501C34.1785 60.2958 34.2119 60.3392 34.2484 60.3801L34.4084 60.5901L34.4784 60.6801C34.5384 60.7401 34.5884 60.8101 34.6484 60.8801L34.9384 61.2001L35.1684 61.4401L35.4184 61.6801L35.6684 61.9101L35.9184 62.1201L36.1684 62.3201C36.4875 62.564 36.8215 62.7877 37.1684 62.9901L37.4784 63.1801C37.7505 63.3473 38.0309 63.5009 38.3184 63.6401H38.3984L38.5184 63.7001C39.0027 63.9323 39.5003 64.1359 40.0084 64.3101L40.1884 64.3601L40.4184 64.4401H40.5784L40.8184 64.5101L41.2984 64.6301H41.3584L41.6584 64.7001H41.9484L42.3484 64.7701H42.4584H42.6184H42.8684H43.0084H43.2384C43.6584 64.7701 44.0984 64.7701 44.5484 64.7701H44.8884C45.1184 64.7701 45.4184 64.7701 45.6484 64.7701L46.2084 64.7101L46.6784 64.6401H46.7784H46.8484H47.1384H47.2684C47.6635 64.5613 48.0541 64.4612 48.4384 64.3401L48.6984 64.2601H48.8084H48.9384L49.1284 64.2001L49.3784 64.1001H49.4584H49.5484L49.9584 63.9301L50.5284 63.6601L50.7184 63.5601L51.0884 63.3601L51.4884 63.1301H51.5684C51.8084 62.9801 52.0684 62.8101 52.3284 62.6201L52.5084 62.4901L52.7784 62.2901C53.0484 62.0701 53.3084 61.8501 53.5384 61.6301L53.5984 61.5701L53.7684 61.4101L53.8384 61.3401L53.9284 61.2401L54.0084 61.1601L54.1484 61.0001C54.1864 60.9679 54.22 60.931 54.2484 60.8901C54.4284 60.6701 54.6284 60.4201 54.8384 60.1401L54.9384 59.9901L55.0284 59.8601L55.0984 59.7501V59.7001L55.1584 59.6001L55.2184 59.5101V59.4501L55.3184 59.2901V59.2101L55.9984 59.0001V58.9501V58.8901V58.8101L56.0784 58.6301L56.1484 58.4601V58.4001V58.3101V58.2401V58.1801V58.1001V58.0401V57.9501C56.1679 57.9045 56.1846 57.8577 56.1984 57.8101C56.1971 57.7868 56.1971 57.7634 56.1984 57.7401C56.2226 57.685 56.2427 57.6282 56.2584 57.5701L56.3184 57.4001C56.3184 57.3401 56.3184 57.2801 56.3684 57.2101V57.1501C56.3804 57.0921 56.3971 57.0353 56.4184 56.9801C56.4184 56.9201 56.4184 56.8601 56.4184 56.8001C56.9011 55.7135 57.218 54.5607 57.3584 53.3801ZM40.0784 44.5501V44.4001C40.0737 44.3804 40.0737 44.3598 40.0784 44.3401C40.0774 44.3234 40.0774 44.3067 40.0784 44.2901C40.0797 44.2668 40.0797 44.2434 40.0784 44.2201V44.1501C40.074 44.1303 40.074 44.1098 40.0784 44.0901V44.0301V43.9701V43.9201L40.1284 43.8701C40.1284 43.8701 40.1284 43.8701 40.1284 43.8201H40.1984H40.2784L40.3684 43.7601H40.4384L40.5884 43.6701L40.7984 43.5601L40.9484 43.4901H41.0184L41.1784 43.4301H41.2584L41.4384 43.3701H41.5384L41.7184 43.3101H41.8084H42.0084H42.0884H42.2684H42.3684H42.5384H42.6384H42.8584H43.9984H44.1984H45.1984H45.3984H45.4884H45.7084H45.7884H45.9884H46.0984H46.1984H46.2984H46.3884H46.4884H46.5784H46.6784H46.7784H46.8884H46.9784H47.0784H47.1784H47.2784H47.3684H47.4584C47.4848 43.3047 47.512 43.3047 47.5384 43.3101H47.6384H47.7184H47.8184H47.8984L48.0384 43.3901L48.1884 43.4901H48.2584L48.3284 43.5501H48.4184V43.6101C48.4184 43.6101 48.4184 43.6101 48.4184 43.6901V43.7801C48.42 43.8134 48.42 43.8468 48.4184 43.8801C48.4184 43.8801 48.4184 43.9501 48.4184 43.9901C48.4274 44.0296 48.4274 44.0706 48.4184 44.1101C48.6041 44.5114 48.6634 44.9597 48.5884 45.3955C48.5134 45.8313 48.3076 46.234 47.9984 46.5501L47.8184 46.6501L47.6784 46.7201H47.6284L47.4984 46.7801H47.4284L47.2784 46.8301L46.9984 47.0001C46.7358 47.082 46.4687 47.1488 46.1984 47.2001H46.1384H45.9884H45.7984H45.6384H45.3984H43.8184H43.6784H43.5984H43.4684H43.3684H43.2884H43.2184H43.1284H43.0584H42.9984H42.9184H42.8384H42.7684H42.4984H42.4184H42.2984H42.2084H41.9984H41.8984H41.7684L41.6584 47.1401H41.5584L41.3684 47.0301L41.0884 46.8501H41.0184L40.9984 46.1901H40.9384C40.9153 46.1947 40.8915 46.1947 40.8684 46.1901L40.7784 46.0001H40.7184L40.6584 45.9401L40.6084 45.8701C40.6041 45.8537 40.6041 45.8365 40.6084 45.8201C40.6097 45.7968 40.6097 45.7734 40.6084 45.7501C40.6137 45.7338 40.6137 45.7163 40.6084 45.7001C40.6084 45.7001 40.6084 45.7001 40.6084 45.6201C40.6084 45.6201 40.6084 45.6201 40.6084 45.5601V45.4801V45.1701L40.0784 44.5501Z" fill="#0109C4"/>
<path d="M32.1006 52.4199C32.074 52.6056 32.0573 52.7925 32.0506 52.9799C32.0456 53.0131 32.0456 53.0468 32.0506 53.0799C32.0506 53.0799 32.0506 53.1799 32.0506 53.2299V53.4999C32.0507 53.9511 32.0774 54.4019 32.1306 54.8499V54.9999C32.1306 55.1799 32.1306 55.2799 32.1306 55.2899V55.3899V55.5099C32.1267 55.5799 32.1267 55.65 32.1306 55.7199V55.8699V55.9999V56.0699C32.1354 56.1098 32.1354 56.1501 32.1306 56.1899C32.1306 56.1899 32.1306 56.2699 32.1306 56.3699C32.1306 56.3699 32.1306 56.4599 32.1306 56.5099V56.5799C32.1306 56.6399 32.1306 56.6799 32.1306 56.7199L32.2306 57.0599C32.4197 57.6324 32.6572 58.1877 32.9406 58.7199L33.0206 58.8799L33.1106 59.0399L33.2006 59.1799C33.2283 59.2172 33.2517 59.2575 33.2706 59.2999L33.3606 59.4399V59.5099V59.5799L34.0006 59.9999V60.0599L34.0506 60.1299L34.1406 60.2499C34.1707 60.2956 34.2041 60.3391 34.2406 60.3799L34.4006 60.5899L34.4706 60.6799C34.5306 60.7399 34.5806 60.8099 34.6406 60.8799L34.9306 61.1999L35.1606 61.4399L35.4106 61.6799L35.6606 61.9099L35.9106 62.1199L36.1606 62.3199C36.5306 62.6099 36.8406 62.8199 37.1606 62.9999L37.4706 63.1899C37.7427 63.3572 38.0231 63.5107 38.3106 63.6499H38.3906L38.5106 63.7099C38.9949 63.9421 39.4924 64.1458 40.0006 64.3199L40.1806 64.3699L40.4106 64.4499H40.5706L40.8106 64.5199L41.2906 64.6399H41.3506L41.6506 64.7099H41.9406L42.3406 64.7799H42.4506H42.6106H42.8606H43.0006H43.2306C43.6506 64.7799 44.0906 64.7799 44.5406 64.7799H44.8806C45.1106 64.7799 45.4106 64.7799 45.6406 64.7799L46.2006 64.7199L46.6706 64.6499H46.7706H46.8406H47.1306H47.2606C47.6557 64.5712 48.0463 64.471 48.4306 64.3499L48.6906 64.2699H48.8006H48.9306L49.1206 64.2099L49.3706 64.1099H49.4506H49.5406L49.9506 63.9399L50.5206 63.6699L50.7106 63.5699L51.0806 63.3699L51.4806 63.1399H51.5606C51.8006 62.9899 52.0606 62.8199 52.3206 62.6299L52.5006 62.4999L52.7706 62.2999C53.0406 62.0799 53.3006 61.8599 53.5306 61.6399L53.5906 61.5799L53.7606 61.4199L53.8306 61.3499L53.9206 61.2499L54.0006 61.1699L54.1406 61.0099C54.1786 60.9778 54.2122 60.9408 54.2406 60.8999C54.4206 60.6799 54.6206 60.4299 54.8306 60.1499L54.9306 59.9999L55.0206 59.8699L55.0906 59.7599V59.7099L55.1506 59.6099L55.2106 59.5199V59.4599L55.3106 59.2999V59.2199L56.0006 58.9999V58.9499V58.8899V58.8099L56.0806 58.6299L56.1506 58.4599V58.3999V58.3099V58.2399V58.1799V58.0999V58.0399V57.9499C56.1701 57.9043 56.1868 57.8576 56.2006 57.8099V57.7399C56.2006 57.6699 56.2006 57.6099 56.2606 57.5699L56.3206 57.3999C56.3206 57.3399 56.3206 57.2799 56.3706 57.2099V57.1499C56.3826 57.092 56.3993 57.0351 56.4206 56.9799C56.4159 56.92 56.4159 56.8598 56.4206 56.7999C56.6418 55.8529 56.7459 54.8823 56.7306 53.9099C56.7306 53.8499 56.7306 53.7899 56.7306 53.7099C56.7306 53.6499 56.7306 53.5599 56.7306 53.4999C56.7306 53.4199 56.7306 53.3599 56.7306 53.3199C56.7306 53.2399 56.7306 53.1999 56.7306 53.1299V53.0499C56.7306 53.0499 56.8006 63.9899 44.1306 63.9899C31.4606 63.9899 32.1006 52.4199 32.1006 52.4199Z" fill="#2C2C2C"/>
<path d="M50.3682 39.71V40C50.3729 40.0197 50.3729 40.0403 50.3682 40.06C50.3682 40.06 50.3682 40.11 50.3682 40.14V40.23C50.3725 40.2532 50.3725 40.2769 50.3682 40.3C50.3669 40.3233 50.3669 40.3467 50.3682 40.37C50.3722 40.4032 50.3722 40.4368 50.3682 40.47L48.0582 45.47V45.39V45.31C48.0582 45.31 48.0582 45.31 48.0582 45.23C48.0582 45.23 48.0582 45.17 48.0582 45.15V45.05V44.95C48.0582 44.95 48.0582 44.89 48.0582 44.87C48.0582 44.87 48.0582 44.81 48.0582 44.79C48.0525 44.7637 48.0525 44.7364 48.0582 44.71V44.64V44.56C48.0601 44.5334 48.0601 44.5067 48.0582 44.48L48.0082 44.41L47.9482 44.33C47.9275 44.3042 47.904 44.2808 47.8782 44.26L47.4982 44H47.4382H47.3482L46.9982 43.65H46.9482H46.8782H46.8282L46.6482 43.57L46.4682 43.51L46.3182 43.46H46.1382H46.0882H45.9482H45.8982H45.7182H44.3282H44.1582H43.9782H43.8882H43.7982H43.7282H43.6482H43.5182H43.4282H43.3782H43.2882H43.2382H43.1382H43.0082H42.9182H42.8682H42.7882H42.7382L42.5682 43.55L42.4382 43.63L42.3182 43.7L42.2582 43.76L42.1982 43.83V43.89V43.95V44.48C42.1982 44.48 42.1982 44.48 42.1982 44.54C42.1982 44.54 42.1982 44.54 42.1982 44.6V44.68C42.1982 44.68 42.1982 44.75 42.1982 44.79L39.9182 39.79V39.69V39.63C39.9149 39.6068 39.9149 39.5832 39.9182 39.56C39.9227 39.5335 39.9227 39.5065 39.9182 39.48C39.9136 39.4468 39.9136 39.4132 39.9182 39.38C39.9182 39.38 39.9182 39.31 39.9182 39.27C39.9127 39.247 39.9127 39.223 39.9182 39.2V39.1V38.95C39.9229 38.9303 39.9229 38.9097 39.9182 38.89C39.9135 38.8703 39.9135 38.8497 39.9182 38.83C39.9135 38.8137 39.9135 38.7964 39.9182 38.78V38.72C39.9169 38.6967 39.9169 38.6733 39.9182 38.65C39.9215 38.6268 39.9215 38.6032 39.9182 38.58V38.51V38.44V38.36L39.9882 38.25L40.0582 38.14L40.1182 38.05L40.1782 37.99L40.2582 37.91L40.3082 37.86L40.3582 37.81H40.4082H40.4682C40.4846 37.8058 40.5018 37.8058 40.5182 37.81L40.5782 37.76H40.6282H40.6982L40.7782 37.71L40.9182 37.63L41.1082 37.53H41.1882H41.2482H41.3282L41.4682 37.47H41.5482L41.7082 37.41H41.7682L41.9882 37.33L42.1682 37.27H42.2582H42.4082H42.4982H42.6482H42.7382H42.7982H42.8682H43.0182H43.1382H43.2882H43.3482H43.4382H43.5082H43.7182H43.9382H45.5882H45.7682H45.8882H46.1182H46.3382H46.3982H46.4582H46.6182H46.7882H46.8482L47.0382 37.32H47.0982L47.2982 37.38H47.3482H47.4482H47.5182H47.5782L47.7582 37.45H47.8082L48.0082 37.54H48.0582H48.1782H48.2682L48.3882 37.61H48.4682H48.5282L48.6382 37.68L48.7782 37.77L48.8782 37.83H48.9482H49.0182H49.0682H49.1282H49.1782C49.1782 37.83 49.1782 37.83 49.1782 37.88L49.2382 37.94L49.3182 38.03L49.3782 38.11V38.18V38.24V38.33L49.4282 38.41V38.47V38.54V38.64C49.4325 38.6632 49.4325 38.6869 49.4282 38.71C49.4325 38.7332 49.4325 38.7569 49.4282 38.78C49.4282 38.78 49.4282 38.83 49.4282 38.85C49.4282 38.85 49.4282 38.92 49.4282 38.95C49.4282 38.95 49.4282 38.95 49.4282 39.02C49.4282 39.02 49.4282 39.02 49.4282 39.08V39.19L50.3682 39.71Z" fill="#2C2C2C"/>
<path d="M51.21 41L51.15 41.11V41.19C51.1552 41.213 51.1552 41.237 51.15 41.26C51.1393 41.29 51.1223 41.3173 51.1 41.34L51.02 41.45L50.95 41.54L50.89 41.61L50.82 41.69H50.77C50.7392 41.7258 50.7058 41.7592 50.67 41.79L50.53 41.91L50.43 42H50.37L50.27 42.07H50.21L50.11 42.14H50.05L49.93 42.21L49.75 42.31C49.6776 42.3577 49.6006 42.398 49.52 42.43H49.46L49.25 42.53L49.02 42.63H48.95L48.75 42.71H48.7L48.45 42.79H48.39L48.18 42.86H48.12L47.86 42.93H47.8L47.58 42.99H47.51L47.24 43.05L47 43.1H46.93H46.65H46.39H46.31H46.04H45.76H43.94H43.77H43.62H43.46H43.31H43.15H43H42.84H42.69H42.53H42.39H42.23H42.09H41.93H41.8L41.64 43.05H41.51H41.35H41.23L41.07 42.99H40.95L40.8 42.93H40.68L40.52 43L40.42 42.95L40.25 42.86H40.17L39.92 42.72C39.207 42.3225 38.6263 41.7244 38.25 41L38.44 41.41L40.23 45.31C40.4874 45.8123 40.8921 46.224 41.39 46.49C41.4432 46.5289 41.5002 46.5624 41.56 46.59H41.62L41.73 46.65H41.8H41.91H41.99H42.1H42.18H42.29H42.38H42.49H42.58H42.69H42.78H42.89H42.99H43.1H43.2H43.31H43.41H43.52H43.62H43.84H43.95H45.22H45.42H45.5H45.76H45.95H46.11H46.3H46.46H46.64L47 47L47.17 46.94L47.32 46.88L47.49 46.81L47.63 46.74L47.79 46.66L47.91 46.59L47.99 46.54H48.06H48.13L48.21 46.48L48.31 46.4L48.38 46.33H48.44V46.27L48.5 46.19V46.14V46.06C49.11 44.77 49.71 43.47 50.32 42.17L51.21 41Z" fill="#123155"/>
<path d="M49.7206 44.1501V44.2201L49.6606 44.2901L49.5706 44.3701C49.5389 44.4085 49.5019 44.4422 49.4606 44.4701L49.3706 44.5401L49.2906 44.6001L49.2006 44.6601L49.1006 44.7201L48.9506 44.8101L48.7706 44.9101H48.7206L48.5406 44.9901L48.3506 45.0801H48.2906L48.1206 45.1501L47.9106 45.2201H47.7306L47.5106 45.2801H47.3206H47.1006H46.9106H46.8506H46.6206H46.3006H46.2106H45.9706H44.4706H44.3306H44.2106H44.0706H43.9506H43.8206H43.7006H43.5706H43.4506H43.3206H43.2106H43.0806H42.9606H42.8406H42.7306L42.6006 45.2301H42.4906L42.3706 45.1801H42.2706H42.1406H42.0506L41.9206 45.1201H41.8306L41.0006 45.1701H40.9306L40.7306 45.0601C40.3107 44.8191 39.9408 44.5 39.6406 44.1201L40.2006 45.3401C40.458 45.8425 40.8628 46.2542 41.3606 46.5201C41.4139 46.559 41.4708 46.5925 41.5306 46.6201H41.5906L41.7006 46.6801H41.7706H41.8806H41.9606H42.0706H42.1506H42.2606H42.3506H42.4606H42.5506H42.6606H42.7506H42.8606H42.9606H43.0706H43.1706H43.2806H43.3806H43.4906H43.5906H43.8106H43.9206H45.1906H45.3906H45.4706H45.7306H45.9206H46.0806H46.2706H46.4306H46.6106L47.0006 47.0001L47.1706 46.9401L47.3206 46.8801L47.4906 46.8101L47.6306 46.7401L47.7906 46.6601L47.9106 46.5901L47.9906 46.5401H48.0606H48.1306L48.2106 46.4801L48.3106 46.4001L48.3806 46.3301H48.4406V46.2701L48.5006 46.1901V46.1401V46.0601L49.1006 44.7901L49.0406 44.8701L49.7206 44.1501Z" fill="#2C2C2C"/>
<path d="M51.3016 40.8098V40.6798V40.5498V40.4298C51.3016 40.4298 51.3016 40.3598 51.3016 40.3198V39.9998C51.3065 39.96 51.3065 39.9197 51.3016 39.8798C51.3016 39.8798 51.3016 39.8798 51.3016 39.7998C51.3016 39.7998 51.3016 39.7298 51.3016 39.6898C51.2969 39.66 51.2969 39.6296 51.3016 39.5998V39.5198C51.3016 39.5198 51.3016 39.4498 51.3016 39.4098V39.3098C51.3051 39.2833 51.3051 39.2564 51.3016 39.2298C51.2998 39.2032 51.2998 39.1764 51.3016 39.1498L51.2416 39.0498C51.2416 39.0498 51.2416 39.0498 51.2416 38.9698C51.2435 38.9465 51.2435 38.9231 51.2416 38.8998V38.8298L51.1616 38.7398L51.0916 38.6698L51.0316 38.5998C51.0108 38.574 50.9873 38.5506 50.9616 38.5298L50.8616 38.4398L50.7716 38.3598L50.7016 38.2898L50.6216 38.2298H50.5516C50.5245 38.219 50.5005 38.2019 50.4816 38.1798L50.4016 38.1298L50.2816 38.0498L50.1716 37.9898L50.0616 37.9298L49.0616 36.9998H49.0016L48.8116 36.9098H48.7616L48.5416 36.8198L48.3416 36.7398H48.2616L48.0616 36.6798H47.9916L47.8016 36.6198L47.5216 36.5498H47.4416H47.2316H47.1216H47.0016H46.9516H46.7716H46.6316H46.4416H46.3016H46.1116H45.9816H45.7716H43.8516H43.5916H43.4916H43.2816H43.1816H42.9716H42.9016L42.6216 36.5998H42.5616H42.3416H42.2516H42.0516H42.0016L41.7316 36.6798H41.6816L41.4616 36.7498H41.3816L41.1916 36.8098H41.1216L40.8716 36.9098L40.6516 36.9998H40.5816L40.4116 37.0798H40.3416C40.2617 37.1171 40.1848 37.1606 40.1116 37.2098L39.9916 37.2698H39.9116L39.8416 37.3198H39.7716H39.7116H39.6616H39.6116H39.5616L39.0016 37.9998V38.0598C38.9732 38.0816 38.9494 38.1088 38.9316 38.1398C38.9017 38.174 38.8749 38.2108 38.8516 38.2498L38.7816 38.3598L38.7116 38.4698L38.6616 38.5698L38.6016 38.6898V38.7898C38.6016 38.7898 38.6016 38.8698 38.6016 38.9098C38.6016 38.9098 38.6016 38.9698 38.6016 39.0098V39.0998C38.6016 39.0998 38.6016 39.0998 38.6016 39.1598C38.6059 39.1863 38.6059 39.2133 38.6016 39.2398C38.6016 39.2398 38.6016 39.2998 38.6016 39.3298V39.7198V39.8798C38.6016 39.8798 38.6016 39.9398 38.6016 39.9698C38.6062 39.9996 38.6062 40.03 38.6016 40.0598V40.1198V40.1698V40.2298L38.6516 40.3498L38.7116 40.4698C38.7311 40.5119 38.7546 40.5521 38.7816 40.5898C38.8057 40.6282 38.8324 40.665 38.8616 40.6998C38.8849 40.7388 38.9117 40.7756 38.9416 40.8098C38.9715 40.844 38.9982 40.8808 39.0216 40.9198L39.0916 40.9998L39.1916 41.0998L39.0016 41.9998L39.0716 42.0698L39.1816 42.1598L39.3016 42.2398L39.3716 42.2998H39.4416H39.4916L39.5716 42.3498L39.7016 42.4298L39.9016 42.5498L40.1216 42.6598H40.2116H40.2816L40.4516 42.7398H40.5716L40.7616 42.8098H40.8416L41.0416 42.8698H41.1516L41.4216 42.9498L41.7416 43.0398H41.8316H42.0616H42.1816H42.3816H42.5216H42.7116H42.7716H42.8516H43.0516H43.1916H43.3916H45.1516H45.3116H45.4716H45.6316H45.7816H45.9416H46.1016H46.2516H46.4116H46.5416H46.7116H46.8316H47.0016H47.1216H47.2916H47.4116L47.5716 42.9898H47.6916L47.8616 42.9298H47.9616L48.1616 42.8598H48.2316L48.4816 42.7498L48.6616 42.6598H48.7516L49.0116 42.5198L49.2016 42.4098L49.3716 42.2998L49.5416 42.1898L49.6916 42.0698L49.7816 41.9998L49.8716 41.9198H49.9316V41.8698C49.9287 41.8499 49.9287 41.8297 49.9316 41.8098L49.9916 41.7298C49.9897 41.7065 49.9897 41.6831 49.9916 41.6598V41.5998V41.5498C49.9859 41.5067 49.9859 41.463 49.9916 41.4198L51.3016 40.8098ZM49.1816 41.6998L49.0416 41.7998L48.9016 41.8898L48.7416 41.9798L48.5316 42.0998H48.4516L48.3016 42.1698L48.0916 42.2698H48.0316L47.8616 42.3298H47.7816L47.6316 42.3898H47.5416H47.4016H47.3016H47.1616H47.0616H46.9216H46.8116H46.6716H46.5616H46.4316H46.3016H46.1716H46.0316H45.9016H45.5016H45.2816H43.7716H43.6516H43.4916H43.3716H43.2116H43.0916H42.9316H42.8216H42.6316H42.5516L42.2816 42.3198L42.0016 42.5398H41.9116L41.7516 42.4798H41.6516L41.4916 42.4198H41.3916L41.2416 42.3598H41.1516L41.0016 42.1298L40.9116 42.0798L40.7616 41.9998H40.6916L40.5816 41.9298C40.5585 41.9344 40.5347 41.9344 40.5116 41.9298H40.4416H40.3716L40.2716 41.8598L40.1816 41.7798L40.0016 41.4098L39.9416 41.3498L39.8616 41.2598L39.8016 41.1898C39.7727 41.1607 39.749 41.1269 39.7316 41.0898L39.6716 40.9998L39.6116 40.8998L39.5516 40.7898C39.5498 40.7565 39.5498 40.7231 39.5516 40.6898V40.5898C39.5473 40.5499 39.5473 40.5097 39.5516 40.4698V40.3498V40.2198C39.5516 40.2198 39.5516 40.1398 39.5516 40.0998V39.7498C39.5516 39.7498 39.5516 39.7498 39.5516 39.6698C39.5516 39.6698 39.5516 39.6698 39.5516 39.6098V39.1998C39.5471 39.1733 39.5471 39.1463 39.5516 39.1198V39.0198V38.9298C39.5498 38.8965 39.5498 38.8631 39.5516 38.8298C39.5535 38.8032 39.5535 38.7764 39.5516 38.7498L39.6116 38.6598L39.6716 38.5698L39.7516 38.4798C39.7817 38.4341 39.8151 38.3907 39.8516 38.3498L39.9616 38.2298L40.0716 38.1098L40.2016 37.9998L40.3416 37.8898L40.4916 37.7898L40.6516 37.6898L40.8416 37.5798L41.0316 37.4798H41.0916L41.2316 37.4098H41.2916L41.4816 37.3298L41.6916 37.2498H41.7516L41.9116 37.1898H41.9816H42.1616L42.3916 37.1298H42.4516H42.6216H42.6916H42.8716H43.0016H43.2316H43.2916H43.4716H43.5516H43.7316H43.7916H44.0316H45.6816H45.8016H45.9616H46.0816H46.2316H46.3516H46.5016H46.6516H46.7416H46.9116H46.9816L47.2116 37.1898L47.4016 37.2398H47.4616L47.6216 37.2998H47.6916L47.8616 37.3698L48.0716 37.4598L48.2316 37.5298L48.4216 37.6298L48.6016 37.7298L48.7116 37.7998H48.7816H48.8416H48.9116H48.9716C49.0026 37.8176 49.0298 37.8414 49.0516 37.8698L49.1416 37.9498L49.2016 37.9998V38.0498C49.2061 38.0729 49.2061 38.0967 49.2016 38.1198L49.2616 38.2098L49.3116 38.2698V38.3298V38.3898V38.4798C49.3116 38.4798 49.3116 38.4798 49.3116 38.5598V38.6298V38.6998C49.3202 38.7292 49.3202 38.7604 49.3116 38.7898C49.3116 38.7898 49.3116 38.8398 49.3116 38.8598C49.3116 38.8598 49.3116 38.8598 49.3116 38.9398C49.3116 38.9398 49.3116 39.0098 49.3116 39.0398V39.1598C49.316 39.193 49.316 39.2266 49.3116 39.2598V39.3798C49.3116 39.3798 49.3116 39.4398 49.3116 39.4598C49.3116 39.4598 49.3116 39.5298 49.3116 39.5598C49.3162 39.593 49.3162 39.6266 49.3116 39.6598V39.7698C49.3089 39.8064 49.3089 39.8432 49.3116 39.8798C49.3116 39.8798 49.3116 39.9498 49.3116 39.9898L49.2516 40.1098L49.1916 40.2298L49.1216 40.3498L49.9016 40.9998C49.8705 41.0176 49.8433 41.0414 49.8216 41.0698L49.7416 41.1298L49.1816 41.6998Z" fill="#0109C4"/>
<path d="M44.4291 38.5098C44.4291 38.5098 45.6091 32.5098 39.4891 32.0698C37.0864 31.8956 34.7031 32.607 32.7891 34.0698C32.7891 34.0698 33.7891 33.9198 36.3091 37.0698C38.4991 39.8598 44.4291 38.5098 44.4291 38.5098Z" fill="#BFBEBE"/>
<path d="M44.4291 38.5102C44.4291 38.5102 41.9691 31.5102 32.7891 34.0802C32.7891 34.0802 41.0691 31.6802 44.4291 38.5102Z" fill="#989898"/>
<path d="M45.42 24V43H45.2H44V24H45.42Z" fill="#989898"/>
<path d="M45.2089 38.1701C46.2089 37.0901 55.5089 31.9301 56.1189 43.4101C54.3572 42.5069 52.3483 42.2048 50.3989 42.5501C46.9989 43.0501 42.8689 40.6001 45.2089 38.1701Z" fill="#BFBEBE"/>
<path d="M45.2109 38.1699C45.2109 38.1699 52.4309 37.3299 56.1209 43.4099C55.611 42.2532 54.8459 41.2268 53.883 40.4077C52.9202 39.5886 51.7845 38.9979 50.5609 38.6799C46.7409 37.4999 45.2109 38.1699 45.2109 38.1699Z" fill="#989898"/>
<path d="M50.2902 33.6099L52.0102 32.6099C53.7602 31.6099 54.8502 29.4299 54.8602 26.3499C54.8602 20.1499 50.5202 12.6099 45.1302 9.49986C42.4102 7.92986 39.9602 7.77986 38.1302 8.81986L36.4102 9.81986C38.1902 8.81986 40.6402 8.92986 43.3602 10.4999C48.7502 13.6099 53.1002 21.1499 53.0902 27.3499C53.1302 30.4299 52.0002 32.5899 50.2902 33.6099Z" fill="#123155"/>
<mask id="mask0_406_2810" style="mask-type:luminance" maskUnits="userSpaceOnUse" x="36" y="8" width="19" height="26">
<path d="M50.2902 33.6099L52.0102 32.6099C53.7602 31.6099 54.8502 29.4299 54.8602 26.3499C54.8602 20.1499 50.5202 12.6099 45.1302 9.49986C42.4102 7.92986 39.9602 7.77986 38.1302 8.81986L36.4102 9.81986C38.1902 8.81986 40.6402 8.92986 43.3602 10.4999C48.7502 13.6099 53.1002 21.1499 53.0902 27.3499C53.1302 30.4299 52.0002 32.5899 50.2902 33.6099Z" fill="white"/>
</mask>
<g mask="url(#mask0_406_2810)">
<path d="M50.2902 33.6099L52.0102 32.6099C53.7602 31.6099 54.8502 29.4299 54.8602 26.3499C54.8602 20.1499 50.5202 12.6099 45.1302 9.49986C42.4102 7.92986 39.9602 7.77986 38.1302 8.81986L36.4102 9.81986C38.1902 8.81986 40.6402 8.92986 43.3602 10.4999C48.7502 13.6099 53.1002 21.1499 53.0902 27.3499C53.0902 30.4299 51.9902 32.5899 50.2402 33.6099H50.2902Z" fill="#123155"/>
</g>
<path d="M53.1384 27.3502C53.1384 21.1502 48.7984 13.6102 43.4084 10.5002C39.4884 8.24021 36.1084 8.94021 34.5384 11.8602C33.8903 13.1705 33.5711 14.6189 33.6084 16.0802C33.638 18.1042 34.0204 20.1076 34.7384 22.0002C36.3684 26.4902 39.6084 30.7702 43.3384 32.9302C48.7284 36.0002 53.1184 33.5402 53.1384 27.3502ZM43.3484 31.0002C38.9184 28.4402 35.3484 22.2102 35.3484 17.1202C35.3484 12.0302 38.9984 9.92021 43.3984 12.4802C47.7984 15.0402 51.3984 21.2602 51.3984 26.3602C51.3984 31.4602 47.7784 33.5102 43.3484 31.0002Z" fill="#CECDCC"/>
<path d="M35.3281 17.0698C35.3281 11.9798 38.9681 9.91978 43.3981 12.4798C47.8281 15.0398 51.3981 21.2598 51.3981 26.3598C51.3981 31.4598 47.7781 33.5098 43.3481 30.9998C38.9181 28.4898 35.3181 22.1598 35.3281 17.0698ZM43.3981 13.6298C39.5181 11.3898 36.3981 13.1898 36.3381 17.6298C36.4664 20.063 37.1672 22.4316 38.3835 24.5428C39.5999 26.6541 41.2975 28.4484 43.3381 29.7798C47.2181 32.0198 50.3381 30.2098 50.3981 25.7798C50.2684 23.3483 49.5668 20.9817 48.3505 18.8723C47.1342 16.7629 45.4375 14.9702 43.3981 13.6398V13.6298Z" fill="#989898"/>
<path d="M36.3398 17.6499C36.3398 13.1899 39.5198 11.3899 43.3998 13.6499C45.4392 14.9804 47.1359 16.7731 48.3522 18.8825C49.5685 20.9919 50.2701 23.3585 50.3998 25.7899C50.3998 30.2499 47.2198 32.0599 43.3398 29.7899C41.3005 28.4595 39.6037 26.6668 38.3875 24.5574C37.1712 22.448 36.4696 20.0814 36.3398 17.6499Z" fill="#CECDCC"/>
<path d="M44.3288 15.9999V16.9999C45.0156 17.5249 45.5836 18.1892 45.9955 18.9493C46.4074 19.7093 46.6539 20.5479 46.7188 21.4099L44.3088 19.9999C44.2844 19.6527 44.1761 19.3166 43.9932 19.0205C43.8103 18.7244 43.5583 18.4771 43.2587 18.2999C42.7487 17.9999 42.3587 18.0899 42.3587 18.7399C42.3587 20.5599 46.8687 22.3499 46.8587 25.8599C46.8587 27.3899 45.9587 28.1699 44.3387 27.5599V28.5099L42.4787 27.4299V26.4299C41.7598 25.8857 41.1643 25.1952 40.7317 24.404C40.299 23.6128 40.039 22.7389 39.9688 21.8399L42.3387 23.2099C42.3596 23.5876 42.4738 23.9543 42.671 24.2771C42.8682 24.5999 43.1423 24.8689 43.4688 25.0599C44.1188 25.4399 44.5387 25.3099 44.5387 24.6899C44.5387 22.7499 39.9787 21.1499 40.0087 17.4499C40.0087 15.7599 41.0087 15.2999 42.5087 15.8599V14.9199L44.3288 15.9999Z" fill="#0109C4"/>
<path d="M43.4109 10.5C40.6909 8.93002 38.2409 8.78002 36.4609 9.82002L38.1809 8.82002C39.9609 7.82002 42.4109 7.93002 45.1809 9.50002C45.4709 9.67002 45.7609 9.85002 46.0509 10.05L44.3209 11.05C44.0009 10.85 43.7009 10.66 43.4109 10.5Z" fill="#123155"/>
<path d="M52.3095 17.2898C50.8013 14.4162 48.6401 11.9365 45.9995 10.0498L44.2695 11.0498C46.9087 12.945 49.0721 15.4268 50.5895 18.2998C52.0252 20.8458 52.8854 23.6755 53.1095 26.5898L54.8395 25.5898C54.6083 22.6724 53.745 19.8402 52.3095 17.2898Z" fill="#0109C4"/>
<path d="M54.8591 26.3501C54.8591 29.4301 53.7591 31.5901 52.0091 32.6101L50.2891 33.6101C52.0391 32.6101 53.1291 30.4301 53.1391 27.3501C53.1391 27.1001 53.1391 26.8401 53.1391 26.5801L54.8691 25.5801C54.8491 25.8401 54.8591 26.1001 54.8591 26.3501Z" fill="#123155"/>
</g>
<defs>
<clipPath id="clip0_406_2810">
<rect width="90" height="90" fill="white"/>
</clipPath>
</defs>
</svg>
