<svg width="100" height="100" viewBox="0 0 100 100" fill="none" xmlns="http://www.w3.org/2000/svg">
<g clip-path="url(#clip0_406_5902)">
<path d="M48.7305 55.73C48.7305 55.9811 48.805 56.2267 48.9445 56.4355C49.0841 56.6444 49.2824 56.8072 49.5145 56.9033C49.7465 56.9994 50.0019 57.0246 50.2482 56.9756C50.4946 56.9266 50.7209 56.8056 50.8985 56.628C51.0761 56.4504 51.1971 56.2241 51.2461 55.9777C51.2951 55.7314 51.2699 55.476 51.1738 55.244C51.0777 55.0119 50.9149 54.8135 50.706 54.674C50.4972 54.5344 50.2517 54.46 50.0005 54.46C49.6636 54.46 49.3406 54.5938 49.1024 54.8319C48.8643 55.0701 48.7305 55.3931 48.7305 55.73Z" fill="#0109C4"/>
<path d="M53.47 52.2601C53.014 51.8032 52.4723 51.4407 51.876 51.1934C51.2797 50.9461 50.6405 50.8188 49.995 50.8188C49.3495 50.8188 48.7103 50.9461 48.114 51.1934C47.5177 51.4407 46.9761 51.8032 46.52 52.2601C46.4213 52.342 46.3408 52.4437 46.2837 52.5586C46.2266 52.6734 46.1941 52.799 46.1884 52.9272C46.1827 53.0553 46.2039 53.1833 46.2506 53.3028C46.2972 53.4223 46.3684 53.5307 46.4595 53.6211C46.5506 53.7115 46.6595 53.7818 46.7794 53.8275C46.8992 53.8733 47.0273 53.8935 47.1555 53.8868C47.2836 53.8801 47.4089 53.8467 47.5234 53.7887C47.6378 53.7307 47.7388 53.6494 47.82 53.5501C48.4004 52.976 49.1837 52.6541 50 52.6541C50.8163 52.6541 51.5997 52.976 52.18 53.5501C52.2639 53.6374 52.365 53.7064 52.4768 53.7529C52.5887 53.7993 52.7089 53.8222 52.83 53.8201C53.011 53.8207 53.1882 53.7673 53.3387 53.6667C53.4892 53.5661 53.6063 53.423 53.675 53.2555C53.7438 53.088 53.761 52.9038 53.7244 52.7265C53.6879 52.5492 53.5993 52.3868 53.47 52.2601Z" fill="#0109C4"/>
<path d="M56.1702 49.56C55.3603 48.7491 54.3985 48.1058 53.3398 47.6668C52.2811 47.2279 51.1463 47.002 50.0002 47.002C48.8541 47.002 47.7192 47.2279 46.6605 47.6668C45.6018 48.1058 44.6401 48.7491 43.8302 49.56C43.7308 49.6412 43.6495 49.7422 43.5915 49.8567C43.5335 49.9711 43.5001 50.0964 43.4934 50.2246C43.4867 50.3527 43.5069 50.4808 43.5527 50.6006C43.5985 50.7205 43.6688 50.8295 43.7591 50.9205C43.8495 51.0116 43.9579 51.0828 44.0774 51.1295C44.1969 51.1761 44.3249 51.1973 44.4531 51.1916C44.5812 51.1859 44.7068 51.1535 44.8217 51.0964C44.9366 51.0393 45.0382 50.9587 45.1202 50.86C45.7601 50.2193 46.52 49.711 47.3565 49.3642C48.193 49.0174 49.0896 48.8389 49.9952 48.8389C50.9007 48.8389 51.7974 49.0174 52.6339 49.3642C53.4703 49.711 54.2303 50.2193 54.8702 50.86C55.047 51.0258 55.278 51.1218 55.5202 51.13C55.702 51.1298 55.8796 51.0757 56.0307 50.9746C56.1818 50.8735 56.2996 50.7299 56.3691 50.5619C56.4387 50.394 56.4569 50.2091 56.4215 50.0308C56.3861 49.8525 56.2986 49.6887 56.1702 49.56Z" fill="#0109C4"/>
<path d="M49.9981 81.5C48.8743 81.5076 47.7844 81.1156 46.9228 80.3941C46.0612 79.6726 45.484 78.6684 45.2942 77.5607C45.1044 76.453 45.3143 75.314 45.8865 74.3467C46.4587 73.3795 47.3559 72.647 48.4181 72.28L49.0581 72.05V60.45H40.8781L27.2381 74.1L27.5281 74.71C27.8285 75.3341 27.9856 76.0174 27.9881 76.71C27.996 77.6515 27.724 78.5742 27.2064 79.3608C26.6889 80.1474 25.9492 80.7624 25.0814 81.1278C24.2136 81.4932 23.2568 81.5924 22.3325 81.4128C21.4082 81.2333 20.5581 80.7831 19.8902 80.1194C19.2223 79.4557 18.7667 78.6085 18.5813 77.6853C18.3959 76.7622 18.489 75.8048 18.8489 74.9347C19.2087 74.0646 19.819 73.321 20.6023 72.7985C21.3856 72.276 22.3065 71.998 23.2481 72C23.9407 72.0025 24.624 72.1596 25.2481 72.46L25.8581 72.75L38.2781 60.39L37.1081 59.79C36.1227 59.2865 35.2958 58.5203 34.7187 57.5761C34.1416 56.632 33.8368 55.5466 33.8381 54.44C33.8371 53.6899 33.9797 52.9465 34.2581 52.25L34.7681 50.94H27.9981L27.7681 51.58C27.3953 52.637 26.6607 53.5281 25.6943 54.0957C24.7279 54.6634 23.5918 54.871 22.4871 54.6819C21.3824 54.4928 20.3801 53.9191 19.6575 53.0623C18.9349 52.2055 18.5386 51.1208 18.5386 50C18.5386 48.8792 18.9349 47.7945 19.6575 46.9377C20.3801 46.0809 21.3824 45.5072 22.4871 45.3181C23.5918 45.129 24.7279 45.3366 25.6943 45.9043C26.6607 46.4719 27.3953 47.363 27.7681 48.42L27.9981 49.06H37.1881L37.4181 48.97L37.7281 48.84L38.3781 48.58V47.89C38.3781 47.75 38.3781 47.61 38.3781 47.46C38.3483 45.6843 38.9191 43.9506 39.9981 42.54L40.5381 41.87L33.8281 35.16L33.2181 35.45C32.3341 35.8773 31.3389 36.0184 30.371 35.8535C29.4031 35.6886 28.5107 35.2259 27.8181 34.53C27.377 34.0897 27.027 33.5668 26.7882 32.9911C26.5494 32.4154 26.4265 31.7982 26.4265 31.175C26.4265 30.5517 26.5494 29.9346 26.7882 29.3589C27.027 28.7832 27.377 28.2603 27.8181 27.82C28.2584 27.3788 28.7813 27.0289 29.357 26.7901C29.9327 26.5513 30.5499 26.4284 31.1731 26.4284C31.7964 26.4284 32.4135 26.5513 32.9892 26.7901C33.5649 27.0289 34.0878 27.3788 34.5281 27.82C35.2219 28.5138 35.6837 29.4054 35.8503 30.3724C36.0168 31.3393 35.8798 32.3341 35.4581 33.22L35.1581 33.83L41.9981 40.7L42.6181 40.39C43.7183 39.833 44.935 39.5451 46.1681 39.55C46.7368 39.549 47.3038 39.6127 47.8581 39.74L49.0281 40V28L48.3881 27.77C47.3311 27.3972 46.44 26.6626 45.8724 25.6962C45.3047 24.7297 45.0971 23.5937 45.2862 22.489C45.4753 21.3842 46.049 20.382 46.9058 19.6594C47.7626 18.9368 48.8473 18.5405 49.9681 18.5405C51.0889 18.5405 52.1736 18.9368 53.0304 19.6594C53.8872 20.382 54.4609 21.3842 54.65 22.489C54.8391 23.5937 54.6315 24.7297 54.0639 25.6962C53.4962 26.6626 52.6051 27.3972 51.5481 27.77L50.9081 28V41.13L51.2581 41.42C51.5291 41.6514 51.7862 41.8984 52.0281 42.16L52.4581 42.63L53.0581 42.42C53.7009 42.1951 54.3771 42.0801 55.0581 42.08C55.3593 42.0834 55.66 42.1068 55.9581 42.15L56.4281 42.22L72.7581 25.9L72.4681 25.29C72.1677 24.6659 72.0106 23.9826 72.0081 23.29C72.0002 22.3484 72.2723 21.4258 72.7898 20.6392C73.3073 19.8526 74.047 19.2375 74.9148 18.8722C75.7826 18.5068 76.7394 18.4076 77.6637 18.5872C78.588 18.7667 79.4381 19.2169 80.106 19.8806C80.7739 20.5443 81.2295 21.3915 81.4149 22.3146C81.6004 23.2378 81.5072 24.1952 81.1474 25.0653C80.7875 25.9354 80.1772 26.679 79.3939 27.2015C78.6106 27.724 77.6897 28.0019 76.7481 28C76.0555 27.9975 75.3722 27.8404 74.7481 27.54L74.1381 27.25L58.3681 43L59.1081 43.67L59.3181 43.87C60.3694 44.9212 60.9931 46.3252 61.0681 47.81V48.49L61.7281 48.68C62.0296 48.7628 62.3239 48.8698 62.6081 49L62.7581 49.07H72.0081L72.2381 48.43C72.6109 47.373 73.3455 46.4819 74.3119 45.9142C75.2784 45.3466 76.4144 45.139 77.5191 45.3281C78.6239 45.5172 79.6261 46.0909 80.3487 46.9477C81.0713 47.8045 81.4676 48.8892 81.4676 50.01C81.4676 51.1308 81.0713 52.2155 80.3487 53.0723C79.6261 53.9291 78.6239 54.5028 77.5191 54.6919C76.4144 54.881 75.2784 54.6734 74.3119 54.1057C73.3455 53.5381 72.6109 52.647 72.2381 51.59L72.0081 50.95H65.2281L65.7481 52.26C66.2933 53.6475 66.3024 55.1883 65.7737 56.5821C65.245 57.976 64.2163 59.1231 62.8881 59.8L61.7181 60.4L66.1681 64.85L66.7781 64.56C67.787 64.0773 68.9341 63.9669 70.0166 64.2483C71.099 64.5297 72.0471 65.1848 72.6931 66.0978C73.3392 67.0107 73.6416 68.1228 73.5469 69.2372C73.4522 70.3516 72.9664 71.3966 72.1756 72.1875C71.3847 72.9783 70.3397 73.464 69.2253 73.5588C68.1109 73.6535 66.9989 73.3511 66.0859 72.705C65.1729 72.059 64.5178 71.1109 64.2364 70.0284C63.955 68.946 64.0654 67.7989 64.5481 66.79L64.8381 66.18L59.1181 60.46H50.9381V72.06L51.5781 72.29C52.6331 72.6622 53.5224 73.3955 54.0888 74.3602C54.6552 75.3249 54.8621 76.4589 54.6729 77.5614C54.4838 78.664 53.9108 79.6642 53.0552 80.385C52.1997 81.1058 51.1168 81.5007 49.9981 81.5ZM49.9981 73.89C49.4325 73.89 48.8795 74.0577 48.4092 74.372C47.9389 74.6862 47.5723 75.1329 47.3558 75.6555C47.1394 76.1781 47.0827 76.7532 47.1931 77.308C47.3034 77.8627 47.5758 78.3723 47.9758 78.7723C48.3758 79.1723 48.8854 79.4447 49.4402 79.555C49.9949 79.6654 50.57 79.6088 51.0926 79.3923C51.6152 79.1758 52.0619 78.8092 52.3761 78.3389C52.6904 77.8686 52.8581 77.3156 52.8581 76.75C52.8555 75.9923 52.5533 75.2664 52.0175 74.7306C51.4817 74.1948 50.7558 73.8926 49.9981 73.89ZM23.2481 73.89C22.6825 73.89 22.1295 74.0577 21.6592 74.372C21.1889 74.6862 20.8223 75.1329 20.6058 75.6555C20.3894 76.1781 20.3327 76.7532 20.4431 77.308C20.5534 77.8627 20.8258 78.3723 21.2258 78.7723C21.6258 79.1723 22.1354 79.4447 22.6902 79.555C23.2449 79.6654 23.82 79.6088 24.3426 79.3923C24.8652 79.1758 25.3119 78.8092 25.6261 78.3389C25.9404 77.8686 26.1081 77.3156 26.1081 76.75C26.1055 75.9923 25.8033 75.2664 25.2675 74.7306C24.7317 74.1948 24.0058 73.8926 23.2481 73.89ZM68.8281 66C68.3566 65.9959 67.8915 66.1085 67.474 66.3277C67.0566 66.5469 66.6998 66.8659 66.4354 67.2563C66.171 67.6467 66.0073 68.0965 65.9588 68.5655C65.9102 69.0345 65.9784 69.5082 66.1572 69.9445C66.336 70.3807 66.6199 70.7661 66.9836 71.0661C67.3473 71.3661 67.7796 71.5716 68.2419 71.6642C68.7042 71.7568 69.1823 71.7337 69.6335 71.5968C70.0847 71.46 70.4951 71.2138 70.8281 70.88C71.3463 70.3431 71.6358 69.6261 71.6358 68.88C71.6358 68.1339 71.3463 67.4169 70.8281 66.88C70.5694 66.6085 70.2594 66.391 69.9161 66.24C69.5729 66.0889 69.2031 66.0074 68.8281 66ZM46.1981 41.43C44.6068 41.43 43.0807 42.0621 41.9555 43.1874C40.8303 44.3126 40.1981 45.8387 40.1981 47.43C40.2009 47.9911 40.2782 48.5493 40.4281 49.09C40.465 49.2265 40.4724 49.3693 40.45 49.5089C40.4276 49.6486 40.3758 49.7818 40.2981 49.9C40.2174 50.0157 40.1116 50.1117 39.9887 50.1809C39.8658 50.2502 39.7289 50.2909 39.5881 50.3C38.54 50.4006 37.5699 50.8978 36.8761 51.6899C36.1824 52.482 35.8173 53.5091 35.8556 54.5613C35.8939 55.6136 36.3327 56.6115 37.0822 57.351C37.8318 58.0905 38.8355 58.5158 39.8881 58.54H60.1381C61.2335 58.54 62.2839 58.1049 63.0585 57.3303C63.833 56.5558 64.2681 55.5053 64.2681 54.41C64.2681 53.3146 63.833 52.2642 63.0585 51.4896C62.2839 50.7151 61.2335 50.28 60.1381 50.28H59.9981C59.8529 50.2788 59.7097 50.2459 59.5784 50.1838C59.4472 50.1216 59.3311 50.0316 59.2381 49.92C59.1466 49.8066 59.0827 49.6735 59.0515 49.5312C59.0202 49.3889 59.0225 49.2413 59.0581 49.1C59.2737 48.2853 59.2342 47.4241 58.9451 46.6325C58.6559 45.8409 58.131 45.157 57.4411 44.6731C56.7511 44.1892 55.9294 43.9284 55.0867 43.9261C54.2439 43.9238 53.4207 44.1799 52.7281 44.66C52.5729 44.7694 52.388 44.8288 52.1981 44.83H51.9981C51.8703 44.7994 51.7497 44.7439 51.6433 44.6667C51.5369 44.5895 51.4468 44.4921 51.3781 44.38C50.8466 43.4795 50.089 42.7336 49.1804 42.2162C48.2718 41.6987 47.2437 41.4277 46.1981 41.43ZM76.7481 47.14C76.1825 47.14 75.6295 47.3077 75.1592 47.622C74.6889 47.9363 74.3223 48.3829 74.1058 48.9055C73.8894 49.4281 73.8327 50.0032 73.9431 50.5579C74.0534 51.1127 74.3258 51.6223 74.7258 52.0223C75.1258 52.4223 75.6354 52.6947 76.1902 52.805C76.7449 52.9154 77.32 52.8588 77.8426 52.6423C78.3652 52.4258 78.8119 52.0592 79.1261 51.5889C79.4404 51.1186 79.6081 50.5656 79.6081 50C79.6055 49.2423 79.3033 48.5164 78.7675 47.9806C78.2318 47.4448 77.5058 47.1426 76.7481 47.14ZM23.2481 47.14C22.6825 47.14 22.1295 47.3077 21.6592 47.622C21.1889 47.9363 20.8223 48.3829 20.6058 48.9055C20.3894 49.4281 20.3327 50.0032 20.4431 50.5579C20.5534 51.1127 20.8258 51.6223 21.2258 52.0223C21.6258 52.4223 22.1354 52.6947 22.6902 52.805C23.2449 52.9154 23.82 52.8588 24.3426 52.6423C24.8652 52.4258 25.3119 52.0592 25.6261 51.5889C25.9404 51.1186 26.1081 50.5656 26.1081 50C26.1081 49.2415 25.8068 48.514 25.2704 47.9777C24.7341 47.4413 24.0066 47.14 23.2481 47.14ZM31.1681 28.31C30.4104 28.3126 29.6845 28.6148 29.1487 29.1506C28.6129 29.6864 28.3108 30.4123 28.3081 31.17C28.3086 31.5424 28.3831 31.911 28.5273 32.2543C28.6715 32.5977 28.8826 32.9089 29.1481 33.17C29.678 33.7027 30.3968 34.0046 31.1481 34.01C31.7114 34.0052 32.2607 33.8341 32.7271 33.5183C33.1936 33.2024 33.5563 32.7559 33.7699 32.2347C33.9836 31.7135 34.0385 31.1408 33.9279 30.5884C33.8173 30.0361 33.546 29.5287 33.1481 29.13C32.6211 28.6077 31.9101 28.3132 31.1681 28.31ZM76.7481 20.39C76.1825 20.39 75.6295 20.5577 75.1592 20.872C74.6889 21.1863 74.3223 21.6329 74.1058 22.1555C73.8894 22.6781 73.8327 23.2532 73.9431 23.808C74.0534 24.3627 74.3258 24.8723 74.7258 25.2723C75.1258 25.6723 75.6354 25.9447 76.1902 26.055C76.7449 26.1654 77.32 26.1088 77.8426 25.8923C78.3652 25.6758 78.8119 25.3092 79.1261 24.8389C79.4404 24.3686 79.6081 23.8156 79.6081 23.25C79.6055 22.4923 79.3033 21.7664 78.7675 21.2306C78.2318 20.6948 77.5058 20.3926 76.7481 20.39ZM49.9981 20.39C49.4325 20.39 48.8795 20.5577 48.4092 20.872C47.9389 21.1863 47.5723 21.6329 47.3558 22.1555C47.1394 22.6781 47.0827 23.2532 47.1931 23.808C47.3034 24.3627 47.5758 24.8723 47.9758 25.2723C48.3758 25.6723 48.8854 25.9447 49.4402 26.055C49.9949 26.1654 50.57 26.1088 51.0926 25.8923C51.6152 25.6758 52.0619 25.3092 52.3761 24.8389C52.6904 24.3686 52.8581 23.8156 52.8581 23.25C52.8581 22.4915 52.5568 21.764 52.0204 21.2277C51.4841 20.6913 50.7566 20.39 49.9981 20.39Z" fill="#0109C4"/>
</g>
<defs>
<clipPath id="clip0_406_5902">
<rect width="100" height="100" fill="white"/>
</clipPath>
</defs>
</svg>
