<svg width="90" height="90" viewBox="0 0 90 90" fill="none" xmlns="http://www.w3.org/2000/svg">
<g clip-path="url(#clip0_406_2672)">
<path d="M90 0H0V90H90V0Z" fill="white"/>
<path d="M80.2064 59.8101V55.0001L71.2064 52.6601L51.1364 41.0001C47.7664 39.0601 42.6664 38.8401 39.7464 40.5301L19.2164 52.4201L9.63641 54.6901V59.4901C9.62641 59.5966 9.62641 59.7037 9.63641 59.8101V59.8901C9.73641 61.1201 10.6364 62.3901 12.4164 63.4001L38.7064 78.5801C42.0764 80.5801 47.1764 80.7401 50.1064 79.0501L78.2464 62.8001C78.8341 62.5469 79.3358 62.1288 79.6907 61.5963C80.0457 61.0639 80.2387 60.44 80.2464 59.8001" fill="#BFC3C7"/>
<path d="M78.2482 57.68L50.1082 73.93C47.1782 75.62 42.1082 75.41 38.7082 73.46L12.4182 58.28C9.03819 56.28 8.67819 53.39 11.5982 51.7L39.7482 35.45C42.6682 33.76 47.7482 33.97 51.1382 35.92L77.4282 51.1C80.8082 53.05 81.1782 55.99 78.2482 57.68Z" fill="#E9E8E7"/>
<path fill-rule="evenodd" clip-rule="evenodd" d="M28.1289 53.1098L46.6989 43.1098C46.7585 43.0766 46.8256 43.0591 46.8939 43.0591C46.9622 43.0591 47.0293 43.0766 47.0889 43.1098L65.6889 53.6898C65.7781 53.7424 65.8524 53.8168 65.9049 53.906C65.9574 53.9952 65.9863 54.0964 65.9889 54.1998C65.9923 54.3022 65.9681 54.4035 65.9189 54.4932C65.8696 54.583 65.7971 54.6578 65.7089 54.7098L49.1689 63.7098C48.825 63.9016 48.4377 64.0023 48.0439 64.0023C47.6501 64.0023 47.2628 63.9016 46.9189 63.7098L34.6289 56.7098L28.5289 53.2498C28.4684 53.2137 28.3993 53.1946 28.3289 53.1946C28.2585 53.1946 28.1894 53.2137 28.1289 53.2498V53.1098Z" fill="#123155"/>
<path fill-rule="evenodd" clip-rule="evenodd" d="M44.1919 63.8198L45.7919 62.9498L46.9219 63.5998C47.2658 63.7916 47.6531 63.8923 48.0469 63.8923C48.4407 63.8923 48.8279 63.7916 49.1719 63.5998L65.7119 54.5998C65.8 54.5478 65.8726 54.473 65.9218 54.3833C65.9711 54.2935 65.9953 54.1922 65.9919 54.0898L66.0019 55.9998C66.0053 56.1022 65.9811 56.2035 65.9318 56.2933C65.8826 56.383 65.81 56.4578 65.7219 56.5098L49.1819 65.5098C48.8379 65.7016 48.4507 65.8023 48.0569 65.8023C47.6631 65.8023 47.2758 65.7016 46.9319 65.5098L44.1719 63.9398L44.1919 63.8198Z" fill="#0109C4"/>
<path fill-rule="evenodd" clip-rule="evenodd" d="M72.37 44.1602L38 62.7802L38.07 67.1302L72.44 48.5202L72.37 44.1602Z" fill="#777777"/>
<path fill-rule="evenodd" clip-rule="evenodd" d="M21.3516 53.3198L38.0016 62.7798L38.0716 67.1298L21.4216 57.6698L21.3516 53.3198Z" fill="#989898"/>
<path fill-rule="evenodd" clip-rule="evenodd" d="M21.3516 53.3202L55.7216 34.7002L72.3716 44.1602L38.0016 62.7802L21.3516 53.3202Z" fill="#BFBEBE"/>
<path fill-rule="evenodd" clip-rule="evenodd" d="M59.1617 38.2598C57.7017 39.0498 55.0117 38.8298 53.1617 37.7798L27.2617 51.7798C29.1117 52.8398 29.4417 54.3398 27.9817 55.1298L34.7117 58.9998C36.1717 58.2098 38.8617 58.4298 40.7117 59.4798L66.6017 45.4798C64.7517 44.4198 64.4217 42.9198 65.8817 42.1298L59.1517 38.3098L59.1617 38.2598Z" fill="#E9E8E7"/>
<path fill-rule="evenodd" clip-rule="evenodd" d="M35.9094 52.69C37.3594 52.69 38.5494 53.39 38.5594 54.19C38.5694 54.99 37.4094 55.63 35.9994 55.6C34.5894 55.57 33.3694 54.9 33.3594 54.1C33.3494 53.3 34.5094 52.66 35.9494 52.69H35.9094Z" fill="#BFBEBE"/>
<path fill-rule="evenodd" clip-rule="evenodd" d="M29.0703 49.1399L45.7203 58.5999L45.7903 62.9499L64.3503 52.8999L64.3003 49.8099L30.3603 48.4399L29.0703 49.1399Z" fill="#565656"/>
<path fill-rule="evenodd" clip-rule="evenodd" d="M28 46.16L46.56 36.16C46.6186 36.1237 46.6861 36.1045 46.755 36.1045C46.8239 36.1045 46.8914 36.1237 46.95 36.16L65.58 46.71C65.6701 46.7632 65.7444 46.8394 65.7954 46.9308C65.8464 47.0222 65.8721 47.1254 65.87 47.23C65.8755 47.3316 65.8533 47.4327 65.8057 47.5225C65.7582 47.6124 65.6871 47.6876 65.6 47.7401L49.06 56.68C48.7176 56.8766 48.3298 56.98 47.935 56.98C47.5402 56.98 47.1524 56.8766 46.81 56.68L34.51 49.68L28.42 46.21C28.3586 46.1768 28.2898 46.1594 28.22 46.1594C28.1502 46.1594 28.0814 46.1768 28.02 46.21L28 46.16Z" fill="#CECDCC"/>
<path fill-rule="evenodd" clip-rule="evenodd" d="M44.9981 36.9399C45.0734 36.8939 45.1599 36.8696 45.2481 36.8696C45.3363 36.8696 45.4228 36.8939 45.4981 36.9399L62.8081 46.7799C62.8803 46.8272 62.9396 46.8917 62.9807 46.9676C63.0217 47.0436 63.0432 47.1286 63.0432 47.2149C63.0432 47.3012 63.0217 47.3862 62.9807 47.4621C62.9396 47.538 62.8803 47.6026 62.8081 47.6499L48.8081 55.2199C48.5163 55.3774 48.1898 55.4599 47.8581 55.4599C47.5265 55.4599 47.2 55.3774 46.9081 55.2199L29.8381 45.4299C29.7621 45.3808 29.6736 45.3547 29.5831 45.3547C29.4927 45.3547 29.4041 45.3808 29.3281 45.4299" fill="#0109C4"/>
<path fill-rule="evenodd" clip-rule="evenodd" d="M51 49.1298C50.7331 49.0099 50.5012 48.8239 50.3262 48.5895C50.1512 48.355 50.039 48.0797 50 47.7898C50 46.7298 51.51 45.9098 53.41 45.9398C54.2441 45.9444 55.0658 46.143 55.81 46.5198H55.89L59.58 48.6198L54.75 51.2298L51 49.1398V49.1298Z" fill="#F9CDE0"/>
<path fill-rule="evenodd" clip-rule="evenodd" d="M27.7883 46.7102C27.7883 46.2202 28.0583 45.9902 28.4183 46.1902L46.8083 56.6402C47.1507 56.8367 47.5385 56.9401 47.9333 56.9401C48.328 56.9401 48.7159 56.8367 49.0583 56.6402L65.5983 47.7402C65.6853 47.6877 65.7565 47.6125 65.804 47.5227C65.8516 47.4328 65.8738 47.3317 65.8683 47.2302V49.0202C65.8738 49.1217 65.8516 49.2228 65.804 49.3127C65.7565 49.4025 65.6853 49.4777 65.5983 49.5302L49.0883 58.4702C48.745 58.6639 48.3575 58.7656 47.9633 58.7656C47.5691 58.7656 47.1816 58.6639 46.8383 58.4702L44.6583 57.2302L33.9983 51.1602L31.6383 49.8102L29.0183 48.3302V49.1402L27.7883 49.8002L27.7383 46.7102H27.7883Z" fill="#0109C4"/>
<path fill-rule="evenodd" clip-rule="evenodd" d="M29.7908 48.7401L29.0708 49.1401L29.0508 48.3301L29.7908 48.7401Z" fill="#123155"/>
<path fill-rule="evenodd" clip-rule="evenodd" d="M49.9986 47.8C50.04 48.0879 50.1534 48.3607 50.3282 48.5931C50.503 48.8256 50.7335 49.0102 50.9986 49.13L54.7686 51.27L55.7686 51.85C56.0285 52.0395 56.2419 52.2856 56.3927 52.5697C56.5434 52.8538 56.6275 53.1686 56.6386 53.49L56.7886 62.68C56.7886 63.32 56.4286 63.68 55.9586 63.36L54.5086 62.54L55.7386 61.87L55.5986 53.12L51.3486 50.7C50.5686 50.34 50.0586 49.79 50.0486 49.19V47.79L49.9986 47.8ZM45.9986 46.33H45.8086C45.8711 46.3151 45.9361 46.3151 45.9986 46.33Z" fill="#CECDCC"/>
<path fill-rule="evenodd" clip-rule="evenodd" d="M54.78 51.28L51 49.14C50.7331 49.0201 50.5012 48.8342 50.3262 48.5997C50.1512 48.3652 50.039 48.09 50 47.8C50 46.74 51.51 45.92 53.41 45.95C54.2441 45.9547 55.0658 46.1532 55.81 46.53L60.6 49.26C60.8614 49.4473 61.0753 49.6932 61.2247 49.9779C61.374 50.2627 61.4546 50.5785 61.46 50.9L61.62 60.09C61.6375 60.2268 61.618 60.3658 61.5635 60.4924C61.5089 60.6191 61.4214 60.7288 61.31 60.81L56.48 63.43C56.5914 63.3465 56.6788 63.2349 56.7332 63.1067C56.7877 62.9785 56.8073 62.8382 56.79 62.7L56.64 53.51C56.6289 53.1886 56.5448 52.8739 56.3941 52.5897C56.2433 52.3056 56.0299 52.0595 55.77 51.87L54.77 51.29L54.78 51.28Z" fill="#123155"/>
<path fill-rule="evenodd" clip-rule="evenodd" d="M55.7291 47.5198V48.1098C55.7291 48.7098 54.8691 49.1798 53.7891 49.1098C52.7191 49.1098 51.8391 48.5898 51.7891 47.9898C51.7891 47.9898 51.7891 47.3598 51.7891 47.3998C51.7891 47.9898 52.6891 48.4998 53.7891 48.5198C54.8891 48.5398 55.7891 48.0698 55.7291 47.5198Z" fill="#BFC3C7"/>
<path fill-rule="evenodd" clip-rule="evenodd" d="M53.7603 46.4002C54.8403 46.4002 55.7603 46.9202 55.7603 47.5202C55.7603 48.1202 54.9003 48.5902 53.8203 48.5202C52.7403 48.4502 51.8203 47.9902 51.8203 47.4002C51.8203 46.8102 52.6803 46.3302 53.7603 46.3502V46.4002Z" fill="#E9E8E7"/>
<path fill-rule="evenodd" clip-rule="evenodd" d="M39.2182 44.5002C38.91 44.3071 38.6774 44.0141 38.5591 43.6701C38.4408 43.3262 38.444 42.9521 38.5682 42.6102L48.4082 16.4802C48.455 16.3223 48.5372 16.1772 48.6487 16.056C48.7602 15.9348 48.8979 15.8407 49.0513 15.7808C49.2048 15.721 49.3698 15.697 49.534 15.7108C49.6981 15.7246 49.8569 15.7757 49.9982 15.8602L52.2682 17.1502L41.4782 45.7902L39.2182 44.5002Z" fill="#CECDCC"/>
<path fill-rule="evenodd" clip-rule="evenodd" d="M38.9289 22.7299C37.8046 24.086 36.986 25.6687 36.5289 27.3699C36.2062 28.4945 36.0479 29.66 36.0589 30.8299C36.0628 31.4766 36.1399 32.1207 36.2889 32.7499C36.3815 33.2851 36.5805 33.7963 36.8743 34.2532C37.168 34.7101 37.5504 35.1035 37.9989 35.4099L35.8089 34.1599C35.3552 33.8596 34.9665 33.4711 34.6658 33.0176C34.3652 32.5641 34.1588 32.0548 34.0589 31.5199C33.9105 30.8939 33.8334 30.2532 33.8289 29.6099C33.8155 28.4325 33.9773 27.2597 34.3089 26.1299C34.7781 24.4314 35.5992 22.8506 36.7189 21.4899C37.2433 20.855 37.8807 20.3227 38.5989 19.9199C39.31 19.4637 40.1708 19.3023 40.9989 19.4699C41.233 19.5303 41.4583 19.6211 41.6689 19.7399L43.8689 20.9999C43.6554 20.8724 43.4222 20.7812 43.1789 20.7299C42.375 20.5714 41.5409 20.7175 40.8389 21.1399C40.1213 21.5519 39.4816 22.0867 38.9489 22.7199L38.9289 22.7299Z" fill="#CECDCC"/>
<path fill-rule="evenodd" clip-rule="evenodd" d="M38.4493 27.7601C38.2698 28.3875 38.1822 29.0376 38.1893 29.6901C38.1963 30.0608 38.2432 30.4296 38.3293 30.7901C38.3908 31.1694 38.5602 31.523 38.8174 31.8085C39.0745 32.094 39.4085 32.2994 39.7793 32.4001C40.2002 32.4615 40.6296 32.3805 40.9993 32.1701C41.4223 31.9295 41.7957 31.6105 42.0993 31.2301C42.6964 30.4868 43.1354 29.6292 43.3893 28.7101C43.5765 28.0602 43.6675 27.3864 43.6593 26.7101C43.6578 26.3739 43.6209 26.0387 43.5493 25.7101C43.5102 25.3305 43.366 24.9693 43.1328 24.6672C42.8996 24.365 42.5867 24.134 42.2293 24.0001C41.7696 23.9049 41.2909 23.9871 40.8893 24.2301C40.5113 24.4604 40.1735 24.7509 39.8893 25.0901C39.2485 25.8578 38.7811 26.755 38.5193 27.7201L38.4493 27.7601ZM45.3493 29.1101C44.8857 30.7566 44.0855 32.2889 42.9993 33.6101C42.4639 34.2697 41.8092 34.8227 41.0693 35.2401C40.3962 35.6421 39.6044 35.7977 38.8293 35.6801C37.6393 35.4501 36.7093 34.4001 36.2893 32.7501C36.1409 32.1343 36.0637 31.5035 36.0593 30.8701C36.0467 29.6895 36.2085 28.5135 36.5393 27.3801C37.0052 25.6914 37.8231 24.1203 38.9393 22.7701C39.4623 22.1378 40.0959 21.6058 40.8093 21.2001C41.5134 20.7734 42.3522 20.627 43.1593 20.7901C43.8156 21.0125 44.3948 21.4177 44.8289 21.958C45.2629 22.4983 45.5336 23.1513 45.6093 23.8401C45.7399 24.4146 45.8103 25.0011 45.8193 25.5901C45.8258 26.7849 45.6573 27.9742 45.3193 29.1201L45.3493 29.1101Z" fill="#123155"/>
<path fill-rule="evenodd" clip-rule="evenodd" d="M43.4287 28.6998C43.1683 29.6233 42.7226 30.4841 42.1187 31.2298C41.8151 31.6101 41.4418 31.9292 41.0187 32.1698C40.6483 32.3885 40.2152 32.4766 39.7887 32.4198C39.4453 32.3566 39.1343 32.1764 38.9087 31.9098C38.7163 31.6971 38.5669 31.4492 38.4688 31.1798C38.6515 31.1395 38.8293 31.0791 38.9987 30.9998C39.4231 30.7569 39.7993 30.4383 40.1087 30.0598C40.7038 29.3098 41.1455 28.4502 41.4087 27.5298C41.6033 26.8814 41.6944 26.2065 41.6787 25.5298C41.6798 25.1939 41.6463 24.8588 41.5788 24.5298C41.5302 24.3404 41.4632 24.1561 41.3787 23.9798C42.2787 23.6998 43.2887 24.1898 43.6187 25.6898C43.6912 26.0182 43.728 26.3535 43.7287 26.6898C43.7356 27.3667 43.6413 28.0408 43.4487 28.6898L43.4287 28.6998Z" fill="#CECDCC"/>
<path fill-rule="evenodd" clip-rule="evenodd" d="M50.6992 29.4202C49.5788 30.7789 48.7606 32.3606 48.2992 34.0602C47.9765 35.1848 47.8182 36.3502 47.8292 37.5202C47.8312 38.1675 47.9118 38.8123 48.0692 39.4402C48.1671 39.9744 48.3727 40.4831 48.6736 40.9353C48.9744 41.3874 49.3642 41.7736 49.8192 42.0702L47.6192 40.8202C47.1655 40.5199 46.7768 40.1314 46.4761 39.6779C46.1755 39.2244 45.9691 38.715 45.8692 38.1802C45.7126 37.5555 45.632 36.9142 45.6292 36.2702C45.6209 35.0931 45.7826 33.921 46.1092 32.7902C46.5742 31.09 47.3957 29.5083 48.5192 28.1502C49.0458 27.5175 49.6828 26.9856 50.3992 26.5802C51.1047 26.1571 51.9421 26.011 52.7492 26.1702C52.9834 26.2306 53.2086 26.3213 53.4192 26.4402L55.6192 27.6902C55.4044 27.5653 55.1717 27.4742 54.9292 27.4202C54.1286 27.2622 53.2978 27.4084 52.5992 27.8302C51.8798 28.2396 51.2396 28.7747 50.7092 29.4102L50.6992 29.4202Z" fill="#CECDCC"/>
<path fill-rule="evenodd" clip-rule="evenodd" d="M50.2283 34.4501C50.054 35.078 49.9765 35.7288 49.9983 36.3801C49.9953 36.7514 50.0424 37.1214 50.1383 37.4801C50.1998 37.8594 50.3693 38.213 50.6264 38.4985C50.8836 38.784 51.2175 38.9894 51.5883 39.0901C52.0116 39.147 52.4416 39.0589 52.8083 38.8401C53.2344 38.5998 53.6111 38.2808 53.9183 37.9001C54.5174 37.1617 54.9567 36.307 55.2083 35.3901C55.4006 34.7413 55.4917 34.0667 55.4783 33.3901C55.4822 33.0536 55.4452 32.7178 55.3683 32.3901C55.32 32.0076 55.1662 31.6461 54.9243 31.3459C54.6824 31.0457 54.3618 30.8187 53.9983 30.6901C53.5432 30.5915 53.0675 30.6702 52.6683 30.9101C52.289 31.1386 51.951 31.4293 51.6683 31.7701C51.0237 32.5353 50.556 33.4333 50.2983 34.4001L50.2283 34.4501ZM57.1183 35.8001C56.6613 37.4452 55.8679 38.9775 54.7883 40.3001C54.2561 40.9892 53.5935 41.5668 52.8383 42.0001C52.1702 42.4054 51.3803 42.5613 50.6083 42.4401C49.9481 42.246 49.3581 41.8653 48.9092 41.3437C48.4604 40.8221 48.1718 40.1819 48.0783 39.5001C47.9299 38.8843 47.8528 38.2535 47.8483 37.6201C47.8358 36.4395 47.9975 35.2635 48.3283 34.1301C48.7935 32.4391 49.6153 30.8672 50.7383 29.5201C51.265 28.8875 51.9019 28.3555 52.6183 27.9501C53.3114 27.4678 54.165 27.2741 54.9983 27.4101C56.1683 27.6901 57.0683 28.7801 57.4483 30.4601C57.5839 31.0337 57.6543 31.6208 57.6583 32.2101C57.6682 33.4044 57.5032 34.5937 57.1683 35.7401L57.1183 35.8001Z" fill="#123155"/>
<path fill-rule="evenodd" clip-rule="evenodd" d="M55.1983 35.39C54.9454 36.3144 54.5026 37.1761 53.8983 37.92C53.5969 38.3024 53.2231 38.6219 52.7983 38.86C52.4299 39.0841 51.9949 39.1725 51.5683 39.11C51.2218 39.0474 50.9074 38.8673 50.6783 38.6C50.4858 38.3873 50.3364 38.1394 50.2383 37.87C50.4152 37.8365 50.5867 37.7793 50.7483 37.7C51.1741 37.4592 51.5507 37.1403 51.8583 36.76C52.4626 36.0161 52.9054 35.1544 53.1583 34.23C53.3518 33.5812 53.4462 32.9069 53.4383 32.23C53.4362 31.8937 53.3993 31.5586 53.3283 31.23C53.2786 31.0422 53.2151 30.8583 53.1383 30.68C54.0283 30.4 55.0383 30.89 55.3683 32.39C55.4461 32.7175 55.483 33.0534 55.4783 33.39C55.4852 34.0669 55.3908 34.741 55.1983 35.39Z" fill="#CECDCC"/>
<path fill-rule="evenodd" clip-rule="evenodd" d="M52.9113 19C53.0355 18.6582 53.0387 18.2841 52.9204 17.9401C52.8021 17.5962 52.5695 17.3032 52.2613 17.11C52.1196 17.0275 51.961 16.978 51.7975 16.9652C51.6339 16.9525 51.4696 16.9768 51.3167 17.0364C51.1639 17.096 51.0265 17.1893 50.9147 17.3094C50.803 17.4295 50.7198 17.5733 50.6713 17.73L40.8413 43.9C40.7181 44.241 40.7143 44.6137 40.8306 44.957C40.9469 45.3004 41.1763 45.5941 41.4813 45.79C41.6231 45.8726 41.7817 45.9221 41.9452 45.9349C42.1088 45.9476 42.2731 45.9233 42.4259 45.8637C42.5788 45.8041 42.7162 45.7108 42.828 45.5907C42.9397 45.4706 43.0229 45.3268 43.0713 45.17L52.9113 19Z" fill="#123155"/>
</g>
<defs>
<clipPath id="clip0_406_2672">
<rect width="90" height="90" fill="white"/>
</clipPath>
</defs>
</svg>
