<svg width="155" height="155" viewBox="0 0 155 155" fill="none" xmlns="http://www.w3.org/2000/svg">
<path d="M37.5 27.5H117.5C123 27.5 127.5 32 127.5 37.5V117.5C127.5 123 123 127.5 117.5 127.5H37.5C32 127.5 27.5 123 27.5 117.5V37.5C27.5 32 32 27.5 37.5 27.5Z" fill="#FCF5E5"/>
<path d="M60.7969 62.3999H62.9969C64.8969 62.3999 66.3969 63.6999 66.8969 65.3999C67.2969 64.9999 67.5969 64.4999 67.7969 63.9999C68.4969 65.7999 70.2969 66.9999 72.2969 66.9999C74.0969 66.9999 75.6969 65.9999 76.4969 64.5999C77.4969 65.6999 78.9969 66.3999 80.5969 66.3999C83.5969 66.3999 86.0969 63.8999 86.0969 60.8999C86.0969 57.8999 83.5969 55.3999 80.5969 55.3999C79.9969 55.3999 79.3969 55.4999 78.8969 55.6999C78.1969 54.9999 77.1969 54.5999 76.1969 54.5999C75.1969 54.5999 74.3969 54.9999 73.6969 55.4999C72.8969 53.6999 71.0969 52.3999 68.9969 52.3999C66.0969 52.3999 63.7969 54.6999 63.7969 57.5999C63.7969 58.1999 63.8969 58.6999 64.0969 59.1999C62.3969 59.3999 60.9969 60.6999 60.7969 62.3999Z" fill="#EC8B00"/>
<path d="M99.9984 97.1H98.7984V76.9C98.7984 76.4 98.1984 76 97.7984 76.3L88.5984 81.4V77C88.5984 76.5 87.9984 76.1 87.5984 76.4L78.3984 81.5V77.1C78.3984 76.6 77.7984 76.2 77.3984 76.5L68.1984 81.6V97.4H65.3984L63.9984 66.6C63.9984 66.1 63.5984 65.7 63.0984 65.7H58.9984C58.4984 65.7 58.0984 66.1 58.0984 66.6L56.6984 97.4H54.9984C54.3984 97.4 53.8984 97.9 53.8984 98.5V101.7C53.8984 102.3 54.3984 102.8 54.9984 102.8H99.9984C100.598 102.8 101.098 102.3 101.098 101.7V98.5C101.098 97.6 100.598 97.1 99.9984 97.1ZM85.7984 86.9C85.7984 86.4 86.1984 86 86.6984 86H92.0984C92.5984 86 92.9984 86.4 92.9984 86.9V92.3C92.9984 92.8 92.5984 93.2 92.0984 93.2H86.6984C86.1984 93.2 85.7984 92.8 85.7984 92.3V86.9ZM73.8984 86.9C73.8984 86.4 74.2984 86 74.7984 86H80.1984C80.6984 86 81.0984 86.4 81.0984 86.9V92.3C81.0984 92.8 80.6984 93.2 80.1984 93.2H74.7984C74.2984 93.2 73.8984 92.8 73.8984 92.3V86.9Z" fill="#FDB141"/>
</svg>
