<svg width="155" height="155" viewBox="0 0 155 155" fill="none" xmlns="http://www.w3.org/2000/svg">
<path d="M117.5 27.5H37.5C31.9772 27.5 27.5 31.9772 27.5 37.5V117.5C27.5 123.023 31.9772 127.5 37.5 127.5H117.5C123.023 127.5 127.5 123.023 127.5 117.5V37.5C127.5 31.9772 123.023 27.5 117.5 27.5Z" fill="#FFE9E9"/>
<path fill-rule="evenodd" clip-rule="evenodd" d="M102.342 93.94C101.897 93.455 101.356 93.0678 100.753 92.8029C100.151 92.5381 99.4997 92.4013 98.8416 92.4013C98.1834 92.4013 97.5324 92.5381 96.9299 92.8029C96.3274 93.0678 95.7865 93.455 95.3416 93.94C94.8716 94.4177 94.3113 94.7971 93.6932 95.0561C93.0751 95.3151 92.4117 95.4484 91.7416 95.4484C91.0714 95.4484 90.408 95.3151 89.7899 95.0561C89.1719 94.7971 88.6115 94.4177 88.1416 93.94C87.6974 93.4537 87.1568 93.0652 86.5542 92.7995C85.9516 92.5337 85.3002 92.3965 84.6416 92.3965C83.983 92.3965 83.3316 92.5337 82.729 92.7995C82.1263 93.0652 81.5857 93.4537 81.1416 93.94H81.0016C80.555 94.4223 80.0136 94.807 79.4113 95.0702C78.809 95.3333 78.1588 95.4692 77.5016 95.4692C76.8443 95.4692 76.1941 95.3333 75.5918 95.0702C74.9895 94.807 74.4481 94.4223 74.0016 93.94C73.5351 93.4561 72.976 93.0712 72.3574 92.8083C71.7389 92.5454 71.0737 92.4099 70.4016 92.4099C69.7295 92.4099 69.0643 92.5454 68.4457 92.8083C67.8272 93.0712 67.268 93.4561 66.8016 93.94C66.355 94.4223 65.8136 94.807 65.2113 95.0702C64.609 95.3333 63.9588 95.4692 63.3016 95.4692C62.6443 95.4692 61.9941 95.3333 61.3918 95.0702C60.7895 94.807 60.2481 94.4223 59.8016 93.94C59.3351 93.4561 58.776 93.0712 58.1574 92.8083C57.5389 92.5454 56.8737 92.4099 56.2016 92.4099C55.5295 92.4099 54.8643 92.5454 54.2457 92.8083C53.6272 93.0712 53.068 93.4561 52.6016 93.94V100.8C52.6016 101.023 52.6455 101.244 52.731 101.451C52.8164 101.657 52.9416 101.844 53.0995 102.002C53.2573 102.16 53.4447 102.285 53.651 102.371C53.8573 102.456 54.0783 102.5 54.3016 102.5H100.582C101.032 102.5 101.465 102.321 101.784 102.002C102.102 101.683 102.282 101.251 102.282 100.8V93.94H102.342Z" fill="#FDB4B4"/>
<path fill-rule="evenodd" clip-rule="evenodd" d="M58.8709 72.6201V78.4601H74.1809V65.7301C74.1809 65.4649 74.0756 65.2106 73.888 65.023C73.7005 64.8355 73.4462 64.7301 73.1809 64.7301H65.8109C65.5457 64.7301 65.2914 64.8355 65.1038 65.023C64.9163 65.2106 64.8109 65.4649 64.8109 65.7301V69.6201H64.4809L59.3209 62.1201H55.7109L58.8709 72.6201Z" fill="#FF9797"/>
<path fill-rule="evenodd" clip-rule="evenodd" d="M58.6719 58.0699H61.6719C62.3203 58.0858 62.9527 57.8669 63.4526 57.4535C63.9524 57.04 64.286 56.4599 64.3919 55.8199H66.1019C66.4997 55.8199 66.8812 55.6619 67.1625 55.3806C67.4438 55.0993 67.6019 54.7177 67.6019 54.3199C67.6019 53.9221 67.4438 53.5405 67.1625 53.2592C66.8812 52.9779 66.4997 52.8199 66.1019 52.8199H64.1019C63.4534 52.804 62.821 53.0229 62.3212 53.4363C61.8214 53.8498 61.4878 54.4299 61.3819 55.0699H58.3819C57.6595 55.0804 56.9702 55.3748 56.4631 55.8894C55.956 56.404 55.6718 57.0974 55.6719 57.8199V59.0699H58.6719V58.0699Z" fill="#FDB4B4"/>
<path fill-rule="evenodd" clip-rule="evenodd" d="M82.8217 53.32L79.2617 78.46H94.8117L91.2517 53.32C91.2111 53.097 91.096 52.8945 90.9252 52.7455C90.7545 52.5965 90.5381 52.5099 90.3117 52.5H83.7617C83.5353 52.5099 83.319 52.5965 83.1482 52.7455C82.9774 52.8945 82.8623 53.097 82.8217 53.32ZM83.6117 68.08L89.6117 62.08L90.1117 66.26L82.9417 73.6L83.6117 68.08ZM88.6117 55.51L89.1117 58.51L84.4317 63.37L85.4317 55.49L88.6117 55.51ZM85.0017 75.78L90.6817 69.78L91.3517 75.78H85.0017Z" fill="#FF9797"/>
<path fill-rule="evenodd" clip-rule="evenodd" d="M55.8516 81.35C55.5863 81.35 55.332 81.4554 55.1445 81.6429C54.9569 81.8305 54.8516 82.0848 54.8516 82.35V85.71C54.8516 85.9753 54.9569 86.2296 55.1445 86.4172C55.332 86.6047 55.5863 86.71 55.8516 86.71H61.3516V91.22C61.6032 91.4199 61.8436 91.6335 62.0716 91.86C62.2274 92.0452 62.4218 92.194 62.6412 92.2961C62.8605 92.3982 63.0996 92.4511 63.3416 92.4511C63.5835 92.4511 63.8226 92.3982 64.042 92.2961C64.2613 92.194 64.4557 92.0452 64.6116 91.86C66.1059 90.3381 68.139 89.4653 70.2716 89.43V86.61H84.6416V89.33C86.8041 89.3481 88.8715 90.2218 90.3916 91.76C90.572 91.9463 90.7881 92.0945 91.0268 92.1958C91.2656 92.2972 91.5222 92.3496 91.7816 92.35C92.3077 92.3452 92.8107 92.1332 93.1816 91.76C93.3044 91.6325 93.4346 91.5123 93.5716 91.4V86.61H99.3116C99.5768 86.61 99.8311 86.5047 100.019 86.3172C100.206 86.1296 100.312 85.8753 100.312 85.61V82.3C100.312 82.0348 100.206 81.7805 100.019 81.5929C99.8311 81.4054 99.5768 81.3 99.3116 81.3L55.8516 81.35Z" fill="#FF9797"/>
</svg>
