<svg width="90" height="90" viewBox="0 0 90 90" fill="none" xmlns="http://www.w3.org/2000/svg">
<g clip-path="url(#clip0_406_728)">
<path d="M90 0H0V90H90V0Z" fill="white"/>
<path d="M80.2113 59.8113H80.2209V54.9502L71.1829 52.6124L51.1429 41.0426C47.7699 39.0949 42.6665 38.8826 39.7446 40.5705L19.2184 52.4205L9.6371 54.6898V59.4887C9.63031 59.5956 9.63257 59.7043 9.6371 59.8113V59.886H9.6405C9.73616 61.1171 10.6696 62.3936 12.4169 63.4017L38.7048 78.58C42.0801 80.5277 47.1829 80.74 50.1048 79.0532L78.2516 62.8017C79.6294 62.007 80.2667 60.9304 80.2113 59.8113Z" fill="#BFC3C7"/>
<path d="M78.2514 57.6804L50.1046 73.9319C47.1827 75.6181 42.0798 75.4058 38.7051 73.4587L12.4166 58.2815C9.04193 56.3326 8.6757 53.387 11.5976 51.6996L39.7444 35.4492C42.6663 33.7619 47.7691 33.9736 51.1427 35.9213L77.4323 51.0996C80.807 53.0468 81.1732 55.9941 78.2514 57.6804Z" fill="#E9E8E7"/>
<path d="M66.4977 79.2028C66.1813 79.385 65.7319 79.4439 65.3254 79.3794C65.1228 79.3477 64.9332 79.2854 64.7736 79.1937C64.5103 79.042 64.3949 78.8394 64.4164 78.6435H64.4102V75.3096H66.8368V78.6435C66.8707 78.8445 66.7609 79.0499 66.4977 79.2028Z" fill="#2C2C2C"/>
<path d="M66.4854 74.8161C66.0054 74.5381 65.2333 74.5342 64.7606 74.807C64.288 75.0804 64.2942 75.5264 64.7742 75.8038C65.2537 76.0812 66.0257 76.0851 66.4978 75.8129C66.9705 75.5395 66.9654 75.0934 66.4854 74.8161Z" fill="#E8E7E7"/>
<path d="M66.3355 74.9913C65.9393 74.7621 65.3014 74.7592 64.9108 74.984C64.5202 75.2098 64.5253 75.5783 64.9215 75.8075C65.3178 76.0374 65.9557 76.0408 66.3468 75.8149C66.7368 75.5896 66.7317 75.2206 66.3355 74.9913Z" fill="#E8E7E7"/>
<path d="M66.184 75.5803C65.9825 75.6969 65.6955 75.7337 65.4357 75.6929C65.3061 75.6726 65.185 75.6329 65.0831 75.5746C64.9155 75.4773 64.8414 75.3488 64.855 75.2231H64.8516L64.8533 44.6084H66.4025L66.4002 75.2231C66.4223 75.3516 66.3521 75.4829 66.184 75.5803Z" fill="#BFBEBE"/>
<path d="M66.1767 44.2929C65.8705 44.1163 65.3775 44.1134 65.0758 44.2878C64.7735 44.4621 64.7775 44.7468 65.0837 44.924C65.3905 45.1017 65.8835 45.104 66.1852 44.9297C66.4869 44.7553 66.4835 44.47 66.1767 44.2929Z" fill="#BFBEBE"/>
<path d="M46.2227 27.7567L54.2791 35.7837L55.4694 35.0937L47.3559 27.2314L46.2227 27.7567Z" fill="#123155"/>
<path d="M45.9688 28.628L54.2793 37.2125V35.7838L46.2223 27.7568L45.9688 28.628Z" fill="#0109C4"/>
<path d="M45.6523 40.2952L59.9205 56.8003L61.0435 56.1488L46.7856 39.7705L45.6523 40.2952Z" fill="#123155"/>
<path d="M45.6591 41.5068L58.7686 56.1389L59.9205 56.8006L45.6523 40.2949L45.6591 41.5068Z" fill="#0109C4"/>
<path d="M34.6562 38.5082L35.8512 39.0363L45.107 28.6433L43.9738 28.1191L34.6562 38.5082Z" fill="#0109C4"/>
<path d="M35.8516 39.036L36.9978 38.5368L45.3616 29.5153L45.1074 28.6436L35.8516 39.036Z" fill="#123155"/>
<path d="M29.332 56.2118L30.4998 56.8899L46.9703 40.369L45.8371 39.8442L29.332 56.2118Z" fill="#0109C4"/>
<path d="M30.3516 56.6812L31.6087 56.139L47.2263 41.2408L46.9721 40.3691L30.3516 56.6812Z" fill="#123155"/>
<path d="M46.6889 56.7165C46.0396 57.0917 45.1176 57.2117 44.2827 57.0793C43.8683 57.0136 43.4778 56.8868 43.1506 56.6995C42.6112 56.387 42.3734 55.9727 42.4187 55.5702H42.4062V24.2865L47.384 21.604V55.5702C47.4536 55.9817 47.2283 56.404 46.6889 56.7165Z" fill="#2C2C2C"/>
<path d="M52.2734 26.2558L60.0717 56.883L61.1002 56.2547L53.3512 25.7441L52.2734 26.2558Z" fill="#123155"/>
<path d="M51.0312 25.5845L58.8199 56.172L60.0709 56.8835L52.272 26.2564L51.0312 25.5845Z" fill="#0109C4"/>
<path d="M51.0312 25.5907L52.2726 26.2626L53.3497 25.7441L52.1084 25.0728L51.0312 25.5907Z" fill="#CECDCC"/>
<path d="M30.5 56.8903L31.7492 56.1244L40.6474 26.2886L39.457 26.8405L30.5 56.8903Z" fill="#123155"/>
<path d="M29.332 56.2118L30.4998 56.8899L39.4567 26.8401L38.3626 26.1167L29.332 56.2118Z" fill="#0109C4"/>
<path d="M38.3633 26.1235L39.458 26.8469L40.6478 26.2888L39.5542 25.5654L38.3633 26.1235Z" fill="#CECDCC"/>
<path d="M38.1211 31.3627L45.4734 44.1585L46.6632 43.4691L39.2543 30.8374L38.1211 31.3627Z" fill="#123155"/>
<path d="M37.8672 32.2345L44.3211 43.4969L45.4736 44.1586L38.1208 31.3628L37.8672 32.2345Z" fill="#0109C4"/>
<path d="M33.4375 47.018L44.0632 64.6489L45.2156 63.9374L34.5707 46.4927L33.4375 47.018Z" fill="#123155"/>
<path d="M33.2227 47.9117L42.9127 63.9877L44.0645 64.6494L33.4762 47.0405L33.2227 47.9117Z" fill="#0109C4"/>
<path d="M44.6016 40.6486L45.4931 41.8503L52.9467 28.8173L51.8134 28.292L44.6016 40.6486Z" fill="#0109C4"/>
<path d="M45.4922 41.8504L46.6441 41.1881L53.1999 29.6885L52.9458 28.8174L45.4922 41.8504Z" fill="#123155"/>
<path d="M44.0625 64.6493L45.2144 65.3178L57.1889 45.2512L56.0557 44.7271L44.0625 64.6493Z" fill="#0109C4"/>
<path d="M45.2148 65.3175L46.3662 64.6558L57.4435 46.1232L57.1894 45.2515L45.2148 65.3175Z" fill="#123155"/>
<path d="M45.2148 65.3787L46.4047 64.6887L47.0165 29.7144L45.8267 30.2662L45.2148 65.3787Z" fill="#123155"/>
<path d="M44.0625 64.7168L45.2144 65.3784L45.8257 30.2722L44.7321 29.5488L44.0625 64.7168Z" fill="#0109C4"/>
<path d="M44.1602 23.7826L45.2079 24.2869L46.4147 23.6332L45.3675 23.1294L44.1602 23.7826Z" fill="#949A75"/>
<path d="M45.8697 21.9033L38.3125 26.2646L37.7969 25.9675V26.5635L45.8697 31.2243L53.9425 26.5635V25.9675L53.4269 26.2646L45.8697 21.9033Z" fill="#0109C4"/>
<path d="M37.7969 25.9674L45.8703 30.6282L53.9431 25.9674L45.8703 21.3066L37.7969 25.9674Z" fill="#CECDCC"/>
<path d="M45.8711 31.2246L53.9439 26.5644L53.9445 25.9678L45.8711 30.6285V31.2246Z" fill="#123155"/>
<path d="M27.1836 22.2174L27.204 26.8838L33.2928 23.2148L33.2702 18.751L27.1836 22.2174Z" fill="#123155"/>
<path d="M25.375 21.2291L27.1807 22.2174L33.2673 18.751L31.4616 17.7627L25.375 21.2291Z" fill="#CECDCC"/>
<path d="M25.3789 21.2275L25.3965 25.8951L27.2027 26.884L27.1851 22.2158L25.3789 21.2275Z" fill="#0109C4"/>
<path d="M32.1094 14.3868L32.1377 18.8738L32.4858 18.6847L32.4575 14.1978L32.1094 14.3868Z" fill="#2C2C2C"/>
<path d="M31.4414 13.9868L31.4691 18.4738L32.1371 18.874L32.1093 14.387L31.4414 13.9868Z" fill="#4A4A4A"/>
<path d="M31.4414 13.9907L31.4691 18.4737L32.1371 18.8739L32.1093 14.3903L31.4414 13.9907Z" fill="#4A4A4A"/>
<path d="M26.9023 17.2535L26.9306 21.7411L27.2788 21.552L27.2505 17.0645L26.9023 17.2535Z" fill="#2C2C2C"/>
<path d="M26.2344 16.854L26.2627 21.341L26.93 21.7412L26.9023 17.2536L26.2344 16.854Z" fill="#989898"/>
<path d="M26.2344 16.8574L26.2627 21.341L26.93 21.7412L26.9029 17.2576L26.2344 16.8574Z" fill="#4A4A4A"/>
<path d="M27.0156 17.7628L32.4167 14.6864L32.4778 14.0723L26.9023 17.254L27.0156 17.7628Z" fill="#2C2C2C"/>
<path d="M26.2344 16.8542L26.9023 17.2538L32.4676 14.1236L31.6712 13.7251L26.2344 16.8542Z" fill="#CECDCC"/>
<path d="M29.5117 13.2929L29.5123 15.8089L30.1576 15.4546L30.1564 13.0908L29.5117 13.2929Z" fill="#2C2C2C"/>
<path d="M28.7305 12.8979L28.7316 15.4106L29.5105 15.8096L29.5099 13.2964L28.7305 12.8979Z" fill="#CECDCC"/>
<path d="M47.1919 20.5185C47.0136 20.5071 46.8495 20.5371 46.7023 20.6028C46.6672 20.6186 46.6332 20.6368 46.5999 20.6566L46.5931 20.6605L45.7734 21.1445L46.1895 21.0896C45.9512 21.5045 45.8685 22.1107 46.0021 22.8002C46.2557 24.0998 47.1823 25.2002 48.084 25.2856L47.9844 25.5777L48.6529 25.1837C48.6925 25.1639 48.7316 25.1413 48.7683 25.1158L48.7921 25.1017H48.7876C49.2704 24.7524 49.4968 23.9594 49.3117 23.009C49.0548 21.6913 48.1061 20.5768 47.1919 20.5185Z" fill="#123155"/>
<path d="M46.3518 21.0165C45.4382 20.9582 44.9056 21.9799 45.162 23.2977C45.4196 24.6154 46.3677 25.7311 47.2824 25.7888C48.196 25.8465 48.7281 24.8254 48.4716 23.5071C48.2147 22.1894 47.266 21.0743 46.3518 21.0165Z" fill="#0109C4"/>
<path d="M28.0006 12.6905L62.6585 40.6131L64.2276 38.2607L27.9961 9.02539L28.0006 12.6905Z" fill="#989898"/>
<path d="M28.6367 12.5711L62.5582 39.8654L63.5737 38.3575L28.6367 10.1875V12.5711Z" fill="#2C2C2C"/>
<path d="M29.038 10.5243L28.6367 10.1875V12.5711L62.5582 39.8654L62.7156 39.6317L29.0329 12.5417L29.038 10.5243Z" fill="#B2B2B2"/>
<path d="M27.9961 9.02561L32.4163 12.8158L64.2287 38.2728L65.667 37.4039L29.4338 8.15674L27.9961 9.02561Z" fill="#CECDCC"/>
<path d="M62.6602 40.613L63.7237 39.9802L65.68 37.4053L64.2286 38.2606L62.6602 40.613Z" fill="#121312"/>
<path d="M43.2042 22.7973C43.0253 22.7859 42.8612 22.8159 42.7146 22.881C42.6789 22.8975 42.6455 22.9156 42.6121 22.9348L42.6053 22.9388L42.6042 22.9393L41.7852 23.4227L42.2018 23.3678C41.9629 23.7827 41.8803 24.3895 42.0138 25.0784C42.268 26.3786 43.194 27.479 44.0963 27.5644L43.9967 27.8559L44.6646 27.4625C44.7042 27.4422 44.7433 27.4201 44.7801 27.3941L44.8038 27.3805L44.7993 27.3799C45.2821 27.0312 45.5086 26.2376 45.3235 25.2878C45.067 23.9701 44.1178 22.855 43.2042 22.7973Z" fill="#123155"/>
<path d="M42.3641 23.2948C41.4505 23.2371 40.9173 24.2588 41.1737 25.5765C41.4312 26.8942 42.3799 28.0093 43.2941 28.0676C44.2077 28.1248 44.7397 27.1037 44.4833 25.7854C44.2269 24.4676 43.2777 23.3531 42.3641 23.2948Z" fill="#0109C4"/>
<path d="M64.0655 31.9858C64.0655 31.9858 61.4985 35.999 61.2523 39.9732C61.0072 43.9479 61.837 46.2687 61.837 46.2687L63.0302 46.8817L67.8455 39.907L66.0653 33.2753L64.0655 31.9858Z" fill="#0109C4"/>
<path d="M64.0664 31.986L66.0662 33.2754L68.5013 31.8841L66.5009 30.5952L64.0664 31.986Z" fill="#CECDCC"/>
<path d="M63.0312 46.8822L65.4658 45.4908L67.4231 43.2669L70.0801 38.5161L67.6456 39.9074L63.0312 46.8822Z" fill="#123155"/>
<path d="M64.4258 46.7351L66.9945 45.5833L71.1305 41.5151L68.0139 43.0616L64.4258 46.7351Z" fill="#2C2C2C"/>
<path d="M67.4213 38.39L66.875 38.0034L66.4426 38.2094L64.4258 46.7351L70.158 40.2749L70.3363 38.0068L69.8003 37.1753L67.4213 38.39Z" fill="#828282"/>
<path d="M66.4432 38.209L64.0693 41.6703L63.5508 45.9297L64.4264 46.7352L68.014 43.0611L67.8487 39.1152L66.4432 38.209Z" fill="#5B5B5B"/>
<path d="M64.6115 45.4665L64.6126 45.466L64.6104 45.462C64.5923 45.3941 64.56 45.3278 64.5181 45.2667C64.5141 45.2616 64.5136 45.2548 64.5096 45.2492L64.5062 45.2509C64.4604 45.1886 64.4083 45.132 64.3477 45.098C64.3206 45.0816 64.2945 45.0731 64.2696 45.0663L64.2685 45.0703C64.1524 45.0431 64.0664 45.1031 64.0664 45.2554C64.0664 45.4077 64.2583 45.6986 64.376 45.7473C64.4938 45.7954 64.5611 45.7733 64.6019 45.6969L64.603 45.6975L64.6036 45.6952C64.62 45.6646 64.6296 45.6261 64.6296 45.5797C64.6296 45.5435 64.6211 45.5044 64.6115 45.4665Z" fill="#CECDCC"/>
<path d="M67.1852 39.8254H67.1869L67.1846 39.8214C67.1665 39.753 67.1336 39.6873 67.0923 39.6256C67.0884 39.6205 67.0872 39.6137 67.0833 39.6081L67.0799 39.6103C67.0346 39.5481 66.9825 39.4914 66.9219 39.4569C66.8942 39.4411 66.8682 39.432 66.8433 39.4258L66.8427 39.4292C66.7261 39.402 66.6406 39.462 66.6406 39.6143C66.6406 39.7665 66.8325 40.0575 66.9502 40.1062C67.068 40.1548 67.1353 40.1328 67.1761 40.0564H67.1772L67.1778 40.0541C67.1942 40.0235 67.2033 39.9856 67.2033 39.9386C67.2033 39.9024 67.1953 39.8633 67.1852 39.8254Z" fill="#CECDCC"/>
</g>
<defs>
<clipPath id="clip0_406_728">
<rect width="90" height="90" fill="white"/>
</clipPath>
</defs>
</svg>
