<svg width="172" height="38" viewBox="0 0 172 38" fill="none" xmlns="http://www.w3.org/2000/svg">
<g clip-path="url(#clip0_406_5842)">
<path d="M86 0H167.7C170.108 0 172 1.672 172 3.8V34.2C172 36.328 170.108 38 167.7 38H86V0Z" fill="#8C96A0"/>
<path d="M86 38C133.496 38 172 29.4934 172 19C172 8.50659 133.496 0 86 0C38.5035 0 0 8.50659 0 19C0 29.4934 38.5035 38 86 38Z" fill="url(#paint0_radial_406_5842)"/>
<path d="M86 38H5.16C2.322 38 0 35.948 0 33.44V3.8C0 1.672 1.892 0 4.3 0H86V38Z" fill="#6428B4"/>
<path d="M74.3903 10.6401H70.7783C70.6923 10.6401 70.5203 10.7161 70.5203 10.8681V12.1601H75.6803V12.5401C75.6803 13.1481 75.0783 13.6801 74.3903 13.6801H70.5203V14.9721C70.5203 15.0481 70.6063 15.2001 70.7783 15.2001H75.6803V15.5801C75.6803 16.1881 75.0783 16.7201 74.3903 16.7201H70.0903C69.4023 16.7201 68.8003 16.1881 68.8003 15.5801V10.2601C68.8003 9.6521 69.4023 9.1201 70.0903 9.1201H75.6803V9.5001C75.6803 10.1081 75.0783 10.6401 74.3903 10.6401ZM65.4463 14.1361L67.0803 16.7201H65.6183C65.2743 16.7201 65.0163 16.5681 64.8443 16.3401L63.6403 14.4401H60.2003V15.5801C60.2003 16.1881 59.5983 16.7201 58.9103 16.7201H58.4803V10.2601C58.4803 9.6521 59.0823 9.1201 59.7703 9.1201H63.9843C65.6183 9.1201 67.0803 10.2601 67.0803 11.7801C67.0803 12.7681 66.3923 13.7561 65.4463 14.1361ZM60.2003 10.8681V12.9201H64.0703C64.8443 12.9201 65.3603 12.3881 65.3603 11.7041C65.3603 11.0961 64.7583 10.6401 64.0703 10.6401H60.4583C60.2863 10.6401 60.2003 10.7161 60.2003 10.8681ZM32.3363 9.4241L29.4123 12.0081C29.3263 12.0841 29.1543 12.0841 29.0683 12.0081L26.1443 9.4241C25.8863 9.1961 25.6283 9.1201 25.2843 9.1201C24.5963 9.1201 24.0803 9.5761 24.0803 10.1841V16.7201H24.5103C25.1983 16.7201 25.8003 16.1881 25.8003 15.5801V11.4761C25.8003 11.4001 25.8863 11.3241 25.9723 11.4001L28.2943 13.4521C28.8103 13.9081 29.5843 13.9081 30.1003 13.4521L32.4223 11.4001C32.5083 11.3241 32.5943 11.4001 32.5943 11.4761V16.7201H33.0243C33.7123 16.7201 34.3143 16.1881 34.3143 15.5801V10.1841C34.3143 9.5761 33.7983 9.1201 33.1103 9.1201C32.8523 9.1201 32.5943 9.1961 32.3363 9.4241ZM22.3603 15.9601V9.1201H21.5003C20.9843 9.1201 20.6403 9.4241 20.6403 9.8801V16.7201H21.5003C22.0163 16.7201 22.3603 16.4161 22.3603 15.9601ZM18.9203 11.8561C18.9203 13.3001 17.5443 14.4401 15.9103 14.4401H12.0403V15.5801C12.0403 16.1881 11.4383 16.7201 10.7503 16.7201H10.3203V10.2601C10.3203 9.6521 10.9223 9.1201 11.6103 9.1201H15.8243C17.5443 9.1201 18.9203 10.3361 18.9203 11.8561ZM17.2003 11.8561C17.2003 11.1721 16.6843 10.6401 15.9103 10.6401H12.2983C12.1263 10.6401 12.0403 10.7161 12.0403 10.8681V12.9201H15.9103C16.5983 12.9201 17.2003 12.4641 17.2003 11.8561ZM56.7603 12.9201C56.7603 15.0481 54.8683 16.7201 52.4603 16.7201C50.9983 16.7201 49.6223 16.0361 48.8483 15.0481L48.3323 14.2881L47.1283 15.8841C46.0963 17.3281 44.2043 18.2401 42.1403 18.2401C38.7863 18.2401 36.1203 15.8841 36.1203 12.9201C36.1203 9.9561 38.7863 7.6001 42.1403 7.6001C44.2043 7.6001 46.0963 8.5121 47.1283 9.9561L47.3003 10.1841L46.2683 11.5521L45.6663 10.7921C44.8923 9.8041 43.6023 9.1201 42.1403 9.1201C39.7323 9.1201 37.8403 10.7921 37.8403 12.9201C37.8403 15.0481 39.7323 16.7201 42.1403 16.7201C43.6023 16.7201 44.9783 16.0361 45.7523 15.0481L48.9343 10.8681C49.7083 9.8041 50.9983 9.1961 52.5463 9.1961C54.8683 9.1201 56.7603 10.7921 56.7603 12.9201ZM55.0403 12.9201C55.0403 11.6281 53.9223 10.6401 52.4603 10.6401C51.6003 10.6401 50.7403 11.0201 50.3103 11.6281L49.3643 12.9201L50.3103 14.1361C50.7403 14.8201 51.6003 15.2001 52.4603 15.2001C53.9223 15.2001 55.0403 14.2121 55.0403 12.9201ZM78.5183 10.0321L78.6903 10.2601H78.5183L78.3463 10.0321H78.0023V10.1841C78.0023 10.2601 78.0023 10.2601 77.9163 10.2601H77.8303V9.6521C77.8303 9.5761 77.9163 9.5761 77.9163 9.5761H78.3463C78.5183 9.5761 78.6043 9.6521 78.6043 9.8041C78.6903 9.8801 78.6043 9.9561 78.5183 10.0321ZM78.0023 9.6521V9.8801H78.3463C78.4323 9.8801 78.5183 9.8041 78.4323 9.7281C78.4323 9.6521 78.3463 9.6521 78.3463 9.6521H78.0023ZM78.2603 9.2721C77.9163 9.2721 77.5723 9.5761 77.5723 9.8801C77.5723 10.1841 77.9163 10.4881 78.2603 10.4881C78.6043 10.4881 78.9483 10.1841 78.9483 9.8801C78.9483 9.5761 78.6043 9.2721 78.2603 9.2721ZM78.2603 9.1201C78.7763 9.1201 79.1203 9.4241 79.1203 9.8801C79.1203 10.3361 78.7763 10.6401 78.2603 10.6401C77.7443 10.6401 77.4003 10.3361 77.4003 9.8801C77.4003 9.4241 77.7443 9.1201 78.2603 9.1201Z" fill="white"/>
<path d="M42.1411 25.46L46.4411 22.8L44.5491 26.98L48.1611 29.64H43.6031L42.1411 33.44L40.6791 29.64H36.1211L39.7331 26.98L37.8411 22.8L42.1411 25.46Z" fill="white"/>
<path d="M94.1719 14.9719L95.6339 14.2119C95.9779 14.8959 96.5799 15.3519 97.6119 15.3519C98.6439 15.3519 98.9879 14.9719 98.9879 14.5159C98.9879 13.9839 98.3859 13.7559 97.0959 13.3759C95.8059 13.0719 94.5159 12.5399 94.5159 11.0959C94.5159 9.65192 95.8919 8.81592 97.3539 8.81592C98.7299 8.81592 99.8479 9.42392 100.45 10.4879L98.9879 11.2479C98.6439 10.6399 98.2139 10.2599 97.3539 10.2599C96.6659 10.2599 96.2359 10.5639 96.2359 11.0199C96.2359 11.4759 96.5799 11.7039 97.8699 12.0839C99.2459 12.4639 100.708 12.8439 100.708 14.4399C100.708 15.8839 99.4179 16.7199 97.6119 16.7199C95.8059 16.8719 94.6879 16.1119 94.1719 14.9719Z" fill="#190A2D"/>
<path d="M104.064 9.11987V16.7199H102.344V9.11987H104.064Z" fill="#190A2D"/>
<path d="M111.199 15.2759V16.7199H106.211V9.11987H107.931V15.2759H111.199Z" fill="#190A2D"/>
<path d="M111.285 9.11987H113.091L115.155 14.9719L117.219 9.11987H119.111L116.187 16.7199H114.123L111.285 9.11987Z" fill="#190A2D"/>
<path d="M125.992 15.2759V16.7199H120.66V9.11987H125.906V10.5639H122.38V12.1599H125.648V13.6039H122.38V15.2759H125.992Z" fill="#190A2D"/>
<path d="M130.721 14.0599H129.431V16.7199H127.711V9.11987H131.151C132.699 9.11987 133.989 10.2599 133.989 11.6279C133.989 12.6159 133.301 13.4519 132.355 13.8319L134.247 16.7199H132.441L130.721 14.0599ZM129.431 12.7679H131.151C131.753 12.7679 132.355 12.2359 132.355 11.6279C132.355 11.0199 131.839 10.4879 131.151 10.4879H129.431V12.7679Z" fill="#190A2D"/>
<path d="M100.794 23.864C100.794 25.308 99.5036 26.448 97.8696 26.448H96.3216V28.88H94.6016V21.28H97.7836C99.5036 21.28 100.794 22.42 100.794 23.864ZM99.0736 23.864C99.0736 23.18 98.5576 22.724 97.7836 22.724H96.3216V25.004H97.8696C98.5576 25.004 99.0736 24.472 99.0736 23.864Z" fill="#190A2D"/>
<path d="M106.641 27.512H103.201L102.685 28.88H100.879L103.889 21.28H105.953L108.963 28.88H107.157L106.641 27.512ZM106.125 26.144L104.921 23.028L103.717 26.144H106.125Z" fill="#190A2D"/>
<path d="M113.436 26.22H112.146V28.88H110.426V21.28H113.866C115.414 21.28 116.704 22.42 116.704 23.788C116.704 24.776 116.016 25.612 115.07 25.992L116.962 28.88H115.156L113.436 26.22ZM112.146 24.928H113.866C114.468 24.928 115.07 24.396 115.07 23.788C115.07 23.18 114.554 22.648 113.866 22.648H112.146V24.928Z" fill="#190A2D"/>
<path d="M124.098 22.724H121.776V28.88H120.056V22.724H117.82V21.28H124.184V22.724H124.098Z" fill="#190A2D"/>
<path d="M132.356 21.28V28.88H131.066L127.368 24.244V28.88H125.648V21.28H126.938L130.636 25.916V21.28H132.356Z" fill="#190A2D"/>
<path d="M139.926 27.436V28.88H134.594V21.28H139.84V22.724H136.314V24.32H139.582V25.764H136.314V27.436H139.926Z" fill="#190A2D"/>
<path d="M144.655 26.22H143.365V28.88H141.645V21.28H145.085C146.633 21.28 147.923 22.42 147.923 23.788C147.923 24.776 147.235 25.612 146.289 25.992L148.181 28.88H146.375L144.655 26.22ZM143.365 24.928H145.085C145.687 24.928 146.289 24.396 146.289 23.788C146.289 23.18 145.773 22.648 145.085 22.648H143.365V24.928Z" fill="#190A2D"/>
</g>
<defs>
<radialGradient id="paint0_radial_406_5842" cx="0" cy="0" r="1" gradientUnits="userSpaceOnUse" gradientTransform="translate(86 19) scale(86 19)">
<stop stop-color="#FBFBFC"/>
<stop offset="1" stop-color="#FBFBFC" stop-opacity="0"/>
</radialGradient>
<clipPath id="clip0_406_5842">
<rect width="172" height="38" fill="white"/>
</clipPath>
</defs>
</svg>
