<svg width="155" height="155" viewBox="0 0 155 155" fill="none" xmlns="http://www.w3.org/2000/svg">
<path d="M37.5 27.5H117.5C123 27.5 127.5 32 127.5 37.5V117.5C127.5 123 123 127.5 117.5 127.5H37.5C32 127.5 27.5 123 27.5 117.5V37.5C27.5 32 32 27.5 37.5 27.5Z" fill="#CFF9DC"/>
<path d="M51.3984 77C51.3984 73.4 51.3984 69.9 51.3984 66.3C51.3984 66.2 51.4984 66.1 51.4984 66.1C51.8984 64.1 53.3984 62.5 55.3984 62.3C56.7984 62.2 58.2984 62.2 59.6984 62.2C61.0984 62.2 62.4984 62.2 63.8984 62.2C63.9984 61.8 64.0984 61.4 64.1984 61C65.1984 58.3 67.0984 56.3 69.5984 55C74.4984 52.5 79.4984 52.4 84.4984 54.6C87.0984 55.8 89.1984 57.6 90.3984 60.2C90.6984 60.9 90.8984 61.6 91.0984 62.3C91.2984 62.3 91.4984 62.3 91.6984 62.3C94.0984 62.3 96.4984 62.3 98.7984 62.3C100.398 62.3 101.798 62.9 102.698 64.2C103.098 64.8 103.298 65.6 103.598 66.4C103.598 70 103.598 73.5 103.598 77.1C103.398 77.1 103.298 77.2 103.098 77.2C101.598 77.6 100.198 78 98.6984 78.4C97.2984 78.7 95.7984 79 94.3984 79.3C94.1984 78.2 93.6984 77.7 92.7984 77.7C90.7984 77.7 88.7984 77.7 86.6984 77.7C85.7984 77.7 85.1984 78.4 85.1984 79.3C85.1984 79.7 85.1984 80 85.1984 80.4C80.0984 80.8 74.9984 80.8 69.8984 80.4C69.8984 80 69.8984 79.6 69.8984 79.3C69.8984 78.4 69.2984 77.7 68.3984 77.7C66.3984 77.7 64.2984 77.7 62.2984 77.7C61.4984 77.7 60.9984 78.2 60.7984 78.9C60.7984 79 60.7984 79.2 60.6984 79.4C58.6984 79 56.6984 78.5 54.6984 78.1C53.4984 77.6 52.4984 77.3 51.3984 77ZM66.9984 62.2C73.9984 62.2 80.8984 62.2 87.8984 62.2C87.8984 62.1 87.7984 61.9 87.7984 61.8C87.1984 60.2 86.0984 59.1 84.6984 58.2C82.7984 57 80.6984 56.3 78.4984 56.2C75.1984 56 72.0984 56.6 69.3984 58.7C68.3984 59.6 67.4984 60.7 66.9984 62.2Z" fill="#7EED9B"/>
<path d="M51.3984 100.9C51.3984 93.9999 51.3984 87.0999 51.3984 80.1999C54.4984 80.8999 57.5984 81.6999 60.6984 82.3999C60.6984 84.1999 60.6984 86.0999 60.6984 88.0999C60.6984 89.1999 61.2984 89.7999 62.3984 89.7999C64.2984 89.7999 66.2984 89.7999 68.1984 89.7999C69.2984 89.7999 69.8984 89.1999 69.8984 88.0999C69.8984 86.6999 69.8984 85.2999 69.8984 83.8999C69.8984 83.6999 69.8984 83.4999 69.8984 83.2999C74.9984 83.6999 80.0984 83.5999 85.1984 83.2999C85.1984 84.8999 85.1984 86.4999 85.1984 87.9999C85.1984 89.0999 85.7984 89.6999 86.8984 89.6999C88.7984 89.6999 90.6984 89.6999 92.5984 89.6999C93.6984 89.6999 94.2984 89.0999 94.2984 87.9999C94.2984 86.2999 94.2984 84.4999 94.2984 82.7999C94.2984 82.5999 94.2984 82.3999 94.2984 82.1999C95.0984 82.0999 95.8984 81.9999 96.5984 81.7999C98.8984 81.2999 101.198 80.6999 103.598 80.0999C103.598 86.9999 103.598 93.8999 103.598 100.8C103.198 101.7 102.498 101.9 101.498 101.9C85.4984 101.9 69.3984 101.9 53.3984 101.9C52.4984 102 51.7984 101.7 51.3984 100.9Z" fill="#17C963"/>
<path d="M63.7969 80.5999C64.7969 80.5999 65.7969 80.5999 66.7969 80.5999C66.7969 82.5999 66.7969 84.5999 66.7969 86.6999C65.7969 86.6999 64.7969 86.6999 63.7969 86.6999C63.7969 84.6999 63.7969 82.5999 63.7969 80.5999Z" fill="#17C963"/>
<path d="M88.1992 80.5999C89.1992 80.5999 90.1992 80.5999 91.1992 80.5999C91.1992 82.5999 91.1992 84.5999 91.1992 86.6999C90.1992 86.6999 89.1992 86.6999 88.1992 86.6999C88.1992 84.6999 88.1992 82.5999 88.1992 80.5999Z" fill="#17C963"/>
</svg>
