<svg width="155" height="155" viewBox="0 0 155 155" fill="none" xmlns="http://www.w3.org/2000/svg">
<path d="M117.5 27.5H37.5C31.9772 27.5 27.5 31.9772 27.5 37.5V117.5C27.5 123.023 31.9772 127.5 37.5 127.5H117.5C123.023 127.5 127.5 123.023 127.5 117.5V37.5C127.5 31.9772 123.023 27.5 117.5 27.5Z" fill="#FFE9E9"/>
<path d="M98.0009 58.09H64.0809L63.4509 54C63.3865 53.5875 63.1768 53.2116 62.8595 52.9402C62.5423 52.6688 62.1384 52.5198 61.7209 52.52H51.4609C50.9968 52.52 50.5517 52.7044 50.2235 53.0326C49.8953 53.3608 49.7109 53.8059 49.7109 54.27C49.7109 54.7341 49.8953 55.1793 50.2235 55.5075C50.5517 55.8356 50.9968 56.02 51.4609 56.02H60.2109L64.0009 80.52L62.7909 83C62.4346 83.7159 62.2672 84.5111 62.3047 85.3099C62.3422 86.1087 62.5833 86.8847 63.0051 87.5641C63.427 88.2435 64.0156 88.8037 64.7149 89.1916C65.4143 89.5794 66.2012 89.782 67.0009 89.78H94.6109C95.0751 89.78 95.5202 89.5956 95.8484 89.2675C96.1766 88.9393 96.3609 88.4941 96.3609 88.03C96.3609 87.5659 96.1766 87.1208 95.8484 86.7926C95.5202 86.4644 95.0751 86.28 94.6109 86.28H67.0009C66.7967 86.2806 66.5958 86.229 66.417 86.1303C66.2383 86.0315 66.0878 85.8887 65.9796 85.7155C65.8715 85.5423 65.8093 85.3443 65.7991 85.1404C65.7888 84.9364 65.8307 84.7332 65.9209 84.55L67.3709 81.55C67.4815 81.3118 67.5395 81.0526 67.5409 80.79H93.3309C94.0768 80.7873 94.7973 80.5191 95.3635 80.0336C95.9297 79.548 96.3045 78.8768 96.4209 78.14L99.2809 59.61C99.3078 59.4243 99.2951 59.2349 99.2436 59.0544C99.192 58.8739 99.1029 58.7064 98.982 58.5628C98.8611 58.4193 98.7112 58.3029 98.5421 58.2214C98.373 58.1399 98.1886 58.0951 98.0009 58.09Z" fill="#FDB4B4"/>
<path d="M69.09 102.5C71.3488 102.5 73.18 100.669 73.18 98.4101C73.18 96.1512 71.3488 94.3201 69.09 94.3201C66.8312 94.3201 65 96.1512 65 98.4101C65 100.669 66.8312 102.5 69.09 102.5Z" fill="#FF9797"/>
<path d="M90.2306 102.5C92.4895 102.5 94.3206 100.669 94.3206 98.4101C94.3206 96.1512 92.4895 94.3201 90.2306 94.3201C87.9718 94.3201 86.1406 96.1512 86.1406 98.4101C86.1406 100.669 87.9718 102.5 90.2306 102.5Z" fill="#FF9797"/>
</svg>
