<svg width="155" height="155" viewBox="0 0 155 155" fill="none" xmlns="http://www.w3.org/2000/svg">
<path d="M117.5 27.5H37.5C31.9772 27.5 27.5 31.9772 27.5 37.5V117.5C27.5 123.023 31.9772 127.5 37.5 127.5H117.5C123.023 127.5 127.5 123.023 127.5 117.5V37.5C127.5 31.9772 123.023 27.5 117.5 27.5Z" fill="#FFF9DD"/>
<path d="M60.4607 63.91C60.4555 60.3115 61.6052 56.8063 63.7407 53.91C63.8748 53.7406 63.9735 53.5459 64.0308 53.3376C64.0881 53.1292 64.1029 52.9115 64.0743 52.6973C64.0456 52.4831 63.9742 52.2769 63.8642 52.0909C63.7542 51.905 63.6079 51.743 63.434 51.6148C63.2601 51.4865 63.0622 51.3946 62.852 51.3445C62.6418 51.2943 62.4237 51.287 62.2106 51.323C61.9975 51.3589 61.7939 51.4374 61.6118 51.5537C61.4297 51.67 61.2729 51.8218 61.1507 52C58.6323 55.4272 57.2617 59.5628 57.2348 63.8157C57.2078 68.0686 58.5259 72.2211 61.0007 75.68C61.1501 75.8845 61.3458 76.0509 61.5717 76.1656C61.7976 76.2802 62.0473 76.34 62.3007 76.34C62.6383 76.345 62.9684 76.2397 63.2407 76.04C63.5858 75.7912 63.8184 75.416 63.8877 74.9963C63.957 74.5766 63.8574 74.1465 63.6107 73.8C61.5437 70.9181 60.4411 67.4564 60.4607 63.91Z" fill="#F7BA0F"/>
<path d="M67.7496 72.4801C68.0839 72.4837 68.4104 72.3784 68.6796 72.1801C68.8515 72.0578 68.9976 71.9026 69.1093 71.7236C69.2211 71.5446 69.2963 71.3453 69.3307 71.1371C69.3651 70.9289 69.3579 70.7159 69.3097 70.5105C69.2614 70.3051 69.173 70.1112 69.0496 69.9401C67.7725 68.1738 67.0851 66.0497 67.0851 63.8701C67.0851 61.6905 67.7725 59.5664 69.0496 57.8001C69.1923 57.6315 69.2988 57.4354 69.3625 57.2239C69.4262 57.0124 69.4457 56.7901 69.4198 56.5707C69.3938 56.3514 69.3231 56.1397 69.2118 55.9489C69.1006 55.758 68.9513 55.5922 68.7732 55.4615C68.5951 55.3309 68.392 55.2383 68.1766 55.1895C67.9612 55.1406 67.7381 55.1367 67.521 55.1778C67.304 55.219 67.0978 55.3043 66.9152 55.4286C66.7326 55.5528 66.5775 55.7133 66.4596 55.9001C64.7695 58.2068 63.8525 60.9891 63.84 63.8487C63.8274 66.7083 64.7198 69.4986 66.3896 71.8201C66.5455 72.0324 66.7509 72.2034 66.9879 72.3184C67.2248 72.4334 67.4863 72.4889 67.7496 72.4801Z" fill="#F7BA0F"/>
<path d="M93.8502 51.9999C93.7323 51.8132 93.5772 51.6527 93.3946 51.5284C93.212 51.4042 93.0058 51.3188 92.7888 51.2777C92.5717 51.2365 92.3486 51.2405 92.1332 51.2893C91.9178 51.3381 91.7147 51.4307 91.5366 51.5614C91.3585 51.692 91.2092 51.8579 91.098 52.0487C90.9867 52.2395 90.916 52.4512 90.89 52.6706C90.8641 52.8899 90.8836 53.1123 90.9473 53.3237C91.011 53.5352 91.1175 53.7314 91.2602 53.8999C93.3751 56.7842 94.5229 60.2638 94.539 63.8403C94.5552 67.4168 93.439 70.9067 91.3502 73.8099C91.1189 74.1526 91.0283 74.5712 91.0971 74.9789C91.166 75.3867 91.3891 75.7522 91.7202 75.9999C91.9925 76.1997 92.3226 76.305 92.6602 76.2999C92.9136 76.3 93.1633 76.2402 93.3892 76.1255C93.6151 76.0108 93.8108 75.8445 93.9602 75.6399C96.4316 72.1891 97.7513 68.0466 97.7316 63.8021C97.7118 59.5577 96.3536 55.4276 93.8502 51.9999Z" fill="#F7BA0F"/>
<path d="M88.4909 55.9001C88.3729 55.7133 88.2178 55.5528 88.0352 55.4286C87.8526 55.3043 87.6464 55.219 87.4294 55.1778C87.2124 55.1367 86.9892 55.1406 86.7738 55.1895C86.5584 55.2383 86.3553 55.3309 86.1772 55.4615C85.9991 55.5922 85.8498 55.758 85.7386 55.9489C85.6274 56.1397 85.5566 56.3514 85.5307 56.5707C85.5047 56.7901 85.5242 57.0124 85.5879 57.2239C85.6516 57.4354 85.7581 57.6315 85.9009 57.8001C87.1779 59.5664 87.8654 61.6905 87.8654 63.8701C87.8654 66.0497 87.1779 68.1738 85.9009 69.9401C85.7774 70.1112 85.689 70.3051 85.6407 70.5105C85.5925 70.7159 85.5853 70.9289 85.6197 71.1371C85.6541 71.3453 85.7294 71.5446 85.8411 71.7236C85.9529 71.9026 86.0989 72.0578 86.2709 72.1801C86.5401 72.3784 86.8665 72.4837 87.2009 72.4801C87.4557 72.4809 87.7072 72.4215 87.9348 72.3068C88.1625 72.1922 88.3598 72.0254 88.5109 71.8201C90.1806 69.4986 91.073 66.7083 91.0605 63.8487C91.0479 60.9891 90.1309 58.2068 88.4409 55.9001H88.4909Z" fill="#F7BA0F"/>
<path d="M77.5006 69.27C80.4609 69.27 82.8606 66.8703 82.8606 63.91C82.8606 60.9498 80.4609 58.55 77.5006 58.55C74.5404 58.55 72.1406 60.9498 72.1406 63.91C72.1406 66.8703 74.5404 69.27 77.5006 69.27Z" fill="#FFD546"/>
<path d="M82.5305 70.8701C81.4553 71.6505 80.212 72.1677 78.9005 72.3801L80.6305 81.3801H74.3705L76.1005 72.3801C74.789 72.1677 73.5457 71.6505 72.4705 70.8701L66.5905 101.37C66.536 101.649 66.5438 101.937 66.6135 102.213C66.6832 102.489 66.813 102.746 66.9936 102.965C67.1742 103.185 67.4011 103.362 67.6582 103.484C67.9152 103.606 68.196 103.669 68.4805 103.67H86.4805C86.765 103.669 87.0458 103.606 87.3028 103.484C87.5599 103.362 87.7868 103.185 87.9674 102.965C88.148 102.746 88.2778 102.489 88.3475 102.213C88.4172 101.937 88.425 101.649 88.3705 101.37L82.5305 70.8701ZM81.3705 85.2201L82.5105 91.1301H72.5105L73.6505 85.2201H81.3705ZM70.8205 99.8101L71.7505 95.0001H83.2505L84.1805 99.8201L70.8205 99.8101Z" fill="#FFD546"/>
</svg>
