<svg width="155" height="155" viewBox="0 0 155 155" fill="none" xmlns="http://www.w3.org/2000/svg">
<path d="M37.5 27.5H117.5C123 27.5 127.5 32 127.5 37.5V117.5C127.5 123 123 127.5 117.5 127.5H37.5C32 127.5 27.5 123 27.5 117.5V37.5C27.5 32 32 27.5 37.5 27.5Z" fill="#E3F4FC"/>
<path d="M52.0008 59.8999H77.8008C79.0008 59.8999 80.0008 60.8999 80.0008 62.0999V87.8999C80.0008 89.0999 79.0008 90.0999 77.8008 90.0999H73.4008C73.4008 85.3999 69.6008 81.5999 64.9008 81.5999C60.2008 81.5999 56.4008 85.3999 56.4008 90.0999H52.0008C50.8008 90.0999 49.8008 89.0999 49.8008 87.8999V62.0999C49.8008 60.8999 50.8008 59.8999 52.0008 59.8999Z" fill="#93C9F8"/>
<path d="M64.9023 95.0999C67.6638 95.0999 69.9023 92.8613 69.9023 90.0999C69.9023 87.3384 67.6638 85.0999 64.9023 85.0999C62.1409 85.0999 59.9023 87.3384 59.9023 90.0999C59.9023 92.8613 62.1409 95.0999 64.9023 95.0999Z" fill="#56A3F3"/>
<path d="M94.4023 95.0999C97.1638 95.0999 99.4023 92.8613 99.4023 90.0999C99.4023 87.3384 97.1638 85.0999 94.4023 85.0999C91.6409 85.0999 89.4023 87.3384 89.4023 90.0999C89.4023 92.8613 91.6409 95.0999 94.4023 95.0999Z" fill="#56A3F3"/>
<path d="M83.6016 69.9998V87.6998C83.6016 88.8998 84.6016 89.8998 85.8016 89.8998H85.9016C86.0016 85.2998 89.8016 81.5998 94.4016 81.5998C99.0016 81.5998 102.802 85.2998 102.902 89.8998H103.002C104.202 89.8998 105.202 88.8998 105.202 87.6998V78.8998C105.202 78.2998 105.002 77.7998 104.602 77.2998L95.7016 68.3998C95.3016 67.9998 94.7016 67.7998 94.1016 67.7998H85.8016C84.5016 67.7998 83.6016 68.7998 83.6016 69.9998ZM89.4016 71.5998C89.4016 71.1998 89.7016 70.7998 90.2016 70.7998H93.5016C93.7016 70.7998 93.9016 70.8998 94.0016 70.9998L98.5016 75.4998C99.4016 76.3998 98.8016 77.7998 97.5016 77.7998H90.1016C89.7016 77.7998 89.3016 77.4998 89.3016 76.9998V71.5998H89.4016Z" fill="#93C9F8"/>
</svg>
