<svg width="60" height="64" viewBox="0 0 60 64" fill="none" xmlns="http://www.w3.org/2000/svg">
<path d="M54.6082 35.6899C53.7582 34.4299 52.8282 33.2099 51.8582 32.0299C53.4706 30.083 54.9188 28.0059 56.1882 25.8199C59.7082 19.6599 60.2882 14.4499 57.8182 11.1499C54.8182 7.1499 48.0582 6.8599 39.8182 9.6099C37.3382 3.8899 33.8882 0.399902 29.9982 0.399902C26.1082 0.399902 22.6582 3.8999 20.1682 9.6299C11.6082 6.7599 5.07824 7.2899 2.16824 11.1499C-1.13176 15.5899 1.09824 23.3399 8.14824 31.9999C1.36824 40.2999 -1.22176 48.3099 2.14824 52.8699C3.78824 55.0599 6.68824 56.2199 10.5182 56.2199C13.8024 56.1338 17.0525 55.5297 20.1482 54.4299C22.6282 60.1299 26.0882 63.6199 29.9582 63.6199C33.8282 63.6199 37.3082 60.1199 39.7982 54.3899C42.5286 55.3369 45.3678 55.935 48.2482 56.1699H48.3382C48.6035 56.1699 48.8578 56.0645 49.0453 55.877C49.2329 55.6895 49.3382 55.4351 49.3382 55.1699C49.3443 55.0364 49.3236 54.9029 49.2772 54.7776C49.2308 54.6522 49.1598 54.5374 49.0682 54.4399C48.9765 54.3436 48.8664 54.2666 48.7445 54.2133C48.6226 54.1601 48.4913 54.1317 48.3582 54.1299C45.6931 53.9073 43.0661 53.353 40.5382 52.4799C41.8789 48.6749 42.7814 44.7294 43.2282 40.7199C45.8142 38.5253 48.2373 36.1457 50.4782 33.5999C51.3182 34.5999 52.1282 35.7199 52.8782 36.8199C52.8801 36.8465 52.8801 36.8733 52.8782 36.8999C52.9572 37.0078 53.0569 37.0988 53.1716 37.1675C53.2863 37.2362 53.4136 37.2812 53.546 37.2999C53.6784 37.3185 53.8132 37.3104 53.9424 37.2761C54.0716 37.2417 54.1926 37.1818 54.2982 37.0999C54.4053 37.0219 54.4958 36.9233 54.5645 36.81C54.6331 36.6967 54.6786 36.5709 54.6982 36.4399C54.7674 36.1878 54.7351 35.9185 54.6082 35.6899ZM56.1982 12.3699C58.9382 16.0299 56.4182 23.0499 50.4982 30.4199C48.2644 27.8777 45.8552 25.4952 43.2882 23.2899C42.8406 19.2871 41.9381 15.3483 40.5982 11.5499C43.4736 10.5147 46.4938 9.93772 49.5482 9.8399C52.6582 9.8399 54.9982 10.7199 56.1982 12.3699ZM39.0682 19.8999C36.8186 18.2213 34.482 16.6625 32.0682 15.2299C34.1989 14.1047 36.3925 13.1031 38.6382 12.2299C39.7149 15.1908 40.5052 18.2481 40.9982 21.3599C40.3182 20.8599 39.6882 20.3699 39.0682 19.8999ZM27.9282 15.2099C25.5147 16.65 23.1781 18.2155 20.9282 19.8999C20.2882 20.3899 19.6582 20.8999 19.0482 21.3599C19.5202 18.2453 20.2836 15.1818 21.3282 12.2099C23.5892 13.0699 25.7936 14.0719 27.9282 15.2099ZM16.4282 26.2699C16.2882 28.1299 16.2082 30.0399 16.2082 31.9999C16.2082 33.9599 16.2882 35.8899 16.4282 37.7499C14.4485 35.9435 12.5753 34.0236 10.8182 31.9999C12.5772 29.9843 14.4503 28.0711 16.4282 26.2699ZM20.9382 44.0999C23.1865 45.7836 25.5232 47.3458 27.9382 48.7799C25.8028 49.9092 23.6023 50.911 21.3482 51.7799C20.2988 48.8162 19.5353 45.759 19.0682 42.6499C19.6882 43.1399 20.3182 43.6299 20.9382 44.0999ZM37.8582 42.4699C35.348 44.3577 32.723 46.0877 29.9982 47.6499C27.2787 46.088 24.6572 44.3615 22.1482 42.4799C21.0182 41.6299 19.8482 40.6899 18.6482 39.6899C18.3719 37.1359 18.235 34.5688 18.2382 31.9999C18.2336 29.434 18.3738 26.87 18.6582 24.3199C19.7882 23.3199 20.9482 22.4299 22.1482 21.5299C24.655 19.6483 27.2768 17.9249 29.9982 16.3699C32.7147 17.9226 35.33 19.6461 37.8282 21.5299C38.9682 22.3699 40.1382 23.3099 41.3282 24.2999C41.6161 26.8565 41.7596 29.4272 41.7582 31.9999C41.7599 34.5693 41.6164 37.1367 41.3282 39.6899C40.2216 40.6432 39.0649 41.5699 37.8582 42.4699ZM29.9982 13.9999C27.4563 12.583 24.8162 11.3499 22.0982 10.3099C24.2082 5.4299 26.9982 2.4099 30.0082 2.4099C33.0182 2.4099 35.8082 5.4099 37.9182 10.2799C35.1921 11.3277 32.5453 12.5709 29.9982 13.9999ZM16.7282 23.2799C14.1425 25.4747 11.7195 27.8543 9.47824 30.3999C3.33824 22.7699 1.15824 15.9199 3.81824 12.3999C6.10824 9.3399 11.8982 9.0399 19.4182 11.5499C18.0798 15.3453 17.1773 19.2806 16.7282 23.2799ZM16.7282 40.7099C17.1793 44.7196 18.0851 48.665 19.4282 52.4699C18.6282 52.7299 17.8482 52.9699 17.0782 53.1699C10.5782 54.9099 5.86824 54.3599 3.81824 51.6299C1.76824 48.8999 2.56824 44.2299 6.05824 38.4799C7.10846 36.7737 8.26753 35.137 9.52824 33.5799C11.7528 36.124 14.1556 38.5067 16.7182 40.7099H16.7282ZM29.9982 49.9999C32.5357 51.4187 35.1726 52.652 37.8882 53.6899C35.7782 58.5699 32.9882 61.5899 29.9682 61.5899C26.9482 61.5899 24.1882 58.5899 22.0782 53.7399C24.8027 52.6805 27.4492 51.4307 29.9982 49.9999ZM31.9982 48.8099C34.4118 47.3698 36.7484 45.8043 38.9982 44.1199C39.6382 43.6399 40.2582 43.1199 40.8782 42.6599C40.411 45.7755 39.6476 48.8394 38.5982 51.8099C36.3658 50.9362 34.1884 49.9276 32.0782 48.7899L31.9982 48.8099ZM43.7982 31.9999C43.7982 29.9999 43.7182 28.1099 43.5782 26.2499C45.558 28.0563 47.4312 29.9762 49.1882 31.9999C47.4323 34.0215 45.559 35.9381 43.5782 37.7399C43.7182 35.8799 43.7982 33.9999 43.7982 31.9999Z" fill="#0109C4"/>
</svg>
