<svg width="46" height="41" viewBox="0 0 46 41" fill="none" xmlns="http://www.w3.org/2000/svg">
<path d="M4.24148 40.7802C4.04382 40.7789 3.84656 40.7622 3.65148 40.7302C2.73789 40.5944 1.91012 40.1163 1.33588 39.3928C0.761639 38.6694 0.483889 37.7547 0.558909 36.8342C0.633929 35.9136 1.05611 35.0559 1.7399 34.435C2.42369 33.8141 3.31795 33.4764 4.24148 33.4902C4.42468 33.4803 4.60829 33.4803 4.79149 33.4902C5.28712 33.5724 5.76038 33.7562 6.18148 34.0302L6.39148 34.1702L9.32148 32.0302V17.6002C9.32697 17.4 9.38906 17.2055 9.50056 17.0391C9.61205 16.8727 9.7684 16.7414 9.95148 16.6602L21.8915 11.1802V7.65021L21.6615 7.56021C20.8588 7.26232 20.1864 6.69176 19.7619 5.94829C19.3373 5.20483 19.1876 4.33579 19.339 3.49312C19.4903 2.65046 19.933 1.8878 20.5897 1.33852C21.2464 0.789236 22.0753 0.488281 22.9315 0.488281C23.7876 0.488281 24.6165 0.789236 25.2732 1.33852C25.93 1.8878 26.3727 2.65046 26.524 3.49312C26.6753 4.33579 26.5256 5.20483 26.1011 5.94829C25.6765 6.69176 25.0041 7.26232 24.2015 7.56021L23.9615 7.65021V11.1802L35.8915 16.6502C36.085 16.7351 36.249 16.8753 36.3629 17.0533C36.4768 17.2313 36.5355 17.439 36.5315 17.6502V32.0002L39.5315 34.2402L39.7515 34.1002C40.1559 33.8224 40.617 33.6379 41.1015 33.5602C41.3034 33.5291 41.5072 33.5124 41.7115 33.5102C42.623 33.5227 43.4969 33.8758 44.1611 34.5002C44.8254 35.1245 45.232 35.9748 45.301 36.8838C45.37 37.7928 45.0963 38.6947 44.5338 39.412C43.9713 40.1294 43.1607 40.6103 42.2615 40.7602C42.0664 40.7917 41.8691 40.8084 41.6715 40.8102C41.1055 40.81 40.5474 40.6779 40.0415 40.4243C39.5356 40.1706 39.0958 39.8025 38.757 39.3492C38.4182 38.8959 38.1898 38.3698 38.0899 37.8127C37.99 37.2557 38.0213 36.683 38.1815 36.1402L38.2515 35.9002L35.2515 33.7402L23.2515 39.2502C23.1166 39.3117 22.9697 39.3425 22.8215 39.3402C22.6735 39.3403 22.527 39.3096 22.3915 39.2502L10.5915 33.7402L7.65149 35.8702L7.73148 36.1102C7.89163 36.653 7.92299 37.2257 7.82309 37.7827C7.72319 38.3398 7.49478 38.8659 7.15599 39.3192C6.81721 39.7725 6.37738 40.1406 5.87145 40.3943C5.36552 40.6479 4.80742 40.78 4.24148 40.7802ZM4.24148 35.5502C3.90789 35.5514 3.58292 35.6563 3.31148 35.8502C3.0428 36.0482 2.84322 36.3257 2.74103 36.6434C2.63883 36.9611 2.6392 37.3029 2.74208 37.6204C2.84496 37.9379 3.04513 38.215 3.31424 38.4123C3.58335 38.6097 3.90775 38.7174 4.24148 38.7202C4.57176 38.7176 4.89313 38.6128 5.16148 38.4202C5.41792 38.2384 5.61429 37.9842 5.72549 37.6902C5.8367 37.3962 5.85767 37.0757 5.78573 36.7697C5.7138 36.4637 5.55222 36.1861 5.32166 35.9724C5.09111 35.7588 4.80206 35.6187 4.49148 35.5702L4.24148 35.5502ZM41.7415 35.5502H41.4815C41.0784 35.6274 40.7204 35.8565 40.4815 36.1902C40.2728 36.4766 40.1672 36.8251 40.1817 37.1791C40.1962 37.5332 40.3301 37.8719 40.5615 38.1402C40.71 38.313 40.8942 38.4516 41.1013 38.5465C41.3084 38.6415 41.5336 38.6905 41.7615 38.6902C42.0119 38.6945 42.2594 38.6361 42.4815 38.5202C42.8048 38.3626 43.0646 38.0994 43.2181 37.7742C43.3716 37.4489 43.4095 37.081 43.3255 36.7312C43.2416 36.3815 43.0409 36.0709 42.7565 35.8507C42.4721 35.6305 42.1211 35.5139 41.7615 35.5202L41.7415 35.5502ZM24.0015 24.0502V36.6702L34.5115 31.8602V19.2102L24.0015 24.0502ZM11.3815 31.8602L21.8915 36.6702V24.0502L11.3815 19.2102V31.8602ZM12.8715 17.6002L22.8715 22.2502L33.0015 17.6002L22.9115 13.0002L12.8715 17.6002ZM23.0015 2.57021C22.689 2.57021 22.3835 2.66288 22.1237 2.83649C21.8639 3.0101 21.6613 3.25686 21.5418 3.54557C21.4222 3.83428 21.3909 4.15196 21.4518 4.45845C21.5128 4.76494 21.6633 5.04647 21.8843 5.26744C22.1052 5.48841 22.3868 5.63889 22.6932 5.69985C22.9997 5.76081 23.3174 5.72953 23.6061 5.60994C23.8948 5.49035 24.1416 5.28784 24.3152 5.02801C24.4888 4.76818 24.5815 4.4627 24.5815 4.15021C24.5763 3.73278 24.4082 3.33391 24.113 3.03872C23.8178 2.74352 23.4189 2.5754 23.0015 2.57021Z" fill="#0109C4"/>
</svg>
