<svg width="150" height="150" viewBox="0 0 150 150" fill="none" xmlns="http://www.w3.org/2000/svg">
<g clip-path="url(#clip0_406_5699)">
<path d="M75.7016 1.4999L85.0016 8.3999C85.3016 8.5999 85.6016 8.6999 85.9016 8.5999L97.1016 5.7999C97.6016 5.6999 98.1016 5.8999 98.3016 6.2999L104.302 16.1999C104.502 16.4999 104.802 16.6999 105.102 16.6999L116.502 18.3999C117.002 18.4999 117.402 18.8999 117.502 19.3999L119.202 30.7999C119.302 31.0999 119.402 31.3999 119.702 31.5999L129.602 37.5999C130.002 37.8999 130.202 38.3999 130.102 38.7999L127.302 49.9999C127.202 50.2999 127.302 50.6999 127.502 50.8999L134.402 60.1999C134.702 60.5999 134.702 61.0999 134.402 61.4999L127.502 70.7999C127.302 71.0999 127.202 71.3999 127.302 71.6999L130.102 82.8999C130.202 83.3999 130.002 83.8999 129.602 84.0999L119.702 90.0999C119.402 90.2999 119.202 90.5999 119.202 90.8999L117.502 102.3C117.402 102.8 117.002 103.2 116.502 103.3L105.102 105C104.802 105.1 104.502 105.2 104.302 105.5L98.3016 115.4C98.0016 115.8 97.5016 116 97.1016 115.9L85.9016 113.1C85.6016 113 85.2016 113.1 85.0016 113.3L75.7016 120.2C75.3016 120.5 74.8016 120.5 74.4016 120.2L65.1016 113.3C64.8016 113.1 64.5016 113 64.2016 113.1L53.0016 115.9C52.5016 116 52.0016 115.8 51.8016 115.4L45.8016 105.5C45.6016 105.2 45.3016 105 45.0016 105L33.6016 103.3C33.1016 103.2 32.7016 102.8 32.6016 102.3L30.9016 90.8999C30.8016 90.5999 30.7016 90.2999 30.4016 90.0999L20.5016 84.0999C20.1016 83.7999 19.9016 83.2999 20.0016 82.8999L22.8016 71.6999C22.9016 71.3999 22.8016 70.9999 22.6016 70.7999L15.7016 61.4999C15.4016 61.0999 15.4016 60.5999 15.7016 60.1999L22.6016 50.8999C22.8016 50.5999 22.9016 50.2999 22.8016 49.9999L20.0016 38.7999C19.9016 38.2999 20.1016 37.7999 20.5016 37.5999L30.4016 31.5999C30.7016 31.3999 30.9016 31.0999 30.9016 30.7999L32.6016 19.3999C32.7016 18.8999 33.1016 18.4999 33.6016 18.3999L45.0016 16.6999C45.3016 16.5999 45.6016 16.4999 45.8016 16.1999L51.8016 6.2999C52.1016 5.8999 52.6016 5.6999 53.0016 5.7999L64.2016 8.5999C64.5016 8.6999 64.9016 8.5999 65.1016 8.3999L74.4016 1.4999C74.7016 1.1999 75.3016 1.1999 75.7016 1.4999Z" fill="#0109C4"/>
<path d="M83.6 150.3L94.3 141L108.3 142.8L84.2 63.1001L59.5 70.5001L83.6 150.3Z" fill="#ED8B00"/>
<path d="M66.1992 150.3L55.7992 140.7L41.6992 142.3L67.5992 63.1001L92.0992 71.1001L66.1992 150.3Z" fill="#FBB040"/>
<path d="M75 105C99.3005 105 119 85.3005 119 61C119 36.6995 99.3005 17 75 17C50.6995 17 31 36.6995 31 61C31 85.3005 50.6995 105 75 105Z" fill="#EAEAE9"/>
<path d="M75.0016 91.0001C58.5016 91.0001 45.1016 77.5001 45.1016 61.0001C45.1016 44.5001 58.5016 31.1001 75.0016 31.1001C91.5016 31.1001 104.902 44.5001 104.902 61.0001C104.902 77.5001 91.5016 91.0001 75.0016 91.0001Z" fill="#FAFAFA"/>
<path d="M75.0016 34.1001C89.9016 34.1001 101.902 46.2001 101.902 61.0001C101.902 75.8001 89.9016 88.0001 75.0016 88.0001C60.1016 88.0001 48.1016 75.9001 48.1016 61.0001C48.1016 46.1001 60.1016 34.1001 75.0016 34.1001ZM75.0016 28.1001C56.8016 28.1001 42.1016 42.9001 42.1016 61.0001C42.1016 79.1001 56.8016 94.0001 75.0016 94.0001C93.2016 94.0001 107.902 79.2001 107.902 61.1001C107.902 43.0001 93.2016 28.1001 75.0016 28.1001Z" fill="#123155"/>
<path d="M83.2992 51L72.1992 62.1L66.5992 56.5L62.1992 61L72.1992 71L87.6992 55.4L83.2992 51Z" fill="#0109C4"/>
</g>
<defs>
<clipPath id="clip0_406_5699">
<rect width="150" height="150" fill="white"/>
</clipPath>
</defs>
</svg>
