<svg width="146" height="150" viewBox="0 0 146 150" fill="none" xmlns="http://www.w3.org/2000/svg">
<path d="M17.3008 66.3998V131.4L73.3008 150V47.7998L17.3008 66.3998Z" fill="#EAEAE9"/>
<path d="M72.7016 47.7998L67.1016 84.9998L72.7016 150L128.802 131.4V66.3998L72.7016 47.7998Z" fill="#D1D1D1"/>
<path d="M78.3008 56.4001L78.9008 58.2001L77.0008 62.5001L80.2008 66.2001L84.6008 65.0001L86.2008 65.8001L87.9008 70.2001L92.8008 70.6001L95.0008 66.6001L96.7008 65.9001L101.001 67.8001L104.701 64.6001L103.501 60.2001L104.301 58.6001L108.601 56.9001L109.001 52.0001L105.001 49.8001L104.401 48.1001L106.301 43.8001L103.101 40.1001L98.7008 41.3001L97.1008 40.5001L95.5008 36.0001L90.6008 35.6001L88.4008 39.6001L86.7008 40.2001L82.4008 38.3001L78.7008 41.5001L79.9008 45.9001L79.0008 47.6001L74.7008 49.3001L74.3008 54.2001L78.3008 56.4001Z" fill="#123155"/>
<path d="M92.3017 46.5001C88.7017 46.2001 85.5017 49.0001 85.2017 52.7001C84.9017 56.4001 87.7017 59.5001 91.4017 59.8001C95.0017 60.1001 98.2017 57.3001 98.5017 53.6001C98.7017 49.9001 95.9017 46.7001 92.3017 46.5001Z" fill="white"/>
<path d="M42.6008 67.4L43.7008 69.9L41.7008 76.4L47.0008 81.3L53.3008 78.8L55.8008 79.7L59.0008 85.8L66.2008 85.6L68.8008 79.4L71.2008 78.2L77.8008 80.2L82.7008 74.9L80.2008 68.6L81.1008 66.1L87.0008 62.9L86.8008 55.7L80.6008 53.1L79.5008 50.7L81.5008 44.2L76.2008 39.3L69.9008 41.8L67.4008 41L64.3008 35L57.1008 35.2L54.5008 41.4L52.1008 42.5L45.6008 40.5L40.7008 45.8L43.2008 52.1L42.3008 54.6L36.3008 57.7L36.5008 64.9L42.6008 67.4Z" fill="#0109C4"/>
<path d="M61.299 50.7002C55.999 50.9002 51.799 55.4002 51.999 60.8002C52.199 66.1002 56.699 70.3002 62.099 70.1002C67.399 69.9002 71.599 65.4002 71.399 60.0002C71.099 54.7002 66.599 50.5002 61.299 50.7002Z" fill="white"/>
<path d="M17.3008 66.3999V131.4L73.3008 150V84.9999L17.3008 66.3999Z" fill="#D1D1D1"/>
<path d="M70.6016 85.6V150.6L126.702 132V67L70.6016 85.6Z" fill="#BCBCBC"/>
<path d="M89.4008 110.6L73.3008 84.9999L129.401 66.3999L145.501 91.9999L89.4008 110.6Z" fill="#EAEAE9"/>
<path d="M56.6 110.6L72.7 84.9999L16.6 66.3999L0.5 91.9999L56.6 110.6Z" fill="#EAEAE9"/>
<path d="M65.4023 0H71.7023V17.5H65.4023V0Z" fill="#ED8B00"/>
<path d="M92.7023 3.5L98.6023 5.8L92.3023 22L86.4023 19.7L92.7023 3.5Z" fill="#FBB040"/>
<path d="M50.0031 19.7L44.1031 22L37.7031 5.8L43.6031 3.5L50.0031 19.7Z" fill="#FBB040"/>
<path d="M31.0016 29.1999L26.9016 33.9999L13.6016 22.6999L17.7016 17.8999L31.0016 29.1999Z" fill="#ED8B00"/>
<path d="M118.702 17.8999L122.802 22.6999L109.502 33.9999L105.402 29.1999L118.702 17.8999Z" fill="#ED8B00"/>
<path d="M125.401 150C136.502 150 145.501 141.001 145.501 129.9C145.501 118.799 136.502 109.8 125.401 109.8C114.3 109.8 105.301 118.799 105.301 129.9C105.301 141.001 114.3 150 125.401 150Z" fill="#0109C4"/>
<path d="M132.902 120.9L122.902 130.9L117.902 125.9L113.902 129.9L122.902 138.9L136.902 124.9L132.902 120.9Z" fill="white"/>
</svg>
