<svg width="100" height="100" viewBox="0 0 100 100" fill="none" xmlns="http://www.w3.org/2000/svg">
<g clip-path="url(#clip0_406_5923)">
<path d="M50.001 69.3699C47.9175 69.365 45.8481 69.0275 43.871 68.3699C43.6005 68.2765 43.3776 68.0805 43.2504 67.8242C43.1232 67.5679 43.1018 67.2718 43.191 66.9999C43.2598 66.7877 43.3931 66.6024 43.5724 66.4697C43.7517 66.337 43.968 66.2637 44.191 66.2599C44.3039 66.2454 44.4181 66.2454 44.531 66.2599C46.2917 66.8663 48.1389 67.1837 50.001 67.1999C51.8503 67.2064 53.6881 66.9091 55.441 66.3199C55.5539 66.3054 55.6681 66.3054 55.781 66.3199C56.004 66.3237 56.2203 66.397 56.3996 66.5297C56.5789 66.6623 56.7122 66.8477 56.781 67.0599C56.8261 67.1937 56.844 67.3352 56.8337 67.476C56.8234 67.6168 56.7851 67.7541 56.721 67.8799C56.659 68.0079 56.5723 68.1224 56.4659 68.2168C56.3595 68.3112 56.2355 68.3836 56.101 68.4299C54.1303 69.0646 52.0713 69.3819 50.001 69.3699Z" fill="#0109C4"/>
<path d="M49.9984 80C44.8696 79.9856 39.9339 78.0417 36.1727 74.5548C32.4116 71.0678 30.1003 66.2931 29.6984 61.18V60.66L29.1884 60.53C28.9684 60.48 23.8984 59.22 23.8984 53.86V38.43C23.9073 36.877 24.439 35.3723 25.4078 34.1586C26.3766 32.9448 27.7261 32.0928 29.2384 31.74L29.7184 31.63L29.7884 31.14C30.1379 28.5786 31.4071 26.2319 33.3593 24.5373C35.3115 22.8427 37.8134 21.916 40.3984 21.93H43.1684V21.08C43.1708 20.7994 43.2813 20.5306 43.4769 20.3295C43.6724 20.1283 43.9381 20.0103 44.2184 20H55.7784C56.0658 20 56.3415 20.1135 56.5457 20.3157C56.7498 20.518 56.8658 20.7927 56.8684 21.08V21.93H59.6384C62.2188 21.9367 64.7109 22.8704 66.6603 24.561C68.6098 26.2516 69.8867 28.5865 70.2584 31.14L70.3184 31.63L70.8084 31.74C72.3181 32.0964 73.6643 32.9497 74.6309 34.1629C75.5974 35.3761 76.1284 36.8789 76.1384 38.43V53.86C76.1331 55.4041 75.6085 56.9016 74.6489 58.1114C73.6894 59.3213 72.3508 60.1731 70.8484 60.53L70.3384 60.66V61.18C69.9315 66.2983 67.6132 71.076 63.8445 74.563C60.0759 78.05 55.1329 79.991 49.9984 80ZM31.8984 61.51C32.3692 65.9824 34.4791 70.1221 37.8213 73.1309C41.1635 76.1398 45.5014 77.8047 49.9984 77.8047C54.4955 77.8047 58.8333 76.1398 62.1756 73.1309C65.5178 70.1221 67.6277 65.9824 68.0984 61.51L68.1784 60.72H58.5084C56.4779 60.7132 54.5313 59.9087 53.0884 58.48C52.2689 57.672 51.1643 57.2191 50.0134 57.2191C48.8626 57.2191 47.758 57.672 46.9384 58.48C45.4947 59.9307 43.5351 60.7505 41.4884 60.76H31.8184L31.8984 61.51ZM49.9984 55C51.7295 55.0051 53.3891 55.6912 54.6184 56.91C55.6523 57.9395 57.0494 58.5213 58.5084 58.53H69.2784C70.5241 58.5274 71.7181 58.0313 72.5989 57.1505C73.4798 56.2696 73.9758 55.0757 73.9784 53.83V38.43C73.9758 37.1843 73.4798 35.9904 72.5989 35.1095C71.7181 34.2287 70.5241 33.7326 69.2784 33.73H30.7184C29.4727 33.7326 28.2788 34.2287 27.398 35.1095C26.5171 35.9904 26.0211 37.1843 26.0184 38.43V53.86C26.0211 55.1057 26.5171 56.2996 27.398 57.1805C28.2788 58.0613 29.4727 58.5574 30.7184 58.56H41.4884C42.9284 58.5585 44.3118 57.9994 45.3484 57C45.9531 56.3762 46.6753 55.8782 47.4734 55.535C48.2715 55.1917 49.1297 55.0099 49.9984 55ZM56.8684 31.54H68.1784L67.9984 30.69C67.5535 28.8139 66.4896 27.1424 64.9783 25.945C63.4671 24.7476 61.5966 24.0941 59.6684 24.09H56.8684V31.54ZM45.2984 31.54H54.6984V22.14H45.2984V31.54ZM40.3584 24.06C38.4234 24.062 36.5456 24.7166 35.0285 25.9179C33.5115 27.1191 32.4439 28.7969 31.9984 30.68L31.7884 31.57H43.0884V24.09L40.3584 24.06Z" fill="#0109C4"/>
<path d="M48.4219 38.3202C48.4219 38.6327 48.5145 38.9382 48.6882 39.198C48.8618 39.4579 49.1085 39.6604 49.3972 39.78C49.6859 39.8995 50.0036 39.9308 50.3101 39.8699C50.6166 39.8089 50.8981 39.6584 51.1191 39.4375C51.3401 39.2165 51.4906 38.935 51.5515 38.6285C51.6125 38.322 51.5812 38.0043 51.4616 37.7156C51.342 37.4269 51.1395 37.1801 50.8797 37.0065C50.6198 36.8329 50.3144 36.7402 50.0019 36.7402C49.5828 36.7402 49.181 36.9067 48.8846 37.203C48.5883 37.4993 48.4219 37.9012 48.4219 38.3202Z" fill="#0109C4"/>
<path d="M53.4219 38.3202C53.4219 38.6327 53.5145 38.9382 53.6882 39.198C53.8618 39.4579 54.1085 39.6604 54.3972 39.78C54.6859 39.8995 55.0036 39.9308 55.3101 39.8699C55.6166 39.8089 55.8981 39.6584 56.1191 39.4375C56.3401 39.2165 56.4906 38.935 56.5515 38.6285C56.6125 38.322 56.5812 38.0043 56.4616 37.7156C56.342 37.4269 56.1395 37.1801 55.8797 37.0065C55.6198 36.8329 55.3144 36.7402 55.0019 36.7402C54.5828 36.7402 54.181 36.9067 53.8846 37.203C53.5883 37.4993 53.4219 37.9012 53.4219 38.3202Z" fill="#0109C4"/>
<path d="M43.4219 38.3202C43.4219 38.6327 43.5145 38.9382 43.6882 39.198C43.8618 39.4579 44.1085 39.6604 44.3972 39.78C44.6859 39.8995 45.0036 39.9308 45.3101 39.8699C45.6166 39.8089 45.8981 39.6584 46.1191 39.4375C46.3401 39.2165 46.4906 38.935 46.5515 38.6285C46.6125 38.322 46.5812 38.0043 46.4616 37.7156C46.342 37.4269 46.1395 37.1801 45.8797 37.0065C45.6198 36.8329 45.3144 36.7402 45.0019 36.7402C44.5828 36.7402 44.181 36.9067 43.8846 37.203C43.5883 37.4993 43.4219 37.9012 43.4219 38.3202Z" fill="#0109C4"/>
</g>
<defs>
<clipPath id="clip0_406_5923">
<rect width="100" height="100" fill="white"/>
</clipPath>
</defs>
</svg>
