<svg width="150" height="150" viewBox="0 0 150 150" fill="none" xmlns="http://www.w3.org/2000/svg">
<path d="M27.9802 15.8611L19 24.8413L30.0308 35.8721L39.0109 26.8919L27.9802 15.8611Z" fill="#123155"/>
<path d="M102.539 15.9561L91.5078 26.9868L100.488 35.967L111.519 24.9362L102.539 15.9561Z" fill="#123155"/>
<path d="M65.2984 117.2C92.029 117.2 113.698 95.5305 113.698 68.7999C113.698 42.0693 92.029 20.3999 65.2984 20.3999C38.5679 20.3999 16.8984 42.0693 16.8984 68.7999C16.8984 95.5305 38.5679 117.2 65.2984 117.2Z" fill="#FAFAFA"/>
<path d="M65.2977 20.3999C65.1977 20.3999 65.1977 20.3999 65.2977 20.3999V117.2C91.9977 117.2 113.698 95.4999 113.698 68.7999C113.698 42.0999 91.9977 20.3999 65.2977 20.3999Z" fill="#EAEAE9"/>
<path d="M65.1992 47.1V30.5C65.2992 30.5 65.3992 30.5 65.4992 30.5C86.5992 30.5 103.799 47.6 103.799 68.8C103.799 68.9 103.799 69 103.799 69H87.1992C87.1992 68.9 87.1992 68.8 87.1992 68.8C87.1992 56.8 77.4992 47.1 65.4992 47.1C65.3992 47.1 65.2992 47.1 65.1992 47.1Z" fill="#BCBCBC"/>
<path d="M69.8992 16.0002V8.2002H60.5992V16.0002C33.4992 18.4002 12.1992 41.1002 12.1992 68.8002C12.1992 98.0002 35.9992 121.8 65.1992 121.8C94.3992 121.8 118.199 98.0002 118.199 68.8002C118.299 41.1002 96.9992 18.3002 69.8992 16.0002ZM65.2992 112.5C41.1992 112.5 21.5992 92.9002 21.5992 68.8002C21.5992 44.7002 41.1992 25.1002 65.2992 25.1002C89.3992 25.1002 108.999 44.7002 108.999 68.8002C108.999 92.9002 89.3992 112.5 65.2992 112.5Z" fill="#0109C4"/>
<path d="M69.8992 16.0002V8.2002H65.1992V25.1002C89.2992 25.1002 108.899 44.7002 108.899 68.8002C108.899 92.9002 89.2992 112.5 65.1992 112.5V121.8C94.3992 121.8 118.199 98.0002 118.199 68.8002C118.299 41.1002 96.9992 18.3002 69.8992 16.0002Z" fill="#0109C4"/>
<path d="M75.5984 0H54.8984V12.7H75.5984V0Z" fill="#123155"/>
<path d="M75.5992 0H65.1992V12.7H75.5992V0Z" fill="#123155"/>
<path d="M49.8008 56.7002L37.8008 68.8002L49.9008 80.9002L53.4008 77.4002L44.8008 68.8002L53.4008 60.2002L49.8008 56.7002Z" fill="#123155" stroke="#123155"/>
<path d="M77.1992 60.2002L85.7992 68.8002L77.1992 77.4002L80.6992 80.9002L92.7992 68.8002L80.6992 56.7002L77.1992 60.2002Z" fill="#123155" stroke="#123155"/>
<path d="M57.4023 76.6004L68.9023 57.4004L73.1023 59.9004L61.6023 79.1004L57.4023 76.6004Z" fill="#123155" stroke="#123155"/>
<path d="M110.799 100.4L134.699 63.7002H102.499L78.6992 108.9H98.0992L81.2992 150L137.799 100.4H110.799Z" fill="#ED8B00"/>
<path d="M81.3008 150L137.801 100.4H123.101L81.3008 150Z" fill="#FBB040"/>
</svg>
