<svg width="150" height="150" viewBox="0 0 150 150" fill="none" xmlns="http://www.w3.org/2000/svg">
<g clip-path="url(#clip0_406_5783)">
<path d="M113.699 74.1L136.199 85.9L131.899 61L149.999 43.3L124.999 39.6L113.699 17V74.1Z" fill="#ED8B00"/>
<path d="M113.7 17L102.5 39.6L77.5 43.3L95.6 61L91.3 85.9L113.7 74.1V17Z" fill="#FBB040"/>
<path d="M125 51.2L117.2 50.1L113.7 43L110.3 50.1L102.5 51.2L108.1 56.6L106.8 64.3L113.7 60.7L120.7 64.3L119.3 56.6L125 51.2Z" fill="white"/>
<path d="M51.5977 40.8L67.5977 49.3L64.4977 31.4L77.4977 18.8L59.5977 16.2L51.5977 0V40.8Z" fill="#ED8B00"/>
<path d="M51.5992 0L43.5992 16.2L25.6992 18.8L38.6992 31.4L35.5992 49.3L51.5992 40.8V0Z" fill="#FBB040"/>
<path d="M59.5977 24.4001L54.0977 23.6001L51.5977 18.6001L49.0977 23.6001L43.5977 24.4001L47.5977 28.3001L46.6977 33.9001L51.5977 31.3001L56.4977 33.9001L55.5977 28.3001L59.5977 24.4001Z" fill="white"/>
<path d="M133.299 95.2002L134.299 99.0002C135.899 104.8 140.399 109.3 146.099 110.8L149.899 111.8L146.099 112.8C140.299 114.4 135.799 118.9 134.299 124.6L133.299 128.4L132.299 124.6C130.699 118.8 126.199 114.3 120.499 112.8L116.699 111.8L120.499 110.8C126.299 109.2 130.799 104.7 132.299 99.0002L133.299 95.2002Z" fill="#EAEAE9"/>
<path d="M12.9 45.5L13.7 48.4C14.9 52.9 18.4 56.4 22.9 57.6L25.8 58.4L22.9 59.2C18.4 60.4 14.9 63.9 13.7 68.4L12.9 71.3L12.1 68.4C10.9 63.9 7.4 60.4 2.9 59.2L0 58.5L2.9 57.7C7.4 56.5 10.9 53 12.1 48.5L12.9 45.5Z" fill="#EAEAE9"/>
<path d="M93.1 106.7C96.7 103.1 96.8 97.3999 93.3 93.6999C91.4 91.5999 88.9 90.4999 86.1 90.4999C79.4 90.4999 72.6 90.4999 65.9 90.4999C65.5 90.4999 65.2 90.5999 64.8 90.2999C65.4 88.0999 66.1 85.8999 66.7 83.6999C67.1 82.2999 67.7 80.9999 67.8 79.4999C67.8 77.5999 67.9 75.6999 67.7 73.7999C67.4 69.6999 65.8 66.2999 63 63.3999C60 60.2999 56.2 58.6999 51.9 58.3999C48.9 58.1999 47.1 59.9999 47.1 62.8999C47.1 66.1999 47.1 69.4999 47.1 72.6999C47.1 73.1999 47 73.5999 46.7 73.9999C44.2 77.3999 41.3 80.3999 38.6 83.5999C36.4 86.0999 34.2 88.5999 31.9 90.9999C30.2 92.8999 28.4 94.6999 26.6 96.5999C26.6 96.9999 26.5 97.2999 26.5 97.6999C26.5 104.4 26.5 111.2 26.5 117.9H26.6C26.6 124.2 26.6 130.5 26.6 136.8C26.6 139.1 26.6 141.4 26.6 143.7C28.9 144.5 31.2 145.3 33.4 146.2C39.4 148.7 45.7 149.8 52.2 149.7C61.3 149.6 70.4 149.7 79.4 149.7C80.3 149.7 81.1 149.7 82 149.5C86.9 148.5 90.5 143.7 89.5 138.3C89.2 136.9 88.6 135.6 87.8 134.3C88 134.2 88.1 134.1 88.2 134.1C91.9 131.1 92.9 125.6 90.2 121.5C89.9 121.1 90 120.8 90.4 120.5C91.2 119.8 92 119 92.5 118C94.5 114.4 94.2 111 91.9 107.5C92.3 107.5 92.7 107.1 93.1 106.7Z" fill="#0109C4"/>
<path d="M28.2008 93.2998H19.8008V145.7H28.2008V93.2998Z" fill="#EAEAE9"/>
<path d="M19.7 88.6001H0V119.3H19.7V88.6001Z" fill="#005EB8"/>
<path d="M19.7 119.3H0V150H19.7V119.3Z" fill="#123155"/>
</g>
<defs>
<clipPath id="clip0_406_5783">
<rect width="150" height="150" fill="white"/>
</clipPath>
</defs>
</svg>
