<svg width="150" height="150" viewBox="0 0 150 150" fill="none" xmlns="http://www.w3.org/2000/svg">
<g clip-path="url(#clip0_406_5724)">
<path d="M19.3008 66.3998V131.4L75.3008 150V47.7998L19.3008 66.3998Z" fill="#EAEAE9"/>
<path d="M74.7016 47.7998L69.1016 84.9998L74.7016 150L130.802 131.4V66.3998L74.7016 47.7998Z" fill="#D1D1D1"/>
<path d="M80.3008 56.4001L80.9008 58.2001L79.0008 62.5001L82.2008 66.2001L86.6008 65.0001L88.2008 65.8001L89.9008 70.2001L94.8008 70.6001L97.0008 66.6001L98.7008 65.9001L103.001 67.8001L106.701 64.6001L105.501 60.2001L106.301 58.6001L110.601 56.9001L111.001 52.0001L107.001 49.8001L106.401 48.1001L108.301 43.8001L105.101 40.1001L100.701 41.3001L99.1008 40.5001L97.5008 36.0001L92.6008 35.6001L90.4008 39.6001L88.7008 40.2001L84.4008 38.3001L80.7008 41.5001L81.9008 45.9001L81.0008 47.6001L76.7008 49.3001L76.3008 54.2001L80.3008 56.4001Z" fill="#123155"/>
<path d="M94.3017 46.5001C90.7017 46.2001 87.5017 49.0001 87.2017 52.7001C86.9017 56.4001 89.7017 59.5001 93.4017 59.8001C97.0017 60.1001 100.202 57.3001 100.502 53.6001C100.702 49.9001 97.9017 46.7001 94.3017 46.5001Z" fill="white"/>
<path d="M44.6008 67.4L45.7008 69.9L43.7008 76.4L49.0008 81.3L55.3008 78.8L57.8008 79.7L61.0008 85.8L68.2008 85.6L70.8008 79.4L73.2008 78.2L79.8008 80.2L84.7008 74.9L82.2008 68.6L83.1008 66.1L89.0008 62.9L88.8008 55.7L82.6008 53.1L81.5008 50.7L83.5008 44.2L78.2008 39.3L71.9008 41.8L69.4008 41L66.3008 35L59.1008 35.2L56.5008 41.4L54.1008 42.5L47.6008 40.5L42.7008 45.8L45.2008 52.1L44.3008 54.6L38.3008 57.7L38.5008 64.9L44.6008 67.4Z" fill="#0109C4"/>
<path d="M63.299 50.7002C57.999 50.9002 53.799 55.4002 53.999 60.8002C54.199 66.1002 58.699 70.3002 64.099 70.1002C69.399 69.9002 73.599 65.4002 73.399 60.0002C73.099 54.7002 68.599 50.5002 63.299 50.7002Z" fill="white"/>
<path d="M19.3008 66.3999V131.4L75.3008 150V84.9999L19.3008 66.3999Z" fill="#D1D1D1"/>
<path d="M72.6016 85.6V150.6L128.702 132V67L72.6016 85.6Z" fill="#BCBCBC"/>
<path d="M91.4008 110.6L75.3008 84.9999L131.401 66.3999L147.501 91.9999L91.4008 110.6Z" fill="#EAEAE9"/>
<path d="M58.6 110.6L74.7 84.9999L18.6 66.3999L2.5 91.9999L58.6 110.6Z" fill="#EAEAE9"/>
<path d="M67.4023 0H73.7023V17.5H67.4023V0Z" fill="#ED8B00"/>
<path d="M94.7023 3.5L100.602 5.8L94.3023 22L88.4023 19.7L94.7023 3.5Z" fill="#FBB040"/>
<path d="M52.0031 19.7L46.1031 22L39.7031 5.8L45.6031 3.5L52.0031 19.7Z" fill="#FBB040"/>
<path d="M33.0016 29.1999L28.9016 33.9999L15.6016 22.6999L19.7016 17.8999L33.0016 29.1999Z" fill="#ED8B00"/>
<path d="M120.702 17.8999L124.802 22.6999L111.502 33.9999L107.402 29.1999L120.702 17.8999Z" fill="#ED8B00"/>
<path d="M127.401 150C138.502 150 147.501 141.001 147.501 129.9C147.501 118.799 138.502 109.8 127.401 109.8C116.3 109.8 107.301 118.799 107.301 129.9C107.301 141.001 116.3 150 127.401 150Z" fill="#0109C4"/>
<path d="M134.902 120.9L124.902 130.9L119.902 125.9L115.902 129.9L124.902 138.9L138.902 124.9L134.902 120.9Z" fill="white"/>
</g>
<defs>
<clipPath id="clip0_406_5724">
<rect width="150" height="150" fill="white"/>
</clipPath>
</defs>
</svg>
